<?xml version="1.0" encoding="UTF-8" standalone="no"?>
<!-- Created with Inkscape (http://www.inkscape.org/) -->
<svg id="svg3222" xmlns:rdf="http://www.w3.org/1999/02/22-rdf-syntax-ns#" xmlns="http://www.w3.org/2000/svg" viewBox="0 0 80.000745 79.98875" height="100%" width="100%" version="1.1" xmlns:cc="http://creativecommons.org/ns#" xmlns:xlink="http://www.w3.org/1999/xlink" xmlns:dc="http://purl.org/dc/elements/1.1/">
<defs id="defs3224">
<radialGradient id="radialGradient3778" gradientUnits="userSpaceOnUse" cy="-177.3" cx="-780.65" gradientTransform="matrix(-0.35599303,-0.60446895,0.61306505,-0.36105557,-129.20941,-495.89869)" r="45.608">
<stop id="stop4059" style="stop-color:#550000;" offset="0"/>
<stop id="stop4061" style="stop-color:#d40000;" offset="0.37147"/>
<stop id="stop4063" style="stop-color:#e97f00;" offset="0.83076"/>
<stop id="stop4065" style="stop-color:#ffffff;" offset="1"/>
</radialGradient>
<radialGradient id="radialGradient3855" gradientUnits="userSpaceOnUse" cy="49.52" cx="165.02" gradientTransform="matrix(1.066435,0,0,1.0662793,-135.97885,-12.807538)" r="37.508">
<stop id="stop3851" style="stop-color:#ff2b2b;" offset="0"/>
<stop id="stop3857" style="stop-color:#ff2a2a;" offset="0.71876"/>
<stop id="stop3853" style="stop-color:#ff2a2a;stop-opacity:0;" offset="1"/>
</radialGradient>
</defs>
<metadata id="metadata3227">
<rdf:RDF>
<cc:Work rdf:about="">
<dc:format>image/svg+xml</dc:format>
<dc:type rdf:resource="http://purl.org/dc/dcmitype/StillImage"/>
<dc:title/>
</cc:Work>
</rdf:RDF>
</metadata>
<path id="path3141-2-8" style="fill-rule:evenodd;fill:url(#radialGradient3855);" d="M20.007,5.3653a39.986,39.986,0,1,1,39.986,69.258,39.986,39.986,0,1,1,-39.986,-69.258z"/>
<path id="path3141-2" style="fill-rule:evenodd;fill:url(#radialGradient3778);" d="M24.002,12.286a31.995,31.995,0,1,1,31.995,55.417,31.995,31.995,0,0,1,-31.995,-55.417z"/>
<path id="path4536-6-2-4-8-6" style="opacity:0.7;fill-rule:evenodd;fill:#000000;" d="m38.194,8.2462c-8.2158,0.67297-14.685,7.5455-14.685,15.935,0,2.8675,0.77214,5.5463,2.0934,7.8737-2.7533-0.0209-5.5355,0.67965-8.0924,2.1559-7.2746,4.2-9.9818,13.258-6.4364,20.715-2.4533-5.5352-0.39356-12.152,4.9679-15.247,5.5248-3.1897,12.557-1.5016,16.029,3.7494l-0.2812-0.46868,2.8745-1.5935c-0.0906-0.37643-0.15622-0.75183-0.15622-1.1561,0-2.4158,1.7213-4.4393,3.9993-4.9054l0.0625-3.187c-6.1835-0.48296-11.061-5.628-11.061-11.936,0-6.1811,4.6793-11.279,10.686-11.936zm2.5933,0c6.0202,0.64294,10.717,5.7446,10.717,11.936,0,6.2651-4.8114,11.393-10.936,11.936l-0.0312,3.187c2.2632,0.47757,3.9681,2.5002,3.9681,4.9054,0,0.36928-0.049,0.71585-0.12498,1.0623l2.812,1.6872c3.5832-4.8289,10.32-6.2973,15.654-3.2182,5.353,3.0905,7.4342,9.6865,4.9992,15.216,3.5251-7.4516,0.79771-16.489-6.4677-20.684-2.5276-1.4593-5.2759-2.1605-7.9987-2.1559,1.3429-2.3414,2.1246-5.0434,2.1246-7.9362,0-8.3999-6.4857-15.277-14.716-15.935zm-1.281,15.466c-2.8488,0-5.6975,0.71426-8.2486,2.1871l1.4998,2.6246c4.1783-2.4123,9.3194-2.4123,13.498,0l1.4997-2.6246c-2.5511-1.4729-5.3998-2.1871-8.2486-2.1871zm-16.497,16.497c0,5.8915,3.1464,11.333,8.2486,14.279l1.4998-2.5933c-4.1783-2.4123-6.7489-6.8609-6.7489-11.686h-2.9995zm29.995,0c0,4.8247-2.5706,9.2732-6.7489,11.686l1.4997,2.5933c5.1022-2.9458,8.2486-8.3874,8.2486-14.279h-2.9995zm-9.4359,2.9058c-0.9078,1.2587-2.3914,2.0934-4.0618,2.0934-1.6393,0-3.0877-0.81189-3.9993-2.0309l-2.7183,1.531c2.807,5.6317,0.77331,12.559-4.7492,15.747-5.353,3.0905-12.113,1.5617-15.685-3.3119,4.6907,6.7786,13.887,8.9439,21.153,4.7492,2.5778-1.4883,4.5461-3.5792,5.9053-5.999,1.3596,2.4512,3.3635,4.5579,5.9678,6.0615,7.2746,4.2,16.467,2.0496,21.153-4.7492-3.5669,4.8922-10.323,6.4074-15.685,3.3119-5.5552-3.2073-7.568-10.192-4.6867-15.841l-2.5933-1.5622z"/>
</svg>
