<?xml version="1.0" encoding="UTF-8" standalone="no"?>
<!-- Created with Inkscape (http://www.inkscape.org/) -->
<svg id="svg63687" xmlns:rdf="http://www.w3.org/1999/02/22-rdf-syntax-ns#" xmlns="http://www.w3.org/2000/svg" viewBox="0 0 86.456 82.082" version="1.1" xmlns:cc="http://creativecommons.org/ns#" xmlns:xlink="http://www.w3.org/1999/xlink" xmlns:dc="http://purl.org/dc/elements/1.1/">
<defs id="defs63689">
<radialGradient id="radialGradient68704" xlink:href="#linearGradient6524" gradientUnits="userSpaceOnUse" cy="429.05" cx="1025" r="7.4246"/>
<linearGradient id="linearGradient6524">
<stop id="stop6526" style="stop-color:#ff6600;" offset="0"/>
<stop id="stop6528" style="stop-color:#ff0000;stop-opacity:0;" offset="1"/>
</linearGradient>
<linearGradient id="linearGradient68702" y2="8.4363" gradientUnits="userSpaceOnUse" x2="16.291" gradientTransform="matrix(0.98891313,0.00790659,-0.00776573,0.98175062,79.6767,788.42263)" y1="21.125" x1="16.413">
<stop id="stop3786-2-7-7-0-2-26" style="stop-color:#ff6600;" offset="0"/>
<stop id="stop3788-4-1-6-9-0-5" style="stop-color:#ffffff;" offset="1"/>
</linearGradient>
</defs>
<metadata id="metadata63692">
<rdf:RDF>
<cc:Work rdf:about="">
<dc:format>image/svg+xml</dc:format>
<dc:type rdf:resource="http://purl.org/dc/dcmitype/StillImage"/>
<dc:title/>
</cc:Work>
</rdf:RDF>
</metadata>
<g id="layer1" transform="translate(-239.62932,-351.32113)">
<g id="g73492" transform="translate(187.39769,-411.80551)">
<path id="use13790-0-3-3-2" style="fill-rule:evenodd;fill:url(#radialGradient68704);" d="m1032.4,429.05c0,4.1005-3.3241,7.4246-7.4246,7.4246s-7.4246-3.3241-7.4246-7.4246,3.3241-7.4246,7.4246-7.4246,7.4246,3.3241,7.4246,7.4246z" transform="matrix(0.6039942,0,0,0.6039942,-532.1973,525.13931)"/>
<path id="use13792-8-1-6-1" style="fill-rule:evenodd;fill:url(#radialGradient68706);" d="m1032.4,429.05c0,4.1005-3.3241,7.4246-7.4246,7.4246s-7.4246-3.3241-7.4246-7.4246,3.3241-7.4246,7.4246-7.4246,7.4246,3.3241,7.4246,7.4246z" transform="matrix(0.6039942,0,0,0.6039942,-531.0787,528.13895)"/>
<path id="use13794-7-3-3-2" style="fill-rule:evenodd;fill:url(#radialGradient68708);" d="m1032.4,429.05c0,4.1005-3.3241,7.4246-7.4246,7.4246s-7.4246-3.3241-7.4246-7.4246,3.3241-7.4246,7.4246-7.4246,7.4246,3.3241,7.4246,7.4246z" transform="matrix(0.6039942,0,0,0.6039942,-531.55234,522.06632)"/>
<path id="use13796-2-3-67-1" style="fill-rule:evenodd;fill:url(#radialGradient68710);" d="m1032.4,429.05c0,4.1005-3.3241,7.4246-7.4246,7.4246s-7.4246-3.3241-7.4246-7.4246,3.3241-7.4246,7.4246-7.4246,7.4246,3.3241,7.4246,7.4246z" transform="matrix(0.6039942,0,0,0.6039942,-530.07433,518.0787)"/>
<path id="use13798-8-4-6-6" style="fill-rule:evenodd;fill:url(#radialGradient68712);" d="m1032.4,429.05c0,4.1005-3.3241,7.4246-7.4246,7.4246s-7.4246-3.3241-7.4246-7.4246,3.3241-7.4246,7.4246-7.4246,7.4246,3.3241,7.4246,7.4246z" transform="matrix(0.6039942,0,0,0.6039942,-535.61344,522.5305)"/>
<path id="use13800-37-3-6-4" style="fill-rule:evenodd;fill:url(#radialGradient68714);" d="m1032.4,429.05c0,4.1005-3.3241,7.4246-7.4246,7.4246s-7.4246-3.3241-7.4246-7.4246,3.3241-7.4246,7.4246-7.4246,7.4246,3.3241,7.4246,7.4246z" transform="matrix(0.6039942,0,0,0.6039942,-530.91274,521.65229)"/>
<path id="use13802-5-5-3-9" style="fill-rule:evenodd;fill:url(#radialGradient68716);" d="m1032.4,429.05c0,4.1005-3.3241,7.4246-7.4246,7.4246s-7.4246-3.3241-7.4246-7.4246,3.3241-7.4246,7.4246-7.4246,7.4246,3.3241,7.4246,7.4246z" transform="matrix(0.6039942,0,0,0.6039942,-531.37798,521.40026)"/>
<path id="use13804-4-2-32-3" style="fill-rule:evenodd;fill:url(#radialGradient68718);" d="m1032.4,429.05c0,4.1005-3.3241,7.4246-7.4246,7.4246s-7.4246-3.3241-7.4246-7.4246,3.3241-7.4246,7.4246-7.4246,7.4246,3.3241,7.4246,7.4246z" transform="matrix(0.6039942,0,0,0.6039942,-532.54454,522.71546)"/>
<path id="use13806-1-1-4-0" style="fill-rule:evenodd;fill:url(#radialGradient68720);" d="m1032.4,429.05c0,4.1005-3.3241,7.4246-7.4246,7.4246s-7.4246-3.3241-7.4246-7.4246,3.3241-7.4246,7.4246-7.4246,7.4246,3.3241,7.4246,7.4246z" transform="matrix(0.6039942,0,0,0.6039942,-527.71777,527.63622)"/>
<path id="use13808-8-6-8-5" style="fill-rule:evenodd;fill:url(#radialGradient68722);" d="m1032.4,429.05c0,4.1005-3.3241,7.4246-7.4246,7.4246s-7.4246-3.3241-7.4246-7.4246,3.3241-7.4246,7.4246-7.4246,7.4246,3.3241,7.4246,7.4246z" transform="matrix(0.6039942,0,0,0.6039942,-530.09691,523.31983)"/>
<path id="use13810-29-9-1-7" style="fill-rule:evenodd;fill:url(#radialGradient68724);" d="m1032.4,429.05c0,4.1005-3.3241,7.4246-7.4246,7.4246s-7.4246-3.3241-7.4246-7.4246,3.3241-7.4246,7.4246-7.4246,7.4246,3.3241,7.4246,7.4246z" transform="matrix(0.6039942,0,0,0.6039942,-525.09631,521.37879)"/>
<path id="use13812-6-8-7-9" style="fill-rule:evenodd;fill:url(#radialGradient68726);" d="m1032.4,429.05c0,4.1005-3.3241,7.4246-7.4246,7.4246s-7.4246-3.3241-7.4246-7.4246,3.3241-7.4246,7.4246-7.4246,7.4246,3.3241,7.4246,7.4246z" transform="matrix(0.6039942,0,0,0.6039942,-529.85874,521.38859)"/>
<path id="use13814-8-8-19-8" style="fill-rule:evenodd;fill:url(#radialGradient68728);" d="m1032.4,429.05c0,4.1005-3.3241,7.4246-7.4246,7.4246s-7.4246-3.3241-7.4246-7.4246,3.3241-7.4246,7.4246-7.4246,7.4246,3.3241,7.4246,7.4246z" transform="matrix(0.6039942,0,0,0.6039942,-529.04018,519.58165)"/>
<path id="use13816-9-4-0-9" style="fill-rule:evenodd;fill:url(#radialGradient68730);" d="m1032.4,429.05c0,4.1005-3.3241,7.4246-7.4246,7.4246s-7.4246-3.3241-7.4246-7.4246,3.3241-7.4246,7.4246-7.4246,7.4246,3.3241,7.4246,7.4246z" transform="matrix(0.6039942,0,0,0.6039942,-536.71659,536.45147)"/>
<path id="use13818-81-1-6-2" style="fill-rule:evenodd;fill:url(#radialGradient68732);" d="m1032.4,429.05c0,4.1005-3.3241,7.4246-7.4246,7.4246s-7.4246-3.3241-7.4246-7.4246,3.3241-7.4246,7.4246-7.4246,7.4246,3.3241,7.4246,7.4246z" transform="matrix(0.6039942,0,0,0.6039942,-540.66701,537.33826)"/>
<path id="use13820-6-4-7-6" style="fill-rule:evenodd;fill:url(#radialGradient68734);" d="m1032.4,429.05c0,4.1005-3.3241,7.4246-7.4246,7.4246s-7.4246-3.3241-7.4246-7.4246,3.3241-7.4246,7.4246-7.4246,7.4246,3.3241,7.4246,7.4246z" transform="matrix(0.6039942,0,0,0.6039942,-541.11471,539.34728)"/>
<path id="use13822-37-5-1-8" style="fill-rule:evenodd;fill:url(#radialGradient68736);" d="m1032.4,429.05c0,4.1005-3.3241,7.4246-7.4246,7.4246s-7.4246-3.3241-7.4246-7.4246,3.3241-7.4246,7.4246-7.4246,7.4246,3.3241,7.4246,7.4246z" transform="matrix(0.6039942,0,0,0.6039942,-541.42779,536.38563)"/>
<path id="use13824-5-7-3-8" style="fill-rule:evenodd;fill:url(#radialGradient68738);" d="m1032.4,429.05c0,4.1005-3.3241,7.4246-7.4246,7.4246s-7.4246-3.3241-7.4246-7.4246,3.3241-7.4246,7.4246-7.4246,7.4246,3.3241,7.4246,7.4246z" transform="matrix(0.6039942,0,0,0.6039942,-536.08039,537.21146)"/>
<path id="use13826-4-3-3-90" style="fill-rule:evenodd;fill:url(#radialGradient68740);" d="m1032.4,429.05c0,4.1005-3.3241,7.4246-7.4246,7.4246s-7.4246-3.3241-7.4246-7.4246,3.3241-7.4246,7.4246-7.4246,7.4246,3.3241,7.4246,7.4246z" transform="matrix(0.6039942,0,0,0.6039942,-544.30937,536.85391)"/>
<path id="use13828-1-0-8-3" style="fill-rule:evenodd;fill:url(#radialGradient68742);" d="m1032.4,429.05c0,4.1005-3.3241,7.4246-7.4246,7.4246s-7.4246-3.3241-7.4246-7.4246,3.3241-7.4246,7.4246-7.4246,7.4246,3.3241,7.4246,7.4246z" transform="matrix(0.6039942,0,0,0.6039942,-537.69655,532.08232)"/>
<path id="use13830-0-2-1-2" style="fill-rule:evenodd;fill:url(#radialGradient68744);" d="m1032.4,429.05c0,4.1005-3.3241,7.4246-7.4246,7.4246s-7.4246-3.3241-7.4246-7.4246,3.3241-7.4246,7.4246-7.4246,7.4246,3.3241,7.4246,7.4246z" transform="matrix(0.6039942,0,0,0.6039942,-541.38869,540.77114)"/>
<path id="use13832-1-7-7-9" style="fill-rule:evenodd;fill:url(#radialGradient68746);" d="m1032.4,429.05c0,4.1005-3.3241,7.4246-7.4246,7.4246s-7.4246-3.3241-7.4246-7.4246,3.3241-7.4246,7.4246-7.4246,7.4246,3.3241,7.4246,7.4246z" transform="matrix(0.6039942,0,0,0.6039942,-544.01886,536.3489)"/>
<path id="use13834-22-7-9-3" style="fill-rule:evenodd;fill:url(#radialGradient68748);" d="m1032.4,429.05c0,4.1005-3.3241,7.4246-7.4246,7.4246s-7.4246-3.3241-7.4246-7.4246,3.3241-7.4246,7.4246-7.4246,7.4246,3.3241,7.4246,7.4246z" transform="matrix(0.6039942,0,0,0.6039942,-536.44066,541.89364)"/>
<path id="use13836-85-7-1-4" style="fill-rule:evenodd;fill:url(#radialGradient68750);" d="m1032.4,429.05c0,4.1005-3.3241,7.4246-7.4246,7.4246s-7.4246-3.3241-7.4246-7.4246,3.3241-7.4246,7.4246-7.4246,7.4246,3.3241,7.4246,7.4246z" transform="matrix(0.6039942,0,0,0.6039942,-545.27022,534.98329)"/>
<path id="use13838-4-0-3-5" style="fill-rule:evenodd;fill:url(#radialGradient68752);" d="m1032.4,429.05c0,4.1005-3.3241,7.4246-7.4246,7.4246s-7.4246-3.3241-7.4246-7.4246,3.3241-7.4246,7.4246-7.4246,7.4246,3.3241,7.4246,7.4246z" transform="matrix(0.6039942,0,0,0.6039942,-538.9228,539.93296)"/>
<path id="use13840-6-2-0-3" style="fill-rule:evenodd;fill:url(#radialGradient68754);" d="m1032.4,429.05c0,4.1005-3.3241,7.4246-7.4246,7.4246s-7.4246-3.3241-7.4246-7.4246,3.3241-7.4246,7.4246-7.4246,7.4246,3.3241,7.4246,7.4246z" transform="matrix(0.6039942,0,0,0.6039942,-540.24418,533.14196)"/>
<path id="use13842-7-0-18-0" style="fill-rule:evenodd;fill:url(#radialGradient68756);" d="m1032.4,429.05c0,4.1005-3.3241,7.4246-7.4246,7.4246s-7.4246-3.3241-7.4246-7.4246,3.3241-7.4246,7.4246-7.4246,7.4246,3.3241,7.4246,7.4246z" transform="matrix(0.6039942,0,0,0.6039942,-544.9382,540.84386)"/>
<path id="use13844-7-0-3-9" style="fill-rule:evenodd;fill:url(#radialGradient68758);" d="m1032.4,429.05c0,4.1005-3.3241,7.4246-7.4246,7.4246s-7.4246-3.3241-7.4246-7.4246,3.3241-7.4246,7.4246-7.4246,7.4246,3.3241,7.4246,7.4246z" transform="matrix(0.6039942,0,0,0.6039942,-537.34442,537.98635)"/>
<path id="use13846-3-8-03-9" style="fill-rule:evenodd;fill:url(#radialGradient68760);" d="m1032.4,429.05c0,4.1005-3.3241,7.4246-7.4246,7.4246s-7.4246-3.3241-7.4246-7.4246,3.3241-7.4246,7.4246-7.4246,7.4246,3.3241,7.4246,7.4246z" transform="matrix(0.6039942,0,0,0.6039942,-543.24812,540.8406)"/>
<path id="use13848-4-6-46-8" style="fill-rule:evenodd;fill:url(#radialGradient68762);" d="m1032.4,429.05c0,4.1005-3.3241,7.4246-7.4246,7.4246s-7.4246-3.3241-7.4246-7.4246,3.3241-7.4246,7.4246-7.4246,7.4246,3.3241,7.4246,7.4246z" transform="matrix(0.6039942,0,0,0.6039942,-541.98338,544.42859)"/>
<path id="use13850-4-4-7-7" style="fill-rule:evenodd;fill:url(#radialGradient68764);" d="m1032.4,429.05c0,4.1005-3.3241,7.4246-7.4246,7.4246s-7.4246-3.3241-7.4246-7.4246,3.3241-7.4246,7.4246-7.4246,7.4246,3.3241,7.4246,7.4246z" transform="matrix(0.6039942,0,0,0.6039942,-540.3489,542.14571)"/>
<path id="use13852-9-5-3-4" style="fill-rule:evenodd;fill:url(#radialGradient68766);" d="m1032.4,429.05c0,4.1005-3.3241,7.4246-7.4246,7.4246s-7.4246-3.3241-7.4246-7.4246,3.3241-7.4246,7.4246-7.4246,7.4246,3.3241,7.4246,7.4246z" transform="matrix(0.6039942,0,0,0.6039942,-540.3944,542.92303)"/>
<path id="use13854-1-0-2-6" style="fill-rule:evenodd;fill:url(#radialGradient68768);" d="m1032.4,429.05c0,4.1005-3.3241,7.4246-7.4246,7.4246s-7.4246-3.3241-7.4246-7.4246,3.3241-7.4246,7.4246-7.4246,7.4246,3.3241,7.4246,7.4246z" transform="matrix(0.6039942,0,0,0.6039942,-545.2755,547.9888)"/>
<path id="use13856-8-1-54-8" style="fill-rule:evenodd;fill:url(#radialGradient68770);" d="m1032.4,429.05c0,4.1005-3.3241,7.4246-7.4246,7.4246s-7.4246-3.3241-7.4246-7.4246,3.3241-7.4246,7.4246-7.4246,7.4246,3.3241,7.4246,7.4246z" transform="matrix(0.6039942,0,0,0.6039942,-543.6153,550.82652)"/>
<path id="use13858-3-5-82-6" style="fill-rule:evenodd;fill:url(#radialGradient68772);" d="m1032.4,429.05c0,4.1005-3.3241,7.4246-7.4246,7.4246s-7.4246-3.3241-7.4246-7.4246,3.3241-7.4246,7.4246-7.4246,7.4246,3.3241,7.4246,7.4246z" transform="matrix(0.6039942,0,0,0.6039942,-543.05357,552.31489)"/>
<path id="use13860-8-7-7-6" style="fill-rule:evenodd;fill:url(#radialGradient68774);" d="m1032.4,429.05c0,4.1005-3.3241,7.4246-7.4246,7.4246s-7.4246-3.3241-7.4246-7.4246,3.3241-7.4246,7.4246-7.4246,7.4246,3.3241,7.4246,7.4246z" transform="matrix(0.6039942,0,0,0.6039942,-547.27271,548.39569)"/>
<path id="use13862-7-3-93-8" style="fill-rule:evenodd;fill:url(#radialGradient68776);" d="m1032.4,429.05c0,4.1005-3.3241,7.4246-7.4246,7.4246s-7.4246-3.3241-7.4246-7.4246,3.3241-7.4246,7.4246-7.4246,7.4246,3.3241,7.4246,7.4246z" transform="matrix(0.6039942,0,0,0.6039942,-543.58669,546.48693)"/>
<path id="use13864-9-2-6-6" style="fill-rule:evenodd;fill:url(#radialGradient68778);" d="m1032.4,429.05c0,4.1005-3.3241,7.4246-7.4246,7.4246s-7.4246-3.3241-7.4246-7.4246,3.3241-7.4246,7.4246-7.4246,7.4246,3.3241,7.4246,7.4246z" transform="matrix(0.6039942,0,0,0.6039942,-545.18605,547.35842)"/>
<path id="use13866-7-7-5-02" style="fill-rule:evenodd;fill:url(#radialGradient68780);" d="m1032.4,429.05c0,4.1005-3.3241,7.4246-7.4246,7.4246s-7.4246-3.3241-7.4246-7.4246,3.3241-7.4246,7.4246-7.4246,7.4246,3.3241,7.4246,7.4246z" transform="matrix(0.6039942,0,0,0.6039942,-549.23813,563.16627)"/>
<path id="use13868-1-9-4-5" style="fill-rule:evenodd;fill:url(#radialGradient68782);" d="m1032.4,429.05c0,4.1005-3.3241,7.4246-7.4246,7.4246s-7.4246-3.3241-7.4246-7.4246,3.3241-7.4246,7.4246-7.4246,7.4246,3.3241,7.4246,7.4246z" transform="matrix(0.6039942,0,0,0.6039942,-554.63477,559.02003)"/>
<path id="use13870-1-1-6-6" style="fill-rule:evenodd;fill:url(#radialGradient68784);" d="m1032.4,429.05c0,4.1005-3.3241,7.4246-7.4246,7.4246s-7.4246-3.3241-7.4246-7.4246,3.3241-7.4246,7.4246-7.4246,7.4246,3.3241,7.4246,7.4246z" transform="matrix(0.6039942,0,0,0.6039942,-557.05442,558.98376)"/>
<path id="use13872-4-1-4-9" style="fill-rule:evenodd;fill:url(#radialGradient68786);" d="m1032.4,429.05c0,4.1005-3.3241,7.4246-7.4246,7.4246s-7.4246-3.3241-7.4246-7.4246,3.3241-7.4246,7.4246-7.4246,7.4246,3.3241,7.4246,7.4246z" transform="matrix(0.6039942,0,0,0.6039942,-548.38546,564.15954)"/>
<path id="use13874-3-4-1-1" style="fill-rule:evenodd;fill:url(#radialGradient68788);" d="m1032.4,429.05c0,4.1005-3.3241,7.4246-7.4246,7.4246s-7.4246-3.3241-7.4246-7.4246,3.3241-7.4246,7.4246-7.4246,7.4246,3.3241,7.4246,7.4246z" transform="matrix(0.6039942,0,0,0.6039942,-552.58882,569.65025)"/>
<path id="use13876-5-0-9-2" style="fill-rule:evenodd;fill:url(#radialGradient68790);" d="m1032.4,429.05c0,4.1005-3.3241,7.4246-7.4246,7.4246s-7.4246-3.3241-7.4246-7.4246,3.3241-7.4246,7.4246-7.4246,7.4246,3.3241,7.4246,7.4246z" transform="matrix(0.6039942,0,0,0.6039942,-552.87059,569.07049)"/>
<path id="use13878-2-3-8-1" style="fill-rule:evenodd;fill:url(#radialGradient68792);" d="m1032.4,429.05c0,4.1005-3.3241,7.4246-7.4246,7.4246s-7.4246-3.3241-7.4246-7.4246,3.3241-7.4246,7.4246-7.4246,7.4246,3.3241,7.4246,7.4246z" transform="matrix(0.6039942,0,0,0.6039942,-547.05602,561.43873)"/>
<path id="use13880-9-3-7-7" style="fill-rule:evenodd;fill:url(#radialGradient68794);" d="m1032.4,429.05c0,4.1005-3.3241,7.4246-7.4246,7.4246s-7.4246-3.3241-7.4246-7.4246,3.3241-7.4246,7.4246-7.4246,7.4246,3.3241,7.4246,7.4246z" transform="matrix(0.6039942,0,0,0.6039942,-548.00629,567.673)"/>
<path id="use13882-1-1-6-9" style="fill-rule:evenodd;fill:url(#radialGradient68796);" d="m1032.4,429.05c0,4.1005-3.3241,7.4246-7.4246,7.4246s-7.4246-3.3241-7.4246-7.4246,3.3241-7.4246,7.4246-7.4246,7.4246,3.3241,7.4246,7.4246z" transform="matrix(0.6039942,0,0,0.6039942,-552.76477,560.99896)"/>
<path id="use13884-5-5-0-9" style="fill-rule:evenodd;fill:url(#radialGradient68798);" d="m1032.4,429.05c0,4.1005-3.3241,7.4246-7.4246,7.4246s-7.4246-3.3241-7.4246-7.4246,3.3241-7.4246,7.4246-7.4246,7.4246,3.3241,7.4246,7.4246z" transform="matrix(0.6039942,0,0,0.6039942,-554.25101,568.70579)"/>
<path id="use13886-56-8-13-31" style="fill-rule:evenodd;fill:url(#radialGradient68800);" d="m1032.4,429.05c0,4.1005-3.3241,7.4246-7.4246,7.4246s-7.4246-3.3241-7.4246-7.4246,3.3241-7.4246,7.4246-7.4246,7.4246,3.3241,7.4246,7.4246z" transform="matrix(0.6039942,0,0,0.6039942,-562.34858,570.05275)"/>
<path id="use13888-7-3-5-7" style="fill-rule:evenodd;fill:url(#radialGradient68802);" d="m1032.4,429.05c0,4.1005-3.3241,7.4246-7.4246,7.4246s-7.4246-3.3241-7.4246-7.4246,3.3241-7.4246,7.4246-7.4246,7.4246,3.3241,7.4246,7.4246z" transform="matrix(0.6039942,0,0,0.6039942,-557.93722,570.0064)"/>
<path id="use13890-9-0-5-7" style="fill-rule:evenodd;fill:url(#radialGradient68804);" d="m1032.4,429.05c0,4.1005-3.3241,7.4246-7.4246,7.4246s-7.4246-3.3241-7.4246-7.4246,3.3241-7.4246,7.4246-7.4246,7.4246,3.3241,7.4246,7.4246z" transform="matrix(0.6039942,0,0,0.6039942,-554.62134,577.85575)"/>
<path id="use13892-0-5-68-4" style="fill-rule:evenodd;fill:url(#radialGradient68806);" d="m1032.4,429.05c0,4.1005-3.3241,7.4246-7.4246,7.4246s-7.4246-3.3241-7.4246-7.4246,3.3241-7.4246,7.4246-7.4246,7.4246,3.3241,7.4246,7.4246z" transform="matrix(0.6039942,0,0,0.6039942,-555.90659,572.62004)"/>
<path id="use13894-2-1-6-8" style="fill-rule:evenodd;fill:url(#radialGradient68808);" d="m1032.4,429.05c0,4.1005-3.3241,7.4246-7.4246,7.4246s-7.4246-3.3241-7.4246-7.4246,3.3241-7.4246,7.4246-7.4246,7.4246,3.3241,7.4246,7.4246z" transform="matrix(0.6039942,0,0,0.6039942,-556.50945,571.50305)"/>
<path id="use13896-3-0-82-4" style="fill-rule:evenodd;fill:url(#radialGradient68810);" d="m1032.4,429.05c0,4.1005-3.3241,7.4246-7.4246,7.4246s-7.4246-3.3241-7.4246-7.4246,3.3241-7.4246,7.4246-7.4246,7.4246,3.3241,7.4246,7.4246z" transform="matrix(0.6039942,0,0,0.6039942,-556.9772,570.56939)"/>
<path id="use13898-1-2-4-2" style="fill-rule:evenodd;fill:url(#radialGradient68812);" d="m1032.4,429.05c0,4.1005-3.3241,7.4246-7.4246,7.4246s-7.4246-3.3241-7.4246-7.4246,3.3241-7.4246,7.4246-7.4246,7.4246,3.3241,7.4246,7.4246z" transform="matrix(0.6039942,0,0,0.6039942,-552.2268,568.86459)"/>
<path id="use13900-9-5-6-5" style="fill-rule:evenodd;fill:url(#radialGradient68814);" d="m1032.4,429.05c0,4.1005-3.3241,7.4246-7.4246,7.4246s-7.4246-3.3241-7.4246-7.4246,3.3241-7.4246,7.4246-7.4246,7.4246,3.3241,7.4246,7.4246z" transform="matrix(0.6039942,0,0,0.6039942,-555.3595,567.96374)"/>
<path id="use13902-8-1-5-7" style="fill-rule:evenodd;fill:url(#radialGradient68816);" d="m1032.4,429.05c0,4.1005-3.3241,7.4246-7.4246,7.4246s-7.4246-3.3241-7.4246-7.4246,3.3241-7.4246,7.4246-7.4246,7.4246,3.3241,7.4246,7.4246z" transform="matrix(0.6039942,0,0,0.6039942,-552.4563,566.73683)"/>
<path id="use13904-7-0-33-6" style="fill-rule:evenodd;fill:url(#radialGradient68818);" d="m1032.4,429.05c0,4.1005-3.3241,7.4246-7.4246,7.4246s-7.4246-3.3241-7.4246-7.4246,3.3241-7.4246,7.4246-7.4246,7.4246,3.3241,7.4246,7.4246z" transform="matrix(0.6039942,0,0,0.6039942,-552.42661,573.56057)"/>
<path id="use13906-8-4-94-9" style="fill-rule:evenodd;fill:url(#radialGradient68820);" d="m1032.4,429.05c0,4.1005-3.3241,7.4246-7.4246,7.4246s-7.4246-3.3241-7.4246-7.4246,3.3241-7.4246,7.4246-7.4246,7.4246,3.3241,7.4246,7.4246z" transform="matrix(0.6039942,0,0,0.6039942,-551.12629,569.41652)"/>
<path id="use13908-4-0-8-3" style="fill-rule:evenodd;fill:url(#radialGradient68822);" d="m1032.4,429.05c0,4.1005-3.3241,7.4246-7.4246,7.4246s-7.4246-3.3241-7.4246-7.4246,3.3241-7.4246,7.4246-7.4246,7.4246,3.3241,7.4246,7.4246z" transform="matrix(0.6039942,0,0,0.6039942,-554.53013,568.34805)"/>
<path id="use13910-4-6-92-2" style="fill-rule:evenodd;fill:url(#radialGradient68824);" d="m1032.4,429.05c0,4.1005-3.3241,7.4246-7.4246,7.4246s-7.4246-3.3241-7.4246-7.4246,3.3241-7.4246,7.4246-7.4246,7.4246,3.3241,7.4246,7.4246z" transform="matrix(0.6039942,0,0,0.6039942,-552.77454,570.17154)"/>
<path id="use13912-4-4-0-2" style="fill-rule:evenodd;fill:url(#radialGradient68826);" d="m1032.4,429.05c0,4.1005-3.3241,7.4246-7.4246,7.4246s-7.4246-3.3241-7.4246-7.4246,3.3241-7.4246,7.4246-7.4246,7.4246,3.3241,7.4246,7.4246z" transform="matrix(0.6039942,0,0,0.6039942,-548.43035,574.99933)"/>
<path id="use13914-3-8-1-1" style="fill-rule:evenodd;fill:url(#radialGradient68828);" d="m1032.4,429.05c0,4.1005-3.3241,7.4246-7.4246,7.4246s-7.4246-3.3241-7.4246-7.4246,3.3241-7.4246,7.4246-7.4246,7.4246,3.3241,7.4246,7.4246z" transform="matrix(0.6039942,0,0,0.6039942,-553.66114,568.60129)"/>
<path id="use13916-5-9-55-2" style="fill-rule:evenodd;fill:url(#radialGradient68830);" d="m1032.4,429.05c0,4.1005-3.3241,7.4246-7.4246,7.4246s-7.4246-3.3241-7.4246-7.4246,3.3241-7.4246,7.4246-7.4246,7.4246,3.3241,7.4246,7.4246z" transform="matrix(0.6039942,0,0,0.6039942,-548.70243,572.76054)"/>
<path id="use13918-8-5-9-7" style="fill-rule:evenodd;fill:url(#radialGradient68832);" d="m1032.4,429.05c0,4.1005-3.3241,7.4246-7.4246,7.4246s-7.4246-3.3241-7.4246-7.4246,3.3241-7.4246,7.4246-7.4246,7.4246,3.3241,7.4246,7.4246z" transform="matrix(0.6039942,0,0,0.6039942,-541.4699,568.41653)"/>
<path id="use13920-0-6-4-84" style="fill-rule:evenodd;fill:url(#radialGradient68834);" d="m1032.4,429.05c0,4.1005-3.3241,7.4246-7.4246,7.4246s-7.4246-3.3241-7.4246-7.4246,3.3241-7.4246,7.4246-7.4246,7.4246,3.3241,7.4246,7.4246z" transform="matrix(0.6039942,0,0,0.6039942,-542.00628,566.57691)"/>
<path id="use13922-2-2-7-8" style="fill-rule:evenodd;fill:url(#radialGradient68836);" d="m1032.4,429.05c0,4.1005-3.3241,7.4246-7.4246,7.4246s-7.4246-3.3241-7.4246-7.4246,3.3241-7.4246,7.4246-7.4246,7.4246,3.3241,7.4246,7.4246z" transform="matrix(0.6039942,0,0,0.6039942,-542.48697,569.90681)"/>
<path id="use13924-9-2-5-5" style="fill-rule:evenodd;fill:url(#radialGradient68838);" d="m1032.4,429.05c0,4.1005-3.3241,7.4246-7.4246,7.4246s-7.4246-3.3241-7.4246-7.4246,3.3241-7.4246,7.4246-7.4246,7.4246,3.3241,7.4246,7.4246z" transform="matrix(0.6039942,0,0,0.6039942,-538.25137,570.7939)"/>
<path id="use13926-4-2-0-9" style="fill-rule:evenodd;fill:url(#radialGradient68840);" d="m1032.4,429.05c0,4.1005-3.3241,7.4246-7.4246,7.4246s-7.4246-3.3241-7.4246-7.4246,3.3241-7.4246,7.4246-7.4246,7.4246,3.3241,7.4246,7.4246z" transform="matrix(0.6039942,0,0,0.6039942,-535.43929,566.45691)"/>
<path id="use13928-9-1-9-1" style="fill-rule:evenodd;fill:url(#radialGradient68842);" d="m1032.4,429.05c0,4.1005-3.3241,7.4246-7.4246,7.4246s-7.4246-3.3241-7.4246-7.4246,3.3241-7.4246,7.4246-7.4246,7.4246,3.3241,7.4246,7.4246z" transform="matrix(0.6039942,0,0,0.6039942,-537.46713,564.49473)"/>
<path id="use13930-8-7-0-8" style="fill-rule:evenodd;fill:url(#radialGradient68844);" d="m1032.4,429.05c0,4.1005-3.3241,7.4246-7.4246,7.4246s-7.4246-3.3241-7.4246-7.4246,3.3241-7.4246,7.4246-7.4246,7.4246,3.3241,7.4246,7.4246z" transform="matrix(0.6039942,0,0,0.6039942,-534.35559,567.00137)"/>
<path id="use13932-35-4-14-1" style="fill-rule:evenodd;fill:url(#radialGradient68846);" d="m1032.4,429.05c0,4.1005-3.3241,7.4246-7.4246,7.4246s-7.4246-3.3241-7.4246-7.4246,3.3241-7.4246,7.4246-7.4246,7.4246,3.3241,7.4246,7.4246z" transform="matrix(0.6039942,0,0,0.6039942,-527.22275,564.22981)"/>
<path id="use13934-0-7-1-7" style="fill-rule:evenodd;fill:url(#radialGradient68848);" d="m1032.4,429.05c0,4.1005-3.3241,7.4246-7.4246,7.4246s-7.4246-3.3241-7.4246-7.4246,3.3241-7.4246,7.4246-7.4246,7.4246,3.3241,7.4246,7.4246z" transform="matrix(0.6039942,0,0,0.6039942,-532.49233,564.71717)"/>
<path id="use13936-43-8-3-5" style="fill-rule:evenodd;fill:url(#radialGradient68850);" d="m1032.4,429.05c0,4.1005-3.3241,7.4246-7.4246,7.4246s-7.4246-3.3241-7.4246-7.4246,3.3241-7.4246,7.4246-7.4246,7.4246,3.3241,7.4246,7.4246z" transform="matrix(0.6039942,0,0,0.6039942,-531.56359,563.63293)"/>
<path id="use13938-5-6-2-9" style="fill-rule:evenodd;fill:url(#radialGradient68852);" d="m1032.4,429.05c0,4.1005-3.3241,7.4246-7.4246,7.4246s-7.4246-3.3241-7.4246-7.4246,3.3241-7.4246,7.4246-7.4246,7.4246,3.3241,7.4246,7.4246z" transform="matrix(0.6039942,0,0,0.6039942,-530.87907,561.54777)"/>
<path id="use13940-25-0-9-8" style="fill-rule:evenodd;fill:url(#radialGradient68854);" d="m1032.4,429.05c0,4.1005-3.3241,7.4246-7.4246,7.4246s-7.4246-3.3241-7.4246-7.4246,3.3241-7.4246,7.4246-7.4246,7.4246,3.3241,7.4246,7.4246z" transform="matrix(0.6039942,0,0,0.6039942,-529.60618,561.34904)"/>
<path id="use13942-7-0-8-3" style="fill-rule:evenodd;fill:url(#radialGradient68856);" d="m1032.4,429.05c0,4.1005-3.3241,7.4246-7.4246,7.4246s-7.4246-3.3241-7.4246-7.4246,3.3241-7.4246,7.4246-7.4246,7.4246,3.3241,7.4246,7.4246z" transform="matrix(0.6039942,0,0,0.6039942,-529.11671,563.84711)"/>
<path id="use13944-7-2-6-6" style="fill-rule:evenodd;fill:url(#radialGradient68858);" d="m1032.4,429.05c0,4.1005-3.3241,7.4246-7.4246,7.4246s-7.4246-3.3241-7.4246-7.4246,3.3241-7.4246,7.4246-7.4246,7.4246,3.3241,7.4246,7.4246z" transform="matrix(0.6039942,0,0,0.6039942,-538.06652,561.51408)"/>
<path id="use13946-7-1-3-7" style="fill-rule:evenodd;fill:url(#radialGradient68860);" d="m1032.4,429.05c0,4.1005-3.3241,7.4246-7.4246,7.4246s-7.4246-3.3241-7.4246-7.4246,3.3241-7.4246,7.4246-7.4246,7.4246,3.3241,7.4246,7.4246z" transform="matrix(0.6039942,0,0,0.6039942,-533.26039,568.96565)"/>
<path id="use13948-4-3-9-7" style="fill-rule:evenodd;fill:url(#radialGradient68862);" d="m1032.4,429.05c0,4.1005-3.3241,7.4246-7.4246,7.4246s-7.4246-3.3241-7.4246-7.4246,3.3241-7.4246,7.4246-7.4246,7.4246,3.3241,7.4246,7.4246z" transform="matrix(0.6039942,0,0,0.6039942,-534.41592,567.48562)"/>
<path id="use13950-40-9-9-8" style="fill-rule:evenodd;fill:url(#radialGradient68864);" d="m1032.4,429.05c0,4.1005-3.3241,7.4246-7.4246,7.4246s-7.4246-3.3241-7.4246-7.4246,3.3241-7.4246,7.4246-7.4246,7.4246,3.3241,7.4246,7.4246z" transform="matrix(0.6039942,0,0,0.6039942,-533.13186,559.924)"/>
<path id="use13952-4-2-51-5" style="fill-rule:evenodd;fill:url(#radialGradient68866);" d="m1032.4,429.05c0,4.1005-3.3241,7.4246-7.4246,7.4246s-7.4246-3.3241-7.4246-7.4246,3.3241-7.4246,7.4246-7.4246,7.4246,3.3241,7.4246,7.4246z" transform="matrix(0.6039942,0,0,0.6039942,-532.82957,565.38845)"/>
<path id="use13954-1-4-1-50" style="fill-rule:evenodd;fill:url(#radialGradient68868);" d="m1032.4,429.05c0,4.1005-3.3241,7.4246-7.4246,7.4246s-7.4246-3.3241-7.4246-7.4246,3.3241-7.4246,7.4246-7.4246,7.4246,3.3241,7.4246,7.4246z" transform="matrix(0.6039942,0,0,0.6039942,-531.62199,565.13396)"/>
<path id="use13956-1-1-0-00" style="fill-rule:evenodd;fill:url(#radialGradient68870);" d="m1032.4,429.05c0,4.1005-3.3241,7.4246-7.4246,7.4246s-7.4246-3.3241-7.4246-7.4246,3.3241-7.4246,7.4246-7.4246,7.4246,3.3241,7.4246,7.4246z" transform="matrix(0.6039942,0,0,0.6039942,-530.01498,563.82487)"/>
<path id="use13958-5-5-7-76" style="fill-rule:evenodd;fill:url(#radialGradient68872);" d="m1032.4,429.05c0,4.1005-3.3241,7.4246-7.4246,7.4246s-7.4246-3.3241-7.4246-7.4246,3.3241-7.4246,7.4246-7.4246,7.4246,3.3241,7.4246,7.4246z" transform="matrix(0.6039942,0,0,0.6039942,-519.0349,560.52513)"/>
<path id="use13960-4-4-69-42" style="fill-rule:evenodd;fill:url(#radialGradient68874);" d="m1032.4,429.05c0,4.1005-3.3241,7.4246-7.4246,7.4246s-7.4246-3.3241-7.4246-7.4246,3.3241-7.4246,7.4246-7.4246,7.4246,3.3241,7.4246,7.4246z" transform="matrix(0.6039942,0,0,0.6039942,-522.85056,560.7616)"/>
<path id="use13962-0-0-2-6" style="fill-rule:evenodd;fill:url(#radialGradient68876);" d="m1032.4,429.05c0,4.1005-3.3241,7.4246-7.4246,7.4246s-7.4246-3.3241-7.4246-7.4246,3.3241-7.4246,7.4246-7.4246,7.4246,3.3241,7.4246,7.4246z" transform="matrix(0.6039942,0,0,0.6039942,-521.13929,559.16244)"/>
<path id="use13964-2-6-2-6" style="fill-rule:evenodd;fill:url(#radialGradient68878);" d="m1032.4,429.05c0,4.1005-3.3241,7.4246-7.4246,7.4246s-7.4246-3.3241-7.4246-7.4246,3.3241-7.4246,7.4246-7.4246,7.4246,3.3241,7.4246,7.4246z" transform="matrix(0.6039942,0,0,0.6039942,-521.03865,559.94862)"/>
<path id="use13966-8-6-46-9" style="fill-rule:evenodd;fill:url(#radialGradient68880);" d="m1032.4,429.05c0,4.1005-3.3241,7.4246-7.4246,7.4246s-7.4246-3.3241-7.4246-7.4246,3.3241-7.4246,7.4246-7.4246,7.4246,3.3241,7.4246,7.4246z" transform="matrix(0.6039942,0,0,0.6039942,-517.94706,559.53893)"/>
<path id="use13968-6-8-93-03" style="fill-rule:evenodd;fill:url(#radialGradient68882);" d="m1032.4,429.05c0,4.1005-3.3241,7.4246-7.4246,7.4246s-7.4246-3.3241-7.4246-7.4246,3.3241-7.4246,7.4246-7.4246,7.4246,3.3241,7.4246,7.4246z" transform="matrix(0.6039942,0,0,0.6039942,-511.62597,564.10776)"/>
<path id="use13970-8-1-2-3" style="fill-rule:evenodd;fill:url(#radialGradient68884);" d="m1032.4,429.05c0,4.1005-3.3241,7.4246-7.4246,7.4246s-7.4246-3.3241-7.4246-7.4246,3.3241-7.4246,7.4246-7.4246,7.4246,3.3241,7.4246,7.4246z" transform="matrix(0.6039942,0,0,0.6039942,-515.80725,561.75671)"/>
<path id="use13972-1-3-3-98" style="fill-rule:evenodd;fill:url(#radialGradient68886);" d="m1032.4,429.05c0,4.1005-3.3241,7.4246-7.4246,7.4246s-7.4246-3.3241-7.4246-7.4246,3.3241-7.4246,7.4246-7.4246,7.4246,3.3241,7.4246,7.4246z" transform="matrix(0.6039942,0,0,0.6039942,-515.19229,566.95344)"/>
<path id="use13974-4-3-4-5" style="fill-rule:evenodd;fill:url(#radialGradient68888);" d="m1032.4,429.05c0,4.1005-3.3241,7.4246-7.4246,7.4246s-7.4246-3.3241-7.4246-7.4246,3.3241-7.4246,7.4246-7.4246,7.4246,3.3241,7.4246,7.4246z" transform="matrix(0.6039942,0,0,0.6039942,-519.39353,565.88053)"/>
<path id="use13976-7-1-1-9" style="fill-rule:evenodd;fill:url(#radialGradient68890);" d="m1032.4,429.05c0,4.1005-3.3241,7.4246-7.4246,7.4246s-7.4246-3.3241-7.4246-7.4246,3.3241-7.4246,7.4246-7.4246,7.4246,3.3241,7.4246,7.4246z" transform="matrix(0.6039942,0,0,0.6039942,-519.13323,558.79858)"/>
<path id="use13978-6-0-8-1" style="fill-rule:evenodd;fill:url(#radialGradient68892);" d="m1032.4,429.05c0,4.1005-3.3241,7.4246-7.4246,7.4246s-7.4246-3.3241-7.4246-7.4246,3.3241-7.4246,7.4246-7.4246,7.4246,3.3241,7.4246,7.4246z" transform="matrix(0.6039942,0,0,0.6039942,-521.49686,564.04383)"/>
<path id="use13980-4-5-0-0" style="fill-rule:evenodd;fill:url(#radialGradient68894);" d="m1032.4,429.05c0,4.1005-3.3241,7.4246-7.4246,7.4246s-7.4246-3.3241-7.4246-7.4246,3.3241-7.4246,7.4246-7.4246,7.4246,3.3241,7.4246,7.4246z" transform="matrix(0.6039942,0,0,0.6039942,-519.63159,566.30664)"/>
<path id="use13982-9-8-16-7" style="fill-rule:evenodd;fill:url(#radialGradient68896);" d="m1032.4,429.05c0,4.1005-3.3241,7.4246-7.4246,7.4246s-7.4246-3.3241-7.4246-7.4246,3.3241-7.4246,7.4246-7.4246,7.4246,3.3241,7.4246,7.4246z" transform="matrix(0.6039942,0,0,0.6039942,-514.41992,564.07586)"/>
<path id="use13984-8-9-89-0" style="fill-rule:evenodd;fill:url(#radialGradient68898);" d="m1032.4,429.05c0,4.1005-3.3241,7.4246-7.4246,7.4246s-7.4246-3.3241-7.4246-7.4246,3.3241-7.4246,7.4246-7.4246,7.4246,3.3241,7.4246,7.4246z" transform="matrix(0.6039942,0,0,0.6039942,-509.55157,558.53796)"/>
<path id="use13986-7-3-57-1" style="fill-rule:evenodd;fill:url(#radialGradient68900);" d="m1032.4,429.05c0,4.1005-3.3241,7.4246-7.4246,7.4246s-7.4246-3.3241-7.4246-7.4246,3.3241-7.4246,7.4246-7.4246,7.4246,3.3241,7.4246,7.4246z" transform="matrix(0.6039942,0,0,0.6039942,-509.65379,566.7792)"/>
<path id="use13988-3-8-6-2" style="fill-rule:evenodd;fill:url(#radialGradient68902);" d="m1032.4,429.05c0,4.1005-3.3241,7.4246-7.4246,7.4246s-7.4246-3.3241-7.4246-7.4246,3.3241-7.4246,7.4246-7.4246,7.4246,3.3241,7.4246,7.4246z" transform="matrix(0.6039942,0,0,0.6039942,-510.06507,567.26597)"/>
<path id="use13990-8-9-38-3" style="fill-rule:evenodd;fill:url(#radialGradient68904);" d="m1032.4,429.05c0,4.1005-3.3241,7.4246-7.4246,7.4246s-7.4246-3.3241-7.4246-7.4246,3.3241-7.4246,7.4246-7.4246,7.4246,3.3241,7.4246,7.4246z" transform="matrix(0.6039942,0,0,0.6039942,-505.73258,566.17447)"/>
<path id="use13992-6-8-2-47" style="fill-rule:evenodd;fill:url(#radialGradient68906);" d="m1032.4,429.05c0,4.1005-3.3241,7.4246-7.4246,7.4246s-7.4246-3.3241-7.4246-7.4246,3.3241-7.4246,7.4246-7.4246,7.4246,3.3241,7.4246,7.4246z" transform="matrix(0.6039942,0,0,0.6039942,-507.31011,565.35148)"/>
<path id="use13994-2-4-1-1" style="fill-rule:evenodd;fill:url(#radialGradient68908);" d="m1032.4,429.05c0,4.1005-3.3241,7.4246-7.4246,7.4246s-7.4246-3.3241-7.4246-7.4246,3.3241-7.4246,7.4246-7.4246,7.4246,3.3241,7.4246,7.4246z" transform="matrix(0.6039942,0,0,0.6039942,-511.99647,570.60819)"/>
<path id="use13996-80-3-4-6" style="fill-rule:evenodd;fill:url(#radialGradient68910);" d="m1032.4,429.05c0,4.1005-3.3241,7.4246-7.4246,7.4246s-7.4246-3.3241-7.4246-7.4246,3.3241-7.4246,7.4246-7.4246,7.4246,3.3241,7.4246,7.4246z" transform="matrix(0.6039942,0,0,0.6039942,-505.82838,564.88167)"/>
<path id="use13998-9-9-54-3" style="fill-rule:evenodd;fill:url(#radialGradient68912);" d="m1032.4,429.05c0,4.1005-3.3241,7.4246-7.4246,7.4246s-7.4246-3.3241-7.4246-7.4246,3.3241-7.4246,7.4246-7.4246,7.4246,3.3241,7.4246,7.4246z" transform="matrix(0.6039942,0,0,0.6039942,-505.28532,566.17981)"/>
<path id="use14000-8-9-09-6" style="fill-rule:evenodd;fill:url(#radialGradient68914);" d="m1032.4,429.05c0,4.1005-3.3241,7.4246-7.4246,7.4246s-7.4246-3.3241-7.4246-7.4246,3.3241-7.4246,7.4246-7.4246,7.4246,3.3241,7.4246,7.4246z" transform="matrix(0.6039942,0,0,0.6039942,-511.22064,564.75779)"/>
<path id="use14002-0-6-1-8" style="fill-rule:evenodd;fill:url(#radialGradient68916);" d="m1032.4,429.05c0,4.1005-3.3241,7.4246-7.4246,7.4246s-7.4246-3.3241-7.4246-7.4246,3.3241-7.4246,7.4246-7.4246,7.4246,3.3241,7.4246,7.4246z" transform="matrix(0.6039942,0,0,0.6039942,-508.79069,563.89406)"/>
<path id="use14004-4-9-1-8" style="fill-rule:evenodd;fill:url(#radialGradient68918);" d="m1032.4,429.05c0,4.1005-3.3241,7.4246-7.4246,7.4246s-7.4246-3.3241-7.4246-7.4246,3.3241-7.4246,7.4246-7.4246,7.4246,3.3241,7.4246,7.4246z" transform="matrix(0.6039942,0,0,0.6039942,-502.35877,571.35061)"/>
<path id="use14006-96-7-8-2" style="fill-rule:evenodd;fill:url(#radialGradient68920);" d="m1032.4,429.05c0,4.1005-3.3241,7.4246-7.4246,7.4246s-7.4246-3.3241-7.4246-7.4246,3.3241-7.4246,7.4246-7.4246,7.4246,3.3241,7.4246,7.4246z" transform="matrix(0.6039942,0,0,0.6039942,-505.3683,572.27243)"/>
<path id="use14008-8-7-5-4" style="fill-rule:evenodd;fill:url(#radialGradient68922);" d="m1032.4,429.05c0,4.1005-3.3241,7.4246-7.4246,7.4246s-7.4246-3.3241-7.4246-7.4246,3.3241-7.4246,7.4246-7.4246,7.4246,3.3241,7.4246,7.4246z" transform="matrix(0.6039942,0,0,0.6039942,-500.12962,571.32281)"/>
<path id="use14010-28-2-5-5" style="fill-rule:evenodd;fill:url(#radialGradient68924);" d="m1032.4,429.05c0,4.1005-3.3241,7.4246-7.4246,7.4246s-7.4246-3.3241-7.4246-7.4246,3.3241-7.4246,7.4246-7.4246,7.4246,3.3241,7.4246,7.4246z" transform="matrix(0.6039942,0,0,0.6039942,-501.34487,576.47916)"/>
<path id="use14012-4-5-54-2" style="fill-rule:evenodd;fill:url(#radialGradient68926);" d="m1032.4,429.05c0,4.1005-3.3241,7.4246-7.4246,7.4246s-7.4246-3.3241-7.4246-7.4246,3.3241-7.4246,7.4246-7.4246,7.4246,3.3241,7.4246,7.4246z" transform="matrix(0.6039942,0,0,0.6039942,-499.23693,581.58208)"/>
<path id="use14014-79-2-3-3" style="fill-rule:evenodd;fill:url(#radialGradient68928);" d="m1032.4,429.05c0,4.1005-3.3241,7.4246-7.4246,7.4246s-7.4246-3.3241-7.4246-7.4246,3.3241-7.4246,7.4246-7.4246,7.4246,3.3241,7.4246,7.4246z" transform="matrix(0.6039942,0,0,0.6039942,-500.43146,578.99721)"/>
<path id="use14016-40-3-0-0" style="fill-rule:evenodd;fill:url(#radialGradient68930);" d="m1032.4,429.05c0,4.1005-3.3241,7.4246-7.4246,7.4246s-7.4246-3.3241-7.4246-7.4246,3.3241-7.4246,7.4246-7.4246,7.4246,3.3241,7.4246,7.4246z" transform="matrix(0.6039942,0,0,0.6039942,-497.43934,573.41565)"/>
<path id="use14018-7-2-9-2" style="fill-rule:evenodd;fill:url(#radialGradient68932);" d="m1032.4,429.05c0,4.1005-3.3241,7.4246-7.4246,7.4246s-7.4246-3.3241-7.4246-7.4246,3.3241-7.4246,7.4246-7.4246,7.4246,3.3241,7.4246,7.4246z" transform="matrix(0.6039942,0,0,0.6039942,-501.36103,572.55566)"/>
<path id="use14020-4-8-7-2" style="fill-rule:evenodd;fill:url(#radialGradient68934);" d="m1032.4,429.05c0,4.1005-3.3241,7.4246-7.4246,7.4246s-7.4246-3.3241-7.4246-7.4246,3.3241-7.4246,7.4246-7.4246,7.4246,3.3241,7.4246,7.4246z" transform="matrix(0.6039942,0,0,0.6039942,-500.54241,573.78618)"/>
<path id="use14022-8-3-79-8" style="fill-rule:evenodd;fill:url(#radialGradient68936);" d="m1032.4,429.05c0,4.1005-3.3241,7.4246-7.4246,7.4246s-7.4246-3.3241-7.4246-7.4246,3.3241-7.4246,7.4246-7.4246,7.4246,3.3241,7.4246,7.4246z" transform="matrix(0.6039942,0,0,0.6039942,-500.79313,573.56015)"/>
<path id="use14024-1-3-11-6" style="fill-rule:evenodd;fill:url(#radialGradient68938);" d="m1032.4,429.05c0,4.1005-3.3241,7.4246-7.4246,7.4246s-7.4246-3.3241-7.4246-7.4246,3.3241-7.4246,7.4246-7.4246,7.4246,3.3241,7.4246,7.4246z" transform="matrix(0.6039942,0,0,0.6039942,-493.59138,571.46122)"/>
<path id="use14026-8-8-9-3" style="fill-rule:evenodd;fill:url(#radialGradient68940);" d="m1032.4,429.05c0,4.1005-3.3241,7.4246-7.4246,7.4246s-7.4246-3.3241-7.4246-7.4246,3.3241-7.4246,7.4246-7.4246,7.4246,3.3241,7.4246,7.4246z" transform="matrix(0.6039942,0,0,0.6039942,-497.84623,575.87545)"/>
<path id="use14028-2-5-8-1" style="fill-rule:evenodd;fill:url(#radialGradient68942);" d="m1032.4,429.05c0,4.1005-3.3241,7.4246-7.4246,7.4246s-7.4246-3.3241-7.4246-7.4246,3.3241-7.4246,7.4246-7.4246,7.4246,3.3241,7.4246,7.4246z" transform="matrix(0.6039942,0,0,0.6039942,-498.50809,568.36178)"/>
<path id="use14030-21-7-4-0" style="fill-rule:evenodd;fill:url(#radialGradient68944);" d="m1032.4,429.05c0,4.1005-3.3241,7.4246-7.4246,7.4246s-7.4246-3.3241-7.4246-7.4246,3.3241-7.4246,7.4246-7.4246,7.4246,3.3241,7.4246,7.4246z" transform="matrix(0.6039942,0,0,0.6039942,-501.59393,562.2655)"/>
<path id="use14032-4-8-7-4" style="fill-rule:evenodd;fill:url(#radialGradient68946);" d="m1032.4,429.05c0,4.1005-3.3241,7.4246-7.4246,7.4246s-7.4246-3.3241-7.4246-7.4246,3.3241-7.4246,7.4246-7.4246,7.4246,3.3241,7.4246,7.4246z" transform="matrix(0.6039942,0,0,0.6039942,-508.40227,563.88352)"/>
<path id="use14034-6-8-9-4" style="fill-rule:evenodd;fill:url(#radialGradient68948);" d="m1032.4,429.05c0,4.1005-3.3241,7.4246-7.4246,7.4246s-7.4246-3.3241-7.4246-7.4246,3.3241-7.4246,7.4246-7.4246,7.4246,3.3241,7.4246,7.4246z" transform="matrix(0.6039942,0,0,0.6039942,-506.79665,562.17776)"/>
<path id="use14036-6-1-25-5" style="fill-rule:evenodd;fill:url(#radialGradient68950);" d="m1032.4,429.05c0,4.1005-3.3241,7.4246-7.4246,7.4246s-7.4246-3.3241-7.4246-7.4246,3.3241-7.4246,7.4246-7.4246,7.4246,3.3241,7.4246,7.4246z" transform="matrix(0.6039942,0,0,0.6039942,-504.97037,552.7923)"/>
<path id="use14038-9-3-9-1" style="fill-rule:evenodd;fill:url(#radialGradient68952);" d="m1032.4,429.05c0,4.1005-3.3241,7.4246-7.4246,7.4246s-7.4246-3.3241-7.4246-7.4246,3.3241-7.4246,7.4246-7.4246,7.4246,3.3241,7.4246,7.4246z" transform="matrix(0.6039942,0,0,0.6039942,-507.43975,554.40841)"/>
<path id="use14040-3-5-9-2" style="fill-rule:evenodd;fill:url(#radialGradient68954);" d="m1032.4,429.05c0,4.1005-3.3241,7.4246-7.4246,7.4246s-7.4246-3.3241-7.4246-7.4246,3.3241-7.4246,7.4246-7.4246,7.4246,3.3241,7.4246,7.4246z" transform="matrix(0.6039942,0,0,0.6039942,-510.29689,557.18875)"/>
<path id="use14042-8-1-4-2" style="fill-rule:evenodd;fill:url(#radialGradient68956);" d="m1032.4,429.05c0,4.1005-3.3241,7.4246-7.4246,7.4246s-7.4246-3.3241-7.4246-7.4246,3.3241-7.4246,7.4246-7.4246,7.4246,3.3241,7.4246,7.4246z" transform="matrix(0.6039942,0,0,0.6039942,-505.39985,556.86891)"/>
<path id="use14044-1-2-7-8" style="fill-rule:evenodd;fill:url(#radialGradient68958);" d="m1032.4,429.05c0,4.1005-3.3241,7.4246-7.4246,7.4246s-7.4246-3.3241-7.4246-7.4246,3.3241-7.4246,7.4246-7.4246,7.4246,3.3241,7.4246,7.4246z" transform="matrix(0.6039942,0,0,0.6039942,-507.02889,546.64031)"/>
<path id="use14046-3-0-68-9" style="fill-rule:evenodd;fill:url(#radialGradient68960);" d="m1032.4,429.05c0,4.1005-3.3241,7.4246-7.4246,7.4246s-7.4246-3.3241-7.4246-7.4246,3.3241-7.4246,7.4246-7.4246,7.4246,3.3241,7.4246,7.4246z" transform="matrix(0.6039942,0,0,0.6039942,-503.15834,552.33528)"/>
<path id="use14048-6-8-7-1" style="fill-rule:evenodd;fill:url(#radialGradient68962);" d="m1032.4,429.05c0,4.1005-3.3241,7.4246-7.4246,7.4246s-7.4246-3.3241-7.4246-7.4246,3.3241-7.4246,7.4246-7.4246,7.4246,3.3241,7.4246,7.4246z" transform="matrix(0.6039942,0,0,0.6039942,-499.21394,553.17209)"/>
<path id="use14050-4-6-49-99" style="fill-rule:evenodd;fill:url(#radialGradient68964);" d="m1032.4,429.05c0,4.1005-3.3241,7.4246-7.4246,7.4246s-7.4246-3.3241-7.4246-7.4246,3.3241-7.4246,7.4246-7.4246,7.4246,3.3241,7.4246,7.4246z" transform="matrix(0.6039942,0,0,0.6039942,-503.69223,551.239)"/>
<path id="use14052-52-5-62-8" style="fill-rule:evenodd;fill:url(#radialGradient68966);" d="m1032.4,429.05c0,4.1005-3.3241,7.4246-7.4246,7.4246s-7.4246-3.3241-7.4246-7.4246,3.3241-7.4246,7.4246-7.4246,7.4246,3.3241,7.4246,7.4246z" transform="matrix(0.6039942,0,0,0.6039942,-498.05966,563.13783)"/>
<path id="use14054-2-5-3-4" style="fill-rule:evenodd;fill:url(#radialGradient68968);" d="m1032.4,429.05c0,4.1005-3.3241,7.4246-7.4246,7.4246s-7.4246-3.3241-7.4246-7.4246,3.3241-7.4246,7.4246-7.4246,7.4246,3.3241,7.4246,7.4246z" transform="matrix(0.6039942,0,0,0.6039942,-499.05208,560.43072)"/>
<path id="use14056-0-3-6-4" style="fill-rule:evenodd;fill:url(#radialGradient68970);" d="m1032.4,429.05c0,4.1005-3.3241,7.4246-7.4246,7.4246s-7.4246-3.3241-7.4246-7.4246,3.3241-7.4246,7.4246-7.4246,7.4246,3.3241,7.4246,7.4246z" transform="matrix(0.6039942,0,0,0.6039942,-500.95608,558.49543)"/>
<path id="use14058-1-9-7-78" style="fill-rule:evenodd;fill:url(#radialGradient68972);" d="m1032.4,429.05c0,4.1005-3.3241,7.4246-7.4246,7.4246s-7.4246-3.3241-7.4246-7.4246,3.3241-7.4246,7.4246-7.4246,7.4246,3.3241,7.4246,7.4246z" transform="matrix(0.6039942,0,0,0.6039942,-493.93791,563.72151)"/>
<path id="use14060-0-5-1-6" style="fill-rule:evenodd;fill:url(#radialGradient68974);" d="m1032.4,429.05c0,4.1005-3.3241,7.4246-7.4246,7.4246s-7.4246-3.3241-7.4246-7.4246,3.3241-7.4246,7.4246-7.4246,7.4246,3.3241,7.4246,7.4246z" transform="matrix(0.6039942,0,0,0.6039942,-498.23859,562.47182)"/>
<path id="use14062-38-3-8-8" style="fill-rule:evenodd;fill:url(#radialGradient68976);" d="m1032.4,429.05c0,4.1005-3.3241,7.4246-7.4246,7.4246s-7.4246-3.3241-7.4246-7.4246,3.3241-7.4246,7.4246-7.4246,7.4246,3.3241,7.4246,7.4246z" transform="matrix(0.6039942,0,0,0.6039942,-492.69467,564.24066)"/>
<path id="use14064-7-5-81-8" style="fill-rule:evenodd;fill:url(#radialGradient68978);" d="m1032.4,429.05c0,4.1005-3.3241,7.4246-7.4246,7.4246s-7.4246-3.3241-7.4246-7.4246,3.3241-7.4246,7.4246-7.4246,7.4246,3.3241,7.4246,7.4246z" transform="matrix(0.6039942,0,0,0.6039942,-494.5502,566.17385)"/>
<path id="use14066-3-4-3-39" style="fill-rule:evenodd;fill:url(#radialGradient68980);" d="m1032.4,429.05c0,4.1005-3.3241,7.4246-7.4246,7.4246s-7.4246-3.3241-7.4246-7.4246,3.3241-7.4246,7.4246-7.4246,7.4246,3.3241,7.4246,7.4246z" transform="matrix(0.6039942,0,0,0.6039942,-500.62209,563.2518)"/>
<path id="use14068-3-8-4-4" style="fill-rule:evenodd;fill:url(#radialGradient68982);" d="m1032.4,429.05c0,4.1005-3.3241,7.4246-7.4246,7.4246s-7.4246-3.3241-7.4246-7.4246,3.3241-7.4246,7.4246-7.4246,7.4246,3.3241,7.4246,7.4246z" transform="matrix(0.6039942,0,0,0.6039942,-495.51682,562.91718)"/>
<path id="use14070-1-5-84-0" style="fill-rule:evenodd;fill:url(#radialGradient68984);" d="m1032.4,429.05c0,4.1005-3.3241,7.4246-7.4246,7.4246s-7.4246-3.3241-7.4246-7.4246,3.3241-7.4246,7.4246-7.4246,7.4246,3.3241,7.4246,7.4246z" transform="matrix(0.6039942,0,0,0.6039942,-498.2819,552.5562)"/>
<path id="use14072-4-0-8-95" style="fill-rule:evenodd;fill:url(#radialGradient68986);" d="m1032.4,429.05c0,4.1005-3.3241,7.4246-7.4246,7.4246s-7.4246-3.3241-7.4246-7.4246,3.3241-7.4246,7.4246-7.4246,7.4246,3.3241,7.4246,7.4246z" transform="matrix(0.6039942,0,0,0.6039942,-501.20095,558.57144)"/>
<path id="use14074-5-3-8-5" style="fill-rule:evenodd;fill:url(#radialGradient68988);" d="m1032.4,429.05c0,4.1005-3.3241,7.4246-7.4246,7.4246s-7.4246-3.3241-7.4246-7.4246,3.3241-7.4246,7.4246-7.4246,7.4246,3.3241,7.4246,7.4246z" transform="matrix(0.6039942,0,0,0.6039942,-497.55285,551.85686)"/>
<path id="use14076-6-5-5-7" style="fill-rule:evenodd;fill:url(#radialGradient68990);" d="m1032.4,429.05c0,4.1005-3.3241,7.4246-7.4246,7.4246s-7.4246-3.3241-7.4246-7.4246,3.3241-7.4246,7.4246-7.4246,7.4246,3.3241,7.4246,7.4246z" transform="matrix(0.6039942,0,0,0.6039942,-503.49787,553.29828)"/>
<path id="use14078-1-0-4-8" style="fill-rule:evenodd;fill:url(#radialGradient68992);" d="m1032.4,429.05c0,4.1005-3.3241,7.4246-7.4246,7.4246s-7.4246-3.3241-7.4246-7.4246,3.3241-7.4246,7.4246-7.4246,7.4246,3.3241,7.4246,7.4246z" transform="matrix(0.6039942,0,0,0.6039942,-502.76501,548.04377)"/>
<path id="use14080-2-8-4-0" style="fill-rule:evenodd;fill:url(#radialGradient68994);" d="m1032.4,429.05c0,4.1005-3.3241,7.4246-7.4246,7.4246s-7.4246-3.3241-7.4246-7.4246,3.3241-7.4246,7.4246-7.4246,7.4246,3.3241,7.4246,7.4246z" transform="matrix(0.6039942,0,0,0.6039942,-499.80205,550.90788)"/>
<path id="use14082-1-4-1-88" style="fill-rule:evenodd;fill:url(#radialGradient68996);" d="m1032.4,429.05c0,4.1005-3.3241,7.4246-7.4246,7.4246s-7.4246-3.3241-7.4246-7.4246,3.3241-7.4246,7.4246-7.4246,7.4246,3.3241,7.4246,7.4246z" transform="matrix(0.6039942,0,0,0.6039942,-506.17309,549.03904)"/>
<path id="use14084-9-3-0-7" style="fill-rule:evenodd;fill:url(#radialGradient68998);" d="m1032.4,429.05c0,4.1005-3.3241,7.4246-7.4246,7.4246s-7.4246-3.3241-7.4246-7.4246,3.3241-7.4246,7.4246-7.4246,7.4246,3.3241,7.4246,7.4246z" transform="matrix(0.6039942,0,0,0.6039942,-505.86581,548.79453)"/>
<path id="use14086-1-5-1-3" style="fill-rule:evenodd;fill:url(#radialGradient69000);" d="m1032.4,429.05c0,4.1005-3.3241,7.4246-7.4246,7.4246s-7.4246-3.3241-7.4246-7.4246,3.3241-7.4246,7.4246-7.4246,7.4246,3.3241,7.4246,7.4246z" transform="matrix(0.6039942,0,0,0.6039942,-505.1249,546.76873)"/>
<path id="use14088-8-8-21-5" style="fill-rule:evenodd;fill:url(#radialGradient69002);" d="m1032.4,429.05c0,4.1005-3.3241,7.4246-7.4246,7.4246s-7.4246-3.3241-7.4246-7.4246,3.3241-7.4246,7.4246-7.4246,7.4246,3.3241,7.4246,7.4246z" transform="matrix(0.6039942,0,0,0.6039942,-505.45391,545.69609)"/>
<path id="use14090-0-1-0-9" style="fill-rule:evenodd;fill:url(#radialGradient69004);" d="m1032.4,429.05c0,4.1005-3.3241,7.4246-7.4246,7.4246s-7.4246-3.3241-7.4246-7.4246,3.3241-7.4246,7.4246-7.4246,7.4246,3.3241,7.4246,7.4246z" transform="matrix(0.6039942,0,0,0.6039942,-506.74648,537.95266)"/>
<path id="use14092-4-2-2-09" style="fill-rule:evenodd;fill:url(#radialGradient69006);" d="m1032.4,429.05c0,4.1005-3.3241,7.4246-7.4246,7.4246s-7.4246-3.3241-7.4246-7.4246,3.3241-7.4246,7.4246-7.4246,7.4246,3.3241,7.4246,7.4246z" transform="matrix(0.6039942,0,0,0.6039942,-504.20987,536.06718)"/>
<path id="use14094-7-6-0-0" style="fill-rule:evenodd;fill:url(#radialGradient69008);" d="m1032.4,429.05c0,4.1005-3.3241,7.4246-7.4246,7.4246s-7.4246-3.3241-7.4246-7.4246,3.3241-7.4246,7.4246-7.4246,7.4246,3.3241,7.4246,7.4246z" transform="matrix(0.6039942,0,0,0.6039942,-504.50312,535.95447)"/>
<path id="use14096-74-0-50-37" style="fill-rule:evenodd;fill:url(#radialGradient69010);" d="m1032.4,429.05c0,4.1005-3.3241,7.4246-7.4246,7.4246s-7.4246-3.3241-7.4246-7.4246,3.3241-7.4246,7.4246-7.4246,7.4246,3.3241,7.4246,7.4246z" transform="matrix(0.6039942,0,0,0.6039942,-503.28678,538.30987)"/>
<path id="use14098-1-2-10-2" style="fill-rule:evenodd;fill:url(#radialGradient69012);" d="m1032.4,429.05c0,4.1005-3.3241,7.4246-7.4246,7.4246s-7.4246-3.3241-7.4246-7.4246,3.3241-7.4246,7.4246-7.4246,7.4246,3.3241,7.4246,7.4246z" transform="matrix(0.6039942,0,0,0.6039942,-506.21682,537.63623)"/>
<path id="use14100-1-2-87-6" style="fill-rule:evenodd;fill:url(#radialGradient69014);" d="m1032.4,429.05c0,4.1005-3.3241,7.4246-7.4246,7.4246s-7.4246-3.3241-7.4246-7.4246,3.3241-7.4246,7.4246-7.4246,7.4246,3.3241,7.4246,7.4246z" transform="matrix(0.6039942,0,0,0.6039942,-510.15305,542.12992)"/>
<path id="use14102-9-1-05-7" style="fill-rule:evenodd;fill:url(#radialGradient69016);" d="m1032.4,429.05c0,4.1005-3.3241,7.4246-7.4246,7.4246s-7.4246-3.3241-7.4246-7.4246,3.3241-7.4246,7.4246-7.4246,7.4246,3.3241,7.4246,7.4246z" transform="matrix(0.6039942,0,0,0.6039942,-504.36748,540.91979)"/>
<path id="use14104-8-6-2-9" style="fill-rule:evenodd;fill:url(#radialGradient69018);" d="m1032.4,429.05c0,4.1005-3.3241,7.4246-7.4246,7.4246s-7.4246-3.3241-7.4246-7.4246,3.3241-7.4246,7.4246-7.4246,7.4246,3.3241,7.4246,7.4246z" transform="matrix(0.6039942,0,0,0.6039942,-505.40532,545.51332)"/>
<path id="use14106-1-5-5-9" style="fill-rule:evenodd;fill:url(#radialGradient69020);" d="m1032.4,429.05c0,4.1005-3.3241,7.4246-7.4246,7.4246s-7.4246-3.3241-7.4246-7.4246,3.3241-7.4246,7.4246-7.4246,7.4246,3.3241,7.4246,7.4246z" transform="matrix(0.6039942,0,0,0.6039942,-499.40937,539.99253)"/>
<path id="use14108-0-0-4-1" style="fill-rule:evenodd;fill:url(#radialGradient69022);" d="m1032.4,429.05c0,4.1005-3.3241,7.4246-7.4246,7.4246s-7.4246-3.3241-7.4246-7.4246,3.3241-7.4246,7.4246-7.4246,7.4246,3.3241,7.4246,7.4246z" transform="matrix(0.6039942,0,0,0.6039942,-502.14939,541.81844)"/>
<path id="use14110-3-1-2-2" style="fill-rule:evenodd;fill:url(#radialGradient69024);" d="m1032.4,429.05c0,4.1005-3.3241,7.4246-7.4246,7.4246s-7.4246-3.3241-7.4246-7.4246,3.3241-7.4246,7.4246-7.4246,7.4246,3.3241,7.4246,7.4246z" transform="matrix(0.6039942,0,0,0.6039942,-504.05539,535.65747)"/>
<path id="use14112-2-7-42-3" style="fill-rule:evenodd;fill:url(#radialGradient69026);" d="m1032.4,429.05c0,4.1005-3.3241,7.4246-7.4246,7.4246s-7.4246-3.3241-7.4246-7.4246,3.3241-7.4246,7.4246-7.4246,7.4246,3.3241,7.4246,7.4246z" transform="matrix(0.6039942,0,0,0.6039942,-510.79892,538.34306)"/>
<path id="use14114-5-7-9-2" style="fill-rule:evenodd;fill:url(#radialGradient69028);" d="m1032.4,429.05c0,4.1005-3.3241,7.4246-7.4246,7.4246s-7.4246-3.3241-7.4246-7.4246,3.3241-7.4246,7.4246-7.4246,7.4246,3.3241,7.4246,7.4246z" transform="matrix(0.6039942,0,0,0.6039942,-509.88864,540.51469)"/>
<path id="use14116-0-3-8-9" style="fill-rule:evenodd;fill:url(#radialGradient69030);" d="m1032.4,429.05c0,4.1005-3.3241,7.4246-7.4246,7.4246s-7.4246-3.3241-7.4246-7.4246,3.3241-7.4246,7.4246-7.4246,7.4246,3.3241,7.4246,7.4246z" transform="matrix(0.6039942,0,0,0.6039942,-512.48192,541.74346)"/>
<path id="use14118-3-8-56-7" style="fill-rule:evenodd;fill:url(#radialGradient69032);" d="m1032.4,429.05c0,4.1005-3.3241,7.4246-7.4246,7.4246s-7.4246-3.3241-7.4246-7.4246,3.3241-7.4246,7.4246-7.4246,7.4246,3.3241,7.4246,7.4246z" transform="matrix(0.6039942,0,0,0.6039942,-512.45289,542.46101)"/>
<path id="use14120-2-3-6-9" style="fill-rule:evenodd;fill:url(#radialGradient69034);" d="m1032.4,429.05c0,4.1005-3.3241,7.4246-7.4246,7.4246s-7.4246-3.3241-7.4246-7.4246,3.3241-7.4246,7.4246-7.4246,7.4246,3.3241,7.4246,7.4246z" transform="matrix(0.6039942,0,0,0.6039942,-502.88289,541.59251)"/>
<path id="use14122-2-5-1-0" style="fill-rule:evenodd;fill:url(#radialGradient69036);" d="m1032.4,429.05c0,4.1005-3.3241,7.4246-7.4246,7.4246s-7.4246-3.3241-7.4246-7.4246,3.3241-7.4246,7.4246-7.4246,7.4246,3.3241,7.4246,7.4246z" transform="matrix(0.6039942,0,0,0.6039942,-502.48817,539.45726)"/>
<path id="use14124-6-1-0-5" style="fill-rule:evenodd;fill:url(#radialGradient69038);" d="m1032.4,429.05c0,4.1005-3.3241,7.4246-7.4246,7.4246s-7.4246-3.3241-7.4246-7.4246,3.3241-7.4246,7.4246-7.4246,7.4246,3.3241,7.4246,7.4246z" transform="matrix(0.6039942,0,0,0.6039942,-498.72274,542.70388)"/>
<path id="use14126-3-3-4-3" style="fill-rule:evenodd;fill:url(#radialGradient69040);" d="m1032.4,429.05c0,4.1005-3.3241,7.4246-7.4246,7.4246s-7.4246-3.3241-7.4246-7.4246,3.3241-7.4246,7.4246-7.4246,7.4246,3.3241,7.4246,7.4246z" transform="matrix(0.6039942,0,0,0.6039942,-491.31744,534.35317)"/>
<path id="use14128-3-2-1-4" style="fill-rule:evenodd;fill:url(#radialGradient69042);" d="m1032.4,429.05c0,4.1005-3.3241,7.4246-7.4246,7.4246s-7.4246-3.3241-7.4246-7.4246,3.3241-7.4246,7.4246-7.4246,7.4246,3.3241,7.4246,7.4246z" transform="matrix(0.6039942,0,0,0.6039942,-494.8578,538.52383)"/>
<path id="use14130-6-1-6-3" style="fill-rule:evenodd;fill:url(#radialGradient69044);" d="m1032.4,429.05c0,4.1005-3.3241,7.4246-7.4246,7.4246s-7.4246-3.3241-7.4246-7.4246,3.3241-7.4246,7.4246-7.4246,7.4246,3.3241,7.4246,7.4246z" transform="matrix(0.6039942,0,0,0.6039942,-495.67751,531.50398)"/>
<path id="use14132-1-9-65-3" style="fill-rule:evenodd;fill:url(#radialGradient69046);" d="m1032.4,429.05c0,4.1005-3.3241,7.4246-7.4246,7.4246s-7.4246-3.3241-7.4246-7.4246,3.3241-7.4246,7.4246-7.4246,7.4246,3.3241,7.4246,7.4246z" transform="matrix(0.6039942,0,0,0.6039942,-501.8079,538.20695)"/>
<path id="use14134-5-4-31-51" style="fill-rule:evenodd;fill:url(#radialGradient69048);" d="m1032.4,429.05c0,4.1005-3.3241,7.4246-7.4246,7.4246s-7.4246-3.3241-7.4246-7.4246,3.3241-7.4246,7.4246-7.4246,7.4246,3.3241,7.4246,7.4246z" transform="matrix(0.6039942,0,0,0.6039942,-505.58224,534.4175)"/>
<path id="use14136-8-2-4-7" style="fill-rule:evenodd;fill:url(#radialGradient69050);" d="m1032.4,429.05c0,4.1005-3.3241,7.4246-7.4246,7.4246s-7.4246-3.3241-7.4246-7.4246,3.3241-7.4246,7.4246-7.4246,7.4246,3.3241,7.4246,7.4246z" transform="matrix(0.6039942,0,0,0.6039942,-507.10735,532.56131)"/>
<path id="use14138-2-3-6-1" style="fill-rule:evenodd;fill:url(#radialGradient69052);" d="m1032.4,429.05c0,4.1005-3.3241,7.4246-7.4246,7.4246s-7.4246-3.3241-7.4246-7.4246,3.3241-7.4246,7.4246-7.4246,7.4246,3.3241,7.4246,7.4246z" transform="matrix(0.6039942,0,0,0.6039942,-513.73214,535.29662)"/>
<path id="use14140-1-0-2-5" style="fill-rule:evenodd;fill:url(#radialGradient69054);" d="m1032.4,429.05c0,4.1005-3.3241,7.4246-7.4246,7.4246s-7.4246-3.3241-7.4246-7.4246,3.3241-7.4246,7.4246-7.4246,7.4246,3.3241,7.4246,7.4246z" transform="matrix(0.6039942,0,0,0.6039942,-502.3871,539.94402)"/>
<path id="use14142-9-1-9-5" style="fill-rule:evenodd;fill:url(#radialGradient69056);" d="m1032.4,429.05c0,4.1005-3.3241,7.4246-7.4246,7.4246s-7.4246-3.3241-7.4246-7.4246,3.3241-7.4246,7.4246-7.4246,7.4246,3.3241,7.4246,7.4246z" transform="matrix(0.6039942,0,0,0.6039942,-505.7867,534.17067)"/>
<path id="use14144-3-4-1-7" style="fill-rule:evenodd;fill:url(#radialGradient69058);" d="m1032.4,429.05c0,4.1005-3.3241,7.4246-7.4246,7.4246s-7.4246-3.3241-7.4246-7.4246,3.3241-7.4246,7.4246-7.4246,7.4246,3.3241,7.4246,7.4246z" transform="matrix(0.6039942,0,0,0.6039942,-501.253,533.40989)"/>
<path id="use14146-9-8-6-6" style="fill-rule:evenodd;fill:url(#radialGradient69060);" d="m1032.4,429.05c0,4.1005-3.3241,7.4246-7.4246,7.4246s-7.4246-3.3241-7.4246-7.4246,3.3241-7.4246,7.4246-7.4246,7.4246,3.3241,7.4246,7.4246z" transform="matrix(0.6039942,0,0,0.6039942,-505.05176,540.03694)"/>
<path id="use14148-7-6-7-45" style="fill-rule:evenodd;fill:url(#radialGradient69062);" d="m1032.4,429.05c0,4.1005-3.3241,7.4246-7.4246,7.4246s-7.4246-3.3241-7.4246-7.4246,3.3241-7.4246,7.4246-7.4246,7.4246,3.3241,7.4246,7.4246z" transform="matrix(0.6039942,0,0,0.6039942,-502.83149,531.86751)"/>
<path id="use14150-2-6-77-4" style="fill-rule:evenodd;fill:url(#radialGradient69064);" d="m1032.4,429.05c0,4.1005-3.3241,7.4246-7.4246,7.4246s-7.4246-3.3241-7.4246-7.4246,3.3241-7.4246,7.4246-7.4246,7.4246,3.3241,7.4246,7.4246z" transform="matrix(0.6039942,0,0,0.6039942,-505.52462,537.66345)"/>
<path id="use14152-1-1-7-6" style="fill-rule:evenodd;fill:url(#radialGradient69066);" d="m1032.4,429.05c0,4.1005-3.3241,7.4246-7.4246,7.4246s-7.4246-3.3241-7.4246-7.4246,3.3241-7.4246,7.4246-7.4246,7.4246,3.3241,7.4246,7.4246z" transform="matrix(0.6039942,0,0,0.6039942,-510.52577,537.86717)"/>
<path id="use14154-3-3-05-20" style="fill-rule:evenodd;fill:url(#radialGradient69068);" d="m1032.4,429.05c0,4.1005-3.3241,7.4246-7.4246,7.4246s-7.4246-3.3241-7.4246-7.4246,3.3241-7.4246,7.4246-7.4246,7.4246,3.3241,7.4246,7.4246z" transform="matrix(0.6039942,0,0,0.6039942,-507.31656,535.69267)"/>
<path id="use14156-2-8-77-5" style="fill-rule:evenodd;fill:url(#radialGradient69070);" d="m1032.4,429.05c0,4.1005-3.3241,7.4246-7.4246,7.4246s-7.4246-3.3241-7.4246-7.4246,3.3241-7.4246,7.4246-7.4246,7.4246,3.3241,7.4246,7.4246z" transform="matrix(0.6039942,0,0,0.6039942,-496.11835,531.32637)"/>
<path id="use14158-0-7-0-0" style="fill-rule:evenodd;fill:url(#radialGradient69072);" d="m1032.4,429.05c0,4.1005-3.3241,7.4246-7.4246,7.4246s-7.4246-3.3241-7.4246-7.4246,3.3241-7.4246,7.4246-7.4246,7.4246,3.3241,7.4246,7.4246z" transform="matrix(0.6039942,0,0,0.6039942,-501.66046,537.83531)"/>
<path id="use14160-9-9-3-1" style="fill-rule:evenodd;fill:url(#radialGradient69074);" d="m1032.4,429.05c0,4.1005-3.3241,7.4246-7.4246,7.4246s-7.4246-3.3241-7.4246-7.4246,3.3241-7.4246,7.4246-7.4246,7.4246,3.3241,7.4246,7.4246z" transform="matrix(0.6039942,0,0,0.6039942,-504.51469,530.02582)"/>
<path id="use14162-2-4-37-6" style="fill-rule:evenodd;fill:url(#radialGradient69076);" d="m1032.4,429.05c0,4.1005-3.3241,7.4246-7.4246,7.4246s-7.4246-3.3241-7.4246-7.4246,3.3241-7.4246,7.4246-7.4246,7.4246,3.3241,7.4246,7.4246z" transform="matrix(0.6039942,0,0,0.6039942,-503.1688,536.29072)"/>
<path id="use14164-7-4-3-6" style="fill-rule:evenodd;fill:url(#radialGradient69078);" d="m1032.4,429.05c0,4.1005-3.3241,7.4246-7.4246,7.4246s-7.4246-3.3241-7.4246-7.4246,3.3241-7.4246,7.4246-7.4246,7.4246,3.3241,7.4246,7.4246z" transform="matrix(0.6039942,0,0,0.6039942,-507.91547,530.88801)"/>
<path id="use14166-4-3-1-4" style="fill-rule:evenodd;fill:url(#radialGradient69080);" d="m1032.4,429.05c0,4.1005-3.3241,7.4246-7.4246,7.4246s-7.4246-3.3241-7.4246-7.4246,3.3241-7.4246,7.4246-7.4246,7.4246,3.3241,7.4246,7.4246z" transform="matrix(0.6039942,0,0,0.6039942,-516.3691,529.19986)"/>
<path id="use14168-5-5-5-1" style="fill-rule:evenodd;fill:url(#radialGradient69082);" d="m1032.4,429.05c0,4.1005-3.3241,7.4246-7.4246,7.4246s-7.4246-3.3241-7.4246-7.4246,3.3241-7.4246,7.4246-7.4246,7.4246,3.3241,7.4246,7.4246z" transform="matrix(0.6039942,0,0,0.6039942,-520.11388,530.8085)"/>
<path id="use14170-0-4-17-7" style="fill-rule:evenodd;fill:url(#radialGradient69084);" d="m1032.4,429.05c0,4.1005-3.3241,7.4246-7.4246,7.4246s-7.4246-3.3241-7.4246-7.4246,3.3241-7.4246,7.4246-7.4246,7.4246,3.3241,7.4246,7.4246z" transform="matrix(0.6039942,0,0,0.6039942,-514.9372,530.97665)"/>
<path id="use14172-3-4-8-7" style="fill-rule:evenodd;fill:url(#radialGradient69086);" d="m1032.4,429.05c0,4.1005-3.3241,7.4246-7.4246,7.4246s-7.4246-3.3241-7.4246-7.4246,3.3241-7.4246,7.4246-7.4246,7.4246,3.3241,7.4246,7.4246z" transform="matrix(0.6039942,0,0,0.6039942,-518.04636,524.11408)"/>
<path id="use14174-2-2-0-7" style="fill-rule:evenodd;fill:url(#radialGradient69088);" d="m1032.4,429.05c0,4.1005-3.3241,7.4246-7.4246,7.4246s-7.4246-3.3241-7.4246-7.4246,3.3241-7.4246,7.4246-7.4246,7.4246,3.3241,7.4246,7.4246z" transform="matrix(0.6039942,0,0,0.6039942,-512.06582,520.89585)"/>
<path id="use14176-9-7-41-9" style="fill-rule:evenodd;fill:url(#radialGradient69090);" d="m1032.4,429.05c0,4.1005-3.3241,7.4246-7.4246,7.4246s-7.4246-3.3241-7.4246-7.4246,3.3241-7.4246,7.4246-7.4246,7.4246,3.3241,7.4246,7.4246z" transform="matrix(0.6039942,0,0,0.6039942,-514.4117,522.96147)"/>
<path id="use14178-7-7-9-2" style="fill-rule:evenodd;fill:url(#radialGradient69092);" d="m1032.4,429.05c0,4.1005-3.3241,7.4246-7.4246,7.4246s-7.4246-3.3241-7.4246-7.4246,3.3241-7.4246,7.4246-7.4246,7.4246,3.3241,7.4246,7.4246z" transform="matrix(0.6039942,0,0,0.6039942,-522.33742,528.9671)"/>
<path id="use14180-8-5-3-6" style="fill-rule:evenodd;fill:url(#radialGradient69094);" d="m1032.4,429.05c0,4.1005-3.3241,7.4246-7.4246,7.4246s-7.4246-3.3241-7.4246-7.4246,3.3241-7.4246,7.4246-7.4246,7.4246,3.3241,7.4246,7.4246z" transform="matrix(0.6039942,0,0,0.6039942,-514.07403,528.44761)"/>
<path id="use14182-0-6-0-4" style="fill-rule:evenodd;fill:url(#radialGradient69096);" d="m1032.4,429.05c0,4.1005-3.3241,7.4246-7.4246,7.4246s-7.4246-3.3241-7.4246-7.4246,3.3241-7.4246,7.4246-7.4246,7.4246,3.3241,7.4246,7.4246z" transform="matrix(0.6039942,0,0,0.6039942,-505.98671,524.03318)"/>
<path id="use14184-1-6-8-3" style="fill-rule:evenodd;fill:url(#radialGradient69098);" d="m1032.4,429.05c0,4.1005-3.3241,7.4246-7.4246,7.4246s-7.4246-3.3241-7.4246-7.4246,3.3241-7.4246,7.4246-7.4246,7.4246,3.3241,7.4246,7.4246z" transform="matrix(0.6039942,0,0,0.6039942,-510.7197,526.67971)"/>
<path id="use14186-14-9-0-2" style="fill-rule:evenodd;fill:url(#radialGradient69100);" d="m1032.4,429.05c0,4.1005-3.3241,7.4246-7.4246,7.4246s-7.4246-3.3241-7.4246-7.4246,3.3241-7.4246,7.4246-7.4246,7.4246,3.3241,7.4246,7.4246z" transform="matrix(0.6039942,0,0,0.6039942,-517.48638,527.12872)"/>
<path id="use14188-7-0-82-8" style="fill-rule:evenodd;fill:url(#radialGradient69102);" d="m1032.4,429.05c0,4.1005-3.3241,7.4246-7.4246,7.4246s-7.4246-3.3241-7.4246-7.4246,3.3241-7.4246,7.4246-7.4246,7.4246,3.3241,7.4246,7.4246z" transform="matrix(0.6039942,0,0,0.6039942,-517.24714,528.74168)"/>
<path id="use14190-4-7-1-3" style="fill-rule:evenodd;fill:url(#radialGradient69104);" d="m1032.4,429.05c0,4.1005-3.3241,7.4246-7.4246,7.4246s-7.4246-3.3241-7.4246-7.4246,3.3241-7.4246,7.4246-7.4246,7.4246,3.3241,7.4246,7.4246z" transform="matrix(0.6039942,0,0,0.6039942,-515.79748,524.19838)"/>
<path id="use14192-3-0-06-1" style="fill-rule:evenodd;fill:url(#radialGradient69106);" d="m1032.4,429.05c0,4.1005-3.3241,7.4246-7.4246,7.4246s-7.4246-3.3241-7.4246-7.4246,3.3241-7.4246,7.4246-7.4246,7.4246,3.3241,7.4246,7.4246z" transform="matrix(0.6039942,0,0,0.6039942,-516.59729,522.81897)"/>
<path id="use14194-9-9-38-6" style="fill-rule:evenodd;fill:url(#radialGradient69108);" d="m1032.4,429.05c0,4.1005-3.3241,7.4246-7.4246,7.4246s-7.4246-3.3241-7.4246-7.4246,3.3241-7.4246,7.4246-7.4246,7.4246,3.3241,7.4246,7.4246z" transform="matrix(0.6039942,0,0,0.6039942,-513.40203,522.28168)"/>
<path id="use14196-9-8-5-1" style="fill-rule:evenodd;fill:url(#radialGradient69110);" d="m1032.4,429.05c0,4.1005-3.3241,7.4246-7.4246,7.4246s-7.4246-3.3241-7.4246-7.4246,3.3241-7.4246,7.4246-7.4246,7.4246,3.3241,7.4246,7.4246z" transform="matrix(0.6039942,0,0,0.6039942,-522.2961,527.63674)"/>
<path id="use14198-6-6-49-1" style="fill-rule:evenodd;fill:url(#radialGradient69112);" d="m1032.4,429.05c0,4.1005-3.3241,7.4246-7.4246,7.4246s-7.4246-3.3241-7.4246-7.4246,3.3241-7.4246,7.4246-7.4246,7.4246,3.3241,7.4246,7.4246z" transform="matrix(0.6039942,0,0,0.6039942,-518.84489,528.75663)"/>
<path id="use14200-7-7-4-11" style="fill-rule:evenodd;fill:url(#radialGradient69114);" d="m1032.4,429.05c0,4.1005-3.3241,7.4246-7.4246,7.4246s-7.4246-3.3241-7.4246-7.4246,3.3241-7.4246,7.4246-7.4246,7.4246,3.3241,7.4246,7.4246z" transform="matrix(0.6039942,0,0,0.6039942,-515.80783,527.9081)"/>
<path id="use14202-6-3-1-3" style="fill-rule:evenodd;fill:url(#radialGradient69116);" d="m1032.4,429.05c0,4.1005-3.3241,7.4246-7.4246,7.4246s-7.4246-3.3241-7.4246-7.4246,3.3241-7.4246,7.4246-7.4246,7.4246,3.3241,7.4246,7.4246z" transform="matrix(0.6039942,0,0,0.6039942,-516.32223,522.94)"/>
<path id="use14204-20-2-58-56" style="fill-rule:evenodd;fill:url(#radialGradient69118);" d="m1032.4,429.05c0,4.1005-3.3241,7.4246-7.4246,7.4246s-7.4246-3.3241-7.4246-7.4246,3.3241-7.4246,7.4246-7.4246,7.4246,3.3241,7.4246,7.4246z" transform="matrix(0.6039942,0,0,0.6039942,-515.02468,522.90881)"/>
<path id="use14206-9-0-08-9" style="fill-rule:evenodd;fill:url(#radialGradient69120);" d="m1032.4,429.05c0,4.1005-3.3241,7.4246-7.4246,7.4246s-7.4246-3.3241-7.4246-7.4246,3.3241-7.4246,7.4246-7.4246,7.4246,3.3241,7.4246,7.4246z" transform="matrix(0.6039942,0,0,0.6039942,-508.21944,515.38592)"/>
<path id="use14208-6-1-58-3" style="fill-rule:evenodd;fill:url(#radialGradient69122);" d="m1032.4,429.05c0,4.1005-3.3241,7.4246-7.4246,7.4246s-7.4246-3.3241-7.4246-7.4246,3.3241-7.4246,7.4246-7.4246,7.4246,3.3241,7.4246,7.4246z" transform="matrix(0.6039942,0,0,0.6039942,-520.82494,520.86439)"/>
<path id="use14210-23-5-1-0" style="fill-rule:evenodd;fill:url(#radialGradient69124);" d="m1032.4,429.05c0,4.1005-3.3241,7.4246-7.4246,7.4246s-7.4246-3.3241-7.4246-7.4246,3.3241-7.4246,7.4246-7.4246,7.4246,3.3241,7.4246,7.4246z" transform="matrix(0.6039942,0,0,0.6039942,-522.21795,515.85552)"/>
<path id="use14212-0-3-1-0" style="fill-rule:evenodd;fill:url(#radialGradient69126);" d="m1032.4,429.05c0,4.1005-3.3241,7.4246-7.4246,7.4246s-7.4246-3.3241-7.4246-7.4246,3.3241-7.4246,7.4246-7.4246,7.4246,3.3241,7.4246,7.4246z" transform="matrix(0.6039942,0,0,0.6039942,-519.46884,514.35785)"/>
<path id="use14214-3-5-5-3" style="fill-rule:evenodd;fill:url(#radialGradient69128);" d="m1032.4,429.05c0,4.1005-3.3241,7.4246-7.4246,7.4246s-7.4246-3.3241-7.4246-7.4246,3.3241-7.4246,7.4246-7.4246,7.4246,3.3241,7.4246,7.4246z" transform="matrix(0.6039942,0,0,0.6039942,-515.16925,517.03956)"/>
<path id="use14216-5-6-1-81" style="fill-rule:evenodd;fill:url(#radialGradient69130);" d="m1032.4,429.05c0,4.1005-3.3241,7.4246-7.4246,7.4246s-7.4246-3.3241-7.4246-7.4246,3.3241-7.4246,7.4246-7.4246,7.4246,3.3241,7.4246,7.4246z" transform="matrix(0.6039942,0,0,0.6039942,-518.06163,513.48219)"/>
<path id="use14218-1-5-6-1" style="fill-rule:evenodd;fill:url(#radialGradient69132);" d="m1032.4,429.05c0,4.1005-3.3241,7.4246-7.4246,7.4246s-7.4246-3.3241-7.4246-7.4246,3.3241-7.4246,7.4246-7.4246,7.4246,3.3241,7.4246,7.4246z" transform="matrix(0.6039942,0,0,0.6039942,-518.18424,517.95509)"/>
<path id="use14220-9-4-2-3" style="fill-rule:evenodd;fill:url(#radialGradient69134);" d="m1032.4,429.05c0,4.1005-3.3241,7.4246-7.4246,7.4246s-7.4246-3.3241-7.4246-7.4246,3.3241-7.4246,7.4246-7.4246,7.4246,3.3241,7.4246,7.4246z" transform="matrix(0.6039942,0,0,0.6039942,-519.77497,516.28708)"/>
<path id="use14222-6-6-91-2" style="fill-rule:evenodd;fill:url(#radialGradient69136);" d="m1032.4,429.05c0,4.1005-3.3241,7.4246-7.4246,7.4246s-7.4246-3.3241-7.4246-7.4246,3.3241-7.4246,7.4246-7.4246,7.4246,3.3241,7.4246,7.4246z" transform="matrix(0.6039942,0,0,0.6039942,-518.90021,514.78838)"/>
<path id="use14224-7-8-70-0" style="fill-rule:evenodd;fill:url(#radialGradient69138);" d="m1032.4,429.05c0,4.1005-3.3241,7.4246-7.4246,7.4246s-7.4246-3.3241-7.4246-7.4246,3.3241-7.4246,7.4246-7.4246,7.4246,3.3241,7.4246,7.4246z" transform="matrix(0.6039942,0,0,0.6039942,-521.48377,512.77123)"/>
<path id="use14226-9-1-5-83" style="fill-rule:evenodd;fill:url(#radialGradient69140);" d="m1032.4,429.05c0,4.1005-3.3241,7.4246-7.4246,7.4246s-7.4246-3.3241-7.4246-7.4246,3.3241-7.4246,7.4246-7.4246,7.4246,3.3241,7.4246,7.4246z" transform="matrix(0.6039942,0,0,0.6039942,-526.67768,513.98897)"/>
<path id="use14228-2-5-4-8" style="fill-rule:evenodd;fill:url(#radialGradient69142);" d="m1032.4,429.05c0,4.1005-3.3241,7.4246-7.4246,7.4246s-7.4246-3.3241-7.4246-7.4246,3.3241-7.4246,7.4246-7.4246,7.4246,3.3241,7.4246,7.4246z" transform="matrix(0.6039942,0,0,0.6039942,-523.55569,515.13595)"/>
<path id="use14230-7-8-2-9" style="fill-rule:evenodd;fill:url(#radialGradient69144);" d="m1032.4,429.05c0,4.1005-3.3241,7.4246-7.4246,7.4246s-7.4246-3.3241-7.4246-7.4246,3.3241-7.4246,7.4246-7.4246,7.4246,3.3241,7.4246,7.4246z" transform="matrix(0.6039942,0,0,0.6039942,-519.14,517.38311)"/>
<path id="use14232-56-5-76-3" style="fill-rule:evenodd;fill:url(#radialGradient69146);" d="m1032.4,429.05c0,4.1005-3.3241,7.4246-7.4246,7.4246s-7.4246-3.3241-7.4246-7.4246,3.3241-7.4246,7.4246-7.4246,7.4246,3.3241,7.4246,7.4246z" transform="matrix(0.6039942,0,0,0.6039942,-524.14396,515.01096)"/>
<path id="use14234-8-3-8-0" style="fill-rule:evenodd;fill:url(#radialGradient69148);" d="m1032.4,429.05c0,4.1005-3.3241,7.4246-7.4246,7.4246s-7.4246-3.3241-7.4246-7.4246,3.3241-7.4246,7.4246-7.4246,7.4246,3.3241,7.4246,7.4246z" transform="matrix(0.6039942,0,0,0.6039942,-525.46054,518.92343)"/>
<path id="use14236-2-3-2-7" style="fill-rule:evenodd;fill:url(#radialGradient69150);" d="m1032.4,429.05c0,4.1005-3.3241,7.4246-7.4246,7.4246s-7.4246-3.3241-7.4246-7.4246,3.3241-7.4246,7.4246-7.4246,7.4246,3.3241,7.4246,7.4246z" transform="matrix(0.6039942,0,0,0.6039942,-525.01872,512.93292)"/>
<path id="use14238-4-2-7-5" style="fill-rule:evenodd;fill:url(#radialGradient69152);" d="m1032.4,429.05c0,4.1005-3.3241,7.4246-7.4246,7.4246s-7.4246-3.3241-7.4246-7.4246,3.3241-7.4246,7.4246-7.4246,7.4246,3.3241,7.4246,7.4246z" transform="matrix(0.6039942,0,0,0.6039942,-527.32302,516.25385)"/>
<path id="use14240-6-8-9-4" style="fill-rule:evenodd;fill:url(#radialGradient69154);" d="m1032.4,429.05c0,4.1005-3.3241,7.4246-7.4246,7.4246s-7.4246-3.3241-7.4246-7.4246,3.3241-7.4246,7.4246-7.4246,7.4246,3.3241,7.4246,7.4246z" transform="matrix(0.6039942,0,0,0.6039942,-521.45684,516.46334)"/>
<path id="use14242-3-7-5-1" style="fill-rule:evenodd;fill:url(#radialGradient69156);" d="m1032.4,429.05c0,4.1005-3.3241,7.4246-7.4246,7.4246s-7.4246-3.3241-7.4246-7.4246,3.3241-7.4246,7.4246-7.4246,7.4246,3.3241,7.4246,7.4246z" transform="matrix(0.6039942,0,0,0.6039942,-526.0221,515.31419)"/>
<path id="use14244-0-6-81-0" style="fill-rule:evenodd;fill:url(#radialGradient69158);" d="m1032.4,429.05c0,4.1005-3.3241,7.4246-7.4246,7.4246s-7.4246-3.3241-7.4246-7.4246,3.3241-7.4246,7.4246-7.4246,7.4246,3.3241,7.4246,7.4246z" transform="matrix(0.6039942,0,0,0.6039942,-526.71061,511.92427)"/>
<path id="use14246-9-9-8-7" style="fill-rule:evenodd;fill:url(#radialGradient69160);" d="m1032.4,429.05c0,4.1005-3.3241,7.4246-7.4246,7.4246s-7.4246-3.3241-7.4246-7.4246,3.3241-7.4246,7.4246-7.4246,7.4246,3.3241,7.4246,7.4246z" transform="matrix(0.6039942,0,0,0.6039942,-526.03216,511.15175)"/>
<path id="use14248-1-6-3-1" style="fill-rule:evenodd;fill:url(#radialGradient69162);" d="m1032.4,429.05c0,4.1005-3.3241,7.4246-7.4246,7.4246s-7.4246-3.3241-7.4246-7.4246,3.3241-7.4246,7.4246-7.4246,7.4246,3.3241,7.4246,7.4246z" transform="matrix(0.6039942,0,0,0.6039942,-526.44153,519.20942)"/>
<path id="use14250-87-4-7-8" style="fill-rule:evenodd;fill:url(#radialGradient69164);" d="m1032.4,429.05c0,4.1005-3.3241,7.4246-7.4246,7.4246s-7.4246-3.3241-7.4246-7.4246,3.3241-7.4246,7.4246-7.4246,7.4246,3.3241,7.4246,7.4246z" transform="matrix(0.6039942,0,0,0.6039942,-531.21424,510.51337)"/>
<path id="use14252-6-6-9-7" style="fill-rule:evenodd;fill:url(#radialGradient69166);" d="m1032.4,429.05c0,4.1005-3.3241,7.4246-7.4246,7.4246s-7.4246-3.3241-7.4246-7.4246,3.3241-7.4246,7.4246-7.4246,7.4246,3.3241,7.4246,7.4246z" transform="matrix(0.6039942,0,0,0.6039942,-530.67478,517.15679)"/>
<path id="use14254-8-3-3-2" style="fill-rule:evenodd;fill:url(#radialGradient69168);" d="m1032.4,429.05c0,4.1005-3.3241,7.4246-7.4246,7.4246s-7.4246-3.3241-7.4246-7.4246,3.3241-7.4246,7.4246-7.4246,7.4246,3.3241,7.4246,7.4246z" transform="matrix(0.6039942,0,0,0.6039942,-526.39887,508.46884)"/>
<path id="use14256-4-2-5-8" style="fill-rule:evenodd;fill:url(#radialGradient69170);" d="m1032.4,429.05c0,4.1005-3.3241,7.4246-7.4246,7.4246s-7.4246-3.3241-7.4246-7.4246,3.3241-7.4246,7.4246-7.4246,7.4246,3.3241,7.4246,7.4246z" transform="matrix(0.6039942,0,0,0.6039942,-525.94413,512.14426)"/>
<path id="use14258-0-1-8-5" style="fill-rule:evenodd;fill:url(#radialGradient69172);" d="m1032.4,429.05c0,4.1005-3.3241,7.4246-7.4246,7.4246s-7.4246-3.3241-7.4246-7.4246,3.3241-7.4246,7.4246-7.4246,7.4246,3.3241,7.4246,7.4246z" transform="matrix(0.6039942,0,0,0.6039942,-527.22803,511.89051)"/>
<path id="use14260-3-0-3-9" style="fill-rule:evenodd;fill:url(#radialGradient69174);" d="m1032.4,429.05c0,4.1005-3.3241,7.4246-7.4246,7.4246s-7.4246-3.3241-7.4246-7.4246,3.3241-7.4246,7.4246-7.4246,7.4246,3.3241,7.4246,7.4246z" transform="matrix(0.6039942,0,0,0.6039942,-528.01196,514.77053)"/>
<path id="use14540-7-5-09-9" style="fill-rule:evenodd;fill:url(#radialGradient69176);" d="m1032.4,429.05c0,4.1005-3.3241,7.4246-7.4246,7.4246s-7.4246-3.3241-7.4246-7.4246,3.3241-7.4246,7.4246-7.4246,7.4246,3.3241,7.4246,7.4246z" transform="translate(-945.69653,357.09621)"/>
<path id="use14542-9-8-56-9" style="fill-rule:evenodd;fill:url(#radialGradient69178);" d="m1032.4,429.05c0,4.1005-3.3241,7.4246-7.4246,7.4246s-7.4246-3.3241-7.4246-7.4246,3.3241-7.4246,7.4246-7.4246,7.4246,3.3241,7.4246,7.4246z" transform="translate(-945.10347,362.20247)"/>
<path id="use14544-6-7-9-3" style="fill-rule:evenodd;fill:url(#radialGradient69180);" d="m1032.4,429.05c0,4.1005-3.3241,7.4246-7.4246,7.4246s-7.4246-3.3241-7.4246-7.4246,3.3241-7.4246,7.4246-7.4246,7.4246,3.3241,7.4246,7.4246z" transform="translate(-945.72023,356.73764)"/>
<path id="use14546-2-0-38-6" style="fill-rule:evenodd;fill:url(#radialGradient69182);" d="m1032.4,429.05c0,4.1005-3.3241,7.4246-7.4246,7.4246s-7.4246-3.3241-7.4246-7.4246,3.3241-7.4246,7.4246-7.4246,7.4246,3.3241,7.4246,7.4246z" transform="translate(-938.91361,359.11091)"/>
<path id="use14548-2-0-98-4" style="fill-rule:evenodd;fill:url(#radialGradient69184);" d="m1032.4,429.05c0,4.1005-3.3241,7.4246-7.4246,7.4246s-7.4246-3.3241-7.4246-7.4246,3.3241-7.4246,7.4246-7.4246,7.4246,3.3241,7.4246,7.4246z" transform="translate(-947.24621,364.19578)"/>
<path id="use14550-7-3-17-6" style="fill-rule:evenodd;fill:url(#radialGradient69186);" d="m1032.4,429.05c0,4.1005-3.3241,7.4246-7.4246,7.4246s-7.4246-3.3241-7.4246-7.4246,3.3241-7.4246,7.4246-7.4246,7.4246,3.3241,7.4246,7.4246z" transform="translate(-942.72224,363.54348)"/>
<path id="use14552-3-7-3-9" style="fill-rule:evenodd;fill:url(#radialGradient69188);" d="m1032.4,429.05c0,4.1005-3.3241,7.4246-7.4246,7.4246s-7.4246-3.3241-7.4246-7.4246,3.3241-7.4246,7.4246-7.4246,7.4246,3.3241,7.4246,7.4246z" transform="translate(-947.19451,358.75565)"/>
<path id="use14556-0-3-6-3" style="fill-rule:evenodd;fill:url(#radialGradient69190);" d="m1032.4,429.05c0,4.1005-3.3241,7.4246-7.4246,7.4246s-7.4246-3.3241-7.4246-7.4246,3.3241-7.4246,7.4246-7.4246,7.4246,3.3241,7.4246,7.4246z" transform="translate(-931.99771,367.79565)"/>
<path id="use14558-7-4-86-3" style="fill-rule:evenodd;fill:url(#radialGradient69192);" d="m1032.4,429.05c0,4.1005-3.3241,7.4246-7.4246,7.4246s-7.4246-3.3241-7.4246-7.4246,3.3241-7.4246,7.4246-7.4246,7.4246,3.3241,7.4246,7.4246z" transform="translate(-933.08861,358.93127)"/>
<path id="use14560-30-6-3-1" style="fill-rule:evenodd;fill:url(#radialGradient69194);" d="m1032.4,429.05c0,4.1005-3.3241,7.4246-7.4246,7.4246s-7.4246-3.3241-7.4246-7.4246,3.3241-7.4246,7.4246-7.4246,7.4246,3.3241,7.4246,7.4246z" transform="translate(-930.92106,366.63777)"/>
<path id="use14562-7-2-2-3" style="fill-rule:evenodd;fill:url(#radialGradient69196);" d="m1032.4,429.05c0,4.1005-3.3241,7.4246-7.4246,7.4246s-7.4246-3.3241-7.4246-7.4246,3.3241-7.4246,7.4246-7.4246,7.4246,3.3241,7.4246,7.4246z" transform="translate(-929.96587,361.80012)"/>
<path id="use14564-3-0-6-4" style="fill-rule:evenodd;fill:url(#radialGradient69198);" d="m1032.4,429.05c0,4.1005-3.3241,7.4246-7.4246,7.4246s-7.4246-3.3241-7.4246-7.4246,3.3241-7.4246,7.4246-7.4246,7.4246,3.3241,7.4246,7.4246z" transform="translate(-938.81386,366.31555)"/>
<path id="use14566-6-1-0-5" style="fill-rule:evenodd;fill:url(#radialGradient69200);" d="m1032.4,429.05c0,4.1005-3.3241,7.4246-7.4246,7.4246s-7.4246-3.3241-7.4246-7.4246,3.3241-7.4246,7.4246-7.4246,7.4246,3.3241,7.4246,7.4246z" transform="translate(-932.65196,367.09108)"/>
<path id="use14568-4-1-8-8" style="fill-rule:evenodd;fill:url(#radialGradient69202);" d="m1032.4,429.05c0,4.1005-3.3241,7.4246-7.4246,7.4246s-7.4246-3.3241-7.4246-7.4246,3.3241-7.4246,7.4246-7.4246,7.4246,3.3241,7.4246,7.4246z" transform="translate(-932.06333,368.76585)"/>
<path id="use14570-6-6-7-2" style="fill-rule:evenodd;fill:url(#radialGradient69204);" d="m1032.4,429.05c0,4.1005-3.3241,7.4246-7.4246,7.4246s-7.4246-3.3241-7.4246-7.4246,3.3241-7.4246,7.4246-7.4246,7.4246,3.3241,7.4246,7.4246z" transform="translate(-941.41768,368.22332)"/>
<path id="use14572-7-5-04-0" style="fill-rule:evenodd;fill:url(#radialGradient69206);" d="m1032.4,429.05c0,4.1005-3.3241,7.4246-7.4246,7.4246s-7.4246-3.3241-7.4246-7.4246,3.3241-7.4246,7.4246-7.4246,7.4246,3.3241,7.4246,7.4246z" transform="translate(-937.89586,365.8257)"/>
<path id="use14574-40-3-8-5" style="fill-rule:evenodd;fill:url(#radialGradient69208);" d="m1032.4,429.05c0,4.1005-3.3241,7.4246-7.4246,7.4246s-7.4246-3.3241-7.4246-7.4246,3.3241-7.4246,7.4246-7.4246,7.4246,3.3241,7.4246,7.4246z" transform="translate(-940.07354,363.95728)"/>
<path id="use14576-1-4-1-4" style="fill-rule:evenodd;fill:url(#radialGradient69210);" d="m1032.4,429.05c0,4.1005-3.3241,7.4246-7.4246,7.4246s-7.4246-3.3241-7.4246-7.4246,3.3241-7.4246,7.4246-7.4246,7.4246,3.3241,7.4246,7.4246z" transform="translate(-930.81312,367.16756)"/>
<path id="use14578-2-9-8-2" style="fill-rule:evenodd;fill:url(#radialGradient69212);" d="m1032.4,429.05c0,4.1005-3.3241,7.4246-7.4246,7.4246s-7.4246-3.3241-7.4246-7.4246,3.3241-7.4246,7.4246-7.4246,7.4246,3.3241,7.4246,7.4246z" transform="translate(-932.44861,368.26196)"/>
<path id="use14580-4-5-1-5" style="fill-rule:evenodd;fill:url(#radialGradient69214);" d="m1032.4,429.05c0,4.1005-3.3241,7.4246-7.4246,7.4246s-7.4246-3.3241-7.4246-7.4246,3.3241-7.4246,7.4246-7.4246,7.4246,3.3241,7.4246,7.4246z" transform="translate(-941.62912,365.35589)"/>
<path id="use14582-4-3-3-0" style="fill-rule:evenodd;fill:url(#radialGradient69216);" d="m1032.4,429.05c0,4.1005-3.3241,7.4246-7.4246,7.4246s-7.4246-3.3241-7.4246-7.4246,3.3241-7.4246,7.4246-7.4246,7.4246,3.3241,7.4246,7.4246z" transform="translate(-931.82308,366.15871)"/>
<path id="use14584-6-4-8-9" style="fill-rule:evenodd;fill:url(#radialGradient69218);" d="m1032.4,429.05c0,4.1005-3.3241,7.4246-7.4246,7.4246s-7.4246-3.3241-7.4246-7.4246,3.3241-7.4246,7.4246-7.4246,7.4246,3.3241,7.4246,7.4246z" transform="translate(-931.80289,367.10091)"/>
<path id="use14586-3-3-7-0" style="fill-rule:evenodd;fill:url(#radialGradient69220);" d="m1032.4,429.05c0,4.1005-3.3241,7.4246-7.4246,7.4246s-7.4246-3.3241-7.4246-7.4246,3.3241-7.4246,7.4246-7.4246,7.4246,3.3241,7.4246,7.4246z" transform="translate(-938.92656,366.34863)"/>
<path id="use14588-4-7-89-9" style="fill-rule:evenodd;fill:url(#radialGradient69222);" d="m1032.4,429.05c0,4.1005-3.3241,7.4246-7.4246,7.4246s-7.4246-3.3241-7.4246-7.4246,3.3241-7.4246,7.4246-7.4246,7.4246,3.3241,7.4246,7.4246z" transform="translate(-933.35542,360.39023)"/>
<path id="use14590-5-7-5-7" style="fill-rule:evenodd;fill:url(#radialGradient69224);" d="m1032.4,429.05c0,4.1005-3.3241,7.4246-7.4246,7.4246s-7.4246-3.3241-7.4246-7.4246,3.3241-7.4246,7.4246-7.4246,7.4246,3.3241,7.4246,7.4246z" transform="translate(-934.60167,361.38084)"/>
<path id="use14592-0-0-1-1" style="fill-rule:evenodd;fill:url(#radialGradient69226);" d="m1032.4,429.05c0,4.1005-3.3241,7.4246-7.4246,7.4246s-7.4246-3.3241-7.4246-7.4246,3.3241-7.4246,7.4246-7.4246,7.4246,3.3241,7.4246,7.4246z" transform="translate(-932.5691,369.2599)"/>
<path id="use14594-2-9-96-4" style="fill-rule:evenodd;fill:url(#radialGradient69228);" d="m1032.4,429.05c0,4.1005-3.3241,7.4246-7.4246,7.4246s-7.4246-3.3241-7.4246-7.4246,3.3241-7.4246,7.4246-7.4246,7.4246,3.3241,7.4246,7.4246z" transform="translate(-934.52585,369.44187)"/>
<path id="use14596-01-1-6-2" style="fill-rule:evenodd;fill:url(#radialGradient69230);" d="m1032.4,429.05c0,4.1005-3.3241,7.4246-7.4246,7.4246s-7.4246-3.3241-7.4246-7.4246,3.3241-7.4246,7.4246-7.4246,7.4246,3.3241,7.4246,7.4246z" transform="translate(-929.7641,366.2556)"/>
<path id="use14598-6-5-95-1" style="fill-rule:evenodd;fill:url(#radialGradient69232);" d="m1032.4,429.05c0,4.1005-3.3241,7.4246-7.4246,7.4246s-7.4246-3.3241-7.4246-7.4246,3.3241-7.4246,7.4246-7.4246,7.4246,3.3241,7.4246,7.4246z" transform="translate(-931.55896,362.50697)"/>
<path id="use14600-9-4-5-03" style="fill-rule:evenodd;fill:url(#radialGradient69234);" d="m1032.4,429.05c0,4.1005-3.3241,7.4246-7.4246,7.4246s-7.4246-3.3241-7.4246-7.4246,3.3241-7.4246,7.4246-7.4246,7.4246,3.3241,7.4246,7.4246z" transform="translate(-927.64688,368.27348)"/>
<path id="use14602-3-0-28-5" style="fill-rule:evenodd;fill:url(#radialGradient69236);" d="m1032.4,429.05c0,4.1005-3.3241,7.4246-7.4246,7.4246s-7.4246-3.3241-7.4246-7.4246,3.3241-7.4246,7.4246-7.4246,7.4246,3.3241,7.4246,7.4246z" transform="translate(-933.46965,365.63637)"/>
<path id="use14604-7-0-1-6" style="fill-rule:evenodd;fill:url(#radialGradient69238);" d="m1032.4,429.05c0,4.1005-3.3241,7.4246-7.4246,7.4246s-7.4246-3.3241-7.4246-7.4246,3.3241-7.4246,7.4246-7.4246,7.4246,3.3241,7.4246,7.4246z" transform="translate(-925.51824,367.55095)"/>
<path id="use14606-9-7-62-9" style="fill-rule:evenodd;fill:url(#radialGradient69240);" d="m1032.4,429.05c0,4.1005-3.3241,7.4246-7.4246,7.4246s-7.4246-3.3241-7.4246-7.4246,3.3241-7.4246,7.4246-7.4246,7.4246,3.3241,7.4246,7.4246z" transform="translate(-929.1462,366.12229)"/>
<path id="use14608-15-1-78-6" style="fill-rule:evenodd;fill:url(#radialGradient69242);" d="m1032.4,429.05c0,4.1005-3.3241,7.4246-7.4246,7.4246s-7.4246-3.3241-7.4246-7.4246,3.3241-7.4246,7.4246-7.4246,7.4246,3.3241,7.4246,7.4246z" transform="translate(-925.78547,360.58222)"/>
<path id="use14610-2-2-8-8" style="fill-rule:evenodd;fill:url(#radialGradient69244);" d="m1032.4,429.05c0,4.1005-3.3241,7.4246-7.4246,7.4246s-7.4246-3.3241-7.4246-7.4246,3.3241-7.4246,7.4246-7.4246,7.4246,3.3241,7.4246,7.4246z" transform="translate(-932.15315,363.5472)"/>
<path id="use14612-4-3-05-4" style="fill-rule:evenodd;fill:url(#radialGradient69246);" d="m1032.4,429.05c0,4.1005-3.3241,7.4246-7.4246,7.4246s-7.4246-3.3241-7.4246-7.4246,3.3241-7.4246,7.4246-7.4246,7.4246,3.3241,7.4246,7.4246z" transform="translate(-933.09325,367.91848)"/>
<path id="use14614-4-7-0-8" style="fill-rule:evenodd;fill:url(#radialGradient69248);" d="m1032.4,429.05c0,4.1005-3.3241,7.4246-7.4246,7.4246s-7.4246-3.3241-7.4246-7.4246,3.3241-7.4246,7.4246-7.4246,7.4246,3.3241,7.4246,7.4246z" transform="translate(-932.18118,360.35638)"/>
<path id="use14616-1-7-9-3" style="fill-rule:evenodd;fill:url(#radialGradient69250);" d="m1032.4,429.05c0,4.1005-3.3241,7.4246-7.4246,7.4246s-7.4246-3.3241-7.4246-7.4246,3.3241-7.4246,7.4246-7.4246,7.4246,3.3241,7.4246,7.4246z" transform="translate(-934.98355,365.67588)"/>
<path id="use14618-3-3-9-1" style="fill-rule:evenodd;fill:url(#radialGradient69252);" d="m1032.4,429.05c0,4.1005-3.3241,7.4246-7.4246,7.4246s-7.4246-3.3241-7.4246-7.4246,3.3241-7.4246,7.4246-7.4246,7.4246,3.3241,7.4246,7.4246z" transform="translate(-931.84625,361.07395)"/>
<path id="use14620-4-3-7-0" style="fill-rule:evenodd;fill:url(#radialGradient69254);" d="m1032.4,429.05c0,4.1005-3.3241,7.4246-7.4246,7.4246s-7.4246-3.3241-7.4246-7.4246,3.3241-7.4246,7.4246-7.4246,7.4246,3.3241,7.4246,7.4246z" transform="translate(-931.37802,361.39481)"/>
<path id="use14622-6-3-3-7" style="fill-rule:evenodd;fill:url(#radialGradient69256);" d="m1032.4,429.05c0,4.1005-3.3241,7.4246-7.4246,7.4246s-7.4246-3.3241-7.4246-7.4246,3.3241-7.4246,7.4246-7.4246,7.4246,3.3241,7.4246,7.4246z" transform="translate(-923.62673,363.99237)"/>
<path id="use14624-8-9-3-6" style="fill-rule:evenodd;fill:url(#radialGradient69258);" d="m1032.4,429.05c0,4.1005-3.3241,7.4246-7.4246,7.4246s-7.4246-3.3241-7.4246-7.4246,3.3241-7.4246,7.4246-7.4246,7.4246,3.3241,7.4246,7.4246z" transform="translate(-941.85482,384.95689)"/>
<path id="use14626-87-1-65-0" style="fill-rule:evenodd;fill:url(#radialGradient69260);" d="m1032.4,429.05c0,4.1005-3.3241,7.4246-7.4246,7.4246s-7.4246-3.3241-7.4246-7.4246,3.3241-7.4246,7.4246-7.4246,7.4246,3.3241,7.4246,7.4246z" transform="translate(-942.11387,389.46721)"/>
<path id="use14628-0-5-3-2" style="fill-rule:evenodd;fill:url(#radialGradient69262);" d="m1032.4,429.05c0,4.1005-3.3241,7.4246-7.4246,7.4246s-7.4246-3.3241-7.4246-7.4246,3.3241-7.4246,7.4246-7.4246,7.4246,3.3241,7.4246,7.4246z" transform="translate(-946.09309,382.31833)"/>
<path id="use14630-34-8-83-3" style="fill-rule:evenodd;fill:url(#radialGradient69264);" d="m1032.4,429.05c0,4.1005-3.3241,7.4246-7.4246,7.4246s-7.4246-3.3241-7.4246-7.4246,3.3241-7.4246,7.4246-7.4246,7.4246,3.3241,7.4246,7.4246z" transform="translate(-949.41716,385.70645)"/>
<path id="use14632-46-8-9-6" style="fill-rule:evenodd;fill:url(#radialGradient69266);" d="m1032.4,429.05c0,4.1005-3.3241,7.4246-7.4246,7.4246s-7.4246-3.3241-7.4246-7.4246,3.3241-7.4246,7.4246-7.4246,7.4246,3.3241,7.4246,7.4246z" transform="translate(-949.43652,381.956)"/>
<path id="use14634-7-8-26-3" style="fill-rule:evenodd;fill:url(#radialGradient69268);" d="m1032.4,429.05c0,4.1005-3.3241,7.4246-7.4246,7.4246s-7.4246-3.3241-7.4246-7.4246,3.3241-7.4246,7.4246-7.4246,7.4246,3.3241,7.4246,7.4246z" transform="translate(-945.23081,382.96645)"/>
<path id="use14636-1-0-6-5" style="fill-rule:evenodd;fill:url(#radialGradient69270);" d="m1032.4,429.05c0,4.1005-3.3241,7.4246-7.4246,7.4246s-7.4246-3.3241-7.4246-7.4246,3.3241-7.4246,7.4246-7.4246,7.4246,3.3241,7.4246,7.4246z" transform="translate(-949.00712,386.87226)"/>
<path id="use14638-8-2-59-8" style="fill-rule:evenodd;fill:url(#radialGradient69272);" d="m1032.4,429.05c0,4.1005-3.3241,7.4246-7.4246,7.4246s-7.4246-3.3241-7.4246-7.4246,3.3241-7.4246,7.4246-7.4246,7.4246,3.3241,7.4246,7.4246z" transform="translate(-951.66717,383.33074)"/>
<path id="use14640-12-4-1-2" style="fill-rule:evenodd;fill:url(#radialGradient69274);" d="m1032.4,429.05c0,4.1005-3.3241,7.4246-7.4246,7.4246s-7.4246-3.3241-7.4246-7.4246,3.3241-7.4246,7.4246-7.4246,7.4246,3.3241,7.4246,7.4246z" transform="translate(-945.18664,387.22045)"/>
<path id="use14642-1-4-4-11" style="fill-rule:evenodd;fill:url(#radialGradient69276);" d="m1032.4,429.05c0,4.1005-3.3241,7.4246-7.4246,7.4246s-7.4246-3.3241-7.4246-7.4246,3.3241-7.4246,7.4246-7.4246,7.4246,3.3241,7.4246,7.4246z" transform="translate(-942.14021,380.66986)"/>
<path id="use14644-2-3-9-0" style="fill-rule:evenodd;fill:url(#radialGradient69278);" d="m1032.4,429.05c0,4.1005-3.3241,7.4246-7.4246,7.4246s-7.4246-3.3241-7.4246-7.4246,3.3241-7.4246,7.4246-7.4246,7.4246,3.3241,7.4246,7.4246z" transform="translate(-946.28724,384.60517)"/>
<path id="use14646-3-3-8-3" style="fill-rule:evenodd;fill:url(#radialGradient69280);" d="m1032.4,429.05c0,4.1005-3.3241,7.4246-7.4246,7.4246s-7.4246-3.3241-7.4246-7.4246,3.3241-7.4246,7.4246-7.4246,7.4246,3.3241,7.4246,7.4246z" transform="translate(-947.57341,385.50548)"/>
<path id="use14648-1-6-7-1" style="fill-rule:evenodd;fill:url(#radialGradient69282);" d="m1032.4,429.05c0,4.1005-3.3241,7.4246-7.4246,7.4246s-7.4246-3.3241-7.4246-7.4246,3.3241-7.4246,7.4246-7.4246,7.4246,3.3241,7.4246,7.4246z" transform="translate(-948.33889,385.70752)"/>
<path id="use14650-1-7-4-9" style="fill-rule:evenodd;fill:url(#radialGradient69284);" d="m1032.4,429.05c0,4.1005-3.3241,7.4246-7.4246,7.4246s-7.4246-3.3241-7.4246-7.4246,3.3241-7.4246,7.4246-7.4246,7.4246,3.3241,7.4246,7.4246z" transform="translate(-949.60313,387.89325)"/>
<path id="use14652-10-6-42-4" style="fill-rule:evenodd;fill:url(#radialGradient69286);" d="m1032.4,429.05c0,4.1005-3.3241,7.4246-7.4246,7.4246s-7.4246-3.3241-7.4246-7.4246,3.3241-7.4246,7.4246-7.4246,7.4246,3.3241,7.4246,7.4246z" transform="translate(-949.54897,390.54068)"/>
<path id="use14654-8-6-7-7" style="fill-rule:evenodd;fill:url(#radialGradient69288);" d="m1032.4,429.05c0,4.1005-3.3241,7.4246-7.4246,7.4246s-7.4246-3.3241-7.4246-7.4246,3.3241-7.4246,7.4246-7.4246,7.4246,3.3241,7.4246,7.4246z" transform="translate(-941.42708,387.22825)"/>
<path id="use14656-9-1-2-2" style="fill-rule:evenodd;fill:url(#radialGradient69290);" d="m1032.4,429.05c0,4.1005-3.3241,7.4246-7.4246,7.4246s-7.4246-3.3241-7.4246-7.4246,3.3241-7.4246,7.4246-7.4246,7.4246,3.3241,7.4246,7.4246z" transform="translate(-946.24724,383.99775)"/>
<path id="use14658-10-4-7-97" style="fill-rule:evenodd;fill:url(#radialGradient69292);" d="m1032.4,429.05c0,4.1005-3.3241,7.4246-7.4246,7.4246s-7.4246-3.3241-7.4246-7.4246,3.3241-7.4246,7.4246-7.4246,7.4246,3.3241,7.4246,7.4246z" transform="translate(-906.99707,394.41771)"/>
<path id="use14660-9-8-20-3" style="fill-rule:evenodd;fill:url(#radialGradient69294);" d="m1032.4,429.05c0,4.1005-3.3241,7.4246-7.4246,7.4246s-7.4246-3.3241-7.4246-7.4246,3.3241-7.4246,7.4246-7.4246,7.4246,3.3241,7.4246,7.4246z" transform="translate(-900.72108,389.11353)"/>
<path id="use14662-7-1-9-6" style="fill-rule:evenodd;fill:url(#radialGradient69296);" d="m1032.4,429.05c0,4.1005-3.3241,7.4246-7.4246,7.4246s-7.4246-3.3241-7.4246-7.4246,3.3241-7.4246,7.4246-7.4246,7.4246,3.3241,7.4246,7.4246z" transform="translate(-905.08818,388.35465)"/>
<path id="use14664-7-6-8-0" style="fill-rule:evenodd;fill:url(#radialGradient69298);" d="m1032.4,429.05c0,4.1005-3.3241,7.4246-7.4246,7.4246s-7.4246-3.3241-7.4246-7.4246,3.3241-7.4246,7.4246-7.4246,7.4246,3.3241,7.4246,7.4246z" transform="translate(-913.69267,390.40901)"/>
<path id="use14666-4-5-1-2" style="fill-rule:evenodd;fill:url(#radialGradient69300);" d="m1032.4,429.05c0,4.1005-3.3241,7.4246-7.4246,7.4246s-7.4246-3.3241-7.4246-7.4246,3.3241-7.4246,7.4246-7.4246,7.4246,3.3241,7.4246,7.4246z" transform="translate(-899.70185,395.97216)"/>
<path id="use14668-5-9-6-93" style="fill-rule:evenodd;fill:url(#radialGradient69302);" d="m1032.4,429.05c0,4.1005-3.3241,7.4246-7.4246,7.4246s-7.4246-3.3241-7.4246-7.4246,3.3241-7.4246,7.4246-7.4246,7.4246,3.3241,7.4246,7.4246z" transform="translate(-913.35854,387.78606)"/>
<path id="use14670-1-6-22-0" style="fill-rule:evenodd;fill:url(#radialGradient69304);" d="m1032.4,429.05c0,4.1005-3.3241,7.4246-7.4246,7.4246s-7.4246-3.3241-7.4246-7.4246,3.3241-7.4246,7.4246-7.4246,7.4246,3.3241,7.4246,7.4246z" transform="translate(-903.57205,400.98477)"/>
<path id="use14672-6-8-7-8" style="fill-rule:evenodd;fill:url(#radialGradient69306);" d="m1032.4,429.05c0,4.1005-3.3241,7.4246-7.4246,7.4246s-7.4246-3.3241-7.4246-7.4246,3.3241-7.4246,7.4246-7.4246,7.4246,3.3241,7.4246,7.4246z" transform="translate(-907.48127,385.77729)"/>
<path id="use14674-7-7-48-6" style="fill-rule:evenodd;fill:url(#radialGradient69308);" d="m1032.4,429.05c0,4.1005-3.3241,7.4246-7.4246,7.4246s-7.4246-3.3241-7.4246-7.4246,3.3241-7.4246,7.4246-7.4246,7.4246,3.3241,7.4246,7.4246z" transform="translate(-937.38804,397.38328)"/>
<path id="use14676-8-1-39-7" style="fill-rule:evenodd;fill:url(#radialGradient69310);" d="m1032.4,429.05c0,4.1005-3.3241,7.4246-7.4246,7.4246s-7.4246-3.3241-7.4246-7.4246,3.3241-7.4246,7.4246-7.4246,7.4246,3.3241,7.4246,7.4246z" transform="translate(-929.50687,389.72702)"/>
<path id="use14678-3-9-8-6" style="fill-rule:evenodd;fill:url(#radialGradient69312);" d="m1032.4,429.05c0,4.1005-3.3241,7.4246-7.4246,7.4246s-7.4246-3.3241-7.4246-7.4246,3.3241-7.4246,7.4246-7.4246,7.4246,3.3241,7.4246,7.4246z" transform="translate(-923.71975,400.64587)"/>
<path id="use14680-9-1-4-2" style="fill-rule:evenodd;fill:url(#radialGradient69314);" d="m1032.4,429.05c0,4.1005-3.3241,7.4246-7.4246,7.4246s-7.4246-3.3241-7.4246-7.4246,3.3241-7.4246,7.4246-7.4246,7.4246,3.3241,7.4246,7.4246z" transform="translate(-929.84863,398.58986)"/>
<path id="use14682-3-6-6-6" style="fill-rule:evenodd;fill:url(#radialGradient69316);" d="m1032.4,429.05c0,4.1005-3.3241,7.4246-7.4246,7.4246s-7.4246-3.3241-7.4246-7.4246,3.3241-7.4246,7.4246-7.4246,7.4246,3.3241,7.4246,7.4246z" transform="translate(-924.80732,392.20643)"/>
<path id="use14684-1-7-8-1" style="fill-rule:evenodd;fill:url(#radialGradient69318);" d="m1032.4,429.05c0,4.1005-3.3241,7.4246-7.4246,7.4246s-7.4246-3.3241-7.4246-7.4246,3.3241-7.4246,7.4246-7.4246,7.4246,3.3241,7.4246,7.4246z" transform="translate(-932.36767,398.42745)"/>
<path id="use14686-3-6-68-0" style="fill-rule:evenodd;fill:url(#radialGradient69320);" d="m1032.4,429.05c0,4.1005-3.3241,7.4246-7.4246,7.4246s-7.4246-3.3241-7.4246-7.4246,3.3241-7.4246,7.4246-7.4246,7.4246,3.3241,7.4246,7.4246z" transform="translate(-930.92104,389.99689)"/>
<path id="use14688-96-37-7-76" style="fill-rule:evenodd;fill:url(#radialGradient69322);" d="m1032.4,429.05c0,4.1005-3.3241,7.4246-7.4246,7.4246s-7.4246-3.3241-7.4246-7.4246,3.3241-7.4246,7.4246-7.4246,7.4246,3.3241,7.4246,7.4246z" transform="translate(-932.42458,393.86355)"/>
<path id="use14690-37-1-5-5" style="fill-rule:evenodd;fill:url(#radialGradient69324);" d="m1032.4,429.05c0,4.1005-3.3241,7.4246-7.4246,7.4246s-7.4246-3.3241-7.4246-7.4246,3.3241-7.4246,7.4246-7.4246,7.4246,3.3241,7.4246,7.4246z" transform="translate(-950.28758,372.34259)"/>
<path id="use14692-52-2-87-1" style="fill-rule:evenodd;fill:url(#radialGradient69326);" d="m1032.4,429.05c0,4.1005-3.3241,7.4246-7.4246,7.4246s-7.4246-3.3241-7.4246-7.4246,3.3241-7.4246,7.4246-7.4246,7.4246,3.3241,7.4246,7.4246z" transform="translate(-940.08292,384.33014)"/>
<path id="use14694-0-7-57-7" style="fill-rule:evenodd;fill:url(#radialGradient69328);" d="m1032.4,429.05c0,4.1005-3.3241,7.4246-7.4246,7.4246s-7.4246-3.3241-7.4246-7.4246,3.3241-7.4246,7.4246-7.4246,7.4246,3.3241,7.4246,7.4246z" transform="translate(-934.10836,380.41259)"/>
<path id="use14696-71-9-17-24" style="fill-rule:evenodd;fill:url(#radialGradient69330);" d="m1032.4,429.05c0,4.1005-3.3241,7.4246-7.4246,7.4246s-7.4246-3.3241-7.4246-7.4246,3.3241-7.4246,7.4246-7.4246,7.4246,3.3241,7.4246,7.4246z" transform="translate(-953.01411,371.32663)"/>
<path id="use14698-7-4-3-3" style="fill-rule:evenodd;fill:url(#radialGradient69332);" d="m1032.4,429.05c0,4.1005-3.3241,7.4246-7.4246,7.4246s-7.4246-3.3241-7.4246-7.4246,3.3241-7.4246,7.4246-7.4246,7.4246,3.3241,7.4246,7.4246z" transform="translate(-950.11859,375.81837)"/>
<path id="use14700-0-7-7-3" style="fill-rule:evenodd;fill:url(#radialGradient69334);" d="m1032.4,429.05c0,4.1005-3.3241,7.4246-7.4246,7.4246s-7.4246-3.3241-7.4246-7.4246,3.3241-7.4246,7.4246-7.4246,7.4246,3.3241,7.4246,7.4246z" transform="translate(-936.49975,385.87185)"/>
<path id="use14702-6-1-0-3" style="fill-rule:evenodd;fill:url(#radialGradient69336);" d="m1032.4,429.05c0,4.1005-3.3241,7.4246-7.4246,7.4246s-7.4246-3.3241-7.4246-7.4246,3.3241-7.4246,7.4246-7.4246,7.4246,3.3241,7.4246,7.4246z" transform="translate(-951.54014,372.02536)"/>
<path id="use14704-7-8-9-2" style="fill-rule:evenodd;fill:url(#radialGradient69338);" d="m1032.4,429.05c0,4.1005-3.3241,7.4246-7.4246,7.4246s-7.4246-3.3241-7.4246-7.4246,3.3241-7.4246,7.4246-7.4246,7.4246,3.3241,7.4246,7.4246z" transform="translate(-938.1603,374.32821)"/>
<path id="use14706-1-2-6-9" style="fill-rule:evenodd;fill:url(#radialGradient69340);" d="m1032.4,429.05c0,4.1005-3.3241,7.4246-7.4246,7.4246s-7.4246-3.3241-7.4246-7.4246,3.3241-7.4246,7.4246-7.4246,7.4246,3.3241,7.4246,7.4246z" transform="translate(-950.13566,382.25246)"/>
<path id="use14688-96-5-4-9-2" style="fill-rule:evenodd;fill:url(#radialGradient69342);" d="m1032.4,429.05c0,4.1005-3.3241,7.4246-7.4246,7.4246s-7.4246-3.3241-7.4246-7.4246,3.3241-7.4246,7.4246-7.4246,7.4246,3.3241,7.4246,7.4246z" transform="translate(-920.99844,372.87015)"/>
<path id="use14688-96-50-8-22-0" style="fill-rule:evenodd;fill:url(#radialGradient69344);" d="m1032.4,429.05c0,4.1005-3.3241,7.4246-7.4246,7.4246s-7.4246-3.3241-7.4246-7.4246,3.3241-7.4246,7.4246-7.4246,7.4246,3.3241,7.4246,7.4246z" transform="translate(-920.74845,376.12015)"/>
<path id="use14688-96-9-8-0-6" style="fill-rule:evenodd;fill:url(#radialGradient69346);" d="m1032.4,429.05c0,4.1005-3.3241,7.4246-7.4246,7.4246s-7.4246-3.3241-7.4246-7.4246,3.3241-7.4246,7.4246-7.4246,7.4246,3.3241,7.4246,7.4246z" transform="translate(-916.24845,376.62015)"/>
<path id="use14688-96-97-1-1-8" style="fill-rule:evenodd;fill:url(#radialGradient69348);" d="m1032.4,429.05c0,4.1005-3.3241,7.4246-7.4246,7.4246s-7.4246-3.3241-7.4246-7.4246,3.3241-7.4246,7.4246-7.4246,7.4246,3.3241,7.4246,7.4246z" transform="translate(-917.74844,382.12015)"/>
<path id="use14688-96-3-6-61-3" style="fill-rule:evenodd;fill:url(#radialGradient69350);" d="m1032.4,429.05c0,4.1005-3.3241,7.4246-7.4246,7.4246s-7.4246-3.3241-7.4246-7.4246,3.3241-7.4246,7.4246-7.4246,7.4246,3.3241,7.4246,7.4246z" transform="translate(-920.49845,383.12015)"/>
<path id="use14688-96-0-2-5-7" style="fill-rule:evenodd;fill:url(#radialGradient69352);" d="m1032.4,429.05c0,4.1005-3.3241,7.4246-7.4246,7.4246s-7.4246-3.3241-7.4246-7.4246,3.3241-7.4246,7.4246-7.4246,7.4246,3.3241,7.4246,7.4246z" transform="translate(-923.24845,383.12015)"/>
<path id="use14688-96-91-0-5-9" style="fill-rule:evenodd;fill:url(#radialGradient69354);" d="m1032.4,429.05c0,4.1005-3.3241,7.4246-7.4246,7.4246s-7.4246-3.3241-7.4246-7.4246,3.3241-7.4246,7.4246-7.4246,7.4246,3.3241,7.4246,7.4246z" transform="translate(-927.24845,382.12015)"/>
<path id="use14688-96-910-4-9-5" style="fill-rule:evenodd;fill:url(#radialGradient69356);" d="m1032.4,429.05c0,4.1005-3.3241,7.4246-7.4246,7.4246s-7.4246-3.3241-7.4246-7.4246,3.3241-7.4246,7.4246-7.4246,7.4246,3.3241,7.4246,7.4246z" transform="translate(-926.99845,379.87015)"/>
<path id="use14688-96-7-8-6-5" style="fill-rule:evenodd;fill:url(#radialGradient69358);" d="m1032.4,429.05c0,4.1005-3.3241,7.4246-7.4246,7.4246s-7.4246-3.3241-7.4246-7.4246,3.3241-7.4246,7.4246-7.4246,7.4246,3.3241,7.4246,7.4246z" transform="translate(-918.24844,370.12015)"/>
<path id="use14014-79-9-5-4-0" style="fill-rule:evenodd;fill:url(#radialGradient69360);" d="m1032.4,429.05c0,4.1005-3.3241,7.4246-7.4246,7.4246s-7.4246-3.3241-7.4246-7.4246,3.3241-7.4246,7.4246-7.4246,7.4246,3.3241,7.4246,7.4246z" transform="matrix(0.6039942,0,0,0.6039942,-490.11178,568.52547)"/>
<path id="use14014-79-3-9-6-2" style="fill-rule:evenodd;fill:url(#radialGradient69362);" d="m1032.4,429.05c0,4.1005-3.3241,7.4246-7.4246,7.4246s-7.4246-3.3241-7.4246-7.4246,3.3241-7.4246,7.4246-7.4246,7.4246,3.3241,7.4246,7.4246z" transform="matrix(0.6039942,0,0,0.6039942,-487.61178,570.27546)"/>
<path id="use14014-79-4-4-7-7" style="fill-rule:evenodd;fill:url(#radialGradient69364);" d="m1032.4,429.05c0,4.1005-3.3241,7.4246-7.4246,7.4246s-7.4246-3.3241-7.4246-7.4246,3.3241-7.4246,7.4246-7.4246,7.4246,3.3241,7.4246,7.4246z" transform="matrix(0.6039942,0,0,0.6039942,-484.86178,574.27546)"/>
<path id="use14014-79-0-4-2-8" style="fill-rule:evenodd;fill:url(#radialGradient69366);" d="m1032.4,429.05c0,4.1005-3.3241,7.4246-7.4246,7.4246s-7.4246-3.3241-7.4246-7.4246,3.3241-7.4246,7.4246-7.4246,7.4246,3.3241,7.4246,7.4246z" transform="matrix(0.6039942,0,0,0.6039942,-487.86178,573.77546)"/>
<path id="path2995-9-1-5-1-1-1-18-2" d="m79.959,819.67,15.789-31,15.211,30.985c-15.254-4.9644-15.254-4.9644-31,0.015z" style="stroke:#000000;stroke-dasharray:none;stroke-miterlimit:4;stroke-width:1;fill:url(#linearGradient68702);"/>
<text id="text3192-3-2-5" style="font-size:16px;font-family:Arial;writing-mode:lr-tb;fill:#000000;letter-spacing:0px;text-anchor:middle;line-height:125%;word-spacing:0px;font-stretch:normal;font-variant:normal;font-weight:bold;font-style:normal;text-align:center;" xml:space="preserve" y="813.89423" x="95.494614"><tspan id="tspan3194-8-6-1" x="95.494614" y="813.89423">C</tspan></text>
</g>
</g>
</svg>
