<?xml version="1.0" encoding="UTF-8" standalone="no"?>
<!-- Created with Sodipodi ("http://www.sodipodi.com/") -->
<svg id="svg1" xmlns:rdf="http://www.w3.org/1999/02/22-rdf-syntax-ns#" xmlns="http://www.w3.org/2000/svg" viewBox="0 0 1000 500" version="1.1" xmlns:cc="http://creativecommons.org/ns#" xmlns:xlink="http://www.w3.org/1999/xlink" xmlns:dc="http://purl.org/dc/elements/1.1/">
<defs id="defs3"></defs>
<metadata id="metadata2830">
<rdf:RDF>
<cc:Work rdf:about="">
<dc:title/>
<dc:description/>
<dc:subject>
<rdf:Bag>
<rdf:li>oceania</rdf:li>
<rdf:li>flags</rdf:li>
<rdf:li>sign</rdf:li>
<rdf:li>signs_and_symbols</rdf:li>
<rdf:li/>
<rdf:li>australia</rdf:li>
</rdf:Bag>
</dc:subject>
<dc:publisher>
<cc:Agent rdf:about="http://www.openclipart.org">
<dc:title>Caleb Moore</dc:title>
</cc:Agent>
</dc:publisher>
<dc:creator>
<cc:Agent rdf:about="">
<dc:title>Caleb Moore</dc:title>
</cc:Agent>
</dc:creator>
<dc:rights>
<cc:Agent rdf:about="">
<dc:title>Caleb Moore</dc:title>
</cc:Agent>
</dc:rights>
<dc:date/>
<dc:format>image/svg+xml</dc:format>
<dc:type rdf:resource="http://purl.org/dc/dcmitype/StillImage"/>
<cc:license rdf:resource="http://web.resource.org/cc/PublicDomain">
<dc:date/>
</cc:license>
<dc:language>en</dc:language>
</cc:Work>
<cc:License rdf:about="http://web.resource.org/cc/PublicDomain">
<cc:permits rdf:resource="http://web.resource.org/cc/Reproduction"/>
<cc:permits rdf:resource="http://web.resource.org/cc/Distribution"/>
<cc:permits rdf:resource="http://web.resource.org/cc/DerivativeWorks"/>
</cc:License>
</rdf:RDF>
</metadata>
<rect id="rect124" style="stroke-width:1pt;fill:#00247d;" height="500" width="1000" y="0" x="0"/>
<g id="g584" style="font-size:12px;" transform="scale(8.333333,8.333333)">
<path id="path146" style="fill:#ffffff;" d="M0,0v3.3541l53.292,26.646h6.708v-3.354l-53.292-26.646h-6.7082zm60,0v3.354l-53.292,26.646h-6.7082v-3.354l53.292-26.646h6.708z"/>
<path id="path136" style="fill:#ffffff;" d="M25,0v30h10v-30h-10zm-25,10v10h60v-10h-60z"/>
<path id="path141" style="fill:#cf142b;" d="M0,12v6h60v-6h-60zm27-12v30h6v-30h-6z"/>
<path id="path150" style="fill:#cf142b;" d="M0,30l20-10h4.472l-20,10h-4.4721zm0-30l20,10h-4.472l-15.528-7.7639v-2.2361zm35.528,10l20-10h4.472l-20,10h-4.472zm24.472,20l-20-10h4.472l15.528,7.764v2.236z"/>
</g>
<g id="g2131" transform="matrix(1.461856,0,0,1.393699,16.13691,-118.1066)">
<path id="path2149" d="M433.93,176.85c0,88.99,6.77,120.58,29.99,144.98s32.02,28.24,38.49,31.98c7.47-4.31,16.08-9.05,37.12-31.12,20.82-21.84,30.88-53.31,30.88-147.36-15.14,6.8-22.68,9.04-35.92,9-9.8,1.01-24.93-5.59-33.98-9.9-5.91,3.95-14.48,8.66-29.9,9.19-17.8,0.78-23.44-2.24-36.68-6.77z" style="fill:#cccc33;"/>
<path id="path2197" d="M438.03,182.47c0,27.53-1.55,65.05,4,86.76,5.57,21.8,6.85,24.99,11.03,32.6l97.6-0.76c6.03-10.95,6.33-17.74,10.8-35.24,4.46-17.44,5.58-56.31,5.71-85.26-9.81,5.21-22.66,8.91-35.14,7.29-10-0.76-19.24-3.05-30-9.13-9.33,5.6-12.58,8.15-28,8.8-12,0.59-21.72,1.56-36-5.06z" style="fill:#ffffff;"/>
<path id="path3329" d="M453.27,301.23c6.95,14.62,39.7,42.63,49.28,48.43,10.92-6.62,39.81-34.3,47.86-48.43h-97.14z" style="fill:#99ccff;"/>
<g id="g3625" transform="matrix(2,0,0,2,-37.58607,49.22741)">
<path id="path3627" d="M271,87c1.54,3.629,6.49,7.637,7.85,9.601-1.73,1.964-2.08,1.75-1.85,5.399,3.01-3.149,3.06-3.478,5-3,4.24,4.23,0.76,13.32-2.75,15.3-3.5,2.1-2.86-0.08-8.12,2.57,2.41,2.05,5.2-0.31,7.48,0.33,1.24,1.46-0.59,4.14,0.38,6.67,2.01-0.2,1.77-4.27,2.24-5.74,1.47-5.4,10.32-9.17,10.77-14.13,1.87-0.88,3.73-0.27,6,1-1.13-4.64-4.87-4.59-5.87-6.044-2.39-3.645-4.5-7.803-9.59-8.881-3.87-0.819-3.58,0.246-6.06-1.444-1.54-1.202-6.23-3.474-5.48-1.631z" style="fill:#ff9900;"/>
<path id="path3629" style="fill-rule:evenodd;fill:#ffffff;" d="m267.04,122.1c0,0.44513-0.36084,0.80597-0.80597,0.80597-0.44512,0-0.80597-0.36084-0.80597-0.80597,0-0.44512,0.36085-0.80597,0.80597-0.80597,0.44513,0,0.80597,0.36085,0.80597,0.80597z" transform="translate(15.07813,-30.97657)"/>
</g>
<g id="g3631" transform="matrix(-0.934314,-1.768338,1.768338,-0.934314,579.0375,814.5258)">
<path id="path3633" d="M271,87c1.54,3.629,6.49,7.637,7.85,9.601-1.73,1.964-2.08,1.75-1.85,5.399,3.01-3.149,3.06-3.478,5-3,4.24,4.23,0.76,13.32-2.75,15.3-3.5,2.1-2.86-0.08-8.12,2.57,2.41,2.05,5.2-0.31,7.48,0.33,1.24,1.46-0.59,4.14,0.38,6.67,2.01-0.2,1.77-4.27,2.24-5.74,1.47-5.4,10.32-9.17,10.77-14.13,1.87-0.88,3.73-0.27,6,1-1.13-4.64-4.87-4.59-5.87-6.044-2.39-3.645-4.5-7.803-9.59-8.881-3.87-0.819-3.58,0.246-6.06-1.444-1.54-1.202-6.23-3.474-5.48-1.631z" style="fill:#ff9900;"/>
<path id="path3635" style="fill-rule:evenodd;fill:#ffffff;" d="m267.04,122.1c0,0.44513-0.36084,0.80597-0.80597,0.80597-0.44512,0-0.80597-0.36084-0.80597-0.80597,0-0.44512,0.36085-0.80597,0.80597-0.80597,0.44513,0,0.80597,0.36085,0.80597,0.80597z" transform="translate(15.07813,-30.97657)"/>
</g>
<g id="g3637" transform="matrix(-1.030072,1.714332,-1.714332,-1.030072,948.4105,-116.6442)">
<path id="path3639" d="M271,87c1.54,3.629,6.49,7.637,7.85,9.601-1.73,1.964-2.08,1.75-1.85,5.399,3.01-3.149,3.06-3.478,5-3,4.24,4.23,0.76,13.32-2.75,15.3-3.5,2.1-2.86-0.08-8.12,2.57,2.41,2.05,5.2-0.31,7.48,0.33,1.24,1.46-0.59,4.14,0.38,6.67,2.01-0.2,1.77-4.27,2.24-5.74,1.47-5.4,10.32-9.17,10.77-14.13,1.87-0.88,3.73-0.27,6,1-1.13-4.64-4.87-4.59-5.87-6.044-2.39-3.645-4.5-7.803-9.59-8.881-3.87-0.819-3.58,0.246-6.06-1.444-1.54-1.202-6.23-3.474-5.48-1.631z" style="fill:#ff9900;"/>
<path id="path3641" style="fill-rule:evenodd;fill:#ffffff;" d="m267.04,122.1c0,0.44513-0.36084,0.80597-0.80597,0.80597-0.44512,0-0.80597-0.36084-0.80597-0.80597,0-0.44512,0.36085-0.80597,0.80597-0.80597,0.44513,0,0.80597,0.36085,0.80597,0.80597z" transform="translate(15.07813,-30.97657)"/>
</g>
</g>
</svg>
