<?xml version="1.0" encoding="UTF-8" standalone="no"?>
<!-- Created with Inkscape (http://www.inkscape.org/) -->
<svg id="svg2" xmlns:rdf="http://www.w3.org/1999/02/22-rdf-syntax-ns#" style="fill-rule:evenodd;" xmlns="http://www.w3.org/2000/svg" xml:space="preserve" height="500" width="700" version="1.1" xmlns:cc="http://creativecommons.org/ns#" xmlns:xlink="http://www.w3.org/1999/xlink" viewBox="0 0 7.7777778 5.5555556" xmlns:dc="http://purl.org/dc/elements/1.1/"><metadata id="metadata19"><rdf:RDF><cc:Work rdf:about=""><dc:format>image/svg+xml</dc:format><dc:type rdf:resource="http://purl.org/dc/dcmitype/StillImage"/><dc:title/></cc:Work></rdf:RDF></metadata>
 <defs id="defs4"><style id="style6" type="text/css"/></defs>
 <polygon id="_148171424" style="fill-rule:nonzero;fill:#e41e20;" points="2.7965,2.0045,2.7965,0.0050512,-0.0020669,0.0050512,-0.0020669,2.0045" transform="matrix(2.7791605,0,0,2.7785574,0.00574433,-0.01403499)"/><path id="path9" style="fill-rule:evenodd;fill:#000000;" d="m3.3344,1.08c-0.05402-0.0009106-0.14368,0.017222-0.14167,0.05868-0.15047-0.025788-0.16613,0.036363-0.15729,0.091667,0.014316-0.021948,0.031747-0.033864,0.045139-0.036111,0.020064-0.00333,0.04106,0.00315,0.0625,0.016319,0.021441,0.01317,0.045062,0.034422,0.055556,0.047569-0.053105,0.012696-0.09413,0.0045-0.13576-0.00278-0.020524-0.00359-0.049245-0.015136-0.066319-0.027083-0.017074-0.011949-0.02245-0.023195-0.049306-0.050694-0.031663-0.032422-0.065362-0.023293-0.054861,0.027083,0.024284,0.046788,0.064851,0.067651,0.11597,0.076042,0.0246,0.00404,0.061244,0.012807,0.10278,0.012847,0.041534,0.0000444,0.088169-0.006,0.11354-0.0006944-0.015243,0.00957-0.032492,0.026069-0.066667,0.032639-0.034753,0.00668-0.087589-0.020666-0.11979-0.028125,0.00409,0.027095,0.038267,0.052424,0.10556,0.065625,0.11057,0.024077,0.20245,0.042375,0.26319,0.075347,0.060741,0.032972,0.099038,0.074252,0.12639,0.1066,0.054429,0.064368,0.057292,0.11378,0.060764,0.12465,0.011198,0.10284-0.024662,0.16069-0.091319,0.17847-0.033329,0.00889-0.092532-0.00785-0.11424-0.033333-0.021705-0.025477-0.042823-0.069269-0.036806-0.13785,0.00585-0.026903,0.036614-0.096979,0.010417-0.11146-0.1207-0.0665-0.2673-0.134-0.3733-0.1741-0.029-0.011-0.0529,0.0284-0.0622,0.0437-0.1801-0.0219-0.3425-0.1438-0.4156-0.2736-0.049789-0.088395-0.13185,0.0001824-0.11806,0.08368,0.02227,0.093196,0.093278,0.16058,0.17847,0.20833,0.087439,0.048146,0.19673,0.095522,0.30729,0.093056,0.059563,0.011268,0.058975,0.088327-0.0125,0.10278-0.13979,0.0008845-0.25131-0.0026-0.3566-0.10417-0.079864-0.07292-0.12482,0.013966-0.10174,0.063194,0.039126,0.15176,0.25563,0.19426,0.47465,0.14514,0.084816-0.014046,0.034028,0.076838,0.010069,0.077778-0.0915,0.0656-0.2554,0.1298-0.3996-0.0007-0.0661-0.0506-0.1107-0.0081-0.0862,0.0649,0.0641,0.1903,0.309,0.1504,0.4771,0.0566,0.0433-0.0241,0.0826,0.032,0.0299,0.0747-0.2091,0.1461-0.3137,0.1478-0.408,0.0916-0.1181-0.0465-0.1285,0.0844-0.0583,0.1275,0.0779,0.0478,0.2763,0.0119,0.4218-0.0795,0.0624-0.0464,0.0653,0.0261,0.0257,0.0548-0.1727,0.1493-0.2407,0.1886-0.4208,0.1643-0.089279-0.00696-0.087938,0.10311-0.017708,0.14618,0.095887,0.058805,0.28314-0.038805,0.42847-0.15938,0.061169-0.032685,0.071215,0.020919,0.040972,0.084375-0.088801,0.11204-0.17215,0.17809-0.25243,0.20868-0.080284,0.030591-0.15751,0.025717-0.21215,0.00694-0.066669-0.022905-0.075029,0.046381-0.038194,0.10938,0.022204,0.037972,0.11422,0.050148,0.21354,0.014931,0.099323-0.035212,0.20595-0.11781,0.27917-0.21458,0.063699-0.055766,0.055777,0.019152,0.026736,0.071875-0.1466,0.23176-0.28069,0.31774-0.45729,0.30312-0.078306-0.013297-0.09609,0.047596-0.04618,0.10382,0.087638,0.072679,0.19721,0.0704,0.29306-0.00139,0.085202-0.082147,0.2482-0.25904,0.33368-0.35382,0.060237-0.048021,0.07948-0.00068,0.061806,0.096875-0.016074,0.055867-0.056314,0.1147-0.16597,0.15764-0.074914,0.042756-0.018656,0.10168,0.0375,0.10278,0.030904,0.0006027,0.093658-0.035524,0.14167-0.089583,0.063158-0.071117,0.066914-0.11886,0.10174-0.22951,0.032899-0.053938,0.091661-0.028762,0.091667,0.027778-0.028183,0.11084-0.052398,0.13071-0.10938,0.17604-0.054498,0.051166,0.037947,0.068218,0.069097,0.047222,0.090116-0.060742,0.12301-0.13931,0.15312-0.21076,0.021734-0.051574,0.084782-0.026572,0.055556,0.057639-0.069845,0.20125-0.18461,0.2805-0.38542,0.32118-0.020351,0.00362-0.032764,0.015629-0.025694,0.039236,0.026951,0.027979,0.053951,0.053367,0.080903,0.08125-0.1243,0.0363-0.2252,0.0566-0.3494,0.0929-0.061-0.04-0.1103-0.0739-0.1712-0.1139-0.0161-0.0376-0.0236-0.095-0.1136-0.0545-0.060965-0.028157-0.089087-0.017832-0.12292,0.010417,0.048838,0.00182,0.070087,0.014899,0.089236,0.037153,0.025001,0.065846,0.082653,0.072207,0.14167,0.053472,0.038392,0.032342,0.058838,0.05715,0.097222,0.089583-0.071658-0.00245-0.12158-0.00372-0.19306-0.0059-0.06823-0.07326-0.12269-0.069247-0.17153-0.011805-0.037223,0.00572-0.053002,0.00652-0.078472,0.051736,0.040057-0.01644,0.065258-0.021368,0.082639-0.00347,0.072541,0.042055,0.11993,0.032668,0.1559,0,0.069986,0.00428,0.13305,0.0079,0.20312,0.0125-0.02574,0.021879-0.061065,0.033485-0.086806,0.055556-0.10511-0.030072-0.15998,0.010407-0.17847,0.096181-0.014087,0.034619-0.020683,0.070261-0.014583,0.10729,0.010174-0.033871,0.026532-0.062993,0.056597-0.08125,0.093689,0.023798,0.12892-0.01445,0.13403-0.070486,0.045161-0.036848,0.11326-0.044974,0.15833-0.082292,0.0527,0.016871,0.078175,0.027321,0.13125,0.044097,0.01887,0.057342,0.06157,0.080047,0.1309,0.065278,0.082533,0.00259,0.067963,0.036455,0.074653,0.063542,0.021934-0.038901,0.021323-0.076732-0.029514-0.11111-0.018496-0.050249-0.059475-0.073102-0.11319-0.044097-0.050566-0.014356-0.06386-0.03499-0.11424-0.049306,0.12742-0.040614,0.21781-0.049753,0.34514-0.090278,0.031872,0.030065,0.057132,0.051649,0.089236,0.078472,0.01692,0.010099,0.033117,0.012643,0.043056,0,0.079787-0.11548,0.11542-0.21725,0.18958-0.2934,0.028333-0.031506,0.064129-0.074015,0.10382-0.084375,0.019845-0.00518,0.044182-0.00202,0.059722,0.014931,0.01554,0.016949,0.027747,0.048187,0.02257,0.094792-0.00743,0.066898-0.023593,0.08802-0.042361,0.12812-0.018768,0.040106-0.041704,0.064775-0.065278,0.095486-0.047149,0.061421-0.10936,0.097171-0.14618,0.12118-0.073641,0.04802-0.10479,0.027003-0.16181,0.023958-0.073697,0.00827-0.093306,0.044163-0.032986,0.09375,0.056388,0.029339,0.10707,0.032961,0.14826,0.025347,0.035368-0.00654,0.076759-0.05219,0.10625-0.076736,0.033196-0.03835,0.088233,0.00713,0.050694,0.051736-0.068215,0.081053-0.13638,0.13449-0.22049,0.13333-0.088385,0.011895-0.071852,0.061556-0.013194,0.085764,0.10557,0.043569,0.20088-0.038039,0.24931-0.091667,0.037358-0.040871,0.063892-0.042465,0.057292,0.020833-0.037087,0.1146-0.087768,0.15886-0.17049,0.16458-0.067095-0.00623-0.06782,0.045562-0.01875,0.080556,0.11178,0.077369,0.19273-0.054386,0.23056-0.13403,0.026952-0.071841,0.068291-0.037677,0.07257,0.021528,0.0005576,0.079104-0.035186,0.14369-0.1309,0.22465,0.0735,0.1168,0.1589,0.2355,0.2322,0.3525,0.0733-0.117,0.1587-0.2357,0.2319-0.3524-0.0957-0.081-0.1314-0.1455-0.1309-0.2246,0.00428-0.059205,0.045617-0.093369,0.072569-0.021528,0.037823,0.079642,0.11877,0.2114,0.23056,0.13403,0.04907-0.034993,0.048345-0.086786-0.01875-0.080556-0.082718-0.00572-0.1334-0.049988-0.17049-0.16458-0.0066-0.063298,0.019934-0.061704,0.057292-0.020833,0.048421,0.053628,0.14374,0.13524,0.24931,0.091667,0.058658-0.024208,0.075191-0.073869-0.013194-0.085764-0.08411,0.00116-0.15227-0.05228-0.22049-0.13333-0.037539-0.044606,0.017498-0.090086,0.050694-0.051736,0.029491,0.024546,0.070882,0.070196,0.10625,0.076736,0.041192,0.00761,0.091876,0.00399,0.14826-0.025347,0.06032-0.049587,0.040711-0.08548-0.032986-0.09375-0.05702,0.00305-0.088165,0.024062-0.16181-0.023958-0.036821-0.02401-0.099032-0.05976-0.14618-0.12118-0.023574-0.030711-0.04651-0.05538-0.065278-0.095486-0.018768-0.040105-0.034931-0.061227-0.042361-0.12812-0.00518-0.046605,0.00703-0.077843,0.02257-0.094792,0.01554-0.016951,0.039877-0.020111,0.059722-0.014931,0.03969,0.01036,0.075486,0.052869,0.10382,0.084375,0.074162,0.076149,0.1098,0.17792,0.18958,0.2934,0.00994,0.012643,0.026136,0.010099,0.043056,0,0.032104-0.026823,0.057364-0.048407,0.089236-0.078472,0.12733,0.040525,0.21772,0.049664,0.34514,0.090278-0.050376,0.014316-0.06367,0.03495-0.11424,0.049306-0.053719-0.029005-0.094698-0.00615-0.11319,0.044097-0.050837,0.03438-0.051448,0.07221-0.029514,0.11111,0.00669-0.027087-0.00788-0.060952,0.074653-0.063542,0.069333,0.014769,0.11203-0.00794,0.1309-0.065278,0.053075-0.016776,0.07855-0.027226,0.13125-0.044097,0.045072,0.037318,0.11317,0.045444,0.15833,0.082292,0.00511,0.056036,0.040339,0.094284,0.13403,0.070486,0.030065,0.018257,0.046423,0.047379,0.056597,0.08125,0.0061-0.037031-0.0004964-0.072673-0.014583-0.10729-0.018497-0.085774-0.073359-0.12625-0.17847-0.096181-0.025741-0.022071-0.061065-0.033677-0.086806-0.055556,0.070074-0.0046,0.13314-0.00822,0.20312-0.0125,0.035972,0.032668,0.083362,0.042055,0.1559,0,0.017381-0.017896,0.042582-0.012968,0.082639,0.00347-0.0254-0.0454-0.0412-0.0462-0.0784-0.0519-0.0488-0.0574-0.1033-0.0615-0.1715,0.0118-0.0715,0.0022-0.1214,0.0034-0.1931,0.0059,0.0384-0.0324,0.0589-0.0572,0.0972-0.0896,0.0591,0.0187,0.1167,0.0124,0.1417-0.0535,0.0192-0.0222,0.0404-0.0353,0.0893-0.0371-0.0339-0.0283-0.062-0.0386-0.123-0.0104-0.0899-0.0405-0.0974,0.0169-0.1135,0.0545-0.061,0.04-0.1102,0.0739-0.1712,0.1139-0.1242-0.0363-0.2251-0.0566-0.3493-0.0927,0.026952-0.027883,0.053952-0.053271,0.080903-0.08125,0.00707-0.023607-0.00534-0.035616-0.025695-0.039236-0.2008-0.0408-0.3156-0.12-0.3854-0.3213-0.0292-0.0842,0.0338-0.1092,0.0556-0.0576,0.03011,0.07145,0.063009,0.15002,0.15312,0.21076,0.03115,0.020996,0.1236,0.00394,0.069097-0.047222-0.057-0.0454-0.0812-0.0653-0.1094-0.1761,0.000006-0.05654,0.058768-0.081716,0.091667-0.027778,0.034822,0.11065,0.038578,0.1584,0.10174,0.22951,0.048009,0.054059,0.11076,0.090186,0.14167,0.089583,0.056156-0.0011,0.11241-0.060022,0.0375-0.10278-0.1097-0.0429-0.1499-0.1018-0.166-0.1576-0.0177-0.0976,0.0016-0.1449,0.0618-0.0969,0.085481,0.094782,0.24848,0.27167,0.33368,0.35382,0.095841,0.071789,0.20542,0.074068,0.29306,0.00139,0.04991-0.056223,0.032125-0.11712-0.046181-0.10382-0.1766,0.014612-0.31069-0.071362-0.45729-0.30312-0.029041-0.052723-0.036963-0.12764,0.026736-0.071875,0.073213,0.096777,0.17984,0.17937,0.27917,0.21458,0.099323,0.035217,0.19134,0.023041,0.21354-0.014931,0.036835-0.062994,0.028474-0.13228-0.038195-0.10938-0.054647,0.018772-0.13187,0.023646-0.21215-0.00694-0.0803-0.0307-0.1637-0.0967-0.2525-0.2088-0.0302-0.0634-0.0202-0.117,0.041-0.0843,0.14533,0.12057,0.33259,0.21818,0.42847,0.15938,0.07023-0.04307,0.071571-0.15314-0.017708-0.14618-0.18004,0.024331-0.24812-0.014977-0.42083-0.16424-0.039522-0.028716-0.036698-0.10125,0.025695-0.054861,0.14554,0.091481,0.34392,0.12734,0.42187,0.079514,0.070137-0.043026,0.05975-0.174-0.058333-0.12743-0.094321,0.05611-0.19887,0.054448-0.40799-0.091667-0.0527-0.042648-0.01342-0.09878,0.029861-0.074653,0.16815,0.093738,0.41306,0.13371,0.47708-0.056597,0.024557-0.072991-0.020084-0.11549-0.086111-0.064931-0.14429,0.13052-0.30813,0.066312-0.39965,0.0006945-0.023959-0.00094-0.074747-0.091824,0.010069-0.077778,0.21903,0.049117,0.43553,0.00662,0.47465-0.14514,0.023088-0.049227-0.021872-0.13611-0.10174-0.063194-0.10529,0.10157-0.21681,0.10505-0.3566,0.10417-0.071475-0.014451-0.072063-0.09151-0.0125-0.10278,0.11056,0.00247,0.21985-0.04491,0.30729-0.093056,0.085194-0.047756,0.1562-0.11514,0.17847-0.20833,0.013794-0.083498-0.068267-0.17208-0.11806-0.083681-0.073103,0.12979-0.2355,0.25168-0.41562,0.27361-0.0093-0.015335-0.033174-0.054722-0.062153-0.04375-0.10603,0.040143-0.25258,0.1076-0.37326,0.17431-0.026197,0.014479,0.00457,0.084555,0.010417,0.11146,0.00602,0.068578-0.0151,0.11237-0.036805,0.13785-0.0219,0.0255-0.0811,0.0422-0.1144,0.0333-0.0667-0.0178-0.1025-0.0756-0.0913-0.1785,0.00347-0.010872,0.00633-0.060285,0.060764-0.12465,0.027351-0.032345,0.065648-0.073625,0.12639-0.1066,0.060741-0.032972,0.15262-0.05127,0.26319-0.075347,0.067289-0.013201,0.10147-0.03853,0.10556-0.065625-0.032203,0.00746-0.085039,0.034805-0.11979,0.028125-0.034175-0.00657-0.051424-0.023069-0.066667-0.032639,0.025373-0.00531,0.072008,0.0007388,0.11354,0.0006944,0.041534-0.00004,0.078178-0.00881,0.10278-0.012847,0.051121-0.00839,0.091688-0.029254,0.11597-0.076042,0.010501-0.050376-0.023198-0.059505-0.054861-0.027083-0.026856,0.027499-0.032232,0.038745-0.049306,0.050694-0.017074,0.011947-0.045795,0.023493-0.066319,0.027083-0.041634,0.00728-0.082659,0.015474-0.13576,0.00278,0.010493-0.013147,0.034115-0.034399,0.055556-0.047569,0.02144-0.01317,0.042436-0.019649,0.0625-0.016319,0.013392,0.00225,0.030823,0.014163,0.045139,0.036111,0.00884-0.055304-0.00683-0.11745-0.15729-0.091667,0.00201-0.041459-0.087647-0.059591-0.14167-0.05868-0.030593,0.000515-0.093354,0.018454-0.13854,0.039583-0.071474,0.021657-0.14251,0.037503-0.22569,0.043403,0.048038,0.040348,0.057475,0.042655,0.1059,0.077083-0.07333,0.026672-0.13013,0.081963-0.15556,0.11806,0.064051,0.00307,0.085201-0.00232,0.10694,0.00694-0.089221,0.025841-0.12961,0.040981-0.17674,0.088194,0.016684,0.00304,0.041487,0.00749,0.052083,0.011458,0.010955,0.00411,0.00642,0.00974-0.00104,0.017708-0.020453,0.0128-0.09873,0.10502-0.12188,0.12639-0.023145-0.021368-0.10142-0.11359-0.12188-0.12639-0.00746-0.00797-0.011997-0.013601-0.00104-0.017708,0.010596-0.00397,0.035399-0.00842,0.052083-0.011458-0.04713-0.04721-0.087518-0.062351-0.17674-0.088192,0.021743-0.00926,0.042893-0.00387,0.10694-0.00694-0.0255-0.0363-0.0823-0.0916-0.1556-0.1183,0.0484-0.0344,0.0579-0.0367,0.1059-0.0771-0.0832-0.0059-0.1542-0.0217-0.2257-0.0434-0.0452-0.0211-0.1079-0.039-0.1385-0.0396zm0.00799,0.096875c0.043958,0,0.071181,0.015068,0.071181,0.033333,0,0.018582-0.027223,0.033681-0.071181,0.033681-0.043775,0-0.071528-0.016477-0.071528-0.035069,0.0000079-0.018265,0.027753-0.031945,0.071528-0.031945zm1.0931,0c0.043775,0,0.07152,0.01368,0.071528,0.031945,0,0.018592-0.027753,0.035069-0.071528,0.035069-0.043958,0-0.07118-0.015099-0.07118-0.033681,0-0.018265,0.027222-0.033333,0.07118-0.033333z"/>
</svg>
