<?xml version="1.0" encoding="UTF-8" standalone="no"?>
<svg id="svg2" xmlns:rdf="http://www.w3.org/1999/02/22-rdf-syntax-ns#" xmlns="http://www.w3.org/2000/svg" viewBox="0 0 450 300" version="1.1" xmlns:cc="http://creativecommons.org/ns#" xmlns:xlink="http://www.w3.org/1999/xlink" xmlns:dc="http://purl.org/dc/elements/1.1/">
<metadata id="metadata30">
<rdf:RDF>
<cc:Work rdf:about="">
<dc:format>image/svg+xml</dc:format>
<dc:type rdf:resource="http://purl.org/dc/dcmitype/StillImage"/>
<dc:title/>
</cc:Work>
</rdf:RDF>
</metadata>
<rect id="rect4" width="450" style="fill:#ce1126;" height="300"/>
<rect id="rect6" y="150" width="450" style="fill:#000;" height="150"/>
<path id="path8" style="fill:#f9d616;" d="M199.32,114.66h19.62l6.06-18.66,6.06,18.66h19.62l-15.87,11.52,6.06,18.66-15.87-11.53-15.87,11.53,6.06-18.66-15.87-11.52z"/>
<path id="path10" style="fill:#f9d616;" d="M302.62,142.35c0.51,5.09,0.51,10.21,0,15.3l-14.92-1.47c0.4-4.11,0.4-8.25,0-12.35l14.92-1.48m-2.98,30.29c-1.48,4.89-3.44,9.62-5.85,14.13l-13.23-7.07c1.95-3.64,3.53-7.46,4.73-11.41l14.35,4.35m-14.35,26.84c-3.24,3.95-6.86,7.57-10.81,10.82l-9.51-11.6c3.19-2.62,6.11-5.54,8.73-8.73l11.59,9.51m-23.52,19.31c-4.51,2.41-9.24,4.37-14.13,5.85l-4.35-14.35c3.95-1.2,7.77-2.78,11.41-4.73l7.07,13.23m-29.12,8.83c-5.09,0.51-10.21,0.51-15.3,0l1.47-14.92c4.11,0.4,8.25,0.4,12.36,0l1.47,14.92m-30.29-2.98c-4.89-1.48-9.62-3.44-14.13-5.85l7.07-13.23c3.64,1.95,7.46,3.53,11.41,4.73l-4.35,14.35m45.28-149.28c4.89,1.483,9.62,3.443,14.13,5.851l-7.07,13.229c-3.64-1.945-7.46-3.528-11.41-4.726l4.35-14.354m26.84,14.346c3.95,3.242,7.57,6.863,10.81,10.815l-11.59,9.51c-2.62-3.19-5.54-6.11-8.73-8.73l9.51-11.595m19.31,23.525c2.41,4.51,4.37,9.24,5.85,14.13l-14.35,4.35c-1.2-3.95-2.78-7.77-4.73-11.41l13.23-7.07z"/>
<path id="path12" style="fill:#f9d616;" d="M280.59,224.87l7.29-8.56c3.84,3.72,9.01,7.38,12.75,10.71,3.75,3.32,6.62,6.09,8.95,9.87,3.41,5.54-0.42,11.81-5.73,8.13-2.86-1.99-4.67-7.37-9.06-11.82-3.26-2.77-5.82-5.67-14-7.07-0.4-0.07-0.51-0.9-0.2-1.26z"/>
<path id="path13009" style="fill:#000;" d="M291.41,222.3c0,0.36-0.2,0.69-0.51,0.87s-0.69,0.18-1,0c-0.32-0.18-0.51-0.51-0.51-0.87s0.19-0.7,0.51-0.88c0.31-0.18,0.69-0.18,1,0s0.51,0.52,0.51,0.88z"/>
<path id="path15" style="fill:#f9d616;" d="M232.5,78.781l-1.42,13.35c29.39,3.083,52.42,27.689,52.42,57.899,0,32.29-26.21,58.5-58.5,58.5-14.08,0-26.8-5.2-36.9-13.5l-8.55,10.43c12.43,10.2,28.13,16.57,45.45,16.57,39.74,0,72-32.25,72-72,0-37.17-28.33-67.44-64.5-71.249z"/>
<path id="path17" style="fill:#000;" d="M231.36,197.85l20.25,11.97,4.4,17.08,23.24-1.77,10.21-11.97-37.85-26.23-20.25,10.92z"/>
<path id="path19" style="fill:#f9d616;" d="M279.66,223.69c-26.03-17.31-42.59-26.66-67.54-40.85-9.8-5.57-25.02-19.58-13.01-43.02,0.75,15.39,61.56,57.62,87.26,75.99l-6.71,7.88z"/>
<path id="path11763" style="stroke-linejoin:miter;stroke:#000;stroke-linecap:round;stroke-miterlimit:4;stroke-width:1.5;fill:none;" d="M216.09,167.52c20.04,18.89,45.29,34.3,67.81,51.33"/>
<use id="use22" xlink:href="#path13009" transform="translate(7.41957,6.4655991)"/>
<use id="use24" xlink:href="#path13009" transform="translate(13.93812,13.090317)"/>
</svg>
