<?xml version="1.0" encoding="UTF-8" standalone="no"?>
<!-- Created with Inkscape (http://www.inkscape.org/) -->
<svg id="svg2" xmlns:rdf="http://www.w3.org/1999/02/22-rdf-syntax-ns#" style="fill-rule:evenodd;" xmlns="http://www.w3.org/2000/svg" xml:space="preserve" viewBox="0 0 1440 720" version="1.0" xmlns:cc="http://creativecommons.org/ns#" xmlns:xlink="http://www.w3.org/1999/xlink" xmlns:dc="http://purl.org/dc/elements/1.1/"><metadata id="metadata92"><rdf:RDF><cc:Work rdf:about=""><dc:format>image/svg+xml</dc:format><dc:type rdf:resource="http://purl.org/dc/dcmitype/StillImage"/><dc:title/></cc:Work></rdf:RDF></metadata><defs id="defs4">
  <style id="style6" type="text/css"/>
   </defs><rect id="rect2533" style="fill-rule:nonzero;fill:#f7e017;" height="720" width="1440" y="0" x="0"/><polygon id="path2535" style="fill:#ffffff;" points="3600,875,3600,1300,0,550,0,125,0,125" transform="scale(0.4,0.4)"/><polygon id="path3422" style="fill:#000000;" points="3600,1300,3600,1675,0,925,0,550,0,550" transform="scale(0.4,0.4)"/><path id="path3152" style="fill-rule:evenodd;fill:#cf1126;" d="M695.74,569.72c-19.36-2.57-37.11-8.73-49.44-17.17-2.39-1.64-4.64-2.98-4.99-2.98-0.36,0-0.65,1.82-0.65,4.07,0,6.37-2.56,9.58-9,11.25-6.16,1.6-15.56-1.63-23.18-7.95-7.89-6.55-17-11.55-24.71-13.55-6.35-1.66-14.78-1.39-20.87,0.65-2.83,0.95-6.05,2.29-7.17,2.98-1.11,0.69-2.36,1.25-2.76,1.25-1.08,0-0.93-6.85,0.2-9.04,1.49-2.87,5.16-5.7,9.44-7.26,2.16-0.79,3.93-1.8,3.93-2.25s-0.73-2.1-1.62-3.65c-2.9-5.08-1.71-10,3.35-13.87,5.18-3.96,13.95-4.64,21.7-1.69,1.95,0.74,3.77,1.35,4.04,1.35,1.02,0,0.4-1.43-2.41-5.52-3.24-4.74-3.88-7.08-3.48-12.72,0.52-7.14,6.34-12.98,13.47-13.5,5.82-0.42,9.44,1.54,18.03,9.72,25.65,24.46,53.54,37.94,86.07,41.59,8.21,0.92,24.73,0.43,34.42-1.03,29.27-4.41,58.76-19.13,81.79-40.82,6.38-6.01,9.45-7.6,14.68-7.62,4.55-0.02,7.74,1.45,11,5.05,2.97,3.3,3.98,6.43,3.66,11.44-0.21,3.21-0.73,4.79-2.64,7.9-2.82,4.59-2.34,5.01,3.24,2.85,7.54-2.94,16.83-1.58,21.84,3.18,4.41,4.19,4.83,8.38,1.4,14.06-1.25,2.08-2.27,4.03-2.27,4.34,0,0.57,0.95,0.84,5.53,1.58,5.99,0.96,9.42,5.41,9.42,12.21,0,2.04-0.25,3.7-0.56,3.7-0.3,0-2.57-0.83-5.04-1.85-6.98-2.88-10.95-3.62-19.11-3.57-6.21,0.04-8.35,0.33-12.68,1.74-6.63,2.17-13.72,6.35-19.5,11.5-6.37,5.68-10.38,7.47-16.58,7.42-5.76-0.06-9.7-1.73-11.78-5.02-1.11-1.76-1.27-2.83-1-6.81,0.18-2.59,0.14-4.71-0.07-4.71-0.22,0-2.46,1.42-4.99,3.17-6.64,4.56-10.87,6.82-18.47,9.83-23.18,9.17-56.63,13.14-82.24,9.75z"/><path id="path3138" style="fill-rule:evenodd;fill:#ffcc00;" d="M802.72,539.75c4.13-2.11,9.53-7.61,11.75-11.96,1.76-3.47,2.01-4.66,2.22-10.73,0.19-5.59,0.03-7.24-0.92-9.11-1.06-2.08-1.4-2.27-4.06-2.27-2.57,0-3.07,0.25-4.39,2.21-1.9,2.82-2.1,8.92-0.35,11.08,1.09,1.35,1.25,1.36,3.56,0.4,3.21-1.35,3.76-1.28,3.75,0.45-0.02,4.42-6.35,12.92-12.99,17.45-1.78,1.22-3.39,2.59-3.56,3.03-0.48,1.26,1.97,0.99,4.99-0.55z"/><path id="path3150" style="fill-rule:evenodd;fill:#ffd42a;" d="M711.05,563.82c3.99-1.32,6.26-3.74,7.89-8.4,0.81-2.32,1.36-4.73,1.22-5.36-0.34-1.49-2.06-1.41-3.96,0.17-1.3,1.09-1.46,1.64-1.09,3.86,0.95,5.6-1.04,6.99-11.64,8.13-1.05,0.11-4.09-0.07-6.77-0.4-5.04-0.63-6.84-0.13-5.01,1.39,0.55,0.46,1.95,1.08,3.11,1.37,2.83,0.73,13.22,0.24,16.25-0.76z"/><path id="path3148" style="fill-rule:evenodd;fill:#ffd42a;" d="M733.02,562.89c0.6-0.55,2.66-1.5,4.58-2.12,2.56-0.82,3.88-1.7,4.96-3.31,3.11-4.63,2.53-8.62-2.04-14-2.48-2.92-3.58-2.84-5.56,0.4-1.71,2.8-1.67,2.98,0.79,3.62,1.29,0.33,2.53,1.28,3.21,2.45,2.68,4.64,1.89,7.51-2.08,7.54-3.6,0.03-4.59,0.54-5.56,2.87-0.51,1.21-0.92,2.5-0.92,2.87,0,0.98,1.36,0.81,2.62-0.32z"/><path id="path3146" style="fill-rule:evenodd;fill:#ffd42a;" d="M725.81,557.65c0.68-1.84,0.92-5.15,0.84-11.9-0.05-5.14-0.25-9.5-0.45-9.7-0.6-0.6-3.56,1.31-3.95,2.54-0.2,0.64,0.13,2.12,0.73,3.28,0.92,1.79,1.04,3.46,0.76,10.47-0.36,8.86,0.22,10.35,2.07,5.31z"/><path id="path3144" style="fill-rule:evenodd;fill:#ffd42a;" d="M708.89,553.43c0.36-1.65,0.82-5.03,1.03-7.5s0.72-5.59,1.12-6.94c1.02-3.46-0.01-4.37-2.74-2.43l-2.03,1.45,0.42,4.97c0.39,4.48-0.32,12.83-1.35,16.07-0.28,0.86,0.12,0.64,1.25-0.68,0.91-1.06,1.95-3.29,2.3-4.94z"/><path id="path3142" style="fill-rule:evenodd;fill:#ffd42a;" d="M693.88,555.84c2.39-2.18,2.87-3.54,3.78-10.5,0.46-3.57,1.03-7.45,1.26-8.61,0.51-2.6-0.51-2.78-3.28-0.57-1.81,1.45-1.88,1.68-1.2,3.89,0.9,2.94,0.1,10.21-1.38,12.47-1.13,1.71-3.43,2.1-5.6,0.94-0.95-0.51-1.15-1.11-0.85-2.59,0.55-2.77-1.04-3.1-5.43-1.11-4.1,1.86-5.69,1.69-5.13-0.53,0.22-0.89-0.01-1.78-0.61-2.27-0.9-0.75-1.78-0.73-7.79,0.15-1,0.14-1.3-0.18-1.3-1.44,0-0.89-0.2-1.94-0.45-2.31-0.25-0.4-3.15-0.74-6.75-0.8-6.94-0.11-11.85-1.26-15.26-3.56-3.48-2.34-3.79-4.19-1.46-8.71,1.08-2.09,2.3-4.85,2.71-6.13,0.42-1.29,1.63-3.17,2.69-4.19,1.07-1.02,1.94-2.13,1.94-2.47,0-0.86-4.38-0.06-6.21,1.14-1.24,0.82-1.45,1.39-1.16,3.18,0.39,2.42-1.14,6.02-4.04,9.46-3.18,3.77-7.85,2.22-14.07-4.67-2.34-2.6-3.22-3.2-3.82-2.61-1.12,1.1-0.24,4.93,1.51,6.56,1.96,1.84,9.52,5.35,11.53,5.37,2.03,0.01,2.68,0.48,3.9,2.83,1.56,2.98,11.47,6,21.13,6.44,3.06,0.14,3.27,0.26,3.59,2.1,0.33,1.93,0.37,1.95,5.04,2.14,4.69,0.19,5.37,0.51,3.97,1.91-0.4,0.4-0.55,1.21-0.33,1.78,0.33,0.87,1.1,0.98,4.47,0.67,2.23-0.21,4.65-0.52,5.37-0.69,0.99-0.23,1.55,0.21,2.28,1.82,0.75,1.63,1.51,2.21,3.25,2.53,3.22,0.57,5.93,0,7.7-1.62z"/><path id="path3140" style="fill-rule:evenodd;fill:#ffcc00;" d="M780.7,552.27c5.85-2.88,9.3-6.12,11.52-10.81,1.05-2.23,1.91-4.33,1.91-4.69,0-0.81-2.88-2.15-4.61-2.15-1.72,0-2.07-1.19-1.33-4.48,0.72-3.21-0.15-7.23-1.56-7.23-0.51,0-1.41,0.75-2.01,1.66-0.92,1.41-0.97,2.01-0.29,4.06,1,3.04,0.21,5.31-2.51,7.25-1.29,0.92-2,1.98-2,3.01,0,0.87,0.11,1.58,0.24,1.58,0.14,0,1.56-0.74,3.16-1.63l2.92-1.63,1.72,1.35c0.94,0.74,1.72,1.95,1.72,2.69,0,3.56-10.15,9.54-17.12,10.1-3.71,0.3-4.34,0.17-5.63-1.11-1.05-1.05-1.35-1.93-1.09-3.17,0.2-0.95,0.56-2.68,0.8-3.84,0.64-3.1-0.69-2.68-2.99,0.94-1.89,2.99-2.45,6.18-1.39,7.86,0.87,1.37,6.65,2.68,10.74,2.43,2.57-0.15,5.11-0.87,7.8-2.19z"/><path id="path3136" style="fill-rule:evenodd;fill:#cf1126;" d="M809.35,514.79c-1.55-2.36-0.62-5.21,1.7-5.21,1.37,0,1.64,0.34,1.8,2.31,0.14,1.65-0.17,2.64-1.08,3.47-1.24,1.12-1.32,1.1-2.42-0.57z"/><path id="path3134" style="fill-rule:evenodd;fill:#ffcc00;" d="M819.74,530.49c3.68-3.67,5.24-8.14,5.26-15.05l0.01-5.19,3.04-1.44c3.95-1.88,7.69-5.62,7.69-7.7,0-2.14-0.95-2.03-2.67,0.3-1.25,1.69-2.92,2.71-9.03,5.52-1.54,0.71-1.64,1.09-1.99,7.55-0.41,7.45-1.42,10.24-5.58,15.33-2.55,3.1-2.64,3.51-0.87,3.51,0.73,0,2.59-1.27,4.14-2.83z"/><path id="path3132" style="fill-rule:evenodd;fill:#ffd42a;" d="M634.12,525.57c1.11-1.41,2.77-4.26,3.69-6.34,0.91-2.09,2.28-4.46,3.03-5.27,1.76-1.9,0.78-3.07-2.06-2.44-1.5,0.33-2.11,0.88-2.36,2.18-0.85,4.24-2.39,8.58-3.76,10.6-2.48,3.66-2.54,3.81-1.52,3.81,0.53,0,1.87-1.14,2.98-2.54z"/><path id="path3130" style="fill-rule:evenodd;fill:#ffcc00;" d="M779.66,526.33c0.35-1.07-1.68-1.83-2.56-0.96-0.37,0.37-0.47,1.01-0.22,1.42,0.58,0.93,2.42,0.62,2.78-0.46z"/><path id="path3128" style="fill-rule:evenodd;fill:#ffd42a;" d="M620.53,519.32c3.31-1.68,6.48-5.6,6.48-8.03,0-1.58-2.66-3.34-5.08-3.34-1.07,0-3.09,0.88-4.7,2.05-5.04,3.65-10.44,2.91-13.39-1.85-2.42-3.92-4.96-6.05-7.19-6.05-2.8,0-2.91,1.76-0.18,2.71,1.32,0.46,2.42,1.58,3.33,3.38,2.66,5.29,4.21,6.23,11.28,6.85l4.55,0.39,0.2,2.77c0.11,1.52,0.49,2.76,0.84,2.76,0.34,0,2.08-0.74,3.86-1.64z"/><path id="path3126" style="fill-rule:evenodd;fill:#cf1126;" d="M619.44,514.78c-0.58-1.51,0.24-2.92,1.7-2.92,1.33,0,1.65,0.98,0.92,2.87-0.5,1.3-2.13,1.34-2.62,0.05z"/><path id="path3124" style="fill-rule:evenodd;fill:#ffcc00;" d="M834.93,512.02c0.36-1.07-1.68-1.83-2.55-0.96-0.38,0.38-0.48,1.02-0.23,1.43,0.58,0.93,2.42,0.62,2.78-0.47z"/><path id="path3122" style="fill-rule:evenodd;fill:#cf1126;" d="M706.34,525.17c-0.53-0.11-3.61-0.54-6.83-0.96-16.57-2.17-36.29-9.02-50.74-17.63-32.62-19.43-56.47-53.14-63.97-90.41-8.58-42.61-2.47-79.25,17.66-105.96,3.66-4.86,7.53-8.88,6.81-7.09-0.21,0.54-1.74,4.26-3.39,8.28-9.3,22.57-10.46,46.43-3.54,73.01,2.74,10.52,5.31,17.28,10.16,26.67,16.95,32.89,48.72,57.16,83.76,63.98,2.86,0.55,8.28,1.6,12.03,2.32,9.87,1.9,15.24,1.71,28.58-1.01,12.47-2.54,22.52-5.56,31.56-9.48,27.44-11.9,50.24-34.61,61.93-61.68,8.01-18.52,11.77-45.72,9.22-66.65-1.54-12.64-5.52-26.49-10.43-36.25-1.03-2.06-1.59-3.74-1.25-3.74,1.08,0,8.52,9.09,12.87,15.73,9.58,14.63,16.06,32.79,18.38,51.5,1.9,15.39,0.26,40.04-3.63,54.33-7.99,29.37-25.46,57.25-46.6,74.36-22.4,18.13-46.18,27.52-76.89,30.36-6.45,0.6-23.24,0.8-25.69,0.32z"/><path id="path3120" style="fill-rule:evenodd;fill:#ffcc00;" d="M763.06,512.65c0.62-0.53,1.32-1.98,1.55-3.21s0.75-2.33,1.15-2.44,1.97-0.53,3.48-0.94c1.84-0.5,3.3-1.48,4.45-2.99,2.61-3.41,2.36-7.83-1.02-18.24-1.5-4.63-2.95-9.14-3.21-10.04-0.62-2.12-1.17-2.05-3.07,0.41l-1.57,2.04,1.63,1.94c2.16,2.57,5.65,13.12,5.75,17.4,0.06,2.28-0.3,3.98-1.08,5.17-1.26,1.92-0.61,1.88-9.99,0.6-2.09-0.29-3.41-0.04-5.39,0.99-3.47,1.81-5.04,1.73-5.96-0.28-1.13-2.5-2.15-1.55-2.15,2.02v3.2h3.56,3.56l0.41,2.51c0.23,1.37,0.8,2.74,1.27,3.03,1.18,0.73,5.28,0.01,6.63-1.17z"/><path id="path3118" style="fill-rule:evenodd;fill:#d40000;" d="M757.98,509.59c-1.35-2.07-0.78-3.59,1.35-3.59,1.18,0,1.85,0.48,2.28,1.62,1.31,3.45-1.62,5.03-3.63,1.97z"/><path id="path3116" style="fill-rule:evenodd;fill:#ffcc00;" d="M675.68,506.63c2.05-0.88,4.49-2.73,6.54-4.97l3.26-3.56,3.77,0.46c4.66,0.56,4.74,0.61,4.74,2.84,0,1.77,0.11,1.83,4.39,2.23,2.41,0.23,5.59,0.42,7.07,0.42,1.89,0,2.95,0.37,3.58,1.25,0.84,1.17,1.32,1.2,8.36,0.57,6.58-0.6,7.88-0.54,10.85,0.47,2.11,0.71,4.42,1.03,6.18,0.83,5.04-0.57,12.01-4.72,13.02-7.75,0.12-0.36,1.95-1.01,4.06-1.43,5.09-1.02,5.32-2.11,0.58-2.7-2.06-0.26-5.16-1.02-6.88-1.7-1.73-0.68-4.09-1.24-5.25-1.24-2.55,0-5,1.58-5,3.24,0,1.08,0.39,1.18,3.42,0.87,2.85-0.29,3.71-0.11,5.21,1.07,0.98,0.79,1.62,1.7,1.41,2.04-0.67,1.08-6.6,3.79-9.23,4.21-1.76,0.28-3.19,0.08-4.58-0.63-2.3-1.2-5.7-1.38-6.34-0.35-0.27,0.45-0.99,0.17-1.99-0.77l-1.56-1.46-3.55,1.47c-3.59,1.49-4.9,1.41-4.9-0.3,0-0.79-1.05-0.88-6.34-0.53-5.83,0.37-6.43,0.3-7.52-0.91-1-1.13-1.05-1.53-0.34-2.67,0.67-1.07,0.68-1.51,0.04-2.15-0.63-0.63-1.42-0.63-3.73-0.01-5.79,1.55-7.47,0.69-7.47-3.84,0-3.96-3.23-5.66-6.47-3.39-5.31,3.72-6.69,8.13-3.08,9.85,2.66,1.26,1.98,2.76-2.19,4.85-5.97,2.98-11.22,2.6-21.23-1.54-2.46-1.02-3.1-0.61-2.53,1.64,0.55,2.21,2.56,3.41,7.58,4.56,5.4,1.23,11.92,0.84,16.12-0.97z"/><path id="path3114" style="fill-rule:evenodd;fill:#cf1126;" d="M680.53,493.88c-0.25-0.66,0.06-1.41,0.8-1.96,1.03-0.75,1.36-0.74,2.15,0.05,0.51,0.51,0.75,1.39,0.54,1.95-0.52,1.35-2.97,1.32-3.49-0.04z"/><path id="path3112" style="fill-rule:evenodd;fill:#ffcc00;" d="M672.1,495.6c3.53-2.24,3.45-2.07,3.96-8.29,0.35-4.39,0.29-4.72-0.9-4.72-1.73,0-2.63,1.9-2.63,5.52,0,2.32-0.36,3.36-1.6,4.59-2.94,2.94-10.24,1.6-11.16-2.05-0.31-1.25,0.09-2.38,1.62-4.55,3.19-4.53,2.47-5.64-1.44-2.2-2.69,2.35-3.17,2.42-2.66,0.39,0.47-1.87-0.51-2.61-2.7-2.06-1.12,0.28-1.73,0.98-2,2.34-0.26,1.33-0.87,2.07-1.93,2.33-1.77,0.45-4.79-1.23-4.79-2.66,0-1.06,4.52-6.58,10.32-12.6,2.19-2.28,3.98-4.4,3.98-4.72s-1.17-0.58-2.6-0.58c-2.09,0-2.6,0.23-2.6,1.2,0,0.66-2.92,4.49-6.5,8.52-7.46,8.4-8.08,10.15-4.39,12.39,2.97,1.82,6.78,1.68,9.77-0.35l2.42-1.65v2.99c0,3.82,0.76,5.19,3.76,6.78,3.77,1.99,8.33,1.75,12.07-0.62z"/><path id="path3110" style="fill-rule:evenodd;fill:#ffcc00;" d="M779.5,491.97c0.01-4.13,0.12-4.48,1.31-4.27,7.44,1.33,10.88,0.34,14.1-4.08,1.76-2.41,1.91-3.02,1.68-6.77l-0.26-4.13,3.62,0.44c6.54,0.78,6.62,0.82,6.16,3.49-1.24,7.3-3.52,11.32-9.15,16.13-3.93,3.36-3.92,5.01,0.02,3.14,3.34-1.59,7.22-5.57,9.3-9.56,1.53-2.93,1.8-4.24,1.83-8.88,0.03-4.87,0.19-5.56,1.54-6.65,1.13-0.92,2.39-1.18,5.08-1.07,3.22,0.14,3.73-0.03,5.19-1.73,1.28-1.49,1.54-2.33,1.23-3.98-0.56-3.03,0.08-4.08,3.54-5.84,4.68-2.37,6.5-4.9,6.5-9.03,0-3.8-1.17-6.04-2.83-5.4-1.26,0.48-1.45,3.77-0.32,5.57,0.42,0.67,0.57,1.69,0.35,2.27-0.61,1.58-4.12,3.48-7.3,3.96-4.01,0.6-6.79,2.75-8.88,6.86-3.34,6.55-2.86,6.25-5.76,3.62-4.47-4.03-8.41-2.97-10.09,2.72l-0.72,2.44-1.2-2.44c-1.22-2.48-2.67-3.07-4.08-1.66-1.27,1.26-0.89,3.25,1.18,6.31,1.06,1.57,1.94,3.56,1.94,4.42,0,4-3.79,7.24-7.4,6.33-1.94-0.48-3.66-3.2-3.66-5.78,0-2.33-1.74-2.11-2.27,0.29-0.89,4.03-2.7,2.39-3.49-3.16-0.54-3.76-1.9-3.97-3.57-0.54-1.07,2.19-1.1,2.6-0.25,3.57,1.77,2.04,4.55,10.18,4.88,14.3,0.46,5.64,1.77,4.98,1.78-0.89z"/><path id="path3108" style="fill-rule:evenodd;fill:#cf1126;" d="M800.97,470.01c-1.58-1.16-0.86-3.02,1.19-3.02,1.85,0,3.32,1.53,2.79,2.92-0.47,1.22-2.38,1.27-3.98,0.1z"/><path id="path3106" style="fill-rule:evenodd;fill:#cf1126;" d="M815.25,465.66c-0.51-1.6,0.68-3.22,2.37-3.22,1.24,0,1.6,1.5,0.82,3.52-0.56,1.47-2.69,1.27-3.19-0.3z"/><path id="path3104" style="fill-rule:evenodd;fill:#ffcc00;" d="M645.1,491.48c0.12-0.63-0.2-1.08-0.77-1.08-1.21,0-1.94,1.06-1.37,1.98,0.59,0.95,1.89,0.41,2.14-0.9z"/><path id="path3102" style="fill-rule:evenodd;fill:#ffcc00;" d="M695.94,485.8c0-0.93-0.35-1.28-1.13-1.13-1.7,0.32-1.89,2.48-0.22,2.48,0.93,0,1.35-0.42,1.35-1.35z"/><path id="path3100" style="fill-rule:evenodd;fill:#ffcc00;" d="M625.4,480.24,627.2,477.88,633.95,478.33c8.21,0.55,9.19,0.09,15.29-7.15,2.23-2.66,4.44-4.84,4.9-4.84s0.83-0.73,0.83-1.63c0-2.36-2.83-2.25-4.34,0.17-2.17,3.47-8.24,10.03-9.85,10.64-0.89,0.34-2.93,0.42-4.53,0.18-2.43-0.36-2.72-0.54-1.73-1.1,1.72-0.96,5.5-4.85,5.5-5.66,0-1.05-3.13-2-5.09-1.55-0.96,0.22-3.24,1.22-5.08,2.23-3.47,1.92-6.09,1.96-6.09,0.12,0-0.56,1.54-2.67,3.41-4.69,1.88-2.03,4.25-4.62,5.26-5.75,1.01-1.14,2.11-2.07,2.44-2.07s0.59-0.43,0.59-0.97c0-0.69-0.7-0.98-2.44-0.98-2.23,0-2.57,0.26-4,2.95-0.86,1.62-2.59,3.85-3.84,4.95-1.84,1.62-2.67,1.93-4.4,1.65-3.37-0.55-5.47-2.25-5.47-4.44,0-1.04-0.42-2.06-0.93-2.25-1.37-0.53-3.63,0.91-3.63,2.32,0,2.38,0.86,3.36,4.6,5.25,3.31,1.67,3.8,2.16,3.98,4.03,0.18,1.88,0.41,2.11,2.02,2,2.57-0.18,3.58,2.11,2.15,4.88-1.12,2.15-1.41,5.97-0.47,5.97,0.32,0,1.38-1.06,2.37-2.35z"/><path id="path3098" style="fill-rule:evenodd;fill:#ff00ff;" d="M628.31,475.12c0-1.06,0.6-1.21,2.28-0.56,0.86,0.33,0.91,0.52,0.21,0.96-1.34,0.86-2.49,0.67-2.49-0.4z"/><path id="path3096" style="fill-rule:evenodd;fill:#cf1126;" d="M630.91,472.3c0-0.57,2.85-2.06,3.93-2.06,1.27,0,0.57,1.81-0.84,2.19-2.05,0.55-3.09,0.5-3.09-0.13z"/><path id="path3094" style="fill-rule:evenodd;fill:#ffcc00;" d="M674.15,476.74c0-1.41-2.53-1.21-2.81,0.22-0.18,0.92,0.11,1.14,1.29,0.97,0.84-0.12,1.52-0.65,1.52-1.19z"/><path id="path3092" style="fill-rule:evenodd;fill:#ffcc00;" d="M786.2,466.82c0.26-1.35-1.62-2.25-2.61-1.26s-0.08,2.87,1.26,2.61c0.62-0.12,1.23-0.73,1.35-1.35z"/><path id="path3090" style="fill-rule:evenodd;fill:#ffcc00;" d="M611.82,453.09c1.76-1.51,1.78-1.61,1.02-4.93-1.08-4.65-1.01-5.15,0.76-5.59,2.24-0.57,7.93,2.48,9.19,4.92,0.98,1.89,0.95,2.02-0.71,3.56-1.79,1.65-1.78,3.58,0.01,3.58,1.48,0,5.57-3.87,5.57-5.26,0-1.93-4.54-6.49-8.13-8.16-2.22-1.04-4.44-1.52-7.01-1.53-4.6,0-5.22,0.99-3.98,6.34,1.46,6.27-0.52,7.12-5.57,2.39-3.75-3.51-5.23-7.16-5.21-12.91,0.01-6.17,2.37-9.22,7.69-9.94,3.53-0.47,3.44-1.3-0.19-1.84-5.3-0.8-9.78,2.74-11.48,9.06-1.89,7.01,2.44,15.55,10.1,19.95,4.01,2.3,5.61,2.37,7.94,0.36z"/><path id="path3088" style="fill-rule:evenodd;fill:#ffcc00;" d="M820.66,445.4c0.43-0.43,0.78-1.4,0.78-2.15s0.73-2.36,1.62-3.57c0.9-1.21,1.63-2.45,1.63-2.75,0-1.23-2.03-1.19-3.63,0.08-1.64,1.28-2.87,1.31-2.87,0.06,0-0.31,0.78-0.95,1.74-1.42,2.38-1.16,2.58-2.31,0.57-3.23-2.58-1.17-5.17,0.97-5.44,4.5-0.17,2.36,0.02,2.77,1.84,3.84,1.66,0.98,1.97,1.5,1.69,2.9-0.48,2.43,0.53,3.28,2.07,1.74z"/><path id="path3086" style="fill-rule:evenodd;fill:#ffcc00;" d="M840.29,443.18c1.44-1.29,2.61-2.76,2.61-3.25s1.24-1.79,2.76-2.88c4.31-3.1,5.26-6.23,3.33-11.04-0.75-1.89-3.11-4.5-8.24-9.12-3.94-3.56-7.57-6.47-8.04-6.47-1.4,0-1.15,5.15,0.27,5.6,2.56,0.82,4.11,1.87,8.14,5.5,4.68,4.23,6.84,8.18,5.66,10.38-1.13,2.13-2.63,1.47-6.76-2.96-2.17-2.33-4.32-4.23-4.76-4.23-0.48,0.01-0.82,0.85-0.82,2.03,0,1.48,0.79,2.89,2.93,5.27,3.49,3.88,3.83,6.21,1.21,8.27-0.94,0.74-1.91,1.35-2.15,1.35-0.23,0-1-1.16-1.7-2.57-1.46-2.96-10.39-12.39-11.73-12.39-0.61,0-0.91,0.76-0.91,2.26,0,1.81,0.36,2.45,1.8,3.19,1.77,0.92,6.15,5.33,10.55,10.65,1.26,1.52,2.5,2.75,2.77,2.76,0.26,0,1.65-1.06,3.08-2.35z"/><path id="path3084" style="fill-rule:evenodd;fill:#ffcc00;" d="M849.05,418.11c-0.58-1.87-12.56-14.2-13.79-14.2-0.64,0-0.84,0.76-0.69,2.72,0.17,2.38,0.43,2.79,2.07,3.22,1.02,0.27,4.18,2.75,7.01,5.5,2.82,2.75,5.3,4.84,5.5,4.63,0.2-0.2,0.16-1.04-0.1-1.87z"/><use id="use3950" style="fill-rule:evenodd;" xlink:href="#g3939" transform="matrix(-1,0,0,1,1440,0)" height="16293461" width="17926044" y="0" x="0"/><g id="g3939" style="fill-rule:evenodd;" transform="matrix(2.6776684e-5,0,0,2.6776684e-5,480.00001,143.85322)"><path id="path3169" style="fill:#cf1126;" d="M1196000,12177000c-97900-11000-196330,71000-163000,175000,8300,19000,41200,55000,96100,93000,55900,37000,134100,78000,230400,114000,192600,73000,457600,129000,766600,121000h-43900c313600,4000,481800-25000,701100-97000,185300-61000,345100-107000,356300-271000,0-28000-8500-44000-22700-58000-14200-13000-36200-24000-64100-3E+4-55600-12000-120000,2E+4-175900,39000-119200,39000-371600,145000-794600,148000-223000,6000-387400-47000-557600-104000-203700-68000-232200-117000-328700-130000z"/><path id="path3165" style="fill:#cf1126;" d="M56999,5932300c-2962,300-5396,1000-7937,1800-10166,3100-20988,10500-31750,30800v900c-3701,6400-13127,4E+4-15875,86500-2748.6,46400-1383.6,107000,2645.8,178100,8058.4,142300,28733,325200,59090,520400,60687,390100,158980,830400,262820,1093600,101740,243500,324570,461900,541520,658800,216890,196800,428390,368500,504490,545900,14200,31700,20900,76100,28200,139400,7300,63400,12800,144000,17600,238100,9700,188100,15500,429400,17700,688400,3400,412000-800,865000-8000,1225000,10200,4000,20800,9000,31800,14000,52400,24000,114000,55000,182600,86000,137000,63000,302600,123000,474400,118000h900c346500-2000,501000-104000,618300-149000h800c22500-8000,47200-15000,72400-19000-4500-330000-34900-2613800-34400-3010300v-900c3800-108500-99100-246800-232900-370400-133700-123500-292100-233200-384500-302500l-900-900-1700-900c-54900-48800-166900-166800-272600-283900-52800-58600-103800-117100-143700-165000-39900-47800-67400-81000-81200-108400-3900-7900-25600-36400-55500-65300-3E+4-29000-68600-60400-110300-87300-41600-26900-86400-49000-126100-58200-39600-9300-72200-6700-98800,9700-23700,14600-32900,38000-31700,81100,1200,43200,16800,101400,41400,162300,49300,121800,133200,257400,194100,340400,37100,50700,71500,135400,104900,233700,33500,98400,64300,208800,86500,303400,22100,94700,36600,167300,33500,213500-800,11500,3300,25000-18600,42300-10900,8600-30100,10100-40500,6200-10400-4000-15800-9400-20300-14200-18100-18900-30200-43600-50300-88100v-900l-900-900c-30300-77500-148600-163900-298900-251400-150400-87400-329390-179000-473640-290100-34720-28200-43510-69800-53800-119100-10290-49200-20310-110700-41450-186100-42280-150700-129440-358200-353660-621700l-11470-13300,3530-17600c49120-251200-17190-492800-107600-642100-45200-74600-97860-125400-135820-142800-14234-6600-25508-8700-34396-8000z"/><path id="path3163" style="fill:#cf1126;" d="M427420,5987900c-16950,400-31820,6800-45870,17600-27640,21200-49260,64100-47620,120800,73390,158400,117160,371300,77610,595400,222250,264800,312380,479200,356310,635800,22340,79700,32650,144200,42330,190500,9570,45900,20850,70500,28220,76800,136180,104800,311200,195100,463900,284000,124800,72500,236600,141500,298100,227500-3500-17100-7200-34600-11500-52900-12300-52900-28100-111300-44900-169400-24900-62400-96400-142400-179100-207200-82700-64900-176900-115700-239900-130500l-27300-6200-1800-27400c-4700-71200-62800-235300-143730-388900-80940-153600-187550-301900-271640-356300l-17630-11500,880-21100c13560-488000-94790-702200-179040-757600-21060-13900-40380-19800-57320-19400z"/><path id="path3161" style="fill:#cf1126;" d="M736980,6078700c-12840,800-22250,4900-33520,18500-10590,12900-21790,36200-29100,70600,44520,131200,70110,318700,64380,579400,102760,75100,200150,220600,279560,371300,76800,145700,134700,292500,149100,392500,76400,23800,163500,74900,243400,137600,21300,16700,42100,34000,61700,52000-22700-56900-45400-103500-62600-127000-64200-87600-149800-225900-202800-357200-18100-44600-32700-87900-40600-129600-86900-90700-169490-255100-149100-417200,18200-207900-68160-412100-161360-516800-46650-52400-93380-75600-119060-74100z"/><path id="path3159" style="fill:#cf1126;" d="M1088900,6129000c-9800,600-20700,4800-34400,15000-17900,13200-39400,37700-61760,74900,68560,123400,113860,286900,98760,457800v900,800c-12300,96300,26300,206000,75900,286700,9500-33800,28600-63600,59900-82900,33500-20600,71000-26700,108500-24700-17300-256400-70500-493500-138400-623600-35600-68000-73500-101500-98800-104900-3200-400-6500-200-9700,0z"/><path id="path3157" style="fill:#cf1126;" d="M1620700,8273000c-3900,5200-200,5900,0,2600v-2600z"/><path id="path697-1" style="fill:#cf1126;" d="M2809500,11466000c-16500,3000-32500,7000-46700,13000-61400,23000-152300,73000-293700,109000l342200-3000s-1600-110000-1800-119000z"/><path id="path3151" style="fill:#cf1126;" d="M1429700,11417000c-72600-1E+4-145500,71000-120800,176000,6100,18000,30500,55000,71200,92000,41500,38000,99500,78000,170900,115000,142700,73000,339300,129000,568300,121000h-32500c232500,4000,357200-25000,519800-98000,137400-6E+4,255900-106000,264200-270000,0-28000-6300-45000-16900-58000-10500-14000-26800-24000-47500-3E+4-41200-12000-88900,2E+4-130400,38000-88400,39000-275500,146000-589200,149000-165300,5000-287200-48000-413400-104000-151000-68000-172100-117000-243700-131000z"/><path id="path3167" style="fill:#cf1126;" d="M1300700,11789000c-85000-1E+4-170500,71000-141600,175000,7200,19000,35800,56000,83500,93000,48500,38000,116500,78000,200200,115000,167300,72000,397600,129000,666000,120000h-38100c272400,5000,418600-24000,609100-97000,161000-6E+4,299900-106000,309600-270000,0-28000-7400-45000-19700-59000-12400-13000-31500-23000-55700-3E+4-48400-12000-104300,21000-152900,39000-103500,39000-322800,146000-690300,149000-193800,5000-336600-48000-484500-105000-177000-67000-201700-116000-285600-130000z"/></g><path id="path3082" style="fill-rule:evenodd;fill:#cf1126;" d="M715.67,475.98c-12.48-1.32-23.35-9.23-28.61-20.82-1.77-3.88-1.72-4.88,0.16-3.53,3.17,2.28,7.7,4.3,9.65,4.3,1.6,0,2.93,0.83,6.07,3.76,6.08,5.7,12.9,7.17,9.94,2.15-2.08-3.52-1.5-5.89,2.95-12.08,2.23-3.11,4.36-5.68,4.71-5.7,0.36-0.03,2.17,2.06,4.02,4.65,3.98,5.55,5.22,9.73,3.75,12.69-1.29,2.6-1.2,4.29,0.23,4.29,1.57,0,6.99-3.44,10.21-6.48,1.75-1.65,3.67-2.71,5.85-3.23,1.79-0.43,4.82-1.66,6.73-2.73,1.92-1.07,3.62-1.82,3.78-1.65,0.79,0.78-4.41,9.6-7.77,13.2-6.53,7-12.81,10.12-22.28,11.1-2.84,0.29-7.07,0.33-9.39,0.08z"/><path id="path3080" style="fill-rule:evenodd;fill:#cf1126;" d="M731.53,460.22c-0.2-0.53-0.2-1.24,0-1.57,0.78-1.27-1.69-7.29-4.77-11.57-1.76-2.46-3.68-5.13-4.25-5.94-0.58-0.8-1.42-1.46-1.86-1.46-0.95,0-7.11,8.36-9.7,13.17-0.98,1.82-1.79,4.29-1.79,5.48,0,1.18-0.31,2.16-0.69,2.16-1.79,0-5.32-3.74-7.27-7.71-1.97-4.01-2.11-4.74-2.08-10.82,0.04-7.68,1.17-12.55,5.37-23.09,2.7-6.77,2.98-8,3.01-13.01,0.04-6.02-1.1-9.18-4.43-12.28-1.98-1.85-1.69-2.67,0.96-2.67,2.46,0,6.32,1.97,8.26,4.21,1.85,2.14,3.03,1.44,3.6-2.11,0.22-1.34,1.26-3.46,2.31-4.71,1.59-1.88,2.12-2.15,3.11-1.58,1.77,1.04,4.11,6.08,4.11,8.88,0,3.21,1.01,3.16,4.26-0.19,2.87-2.97,4.82-4.13,7.93-4.72,2.82-0.53,2.77,0.63-0.14,3.45-3.38,3.27-5.07,7.37-5.1,12.37-0.04,4.82,0.61,7.17,4.17,15.02,3.36,7.4,5.14,14.58,5.14,20.73,0,6.63-1.34,10.84-4.62,14.57-3.27,3.71-5,4.77-5.53,3.39z"/><path id="path3078" style="fill-rule:evenodd;fill:#cf1126;" d="M726.73,389.63c-1.64-3.22-5.06-7.18-6.2-7.18-1.03,0-6.16,5.71-6.16,6.84,0,0.45-0.41,1.14-0.9,1.55-0.69,0.58-1.49,0.35-3.56-1-3.36-2.2-4.87-6.28-4.83-13.03,0.04-5.88,0.99-9.9,4.24-18.02,2.36-5.9,2.55-6.85,2.34-11.38-0.29-5.99-1.91-9.67-6.47-14.65-1.75-1.92-3.18-3.66-3.18-3.88s1.36-0.4,3.01-0.4c3.36,0,6.11,1.41,8.89,4.53,0.97,1.08,2.02,1.98,2.33,1.98s0.76-1.54,1.01-3.42c0.49-3.75,1.83-6.34,3.29-6.34,1.38,0,2.93,3.44,2.93,6.49,0,3.72,1.33,3.96,4.22,0.75,1.3-1.44,3.37-2.95,4.6-3.35,2.31-0.76,5.83-0.36,6.51,0.74,0.21,0.35-0.83,1.96-2.33,3.58-6.54,7.1-7.86,15.1-4.02,24.39,3.14,7.59,4.19,12.96,3.86,19.75-0.35,7.33-1.67,10.7-5.07,12.95-1.4,0.92-2.69,1.68-2.87,1.68s-0.91-1.16-1.64-2.58z"/><path id="path3059" style="fill-rule:evenodd;fill:#cf1126;" d="M711.61,326.89c-3.36-2.46-4.47-4.81-4.47-9.46,0-2.38,0.44-3.67,2.01-5.83,2.31-3.2,1.89-4.21-1.38-3.27-5.26,1.51-7.77,0.13-7.95-4.35-0.08-2.19,0.38-3.12,3.33-6.66,2.36-2.84,3.22-4.33,2.75-4.8-0.46-0.46-3.25,1.96-8.98,7.79-4.57,4.65-9.71,9.4-11.42,10.56-9.84,6.64-19.24,7.67-23.53,2.56-2.2-2.61-2.08-4.08,0.46-5.66,1.17-0.72,3.14-2.38,4.39-3.69,2.95-3.07,11.74-9.41,16.1-11.61,3.54-1.79,4.38-3,2.08-3-2.98,0-12.54,6.22-19.79,12.88-2.13,1.97-5.2,4.16-6.81,4.87-3.62,1.6-10.73,2.19-13.89,1.15-2.23-0.74-6.3-4.58-6.3-5.95,0-0.36,0.93-1.16,2.06-1.77,1.13-0.6,3.16-2.07,4.5-3.24,5.8-5.09,16.79-10.33,25.51-12.16,2.77-0.58,1.75-1.98-1.34-1.84-5.99,0.26-17.88,5.83-24.98,11.69-8.32,6.86-20.87,6.21-24.91-1.29-0.7-1.29-1.11-2.5-0.91-2.69,0.19-0.19,2.66-0.93,5.49-1.65,3.06-0.77,9.12-3.28,14.91-6.17,9.11-4.54,11.81-5.51,18.08-6.52,2.82-0.45,2.97-1.83,0.23-2.15-3.53-0.42-8.94,1.35-18.5,6.05-12.28,6.04-15.72,7.08-22.19,6.7-5.9-0.36-9.23-1.87-14.02-6.4-3.13-2.97-7.57-10.51-6.7-11.38,0.21-0.21,1.65,0,3.2,0.45,1.72,0.51,6.65,0.85,12.59,0.86,8.31,0.02,10.52-0.2,14.95-1.48,7.41-2.14,17.26-7.15,24-12.18,12.89-9.64,23.4-13.51,36.8-13.57,12.37-0.05,20.24,2.81,27.21,9.88,2.36,2.39,4.37,3.94,4.7,3.61,0.31-0.31,0.65-4.49,0.75-9.29,0,0,3.64-0.35,4.41,0.67,0,7.79,0.09,8.4,1.22,8.4,0.74,0,1.53-0.76,2.02-1.94,1.06-2.55,4.98-6.04,9.17-8.16,9.05-4.59,24.71-4.73,37.29-0.34,5.3,1.86,11.18,5.18,16.78,9.5,5.62,4.32,17.11,10.1,23.9,12.03,6.87,1.95,18.98,2.44,25.19,1.03,2.56-0.58,4.96-1.06,5.34-1.06,2.29,0-1.61,7.63-6.19,12.1-8.37,8.18-19.26,8.14-34.58-0.12-9.55-5.14-20.97-7.95-20.97-5.15,0,0.58,0.6,0.97,1.49,0.97,3.32,0,9.73,2.23,18.67,6.47,9.67,4.6,15.1,6.54,18.32,6.54,2.34,0,2.41,1.45,0.23,4.65-2.31,3.41-6.23,5.1-11.77,5.09-5.29-0.02-8.23-1.18-12.96-5.11-7.91-6.58-27.62-13.92-26.86-10,0.15,0.78,1.1,1.26,3.13,1.57,6.86,1.05,14.91,4.89,23.15,11.06,2.54,1.91,5.18,3.79,5.85,4.19,1.13,0.66,1.15,0.86,0.26,2.53-1.48,2.76-5.21,4.9-9.25,5.32-5.23,0.54-9.78-1.02-14.49-4.96-9.94-8.32-19.31-14.34-22.31-14.34-2.45,0-1.35,1.35,2.97,3.64,5.68,3.01,11.52,7.08,15.82,11.03,2.03,1.88,4.32,3.74,5.08,4.15,1.8,0.96,1.73,2.37-0.25,4.96-2.02,2.64-5.36,3.8-9.69,3.34-8.64-0.91-15.38-5.08-25.97-16.07-4.14-4.29-7.83-7.8-8.21-7.8-1.41,0-0.58,1.91,2.15,4.97,3.38,3.78,4.03,5.91,2.75,8.98-1.13,2.72-3.01,3.35-6.87,2.31-3.95-1.07-4.57-0.1-1.98,3.12,3.86,4.81,3.29,10.7-1.44,14.75-1.47,1.25-3.01,2.28-3.43,2.28-0.41,0-1.45-1.07-2.32-2.38-3.04-4.62-5.71-4.59-8.67,0.08-1.03,1.63-1.9,2.95-1.93,2.94-0.04-0.01-1.43-1.01-3.08-2.23z"/><path id="path689-7" style="fill-rule:evenodd;fill:#cf1126;" d="M726.67,233.03,721.54,237.09,716.94,233.62,716.94,261.36,726.67,261.48z"/><path id="path3139" style="fill-rule:evenodd;fill:#cf1126;" d="M716.95,197.56c-4.46,0.08-9.16,0.14-13.39,0.97-2.93,0.58-5.59,1.53-7.81,3.1,0.36,8.53,41,12.09,51.9,0.16-2.29-1.67-5.09-2.66-8.17-3.26-4.07-0.79-8.57-0.87-12.84-0.94,0,2.34,0.02,4.69,0.02,7.04l-9.71-0.03v-7.04z"/><path id="path625-4" style="fill-rule:evenodd;fill:#cf1126;" d="M724.89,155.24,722.48,178.88,746.8,190.76,734.49,174.3,751.3,168.85z"/><path id="path690-0" style="fill-rule:evenodd;fill:#cf1126;" d="M722.18,149.08c-3.69,0-6.42,1.38-6.42,3.02s2.73,3.03,6.42,3.03,6.4-1.39,6.4-3.03-2.71-3.02-6.4-3.02z"/><path id="path4149" style="fill-rule:evenodd;fill:#cf1126;" d="M724.9,153.97,718.59,154.02,718.59,203.4,725.03,203.43z"/><path id="path3969" style="fill-rule:evenodd;fill:#cf1126;" d="M694.89,204.25c-1.02,13.11-4.35,22.26-8.98,32.35l11.1-10.29,7.72,9.17,8.36-9.33,8.53,7.88,8.2-8.2,8.52,9.97,7.4-8.2,12.54,9c-4.55-10.09-10.71-18.64-9.94-32.84-12.15,9.03-41.02,10.66-53.45,0.49z"/><g id="g3072" style="fill-rule:evenodd;fill:#ffcc00;" transform="matrix(2.6776684e-5,0,0,2.6776684e-5,-70.970375,143.85136)"><path id="path3068" style="fill-rule:nonzero;fill:#ffcc00;" d="M1134.5,545.32a2.3563,2.1599,0,1,1,-4.7,0,2.3563,2.1599,0,1,1,4.7,0z" transform="matrix(28222.221,0,0,28222.221,-332495.24,35170.295)"/><path id="path3070" style="fill-rule:nonzero;fill:#ffcc00;" d="M1134.5,545.32a2.3563,2.1599,0,1,1,-4.7,0,2.3563,2.1599,0,1,1,4.7,0z" transform="matrix(28222.221,0,0,28222.221,-97451.278,-43177.692)"/></g></svg>
