<?xml version="1.0" encoding="UTF-8" standalone="no"?>
<svg id="svg2" xmlns:rdf="http://www.w3.org/1999/02/22-rdf-syntax-ns#" xmlns="http://www.w3.org/2000/svg" viewBox="0 0 900 600" version="1.1" xmlns:cc="http://creativecommons.org/ns#" xmlns:dc="http://purl.org/dc/elements/1.1/">
<metadata id="metadata924">
<rdf:RDF>
<cc:Work rdf:about="">
<dc:format>image/svg+xml</dc:format>
<dc:type rdf:resource="http://purl.org/dc/dcmitype/StillImage"/>
<dc:title/>
</cc:Work>
</rdf:RDF>
</metadata>
<rect id="rect4" width="900" fill="#efb22d" height="600"/>
<path id="path6" d="M0,600h900v-600z" fill="#e23d28"/>
<g id="g8" stroke="#000" stroke-width=".5" fill="none">
<g id="g10" fill="#fff">
<path id="path12" d="M481.74,187.59c-4.99-1.77-8.21,0.8-8.04,7.24,0.15,6.44,3.54,10.15,8.52,7.73l-0.48-14.97z"/>
<path id="path14" d="M486.12,175.53c-4.15-3.28-8.02-1.87-9.94,4.28s0.09,10.74,5.59,10.06l4.35-14.34z"/>
<path id="path16" d="M493.04,163.86c-3.58-3.91-7.63-3.14-10.51,2.62-2.88,5.77-1.63,10.62,3.92,10.83l6.59-13.45z"/>
<path id="path18" d="M488.5,220.59c-6.11,2.25-6.76,10.63-2.89,15.78,3.86,5.15,10.94,6.11,14.81,0l-11.92-15.78z"/>
<path id="path20" d="M481.42,202.88c-5.8-1.93-11.02,5.86-11.91,12.88-1.13,8.85-13.69,11.75-6.76,25.11,1.45-8.53,7.08-13.2,11.59-13.52s11.27-1.29,14.16-6.76l-7.08-17.71z"/>
<path id="path22" d="M499.77,237.33c-6.76,1.61-7.72,10.63-2.9,17.07,4.14,5.51,17.07,4.18,16.75-1.29l-13.85-15.78z"/>
<path id="path24" d="M518.93,291.58c0.32-5.79-9.01-8.05-13.52-6.92s-13.12-0.16-15.14-4.99c-1.6,3.86,0.73,8.05,7.25,10.14,4.93,1.59,4.83,5.15,3.38,6.76,3.7,0.65,14.65,0.65,18.03-4.99z"/>
<path id="path26" d="M513.62,254.56c-6.6-2.9-10.52,1.51-13.04,5.79-3.71,6.28-15.13-1.77-19,6.6,5.24-2.25,10.56,2.55,13.04,4.19,7.08,4.67,20.77,3.22,22.7-7.73l-3.7-8.85z"/>
<path id="path28" d="M517.48,262.28c-6.6,4.99-9.18,10.95-9.01,14.97,0.16,4.03,5.79,12.88,11.91,13.37,3.54-7.25,5.31-22.54-2.9-28.34z"/>
<path id="path30" d="M490.12,293.35c0-2.41,3.54-3.38,5.95-2.57,2.42,0.8,6.12,3.22,4.83,5.79l-10.78-3.22z"/>
<path id="path32" d="M453.73,280.15c-0.64-2.9,4.03-7.89,10.31-5.15,6.27,2.74,7.08,8.05,4.5,10.14l-14.81-4.99z"/>
<path id="path34" d="M469.02,285.46c-0.48-1.61,4.04-4.82,11.76-2.89s9.62,6.9,9.34,10.78l-21.1-7.89z"/>
<path id="path36" d="M452.93,280.15c4.02-3.06,2.5-8.85-1.13-10.62-6.6-3.22-4.18-11.59-8.37-13.2-4.18-1.61-8.21-4.51-8.37-7.41-2.09,4.03-0.81,7.73,2.09,10.31,2.9,2.57-2.25,13.03,1.45,15.77l14.33,5.15z"/>
<path id="path38" d="M366.64,277.9c-3.38-5.31-11.43-4.35-14.81-0.65-3.38,3.71-2.89,9.18,0.33,11.6l14.48-10.95z"/>
<path id="path40" d="M385.96,270.01c-1.29-7.08-9.82-7.89-14.49-6.12s-7.89,8.86-4.83,14.01l19.32-7.89z"/>
<path id="path42" d="M398.84,269.04c3.06-5.95-2.9-14.81-9.66-16.09-5.64-1.08-12.31-1.05-14.49-6.6-1.37,4.83,2.26,7.88,6.44,10.62,4.19,2.74-0.8,9.82,5.96,13.85l11.75-1.78z"/>
<path id="path44" d="M398.2,269.25c-1.41-4.27,1.44-9.94,7.23-9.55,5.78,0.4,9.08,4.61,6.53,9.86l-13.76-0.31z"/>
<path id="path46" d="M411.07,269.57c-0.79-4.42,2.83-9.64,8.5-8.43,5.68,1.2,8.35,5.83,5.09,10.67l-13.59-2.24z"/>
<path id="path48" d="M423.86,271.6c-0.58-4.45,3.31-9.48,8.91-8,5.6,1.49,8.04,6.24,4.54,10.92l-13.45-2.92z"/>
<path id="path50" d="M326.72,345.35c-10.78,0-13.42,2.57-14.97,13.68-1.93,13.85,16.9,15.46,14.97-13.68z"/>
<path id="path52" d="M331.55,330.86c-16.58-6.28-25.6,19.96-42.01,15.29,5.87,9.34,20.11,0.02,25.43,0.97,9.01,1.61,28.49-1.77,16.58-16.26z"/>
<path id="path54" d="M320.76,366.76c-8.21-3.7-17.06,8.85-15.45,14.33,2.04,6.95,20.77,1.28,15.45-14.33z"/>
<path id="path56" d="M282.45,420.85c4.51,1.28,9.98,3.86,9.02,12.55-0.97,8.7-17.39,26.4-32.2,27.37s-20.12,18.83-32.84,13.84c11.91-2.25,11.91-15.77,21.25-19.96-6.76-2.41-10.3,12.88-18.99,12.88-8.7,0-12.88,13.84-23.51,12.88-10.62-0.96-11.74,16.85-33,17.06-16.26,0.16-36.38,19.16-43.62,10.95,15.77-2.25,22.14-11,31.55-20.61,15.13-15.45,32.19-8.53,37.99-22.21-6.92,4.67-14.97,6.92-22.86,6.76-9.9-0.2-20.77,15.78-31.87,8.69,6.44-0.8,10.62-3.54,17.38-10.62,6.93-7.26,17.09-2.57,25.11-9.98,12.56-11.59,23.35-1.93,35.42-16.42-3.38-1.61-10.62-0.48-17.39,3.06-6.76,3.54-15.45-2.42-23.18,1.77,0.97-9.5,19-4.06,30.27-10.63,12.71-7.4,23.26-5.23,33.32-4.34-14.01-0.08-19.48-13.37-38.8-9.5-8.42,1.68-15.13-11.59-23.5-4.83,0.24-4.99,9.02-9.02,18.03-4.19,9.02,4.83,12.65-4.22,30.59,7.09,7.4,4.66,20.12-2.9,28.17,2.09-1.05-3.06-5.64-4.99-11.03-4.59,3.38-6.92,25.19-6.04,34.69,0.89z"/>
<path id="path58" d="M296.78,410.38c-7.08-5.47-16.9,1.13-23.66-1.44,0,4.5,2.25,11.26,9.65,13.84,2.26-1.61,12.4-10.46,14.01-12.4z"/>
<path id="path60" d="M307.89,394.77c-11.11-5.64-13.04,8.37-21.74,5.47,0.33,4.03,3.55,9.02,10.63,10.14l11.11-15.61z"/>
<path id="path62" d="M314.49,382.05c-16.42-6.44-18.52,9.34-28.17,6.28,2.25,5.47,16.09,8.37,23.18,6.44l4.99-12.72z"/>
<path id="path64" d="M337.02,312.99c-4.34-6.12-13.52-1.12-14.97,6.12s2.1,17.38,8.21,15.13l6.76-21.25z"/>
<path id="path66" d="M348.13,293.67c-7.56-1.77-16.26-0.96-15.29,6.44-2.9,1.29-3.7,10.79,4.18,12.88l11.11-19.32z"/>
<path id="path68" d="M353.12,288.68c-7.4-8.69-15.66-8.49-20.28-4.83-8.53,6.77-16.82,2.9-17.07,9.66,5.16-3.94,9.66,0.81,13.85-0.64,4.18-1.45,7.24,6.6,18.83,3.22l4.67-7.41z"/>
<path id="path70" d="M335.25,418.6c1.13,2.09,8.05,3.05,11.43-0.49,4.48-4.69-0.48-17.71-7.56-18.67-7.09-0.97-7.73,14.65-3.87,19.16z"/>
<path id="path72" d="M327.2,418.92c10.15,3.7,14.49-4.67,9.02-9.98-1.45,1.77-6.76,8.21-9.02,9.98z"/>
<path id="path74" d="M289.21,432.76c-1.93,5.79-11.91,6.76-23.18,24.79s-22.05,10.46-24.79,22.86c13.52-10.95,24.14-3.68,32.2-14.49,12.23-16.42,22.31-14.06,27.04-25.11,6.76-15.78,36.38-15.46,37.99-40.25-9.98-1.93-41.53,24.79-49.26,32.2z"/>
<path id="path76" d="M543.24,189.36c12.88,4.19,13.2,20.93,28.01,26.4s16.26,18.67,28.33,15.46c-11.27-3.06-10.46-16.1-22.21-19.32-13.79-3.78-19-24.79-29.95-28.01"/>
<path id="path78" d="M602.32,276.77c2.25,5.15,1.93,14.33-6.12,16.74,4.35,2.74,10.78,0.16,14.32-5.79-5.31,11.75-1.77,22.37,6.6,24.47-4.02-8.21,5-12.08,2.1-17.39,5.31,2.26,9.98,9.5,9.82,14.01,6.92-7.73-5.15-18.03-2.9-25.28l-23.82-6.76z"/>
<path id="path80" d="M518.93,359.51c-7.89-6.92-11.26,1.81-15.13-1.2-3.63-2.82-8.45-3.22-10.3-0.41,6.76,0.25,3.45,5.48,16.57,6.77-13.12,0.88-10.7,15.53-19.47,14.81,9.33,8.85,14.16-7.89,21.73-5.16-2.26,0.65,3.54,5.96-0.48,13.04,6.52-0.16,9.17-9.17,9.98-13.84l-2.9-14.01z"/>
<path id="path82" d="M345.23,434.69c-2.89-2.41-11.27-3.54-14.48-1.61-3.22,1.93-2.1,2.42,1.77,2.74,3.86,0.32,8.85,6.57,0.48,6.92-3.86,0.16-2.58,9.5-10.63,10.14,3.3,4.03,12.72,1.37,16.1-3.06-0.64,3.63,4.19,6.93,2.26,11.27,5.95,0.65,2.49-12.07,11.91-11.43-3.87,0.49-2.26,9.18,4.51,6.92-4.03,1.94-1.94,6.6,2.57,5.48-2.9,0.96-3.86,4.66,0.16,6.76,3.87-5.31-0.48-24.31-14.65-34.13z"/>
<path id="path84" d="M695.85,257.07c12.32,0,22.3-9.99,22.3-22.31s-9.98-22.31-22.3-22.31c-12.33,0-22.32,9.99-22.32,22.31s9.99,22.31,22.32,22.31z"/>
<path id="path86" d="M579.3,284.02c6.76-6.44,17.06-9.66,24.14-4.83s30.59,10.62,42.18,2.57,17.06-12.23,22.21-11.27c3.87,5.8,8.54,8.54,14.33,9.02,1.77,1.93,8.05,3.54,11.59,3.06,5.15,1.28,11.43-0.32,16.42-5.8,7.73,1.13,14.97-4.67,17.71-13.36,8.21-0.97,8.69-10.14,3.54-16.26-4.83-0.96-1.12-17.22-18.67-14,7.4,4.5,1.77,13.52,7.89,17.7-4.19,0-9.58,1.78-10.87,8.05,1.61-4.34-0.24-7.24-1.37-8.21,0.16-3.7-8.05-12.79-15.78-9.49,5.56,1.2,2.42,10.14,6.45,13.52-2.9,0.16-5.96,1.61-7.73,4.18-2.09-3.7-9.5-7.56-14.01-7.88,0-1.29-0.24-3.87-0.8-5.16-2.01-3.86-3.71-8.45-2.9-14.32-3.86,4.18-7.08,9.98-9.01,14.16-6.12-4.18-21.25,1.93-28.34,3.54-7.08,1.61-30.91-2.25-36.38-8.04-5.47-5.8-16.1-9.34-26.08-12.24-13.72-3.98-13.84-18.99-28.97-29.3-0.33,18.68,28.01,77.92,34.45,84.36z"/>
<path id="path88" d="M421.54,426.32c11.91,0,21.57-9.66,21.57-21.57s-9.66-21.57-21.57-21.57c-11.92,0-21.57,9.66-21.57,21.57s9.65,21.57,21.57,21.57z"/>
<path id="path90" d="M370.02,409.74c4.35,5.63,11.76,5.31,14.81,4.83,2.58,6.76,10.79,6.6,14.33,10.3s15.61,3.38,19.16,1.29c-3.22-0.32-7.41-2.25-11.43-5.64-4.86-4.07-2.58-12.23-6.44-15.13,2.9-3.22,3.38-8.53,2.74-10.62,3.05-1.77,5.31-4.67,5.63-6.12,5.31-0.32,9.98-3.06,11.91-5.15,2.74,2.58,9.66-0.8,13.37,3.54,0.8-10.62-9.34-16.26-16.1-12.72-2.74-1.44-9.99-0.48-11.27,1.45-2.26-0.96-8.53,2.26-11.43,4.35,3.22-1.77,3.7-7.08,2.41-9.01,2.74-1.13,5.8-4.83,6.12-7.57,3.86,0.64,9.66-1.93,12.23-1.29-4.18-5.47-11.1-7.4-18.19-6.92-7.32,0.4-10.46,5.55-11.43,11.11-4.34,2.57-5.79,11.27-4.18,14.32-2.5-0.08-4.83,2.34-5.8,3.71-3.38-1.45-8.21-2.5-11.67-2.5"/>
<path id="path92" d="M366.32,373.2c-1.45-4.19,0.47-7.96,1.45-11.27,2.5-8.45,0.97-10.63-6.6-9.5-0.64,4.03,3.22,17.23,5.15,20.77z"/>
<path id="path94" d="M360.77,352.91c1.93,1.94,8.77,2.82,9.5-3.29,0.83-7.03-2.02-9.74-8.13-7.01-0.49,1.61-1.05,8.21-1.37,10.3z"/>
<path id="path96" d="M362.22,342.37c2.57,1.05,8.13,3.14,11.18-2.82,2.57-4.99-0.8-8.85-6.11-8.53-1.29,1.45-3.87,6.6-5.07,11.35z"/>
<path id="path98" d="M366.97,330.54c0.64,1.93,7.24,8.37,12.07,3.7s4.83-11.59-2.42-14.16c-1.93,0.32-7.72,7.08-9.65,10.46z"/>
<path id="path100" d="M376.62,320.08c1.45,4.02,5.96,10.94,14.33,7.72s4.83-13.68,0.97-15.77c-2.26,0.16-11.43,4.34-15.3,8.05z"/>
<path id="path102" d="M391.92,312.03c-0.65,3.54,0,13.2,11.43,13.04,11.42-0.17,8.21-13.53,5.31-15.46-4.67,0-12.56,0.16-16.74,2.42z"/>
<path id="path104" d="M409.14,310.09c-1.29,2.74-4.19,20.75,18.19,15.78,2.9-0.64,10.47-17.22-18.19-15.78z"/>
<path id="path106" d="M421.37,311.7c-2.25,2.26,3.55,20.45,18.68,17.39s2.42-20.28-18.68-17.39z"/>
<path id="path108" d="M434.25,314.44c-2.41,4.99,1.22,19.8,19.89,19.8,16.92,0-0.89-19.48-19.89-19.8z"/>
<path id="path110" d="M448.9,318.79c-1.21,2.76-2.69,18.46,19.32,19.8,15.94,0.96,12.08-21.57-19.32-19.8z"/>
<path id="path112" d="M472.57,325.39c-2.74,4.83-5.64,16.9,18.51,17.87,15.47,0.62,5.96-17.55-18.51-17.87z"/>
<path id="path114" d="M492.69,329.09c-3.54,4.83-0.93,14.3,8.05,16.1,11.27,2.25,12.88-8.37,5.15-13.52-7.73-5.16-13.2-2.58-13.2-2.58z"/>
<path id="path116" d="M503.64,331.34c-2.58,4.51-0.98,15.46,16.09,15.46,3.54,0,17.07-13.85-16.09-15.46z"/>
<path id="path118" d="M371.48,541.27c13.83,0,25.04-11.21,25.04-25.04s-11.21-25.04-25.04-25.04-25.04,11.21-25.04,25.04,11.21,25.04,25.04,25.04z"/>
<path id="path120" d="M555.15,177.13c-1.93,1.93-5.95,7.72-6.76,9.98-8.37,25.11,13.97,43.87,27.04,70.83,10.31,21.25,9.02,54.73-7.08,75.98-5.51,7.27-3.86,9.34-10.95,16.74-2.71,2.84-5.79,6.44-4.83,16.74,4.51-1.61,10.95,2.58,12.24,6.12,3.22-1.61,7.73-0.97,9.34,0.97,5.47-2.58,9.97-1.29,14.8,3.86,4.19-0.64,8.7,0,12.88,4.51,2.26-4.51,6.77-6.12,9.98-5.15-0.32-5.8,5.48-9.99,10.63-7.73-1.61-7.73,5.47-13.52,12.23-11.27,5.8-4.51,17.39-4.83,23.18,1.93-10.3-2.9-9.98,8.05-18.67,7.08,2.25,6.44-3.54,10.15-9.33,12.24,3.7-1.77,7.72-3.86,9.01-1.61,3.22-2.82,9.66-1.77,11.27-0.32,4.26-1.37,8.37-0.32,10.3,4.83,5.79,3.54,9.66,12.55,5.47,19.31-1.28-7.08-6.11-6.76-8.05-9.65-4.5,1.61-9.01,1.61-10.3-1.29-2.58,2.57-11.27,4.83-15.13,0.96-1.45,5.8-6.44,10.63-12.24,10.63,1.62,4.51-2.89,12.23-6.43,16.1,5.47,2.89,3.86,9.33,2.57,13.2,8.37,1.28,1.29,8.69,15.78,13.52-7.08,2.25-20.93,0-22.86-8.69-7.09-0.33-11.92-7.41-11.59-14.82-5.48-5.15-6.28-12.55,1.29-17.7-6.44,1.93-9.99-8.37-19.32-4.19-4.65,2.08-16.9-1.45-16.74-5.79-1.93,3.22-13.68,1.93-15.3-3.54-3.86,2.09-12.88-1.45-12.71-6.77-5,2.26-11.75-1.77-11.43-6.92-4.67-0.64-5.15-4.83-4.83-8.37-4.19-1.93-3.06-5.95-1.45-10.78-2.9-3.22-1.61-7.73,0.64-11.92-3.22-3.22-2.57-7.08-1.61-11.59-15.45-1.28-34.81-5.01-79.2-18.67-66.97-20.61-85,27.69-70.19,57.95,17.09,34.92-1.93,42.5,3.87,68.58,6.12,1.29,9.33,6.44,9.01,11.91,3.62,0.16,6.2,3.54,4.91,9.98,3.06-0.56,7.01,0.32,9.58,2.9,2.25-4.19,9.66-5.15,13.52-0.32,8.37-0.65,12.56,6.11,12.24,14.48,4.5,8.05,2.89,17.88-1.93,24.15,0.48-3.38,0-8.21-0.16-11.1-0.3-5.33-7.73-6.45-6.93-10.79-3.86,0.32-7.56-1.77-8.85-4.67-2.25,1.93-5.47,2.58-8.21,1.61,4.35,1.93,7.73,9.66,6.44,14.81,2.25,3.87,1.77,10.95-0.97,14.01-1.29,6.27-6.11,8.53-12.39,5.79,3.54-2.25,4.83-6.28,4.67-9.66-2.26-1.93-3.39-5.63-3.55-7.89-6.27,0.97-14.97-4.34-16.57-6.44-13.83,0-25.04,11.21-25.04,25.04-0.65-5.15-7.16-10.23-6.36-14.57-3.86-11.91,1.61-23.02,17.39-25.27-1.93-4.51,4.83-9.18,2.25-14.33-3.29-6.58-9.34-15.14-18.35-25.11,5.47-9.34,3.86-21.9,0.64-29.62-4.62-11.1-9.01-8.38-25.43,9.65-26.76,29.39-62.46,21.25-94.01,40.57-8.39,5.13-16.74,7.08-7.73-1.93,9.02-9.02,32.84-18.03,48.29-25.76,28.94-14.47,53.45-38.63,63.11-85.64,22.69-110.46,106.24-74.05,159.04-53.44,49.57,19.34,40.57-24.47,15.46-50.87-30.19-31.73-24.15-56.67-9.98-76.63,25.43-3.54,74.21,5.31,64.39,13.85z"/>
<path id="path122" d="M644.82,448.48c15.22,0,27.55-12.33,27.55-27.55,0-15.21-12.33-27.55-27.55-27.55s-27.55,12.34-27.55,27.55c0,15.22,12.33,27.55,27.55,27.55z"/>
</g>
<path id="path124" d="M539.7,178.41c-6.12,27.05-0.97,39.28,8.05,51.2,18.62,24.62,33.48,80.81,12.23,117.51"/>
<g id="g126" stroke-linecap="round">
<path id="path128" d="M571.89,315.41c2.58-0.97,7.41-4.03,8.53-9.34"/>
<path id="path130" d="M573.82,303.66c0.81-4.67,8.05-6.68,8.21-11.68"/>
<path id="path132" d="M573.98,285.46c-0.48-4.82,7.25-9.17,6.12-14"/>
<path id="path134" d="M569.8,268.08c-0.65-2.74,6.44-7.89,4.51-12.24"/>
<path id="path136" d="M564.49,251.18c-1.45-3.06,3.38-6.6,1.28-9.82"/>
<path id="path138" d="M556.76,237.65c-0.49-2.09,2.49-6.68,0.89-9.41"/>
<path id="path140" d="M549.03,221.72c0.64-0.81,3.22-2.74,2.17-5.15"/>
<path id="path142" d="M543.72,210.05c1.05-0.57,4.18-1.53,3.78-3.87"/>
<g id="g144" stroke-linejoin="round">
<path id="path146" d="M382.58,513.57c-6.44-2.25-14.49,0.97-16.1,6.44"/>
<path id="path148" d="M371.31,525c0.81-5.47,9.18-7.89,11.75-5.31-5.31-2.9-7.88,7.4-3.22,7.73"/>
<path id="path150" d="M423.15,397.67c-3.87,1.93-4.99,9.01,0,14.33"/>
<path id="path152" d="M428.94,399.28c-2.73,2.25-2.57,9.01,1.45,10.62-3.38-2.41,0-6.6,2.42-6.76,2.41-0.16,4.02,2.74,1.12,5.63"/>
<path id="path154" d="M655.12,415.21c-9.02-2.41-16.26,8.05-8.05,17.39-0.16-9.02,6.28-14.97,14.16-13.36"/>
<path id="path156" d="M657.61,425.47c-2.21,0-3.46,1.74-3.46,3.43,0,1.77,1.53,3.46,4.02,3.46,1.62,0,2.9-1.85,2.9-3.3"/>
<path id="path158" d="M689.4,227.83c1.45,5.48,9.02,7.73,14.97,6.44"/>
<path id="path160" d="M704.37,230.73c-4.66,0.16-8.52-4.18-8.2-7.89,0,2.74,6.28,4.03,8.2,2.26"/>
</g>
<path id="path162" d="M384.83,414.57c-1.28-3.22,3.87-6.44,4.03-9.5s5.79-5.47,11.59,0.32"/>
<path id="path164" d="M397.71,371.11c-1.12,0.48-2.09,1.12-3.06,1.44"/>
<path id="path166" d="M408.82,388.65c-1.37,0.08-4.19-0.08-5.72-1.13"/>
<path id="path168" d="M403.19,394.77c-1.13,0.56-3.63,1.53-5.08,1.85"/>
<path id="path170" d="M347.97,492c-0.16,2.9,2.74,7.08,4.35,8.37"/>
<path id="path172" d="M360.53,485.08c-1.61,2.41-2.58,6.6-1.61,9.49"/>
<path id="path174" d="M384.51,494.74c-2.9-1.94-0.96-6.93-1.29-10.14-0.32-3.23,3.39-8.38,10.63-4.03"/>
<path id="path176" d="M357.47,476.39c2.9-0.49,5.95-0.33,7.89,0.48"/>
<path id="path178" d="M394.17,467.21c-1.29,1.77-1.61,3.7-1.77,4.99"/>
<path id="path180" d="M407.69,466.89c-2.25,0-4.18,1.61-5.15,3.22"/>
<path id="path182" d="M376.46,384.47c2.58,0.88,9.26,4.99,9.5,9.25"/>
<path id="path184" d="M403.83,363.54c-7.89-0.16-10.95-8.21-4.99-8.21"/>
<path id="path186" d="M418,374.32c-3.06,1.29-1.61,6.6,2.73,9.18"/>
<path id="path188" d="M399.16,424.87c-1.53-1.93,0.48-7.56,5.47-5.87"/>
<path id="path190" d="M410.91,483.63c0.32-4.91,6.52-7.81,9.02-2.26"/>
<path id="path192" d="M388.05,497.63c-0.4-5.39,2.34-7.16,4.75-7.48,2.42-0.32,5.88,1.69,7.49,5.23"/>
<path id="path194" d="M340.08,501.66c0.32-3.22,3.06-6.6,5.96-6.12"/>
<path id="path196" d="M634.67,358.71c-2.09,1.53-3.46,8.37,4.51,9.01"/>
<path id="path198" d="M622.44,369.98c0,0.8,1.04,1.93,1.69,2.41"/>
<path id="path200" d="M660.43,382.86c-2.09-1.61-7.49,4.91-2.58,9.66"/>
<path id="path202" d="M609.24,436.95c-1.21-4.59,3.06-5.8,7.08-4.83"/>
<path id="path204" d="M598.94,404.43c2.41-1.61,4.83-3.38,7.88-4.19"/>
<path id="path206" d="M597.65,422.13c0-3.86,1.93-7.08,3.7-8.04"/>
<path id="path208" d="M611.81,377.71c-0.32,4.66,1.61,9.17,3.06,11.59"/>
<path id="path210" d="M650.13,378.03c-2.34,0.72-4.43,1.61-5.31,3.54"/>
<path id="path212" d="M647.55,391.23c1.13-0.97,2.42-2.1,2.98-2.9"/>
<path id="path214" d="M708.4,250.69c0,4.51-5.63,6.93-9.33,4.03"/>
<path id="path216" d="M720.64,250.85c2.49,1.94,11.1,0.09,9.09-4.9"/>
<path id="path218" d="M710.17,276.77c-1.77-0.32-4.83-2.25-6.12-3.86"/>
<path id="path220" d="M727.88,263.41c-2.9,0.64-4.83,0-6.28-0.64"/>
<path id="path222" d="M682.16,279.51c1.61,0,5.47-0.65,8.13-2.01"/>
<path id="path224" d="M677.33,251.02c-2.09-0.25-3.62,0.16-4.83,0.96"/>
<path id="path226" d="M709.77,258.9c-0.56,2.02-2.01,5.15-3.78,6.52"/>
<path id="path228" stroke-linejoin="round" d="M671.86,265.99c4.02-1.77,9.01,11.91,18.67,7.08"/>
<path id="path230" stroke-linejoin="round" d="M691.34,258.9c-1.29,1.77-2.09,4.51-2.26,6.93"/>
</g>
<path id="path232" d="M498.81,237.98c1.29-0.16,3.54-0.65,4.02-2.26"/>
<path id="path234" d="M333.16,387.85c4.83,2.73,8.21,7.4,6.12,14.32"/>
<path id="path236" d="M554.5,223.17c1.45,0.96,6.93,0.96,9.99-0.16"/>
<path id="path238" d="M568.35,226.39c-0.16,2.25,0.48,10.78-3.86,12.55"/>
<path id="path240" d="M566.1,237.82c4.02,1.28,12.07,0.8,14.65-6.6"/>
<path id="path242" d="M575.11,237.49c2.09,3.22,2.74,9.5-3.54,12.88"/>
<path id="path244" d="M576.72,242.81c4.67,1.61,15.45,1.77,14.33-7.41"/>
<path id="path246" d="M587.35,242.81c3.22,4.5,17.38,9.82,15.13,0.48"/>
<path id="path248" d="M574.31,255.84c5.47,1.29,13.2-2.41,9.98-12.07"/>
<path id="path250" d="M599.74,248.6c0.81,3.7,18.83,7.57,16.42-0.8"/>
<path id="path252" d="M612.78,252.63c3.38,7.72,21.25,7.08,15.62-3.22"/>
<path id="path254" d="M625.5,257.45c3.54,4.35,19.32,1.78,13.04-8.69"/>
<path id="path256" d="M638.37,257.29c9.83,7.41,21.25-3.22,8.86-10.94"/>
<path id="path258" d="M652.86,254.88c8.7,6.92,19.32-5.64,11.76-9.18"/>
<path id="path260" d="M584.12,251.98c2.74,0.81,8.54,0.48,9.83-4.51"/>
<path id="path262" d="M591.77,250.85c-0.32,7.33,12,10.15,15.13,1.7"/>
<path id="path264" d="M602.8,257.13c2.25,4.83,13.04,6.76,14.81-0.16"/>
<path id="path266" d="M615.84,260.19c1.77,4.83,11.11,4.35,13.68-0.64"/>
<path id="path268" d="M626.14,262.77c2.9,6.27,14.81,6.27,17.55-2.9"/>
<path id="path270" d="M641.6,263.89c4.66,2.9,14.65,1.77,13.84-7.24"/>
<path id="path272" d="M653.51,263.09c6.92,5.63,16.74,0.16,11.91-9.34"/>
<path id="path274" d="M664.94,270.49c3.7-0.64,5.63-8.05,1.77-9.98"/>
<path id="path276" d="M579.14,271.78c7.72-4.18,9.17-11.27,3.86-18.19"/>
<path id="path278" d="M585.74,264.7c4.83,2.9,14-0.16,15.61-7.25"/>
<path id="path280" d="M592.34,265.5c2.73,3.54,3.21,7.89-0.33,11.92"/>
<path id="path282" d="M594.59,270.01c8.53-5.31,19.16,4.51,11.27,10.46"/>
<path id="path284" d="M604.41,269.53c1.93-0.49,5.31-4.03,5.63-8.05"/>
<path id="path286" d="M608.27,273.23c3.54-3.7,27.69,3.86,12.4,11.59"/>
<path id="path288" d="M619.54,263.09c4.67,1.77,7.08,8.37,0,10.62"/>
<path id="path290" d="M625.66,279.19c5.15-5.32,21.25-1.94,15.45,4.83"/>
<path id="path292" d="M637.25,277.09c2.9-9.82,20.12-3.7,14.49,0.33"/>
<path id="path294" d="M633.71,267.27c0.48,1.94,0.64,6.77-2.58,9.34"/>
<path id="path296" d="M648.2,265.34c0.64,1.61,0.48,4.67-0.97,6.6"/>
<path id="path298" d="M659.14,265.5c0.97,1.77,2.58,5.15-0.97,7.89"/>
<path id="path300" d="M521.35,191.45c0.15,9.18,3.37,15.3,15.77,9.5"/>
<path id="path302" d="M525.21,202.4c-6.12,8.21,0.8,17.06,12.88,8.21"/>
<path id="path304" d="M506.37,206.42c8.38,9.02,23.35,2.42,13.69-11.26"/>
<path id="path306" d="M530.2,214.15c-1.61,8.86,5.63,10.63,11.59,6.6"/>
<path id="path308" d="M498.97,207.87c1.52,8.9,10.62,15.94,19.48,10.47"/>
<path id="path310" d="M509.92,220.11c0,12.71,17.54,14.16,21.57,0.96"/>
<path id="path312" d="M525.21,229.12c5.63,11.59,17.86,6.92,21.89-0.16"/>
<path id="path314" d="M512.81,210.61c2.26,5.63,6.76,11.91,17.23,7.24"/>
<path id="path316" d="M480.62,207.87c1.45,4.67,9.82,10.31,19.48,3.87"/>
<path id="path318" d="M486.57,213.83c-5.15,7.57,5.15,14.65,17.55,3.38"/>
<path id="path320" d="M492.69,223.17c2.09,10.62,6.28,19.15,21.41,5.47"/>
<path id="path322" d="M506.53,234.11c5.48,6.76,13.85,10.95,21.74-0.48"/>
<path id="path324" d="M534.06,236.04c-0.48,8.05,1.13,12.08,7.41,11.76,4.95-0.26,9.65-4.19,12.39-8.38"/>
<path id="path326" d="M540.34,247.8c-0.16,9.17,7.08,16.42,20.61,7.08"/>
<path id="path328" d="M545.97,258.58c-2.57,6.92,5.15,18.19,20.29,12.4"/>
<path id="path330" d="M513.94,240.23c-0.97,8.85,7.24,14.81,20.44,3.38"/>
<path id="path332" d="M520.38,250.05c0.48,7.24,8.69,15.94,20.77,3.38"/>
<path id="path334" d="M526.17,259.23c-0.96,12.39,10.47,15.93,20.13,6.43"/>
<path id="path336" d="M508.95,250.05c2.57,0.16,4.67-2.09,5.95-3.7"/>
<path id="path338" d="M514.42,259.06c2.25,0.49,6.12-1.61,7.41-4.18"/>
<path id="path340" d="M520.06,273.71c2.57,2.74,11.26,0.81,12.39-2.89"/>
<path id="path342" d="M529.72,273.55c4.83,11.27,17.7,10.79,23.01-1.93"/>
<path id="path344" d="M550.32,276.13c2.41,6.6,8.53,10.78,18.51,8.53"/>
<path id="path346" d="M555.15,282.89c-5.63,9.17,1.77,19.96,14.32,9.34"/>
<path id="path348" d="M558.21,296.57c-0.64,5.8,4.67,12.4,11.91,13.2"/>
<path id="path350" d="M534.38,279.67c-1.93,13.04,7.41,19.32,19.16,12.39"/>
<path id="path352" d="M520.7,285.95c3.06,2.41,8.53,2.73,13.68,0.8"/>
<path id="path354" d="M540.66,294.32c-2.9,10.95,8.37,18.83,18.03,6.6"/>
<path id="path356" d="M525.05,287.72c0.16,5.63,5.63,11.75,15.13,9.98"/>
<path id="path358" d="M566.74,308.97c-6.44,4.34-7.73,12.07,1.29,17.06"/>
<path id="path360" d="M550.96,306.71c0.33,6.6,3.39,10.31,10.63,10.95"/>
<path id="path362" d="M541.47,303.33c-9.66,8.86-0.17,19.16,11.26,10.47"/>
<path id="path364" d="M548.23,316.53c-3.22,10.15,8.85,16.26,15.29,5.96"/>
<path id="path366" d="M528.27,294.96c-3.55,9.98,0.96,16.58,9.17,15.94"/>
<path id="path368" d="M515.55,293.03c0.48,5.96,5.63,8.05,11.43,6.76"/>
<path id="path370" d="M519.25,299.31c-4.35,8.37,2.25,12.88,10.95,9.66"/>
<path id="path372" d="M556.6,327.64c-1.45,5.31-0.65,9.18,7.24,10.95"/>
<path id="path374" d="M557.08,335.21c-9.5,4.34-10.3,13.52-2.9,19.48"/>
<path id="path376" d="M549.43,324.99c-4.98,4.5-4.02,12.31,1.45,15.37"/>
<path id="path378" d="M507.18,295.61c-5.48,5.39-0.24,20.28,11.83,12.15"/>
<path id="path380" d="M538.57,314.44c-7.41,6.12-4.02,17.23,8.21,14.17"/>
<path id="path382" d="M526.33,309.77c-3.86,10.95-0.16,14.81,8.54,14.97"/>
<path id="path384" d="M499.13,295.12c-6.6,4.99-4.83,12.08-1.93,15.3s8.37,1.77,10.14-2.42"/>
<path id="path386" d="M485.28,290.78c-7.4,9.49,0,20.76,10.47,17.38"/>
<path id="path388" d="M524.89,318.95c-7.57,2.73-13.34,9.61-8.7,15.61,2.74,3.54,14.65,4.03,18.03-9.66"/>
<path id="path390" d="M511.2,310.09c-4.34,6.28-2.9,12.24,5.15,15.3"/>
<path id="path392" d="M510.72,321.85c-4.67,2.57-7.73,5.63-6.6,11.26"/>
<path id="path394" d="M500.26,312.03c-1.77,7.56,0.32,12.23,4.99,14.48"/>
<path id="path396" d="M500.1,321.04c-7.25-0.48-10.95,2.58-8.54,9.66"/>
<path id="path398" d="M492.21,322.81c-7.09-2.57-8.21-8.69-5.16-15.13"/>
<path id="path400" d="M486.09,317.18c-7.73,0.32-11.11,4.18-11.11,9.5"/>
<path id="path402" d="M475.62,287.07c-5.63,2.42-7.4,9.99-5.31,14.17,2.1,4.19,8.7,4.51,12.72,1.77"/>
<path id="path404" d="M459.85,281.12c-5.15,5.79,0.8,17.06,9.98,14.33"/>
<path id="path406" d="M446.65,276.61c-4.83,6.76,0.48,18.03,12.88,14.81"/>
<path id="path408" d="M460.17,322.81c-1.29-8.05,7.08-13.36,17.39-2.9"/>
<path id="path410" d="M472.57,303.66c-3.06,2.73-4.51,7.08-4.03,10.62"/>
<path id="path412" d="M433.45,272.75c-5.31,9.01,1.13,17.22,12.56,14"/>
<path id="path414" d="M463.23,295.12c-7.56,7.57-4.99,15.14,0.64,19.48"/>
<path id="path416" d="M458.4,303.98c-11.43,0.16-12.07,13.36-2.73,17.54"/>
<path id="path418" d="M449.71,290.78c-4.67,3.22-6.12,12.07,1.93,15.61"/>
<path id="path420" d="M449.39,310.58c-4.83-2.26-10.63,0.48-10.14,6.11"/>
<path id="path422" d="M442.14,310.74c-4.34-10.3-17.06-8.53-15.93,2.09"/>
<path id="path424" d="M445.68,298.02c-2.73,0.48-8.21,2.09-10.3,6.28"/>
<path id="path426" d="M436.19,286.43c-5.15,5.8-1.13,12.72,3.06,14.17"/>
<path id="path428" d="M420.9,270.17c-0.97,6.92,1.77,10.3,10.46,9.66"/>
<path id="path430" d="M423.95,279.03c-3.38,8.37,1.13,12.07,9.82,11.59"/>
<path id="path432" d="M425.88,289.33c-5.15,6.12-1.61,12.72,3.38,15.45"/>
<path id="path434" d="M423.47,297.06c-9.17-1.13-10.62,9.49-7.57,14.48"/>
<path id="path436" d="M416.06,269.37c-5.63,2.41-8.85,9.49-5.79,13.84s9.18,2.9,12.55,0.64"/>
<path id="path438" d="M412.2,285.14c-4.67,7.09-0.48,12.4,4.51,14.49"/>
<path id="path440" d="M394.17,268.56c-3.7,3.87-1.45,11.75,7.57,11.91,7.25,0.13,10.94-6.76,8.69-11.59"/>
<path id="path442" d="M400.45,280.47c-2.9,6.44-1.13,13.37,9.82,12.24"/>
<path id="path444" d="M414.94,302.85c-6.76-3.06-15.78,0-11.92,8.05"/>
<path id="path446" d="M402.06,291.42c-2.74,3.86-1.77,9.34,1.29,12.72"/>
<path id="path448" d="M401.58,301.72c-4.51,0.81-8.86,3.22-6.12,10.31"/>
<path id="path450" d="M394.81,306.23c-5.79-1.77-13.2,2.42-8.69,8.37"/>
<path id="path452" d="M385.16,308.97c-4.99-0.81-10.95,4.5-6.12,9.82"/>
<path id="path454" d="M377.11,314.44c-4.51,1.13-9.82,6.28-5.15,10.3"/>
<path id="path456" d="M399.81,289.17c-6.44,2.89-7.09,10.14-4.03,15.45"/>
<path id="path458" d="M393.04,275.81c-9.65,3.7-9.49,16.58,1.13,20.6"/>
<path id="path460" d="M389.66,293.51c-5.79,3.38-6.92,9.82-3.05,14.01"/>
<path id="path462" d="M379.52,270.98c-3.86,1.28-3.54,13.2,6.76,12.87"/>
<path id="path464" d="M368.9,275c-7.73,5.15,1.61,18.19,14.16,8.85"/>
<path id="path466" d="M376.14,287.07c-1.13,5.32,0.32,11.11,8.86,11.76"/>
<path id="path468" d="M376.62,294.16c-6.11,2.25-7.24,14.81,3.87,15.77"/>
<path id="path470" d="M357.15,282.73c-7.89,7.24,6.43,13.52,11.75,3.06"/>
<path id="path472" d="M346.2,294.8c-3.86,4.67,9.66,16.9,15.61-3.54"/>
<path id="path474" d="M363.26,290.94c0.32,4.83,3.22,7.72,9.18,8.05"/>
<path id="path476" d="M372.28,303.66c-9.5,1.44-12.56,13.36-1.93,15.93"/>
<path id="path478" d="M354.73,302.05c-0.32,4.5,4.35,8.21,9.66,7.4"/>
<path id="path480" d="M369.22,319.27c-8.69,1.93-9.82,13.2-2.09,12.56"/>
<path id="path482" d="M363.1,342.29c-7.24-2.17-7.4-10.79-0.96-14.01"/>
<path id="path484" d="M357.15,334.72c-6.12,3.71-3.71,12.56-0.49,13.85s5.8-0.32,6.12-3.06"/>
<path id="path486" d="M362.3,357.9c0.64,4.19-14.89,2.58-6.92-10.46"/>
<path id="path488" d="M355.29,358.63c-5.23,8.21,3.3,14.89,8.7,7.89"/>
<path id="path490" d="M356.02,368.53c-2.09,6.6,5.87,11.35,11.03,6.2"/>
<path id="path492" d="M338.63,306.71c-2.89,5.96,11.59,8.21,12.56-4.02"/>
<path id="path494" d="M334.61,315.57c-2.9,11.59,18.99,9.17,13.36-5.8"/>
<path id="path496" d="M348.45,317.5c3.06,1.77,12.24,1.93,14.49-7.89"/>
<path id="path498" d="M356.34,317.82c0.64,3.06,3.38,6.76,5.96,7.89"/>
<path id="path500" d="M345.88,320.88c-0.97,6.28,5.31,11.43,12.55,10.95"/>
<path id="path502" d="M347,327c-3.54,4.83-4.66,14.16,6.44,14.81"/>
<path id="path504" d="M330.1,328.61c-1.77,4.99,8.69,10.14,14.81,1.93"/>
<path id="path506" d="M326.88,341.32c-0.88,3.79,8.53,8.86,13.85-7.24"/>
<path id="path508" d="M336.54,342.29c2.25,4.02,9.82,7.24,14.49-0.64"/>
<path id="path510" d="M343.46,346.48c-1.93,5.63,3.38,10.94,9.82,9.33"/>
<path id="path512" d="M331.39,345.19c-1.29,8.05,8.05,12.71,13.84,8.53"/>
<path id="path514" d="M325.27,348.73c-2.73,10.3,10.47,14.17,15.46,6.44"/>
<path id="path516" d="M337.35,358.23c0.48,5.79,9.49,10.78,16.58,5.95"/>
<path id="path518" d="M321.25,363.06c-0.65,2.57,10.14,5.15,11.75-3.87"/>
<path id="path520" d="M327.53,365.31c2.57,6.6,11.26,8.21,16.25,0.16"/>
<path id="path522" d="M340.89,368.69c1.12,6.12,9.01,9.5,15.93,5.31"/>
<path id="path524" d="M359.72,376.42c-1.77,8.21,6.76,14.81,12.07,10.3"/>
<path id="path526" d="M346.04,374.97c-2.58,9.01,8.69,14.16,14.97,9.17"/>
<path id="path528" d="M332.52,370.46c-0.65,8.37,5.95,13.36,13.52,9.66"/>
<path id="path530" d="M318.19,371.27c-2.25,5.47,9.66,9.98,15.29,5.31"/>
<path id="path532" d="M310.78,386.24c3.06,3.54,13.69,0,14.65-7.89"/>
<path id="path534" d="M322.54,384.14c3.86,4.51,13.03,6.93,16.74-2.73"/>
<path id="path536" d="M336.06,386.4c-0.16,6.92,12.23,11.91,16.26-0.81"/>
<path id="path538" d="M366.88,388.09c-1.12,3.38,1.53,8.77,7.09,9.42"/>
<path id="path540" d="M356.66,386c-0.8,3.86,4.83,9.25,10.79,7.08"/>
<path id="path542" d="M368.58,394.69c-1.61,4.18-0.25,10.22,5.39,10.14"/>
<path id="path544" d="M369.14,402.5c-4.19,3.54-2.42,9.82,3.62,10.06"/>
<path id="path546" d="M366.97,408.45c-5.96,4.02-3.87,12.88,4.02,12.4"/>
<path id="path548" d="M348.94,391.39c0,8.69,10.78,9.98,12.87,1.93"/>
<path id="path550" d="M357.63,398.47c-1.61,5.15,2.57,10.14,9.17,8.69"/>
<path id="path552" d="M358.92,460.61c1.45,2.09,7.4-1.45,5.79-4.99s-7.92-1.62-7.24,2.09"/>
<path id="path554" d="M363.26,454.17c0.81-7.08-7.56-8.21-9.66-2.09"/>
<path id="path556" d="M356.66,448.54c2.1-3.54-4.99-8.37-7.89-3.22"/>
<path id="path558" d="M351.35,443.22c1.93-5.15-6.12-7.4-6.76-2.73"/>
<path id="path560" d="M342.82,433.72c0.96-2.57,9.98-0.96,6.12,4.35"/>
<path id="path562" d="M355.86,444.51c3.54-3.22-2.42-9.82-6.12-7.4"/>
<path id="path564" d="M379.68,454.33c-2.81,0.32-5.71,2.17-3.62,8.13,1.45,4.14,7.65,4.35,8.53,1.85"/>
<path id="path566" d="M375.58,457.31c-2.74-1.77-8.7,1.21-5.96,7,2.06,4.36,7.25,2.58,8.05,0.32"/>
<path id="path568" d="M360.2,465.6c1.37,2.41,8.21,1.37,9.42-1.29"/>
<path id="path570" d="M364.87,457.63c1.45-0.96,4.11,0.24,4.67,1.45"/>
<path id="path572" d="M364.39,417.95c-4.67,3.06-1.77,12.4,5.47,9.98"/>
<path id="path574" d="M362.94,425.52c-3.7,2.89-0.32,11.91,6.6,8.53"/>
<path id="path576" d="M364.07,434.05c-2.58,2.57-0.08,9.74,6.6,8.37"/>
<path id="path578" d="M363.1,437.59c-1.45-0.64-5.23-0.16-6.84,2.25"/>
<path id="path580" d="M358.92,404.99c-3.54,3.38-1.86,10.31,4.74,10.87"/>
<path id="path582" d="M357.63,412.07c-5.07,2.5-5.07,12.56,5.07,12.96"/>
<path id="path584" d="M357.23,423.42c-2.82,2.26-1.45,10.95,5.79,9.82"/>
<path id="path586" d="M359.56,432.92c-1.05,1.05-1.21,3.7-0.32,4.83"/>
<path id="path588" d="M356.34,429.62c-2.57,0.08-5.96,1.93-6.84,4.59"/>
<path id="path590" d="M344.83,424.87c0.97-2.57,8.94-2.41,9.5,5.15"/>
<path id="path592" d="M355.13,421.01c-1.12,0.24-3.3,1.29-3.86,3.46"/>
<path id="path594" d="M351.67,397.43c-3.46,3.13-5.15,13.04,5.39,14.97"/>
<path id="path596" d="M344.67,417.87c0-2.66,7.16-4.91,9.66-0.97"/>
<path id="path598" d="M340.08,403.46c1.05,2.01,6.04,4.75,9.1,2.5"/>
<path id="path600" d="M314.16,387.69c-0.16,4.66,3.71,8.85,9.02,8.21,5.31-0.65,6.44-5.32,4.83-8.38"/>
<path id="path602" d="M323.98,396.06c-3.54,4.34,0.81,10.46,4.83,8.69"/>
<path id="path604" d="M328.01,393c2.09-0.81,9.01-1.77,11.11,1.45"/>
<path id="path606" d="M305.63,394.29c-1.61,2.41,8.37,4.83,11.75,0.16"/>
<path id="path608" d="M314,396.86c-0.32,3.22,1.29,8.69,9.5,6.44"/>
<path id="path610" d="M324.79,408.29c1.29-2.74-4.83-7.24-9.5-2.25s0.65,10.62,3.54,8.69"/>
<path id="path612" d="M303.38,397.51c-2.42,4.18,6.92,11.83,12.23,4.75"/>
<path id="path614" d="M297.18,404.75c-3.38,3.46,0.81,9.82,5.88,7.89s4.58-7.25,3.38-8.61"/>
<path id="path616" d="M290.66,411.19c-2.73,2.49-0.08,8.37,3.7,8.37,3.79,0,6.12-2.98,5.4-6.76"/>
<path id="path618" d="M306.03,410.71c-0.48,3.7,4.99,6.27,8.54,2.81"/>
<path id="path620" d="M314.73,406.76c0.48-0.8,0.08-2.17-0.73-2.82"/>
<path id="path622" d="M284.79,416.18c-3.14,2.49,3.62,9.42,7.88,3.06"/>
<path id="path624" d="M309.01,414.81c-2.01,1.93,1.21,7,4.43,5.47"/>
<path id="path626" d="M297.99,418.35c0.48,3.46,7.24,6.04,11.51,0.73"/>
<path id="path628" d="M301.69,421.81c-1.05,2.18,1.05,5.64,3.62,5.16"/>
<path id="path630" d="M365.76,441.7c-2.5,4.9,5.47,10.62,11.27,4.66"/>
<path id="path632" d="M371.55,449.02c-1.2,2.65,0.24,6.36,2.42,7.73"/>
<path id="path634" d="M363.99,454.57c0.56-2.41,4.02-4.67,7.16-3.54"/>
<path id="path636" d="M359.8,448.21c0.48-2.17,3.38-4.34,5.56-3.78"/>
<path id="path638" d="M549.35,347.76c-11.43,0.16-6.6,18.52,3.22,14.81"/>
<path id="path640" d="M545.65,361.29c-2.25,3.7,2.1,9.57,6.92,6.11"/>
<path id="path642" d="M551.29,368.13c-3.39,5.63,8.69,14.24,13.52,5.39"/>
<path id="path644" d="M560.95,376.9c0.15,5.31,15.61,8.69,13.36-1.93"/>
<path id="path646" d="M572.86,380.76c3.7,6.28,17.54,6.93,16.09-2.41"/>
<path id="path648" d="M585.9,384.79c2.9,4.18,16.42,6.76,15.93-1.93"/>
<path id="path650" d="M531,331.83c1.93,4.99,8.53,6.76,15.78,3.86"/>
<path id="path652" d="M526.82,335.37c4.5,2.9-2.1,16.1-9.02,10.78"/>
<path id="path654" d="M526.82,343.58c4.99,2.41,11.1,0.64,12.88-6.44"/>
<path id="path656" d="M536.64,342.61c0.48,3.7,5.79,6.6,12.71,5.15"/>
<path id="path658" d="M524.24,346.48c6.44,5.47-2.89,16.74-7.08,11.59"/>
<path id="path660" d="M526.66,350.66c3.06,2.25,10.94,0.97,11.75-4.99"/>
<path id="path662" d="M534.87,350.66c0.64,3.86,3.7,5.31,8.05,5.47"/>
<path id="path664" d="M524.89,355.97c3.21,4.51,11.26,5.8,14.81-0.16"/>
<path id="path666" d="M536.15,359.19c-0.32,4.35,4.51,7.89,9.5,6.92"/>
<path id="path668" d="M518.61,368.85c4.18,2.09,8.69-5.79,5.15-11.27"/>
<path id="path670" d="M523.44,377.22c4.99,0.32,5.63-7.24,0.96-11.43"/>
<path id="path672" d="M534.87,384.14c4.18-0.96,2.89-10.14-7.25-10.94"/>
<path id="path674" d="M547.58,390.91c4.03-1.13,0.81-11.27-10.3-10.63"/>
<path id="path676" d="M562.88,394.45c2.73-4.19-6.28-11.27-13.68-7.57"/>
<path id="path678" d="M570.44,400.24c4.99,1.45,8.37-11.75-7.4-9.66"/>
<path id="path680" d="M579.62,400.24c4.35-1.12,7.4-9.01-5.31-6.44"/>
<path id="path682" d="M589.28,400.89c3.86,1.93,5.63-9.34-6.12-6.28"/>
<path id="path684" d="M524.4,365.79c4.83,2.74,12.4-0.48,11.75-6.6"/>
<path id="path686" d="M534.22,364.51c1.61,2.89,0.97,8.53-2.09,9.98"/>
<path id="path688" d="M534.7,371.27c3.22,1.28,7.57,0.16,10.15-4.99"/>
<path id="path690" d="M540.34,371.27c0.96,2.25,1.29,6.76-0.81,9.01"/>
<path id="path692" d="M541.15,375.13c3.54,1.93,7.72-0.64,9.49-4.35"/>
<path id="path694" d="M548.39,374c2.57,1.61,4.83,9.18,0.48,12.24"/>
<path id="path696" d="M551.29,382.7c3.06,0.16,7.56,0.16,10.46-3.71"/>
<path id="path698" d="M559.66,381.09c2.74,0.8,5.95,5.31,4.83,9.33"/>
<path id="path700" d="M564.65,388.97c3.06-0.32,8.37-2.41,9.82-6.11"/>
<path id="path702" d="M573.02,385.27c2.58,1.45,4.35,4.51,4.02,8.05"/>
<path id="path704" d="M577.04,390.74c3.06-0.16,5.8-1.77,6.6-5.15"/>
<path id="path706" d="M582.84,387.85c2.25,0.8,4.99,3.38,5.15,6.44"/>
<path id="path708" d="M587.67,392.35c2.25-0.32,3.86-1.77,5.31-4.02"/>
<path id="path710" d="M599.1,388.01c2.9,2.9-0.97,12.55-6.93,10.78"/>
<path id="path712" d="M537.28,192.9c-5.96,3.54-22.86,2.42-14.49-11.59"/>
<path id="path714" d="M538.89,183.4c-11.75,4.67-26.24-4.34-11.11-14.16"/>
<path id="path716" d="M523.76,166.02c-9.82,0-16.42,15.77-3.22,21.25"/>
<path id="path718" d="M485.61,172.62c-2.58,4.99,6.6,10.46,12.88,5.47,4.86-3.86,4.5-14.33,1.61-18.35"/>
<path id="path720" d="M480.62,184.53c-3.22,10.63,20.44,11.27,16.74-5.63"/>
<path id="path722" d="M479.33,200.31c0.8,8.05,22.7,5.47,15.61-10.79"/>
<path id="path724" d="M497.52,185.01c1.77,2.42,6.6,6.6,14.81,5.8"/>
<path id="path726" d="M501.38,173.58c0.73,2.9,5.64,5.16,11.92,2.98"/>
<path id="path728" d="M281.73,418.51c-5.56,3.95,2.98,10.14,6.11,3.3"/>
<path id="path730" d="M277.38,421.57c-5.55,3.95,2.98,10.14,6.12,3.3"/>
<path id="path732" d="M272.79,424.55c-5.55,3.95,2.98,10.14,6.12,3.3"/>
<path id="path734" d="M267.96,427.29c-5.31,2.81,0.89,9.73,6.28,3.62"/>
<path id="path736" d="M262.73,429.95c-5.31,2.81,0.89,9.73,6.28,3.62"/>
<path id="path738" d="M289.7,421.65c-0.09,4.11,7.72,5.8,10.54-0.32"/>
<path id="path740" d="M294.61,425.44c-2.42,3.06,2.01,6.84,4.42,5.47"/>
<path id="path742" d="M284.22,424.87c-0.24,3.46,6.52,5.48,9.82,1.69"/>
<path id="path744" d="M287.93,428.5c-2.18,2.81,2.09,6.6,4.82,5.47"/>
<path id="path746" d="M279.72,428.01c0.24,2.74,4.1,5.88,8.29,4.11"/>
<path id="path748" d="M282.21,431.71c-1.61,1.45-0.8,4.84,1.45,5.88"/>
<path id="path750" d="M273.84,431.47c-0.64,2.5,3.62,6.93,7.97,4.03"/>
<path id="path752" d="M274.72,434.37c-2.57,2.01-2.25,5.07,1.05,5.47"/>
<path id="path754" d="M268.53,434.05c-0.33,1.69,1.85,4.42,4.59,4.1"/>
<path id="path756" d="M254.76,433.89c-2.57,1.36,4.03,8.37,8.13,1.85"/>
<path id="path758" d="M248.4,436.78c-3.22,1.54,4.75,9.26,8.3,1.37"/>
<path id="path760" d="M269.25,436.46c-2.49,0.56-4.1,4.19-2.01,5.64"/>
<path id="path762" d="M261.12,437.75c-0.32,1.45,2.74,3.86,5.23,2.98"/>
<path id="path764" d="M259.03,438.4c-2.42,1.52-1.13,5.79,1.69,5.15"/>
<path id="path766" d="M250.42,441.21c-2.26,1.69-0.73,5.07,2.41,4.27"/>
<path id="path768" d="M254.52,440.97c0.08,0.88,2.09,2.25,3.79,1.69"/>
<path id="path770" d="M242.61,439.52c-2.82,1.21-2.66,8.29,6.84,4.43"/>
<path id="path772" d="M236.25,442.34c-3.94,1.93-2.66,7.24,5.96,2.17"/>
<path id="path774" d="M242.93,444.92c-1.04,0.8-2.17,4.34,1.77,2.97"/>
<path id="path776" d="M235.69,446.6c-1.61,1.45-0.57,4.43,2.98,3.3"/>
<path id="path778" d="M227.4,447.09c-2.9,1.69,3.46,3.94,7.72-0.57"/>
<path id="path780" d="M229.33,449.18c-1.29,1.29-1.29,5.07,2.09,3.7"/>
<path id="path782" d="M221.12,450.71c-1.93,1.45,1.37,3.38,7.4,0.72"/>
<path id="path784" d="M223.53,452.8c-2.25,1.85-2.01,4.19,1.29,3.46"/>
<path id="path786" d="M216.85,453.85c-2.49,2.25,1.13,3.78,5.48,1.93"/>
<path id="path788" d="M216.93,456.35c-4.26,1.92-2.41,5.47,0.24,4.1"/>
<path id="path790" d="M359.4,468.66c-0.99,2.13,2.25,3.86,5.31,3.38,2.94-0.47,5.75-2.89,3.54-6.28"/>
<path id="path792" d="M368.41,469.95c2.9,2.25,8.05-0.33,8.05-3.71"/>
<g id="g794" fill="#fff">
<path id="path796" d="M545.97,128.83c-12.87-6.44-39.6-18.35-47.16-8.69,6.92-2.9,27.2,0.16,43.94,15.61l3.22-6.92z"/>
<path id="path798" d="M553.78,128.15c-14.89-17.35-23.66-13.46-34.37-19.44-10.06-5.61-26.08-6.76-29.18,2.17,14.69-7.16,28.19,3.85,36.47,5.18,11.39,1.83,17.81,10.63,21.14,14.67l5.94-2.58z"/>
<path id="path800" d="M609.88,125.93c-7.73-17.7-24.25-13.08-31.55-20.6-10.62-10.947-37.51-21.088-48.61-13.523,24.46-1.287,34.88,16.863,47.97,23.183,9.33,4.51,19.31,14.16,32.19,10.94z"/>
<path id="path802" d="M580.91,124c-13.2-16.42-33.49-30.905-42.82-25.431,12.23,0.643,16.09,9.171,24.79,14.651,8.69,5.47,4.83,13.36,18.03,10.78z"/>
<path id="path804" d="M518.12,152.98c-13.84-5.15-40.88-7.73-53.44,8.05,20.93,3.54,52.48,1.61,53.44-8.05z"/>
<path id="path806" d="M515.55,159.1c-13.85-6.44-24.66,2.55-37.67,1.28-24.79-2.41-42.5-0.96-44.75,10.95,14.17-12.72,37.99-2.25,47.65-4.83,9.66-2.57,45.39-0.32,56.66,4.51-5.79-7.08-14.81-9.02-21.89-11.91z"/>
<path id="path808" d="M559.01,122.23c-3.21-10.62-3.06-21.89,12.88-21.09-4.02-4.986-18.83-7.562-21.25,11.11-17.54-12.877-36.7-15.13-40.24-4.02,9.01-7.73,23.02-2.1,39.76,16.9,1.45-0.81,5.31-2.41,8.85-2.9z"/>
<path id="path810" d="M534.87,136.88c-9.98-6.44-23.51-16.9,0.16-21.09-10.14-5.47-24.96-3.06-23.34,15.62-27.05-10.95-46.47-7.25-50.55,3.54-4.51,11.91,12.23,18.51,15.13,10.95-3.06,1.28-13.52-2.26-8.05-9.02,5.48-6.76,33.53-1.68,60.21,12.24,7.4,3.86,32.84,3.22,6.44-12.24z"/>
<path id="path812" d="M527.78,154.59c-7.7-15.72-32.68-1.45-37.71-16.68-6.88,22.31,35.52,9.97,37.71,16.68z"/>
<path id="path814" d="M686.67,171.65c5.24,2.61,9.77-1.49,1.75-4.69,5.25,2.6,9.82-1.4,1.8-4.61,5.25,2.6,9.82-1.39,1.8-4.6-2.13,2.15-5.19,10.04-5.35,13.9z"/>
<path id="path816" d="M689.4,141.39c11.6-12.24-0.96-16.42,13.2-28.98,11.6-10.27,2.22-17.118,13.21-25.11,3.54-2.575,11.26-7.727,11.91-12.878,4.67,11.59-14.49,13.2-13.2,31.878,0.82,11.88-7.22,10.85-10.3,30.9-0.65,4.19-3.55,13.53-14.82,4.19z"/>
<path id="path818" d="M694.56,146.86c6.44-13.84,13.83-13.58,17.38-18.99,6.76-10.31,21.09,1.77,33.16-7.41-2.09,13.04-18.35,8.37-25.43,16.74s-12.88,12.24-25.11,9.66z"/>
<path id="path820" d="M696.17,151.37c11.27-9.02,19.57-3,27.36-7.73,19.64-11.91,27.53,2.42,45.08-3.22-4.67,11.27-30.59,1.61-41.86,9.98s-50.87,16.42-30.58,0.97z"/>
<path id="path822" d="M663.33,215.6c-0.16-5.15-4.99-11.75-11.76-12.56-6.75-0.8-9.65-7.88-14.8-8.21-5.15-0.32-8.54-10.62-15.62-10.46s-9.98,9.34,6.6,17.71,34.93,18.03,35.58,13.52z"/>
<path id="path824" d="M642.4,219.95c-7.08,0.32-8.05,10.62-14.81,10.94,9.33,4.99,16.1-2.25,20.93-8.69l-6.12-2.25z"/>
<path id="path826" d="M648.2,221.23c-6.12,5.16-7.89,15.94,0.96,19-5.31-7.32,9.34-10.62,4.83-17.39l-5.79-1.61z"/>
<path id="path828" d="M654.31,221.56c-4.83,9.33,7.57,10.46,4.35,17.54,7.08-1.61,8.21-14.97,1.77-18.51l-6.12,0.97z"/>
<path id="path830" d="M606.98,201.59c11.59-0.64,22.19,5.63,29.3,15.78,4.51,6.44,19.64,9.02,24.79,3.86,5.15-5.15,2.26-16.09-10.62-12.55-3.22-5.48-12.56-3.54-17.06-8.05-4.51-4.51-21.9-17.39-26.41,0.96z"/>
<path id="path832" stroke-linecap="round" d="M650.45,208.68c-3.06,0.64-4.03,5.95-2.1,8.69"/>
<path id="path834" stroke-linecap="round" d="M657.05,211.9c0.97,1.61,0.32,3.86-0.16,4.99"/>
<path id="path836" stroke-linecap="round" d="M625.34,202.08c5.95,0.32,7.08,4.67,13.52,6.28"/>
<path id="path838" d="M621.4,187.43c20.57,5.15,36.9,9.66,47.02,15.45,10.12,5.8,25.79,7.41,39.5,3.54,13.71-3.86,40.15-7.4,38.85,9.66,7.19-8.53-1.96-17.7-20.24-19.31,0.33-8.38-8.63-15.94-15.07-10.95,5.96-0.81,11.1,10.3-0.65,14.81,2.28-8.37-6.04-15.94-14.69-12.24,5.55,1.61,11.16,10.92-1.26,14.49-7.84,2.26-19.26-0.64-27.75-5.79s-56.15-23.83-45.71-9.66z"/>
<path id="path840" d="M673.31,179.06c-6.44,2.9-2.26,9.66-12.24,13.52s-16.9,12.72-14.65,20.28c6.77-14.81,18.68-14.16,22.86-19.96,4.19-5.79,10.31-14.32,4.03-13.84z"/>
<path id="path842" d="M675.08,180.02c-0.32,11.76-9.57,7.47-5.96,23.99,1.13,5.15,3.22,13.52-0.32,21.89,10.38-7.56,3.7-23.46,8.37-29.46,2.25-2.89,5.15-7.4,6.28-11.26-2.42,6.76-2.25,19.31,4.35,22.53-5.32-12.55,14.32-22.86,0.8-37.34-1.93,3.54-8.05,9.81-13.52,9.65z"/>
<path id="path844" d="M642.24,168.27c1.61,2.42,3.22,8.53,1.77,11.91,3.22-1.93,7.89-6.92,9.34-10.3,6.6,0.97,9.17,9.18,2.9,12.72,3.86,0,10.46,0,14.16-4.35-4.51-4.99-18.51-12.71-28.17-9.98z"/>
<path id="path846" d="M542.11,145.18c-1.04-0.95-2.8-1.86-5.96-2.5-9.74-2-4.71-10.79,3.59-10.71,17.7-19.32,27.64-4.43,49.21-10.54,7.55-2.14,12.74-1.51,16.85,0.27,9.66-6.44,20.99-4.64,29.2,2.93,0.91-1.46,2.14-2.56,3.86-3.04,7.56-2.1,13.68,4.35,15.77,12.72,5.89-1.1,12.63,1.82,17.06,5.85,6.13-3.15,10.36-3.29,11.91-0.05,5.47-2.58,12.57-4.19,16.11,4.5s-8.37,6.12-10.31,24.47c-1.19,11.32-13.84,15.77-23.82,9.01-15.97-10.81-31.55-12.55-39.28,3.87s-13.78,25.96-32.52,20.6c-6.76-1.93-15.45,0.64-20.92,8.05-5.48,7.4-13.85,0.48-23.83,1.29,12.56-1.93,7.75-5.09,18.68-5.8,9.98-0.64,7.4-9.98,13.84-11.27-25.11,6.44-24.15-2.89-44.75,3.55,9.01-11.6,23.18-5.16,30.26-11.92-18.67-0.32-27.02-12.52-35.41-7.4-13.2,8.05-7.41,30.96-41.86,28.97-16.74-0.96-27.37,1.29-37.34,11.27,17.38-36.06,41.03-16.25,52.47-27.69,6.77-6.76,11.92-11.91,15.46-18.35,1.24-2.26,2.93-3.56,5.04-4.06-28.65-9.02-11.32-23.06,16.69-24.02z"/>
<path id="path848" stroke-linecap="round" d="M683.59,140.11c0.44,0.91,0.66,2.08,0.66,3.53,0,7.09-10.62,7.41-11.26,17.87-0.34,5.47-0.97,8.53-4.67,7.89s-6.92-6.44-3.38-13.2"/>
<path id="path850" d="M547.42,134.63c-2.67-1.88-5.33-2.64-7.72-2.66"/>
<path id="path852" d="M605.74,121.65c8.53,3.69,12.68,12.54,25.07,12.98,11.92,0.42,19.32,17.71,39.28,6.44,0.54-0.31,1.07-0.59,1.58-0.86"/>
<path id="path854" d="M635,124.63c-1.78,2.82-2.18,6.77-1.7,10.24"/>
<path id="path856" d="M596.04,161.03c-15.13,0-19,7.73-19,15.13,0,7.41,7.08,17.06,19.64,17.06s19.32-7.72,19.32-16.09-7.73-16.1-19.96-16.1z"/>
<path id="path858" d="M598.77,192.9c-0.32-4.18-7.88-3.54-7.56-6.76s4.19-4.51,4.19-9.01c0-4.51,6.75-4.83,9.01-1.29,2.25,3.54,9.01,10.46,10.46,6.92"/>
<path id="path860" d="M604.41,175.84c-3.54,3.54-5.15,10.78-0.49,16.42"/>
<path id="path862" d="M609.24,181.31c-1.13,2.42-1.45,6.12-0.16,8.37"/>
</g>
<path id="path864" d="M669.36,169.48c11.84,0.97,13.85-12.07,4.99-12.88"/>
<path id="path866" d="M654.8,134.31c-4.11-5.24-13.53-7.01-13.69,4.1"/>
<path id="path868" d="M639.99,151.05c-4.03-9.98-14.33-11.43-19.81-6.44-4.55,4.15-4.66,14.97,5.16,17.22,3.38-4.02,9.98-9.33,14.65-10.78z" fill="#fff"/>
<path id="path870" d="M635.56,144.77c-5.8-5.15-14.33,4.59-6.6,13.52" fill="#fff"/>
<path id="path872" stroke="none" d="M654.8,134.31c-3.55-3.79-11.27-0.81-9.1,6.84,1.69-3.54,5.31-6.52,9.1-6.84z" fill="#000"/>
<path id="path874" stroke="none" d="M632.91,154.93c2.44-1.77,4.96-3.22,7.08-3.88-1.16-2.87-2.83-5.03-4.76-6.54-1.84-1.27-7.13,5.85-2.32,10.42z" fill="#000"/>
<g id="g876" stroke-linecap="round">
<path id="path878" d="M623.4,141.87c-5.79-3.86-11.1-3.54-12.88-0.32-4.18-0.16-7.64,2.9-7.8,9.01"/>
<path id="path880" d="M611.65,153.14c-6.92-4.75-16.42-2.98-15.77,7.65"/>
<path id="path882" d="M591.69,166.82c3.38-2.73,8.21-4.66,11.91,0.16"/>
<path id="path884" d="M643.37,156.36c-1.29,1.77-2.26,4.51-0.17,8.69-2.57-3.38-9.01-3.38-15.93,5.64"/>
<path id="path886" d="M658.66,155.88c-8.37,0.96-8.21,6.44-1.45,8.85"/>
<path id="path888" d="M599.1,135.43c-7.09-1.45-12.24,2.74-2.42,6.28"/>
<path id="path890" d="M612.62,130.6c-9.98-2.41-14.01,0.16-9.5,2.42"/>
<path id="path892" d="M583.8,170.69c-0.32,3.54,1.61,8.21,7.41,2.89"/>
<path id="path894" d="M585.74,181.31c0,0.97-0.17,2.09-0.81,2.9"/>
<path id="path896" d="M562.55,134.14c-6.11-1.77-7.24-7.4-0.15-6.92"/>
<path id="path898" d="M560.46,147.18c-6.76-2.25-6.76-8.85-1.13-8.21"/>
<path id="path900" d="M573.02,143.8c-7.89-1.93-8.21-7.4-2.25-6.6"/>
<path id="path902" d="M573.98,127.06c-4.18-0.32-10.62,4.35,0.17,7.08"/>
<path id="path904" d="M585.74,136.4c-9.82-1.45-9.66,2.57-3.87,5.15"/>
<path id="path906" d="M593.14,127.06c-7.57-1.45-10.14,3.06-4.99,4.99"/>
<path id="path908" d="M569.32,154.91c-1.86-1.53-3.38-8.85,5.47-6.68"/>
<path id="path910" d="M587.67,152.66c-5.96-1.61-11.59,4.18-6.12,7.56"/>
<path id="path912" d="M595.55,145.74c-6.27-1.13-11.58,0.64-8.2,2.89"/>
</g>
<path id="path914" d="M525.31,169.16c3.88-0.92,9.55,0.98,18.25,5.07,5.47,2.57,21.89,8.05,32.19,2.57-10.62,3.87-18.67-12.23-26.72-10.3s-22.78,4.91-28.97-0.96c15.13,0.96,23.26-11.03,40.56-0.65,4.83,2.9,10.95,4.83,16.42,4.51-14.16-17.06-32.84-6.12-34.77-19.96,8.53,9.17,29.38-2.1,40,15.13" fill="#fff"/>
<path id="path916" d="M654.46,134.31c-3.54,0.65-6.71,2.73-8.76,6.84" fill="#fff"/>
<path id="path918" d="M545.33,152.01c-1.99-2.48-1.09-4.95-3.23-6.91" fill="#fff"/>
</g>
</svg>
