<?xml version="1.0" encoding="UTF-8" standalone="no"?>
<svg id="svg2" xmlns:rdf="http://www.w3.org/1999/02/22-rdf-syntax-ns#" xmlns="http://www.w3.org/2000/svg" height="450" width="900" version="1.1" xmlns:cc="http://creativecommons.org/ns#" xmlns:xlink="http://www.w3.org/1999/xlink" viewBox="0 0 1098 549" xmlns:dc="http://purl.org/dc/elements/1.1/">
<metadata id="metadata26">
<rdf:RDF>
<cc:Work rdf:about="">
<dc:format>image/svg+xml</dc:format>
<dc:type rdf:resource="http://purl.org/dc/dcmitype/StillImage"/>
<dc:title>Flag of Belarus</dc:title>
</cc:Work>
</rdf:RDF>
</metadata>
<title id="title4">Flag of Belarus</title>
<rect id="rect6" width="1098" height="549" fill="#C8313E"/>
<rect id="rect8" y="366" width="1098" height="183" fill="#4AA657"/>
<rect id="rect10" width="122" height="549" fill="#FFF"/>
<g id="h">
<g id="q" fill-rule="evenodd" transform="scale(5.304347826,9)" fill="#C8313E">
<path id="path14" d="M4,0h3v1h1v1h1v1h1v1h1v1h-1v1h-1v1h-1v1h-1v1h-1v1h-1v-1h-1v-1h-1v-1h-1v-1h-1v-1h-1v-1h1v-1h1v-1h1v-1h1zm1,2h1v1h1v1h1v1h-1v1h-1v1h-1v-1h-1v-1h-1v-1h1v-1h1zm0,2h1v1h-1zm-5-3h1v1h-1zm0,6h1v1h-1zm11-7h0.6v2h-0.6zm0,7h0.6v2h-0.6zm-9,2h1v1h1v1h1v1h-1v1h-1v1h-1v-1h-1v-1h-1v-1h1v-1h1zm0,2h1v1h-1zm6-2h1v1h1v1h1v1h-1v1h-1v1h-1v-1h-1v-1h-1v-1h1v-1h1zm0,2h1v1h-1zm-8,4h1v1h-1zm11-1h0.6v2h-0.6z"/>
<path id="path16" d="M0,18h1v-1h1v-1h1v-1h1v-1h1v-1h1v1h1v1h1v1h1v1h1v1h1v1h0.6v4h-0.6v1h-1v1h-1v1h-1v1h-1v1h-1v2.6h-2v-0.6h-1v-1h-1v-1h-1v-1h-1v-3h1v1h1v1h1v1h1v-1h1v-1h1v-1h1v-1h1v-1h1v-1h-1v-1h-1v-1h-3v1h2v1h-1v1h-1v1h-1v-1h-1v-1h-1v-1h-1zm0,4h1v1h-1zm11,3h0.6v1h-0.6zm-2,2h1v1h1v1h0.6v1.6h-0.6v-0.6h-1v-1h-1zm-2,3h1v0.6h-1z"/>
</g>
<use id="use18" xlink:href="#q" transform="translate(122,0) scale(-1,1)"/>
</g>
<use id="use20" xlink:href="#h" transform="translate(0,549) scale(1,-1)"/>
</svg>
