<?xml version="1.0" encoding="UTF-8" standalone="no"?>
<!-- Created with Inkscape (http://www.inkscape.org/) -->
<svg id="svg5778" xmlns:rdf="http://www.w3.org/1999/02/22-rdf-syntax-ns#" xmlns="http://www.w3.org/2000/svg" viewBox="0 0 600 300" version="1.0" xmlns:cc="http://creativecommons.org/ns#" xmlns:dc="http://purl.org/dc/elements/1.1/">
<metadata id="metadata5783">
<rdf:RDF>
<cc:Work rdf:about="">
<dc:format>image/svg+xml</dc:format>
<dc:type rdf:resource="http://purl.org/dc/dcmitype/StillImage"/>
<dc:title/>
</cc:Work>
</rdf:RDF>
</metadata>
<g id="layer1">
<rect id="rect5930" style="fill-rule:evenodd;fill:#008000;" height="300" width="600" y="0.0000023706" x="0"/>
<path id="path5927" style="fill-rule:evenodd;fill:#ffe000;" d="M119.53,62.039a46.123,46.123,0,1,1,-92.246,0,46.123,46.123,0,1,1,92.246,0z" transform="matrix(1.415289,0,0,1.415289,-1.115035,-0.303262)"/>
<path id="path5923" style="stroke-linejoin:miter;fill-rule:evenodd;stroke:#7b3100;stroke-linecap:butt;stroke-miterlimit:4;stroke-dasharray:none;stroke-width:1.38888896;fill:#802000;" d="M98.458,136.87h16.352s0.74-1.5-0.17-2.25c-0.9-0.75-4.42-0.91-3.47-3.56,1.96-5.45,2.23-3.77,3.46-16.71,1.22-12.95,1.81-33.247,1.81-33.247h-2.36s0.45,6.313-0.91,14.533c-1.36,8.224-1.77,8.944-3.27,15.254-1.5,6.32-1.72,6.86-3.09,10.54-1.36,3.68-1.49,3.86-3.63,7.27-2.13,3.4-1.36,2.13-2.54,4.18-0.59,1.02-1.319,0.74-1.716,1.49-0.398,0.74-0.466,2.5-0.466,2.5z"/>
<g id="g596" style="font-size:12px;fill:#ffe000;" transform="matrix(5,0,0,5,0,-1.481079e-5)">
<polygon id="polygon590" style="fill-rule:evenodd;fill:#ffe000;" points="90,45.714,90.826,48.284,93.351,47.328,91.857,49.576,94.178,50.954,91.489,51.188,91.86,53.861,90,51.905,88.14,53.861,88.511,51.188,85.822,50.954,88.143,49.576,86.649,47.328,89.174,48.284,90,45.714"/>
<polygon id="polygon592" style="fill-rule:evenodd;fill:#ffe000;" points="90,5.7143,90.826,8.2839,93.351,7.3279,91.857,9.5762,94.178,10.954,91.489,11.188,91.86,13.861,90,11.905,88.14,13.861,88.511,11.188,85.822,10.954,88.143,9.5762,86.649,7.3279,89.174,8.2839,90,5.7143"/>
<polygon id="polygon593" style="fill-rule:evenodd;fill:#ffe000;" points="75,21.964,75.826,24.534,78.351,23.578,76.857,25.826,79.178,27.204,76.489,27.438,76.86,30.111,75,28.155,73.14,30.111,73.511,27.438,70.822,27.204,73.143,25.826,71.649,23.578,74.174,24.534,75,21.964"/>
<polygon id="polygon594" style="fill-rule:evenodd;fill:#ffe000;" points="103.33,17.964,104.16,20.534,106.68,19.578,105.19,21.826,107.51,23.204,104.82,23.438,105.19,26.111,103.33,24.155,101.47,26.111,101.84,23.438,99.155,23.204,101.48,21.826,99.983,19.578,102.51,20.534,103.33,17.964"/>
<polygon id="polygon595" style="fill-rule:evenodd;fill:#ffe000;" points="96,30,96.653,31.601,98.378,31.728,97.057,32.843,97.47,34.522,96,33.611,94.53,34.522,94.943,32.843,93.622,31.728,95.347,31.601,96,30"/>
</g>
<path id="path5893" style="fill-rule:evenodd;fill:#ffe000;" d="M300,87.5c-34.5,0-62.5,28-62.5,62.5s28,62.5,62.5,62.5c16.17,0,30.78-6.31,41.88-16.41-0.81,0.4-1.54,0.95-2.38,1.31-3.08,1.3-6.29,2.31-9.64,2.99-3.35,0.69-6.82,1.04-10.37,1.04s-7.03-0.35-10.38-1.04c-3.34-0.68-6.55-1.69-9.63-2.99-3.08-1.31-5.99-2.93-8.72-4.78-2.74-1.85-5.32-3.92-7.64-6.25-2.33-2.33-4.45-4.9-6.3-7.64-1.85-2.73-3.43-5.65-4.73-8.72-1.3-3.08-2.31-6.29-2.99-9.64-0.69-3.34-1.04-6.82-1.04-10.37s0.35-7.03,1.04-10.37c0.68-3.35,1.69-6.56,2.99-9.64,1.3-3.07,2.88-5.99,4.73-8.72,1.85-2.74,3.97-5.31,6.3-7.64,2.32-2.33,4.9-4.4,7.64-6.25,2.73-1.85,5.64-3.47,8.72-4.78,3.08-1.3,6.29-2.31,9.63-2.991,3.35-0.685,6.83-1.041,10.38-1.041s7.02,0.356,10.37,1.041c3.35,0.681,6.56,1.691,9.64,2.991,0.84,0.36,1.57,0.91,2.38,1.31-11.1-10.097-25.71-16.41-41.88-16.41z"/>
<path id="path5908" style="fill-rule:evenodd;fill:#008000;" d="M110.94,39.8c0.13,2.54-0.12,5.901-1.17,8.638-1.07,3.048-2.23,6.087-2.17,9.244-1.7,0.577-3.45-3.671-5.08-1.172,1.22,3.454,4.06,6.188,6,9.3,0.33,0.964,3.12,3.483,1.51,4.068-4.08-1.396-5.07-6.565-7.6-9.705-2.943-5.283-8.423-9.017-14.528-9.275-2.293,0.06-9.749-0.568-7.809,3.358,2.857,1.943,6.377,3.209,9.199,5.389,2.101,0.197,5.911,3.706,5.689,5.031-3.697-1.497-5.427-3.291-9.409-4.866-5.397-2.084-12.861-0.831-15.849,4.525-0.557,1.395-1.379,5.46,0.372,5.847,2.047-3.195,4.975-6.767,9.313-5.809,3.407,0.266-3.802,6.348-1.044,5.124,0.873-0.388,2.891-1.713,4.291-1.851s2.182,0.91,3.244,1.055c2.124,0.29,2.709,1.18,2.512,1.698-0.232,0.612-0.907,0.09-3.066,0.774-1.08,0.343-1.644,1.292-2.903,1.726-1.26,0.434-3.88,0.465-4.859,0.08-3.425-1.488-9.041-1.229-10.109,3.063-0.001,1.888-1.68-0.208-2.457,0.607-0.582,2.06-0.732,4.175-3.787,3.988-1.855,1.945-3.754,3.96-6.108,5.344,1.381,3.172,6.857-3.186,6.601-0.505-2.394,3.264,1.231,3.951,2.818,1.438,2.684-2.835,6.008-6.287,10.012-3.429,1.908,1.796,3.016-0.95,4.397-0.803,0.869,2.231,1.964,0.11,2.951-0.521,1.616-0.201,1.161,2.019,3.082,0.652,3.827-2.533,8.535-0.405,12.273-2.869,3.984-1.813,0.559,1.46-0.539,2.739-1.749,3.392-0.232,7.844-4.025,9.949-1.523,4.042,1.8,9.368-1.59,12.358-0.493,1.88,4.36,1.66,5.721,2.43,2.387,0.1-0.102-5.46,2.266-6.2,3.171,1.96,3.031-3.52,2.371-5.21,0.31-3.842,0.52-8.044,2.43-11.524,2.03-4.265,3.91,1.737,1.64,3.426-1.29,3.923-3.17,8.831-0.23,12.478,0.84,0.19,1.54,2.24,2.63,2.87,1.1,0.63,2.59-0.16,2.86-2.02,1.41-5.622,0.7-11.663,2.71-17.125,1.41-1.693,3.37-0.273,4.25,1.283,2.81,3.264,4.78,7.344,8.19,10.033,3.1,1.45,5.84,3.644,7.26,6.839-0.01,2.46,7,2.83,4.9,0.1-2.01-2.665-0.68-5.33,1.35-7.101,1.09,0.269,0.77-1.684-0.08-0.911-1.37-0.323-1.46-2.828,0.44-1.638,3.21,1.035-0.25-2.319-1.41-2.422-2.71-1.679-5.82-3.611-7.15-6.531,3.53,0.036,7.19,1.939,10.79,0.759,2.89-1.485,5.82,0.124,6.83,2.67,2.23-0.356,1.28-2.596,0-3.342,1.64-0.674,2.76-2.072,0.78-3.304-1.04-1.365,1.41-3.694-1.6-3.597,0.1-2.299-0.81-4.403-3.32-5.197-2.51-2.126-9.87,3.132-9.66-1.66-0.74-2.609,2.99-0.349,4.04-1.65,1.07-2.749-5.14-2.481-3.09-4.613,1.34-0.863,7.63-2.102,2.7-3.025-2.47,0.677-4.58,0.176-6.52-1.042-1.76,2.952-6.8-1.604-5.9,3.646-0.69,1.978-5.2,7.117-6.42,3.18,1.04-3.087,6.38-4.096,4.72-8.256-0.25-2.598-2.4,0.451-3.42,0.258-0.51-1.617,1.55-3.523,3-3.906,2.85,2.199,2.94-2.775,5.66-2.371,1.99-0.441-0.64-1.292-1.19-1.666,0.54-1.453,3.59-2.196,0.6-3.458-2.64-1.957-4.59,1.948-6.77,2.156-2.08-2.357,1.9-3.49,3-4.731,0.06-0.925-2.32-0.279-1.61-1.085,0.62-1.112,4.84-1.195,2.87-2.865-2.98-1.021-6.82-0.766-9.67,0.557-1.8,0.582-2.33,4.647-3.88,4.478-0.72-1.809,0.24-5.379-2.25-5.903zm14.06,39.714c2.27-0.384,0.05,3.441-1.04,3.385,0.09-1.374-3.28-1.242-1.19-2.439,0.68-0.439,1.44-0.773,2.23-0.946z"/>
</g>
</svg>
