<?xml version="1.0" encoding="UTF-8" standalone="no"?>
<!-- Created with Inkscape (http://www.inkscape.org/) -->
<svg id="svg697" xmlns:rdf="http://www.w3.org/1999/02/22-rdf-syntax-ns#" xmlns="http://www.w3.org/2000/svg" viewBox="0 0 1000 500" version="1.0" xmlns:cc="http://creativecommons.org/ns#" xmlns:dc="http://purl.org/dc/elements/1.1/">
<metadata id="metadata18">
<rdf:RDF>
<cc:Work rdf:about="">
<dc:format>image/svg+xml</dc:format>
<dc:type rdf:resource="http://purl.org/dc/dcmitype/StillImage"/>
<dc:title/>
</cc:Work>
</rdf:RDF>
</metadata>
<g id="g4031" transform="matrix(1.007936,0,0,1.007936,0,3.844975e-5)">
<rect id="rect3447" style="stroke-width:1pt;fill-rule:evenodd;fill:#0021ad;" height="496.06" width="992.13" y="0" x="0"/>
<path id="path3446" style="fill-rule:evenodd;fill:#1c8a42;" d="M0.000001236-0.000038147l992.13,496.06-0.57-495.69-991.56-0.36751z"/>
<path id="path733" style="fill-rule:evenodd;fill:#ffc639;" d="M227.5,97.284a34.922,34.922,0,1,1,-69.84,0,34.922,34.922,0,1,1,69.84,0z" transform="matrix(2.566054,0,0,2.566053,2.886167,-1.874863)"/>
<path id="path732" style="fill-rule:evenodd;fill:#1c8a42;" d="M441.34,207.78c6.13,8.41,15.42,22.51,22.89,18.83,5.83,0.02,8.84,0.43,9.63,4.31,13.75,2.34,36.86-3.46,51.24-22.19,0,0,1.21,0.16,0.79-6.96,0.08-3.1,4.24-2.48,4.34-1.47,0.58,1.54,0.48,2.69,1.26,2.73,1.77-0.59,4.19-4.56,6.22-7.08,0.55-1.11,0.25-2.28,0.38-3.68,1.07-2.63,3.74-2.06,4.3-0.68,0.51,0.89,0.52,1.57,1.02,2.46,2.71,1.81,7.6,0.12,7.98,0.12,0.48-2.21,1.9-2,1.9-2,1.81-0.4,1.1-0.24,2.29,0.38-1.05,11.91,2.34,12.44,2.06,18.55,0.12,6.82-2.06,8.76-2.06,11.36,0.69,3.18,10.75,3.29,7.21,5.98-3.11,1.66,0.01,4.77-4.67,5.98-13.62,6.91-16.23,12.84-16.23,12.84s-3.42,6.46-3.8,6.46c-2.28,4.31-5.17,1.96-6.78,4.06-0.8,2.64-1.7,8.49-0.1,11.53,0.8,4.18-0.1,6.46-1.1,10.64-0.9,8.72-4.36,10.04-4.76,13.1-1.6,3.27,0.34,18.63-1.18,18.63-10.14,0.2-17.91-1.94-21.92-2.74,3.91-16.85,2.39-31.65,2.39-33.17-1-12.05-18.05-9.12-20.66-10.72-2.16-0.46-3.52-2.22-4.28-2.98-2.41-0.26-3.31-0.81-5.72-1.06-1.2,0.6-0.48,1.22-3.16,2.05-6.8,0.82-9.8-5.93-9.8-5.93,0.33-2.27-15.29,0.46-23.78-1.51-3.48,1.94-5,7.68-7.85,8.36-0.08,1.78-4.69-1.46-5.62-3.21-0.19-5.09,4.44-7.34,4.44-7.34,3.68-2.59,5.86-3.01,7.63-4.8,0.89-4.43,0.44-7.71,2.33-11.04,1.6-2.54,3.96-1.35,5.56-2.49,1.72-1.14,2.45-8.6,0.86-10.64,0,0-6.88-6.21-7.26-6.59-2.24-6.42,2.62-10.56,4.01-10.09z"/>
<path id="path3443" style="fill-rule:evenodd;fill:#ffc639;" d="M871.02,96.787c-4.06-16.066-40.4-50.669-67.71-72.688-6.52-4.442-10.77-1.796-9.92,4.537,3.4,5.671,5.95,11.906,9.35,17.577,0.95,3.78,2.74,6.426,3.69,10.205,0,0,0.28,6.521,0.85,7.088,8.5,9.359,9.64,17.295,9.64,17.295,4.91,9.451,9.26,16.348,17.86,24.099,9.64,6.05,2.55,24.85,2.83,34.87,0,6.33-4.53,5.58-8.5,4.82-31.28-28.73-62.28-28.82-89.59-37.14-10.68-1.13-10.87,3.97-7.37,6.8,19.09,20.42,37.04,34.31,60.67,45.93,3.97,2.46,7.94,4.92,11.91,7.38,4.53,3.78,9.07,7.56,13.6,11.34,10.49,6.8,11.35,13.04,11.35,13.6,0.28,12.76-6.53,22.68-8.51,26.65-3.58,13.53-10.77,15.88-10.77,15.88-58.41,39.41-89.03,49.61-183.72,37.42-1.42-0.75-10.49,0.76,0,4.54,24.1,8.03,83.3,20.91,140.57-6.21,13.75-9.64,22.95-6.48,32.91-12.25,16.36-10.09,39.72-22.65,43.97-24.06,12.76-6.81,48.48-14.46,56.71-21.27,9.44-0.76,19.24-2,19.9-10.12,3.1-2.01,7.64-0.54,11.01-7.16,7.49-1.3,6.23-3.98,6.23-3.98-1.89-5.29-8.89-7.47-13.89-11.34-7.38-2.46-12.48-3.22-17.87-0.57-1.7,0.76-3.4,1.51-5.1,2.27,0,0-7.94-1.14-7.94-1.7-17.64-0.97-15.92-59.43-22.16-83.813z"/>
<path id="path3445" style="fill-rule:evenodd;fill:#1c8a42;" d="M354.38,73.886a2.0703,1.3672,0,1,1,-4.15,0,2.0703,1.3672,0,1,1,4.15,0z" transform="matrix(2.007221,0.63038,-0.674064,1.877137,250.8724,-169.601)"/>
<path id="polygon3451" style="stroke-width:1pt;fill-rule:evenodd;fill:#ffffff;" d="M73.826,356.02l-13.802-12.92-13.968,12.74,1.497-18.84-18.671-2.98,15.668-10.58-9.315-16.45,18.042,5.65,7.055-17.54,6.83,17.63,18.113-5.42-9.526,16.33,15.531,10.78-18.708,2.74,1.254,18.86z" transform="matrix(0.916571,0,0,0.91657,119.0079,-136.8826)"/>
<path id="polygon3461" style="stroke-width:1pt;fill-rule:evenodd;fill:#ffffff;" d="M159.76,320.13l-12.93-8.85-12.59,9.33,4.43-15.03-12.77-9.09,15.67-0.43,4.69-14.96,5.26,14.77,15.67-0.15-12.42,9.56,4.99,14.85z" transform="matrix(1.05522,0,0,1.02765,62.97,3.91022)"/>
<path id="polygon1880" style="stroke-width:1pt;fill-rule:evenodd;fill:#ffffff;" d="M73.826,356.02l-13.802-12.92-13.968,12.74,1.497-18.84-18.671-2.98,15.668-10.58-9.315-16.45,18.042,5.65,7.055-17.54,6.83,17.63,18.113-5.42-9.526,16.33,15.531,10.78-18.708,2.74,1.254,18.86z" transform="matrix(0.916571,0,0,0.91657,226.5818,-52.52496)"/>
<path id="polygon1881" style="stroke-width:1pt;fill-rule:evenodd;fill:#ffffff;" d="M73.826,356.02l-13.802-12.92-13.968,12.74,1.497-18.84-18.671-2.98,15.668-10.58-9.315-16.45,18.042,5.65,7.055-17.54,6.83,17.63,18.113-5.42-9.526,16.33,15.531,10.78-18.708,2.74,1.254,18.86z" transform="matrix(0.916571,0,0,0.91657,7.824602,-14.63)"/>
<path id="polygon1883" style="stroke-width:1pt;fill-rule:evenodd;fill:#ffffff;" d="M73.826,356.02l-13.802-12.92-13.968,12.74,1.497-18.84-18.671-2.98,15.668-10.58-9.315-16.45,18.042,5.65,7.055-17.54,6.83,17.63,18.113-5.42-9.526,16.33,15.531,10.78-18.708,2.74,1.254,18.86z" transform="matrix(0.916571,0,0,0.91657,121.5094,130.0597)"/>
</g>
</svg>
