<?xml version="1.0" encoding="UTF-8" standalone="no"?>
<!-- Created with Sodipodi ("http://www.sodipodi.com/") -->
<svg id="svg676" xmlns:rdf="http://www.w3.org/1999/02/22-rdf-syntax-ns#" xmlns="http://www.w3.org/2000/svg" viewBox="0 0 1000 500" version="1.0" xmlns:cc="http://creativecommons.org/ns#" xmlns:xlink="http://www.w3.org/1999/xlink" xmlns:dc="http://purl.org/dc/elements/1.1/">
<metadata id="metadata2448">
<rdf:RDF>
<cc:Work rdf:about="">
<dc:format>image/svg+xml</dc:format>
<dc:type rdf:resource="http://purl.org/dc/dcmitype/StillImage"/>
<dc:title/>
</cc:Work>
</rdf:RDF>
</metadata>
<defs id="defs678">
<linearGradient id="linearGradient1104">
<stop id="stop1105" style="stop-color:#a43907;stop-opacity:0.996078;" offset="0"/>
<stop id="stop1106" style="stop-color:#ffffff;" offset="1"/>
</linearGradient>
<linearGradient id="linearGradient8810" y2="577.14" xlink:href="#linearGradient1104" gradientUnits="userSpaceOnUse" x2="470.9" gradientTransform="scale(1.00276,0.997247)" y1="592.2" x1="444.4"/>
<linearGradient id="linearGradient8812" y2="552.83" xlink:href="#linearGradient1104" gradientUnits="userSpaceOnUse" x2="520.55" gradientTransform="scale(0.936361,1.067964)" y1="562.51" x1="458.24"/>
<linearGradient id="linearGradient8814" y2="580.2" xlink:href="#linearGradient1104" gradientUnits="userSpaceOnUse" x2="445.28" gradientTransform="scale(1.00276,0.997247)" y1="578.68" x1="472.38"/>
<linearGradient id="linearGradient8816" y2="558.12" xlink:href="#linearGradient1104" gradientUnits="userSpaceOnUse" x2="456.44" gradientTransform="scale(0.936361,1.067964)" y1="553.74" x1="517.97"/>
<linearGradient id="linearGradient8818" y2="369.94" xlink:href="#linearGradient1104" gradientUnits="userSpaceOnUse" x2="646.19" y1="369.94" x1="851.78"/>
<linearGradient id="linearGradient8820" y2="508.75" xlink:href="#linearGradient1104" gradientUnits="userSpaceOnUse" x2="677.4" gradientTransform="scale(0.822751,1.215435)" y1="507.23" x1="388.53"/>
<linearGradient id="linearGradient8822" y2="505.86" xlink:href="#linearGradient1104" gradientUnits="userSpaceOnUse" x2="556.8" gradientTransform="scale(0.835083,1.197486)" y1="504.94" x1="579.84"/>
<linearGradient id="linearGradient8824" y2="514.33" xlink:href="#linearGradient1104" gradientUnits="userSpaceOnUse" x2="558.88" gradientTransform="scale(0.822751,1.215435)" y1="512.01" x1="581.43"/>
<linearGradient id="linearGradient8826" y2="503.9" xlink:href="#linearGradient1104" gradientUnits="userSpaceOnUse" x2="589.77" gradientTransform="scale(0.835083,1.197486)" y1="517.88" x1="552"/>
</defs>
<rect id="rect124" style="stroke-width:1pt;fill:#00247d;" transform="matrix(1.007937,0,0,1.007937,-2.09e-4,5.75e-4)" height="496.06" width="992.13" y="-0.00069" x="0"/>
<rect id="rect5476" style="fill-rule:evenodd;fill:#00247d;" transform="translate(-181.6977,-285.1458)" height="250" width="500" y="285.15" x="181.7"/>
<g id="g584" style="font-size:12px;" transform="matrix(8.33334,0,0,8.333334,-2.09e-4,8.67e-4)">
<path id="path146" style="fill:white;" d="M0,0v3.3541l53.292,26.646h6.708v-3.354l-53.292-26.646h-6.7082zm60,0v3.354l-53.292,26.646h-6.7082v-3.354l53.292-26.646h6.708z"/>
<path id="path136" style="fill:white;" d="M25,0v30h10v-30h-10zm-25,10v10h60v-10h-60z"/>
<path id="path141" style="fill:#cf142b;" d="M0,12v6h60v-6h-60zm27-12v30h6v-30h-6z"/>
<path id="path150" style="fill:#cf142b;" d="M0,30l20-10h4.472l-20,10h-4.4721zm0-30l20,10h-4.472l-15.528-7.7639v-2.2361zm35.528,10l20-10h4.472l-20,10h-4.472zm24.472,20l-20-10h4.472l15.528,7.764v2.236z"/>
</g>
<g id="g8971" transform="translate(1.5625e-2,1.005398)">
<path id="path10718" style="stroke-linejoin:miter;fill-rule:evenodd;stroke:white;stroke-linecap:butt;stroke-miterlimit:4;stroke-dasharray:none;stroke-width:10;fill:url(#linearGradient8810);" d="M670.97,321.56c-0.74,0.01-1.44,0.09-2.03,0.19-3.39,0.59-8.74,11.63-11.69,18.09-4.62,5.65-7.09,10.03-9.03,13.28-0.76,1.27-1.92,2.73-1.56,4.41-7,1.72-7.35,7.73-7.35,10.06,0,2.48,0.78,3.72,0.78,3.72l4.19,7.85,0.03,0.09c4.46,9.22,11.06,21.63,14.75,22.66,5.24,1.46,18.82-3.55,29-12.16,16.69,6.87,38.07,12.56,61.97,12.56s45.25-5.69,61.94-12.56c10.18,8.61,23.76,13.62,29,12.16,3.7-1.04,10.32-13.53,14.78-22.75l4.19-7.85s0.78-1.24,0.78-3.72c0-2.33-0.38-8.34-7.38-10.06,0.35-1.68-0.77-3.14-1.53-4.41-1.95-3.27-4.42-7.7-9.09-13.4-2.97-6.48-8.29-17.38-11.66-17.97-4.74-0.83-14.97,1.58-14.97,2.41,0,0.02-0.05,0.44-0.06,0.5l-20.53,19.4c0,0.56,1.09,14.6,4.94,27-13.75,5.01-30.63,8.53-50.41,8.53-19.79,0-36.71-3.52-50.47-8.53,3.85-12.4,4.97-26.44,4.97-27l-20.53-19.4c-0.01-0.06-0.06-0.48-0.06-0.5,0-0.73-7.83-2.68-12.97-2.6zm5.25,24.1c2.58-0.04,5.33,2.09,7.59,4.46-0.08,0.47-0.15,0.95-0.25,1.38-0.62,2.87-1.69,6.66-3.18,10.62-5.88-3.42-10.66-6.99-14.32-10.31,2.23-2.37,5.81-5.59,9.6-6.12,0.18-0.03,0.37-0.03,0.56-0.03zm147.56,0c0.19,0,0.38,0,0.56,0.03,3.79,0.53,7.4,3.75,9.63,6.12-3.66,3.33-8.46,6.91-14.35,10.35-1.49-3.97-2.56-7.78-3.18-10.66-0.1-0.43-0.17-0.91-0.25-1.38,2.26-2.38,5-4.5,7.59-4.46zm-166,27.37c2.73,2.09,6.3,4.48,10.6,7-1.2,0.76-2.46,1.32-3.79,1.63-1.76,0.41-3.62,0.33-5.5-0.07-0.58-1.45-1.08-3.27-1.21-5.71-0.06-1.02-0.09-1.97-0.1-2.85zm184.47,0c-0.01,0.88-0.07,1.83-0.13,2.85-0.13,2.44-0.6,4.26-1.18,5.71-1.88,0.4-3.77,0.48-5.53,0.07-1.33-0.31-2.56-0.87-3.75-1.63,4.3-2.52,7.86-4.91,10.59-7z" transform="translate(-1.5625e-2,-1.005398)"/>
<path id="path8617" d="M445.63,595.48s5.62-8.75,10.31-8.12c4.69,0.62,9.06,6.25,9.38,6.56,0.31,0.31,7.18-7.19,6.87-7.5s-7.19-16.56-10.94-17.19c-3.75-0.62-11.84,1.2-11.84,1.82,0,0.63-3.78,24.43-3.78,24.43z" style="stroke-linejoin:miter;fill-rule:evenodd;stroke:black;stroke-linecap:butt;stroke-miterlimit:4;stroke-dasharray:none;stroke-width:1.15997541;fill:url(#linearGradient8810);" transform="matrix(-1.264589,0,0,1.322317,1252.229,-431.9785)"/>
<path id="path8619" d="M433.13,586.11c0,0.62,1.87,23.75,10,31.87,8.12,8.13,21.25,13.13,25.94,11.88,4.68-1.25,15.31-24.69,15.31-24.69s-11.25,11.25-19.69,9.38c-8.44-1.88-13.44-15.94-15-22.82-1.56-6.87-0.31-20.31-0.31-20.31l-16.25,14.69z" style="stroke-linejoin:miter;fill-rule:evenodd;stroke:black;stroke-linecap:butt;stroke-miterlimit:4;stroke-dasharray:none;stroke-width:1.15997541;fill:url(#linearGradient8812);" transform="matrix(-1.264589,0,0,1.322317,1252.229,-431.9785)"/>
<path id="path1097" transform="matrix(1.264589,0,0,1.322317,247.762,-431.9785)" style="stroke-linejoin:miter;fill-rule:evenodd;stroke:black;stroke-linecap:butt;stroke-miterlimit:4;stroke-dasharray:none;stroke-width:1.15997541;fill:url(#linearGradient8814);" d="M445.63,595.48s5.62-8.75,10.31-8.12c4.69,0.62,9.06,6.25,9.38,6.56,0.31,0.31,7.18-7.19,6.87-7.5s-7.19-16.56-10.94-17.19c-3.75-0.62-11.84,1.2-11.84,1.82,0,0.63-3.78,24.43-3.78,24.43z"/>
<path id="path1098" style="stroke-linejoin:miter;fill-rule:evenodd;stroke:black;stroke-linecap:butt;stroke-miterlimit:4;stroke-dasharray:none;stroke-width:1.15997541;fill:url(#linearGradient8816);" transform="matrix(1.264589,0,0,1.322317,247.762,-431.9785)" d="M433.13,586.11c0,0.62,1.87,23.75,10,31.87,8.12,8.13,21.25,13.13,25.94,11.88,4.68-1.25,15.31-24.69,15.31-24.69s-11.25,11.25-19.69,9.38c-8.44-1.88-13.44-15.94-15-22.82-1.56-6.87-0.31-20.31-0.31-20.31l-16.25,14.69z"/>
<path id="path1092" style="stroke-linejoin:miter;fill-rule:evenodd;stroke:black;stroke-linecap:butt;stroke-miterlimit:4;stroke-dasharray:none;stroke-width:1.5;fill:url(#linearGradient8818);" transform="translate(1.001495,0)" d="M656.44,338.56c-4.74,5.79-7.28,10.26-9.25,13.56-1.98,3.31-0.82,7.91,3.75,14.47,4.92,7.08,45.37,34.72,98.06,34.72s93.14-27.64,98.06-34.72c4.57-6.56,5.7-11.16,3.72-14.47-1.97-3.3-4.48-7.77-9.22-13.56,0,8.68-33.51,40.03-92.56,40.03s-92.56-31.35-92.56-40.03z"/>
<path id="path1102" style="stroke-linejoin:miter;fill-rule:evenodd;stroke:black;stroke-linecap:butt;stroke-miterlimit:4;stroke-dasharray:none;stroke-width:1.15997541;fill:url(#linearGradient8820);" transform="matrix(1.264589,0,0,1.322317,248.6003,-430.8096)" d="M467.82,625.48c0.62-0.93,7.18-11.87,7.18-11.87l-3.6-2.54c-1.1,3.09-5.15,4.1-5.77,7.85-0.63,3.75,2.81,7.5,2.19,6.56z"/>
<path id="path1103" style="stroke-linejoin:miter;fill-rule:evenodd;stroke:black;stroke-linecap:butt;stroke-miterlimit:4;stroke-dasharray:none;stroke-width:1.15997541;fill:url(#linearGradient8822);" transform="matrix(1.264589,0,0,1.322317,247.762,-431.9785)" d="M475,622.98s1.25-5.31-2.81-5.93c-4.06-0.63-6.21,2.97-5.62,1.56,0.65-1.57,3.12-3.13,3.43-8.44,0.32-5.31-0.31-8.12-0.31-8.12s1.56-6.88,8.13-5.94c6.56,0.94,6.87,5.94,6.87,7.81,0,1.88-0.62,2.81-0.62,2.81l-9.07,16.25z"/>
<path id="path1122" style="stroke-width:1pt;" transform="matrix(1.303676,-0.813755,0.649459,1.135657,-171.6963,-17.22694)" d="M436.62,649.96v2.61h0.87l0.21-1.58,0.2-0.19h1.52v8l-0.21,0.23-0.83,0.08v0.72h3.79v-0.72l-0.82-0.08-0.22-0.23v-8h1.53l0.19,0.19,0.21,1.58h0.88v-2.61h-7.32z"/>
<path id="path1123" style="stroke-width:1pt;" transform="matrix(1.355506,-0.715406,0.571238,1.180637,-142.8403,-89.13362)" d="M427.15,649.96v0.72l0.74,0.08,0.2,0.23v7.81l-0.2,0.23-0.74,0.08v0.72h3.59v-0.72l-0.76-0.08-0.2-0.23v-3.71h3.67v3.71l-0.19,0.23-0.77,0.08v0.72h3.58v-0.72l-0.73-0.08-0.21-0.23v-7.81l0.21-0.23,0.73-0.08v-0.72h-3.58v0.72l0.77,0.08,0.19,0.23v3.22h-3.67v-3.22l0.2-0.23,0.76-0.08v-0.72h-3.59z"/>
<path id="path1124" style="stroke-width:1pt;" transform="matrix(1.455118,-0.454655,0.363802,1.266992,-48.92479,-257.1719)" d="M422.81,654.98v0.72l0.94,0.07,0.21,0.21v2.99c-0.33,0.03-0.58,0.05-0.7,0.05-1.96,0-3.15-1.54-3.15-4.19,0-2.57,1.17-4.1,3.06-4.1,0.37,0,0.71,0.07,1.05,0.23l0.19,0.27,0.24,1.56h0.93v-2.5c-0.94-0.33-1.84-0.49-2.68-0.49-2.81,0-4.63,2.02-4.63,5.03,0,3.06,1.8,5.17,4.47,5.17,0.92,0,1.86-0.2,2.84-0.6v-3.42l0.2-0.21,0.74-0.07v-0.72h-3.71z"/>
<path id="path1125" style="stroke-width:1pt;" transform="matrix(1.450588,-0.456792,0.380674,1.265102,-58.06221,-254.6263)" d="M413.66,659.83h3.79v-0.72l-0.85-0.08-0.2-0.23v-7.84l0.2-0.2,0.85-0.08v-0.72h-3.79v0.72l0.83,0.08,0.21,0.2v7.84l-0.21,0.23-0.83,0.08v0.72z"/>
<path id="path1128" style="stroke-width:1pt;" transform="matrix(1.421803,-0.130183,0.112263,1.31726,129.2904,-421.8814)" d="M393.88,659.83h6.81v-2.63h-0.86l-0.22,1.55-0.17,0.24h-2.94v-3.82h1.65l0.18,0.2,0.13,1.06h0.74v-3.41h-0.74l-0.13,1.06-0.18,0.2h-1.65v-3.49h2.53l0.16,0.19,0.19,1.29h0.89v-2.31h-6.39v0.72l0.77,0.08,0.2,0.2v7.84l-0.2,0.23-0.77,0.08v0.72z"/>
<path id="path1129" style="stroke-width:1pt;" transform="matrix(1.4272,-2.491186e-2,2.307761e-2,1.322116,185.5601,-466.4699)" d="M384.25,649.96v0.72l0.73,0.08,0.21,0.23v7.81l-0.21,0.23-0.73,0.08v0.72h3.59v-0.72l-0.76-0.08-0.21-0.23v-3.71h3.67v3.71l-0.19,0.23-0.76,0.08v0.72h3.58v-0.72l-0.74-0.08-0.2-0.23v-7.81l0.2-0.23,0.74-0.08v-0.72h-3.58v0.72l0.76,0.08,0.19,0.23v3.22h-3.67v-3.22l0.21-0.23,0.76-0.08v-0.72h-3.59z"/>
<path id="path1130" style="stroke-width:1pt;" transform="matrix(1.427369,1.706571e-2,-1.248875e-2,1.322213,208.7812,-482.9019)" d="M376.42,649.96v2.61h0.87l0.21-1.58,0.2-0.19h1.52v8l-0.21,0.23-0.83,0.08v0.72h3.8v-0.72l-0.83-0.08-0.21-0.23v-8h1.52l0.19,0.19,0.21,1.58h0.88v-2.61h-7.32z"/>
<path id="path1131" style="stroke-width:1pt;" transform="matrix(1.389849,6.880952e-2,-5.784676e-2,1.320819,251.7204,-502.7478)" d="M365.33,659.83h6.81v-2.63h-0.86l-0.22,1.55-0.16,0.24h-2.94v-3.82h1.65l0.17,0.2,0.13,1.06h0.75v-3.41h-0.75l-0.13,1.06-0.17,0.2h-1.65v-3.49h2.52l0.17,0.19,0.19,1.29h0.88v-2.31h-6.39v0.72l0.77,0.08,0.21,0.2v7.84l-0.21,0.23-0.77,0.08v0.72z"/>
<path id="path1134" style="stroke-width:1pt;" transform="matrix(1.324762,0.44669,-0.386421,1.258424,487.7792,-599.4393)" d="M352.34,659.83h3.79v-0.72l-0.85-0.08-0.2-0.23v-7.84l0.2-0.2,0.85-0.08v-0.72h-3.79v0.72l0.84,0.08,0.2,0.2v7.84l-0.2,0.23-0.84,0.08v0.72z"/>
<path id="path1135" style="stroke-width:1pt;" transform="matrix(1.324762,0.44669,-0.386421,1.258424,487.7792,-599.4393)" d="M345.5,659.5c0.79,0.33,1.64,0.49,2.45,0.49,2.08,0,3.36-1.27,3.36-3.01,0-0.87-0.4-1.67-1.14-2.21-0.75-0.56-1.42-0.78-1.81-1.06-0.68-0.47-1.03-0.91-1.03-1.59,0-0.8,0.57-1.39,1.49-1.39,0.41,0,0.7,0.07,0.93,0.2l0.18,0.21,0.21,1.53h0.92v-2.38c-0.8-0.33-1.6-0.5-2.39-0.5-1.81,0-2.99,1.26-2.99,2.89,0,0.72,0.3,1.44,0.89,2.02,0.55,0.54,1.15,0.79,1.66,1.08,0.9,0.53,1.36,1.06,1.36,1.86s-0.61,1.39-1.64,1.39c-0.39,0-0.76-0.07-1.12-0.2l-0.16-0.22-0.2-1.77h-0.97v2.66z"/>
<path id="path1136" style="stroke-width:1pt;" transform="matrix(1.255997,0.627854,-0.544001,1.192813,614.2696,-618.931)" d="M337.56,659.83h6.81v-2.63h-0.86l-0.22,1.55-0.16,0.24h-2.94v-3.82h1.65l0.17,0.2,0.13,1.06h0.75v-3.41h-0.75l-0.13,1.06-0.17,0.2h-1.65v-3.49h2.52l0.17,0.19,0.19,1.29h0.88v-2.31h-6.39v0.72l0.77,0.08,0.21,0.2v7.84l-0.21,0.23-0.77,0.08v0.72z"/>
<path id="path1141" style="stroke-width:1pt;" transform="matrix(1.162661,0.800924,-0.694579,1.103863,743.0816,-619.0571)" d="M332.18,649.96h-3.7v0.72l0.77,0.08,0.2,0.23v7.81l-0.2,0.23-0.77,0.08v0.72h3.7c1.27,0,2.22-0.22,3.01-0.93,1.03-0.91,1.56-2.26,1.56-4,0-3.08-1.63-4.94-4.57-4.94zm-1.05,0.83h0.73c2.02,0,3,1.33,3,4.1,0,2.76-0.98,4.11-3,4.11h-0.73v-8.21z"/>
<path id="path1144" style="stroke-width:1pt;" transform="matrix(1.360197,0.300694,-0.266411,1.293646,398.1503,-570.1123)" d="M356.84,649.96v0.72l0.75,0.08,0.21,0.2v7.84l-0.21,0.23-0.75,0.08v0.72h3.58v-0.72l-0.77-0.08-0.21-0.23v-3.31h0.22c1.28,0,1.61,0.63,2,2.03,0.21,0.7,0.32,1.37,0.98,1.95,0.31,0.28,0.78,0.46,1.32,0.46,0.39,0,0.82-0.05,1.27-0.12v-0.7h-0.17c-0.85,0-1.23-0.22-1.49-1.03-0.24-0.74-0.35-1.53-0.74-2.18-0.29-0.47-0.72-0.75-1.33-0.91,1.43-0.31,2.18-1.16,2.18-2.51,0-1.63-1.01-2.52-2.98-2.52h-3.86zm2.6,0.84h0.59c1.23,0,1.87,0.68,1.87,1.88,0,1.36-0.64,1.97-2,1.97-0.14,0-0.29,0-0.46-0.01v-3.84z"/>
<path id="path1147" style="stroke-width:1pt;" transform="matrix(1.499095,-0.25608,0.205791,1.305008,35.99251,-363.5013)" d="M405.15,649.96v0.72l0.75,0.08,0.21,0.2v7.84l-0.21,0.23-0.75,0.08v0.72h3.58v-0.72l-0.77-0.08-0.2-0.23v-3.31h0.21c1.28,0,1.61,0.63,2.01,2.03,0.2,0.7,0.31,1.37,0.97,1.95,0.31,0.28,0.78,0.46,1.32,0.46,0.39,0,0.83-0.05,1.27-0.12v-0.7h-0.16c-0.86,0-1.24-0.22-1.5-1.03-0.24-0.74-0.34-1.53-0.74-2.18-0.29-0.47-0.72-0.75-1.33-0.91,1.43-0.31,2.18-1.16,2.18-2.51,0-1.63-1.01-2.52-2.98-2.52h-3.86zm2.61,0.84h0.58c1.23,0,1.88,0.68,1.88,1.88,0,1.36-0.65,1.97-2.01,1.97-0.14,0-0.29,0-0.45-0.01v-3.84z"/>
<path id="path8623" d="M467.82,625.48c0.62-0.93,7.18-11.87,7.18-11.87l-3.6-2.54c-1.1,3.09-5.15,4.1-5.77,7.85-0.63,3.75,2.81,7.5,2.19,6.56z" style="stroke-linejoin:miter;fill-rule:evenodd;stroke:black;stroke-linecap:butt;stroke-miterlimit:4;stroke-dasharray:none;stroke-width:1.15997541;fill:url(#linearGradient8824);" transform="matrix(-1.264589,0,0,1.322317,1251.39,-430.8096)"/>
<path id="path8778" d="M475,622.98s1.25-5.31-2.81-5.93c-4.06-0.63-6.21,2.97-5.62,1.56,0.65-1.57,3.12-3.13,3.43-8.44,0.32-5.31-0.31-8.12-0.31-8.12s1.56-6.88,8.13-5.94c6.56,0.94,6.87,5.94,6.87,7.81,0,1.88-0.62,2.81-0.62,2.81l-9.07,16.25z" style="stroke-linejoin:miter;fill-rule:evenodd;stroke:black;stroke-linecap:butt;stroke-miterlimit:4;stroke-dasharray:none;stroke-width:1.15997541;fill:url(#linearGradient8826);" transform="matrix(-1.264589,0,0,1.322317,1252.229,-431.9785)"/>
<path id="path703" style="fill-rule:evenodd;fill-opacity:0.996081;stroke:white;stroke-miterlimit:4;stroke-dasharray:none;stroke-width:3.86658764;fill:#0072c4;" transform="matrix(1.264588,0,0,1.322316,248.1421,-428.5844)" d="M396.85,605.91s-75.43-21.26-74.99-102.15l0.58-106.91h148.82l0.58,106.3c0.44,80.88-74.99,102.76-74.99,102.76z"/>
<g id="g8591">
<path id="path1019" style="stroke-width:1pt;fill-rule:evenodd;stroke-opacity:0.996081;fill:#bcbcbc;" transform="matrix(1.264588,0,0,1.322316,239.4222,-427.4044)" d="M339.69,420.17c0.12,0,1.04-0.83,1.87-1.56,1.17-0.56,2.25-1.35,3.44-1.88,0.89-0.49,2.64-0.87,3.44-1.25,1.05-0.52,1.91-1.13,2.81-2.18,0.11-1.4,0.31-2.41,0.31-4.07,1.25-0.57,2.35-1.12,3.44-1.56,1.57-0.42,1.9-1.02,3.44-1.25,0.99-0.33,2.62-0.31,4.06-0.31,1.56,0,2.54,1.05,3.94,1.31,1.65,0.63,2.42,1.08,3.74,2.18,0.75,0.91,1.22,1.64,2.49,2.32,1,0.49,1.95,1.24,3.12,1.56,1.29,0.72,2.44,1.13,3.44,2.19,0.92,0.62,1.3,1.55,2.19,2.19,1.03,0.82,2.01,1.55,3.12,2.18,1.34,0.86,2.67,1.52,4.84,1.33,1.14-0.07,2.38-0.19,3.75,0.05,1.53,0,3.02-0.02,4.37,0.31,1.6,0,2.89,0.21,4.38,0.32,1.39,0.25,2.82,0.31,4.37,0.31,1.36,0.34,2.85,0.31,4.38,0.31h4.37,4.38c1.59,0,3.2,0.06,4.37,0.31,1.58,0,2.93-0.14,4.38-0.31,1.69,0,2.99-0.3,4.69-0.31h5.31c1.36,0.36,3.11,0.6,4.06,1.25,1.25,0.34,1.87,0.91,3.13,1.25,0.95,0.47,2.41,1.21,3.12,2.19,0.88,0.88,1.79,2.14,2.5,3.43,0.87,1.2,1.2,2.58,1.88,4.07,0.35,1.42,0.6,2.78,0.62,4.37,0.34,1.36,0.31,2.85,0.31,4.38-0.35,1.42-0.43,3.01-0.93,4.37-0.06,1.53-0.38,2.91-0.63,4.06-0.28,1.28-0.61,2.11-0.63,3.75v4.38c-0.1,1.43-0.43,2.49-0.62,4.06-0.76,1.37-1.48,2.96-2.19,4.69-1.04,0.69-1.94,1.68-2.5,2.5-0.66,0.39-1.05,0.99-0.93,1.25,1.24,0.42,0.93,1.25,0.93,2.81,0.17,1.21,0.29,2.7,0.63,4.06,0.11,1.5,0.45,2.41,0.94,3.44,0.49,0.62,0.58,0.31-0.63,0.31-0.9,0.68-1.82,0.33-2.19-0.93-0.73-0.85-0.97-1.86-1.25-3.44-0.17-1.45-0.41-2.86-0.93-3.75-0.16-1.76-0.66-1.74-2.5-1.88-0.88-0.74-2.05-0.93-3.76-0.93-1.7,0-1.84-0.17-1.87,1.56v4.37c-0.29,1.27-0.94,2.3-1.25,3.44-0.93,0.65-1.42,1.75-2.5,2.5-0.52,1.42-1.27,1.67-2.81,1.88-0.54-0.65-1.43-1.49-1.88-2.19,0.88-1.41,1.64-1.62,2.19-3.13,0.66-1.24,1.05-2.05,1.56-3.12-0.66-0.98-1.26-1.43-1.87-2.81-0.52-0.76-1.23-2.39-1.57-3.44-1.02-0.34-2.64-0.4-3.43-0.94-1.52-0.34-1.94,1.25-3.75,1.25h-4.38c-1.93,0-2.42,1.03-4.06,0.94-0.48,0.15-1.66-0.07-3.44,0-1.3,0.43-2.88,0.31-4.37,0.31-1.59-0.02-2.89-0.37-4.07-0.62-1.43-0.38-2.86-0.76-4.37-0.94-1.83,0-2.52,0.14-3.75,0.94-0.98,0.55-2.39,1.81-3.44,2.5-0.44,1.03-0.67,2.79-1.25,4.06-0.33,1.22-0.87,1.99-1.25,3.12-0.42,1.06-0.82,2.15-0.94,3.75-0.1,2.11-0.58,1.85-1.87,1.25-0.54-0.87-1.39-1.83-1.87-2.81,0.28-1.59,0.6-2.38,0.62-4.06-0.3-1.21-1.01-1.18-1.88-0.31,0,1.63,0.08,2.89-0.62,3.75-0.35,1.29-0.92,1.84-1.88,2.5-0.46,1.16-1.5,1.69-2.5,2.18-0.15-0.05,0-0.42,0-1.25-0.74-1.43-0.05-2.61-0.05-4.37,0.02-1.58-0.07-2.62,0.41-4.06,0-1.52-0.74-2.96-0.98-4.07-0.58-1.16-0.92-1.73-2.5-2.18-1.11-0.43-2.72-1-3.44-1.88-0.9-1.12-1.48-1.59-2.81-2.19-1.44-0.49-2.14-0.95-3.13-1.56-0.96-1.02-1.75-1.46-2.18-2.81-0.66-0.96-0.77-2.75-1.25-4.06-0.11-1.38-0.52-2.65-0.94-3.75-0.19-1.38-0.41-2.38-0.94-3.75-0.17-1.29-0.56-2.63-0.93-4.07,0-1.52,0.02-3.02-0.32-4.37v-4.38c-0.22-1.26-0.31-3.11-0.62-4.06,0-1.7-0.19-2.66-0.63-3.75-0.71-1.1-0.77-1.6-1.87-1.87-0.8,0.97-2.11,1.36-3.75,1.56-1.15-0.25-2.77-0.41-4.07-0.94-1.25-0.29-2.11-0.77-3.12-1.25-0.56-0.82-1.22-1.74-1.88-2.5-0.19-1.63-0.56-2.47-0.62-4.06,0-1.19,0.03-0.56,1.25-2.19z"/>
<path id="path1022" style="stroke-width:1pt;fill-rule:evenodd;fill:#fefefe;" transform="matrix(1.264588,0,0,1.322316,239.4222,-427.4044)" d="M358.2,431.43c0.07-0.07,0.14-0.15,0.22-0.22-0.5,0.5-0.32,0.26,0.88-0.22,0.67-0.41,1.95-1.12,2.43-1.55,0.58-0.25,1.5-0.58,1.99-1.1,0.62-0.63,1.23-1.15,1.99-1.77,0.87-0.71,1.69-0.94,2.65-1.55,1.25-0.09,1.7-0.6,2.87-0.22,1.1,0.24,1.55,0.25,2.43-0.66,0.89-0.54,1.87-1.07,2.21-1.99v-1.33c-0.01,1.45-0.29,1.92-1.32,2.43-0.73,0.8-1.63,1.69-1.99,2.43-0.7,0.98-0.85,1.52-1.55,1.99-0.57,0.7-1.55,1.07-1.77,2.21,0.32,0.53,0.03,0.82,0.67,0.89,0.64,0.52,1.3,0.3,2.21,0,0.9-1,1.3-1.64,1.76-2.65,0.75-0.97,1.16-1.43,1.55-2.21,0.77-0.54,1.26-0.95,1.55-1.77,0.89-0.5,1.62-1.02,2.21-1.55,0.66-0.41,1.01-0.73,1.99-0.88-0.02,1.18-0.2,1.75-0.67,2.43-0.22,1.23-0.17,1.81,0.23,2.65,0.63,0.37,0.52,0.7,0.88,1.55,0.36-0.73,0.54-2.21,0.66-3.1v-0.22c0,0.97,0.09,2.25-0.22,2.88,0.02,1.28,0.32,1.86,0.66,2.87,0.38,0.48,0.64,0.8,1.11,1.1,0.04-1.27,0.38-2.11,0.44-3.31,0.31,0.92,0.21,2.15,0.44,3.09,0.08,1.04,0.48,1.85,0.89,2.65,0.5,0.3,0.67,1.18,0.88,0.44,0.52-1.55,0.54-3.25,0.88-4.86,0.07-0.81,0.14-2.02,0.45-2.65l-0.45,2.65c0.07-0.81,0.14-2.02,0.45-2.65v-0.22c0.2,1.17,0.4,2.29,0.44,3.54,0,0.99-0.07,2,0.22,2.87,0.73-0.33,1.16-1.09,1.55-1.99,0.58-1.07,0.99-1.54,1.76-2.43l-1.76,2.43c0.58-1.07,0.99-1.54,1.76-2.43v-0.22c-0.12,1.02-0.22,1.98-0.22,3.09,0,1.02-0.01,2.18,0.22,2.87,0.26,1.18,0.62,1.39,0.67,2.66,0,0.61-0.09,1.24,0.22,1.54,0.95,0.24,0.95-0.29,1.1-1.54,0.01-1.43,0.4-2.4,0.44-3.76,0-1.68,0.25,0.2,0.45,0.88,0.44,0.99,0.58,1.86,0.66,2.88,0,0.61-0.08,1.24,0.22,1.54,0.85-0.34,1.19-1.29,1.77-1.76,0.44-1.05,0.89-1.51,1.32-2.21,1.15-0.23,1.09-0.68,1.11-1.99,0-1.06-0.09-2.17,0.22-3.1,0.35-0.96,0.69-2.03,0.88-2.87,0.42-0.23,0.86,0.35,1.11,0.89,0.48,0.71,0.44,1.75,0.44,2.87,0.21,0.97,0.64,1.74,1.11,2.65,0.55,1.02,1,1.64,1.54,2.21,0.24,0.7,0.22,1.85,0.22,2.87,0.86-0.93,1.03-2.33,1.11-3.76-0.12-0.97-0.14-2.18-0.44-3.09-0.04-0.97-0.22-1.98-0.45-2.65-0.74-0.34-0.86-0.65-0.22-1.55,0.71-0.59,1.48-0.36,2.66-0.22,0.59,0.59,0.83,0.91,0.88,2.21,0,1.18,0.05,2.08,0.44,2.87,0.43,0.64,0.86,1.08,1.1,2.21,0.34,0.28,0.61,0.73,1.11,0.22,0.28-0.64,0.44-1.98,0.66-2.65,0.22-0.84,0.61-1.25,1.11-1.54,0,1.23-0.02,1.98,0.44,2.87,0.43,0.99,0.73,1.36,1.1,2.43,0.48,0.31,0.54,0.99,1.11,1.33,0.13-1.04,0.22-2.23,0.22-3.54v-3.09c0.08-1.06,0.35-1.65,0.66-2.43,0.72,0.84,0.67,1.2,0.67,2.43,0.72-0.26,0.85-0.76,1.1-1.55,0.52-0.44,0.66-0.64,0.88,0.44,0.16,1.16,0.46,2.2,0.67,3.32,0.45,0.51,0.98,1.74,1.55,2.21,0.38,0.63,0.82,1.24,1.32,1.76,0.34,0.73,0.43,1.11,1.33,1.33,0-1.5,0.05-3-0.22-4.42,0-1.27-0.29-1.72-0.45-2.87-0.36-0.77-0.58-1.89-0.44-2.21,1.04,0.98,1.5,1.55,1.99,2.65,0.52,1.06,0.96,1.77,1.33,2.87,0.51,0.42,1.41,1.68,1.76,2.21,0.79,0.68,1.18,1.38,1.99,1.99,0.43,0.38,1.32,0.59,1.55,0.44-0.04-1.29-0.25-2.41-0.66-3.53-0.02-1.24-0.31-1.91-0.67-2.65-0.87-0.72-1.52-1.21-1.99-2.22-0.34-0.28-0.4-0.48-0.44-1.1,1.27,1.01,2.16,1.9,3.1,3.09,0.63,0.79,0.95,1.15,1.76,1.55,0.44,0.47,1.73,1.06,2.66,1.33,0.55,0.7,1.3,1.11,2.21,1.32l-2.21-1.32c0.55,0.7,1.3,1.11,2.21,1.32v0.22c-0.11-1.38-0.65-2.39-1.33-3.53-0.58-1.21-1.1-1.66-1.99-2.43-0.58-0.88-1.22-1.39-2.21-1.99-0.61-0.69-1.52-1.83-1.99-2.21,0.95-0.57,2.05,0.38,3.1,0.88,0.86,0.9,1.67,2.06,2.21,2.65,0.58,1.14,1.04,1.84,1.98,2.88,0.96,0.54,1.62,1.07,2.44,1.76,1.26,0.34,0.76-0.1,0.44-1.1-0.44-1.25-0.05-1.27,0.88-0.44,0.62,0.42,1.3,1.12,2.21,1.54,0.39,0.49,0.99,0.76,1.55,0.45,0.23-0.31,0.22-0.28,0.22-0.67-0.47-1.37-0.9-2.44-1.99-2.87-0.5-0.61-1.31-1.33-1.99-1.99-0.44-0.64-0.95-1.02-1.32-1.76l1.32,1.76c-0.44-0.64-0.95-1.02-1.32-1.76h-0.22c1.33,0.04,1.8,0.37,2.87,0.88,0.75,0.26,1.57,0.95,1.99,1.54,0.43,0.55,1.12,1.14,1.54,1.77,0.68,0.5,1.43,1.07,2.21,1.55,0.74,0.92,0.87,1.52,0.89,2.87,0.42,0.63,0.5,1.91,0.66,2.65-0.16,1.22-0.6,0.26-0.66-0.44-0.19-0.97-0.58-0.92-1.33-0.66,0,1.33,0.15,1.7,0.66,2.65-0.13,0.91-0.45,1.58-0.88,2.21-0.52,0.3-0.63-0.65-1.11-1.1-0.05-1.37-0.45-1.52-1.32-2.21v0.88c0.49,0.94,1.01,1.8,1.1,3.09,0.34,0.99,0.45,1.61,0.45,2.88,0,1.08,0.01,2.13-0.23,3.09,0,1.2-0.2,1.71-0.22,2.87v3.1,3.09c-0.17,0.78-0.22,1.8-0.22,2.87l0.22-2.87c-0.17,0.78-0.22,1.8-0.22,2.87v0.22c-0.42-1.11-0.87-2.11-1.1-3.31-0.72-0.68-1.17-1.38-1.55-2.21-0.17-0.95-0.27-2.11-0.44-2.87-0.31-0.78-0.64-1.61-1.33-1.11-0.27,1.65,0.07,2.63,0.67,4.2,0.34,1.04,0.31,1.86,0.66,2.87,0.51,1.17,0.92,1.34,0,2.65-0.46,0.7-0.7,0.93-0.89,1.77-0.81,0.41-1.02,0.59-1.1,1.55-0.27-0.86-0.94-1.87-1.32-2.87-0.4-1.06-0.89-2.15-1.11-3.1-0.54-0.74-1.17-1.93-1.77-2.43-0.55-0.71-1.35-1.9-1.77-2.65-0.84-0.94-1.03-1.49-1.76-1.99-0.19-0.44-0.42-0.99-0.89-0.66,0,1.06-0.08,2.17,0.22,3.09,0.23,1.31,0.62,2.03,0.67,3.32v2.43c-0.53-1.25-1.1-2.36-1.55-3.54-0.48-0.66-0.96-1.94-1.55-2.43-0.37-0.86-0.67-1.57-1.1-2.21-0.11-0.64-0.41-0.63-0.67-1.1,0.02,1.25,0.42,1.69,0.67,2.65,0.43,0.84,0.57,2.25,0.44,2.65-0.56-1.55-1.06-3.24-1.77-4.64-0.67-0.91-1.32-2.08-1.77-2.87-0.65-0.76-1.33-0.79-1.98-1.33-0.6-0.28-1.17-0.6-1.55-1.1,0.17,1.16,0.63,1.89,0.88,2.87,0.15,1.11,0.66,2,0.89,2.87-0.25,1.51-0.61-0.42-0.89-1.1-0.23-1.25-0.66-1.94-1.1-2.66-0.59-0.4-1.13-1.11-1.77-1.54-0.62-0.24-0.44,0.04-0.44,0.88,0,1.37,0.05,2.27,0.44,3.1,0.44,0.64,0.44,1.49,0.44,2.65-0.04,1.09-0.22,1.96-0.22,3.09v1.77c-0.51-0.94-0.99-1.47-1.33-2.65-0.76-1.01-0.99-1.74-1.54-2.88-0.49-0.19-1.29-0.36-1.77,0,0.09,1.12,0.6,1.62,0.66,2.88-0.88,0.86-0.72,1.11-1.32-0.22-0.51-1.01-1.09-0.96-1.77-1.55-1.11-0.14-0.76-0.82-1.1-1.77,0-0.85,0.08-1.71-0.23-2.43-1.21,0-1.9-0.04-2.65,0.66-0.35,0.7-0.22,1.97,0,2.88v3.09c-0.25,0.77-0.75,0.82-0.88,1.77-0.43,0.94-0.57,1.98-0.88,2.65-0.79,0.68-0.45,0.76-0.89-0.44v-3.98-3.09c0-1.21,0.18-1.79,0.22-2.88-0.46-0.91-0.58-1.08-1.99-1.1-0.34,0.57-0.21,1.63,0,2.21,0,1.07,0.05,2.09,0.22,2.87,0,1.17,0.15,1.89,0.22,2.87-0.04,1.18-0.26,2.11-0.88,2.66-0.8,0.2-0.09,0.68-0.88,0.88-0.8-0.38-1.74-0.9-2.43-1.55-0.86-0.26-1.67-0.44-2.88-0.44-1.46-0.02-1.49-0.19-1.99-1.33-0.44-1.21-0.65-2.27-0.88-3.53-0.48-1.03-0.6-1.74-0.88-2.87-0.37-0.68-0.77-1.19-1.33-1.55-0.32,1.12-0.62,2.05-0.66,3.31-0.26,0.52-0.31,1.84-0.44,2.44-0.45-0.66-0.62-1.94-0.89-2.88-0.42-1.34-0.77-2.21-2.21-1.76-1.48,0.01-1.53,0.05-1.54,1.54,0.64,0.96,1.32,1.89,1.76,2.65v3.1c0,1.27,0.08,1.64-0.88,1.99-0.37-1.33-1.14-2.6-1.99-3.76-0.12-0.9-0.4-0.66-1.32-0.66-0.62,0-1.25-0.09-1.55,0.22,0,0.77,0.07,1.84,0,1.99-0.53,0.09-0.75-0.01-1.11-0.45-0.38,0.65-0.09,1.55,0,2.44-0.28,0.98-0.61,1.88-1.1,2.42-0.1-0.29-0.32-0.22,0-0.22-1.52-0.55-2.7-0.9-3.98-1.32-0.76,0.09-1.32,0.77-1.77,1.32-1.12,0.36-1.62,0.65-2.87,0.67-1.2,0-1.79,0.18-2.87,0.22-0.78,0.17-1.8,0.22-2.87,0.22-0.6-0.17-1.64-0.17-1.99-0.44,0.45-0.65,0.96-0.98,1.32-1.99,0.61-0.41,1.17-0.94,1.77-1.55,0.58-0.39,1.27-1.22,1.77-1.77,0.34-1.06,0.82-1.24,1.55-1.76,1.31,0.04,1.56,0.44,2.87,0.66,1.27,0.46,1.97,0.6,2.65-0.22,1.06-0.43,1.95-1.1,3.09-1.33,0.89-0.42,1.45-0.83,2.21-1.32,0.94-0.55,1.39-1.1,2.21-1.77,0.24-0.9,0.9-1.6,0.67-2.65-1.2-0.3-1.96-0.18-2.66,0.44-0.96,0.76-1.15,1.08-2.21,1.77-0.91,0.25-1.3,0.63-2.43,0.88-0.92,0.31-2.03,0.22-3.09,0.22-0.97,0-2.25-0.09-2.87,0.22,0.98-0.63,2.16-1.29,3.09-1.54,0.89-0.58,1.23-0.87,2.43-0.89,0.56-0.7,1.14-0.71,1.33-1.77,0.37-1.3-0.82-0.89-1.77-0.44-0.9,0.16-1.89,0.77-2.65,1.11-0.74,0.24-1.82,0.43-2.87,0.44-0.28-0.4,0.21-0.72,0.44-1.33,1.03-0.35,1.2-0.48,1.32-1.54-1.17,0.15-1.61,0.52-2.65,0.66-1.13,0.28-2.3,0.41-3.53,0.44h-3.1c-1.08-0.04-1.67-0.22-2.87-0.22-0.88-0.44-0.88-0.65-0.88-1.99,0.69-0.76,1.36-0.66,2.65-0.66,0.99-0.47,1.76-0.71,2.43-1.11,0.8-0.16,1.34-0.49,1.1-0.88h-3.09c-1.19-0.48-0.06-0.7,0.66-1.1,1.08,0,2.19,0.06,2.88,0.44,1.32-0.05,1.79-0.45,2.87-1.33,0.84-0.67,1.26-1.09,2.21-1.55,0.68-0.72,1.32-1.11,1.76-1.76,0.91-0.83,1.52-1.29,1.99-1.99,0.59-0.31,0.95-0.71,0.67-1.11-1.39,0.16-1.95,0.65-2.88,1.33-0.54,0.51-1.06,0.97-1.76,1.33-1,0.56-1.62,0.79-2.88,0.88-1.13,0-2-0.18-3.09-0.22-1.2-0.12-0.09-0.39,0.22-0.89,0.47-0.31,0.83-0.99,0.44-1.54-0.92-0.31-2.03-0.22-3.09-0.22h-3.09c-1.17-0.05-1.67-0.3-2.43-0.67-0.24-0.62,0.04-0.44,0.88-0.44,1.06-0.04,1.82-0.18,2.87-0.44,1.04-0.28,1.17-0.62,1.33-1.77-1.02,0-2.18,0.01-2.88-0.22h-1.98z"/>
<path id="path1023" style="stroke-width:1pt;fill-rule:evenodd;fill:#fefefe;" transform="matrix(1.264588,0,0,1.322316,239.4222,-427.4044)" d="M339.06,426.42c-0.19-1.63-0.56-2.47-0.62-4.06,0-1.19,0.03-0.56,1.25-2.19,0.12,0,1.04-0.83,1.87-1.56,1.17-0.56,2.25-1.35,3.44-1.88,0.89-0.49,2.64-0.87,3.44-1.25,1.05-0.52,1.91-1.13,2.81-2.18,0.11-1.4,0.31-2.41,0.31-4.07,1.25-0.57,2.35-1.12,3.44-1.56,1.57-0.42,1.9-1.02,3.44-1.25,0.99-0.33,2.62-0.31,4.06-0.31,1.56,0,2.54,1.05,3.94,1.31,1.65,0.63,2.42,1.08,3.74,2.18,0.75,0.91,1.22,1.64,2.49,2.32,1,0.49,1.95,1.24,3.12,1.56,0.01,1.13,0.26,0.94-0.58,0.94-0.09,1.15-0.38,1.08-1.55,1.1-0.89-0.47-1.53-1.09-1.98-1.77,0.44-1.15,0.14,0.93,0,1.33-0.57,0.44-0.91,0.92-1.55,0.44-0.36-1.08-0.66-1.82-0.66-3.09-0.17-1.38-0.58-0.38-0.89,0.22-0.3,1.11-0.16,1.51,0.22,2.43-1.12,0-1.99-0.1-2.87-0.22-0.82-0.2-1.74,0.04-2.65,0.44-1.16,0.69-0.8,0.7-0.22,1.55,1.02,0.28,1.75,0.83,2.65,1.32,1.02-0.19,2.08-0.41,3.09-0.66,1.06-0.35,2.02-0.13,3.1,0,0.53,0.27,1.23,0.32,1.54,0.66,0,0.69,0.06,1.4-0.22,1.77-0.46,0.29-0.89,1.1-1.54,1.32-0.98,0.54-2,0.88-3.1,1.11-1.35,0.05-1.85,0.33-2.87,0.88-0.17,1.12-0.51,1.44-1.55,1.77-1.03,0.43-1.85,0.66-3.09,0.66-0.62,0-1.24,0.09-1.55-0.22,0.99-1.07,1.28-1.58,1.77-2.65,0.19-0.45,0.59-0.73,0.22-1.1-1.31,0.05-1.65,0.04-1.77,1.32-0.14,1.17-0.61,1.36-1.54,1.77,0.25-1.08,0.29-1.9,0.66-2.87-0.78,0.17-1.8,0.22-2.87,0.22-0.67,0.41-0.95,0.56-0.67,1.33-0.88,0.29-1.97,0.11-3.09,0-0.94-0.05-0.42-0.46-1.11-0.89-0.44-0.84-0.96-1.05-1.98-1.1-0.51,0.61-1.46,0.86-1.99,1.32-0.97,0.33-1.59,0.06-2.43-0.44-1.11,0.03-0.96,0.37-0.67,1.11,0.43,0.28-0.02,0.58,0.67,0.66,0.63,0.55,1.18,0.66,2.43,0.66,0.95-0.24,2.01-0.22,3.09-0.22,1.09,0.03,0.88,0.28,0.88,1.33-0.71,0.48-1.75,0.44-2.87,0.44-1.06-0.13-1.88-0.39-2.65-0.67-1.03-0.07-1.86-0.26-2.65,0-0.36,0.38-1.43,0.55-0.22,0.67,0.47,0.43,3.03,0.22,3.21,0.95,0.6,0.64,0.47,1.48-0.56,1.48-0.63-0.31-1.11-0.24-1.55,0-0.73,0.18-1.61,0.05-2.89,0.14,1.68,0.13-1.22-1.74-1.88-2.5z"/>
<path id="path1025" style="stroke-width:1pt;fill-rule:evenodd;fill:#bcbcbc;" transform="matrix(1.264588,0,0,1.322316,239.4222,-427.4044)" d="M346.04,419.06c-0.07,0-0.73,0.43-1.32,0.88-0.97,0.5-2.01,1.34-2.66,1.77-0.5,0.39-0.5,0.55-1.1,0.66,1.05-0.14,1.52-0.4,2.43-0.88,1.15-0.14,2.26-0.37,2.87-0.89,0.58-0.19-0.04-1.07-0.22-1.54z"/>
<path id="path1026" style="stroke-width:1pt;fill-rule:evenodd;fill:#bcbcbc;" transform="matrix(1.264588,0,0,1.322316,239.4222,-427.4044)" d="M356.21,408.67c0.13,0,0.38,0.69,0.88,1.1,0.32,0.85,0.61,1.45,0.66,2.43,0.27-1.08,0.74-1.94,0.89-3.09-0.35-0.58-0.37-0.85-1.33-0.88,0,0.59,0.07,0.2-1.1,0.44z"/>
<path id="path1024" style="fill-rule:evenodd;stroke:black;stroke-width:0.875;fill:#c4c4c2;" transform="matrix(1.264588,0,0,1.322316,239.4222,-427.4044)" d="M349.36,417.73c-0.5,0,0.87-0.49,1.32-0.66,0.37-0.77,0.66-1.31,1.33-1.77,1.11,0.08,1.65,0.4,2.21,1.1,0.93,0.26,1.26,0.7,2.43,0.89,0.43,0.36,1.02,0.41,0,0.66-0.69,0.37-1.56,0.44-2.65,0.44-1.14,0.08-1.96,0.33-2.65,0.67-1.48,0-1.25,0.04-1.99-1.33z"/>
<path id="path1027" style="stroke-width:1pt;fill-rule:evenodd;fill:#bcbcbc;" transform="matrix(1.264588,0,0,1.322316,239.4222,-427.4044)" d="M360.18,408.89v0.22c0-0.59-0.01-0.29,0.23,0.89,0.36,0.74,0.44,1.53,0.44,2.65,0.58-0.42,1.06-1.24,1.32-1.99,0-1.75-0.24-1.64-1.99-1.77z"/>
<path id="path1028" style="stroke-width:1pt;fill-rule:evenodd;fill:#bcbcbc;" transform="matrix(1.264588,0,0,1.322316,239.4222,-427.4044)" d="M368.36,434.3h0.22c-0.65,0-0.28,0.04,0.89-0.66,0.75-0.5,1.37-1.25,2.43-1.55,1.02-0.8,1.81-1.18,2.87-1.54,0.52-0.24,0.97-0.65,1.55-0.23-0.17,1.1-0.36,1.51-1.33,1.99-0.5,0.63-1.29,1-1.99,1.33-0.72,0.32-1.51,0.33-1.77,1.1-1.2,0.53-1.35,0.44-2.87-0.44z"/>
<path id="path1029" style="stroke-width:1pt;fill-rule:evenodd;fill:#bcbcbc;" transform="matrix(1.264588,0,0,1.322316,239.4222,-427.4044)" d="M372.56,440.71c0.39-0.3,1.78-1.68,2.43-2.21,0.74-0.97,1.48-1.72,2.21-2.21,0.64-0.95,1.47-1.58,1.99-2.43,0.61-0.74,1.07-1.37,1.77-2.21,0,0.97-0.1,2.25,0.22,2.87,0,1.34-0.16,1.7-0.66,2.66-0.51,0.78-0.88,1.3-1.99,1.76-1.01,0.54-1.61,0.72-2.43,1.33-0.63,0.39-1.29,0.77-1.99,1.1-0.64,0.27-0.35,0.16-1.55-0.66z"/>
<path id="path1030" style="stroke-width:1pt;fill-rule:evenodd;fill:#bcbcbc;" transform="matrix(1.264588,0,0,1.322316,239.4222,-427.4044)" d="M365.71,445.79h0.22c-0.65,0-0.29,0.04,0.88-0.66,0.95-0.94,1.7-1.27,2.88-1.77,0.89-0.07,1.98-0.29,2.65-0.66,0.53-0.1,0.9-0.42,1.32,0,0.7,0.94,0.89,1.2-0.22,1.77-0.53,0.45-1.46,0.9-2.21,1.1-0.55,0.46-1.64,0.49-2.65,0.67-0.9,0-1.4,0.1-1.77-0.45l1.77,0.45c-0.9,0-1.4,0.1-2.87-0.45z"/>
<path id="path1031" style="stroke-width:1pt;fill-rule:evenodd;fill:#bcbcbc;" transform="matrix(1.264588,0,0,1.322316,239.4222,-427.4044)" d="M375.21,445.79v-0.22c0,0.62-0.03,0.29,0.44-0.88,0.83-1.24,1.14-1.92,2.21-2.21,0.5-0.61,1.37-0.76,2.43-1.11,0.4,0.67,0.1,1.44,0,2.21-0.29,0.83-1.07,1.41-1.54,1.99-0.69,0.47-0.97,0.92-1.99,1.11-0.84,0-0.4-0.02-1.55-0.89z"/>
<path id="path1078" style="fill-rule:evenodd;fill:black;" d="m139.21,302.6c0,0.61022-0.49466,1.1049-1.1049,1.1049-0.6102,0-1.1049-0.49467-1.1049-1.1049,0-0.61021,0.49467-1.1049,1.1049-1.1049,0.6102,0,1.1049,0.49468,1.1049,1.1049z" transform="matrix(1.264588,0,0,1.322316,510.4781,-276.0472)"/>
</g>
<g id="g4116" transform="matrix(1.007937,0,0,1.007937,-15.15611,2.198873)">
<path id="path993" style="stroke-linejoin:miter;stroke-opacity:0.99607903;fill-rule:evenodd;fill-opacity:0.996081;stroke:#002b0d;stroke-linecap:butt;stroke-width:1pt;fill:#005120;" transform="matrix(1.254631,0,0,1.311904,258.119,-427.3802)" d="M351.79,479.6h0.88c-2.77,0-1.11-0.18,3.54,3.54,1.94-1.62,1.92-1.84,3.53,0.88,0.93,1.56,1.2-0.16,2.65-1.76,0.7,3.21,1.15,6.57,3.54,3.53,2.73,0,5.59-0.23,7.07,0.89,1.79,3.32,1.2-0.57,2.65,0.88,3.89,0.47,3.82-3.34,8.06-4.32,2.63,3.29,3.79,0.76,7.07-0.89,2.44,0.69,4.74,4.39,5.2,0.79,2-3.26,2.17-2.98,3.54,0,1.94,1.75,2.76-0.88,4.42-1.77,2.96,1.73,6.26,1.97,10.6,0.89,0.74,2.94,2.6,1.66,4.42,0.88,3.91,1.64,5.28,2.14,9.72,0,2.21-2.6,0.96,0.07,2.66,1.77,3.29-1.03,2.38-1.24,6.18-0.89,3.82,0,4.13-0.09,5.31-2.65,1.92,1.92,2.61,3.31,5.3,0.89,4.12,0.12,2.85,0.52,5.3-0.89,1.82,4.03,2.25,1.12,4.42,2.65-1.43,3.63-3.63,5.34-6.18,7.07-1.7,2.82-2.77,5.86-6.19,7.08-2.5,2.54-5.16,4.02-7.96,6.18-3.83,0.96-8.05,0.89-12.37,0.89h-12.37-12.38-12.37c-2.64,1.32-6.96,1.94-10.61,2.65-4.08,0-8.7,0.05-11.49-0.89-1.9-1.89-5.22-4.01-7.07-6.18-1.88-1.51-1.93-4.46-3.54-6.19-1.48-2.53-1.93-6.49-3.53-8.84v-6.19z"/>
<path id="path994" style="stroke-linejoin:miter;stroke-opacity:0.99607903;fill-rule:evenodd;fill-opacity:0.996081;stroke:#002b0d;stroke-linecap:butt;stroke-width:1pt;fill:#005120;" transform="matrix(1.254631,0,0,1.311904,258.119,-427.3802)" d="M437.52,487.56v0.88c0-2.47,0.11-1.16-1.76,3.54-0.38,1.14-1.22,1.41-2.66,1.77"/>
<path id="path995" style="stroke-linejoin:miter;stroke-opacity:0.99607903;fill-rule:evenodd;fill-opacity:0.996081;stroke:#002b0d;stroke-linecap:butt;stroke-width:1pt;fill:#005120;" transform="matrix(1.254631,0,0,1.311904,258.119,-427.3802)" d="M429.57,491.09h0.88c-3.27,3.09-5.47,4.52-6.19,7.96l6.19-7.96c-3.27,3.09-5.47,4.52-6.19,7.96"/>
<path id="path996" style="stroke-linejoin:miter;stroke-opacity:0.99607903;fill-rule:evenodd;fill-opacity:0.996081;stroke:#002b0d;stroke-linecap:butt;stroke-width:1pt;fill:#005120;" transform="matrix(1.254631,0,0,1.311904,258.119,-427.3802)" d="M417.19,486.68c0,0.07-0.12,3.15-0.88,4.41"/>
<path id="path997" style="stroke-linejoin:miter;stroke-opacity:0.99607903;fill-rule:evenodd;fill-opacity:0.996081;stroke:#002b0d;stroke-linecap:butt;stroke-width:1pt;fill:#005120;" transform="matrix(1.254631,0,0,1.311904,258.119,-427.3802)" d="M413.66,492.86v0.89-0.89z"/>
<path id="path998" style="stroke-linejoin:miter;stroke-opacity:0.99607903;fill-rule:evenodd;fill-opacity:0.996081;stroke:#002b0d;stroke-linecap:butt;stroke-width:1pt;fill:#005120;" transform="matrix(1.254631,0,0,1.311904,258.119,-427.3802)" d="M406.59,487.56h0.88-0.88z"/>
<path id="path999" style="stroke-linejoin:miter;stroke-opacity:0.99607903;fill-rule:evenodd;fill-opacity:0.996081;stroke:#002b0d;stroke-linecap:butt;stroke-width:1pt;fill:#005120;" transform="matrix(1.254631,0,0,1.311904,258.119,-427.3802)" d="M357.09,487.56c0.42,0,2.16,2.8,4.42,4.42-0.56,2.58-1.43,5.58,0,7.95"/>
<path id="path1000" style="stroke-linejoin:miter;stroke-opacity:0.99607903;fill-rule:evenodd;fill-opacity:0.996081;stroke:#002b0d;stroke-linecap:butt;stroke-width:1pt;fill:#005120;" transform="matrix(1.254631,0,0,1.311904,258.119,-427.3802)" d="M364.16,492.86c0.42,0,2.16,2.81,4.42,4.42l-4.42-4.42c0.42,0,2.16,2.81,4.42,4.42v0.89c0-2.73-0.23-5.59,0.88-7.08,0.99,1.67,2.23,4.34,2.66,1.77,4.97-0.18,7.38-1.57,10.6-2.65,0,1.3-0.21,0.68,0.89,1.77"/>
<path id="path1001" style="stroke-linejoin:miter;stroke-opacity:0.99607903;fill-rule:evenodd;fill-opacity:0.996081;stroke:#002b0d;stroke-linecap:butt;stroke-width:1pt;fill:#005120;" transform="matrix(1.254631,0,0,1.311904,258.119,-427.3802)" d="M443.71,488.44h0.89c-1.67,1.39-2.95,4.22-4.42,6.19"/>
<path id="path1002" style="stroke-linejoin:miter;stroke-opacity:0.99607903;fill-rule:evenodd;fill-opacity:0.996081;stroke:#002b0d;stroke-linecap:butt;stroke-width:1pt;fill:#005120;" transform="matrix(1.254631,0,0,1.311904,258.119,-427.3802)" d="M407.47,485.79h7.07"/>
</g>
<path id="path4267" d="M696.88,218.75c-13.34,0-17.76,13.94-31.1,13.94-0.26,0-0.5-0.02-0.75-0.03v0.84c-0.05,9.66,0.71,18.66,2.09,27.06,12.31-0.9,16.88-13.94,29.76-13.94,13.33,0,17.78,13.97,31.12,13.97s17.79-13.97,31.12-13.97c13.34,0,17.79,13.97,31.13,13.97s17.79-13.97,31.13-13.97c12.84,0,17.42,12.95,29.65,13.91,1.47-8.63,2.24-17.89,2.19-27.84v-0.03c-0.25,0.01-0.49,0.03-0.75,0.03-13.34,0-17.76-13.94-31.09-13.94-13.34,0-17.79,13.94-31.13,13.94s-17.79-13.94-31.13-13.94c-13.33,0-17.78,13.94-31.12,13.94s-17.79-13.94-31.12-13.94z" style="stroke-width:1pt;fill-rule:evenodd;fill:white;" transform="matrix(1.007937,0,0,1.007937,-15.15611,2.198873)"/>
<path id="path4280" d="M696.88,273.16c-10.38,0-15.37,8.41-23.35,12.15,2.79,7.69,6.16,14.68,9.91,21.1,3.79-2.87,7.81-5.35,13.44-5.35,13.33,0,17.78,13.94,31.12,13.94s17.79-13.94,31.12-13.94c13.34,0,17.79,13.94,31.13,13.94s17.79-13.94,31.13-13.94c5.49,0,9.47,2.37,13.18,5.16,3.75-6.39,7.13-13.37,9.94-21-7.85-3.8-12.84-12.06-23.12-12.06-13.34,0-17.79,13.93-31.13,13.93s-17.79-13.93-31.13-13.93c-13.33,0-17.78,13.93-31.12,13.93s-17.79-13.93-31.12-13.93z" style="stroke-width:1pt;fill-rule:evenodd;fill:white;" transform="matrix(1.007937,0,0,1.007937,-15.15611,2.198873)"/>
<path id="path4288" d="M759.12,327.56c-13.33,0-17.78,13.97-31.12,13.97-12.61,0-17.28-12.49-29.03-13.84,15.7,17.49,33.51,28.08,45.65,33.9,4.11-3.18,8.37,3.88,14.5,3.88,6.1,0,10.33-7.1,14.41-3.94,12.01-5.85,29.6-16.45,45.22-33.78-11.37,1.66-16.08,13.78-28.5,13.78-13.34,0-17.79-13.97-31.13-13.97z" style="stroke-width:1pt;fill-rule:evenodd;fill:white;" transform="matrix(1.007937,0,0,1.007937,-15.15611,2.198873)"/>
<g id="g4128" transform="matrix(1.007937,0,0,1.007937,-15.15611,2.198873)">
<path id="path728" style="stroke-linejoin:miter;stroke-opacity:0.99607903;stroke:#512007;stroke-linecap:butt;stroke-dasharray:none;stroke-width:0.47499999;fill:none;" transform="matrix(1.254631,0,0,1.311904,259.3511,-429.9994)" d="M332.54,541.35c1.74-0.58,10.17-3.2,10.46-2.91s16.28,15.7,16.28,15.7l-13.37,2.62-13.37-15.41z"/>
<path id="path858" d="M413.64,471.01c0.29-4.65,8.72-31.11,8.72-31.11" style="stroke-opacity:0.99607903;stroke:#512007;stroke-dasharray:none;stroke-width:0.594019;fill:none;" transform="matrix(1.062812,0,0,1.028951,276.8037,-177.9599)"/>
<path id="path859" d="M416.54,471.32c0-0.29,6.69-31.13,6.69-31.13" style="stroke-opacity:0.99607903;stroke:#512007;stroke-dasharray:none;stroke-width:0.594019;fill:none;" transform="matrix(1.062812,0,0,1.028951,276.8037,-177.9599)"/>
<path id="path860" d="M418.83,471.37c0.29-1.75,5.56-31.18,5.56-31.18" style="stroke-opacity:0.99607903;stroke:#512007;stroke-dasharray:none;stroke-width:0.594019;fill:none;" transform="matrix(1.062812,0,0,1.028951,276.8037,-177.9599)"/>
<path id="path861" d="M413.93,467.23c1.45-0.87,5.81-2.04,5.81-2.04" style="stroke-opacity:0.99607903;stroke:#512007;stroke-dasharray:none;stroke-width:0.594019;fill:none;" transform="matrix(1.062812,0,0,1.028951,276.8037,-177.9599)"/>
<path id="path862" d="M415.96,462.58c1.45,0,4.36-1.17,4.36-1.17" style="stroke-opacity:0.99607903;stroke:#512007;stroke-dasharray:none;stroke-width:0.594019;fill:none;" transform="matrix(1.062812,0,0,1.028951,276.8037,-177.9599)"/>
<path id="path863" d="M416.83,459.09c0-0.29,4.36-1.17,4.36-1.17" style="stroke-opacity:0.99607903;stroke:#512007;stroke-dasharray:none;stroke-width:0.594019;fill:none;" transform="matrix(1.062812,0,0,1.028951,276.8037,-177.9599)"/>
<path id="path864" d="M417.41,454.73l4.65-0.87" style="stroke-opacity:0.99607903;stroke:#512007;stroke-dasharray:none;stroke-width:0.594019;fill:none;" transform="matrix(1.062812,0,0,1.028951,276.8037,-177.9599)"/>
<path id="path865" d="M419.45,450.95c0,0.29,3.2,0.29,3.2,0.29" style="stroke-opacity:0.99607903;stroke:#512007;stroke-dasharray:none;stroke-width:0.594019;fill:none;" transform="matrix(1.062812,0,0,1.028951,276.8037,-177.9599)"/>
<path id="path866" d="M420.32,447.46c0.58,0,3.2,0.58,3.2,0.58" style="stroke-opacity:0.99607903;stroke:#512007;stroke-dasharray:none;stroke-width:0.594019;fill:none;" transform="matrix(1.062812,0,0,1.028951,276.8037,-177.9599)"/>
<path id="path809" d="M413.64,471.01c0.29-4.65,8.72-31.11,8.72-31.11" style="stroke-linejoin:miter;stroke-opacity:0.99607903;stroke:#512007;stroke-linecap:butt;stroke-dasharray:none;stroke-width:0.40987;fill:none;" transform="matrix(-1.254631,0,0,1.761966,1290.391,-502.0565)"/>
<path id="path810" d="M416.54,470.13c0-0.29,6.69-29.94,6.69-29.94" style="stroke-linejoin:miter;stroke-opacity:0.99607903;stroke:#512007;stroke-linecap:butt;stroke-dasharray:none;stroke-width:0.40987;fill:none;" transform="matrix(-1.254631,0,0,1.761966,1290.391,-502.0565)"/>
<path id="path811" d="M419.45,467.81c0.29-1.75,4.94-27.62,4.94-27.62" style="stroke-linejoin:miter;stroke-opacity:0.99607903;stroke:#512007;stroke-linecap:butt;stroke-dasharray:none;stroke-width:0.40987;fill:none;" transform="matrix(-1.254631,0,0,1.761966,1290.391,-502.0565)"/>
<path id="path812" d="M413.93,467.23c1.45-0.87,5.81-2.04,5.81-2.04" style="stroke-linejoin:miter;stroke-opacity:0.99607903;stroke:#512007;stroke-linecap:butt;stroke-dasharray:none;stroke-width:0.40987;fill:none;" transform="matrix(-1.254631,0,0,1.761966,1290.391,-502.0565)"/>
<path id="path813" d="M415.96,462.58c1.45,0,4.36-1.17,4.36-1.17" style="stroke-linejoin:miter;stroke-opacity:0.99607903;stroke:#512007;stroke-linecap:butt;stroke-dasharray:none;stroke-width:0.40987;fill:none;" transform="matrix(-1.254631,0,0,1.761966,1290.391,-502.0565)"/>
<path id="path814" d="M416.83,459.09c0-0.29,4.36-1.17,4.36-1.17" style="stroke-linejoin:miter;stroke-opacity:0.99607903;stroke:#512007;stroke-linecap:butt;stroke-dasharray:none;stroke-width:0.40987;fill:none;" transform="matrix(-1.254631,0,0,1.761966,1290.391,-502.0565)"/>
<path id="path815" d="M417.41,454.73l4.65-0.87" style="stroke-linejoin:miter;stroke-opacity:0.99607903;stroke:#512007;stroke-linecap:butt;stroke-dasharray:none;stroke-width:0.40987;fill:none;" transform="matrix(-1.254631,0,0,1.761966,1290.391,-502.0565)"/>
<path id="path816" d="M419.45,450.95c0,0.29,3.2,0.29,3.2,0.29" style="stroke-linejoin:miter;stroke-opacity:0.99607903;stroke:#512007;stroke-linecap:butt;stroke-dasharray:none;stroke-width:0.40987;fill:none;" transform="matrix(-1.254631,0,0,1.761966,1290.391,-502.0565)"/>
<path id="path817" d="M420.32,447.46c0.58,0,3.2,0.58,3.2,0.58" style="stroke-linejoin:miter;stroke-opacity:0.99607903;stroke:#512007;stroke-linecap:butt;stroke-dasharray:none;stroke-width:0.40987;fill:none;" transform="matrix(-1.254631,0,0,1.761966,1290.391,-502.0565)"/>
<path id="path799" d="M413.64,471.01c0.29-4.65,8.72-31.11,8.72-31.11" style="stroke-linejoin:miter;stroke-opacity:0.99607903;stroke:#512007;stroke-linecap:butt;stroke-dasharray:none;stroke-width:0.47499999;fill:none;" transform="matrix(-1.254631,0,0,1.311904,1321.337,-301.916)"/>
<path id="path800" d="M416.54,470.13c0-0.29,6.69-29.94,6.69-29.94" style="stroke-linejoin:miter;stroke-opacity:0.99607903;stroke:#512007;stroke-linecap:butt;stroke-dasharray:none;stroke-width:0.47499999;fill:none;" transform="matrix(-1.254631,0,0,1.311904,1321.337,-301.916)"/>
<path id="path801" d="M419.45,467.81c0.29-1.75,4.94-27.62,4.94-27.62" style="stroke-linejoin:miter;stroke-opacity:0.99607903;stroke:#512007;stroke-linecap:butt;stroke-dasharray:none;stroke-width:0.47499999;fill:none;" transform="matrix(-1.254631,0,0,1.311904,1321.337,-301.916)"/>
<path id="path802" d="M413.93,467.23c1.45-0.87,5.81-2.04,5.81-2.04" style="stroke-linejoin:miter;stroke-opacity:0.99607903;stroke:#512007;stroke-linecap:butt;stroke-dasharray:none;stroke-width:0.47499999;fill:none;" transform="matrix(-1.254631,0,0,1.311904,1321.337,-301.916)"/>
<path id="path803" d="M415.96,462.58c1.45,0,4.36-1.17,4.36-1.17" style="stroke-linejoin:miter;stroke-opacity:0.99607903;stroke:#512007;stroke-linecap:butt;stroke-dasharray:none;stroke-width:0.47499999;fill:none;" transform="matrix(-1.254631,0,0,1.311904,1321.337,-301.916)"/>
<path id="path804" d="M416.83,459.09c0-0.29,4.36-1.17,4.36-1.17" style="stroke-linejoin:miter;stroke-opacity:0.99607903;stroke:#512007;stroke-linecap:butt;stroke-dasharray:none;stroke-width:0.47499999;fill:none;" transform="matrix(-1.254631,0,0,1.311904,1321.337,-301.916)"/>
<path id="path805" d="M417.41,454.73l4.65-0.87" style="stroke-linejoin:miter;stroke-opacity:0.99607903;stroke:#512007;stroke-linecap:butt;stroke-dasharray:none;stroke-width:0.47499999;fill:none;" transform="matrix(-1.254631,0,0,1.311904,1321.337,-301.916)"/>
<path id="path806" d="M419.45,450.95c0,0.29,3.2,0.29,3.2,0.29" style="stroke-linejoin:miter;stroke-opacity:0.99607903;stroke:#512007;stroke-linecap:butt;stroke-dasharray:none;stroke-width:0.47499999;fill:none;" transform="matrix(-1.254631,0,0,1.311904,1321.337,-301.916)"/>
<path id="path807" d="M420.32,447.46c0.58,0,3.2,0.58,3.2,0.58" style="stroke-linejoin:miter;stroke-opacity:0.99607903;stroke:#512007;stroke-linecap:butt;stroke-dasharray:none;stroke-width:0.47499999;fill:none;" transform="matrix(-1.254631,0,0,1.311904,1321.337,-301.916)"/>
<path id="path723" style="stroke-linejoin:miter;stroke-opacity:0.99607903;fill-rule:evenodd;stroke:#512007;stroke-linecap:butt;stroke-dasharray:none;stroke-width:0.47499999;fill:#dd8b59;" transform="matrix(1.254631,0,0,1.311904,259.3511,-429.9994)" d="M395.32,572.16c0-0.29,0.87-72.96,0.87-72.96s2.62-0.29,2.62,0-0.29,72.67-0.58,72.96-3.2,0.58-2.91,0z"/>
<path id="path724" style="stroke-linejoin:miter;stroke-opacity:0.99607903;fill-rule:evenodd;stroke:#512007;stroke-linecap:butt;stroke-dasharray:none;stroke-width:0.47499999;fill:#dd8b59;" transform="matrix(1.254631,0,0,1.311904,259.3511,-429.9994)" d="M423.81,502.4c0,0.58-0.58,61.33-0.58,61.33l-2.04,2.33,0.58-63.66h2.04z"/>
<path id="path719" style="stroke-linejoin:miter;stroke-opacity:0.99607903;fill-rule:evenodd;stroke:#512007;stroke-linecap:butt;stroke-dasharray:none;stroke-width:0.47499999;fill:#dd8b59;" transform="matrix(1.254631,0,0,1.311904,259.3511,-429.9994)" d="M363.06,560.24s2.9,29.94,36.33,29.07,42.73-30.23,42.73-30.23-14.24-0.58-14.53-0.58-11.63,13.95-26.16,13.66c-14.54-0.29-19.19-3.78-22.39-6.68-3.19-2.91-6.1-7.27-6.1-7.27l-16.86-6.69,0.87,6.4,6.11,2.32z"/>
<path id="path712" style="stroke-linejoin:miter;stroke-opacity:0.99607903;fill-rule:evenodd;stroke:#512007;stroke-linecap:butt;stroke-dasharray:none;stroke-width:0.47499999;fill:#dd8b59;" transform="matrix(1.254631,0,0,1.311904,259.3511,-429.9994)" d="M453.3,557.13c-0.29-0.87-1-3.86-1-3.86v-3.49l1.6-3.53s-25.28,3.62-25.28,3.91c0-0.33-0.16,6.89-0.16,6.89l24.84,0.08z"/>
<path id="path714" style="stroke-linejoin:miter;stroke-opacity:0.99607903;stroke:#512007;stroke-linecap:butt;stroke-dasharray:none;stroke-width:0.47499999;fill:none;" transform="matrix(1.254631,0,0,1.311904,259.3511,-429.9994)" d="M448.52,549.78l-0.58,6.1h4.06l-0.29-6.1h-3.19z"/>
<path id="path715" style="stroke-linejoin:miter;stroke-opacity:0.99607903;stroke:#512007;stroke-linecap:butt;stroke-dasharray:none;stroke-width:0.47499999;fill:none;" transform="matrix(1.254631,0,0,1.311904,259.3511,-429.9994)" d="M444.16,550.07l-0.3,6.39,2.62-0.28,0.29-6.11h-2.61z"/>
<path id="path716" style="stroke-linejoin:miter;stroke-opacity:0.99607903;stroke:#512007;stroke-linecap:butt;stroke-dasharray:none;stroke-width:0.47499999;fill:none;" transform="matrix(1.254631,0,0,1.311904,259.3511,-429.9994)" d="M439.8,556.46v-4.94l2.61-0.87,0.29,4.94-2.9,0.87z"/>
<path id="path717" style="stroke-linejoin:miter;stroke-opacity:0.99607903;stroke:#512007;stroke-linecap:butt;stroke-dasharray:none;stroke-width:0.47499999;fill:none;" transform="matrix(1.254631,0,0,1.311904,259.3511,-429.9994)" d="M434.85,556.18l0.59-4.36,2.9,0.28,0.29,4.66-3.78-0.58z"/>
<path id="path718" style="stroke-linejoin:miter;stroke-opacity:0.99607903;stroke:#512007;stroke-linecap:butt;stroke-dasharray:none;stroke-width:0.47499999;fill:none;" transform="matrix(1.254631,0,0,1.311904,259.3511,-429.9994)" d="M429.33,556.18l0.29-3.78,2.91-0.3v4.36l-3.2-0.28z"/>
<path id="path720" style="stroke-linejoin:miter;stroke-opacity:0.99607903;stroke:#512007;stroke-linecap:butt;stroke-dasharray:none;stroke-width:0.47499999;fill:none;" transform="matrix(1.254631,0,0,1.311904,259.3511,-429.9994)" d="M361.89,559.95c0.88,0,7.56,1.46,7.56,1.46l6.98,9.3"/>
<path id="path721" style="stroke-linejoin:miter;stroke-opacity:0.99607903;stroke:#512007;stroke-linecap:butt;stroke-dasharray:none;stroke-width:0.47499999;fill:none;" transform="matrix(1.254631,0,0,1.311904,259.3511,-429.9994)" d="M366.84,561.12c0.29,0.29,6.1,19.76,34,19.76,27.91,0,34.6-22.09,34.6-22.09"/>
<path id="path722" style="stroke-linejoin:miter;stroke-opacity:0.99607903;stroke:#512007;stroke-linecap:butt;stroke-dasharray:none;stroke-width:0.47499999;fill:none;" transform="matrix(1.254631,0,0,1.311904,259.3511,-429.9994)" d="M439.8,559.37s-13.38,29.07-38.96,27.03c-25.58-2.03-29.64-11.62-31.68-16.56-2.03-4.94-3.2-9.01-3.2-9.01"/>
<path id="path725" style="stroke-linejoin:miter;stroke-opacity:0.99607903;fill-rule:evenodd;stroke:#512007;stroke-linecap:butt;stroke-dasharray:none;stroke-width:0.47499999;fill:#dd8b59;" transform="matrix(1.254631,0,0,1.311904,259.3511,-429.9994)" d="M373.23,558.21c0.29-1.75,0.29-54.36,0.29-54.36l-1.74-0.29-0.29,53.78,1.74,0.87z"/>
<path id="path726" style="stroke-linejoin:miter;stroke-opacity:0.99607903;fill-rule:evenodd;stroke:#512007;stroke-linecap:butt;stroke-dasharray:none;stroke-width:0.47499999;fill:#dd8b59;" transform="matrix(1.254631,0,0,1.311904,259.3511,-429.9994)" d="M331.66,541.06l22.1,10.76-0.59,1.45s-21.22-9.89-21.22-10.18,0.29-1.45-0.29-2.03z"/>
<path id="path727" style="stroke-linejoin:miter;stroke-opacity:0.99607903;fill-rule:evenodd;stroke:#512007;stroke-linecap:butt;stroke-dasharray:none;stroke-width:0.47499999;fill:#dd8b59;" transform="matrix(1.254631,0,0,1.311904,259.3511,-429.9994)" d="M341.84,537.86c0,0.87,3.2,18.6,3.2,18.6s2.03,0.3,2.03,0c0-0.28-3.49-18.31-3.49-18.31l-1.74-0.29z"/>
<path id="path730" style="stroke-linejoin:miter;stroke-opacity:0.99607903;fill-rule:evenodd;stroke:#512007;stroke-linecap:butt;stroke-dasharray:none;stroke-width:0.47499999;fill:#dd8b59;" transform="matrix(1.254631,0,0,1.311904,259.3511,-429.9994)" d="M362.18,538.44c1.17,0,20.93-3.19,20.93-3.19l-0.29,3.19-19.47,2.04-1.17-2.04z"/>
<path id="path746" style="stroke-linejoin:miter;stroke-opacity:0.99607903;fill-rule:evenodd;stroke:#512007;stroke-linecap:butt;stroke-dasharray:none;stroke-width:0.47499999;fill:#fecf3e;" transform="matrix(1.254631,0,0,1.311904,259.3511,-429.9994)" d="M365.09,514.32c0.58,0,6.98,3.2,9.59,2.32,2.62-0.87,0.88-2.9,1.46-2.9s2.61,1.45,3.78,0.29c1.16-1.17,2.03-4.65,1.45-4.36s-15.99,5.81-16.28,4.65z"/>
<path id="path731" style="stroke-linejoin:miter;stroke-opacity:0.99607903;fill-rule:evenodd;stroke:#512007;stroke-linecap:butt;stroke-dasharray:none;stroke-width:0.47499999;fill:#dd8b59;" transform="matrix(1.254631,0,0,1.311904,259.3511,-429.9994)" d="M362.48,521.58c1.16,0.3,23.83-6.1,23.83-6.1s0,2.04-0.29,2.04-23.54,6.1-23.54,6.1v-2.04z"/>
<path id="path748" style="stroke-linejoin:miter;stroke-opacity:0.99607903;fill-rule:evenodd;stroke:#512007;stroke-linecap:butt;stroke-dasharray:none;stroke-width:0.47499999;fill:#fecf3e;" transform="matrix(1.254631,0,0,1.311904,259.3511,-429.9994)" d="M415.09,512.57l2.91,2.91c1.45-0.58,2.9-1.74,2.9-1.74s1.16,2.9,3.2,2.32c2.03-0.58,3.2-3.78,3.2-3.78s2.03,0.58,2.9,0.29c0.88-0.29,2.04-4.94,2.04-4.94l-17.15,4.94z"/>
<path id="path745" style="stroke-linejoin:miter;stroke-opacity:0.99607903;fill-rule:evenodd;stroke:#512007;stroke-linecap:butt;stroke-dasharray:none;stroke-width:0.47499999;fill:#fecf3e;" transform="matrix(1.254631,0,0,1.311904,259.3511,-429.9994)" d="M413.34,540.77c-0.29,0.58,1.46,2.03,2.91,2.03s2.04-2.03,2.33-1.45,0.29,3.2,4.07,2.33c3.77-0.88,3.77-3.49,3.77-3.49s-1.16,0.87,1.46,1.16c2.61,0.29,5.23-3.78,4.94-3.78s-18.89,3.49-19.48,3.2z"/>
<path id="path732" style="stroke-linejoin:miter;stroke-opacity:0.99607903;fill-rule:evenodd;stroke:#512007;stroke-linecap:butt;stroke-dasharray:none;stroke-width:0.47499999;fill:#dd8b59;" transform="matrix(1.254631,0,0,1.311904,259.3511,-429.9994)" d="M363.35,513.15c-0.29,1.17,0.29,2.62,0.29,2.62l18.89-6.39s0.87-1.46,0-1.46-19.47,5.82-19.18,5.23z"/>
<path id="path733" style="stroke-linejoin:miter;stroke-opacity:0.99607903;fill-rule:evenodd;stroke:#512007;stroke-linecap:butt;stroke-dasharray:none;stroke-width:0.47499999;fill:#dd8b59;" transform="matrix(1.254631,0,0,1.311904,259.3511,-429.9994)" d="M388.35,509.08c0.58,0,19.47-6.1,19.47-6.1s0.29,2.62,0,2.62-17.73,5.23-17.73,5.23l-1.74-1.75z"/>
<path id="path741" style="stroke-linejoin:miter;stroke-opacity:0.99607903;fill-rule:evenodd;stroke:#512007;stroke-linecap:butt;stroke-dasharray:none;stroke-width:0.47499999;fill:#fecf3e;" transform="matrix(1.254631,0,0,1.311904,259.3511,-429.9994)" d="M413.34,521.88s-2.9,3.19-2.03,7.55,2.03,8.14,2.33,8.14c0.29,0,3.48-5.81,6.97-6.1s9.88,3.19,9.88,3.19-0.87-6.97-0.58-10.17,5.23-8.72,5.23-8.72l-21.8,6.11z"/>
<path id="path734" style="stroke-linejoin:miter;stroke-opacity:0.99607903;fill-rule:evenodd;stroke:#512007;stroke-linecap:butt;stroke-dasharray:none;stroke-width:0.47499999;fill:#dd8b59;" transform="matrix(1.254631,0,0,1.311904,259.3511,-429.9994)" d="M386.89,516.64s-0.58,2.62-0.29,2.62,24.71-6.4,24.71-6.4v-1.74l-24.42,5.52z"/>
<path id="path749" style="stroke-linejoin:miter;stroke-opacity:0.99607903;fill-rule:evenodd;fill-opacity:0.99607801;stroke:#512007;stroke-linecap:butt;stroke-dasharray:none;stroke-width:0.47499999;fill:#b6b6b4;" transform="matrix(1.254631,0,0,1.311904,259.3511,-429.9994)" d="M355.5,551.82s-5.81-0.88-5.52,0.58c0.29,1.45,2.9,2.9,3.19,3.78,0.29,0.87-0.87,4.06,0.88,3.77,1.74-0.29,3.48-1.45,3.48-2.32s-0.29-4.94-0.29-4.94l-1.74-0.87z"/>
<path id="path735" style="stroke-linejoin:miter;stroke-opacity:0.99607903;fill-rule:evenodd;stroke:#512007;stroke-linecap:butt;stroke-dasharray:none;stroke-width:0.47499999;fill:#dd8b59;" transform="matrix(1.254631,0,0,1.311904,259.3511,-429.9994)" d="M387.76,537.28v2.04l20.93-2.91-0.58-1.45-20.35,2.32z"/>
<path id="path743" style="stroke-linejoin:miter;stroke-opacity:0.99607903;fill-rule:evenodd;stroke:#512007;stroke-linecap:butt;stroke-dasharray:none;stroke-width:0.47499999;fill:#fecf3e;" transform="matrix(1.254631,0,0,1.311904,259.3511,-429.9994)" d="M363.06,540.77c0.29,0,0,2.61,2.32,2.03,2.33-0.58,2.91-2.03,2.91-2.03s0.58,3.2,3.78,2.91c3.19-0.3,4.94-3.78,4.94-3.78s0.29,2.61,2.33,1.74c2.03-0.87,2.61-2.91,2.61-2.91l-18.31,2.62-0.58-0.58z"/>
<path id="path739" style="stroke-linejoin:miter;stroke-opacity:0.99607903;fill-rule:evenodd;stroke:#512007;stroke-linecap:butt;stroke-dasharray:none;stroke-width:0.47499999;fill:#fecf3e;" transform="matrix(1.254631,0,0,1.311904,259.3511,-429.9994)" d="M363.06,523.62s-2.62,0.87-1.75,6.1c0.87,5.24,2.91,8.14,3.2,8.14s2.62-4.94,6.1-5.81c3.49-0.87,9.6,2.61,9.6,2.61s-0.59-4.65,0.29-9.01c0.87-4.36,3.78-7.55,3.78-7.55s-20.35,5.52-21.22,5.52z"/>
<path id="path736" style="stroke-linejoin:miter;stroke-opacity:0.99607903;fill-rule:evenodd;stroke:#512007;stroke-linecap:butt;stroke-dasharray:none;stroke-width:0.47499999;fill:#dd8b59;" transform="matrix(1.254631,0,0,1.311904,259.3511,-429.9994)" d="M411.89,538.73l0.29,1.75s20.93-2.62,20.93-2.91,0-2.03-0.29-2.03-20.64,3.48-20.93,3.19z"/>
<path id="path737" style="stroke-linejoin:miter;stroke-opacity:0.99607903;fill-rule:evenodd;stroke:#512007;stroke-linecap:butt;stroke-dasharray:none;stroke-width:0.47499999;fill:#dd8b59;" transform="matrix(1.254631,0,0,1.311904,259.3511,-429.9994)" d="M411.6,520.13l0.29,2.03,24.71-6.68s0.58-1.74,0.29-1.74-24.71,7.26-25.29,6.39z"/>
<path id="path738" style="stroke-linejoin:miter;stroke-opacity:0.99607903;stroke:#512007;stroke-linecap:butt;stroke-dasharray:none;stroke-width:0.47499999;fill:none;" transform="matrix(1.254631,0,0,1.311904,259.3511,-429.9994)" d="M414.22,510.83s-0.29,1.74,0,1.74,18.31-4.36,18.31-4.65,1.74-2.03,0.29-1.74-18.02,5.52-18.6,4.65z"/>
<path id="path750" style="stroke-linejoin:miter;stroke-opacity:0.99607903;stroke:#512007;stroke-linecap:butt;stroke-dasharray:none;stroke-width:0.47499999;fill:none;" transform="matrix(1.254631,0,0,1.311904,259.3511,-429.9994)" d="M452.88,544.55l-18.03-28.49"/>
<path id="path751" style="stroke-linejoin:miter;stroke-opacity:0.99607903;stroke:#512007;stroke-linecap:butt;stroke-dasharray:none;stroke-width:0.47499999;fill:none;" transform="matrix(1.254631,0,0,1.311904,259.3511,-429.9994)" d="M432.53,535.83c0.29-0.87,1.16-18.31,1.16-18.31"/>
<path id="path747" style="stroke-linejoin:miter;stroke-opacity:0.99607903;fill-rule:evenodd;stroke:#512007;stroke-linecap:butt;stroke-dasharray:none;stroke-width:0.47499999;fill:#fecf3e;" transform="matrix(1.254631,0,0,1.311904,259.3511,-429.9994)" d="M388.93,509.96c1.16,0.29,3.19,3.19,4.36,2.61,1.16-0.58,2.9-2.32,2.9-2.32s-0.29,3.49,2.04,2.9c2.32-0.58,2.61-2.9,2.61-2.9s1.75,0.87,3.2,0c1.46-0.87,2.91-5.23,2.33-5.23s-16.86,5.23-17.44,4.94z"/>
<path id="path740" style="stroke-linejoin:miter;stroke-opacity:0.99607903;fill-rule:evenodd;stroke:#512007;stroke-linecap:butt;stroke-dasharray:none;stroke-width:0.47499999;fill:#fecf3e;" transform="matrix(1.254631,0,0,1.311904,259.3511,-429.9994)" d="M388.35,518.39c0,0.58-2.91,5.23-2.04,9.59s2.62,8.43,2.91,8.43,4.65-4.65,8.43-5.52c3.78-0.88,9.3,2.9,9.01,2.9s-1.46-4.36-1.46-7.55c0-3.2,4.36-13.09,4.36-13.09l-21.21,5.24z"/>
<path id="path744" style="stroke-linejoin:miter;stroke-opacity:0.99607903;fill-rule:evenodd;stroke:#512007;stroke-linecap:butt;stroke-dasharray:none;stroke-width:0.47499999;fill:#fecf3e;" transform="matrix(1.254631,0,0,1.311904,259.3511,-429.9994)" d="M388.35,539.32c0,0.29,0.87,2.32,2.9,2.32,2.04,0,2.33-2.03,2.33-2.03s-0.29,3.48,2.9,3.19c3.2-0.29,4.36-3.48,4.36-3.48s0.3,1.74,2.91,0.87c2.62-0.87,6.11-3.78,5.81-3.78-0.28,0-20.92,3.78-21.21,2.91z"/>
<use id="use4342" xlink:href="#path774" transform="translate(-6.564469,7.274674)" height="496.06299" width="992.12598" y="0" x="0"/>
<use id="use4344" xlink:href="#path774" transform="translate(6.564531,3.75822)" height="496.06299" width="992.12598" y="0" x="0"/>
<use id="use4346" xlink:href="#path774" transform="translate(0,11.0329)" height="496.06299" width="992.12598" y="0" x="0"/>
<path id="path774" style="stroke-linejoin:miter;stroke-opacity:0.99607903;fill-rule:evenodd;fill-opacity:0.996081;stroke:#512007;stroke-linecap:butt;stroke-dasharray:none;stroke-width:0.58134294;fill:#be0f17;" d="m408.98,476.96c0,1.0435-0.84591,1.8894-1.8894,1.8894s-1.8894-0.84591-1.8894-1.8894,0.84592-1.8894,1.8894-1.8894,1.8894,0.84591,1.8894,1.8894z" transform="matrix(4.063852e-2,-1.071677,1.023748,4.254108e-2,251.5988,667.9152)"/>
<path id="path753" style="stroke-linejoin:miter;stroke-opacity:0.99607903;stroke:#512007;stroke-linecap:butt;stroke-dasharray:none;stroke-width:0.47499999;fill:none;" transform="matrix(1.254631,0,0,1.311904,259.3511,-429.9994)" d="M398.23,500.07c0-0.29,9.01,3.78,9.01,4.07s31.97,42.73,32.26,42.73"/>
<path id="path754" style="stroke-linejoin:miter;stroke-opacity:0.99607903;stroke:#512007;stroke-linecap:butt;stroke-dasharray:none;stroke-width:0.47499999;fill:none;" transform="matrix(1.254631,0,0,1.311904,259.3511,-429.9994)" d="M423.52,504.14l8.14,3.49,2.61,6.4"/>
<path id="path755" style="stroke-linejoin:miter;stroke-opacity:0.99607903;stroke:#512007;stroke-linecap:butt;stroke-dasharray:none;stroke-width:0.47499999;fill:none;" transform="matrix(1.254631,0,0,1.311904,259.3511,-429.9994)" d="M372.94,503.56c-0.29,0,9.01,6.98,9.01,6.98l1.16,5.81"/>
<path id="path756" style="stroke-linejoin:miter;stroke-opacity:0.99607903;stroke:#512007;stroke-linecap:butt;stroke-dasharray:none;stroke-width:0.47499999;fill:none;" transform="matrix(1.254631,0,0,1.311904,259.3511,-429.9994)" d="M341.26,546c4.06-1.74,32.26-26.45,32.26-26.45"/>
<path id="path757" style="stroke-linejoin:miter;stroke-opacity:0.99607903;stroke:#512007;stroke-linecap:butt;stroke-dasharray:none;stroke-width:0.47499999;fill:none;" transform="matrix(1.254631,0,0,1.311904,259.3511,-429.9994)" d="M333.7,541.35c3.49-2.91,31.68-26.74,31.68-26.74"/>
<path id="path758" style="stroke-linejoin:miter;stroke-opacity:0.99607903;stroke:#512007;stroke-linecap:butt;stroke-dasharray:none;stroke-width:0.47499999;fill:none;" transform="matrix(1.254631,0,0,1.311904,259.3511,-429.9994)" d="M386.6,518.68l29.94,49.7"/>
<path id="path759" style="stroke-linejoin:miter;stroke-opacity:0.99607903;stroke:#512007;stroke-linecap:butt;stroke-dasharray:none;stroke-width:0.47499999;fill:none;" transform="matrix(1.254631,0,0,1.311904,259.3511,-429.9994)" d="M413.01,539.23s3.53,11.71,7.02,13.46c3.49,1.74,7.56,4.65,7.56,4.65"/>
<path id="path760" style="stroke-linejoin:miter;stroke-opacity:0.99607903;stroke:#512007;stroke-linecap:butt;stroke-dasharray:none;stroke-width:0.47499999;fill:none;" transform="matrix(1.254631,0,0,1.311904,259.3511,-429.9994)" d="M412.61,539.48s2.48,13.79,5.97,16.4c3.48,2.62,6.97,5.53,6.97,5.53"/>
<path id="path761" style="stroke-linejoin:miter;stroke-opacity:0.99607903;stroke:#512007;stroke-linecap:butt;stroke-dasharray:none;stroke-width:0.47499999;fill:none;" transform="matrix(1.254631,0,0,1.311904,256.2565,-299.4892)" d="M390.96,439.03s3.49,19.19,10.47,23.55c6.97,4.36,12.79,8.14,12.79,8.14"/>
<path id="path762" style="stroke-linejoin:miter;stroke-opacity:0.99607903;stroke:#512007;stroke-linecap:butt;stroke-dasharray:none;stroke-width:0.47499999;fill:none;" transform="matrix(1.254631,0,0,1.311904,256.2565,-299.4892)" d="M390.67,438.74s7.56,15.12,13.95,19.77c6.4,4.65,15.12,9.01,15.12,9.01"/>
<path id="path763" style="stroke-linejoin:miter;stroke-opacity:0.99607903;stroke:#512007;stroke-linecap:butt;stroke-dasharray:none;stroke-width:0.47499999;fill:none;" transform="matrix(1.254631,0,0,1.311904,256.2565,-299.4892)" d="M366.26,439.9c2.03,3.49,1.74,10.18,4.06,12.5,2.33,2.33,5.82,7.56,5.82,7.56"/>
<path id="path764" style="stroke-linejoin:miter;stroke-opacity:0.99607903;stroke:#512007;stroke-linecap:butt;stroke-dasharray:none;stroke-width:0.47499999;fill:none;" transform="matrix(1.254631,0,0,1.311904,256.2565,-299.4892)" d="M366.84,440.19c1.16,1.75,4.4,10.43,6.39,13.08,1.45,2.33,16.28,17.15,16.28,17.15"/>
<path id="path766" style="stroke-linejoin:miter;stroke-opacity:0.99607903;fill-rule:evenodd;stroke:#512007;stroke-linecap:butt;stroke-dasharray:none;stroke-width:0.47499999;fill:black;" d="m384.57,471.15c0,1.204-0.97605,2.1801-2.1801,2.1801s-2.1801-0.97606-2.1801-2.1801,0.97605-2.1801,2.1801-2.1801,2.1801,0.97607,2.1801,2.1801z" transform="matrix(1.254631,0,0,1.311904,256.2565,-299.4892)"/>
<path id="path767" style="stroke-linejoin:miter;stroke-opacity:0.99607903;fill-rule:evenodd;stroke:#512007;stroke-linecap:butt;stroke-dasharray:none;stroke-width:0.47499999;fill:black;" d="m395.32,475.8c0,1.0435-0.84592,1.8894-1.8894,1.8894s-1.8894-0.84591-1.8894-1.8894,0.84591-1.8894,1.8894-1.8894,1.8894,0.84591,1.8894,1.8894z" transform="matrix(1.254631,0,0,1.311904,256.2565,-299.4892)"/>
<path id="path768" style="stroke-linejoin:miter;stroke-opacity:0.99607903;fill-rule:evenodd;stroke:#512007;stroke-linecap:butt;stroke-dasharray:none;stroke-width:0.47499999;fill:black;" d="m408.98,476.96c0,1.0435-0.84591,1.8894-1.8894,1.8894s-1.8894-0.84591-1.8894-1.8894,0.84592-1.8894,1.8894-1.8894,1.8894,0.84591,1.8894,1.8894z" transform="matrix(1.254631,0,0,1.311904,256.2565,-299.4892)"/>
<path id="path769" style="stroke-linejoin:miter;stroke-opacity:0.99607903;fill-rule:evenodd;stroke:#512007;stroke-linecap:butt;stroke-dasharray:none;stroke-width:0.47499999;fill:black;" d="m420.9,472.46c0,0.96323-0.71577,1.7441-1.5987,1.7441-0.88295,0-1.5987-0.78085-1.5987-1.7441,0-0.96323,0.71577-1.7441,1.5987-1.7441,0.88296,0,1.5987,0.78085,1.5987,1.7441z" transform="matrix(1.254631,0,0,1.311904,256.2565,-299.4892)"/>
<path id="path770" style="stroke-linejoin:miter;stroke-opacity:0.99607903;fill-rule:evenodd;stroke:#512007;stroke-linecap:butt;stroke-dasharray:none;stroke-width:0.47499999;fill:black;" d="m430.49,466.79c0,0.88297-0.84591,1.5988-1.8894,1.5988s-1.8894-0.71579-1.8894-1.5988c0-0.88296,0.84591-1.5988,1.8894-1.5988s1.8894,0.71579,1.8894,1.5988z" transform="matrix(1.254631,0,0,1.311904,256.2565,-299.4892)"/>
<path id="path776" style="stroke-linejoin:miter;stroke-opacity:0.99607903;fill-rule:evenodd;fill-opacity:0.99607801;stroke:#512007;stroke-linecap:butt;stroke-dasharray:none;stroke-width:0.47499999;fill:red;" transform="matrix(1.254631,0,0,1.311904,256.2565,-299.4892)" d="M374.1,404.44c-0.87,0.58-15.4,4.07-13.37,3.78,2.04-0.29,13.66,2.91,13.37,2.03-0.29-0.87,0-5.23,0-5.81z"/>
<path id="path777" style="stroke-linejoin:miter;stroke-opacity:0.99607903;fill-rule:evenodd;fill-opacity:0.99607801;stroke:#512007;stroke-linecap:butt;stroke-dasharray:none;stroke-width:0.47499999;fill:red;" transform="matrix(1.254631,0,0,1.311904,256.2565,-299.4892)" d="M398.81,400.08c-0.58,0-9.01,3.2-8.72,3.2s9.59,2.61,9.3,2.03-0.29-4.36-0.58-5.23z"/>
<path id="path778" style="stroke-linejoin:miter;stroke-opacity:0.99607903;fill-rule:evenodd;fill-opacity:0.99607801;stroke:#512007;stroke-linecap:butt;stroke-dasharray:none;stroke-width:0.47499999;fill:red;" transform="matrix(1.254631,0,0,1.311904,256.2565,-299.4892)" d="M424.1,402.99c-0.58,0.29-10.46,2.61-8.72,2.9s8.43,2.62,8.43,2.04,0-4.65,0.29-4.94z"/>
<path id="path779" d="M413.64,471.01c0.29-4.65,8.72-31.11,8.72-31.11" style="stroke-linejoin:miter;stroke-opacity:0.99607903;stroke:#512007;stroke-linecap:butt;stroke-dasharray:none;stroke-width:0.47499999;fill:none;" transform="matrix(1.254631,0,0,1.311904,256.2565,-299.4892)"/>
<path id="path780" d="M416.54,470.13c0-0.29,6.69-29.94,6.69-29.94" style="stroke-linejoin:miter;stroke-opacity:0.99607903;stroke:#512007;stroke-linecap:butt;stroke-dasharray:none;stroke-width:0.47499999;fill:none;" transform="matrix(1.254631,0,0,1.311904,256.2565,-299.4892)"/>
<path id="path781" d="M419.45,467.81c0.29-1.75,4.94-27.62,4.94-27.62" style="stroke-linejoin:miter;stroke-opacity:0.99607903;stroke:#512007;stroke-linecap:butt;stroke-dasharray:none;stroke-width:0.47499999;fill:none;" transform="matrix(1.254631,0,0,1.311904,256.2565,-299.4892)"/>
<path id="path782" d="M413.93,467.23c1.45-0.87,5.81-2.04,5.81-2.04" style="stroke-linejoin:miter;stroke-opacity:0.99607903;stroke:#512007;stroke-linecap:butt;stroke-dasharray:none;stroke-width:0.47499999;fill:none;" transform="matrix(1.254631,0,0,1.311904,256.2565,-299.4892)"/>
<path id="path783" d="M415.96,462.58c1.45,0,4.36-1.17,4.36-1.17" style="stroke-linejoin:miter;stroke-opacity:0.99607903;stroke:#512007;stroke-linecap:butt;stroke-dasharray:none;stroke-width:0.47499999;fill:none;" transform="matrix(1.254631,0,0,1.311904,256.2565,-299.4892)"/>
<path id="path784" d="M416.83,459.09c0-0.29,4.36-1.17,4.36-1.17" style="stroke-linejoin:miter;stroke-opacity:0.99607903;stroke:#512007;stroke-linecap:butt;stroke-dasharray:none;stroke-width:0.47499999;fill:none;" transform="matrix(1.254631,0,0,1.311904,256.2565,-299.4892)"/>
<path id="path785" d="M417.41,454.73l4.65-0.87" style="stroke-linejoin:miter;stroke-opacity:0.99607903;stroke:#512007;stroke-linecap:butt;stroke-dasharray:none;stroke-width:0.47499999;fill:none;" transform="matrix(1.254631,0,0,1.311904,256.2565,-299.4892)"/>
<path id="path786" d="M419.45,450.95c0,0.29,3.2,0.29,3.2,0.29" style="stroke-linejoin:miter;stroke-opacity:0.99607903;stroke:#512007;stroke-linecap:butt;stroke-dasharray:none;stroke-width:0.47499999;fill:none;" transform="matrix(1.254631,0,0,1.311904,256.2565,-299.4892)"/>
<path id="path787" d="M420.32,447.46c0.58,0,3.2,0.58,3.2,0.58" style="stroke-linejoin:miter;stroke-opacity:0.99607903;stroke:#512007;stroke-linecap:butt;stroke-dasharray:none;stroke-width:0.47499999;fill:none;" transform="matrix(1.254631,0,0,1.311904,256.2565,-299.4892)"/>
<path id="path819" d="M413.64,471.01c0.29-4.65,8.72-31.11,8.72-31.11" style="stroke-opacity:0.99607903;stroke:#512007;stroke-dasharray:none;stroke-width:0.47499999;fill:none;" transform="matrix(1.254631,0,0,1.363165,225.3112,-323.3637)"/>
<path id="path820" d="M416.54,471.32c0-0.29,6.69-31.13,6.69-31.13" style="stroke-opacity:0.99607903;stroke:#512007;stroke-dasharray:none;stroke-width:0.47499999;fill:none;" transform="matrix(1.254631,0,0,1.363165,225.3112,-323.3637)"/>
<path id="path821" d="M418.83,471.37c0.29-1.75,5.56-31.18,5.56-31.18" style="stroke-opacity:0.99607903;stroke:#512007;stroke-dasharray:none;stroke-width:0.47499999;fill:none;" transform="matrix(1.254631,0,0,1.363165,225.3112,-323.3637)"/>
<path id="path822" d="M413.93,467.23c1.45-0.87,5.81-2.04,5.81-2.04" style="stroke-opacity:0.99607903;stroke:#512007;stroke-dasharray:none;stroke-width:0.47499999;fill:none;" transform="matrix(1.254631,0,0,1.363165,225.3112,-323.3637)"/>
<path id="path823" d="M415.96,462.58c1.45,0,4.36-1.17,4.36-1.17" style="stroke-opacity:0.99607903;stroke:#512007;stroke-dasharray:none;stroke-width:0.47499999;fill:none;" transform="matrix(1.254631,0,0,1.363165,225.3112,-323.3637)"/>
<path id="path824" d="M416.83,459.09c0-0.29,4.36-1.17,4.36-1.17" style="stroke-opacity:0.99607903;stroke:#512007;stroke-dasharray:none;stroke-width:0.47499999;fill:none;" transform="matrix(1.254631,0,0,1.363165,225.3112,-323.3637)"/>
<path id="path825" d="M417.41,454.73l4.65-0.87" style="stroke-opacity:0.99607903;stroke:#512007;stroke-dasharray:none;stroke-width:0.47499999;fill:none;" transform="matrix(1.254631,0,0,1.363165,225.3112,-323.3637)"/>
<path id="path826" d="M419.45,450.95c0,0.29,3.2,0.29,3.2,0.29" style="stroke-opacity:0.99607903;stroke:#512007;stroke-dasharray:none;stroke-width:0.47499999;fill:none;" transform="matrix(1.254631,0,0,1.363165,225.3112,-323.3637)"/>
<path id="path827" d="M420.32,447.46c0.58,0,3.2,0.58,3.2,0.58" style="stroke-opacity:0.99607903;stroke:#512007;stroke-dasharray:none;stroke-width:0.47499999;fill:none;" transform="matrix(1.254631,0,0,1.363165,225.3112,-323.3637)"/>
<path id="path848" d="M413.64,471.01c0.29-4.65,8.72-31.11,8.72-31.11" style="stroke-linejoin:miter;stroke-opacity:0.99607903;stroke:#512007;stroke-linecap:butt;stroke-dasharray:none;stroke-width:0.47357401;fill:none;" transform="matrix(-1.254631,0,0,1.319819,1259.188,-307.285)"/>
<path id="path849" d="M416.54,470.13c0-0.29,6.69-29.94,6.69-29.94" style="stroke-linejoin:miter;stroke-opacity:0.99607903;stroke:#512007;stroke-linecap:butt;stroke-dasharray:none;stroke-width:0.47357401;fill:none;" transform="matrix(-1.254631,0,0,1.319819,1259.188,-307.285)"/>
<path id="path850" d="M419.45,467.81c0.29-1.75,4.94-27.62,4.94-27.62" style="stroke-linejoin:miter;stroke-opacity:0.99607903;stroke:#512007;stroke-linecap:butt;stroke-dasharray:none;stroke-width:0.47357401;fill:none;" transform="matrix(-1.254631,0,0,1.319819,1259.188,-307.285)"/>
<path id="path851" d="M413.93,467.23c1.45-0.87,5.81-2.04,5.81-2.04" style="stroke-linejoin:miter;stroke-opacity:0.99607903;stroke:#512007;stroke-linecap:butt;stroke-dasharray:none;stroke-width:0.47357401;fill:none;" transform="matrix(-1.254631,0,0,1.319819,1259.188,-307.285)"/>
<path id="path852" d="M415.96,462.58c1.45,0,4.36-1.17,4.36-1.17" style="stroke-linejoin:miter;stroke-opacity:0.99607903;stroke:#512007;stroke-linecap:butt;stroke-dasharray:none;stroke-width:0.47357401;fill:none;" transform="matrix(-1.254631,0,0,1.319819,1259.188,-307.285)"/>
<path id="path853" d="M416.83,459.09c0-0.29,4.36-1.17,4.36-1.17" style="stroke-linejoin:miter;stroke-opacity:0.99607903;stroke:#512007;stroke-linecap:butt;stroke-dasharray:none;stroke-width:0.47357401;fill:none;" transform="matrix(-1.254631,0,0,1.319819,1259.188,-307.285)"/>
<path id="path854" d="M417.41,454.73l4.65-0.87" style="stroke-linejoin:miter;stroke-opacity:0.99607903;stroke:#512007;stroke-linecap:butt;stroke-dasharray:none;stroke-width:0.47357401;fill:none;" transform="matrix(-1.254631,0,0,1.319819,1259.188,-307.285)"/>
<path id="path855" d="M419.45,450.95c0,0.29,3.2,0.29,3.2,0.29" style="stroke-linejoin:miter;stroke-opacity:0.99607903;stroke:#512007;stroke-linecap:butt;stroke-dasharray:none;stroke-width:0.47357401;fill:none;" transform="matrix(-1.254631,0,0,1.319819,1259.188,-307.285)"/>
<path id="path856" d="M420.32,447.46c0.58,0,3.2,0.58,3.2,0.58" style="stroke-linejoin:miter;stroke-opacity:0.99607903;stroke:#512007;stroke-linecap:butt;stroke-dasharray:none;stroke-width:0.47357401;fill:none;" transform="matrix(-1.254631,0,0,1.319819,1259.188,-307.285)"/>
<path id="path711" style="stroke-linejoin:miter;stroke-opacity:0.99607903;fill-rule:evenodd;stroke:#512007;stroke-linecap:butt;stroke-dasharray:none;stroke-width:0.47499999;fill:#dd8b59;" transform="matrix(1.254631,0,0,1.311904,259.3511,-429.9994)" d="M426.42,558.5l27.62,0.58,0.29-2.03-28.49-0.29,0.58,1.74z"/>
<path id="path713" style="stroke-linejoin:miter;stroke-opacity:0.99607903;fill-rule:evenodd;stroke:#512007;stroke-linecap:butt;stroke-dasharray:none;stroke-width:0.47499999;fill:#dd8b59;" transform="matrix(1.254631,0,0,1.311904,259.3511,-429.9994)" d="M427.59,551.23c3.19,0,27.32-4.65,27.32-4.65s0.87-2.9,0-2.9-27.32,5.52-27.32,5.52v2.03z"/>
<use id="use4351" xlink:href="#path774" transform="translate(0,5.516449)" height="496.06299" width="992.12598" y="0" x="0"/>
</g>
</g>
</svg>
