<?xml version="1.0" encoding="UTF-8" standalone="no"?>
<svg id="svg2" xmlns:rdf="http://www.w3.org/1999/02/22-rdf-syntax-ns#" xmlns="http://www.w3.org/2000/svg" height="360" width="600" version="1.0" xmlns:cc="http://creativecommons.org/ns#" xmlns:xlink="http://www.w3.org/1999/xlink" viewBox="0,0 500,300" xmlns:dc="http://purl.org/dc/elements/1.1/">
<metadata id="metadata46">
<rdf:RDF>
<cc:Work rdf:about="">
<dc:format>image/svg+xml</dc:format>
<dc:type rdf:resource="http://purl.org/dc/dcmitype/StillImage"/>
<dc:title/>
</cc:Work>
</rdf:RDF>
</metadata>
<defs id="defs4">
<g id="s">
<g id="c">
<path id="t" transform="rotate(18 0,-1)" fill="#fcd116" d="M0-1v1h0.5"/>
<use id="use9" xlink:href="#t" transform="scale(-1,1)"/>
</g>
<use id="use11" xlink:href="#c" transform="rotate(72)"/>
<use id="use13" xlink:href="#c" transform="rotate(144)"/>
<use id="use15" xlink:href="#c" transform="rotate(216)"/>
<use id="use17" xlink:href="#c" transform="rotate(288)"/>
</g>
</defs>
<rect id="rect19" width="500" fill="#ce1126" height="300"/>
<rect id="rect21" height="216" width="416" y="42" x="42" fill="#007a5e"/>
<path id="path23" d="M42,42h416l-416,216h416z" fill="#fcd116"/>
<circle id="circle25" cy="150" cx="250" r="36" fill="#ce1126"/>
<use id="use27" xlink:href="#s" transform="translate(250,150) scale(33)"/>
<use id="use29" x="-100" xlink:href="#s2"/>
<use id="s2" xlink:href="#s" transform="translate(250,21) scale(19.5)"/>
<use id="use32" x="100" xlink:href="#s2"/>
<use id="use34" y="258" x="-100" xlink:href="#s2"/>
<use id="use36" y="258" xlink:href="#s2"/>
<use id="use38" y="258" x="100" xlink:href="#s2"/>
<path id="path40" d="M67.749,150.41c4.504,8.39,13.265,17.52,20.916,20.73,0.123-8.52-2.9-19.44-7.034-28.14l-13.882,7.41z" fill="#ce1126"/>
<path id="path42" d="M60.112,121.63c6.529,13.61-16.933,46.08,22.156,53.69-4.822-6.58-7.931-17.44-6.755-26.16,8.201,3.12,16.83,12.25,20.317,19.23,10.23-37.15-26.24-34.89-35.718-46.76z" fill="#fcd116"/>
</svg>
