<?xml version="1.0" encoding="UTF-8" standalone="no"?>
<svg id="svg2" xmlns:rdf="http://www.w3.org/1999/02/22-rdf-syntax-ns#" xmlns="http://www.w3.org/2000/svg" height="500" width="1000" version="1.0" xmlns:cc="http://creativecommons.org/ns#" xmlns:dc="http://purl.org/dc/elements/1.1/" viewBox="0,0 512,256">
<metadata id="metadata108">
<rdf:RDF>
<cc:Work rdf:about="">
<dc:format>image/svg+xml</dc:format>
<dc:type rdf:resource="http://purl.org/dc/dcmitype/StillImage"/>
<dc:title/>
</cc:Work>
</rdf:RDF>
</metadata>
<rect id="rect4" width="512" fill="#fff" height="256"/>
<rect id="rect6" y="171.5" width="512" fill="#da000c" height="84.5"/>
<path id="path8" stroke="#000" d="M235.78,227.56v8.03h5.03v-4.03h6.85v4.03h5.4v-8.03zm0,11.06v8.07h17.28v-8.07h-5.4v4.04h-6.85v-4.04z" fill="#f8d80e"/>
<rect id="rect10" height="43.993" width="118.86" y="116.3" x="196.57" fill="#000"/>
<path id="path12" stroke="#000" stroke-linecap="square" d="M229.82,153.86h-39.07l-8.66,5.7v6.04h47.73" fill="#da000c"/>
<path id="path14" stroke="#000" stroke-linecap="square" d="M282.18,153.86h39.07l8.66,5.7v6.04h-47.73" fill="#da000c"/>
<path id="path16" stroke="#000" stroke-linecap="square" d="M182.09,159.56h147.82"/>
<path id="path18" stroke="#000" fill-rule="evenodd" d="M228.56,156.81l-9.78,4.72v7.03h37.22,37.22v-7.03l-9.78-4.72h-27.44z" fill="#da000c"/>
<g id="g20" stroke="#000" stroke-linecap="round">
<path id="path22" stroke-width="0.768" fill-rule="evenodd" d="M273.3,150.03c-1.34,0.4-3.04,1.25-5.13,2.41-2.08,1.15-4.47,2.6-6.72,4.09-1.66,1.11-3.06,2.21-4.43,3.28-0.48,0.38-1.15,0.77-1.57,1.13-0.49,0.42-0.82,0.82-1.22,1.22-0.25,0.26-0.59,0.52-0.81,0.78-0.54,0.65-1.06,1.21-1.06,2.4,0,0.22,0.01,0.44,0.03,0.66,0.78-0.93,1.89-1.57,3.13-1.72h0.03,0.12,0.03c0.13-0.01,0.22,0,0.35,0,0.12,0,0.22-0.01,0.34,0,0.19,0.02,0.35,0.06,0.53,0.1,0.07-0.07,0.12-0.13,0.19-0.19,0.23-0.21,0.35-0.36,0.62-0.6,0.55-0.47,1.46-1.06,2.16-1.59,1.13-0.85,2.16-1.67,3.5-2.56,2.17-1.44,4.48-2.84,6.47-3.94s3.75-1.89,4.44-2.09z" fill="#f8d80e"/>
<path id="path24" d="M260.4,157.39v3.91"/>
<path id="path26" d="M262.82,155.69v3.88"/>
<path id="path28" d="M265.23,154.18v3.86"/>
<path id="path30" d="M267.65,152.69v3.98"/>
</g>
<path id="path32" stroke="#000" d="M218.77,161.52h74.46"/>
<path id="path34" stroke="#000" stroke-linecap="square" d="M213.47,128.59c5.62,0,10.22,4.69,10.22,10.47v14.78h7.34v-55.996h-40.28v55.996h12.5v-14.78c0-5.55,4.51-10.47,10.22-10.47z" fill="#da000c"/>
<rect id="rect36" height="33.959" width="18.523" y="59.962" x="204.53" fill="#000"/>
<path id="path38" stroke="#000" fill-rule="evenodd" d="M223,88.656h-16.21v-5.75h-11.88v5.75h-8.07v-5.75h-4.81v10.438h40.97m-36.16-0.038h34.97v4.538h-34.97z" fill="#da000c"/>
<path id="path40" stroke="#000" fill-rule="evenodd" d="M200.72,47.625v35.281h6.07v-9.687c0-3.63,2.56-6.6,6.15-6.781,0.11-0.006,0.22,0,0.34,0,3.75-0.001,6.78,3.034,6.78,6.781v9.687h5.78v-35.281z" fill="#da000c"/>
<rect id="rect42" height="53.255" width="29.329" y="38.351" x="240.8" fill="#000"/>
<path id="path44" stroke="#000" fill-rule="evenodd" d="M238.75,38.375v44.563h9.31v-13.219c0-3.049,1.96-7.281,7.94-7.281s7.94,4.232,7.94,7.281v13.219h9.31v-44.563h-17.25zm15.81,5h1.44,1.44v15.25h-1.44-1.44zm-8.25,3h2.91v11.156h-2.91zm16.47,0h2.91v11.156h-2.91z" fill="#da000c"/>
<path id="path46" stroke="#000" stroke-linecap="square" d="M235.59,31.969v6.343h20.41,20.41v-6.343h-20.41z" fill="#da000c"/>
<path id="path48" stroke="#000" stroke-linecap="square" d="M231.75,24.594v7.375h24.25,24.25v-7.375h-6.09v4.062h-6.88v-4.062h-7.84v4.062h-3.44-3.44v-4.062h-7.84v4.062h-6.88v-4.062z" fill="#da000c"/>
<path id="path50" stroke="#000" stroke-linecap="square" d="M198.53,42.844v4.781h29.25v-4.781z" fill="#da000c"/>
<path id="path52" stroke="#000" stroke-linecap="square" d="M194.78,33.688v9.156h35.1v-9.156h-5.41v4.656h-6.53v-4.656h-9.97v4.656h-6.53v-4.656z" fill="#da000c"/>
<rect id="rect54" height="58.115" width="4.9902" stroke="#000" y="193.65" x="253.05" fill="#f8d80e"/>
<path id="path56" stroke="#000" stroke-width="1.024" d="M255.55,179.41l10.62,6.18-10.62,6.16-10.63-6.16zm-14.22,3.97h-2.78v4.43h2.78l14.22,8.25,14.22-8.25h2.78v-4.43h-2.78l-14.22-8.26z" fill="#f8d80e"/>
<path id="path58" d="M238.89,150.16l-1.19,3.31c3.84,1.39,9.29,4.08,13.66,6.72,2.18,1.31,4.09,2.61,5.41,3.69,0.65,0.53,1.16,1.03,1.43,1.37,0.04,0.04,0.08,0.09,0.1,0.13,0,0-0.01,0.02,0,0.03,0.02,0.04,0.05,0.09,0.06,0.12-0.03,0.22-0.07,0.47-0.13,0.63,0,0.01-0.02,0.05-0.03,0.06,0,0,0.01,0.02,0,0.03,0,0-0.02,0.03-0.03,0.03-0.02,0.03-0.04,0.07-0.06,0.1-0.01,0-0.03,0.02-0.03,0.03-0.01,0-0.03,0.02-0.03,0.03-0.01,0.01-0.05,0.02-0.07,0.03s-0.06,0.05-0.09,0.06c-0.14,0.06-0.38,0.09-0.75,0.09-0.22,0-0.4-0.03-0.53-0.06-0.05-0.01-0.12-0.01-0.16-0.03-0.01,0-0.05-0.02-0.06-0.03-0.03-0.02-0.07-0.04-0.09-0.06l-0.03-0.03c-0.01-0.01-0.03-0.03-0.04-0.03,0-0.02-0.02-0.06-0.03-0.07h-0.03-0.03-0.03-0.06c-0.1,0-0.19-0.01-0.28,0-1.15,0.12-2.12,0.94-2.44,2.07v0.03l0.03,0.03c0.02,0.01,0.05,0.04,0.06,0.06,0.8,0.97,2.18,1.62,3.72,1.62,1.62,0,3.03-0.67,3.81-1.68,0.79-1.01,0.97-2.16,0.97-3.1,0-1.09-0.49-1.72-1-2.34s-1.17-1.22-1.94-1.84c-1.53-1.26-3.53-2.6-5.81-3.97-4.55-2.75-10.08-5.52-14.28-7.03z" fill-rule="evenodd" stroke="#000" stroke-width=".768" fill="#f8d80e"/>
<g id="g60" stroke="#000" stroke-linecap="round">
<path id="path62" d="M254.05,158.04l-0.31,3.33"/>
<path id="path64" d="M256.83,159.74l-0.86,3.27"/>
<path id="path66" d="M259.8,162.01l-1.8,2.54"/>
<path id="path68" d="M260.72,168.18l-2.61-1.4"/>
<path id="path70" d="M261.53,165.43l-3,0.28"/>
<path id="path72" d="M257.66,169.76l-0.2-2.63"/>
<path id="path74" d="M256.57,166.76l-2.47,1.82"/>
<path id="path76" d="M244.68,152.94v3.11"/>
<path id="path78" d="M250.96,156.24v3.54"/>
<path id="path80" d="M247.82,154.59v3.32"/>
</g>
<path id="path82" stroke="#000" stroke-width="1.024" d="M255.34,164.28c-2.32,0.36-4.09,2.47-4.09,4.94v11.03c0,2.72,2.16,4.97,4.81,4.97h0.19,0.19c1.88,0,3.52-1.15,4.31-2.78l-1.72-1.03c-0.43,1.06-1.43,1.78-2.59,1.78h-0.13-0.06-0.06-0.13c-1.55,0-2.81-1.28-2.81-2.94v-11.03c0-1.66,1.26-2.91,2.81-2.91h0.13,0.06,0.06,0.13c0.43,0,0.85,0.11,1.22,0.28h0.03c0.08-0.01,0.16-0.04,0.22-0.06,0.02-0.01,0.07-0.05,0.09-0.06,0.01-0.01,0.03-0.03,0.03-0.03h0.03c0.01-0.01,0.03-0.03,0.03-0.03,0.01-0.01,0.03-0.03,0.03-0.03,0.02-0.03,0.05-0.08,0.07-0.1v-0.03s0.03-0.03,0.03-0.03c0-0.01,0.02-0.05,0.03-0.06,0.06-0.16,0.1-0.41,0.13-0.63-0.02-0.03-0.05-0.08-0.07-0.12v-0.03c-0.02-0.04-0.06-0.09-0.09-0.13-0.2-0.25-0.55-0.56-0.97-0.94h-0.03c-0.03,0-0.1-0.02-0.13-0.03h-0.03-0.06-0.03-0.06-0.13c-0.12-0.01-0.22,0-0.34,0h-0.19-0.19c-0.12,0-0.22-0.01-0.34,0h-0.13-0.06-0.03-0.06-0.03-0.07zm5.78,3.91c-0.05,0.07-0.1,0.17-0.15,0.25-0.42,0.53-1.01,0.98-1.72,1.28v7.56l2,1.16v-9.22c0-0.35-0.03-0.7-0.09-1.03h-0.04z" fill="#f8d80e"/>
<path id="path84" stroke="#000" stroke-linecap="square" d="M298.53,128.59c-5.62,0-10.22,4.69-10.22,10.47v14.78h-7.34v-55.996h40.28v55.996h-12.5v-14.78c0-5.55-4.51-10.47-10.22-10.47z" fill="#da000c"/>
<path id="path86" stroke="#000" stroke-linecap="round" d="M222.75,97.844v4.596h33.25,33.25v-4.596h-33.25z" fill="#da000c"/>
<rect id="rect88" transform="scale(-1,1)" height="33.959" width="18.523" y="59.962" x="-307.47" fill="#000"/>
<path id="path90" stroke="#000" fill-rule="evenodd" d="M289,88.656h16.21v-5.75h11.88v5.75h8.07v-5.75h4.81v10.438h-40.97m36.16-0.038h-34.97v4.538h34.97z" fill="#da000c"/>
<path id="path92" stroke="#000" fill-rule="evenodd" d="M311.28,47.625v35.281h-6.07v-9.687c0-3.63-2.56-6.6-6.15-6.781-0.11-0.006-0.22,0-0.34,0-3.75-0.001-6.78,3.034-6.78,6.781v9.687h-5.78v-35.281z" fill="#da000c"/>
<path id="path94" stroke="#000" fill-rule="evenodd" d="M220.03,82.906v14.938h35.97,35.97v-14.938h-6.81v5.75h-9.07v-5.75h-12.15v5.75h-7.94-7.94v-5.75h-12.15v5.75h-9.07v-5.75z" fill="#da000c"/>
<path id="path96" stroke="#000" stroke-linecap="square" d="M313.47,42.844v4.781h-29.25v-4.781z" fill="#da000c"/>
<path id="path98" stroke="#000" stroke-linecap="square" d="M317.22,33.688v9.156h-35.1v-9.156h5.41v4.656h6.53v-4.656h9.97v4.656h6.53v-4.656z" fill="#da000c"/>
<rect id="rect100" height="50.06" width="4.9902" stroke="#000" y="198.68" x="253.05" fill="#f8d80e"/>
<path id="path102" stroke-linejoin="round" d="M228.69,102.44v54.34h12.84v-20.34c0-9.59,6.4-14.1,14.47-14.1,7.76,0,14.47,4.51,14.47,14.1v20.34h12.84v-54.34h-27.31z" fill-rule="evenodd" stroke="#000" fill="#da000c"/>
</svg>
