<?xml version="1.0" encoding="UTF-8" standalone="no"?>
<svg id="svg2" xmlns:rdf="http://www.w3.org/1999/02/22-rdf-syntax-ns#" xmlns="http://www.w3.org/2000/svg" height="800" width="1200" version="1.1" xmlns:cc="http://creativecommons.org/ns#" xmlns:dc="http://purl.org/dc/elements/1.1/" viewBox="0 0 3600 2400">
<metadata id="metadata106">
<rdf:RDF>
<cc:Work rdf:about="">
<dc:format>image/svg+xml</dc:format>
<dc:type rdf:resource="http://purl.org/dc/dcmitype/StillImage"/>
<dc:title>Flag of Equatorial Guinea</dc:title>
</cc:Work>
</rdf:RDF>
</metadata>
<title id="title4">Flag of Equatorial Guinea</title>
<rect id="rect6" style="fill:#E32118;" height="2400" width="3600" y="0" x="0"/>
<rect id="rect8" style="fill:#FFFFFF;" height="1600" width="3600" y="0" x="0"/>
<rect id="rect10" style="fill:#3E9A00;" height="800" width="3600" y="0" x="0"/>
<polygon id="polygon12" style="fill:#0073CE;" points="0,0,0,2400,900,1200"/>
<g id="g14" style="stroke:#000000;stroke-width:3.5;fill:#FFFFFF;">
<polygon id="polygon16" points="2027,1352,2052,1388,2052,1388,2075,1354,2059,1325,2027,1352"/>
<path id="path18" d="M1868,1457l2,36,19-3c8-3,15-9,15-9l-1-19-35-5z"/>
<path id="path20" d="M1734,1457l-2,35-18-2c-8-2-15-7-15-7l-10-24,45-2z"/>
<path id="path22" style="stroke-width:4.8;" d="M1608,958.8h383v401.2c0,135-176,31-191,103-26-74-191,33-191-111,0-140-1-393.2-1-393.2z"/>
<polygon id="polygon24" points="1573,1352,1547,1388,1519,1342,1540,1320,1573,1352"/>
</g>
<g id="g26" style="stroke:#000000;stroke-width:3.5;fill:#FFD700;">
<polygon id="polygon28" points="1787,902.6,1765,903.6,1754,923.3,1742,904.5,1720,905.4,1730,885.6,1718,866.8,1741,865.8,1751,846.1,1763,864.9,1785,864,1775,883.8,1787,902.6"/>
<polygon id="polygon30" points="1693,909.9,1671,915.3,1665,936.6,1649,920.6,1628,925.8,1634,904.5,1619,888.3,1640,883,1646,861.6,1662,877.6,1684,872.4,1677,893.8,1693,909.9"/>
<polygon id="polygon32" points="1602,928.6,1582,938.5,1581,960.7,1562,948.5,1542,958.3,1544,936.1,1525,923.8,1545,913.8,1547,891.6,1565,903.8,1585,894,1584,916.2,1602,928.6"/>
<polygon id="polygon34" points="1816,902.6,1838,903.6,1848,923.3,1860,904.5,1882,905.4,1872,885.6,1884,866.8,1862,865.8,1851,846.1,1839,864.9,1817,864,1827,883.8,1816,902.6"/>
<polygon id="polygon36" points="1910,909.9,1931,915.3,1937,936.6,1953,920.6,1974,925.8,1968,904.5,1984,888.3,1962,883,1956,861.6,1940,877.6,1919,872.4,1925,893.8,1910,909.9"/>
<polygon id="polygon38" points="2000,928.6,2020,938.5,2021,960.7,2040,948.5,2060,958.3,2059,936.1,2077,923.8,2057,913.8,2056,891.6,2037,903.8,2017,894,2019,916.2,2000,928.6"/>
</g>
<g id="g40" style="stroke:#000000;stroke-width:3.5;fill:#FFFFFF;">
<path id="path42" d="M1698,1481v48c0,34,206,34,206,0v-48c0,25-206,20-206,0z"/>
<path id="path44" d="M1514,1418c18,92,184,94,184,94v-31c-4-12,3-16,30-20,11-1,6-17,6-17s-72,13-123-7c-69-28-79-82-79-82s-5,42-18,63z"/>
<path id="path46" d="M2087,1418c-17,92-183,94-183,94v-31c3-12-4-16-31-20-11-1-5-17-5-17s72,13,123-7c68-28,76-82,76-82s7,42,20,63z"/>
<path id="path48" d="M1527,1383c-46-25-10-51-6-125,7,45,58,64,52,93-21,1-31-31-41,4,0,0-5,28-5,28z"/>
<path id="path50" d="M2074,1383c46-26,8-51,4-125-7,45-57,64-51,93,20,1,30-31,40,4,0,0,7,27,7,27v1z"/>
</g>
<path id="path52" style="fill-rule:nonzero;fill:#000000;" d="M1761,1541v-32h10,8c2,1,4,2,5,3,1,2,2,4,2,6s-1,4-1,5c-1,2-2,3-3,4-1,0-2,1-3,1-2,0-4,1-7,1h-4v12h-7zm7-27v9h3,5c1-1,2-1,2-2,1-1,1-1,1-2,0-2,0-3-1-3-1-1-2-2-3-2h-4-3zm49,27h-7l-3-8h-13l-3,8h-7l13-32h7l13,32zm-12-13l-5-12-4,12h9zm12,13v-6l17-21h-15v-5h24v5l-18,21h18v6h-26z"/>
<path id="path54" style="stroke:#000000;stroke-width:1;fill:#73452B;" d="M1827,1399s-5,5-14,1-10-257-10-257c20-22,36-29,36-29s12,10,12,10c-45,23-41,56-37,113,1,21,1,48,6,74,7,33,21,61,22,82,1,13-15,6-15,6z"/>
<path id="path56" style="stroke:#000000;stroke-width:1;fill:#73452B;" d="M1796,1108h18c-15,145-2,231-2,273,0,14,8,19,7,19-18,20-27-1-27-1l4-291z"/>
<path id="path58" style="stroke:#000000;stroke-width:1;fill:#A36629;" d="M1768,1399c-17,8-19-8-18-10,37-75,53-240,19-258,0,0,2-16,2-16,13,4,25,21,25,21,5,185,0,261-3,264-18,19-25-3-26-5"/>
<path id="path60" style="stroke:#000000;stroke-width:1;fill:none;" d="M1767,1396c-3-16,26-57,24-100"/>
<path id="path62" style="stroke:#000000;stroke-width:1;fill:none;" d="M1816,1331c9,25,13,47,11,68"/>
<path id="path64" style="stroke:#000000;stroke-width:1;fill:#009A3B;" d="M1855,1040c6-7,6-7,17-7,2-15,27-15,29,4,20-4,24,8,16,20,19-5,36,0,31,22,34,9,21,33,6,38-2,15-16,20-35,14-24,17-38,11-49-6-27,4-29-2-41-17-21,9-25,9-43-2-1,14-6,10-15,9,1,18-6,26-22,20,12,25-19,36-34,15-14,1-15-3-22-8-6,20-28,17-32,6-28-4-25-19-2-20,2-16,16-13,25-11,1-10,7-8,12-6-3-7-1-11,8-13-13-17-5-23,8-29-7-16,5-15,14-16-1-17,4-20,22-22-2-6,1-11,11-11-6-17,2-20.9,20-18,3-24.7,56-13,52,21,15,2,20,5,24,17z"/>
<g id="g66" style="stroke:#000000;stroke-width:1;fill:none;">
<path id="path68" d="M1748,1031c4,2,9,0,10,11,8-14,18-6,18,10"/>
<path id="path70" d="M1831,1023c-4,6-19,6-17,22-5-7-15-9-19-2"/>
<path id="path72" d="M1855,1040c0,4-1,16-5,22"/>
<path id="path74" d="M1917,1057c1,1-14,0-21,5"/>
<path id="path76" d="M1954,1117c-4-2-12-7-18,1,0-4,0-15-11-15"/>
<path id="path78" d="M1919,1131c0-10-2-13-4-16"/>
<path id="path80" d="M1886,1117c-8-6-16,3-16,8"/>
<path id="path82" d="M1828,1108c0-4-3-12,4-15"/>
<path id="path84" d="M1714,1150c2-10,9-10,8-15-1-8-10-15-21-4"/>
<path id="path86" d="M1722,1135c6-2,12-1,14,2"/>
<path id="path88" d="M1705,1098c4-4,14-3,20,0"/>
<path id="path90" d="M1725,1074c5,0,14-2,17,7,11-17,19-15,21-11"/>
<path id="path92" d="M1783,1068c8-3,22,5,30,19,4-11,10-9,16-10"/>
<path id="path94" d="M1867,1087c13-6,21,6,25,11,6-8,11-8,17-8"/>
<path id="path96" d="M1746,1111c3-5,10-6,15-3-1-9,5-13,9-11"/>
</g>
<path id="path98" style="fill:#000000;" d="M1555,1417l5,4-11,12c-2,2-3,4-3,4-1,2-1,3-1,4s1,2,2,3c1,2,3,2,4,2s2,0,3-1c1,0,2-1,3-3l12-13,4,4-10,12c-3,3-5,5-6,6s-2,1-4,1h-4c-2-1-3-2-5-3-2-2-4-4-4-6-1-1-1-3-1-4s0-3,1-4c0-1,2-3,4-6l11-12zm3,43l17-26,5,3-1,24,11-17,5,3-16,26-6-3,1-24-11,17-5-3zm26,16l14-28,5,3-13,27-6-2zm22-24l10,4c3,1,4,2,5,3,2,1,3,2,4,4s1,3,1,5c0,3-1,5-2,8,0,2-1,4-3,5-1,2-3,4-5,4-1,1-3,1-4,1-2,0-4,0-6-1l-11-4,11-29zm4,7l-7,19,4,2c2,0,3,1,4,1h3c0-1,1-2,2-3s2-3,2-5c1-2,2-4,2-5s0-3-1-3c0-1-1-2-2-3-1,0-2-1-5-2l-2-1zm42,37l-7-1-1-7-12-3-4,7-7-2,18-27,6,1,7,32zm-9-14l-2-12-6,11,8,1zm13-16h12c2,1,4,1,5,1,2,1,4,2,5,3,1,2,2,3,2,5,1,2,1,5,1,8,0,2,0,4-1,6s-2,4-4,5c-1,1-2,2-4,3h-6l-11-1,1-30zm6,5l-1,21h5,4c1-1,1-1,2-1,1-1,1-2,2-3,0-2,1-4,1-6s0-4-1-5c0-2,0-3-1-3-1-1-2-2-3-2h-5l-3-1z"/>
<path id="path100" style="fill:#000000;" d="M1918,1473l6-1,3,18v6c-1,2-2,3-3,5-1,1-3,2-6,2s-5,0-7-2c-2-1-3-3-3-7l5-1c1,2,1,3,2,4,0,1,1,1,3,1,1,0,2-1,2-2,1-1,1-2,1-5l-3-19v1zm10-2l6-1,3,16c1,2,1,4,1,5,1,1,2,2,3,2,1,1,2,1,4,0,2,0,3-1,3-1,1-1,2-2,1-3v-5l-4-16,6-1,3,15c1,3,1,6,1,7,0,2,0,3-1,4,0,1-1,2-2,3-2,1-4,2-6,2-3,1-5,1-6,1-2-1-3-1-4-2l-3-3c0-2-1-4-2-7l-3-16zm31,14l5-2c1,2,2,3,4,3,1,1,3,1,4,0,2,0,3-1,4-2s1-2,1-3c-1-1-1-1-1-2h-3-5c-3,0-6,0-7-1-2-1-4-3-5-5v-4c1-2,2-3,3-4s3-2,5-3c4-1,7-1,9,0s4,3,5,5l-6,2-2-2c-1-1-3-1-4,0-2,0-3,1-4,2v2c0,1,0,1,1,2h6,7c1,0,3,1,4,2s2,2,2,4c1,2,1,3,0,5,0,2-1,3-2,4-2,1-4,2-6,3-4,1-7,1-9,0-3-1-5-3-6-6zm37-2l-10-23-8,4-2-5,22-9,2,4-8,4,9,22-5,3zm17-8l-14-26,5-3,14,26-5,3zm20-24l6-2c1,3,1,6,0,8-1,3-2,5-5,7-4,2-7,2-11,1-3-1-6-3-9-7-2-4-3-8-2-12,0-3,2-6,6-9,3-1,6-2,9-1,2,0,4,1,6,3l-5,4c-1-1-2-2-4-2-1,0-2,0-4,1s-3,3-3,5,1,4,2,7c2,4,4,5,6,6s4,0,6-1c1-1,2-2,3-3,0-2,0-3-1-5zm15,3l-18-24,5-4,18,24-5,4zm29-25l-5,4-6-3-9,8,3,6-5,5-11-30,5-4,28,14zm-16-2l-10-5,4,11,6-6z"/>
</svg>
