<?xml version="1.0" encoding="UTF-8" standalone="no"?>
<svg id="svg2" xmlns:rdf="http://www.w3.org/1999/02/22-rdf-syntax-ns#" xmlns="http://www.w3.org/2000/svg" viewBox="0 0 500 300" height="100%" width="100%" version="1.1" xmlns:cc="http://creativecommons.org/ns#" xmlns:xlink="http://www.w3.org/1999/xlink" xmlns:dc="http://purl.org/dc/elements/1.1/">
<metadata id="metadata192">
<rdf:RDF>
<cc:Work rdf:about="">
<dc:format>image/svg+xml</dc:format>
<dc:type rdf:resource="http://purl.org/dc/dcmitype/StillImage"/>
<dc:title>Flag of Haiti</dc:title>
</cc:Work>
</rdf:RDF>
</metadata>
<title id="title4">Flag of Haiti</title>
<rect id="rect6538" style="fill:#00209f;fill-rule:evenodd;" height="300" width="500" y="-0.0000038147" x="0"/>
<rect id="rect6540" style="fill:#d21034;fill-rule:evenodd;" height="150" width="500" y="150" x="0"/>
<g id="g2562" transform="matrix(0.1859364,0,0,0.1793841,202.67919,112.28368)">
<rect id="Background" style="marker-end:none;fill-rule:evenodd;marker-start:none;enable-background:accumulate;marker-mid:none;fill:#fff;" height="420" width="509" y="0" x="0"/>
<path id="Island" style="stroke-linejoin:miter;fill-rule:evenodd;stroke:#016a16;stroke-linecap:butt;stroke-width:1px;fill:#016a16;" d="M356.94,303.72l-103.88,3.12-103.4,1.22s-53.13,20.37-74.848,24.94c-21.653,4.56-18.837,11.93-35.593,15.81-13.421,3.11-14.969,4.09-22.844,4.63-4.765,0.32-10.635,4.12-16.375,8.31v58.25h509v-55.41c-5.52-3.11-10.78-5.26-16.16-7.15-7.47-2.64-12.51-5.52-25.93-8.63-16.76-3.88-13.94-11.25-35.6-15.81-21.71-4.57-74.37-29.28-74.37-29.28z"/>
<path id="Palm-center" style="stroke-linejoin:miter;fill-rule:evenodd;stroke:#016a16;stroke-linecap:butt;stroke-width:1px;fill:#016a16;" d="M247.81,74.25l-2.5,50.56h15.6l-2.29-50.122,16.26-2.367-1.8-19.97-40.39,1.617,0.22,18.134,14.9,2.148z"/>
<g id="Reflected-elements">
<g id="g3357">
<g id="Pikes" transform="translate(-520,0)">
<path id="path2976" style="stroke-linejoin:miter;fill-rule:evenodd;stroke:#000000;stroke-linecap:butt;stroke-width:1px;fill:#f1b517;" d="M730.97,213.3l-13.56-30.24,5.86-1.28,24.74,50.21-17.04-18.69z"/>
<path id="path2970" style="stroke-linejoin:miter;fill-rule:evenodd;stroke:#000000;stroke-linecap:butt;stroke-width:1px;fill:#fff;" d="M699.63,147.7l15.03,42.51h7.7l-22.73-42.51z"/>
<path id="path2980" style="stroke-linejoin:miter;fill-rule:evenodd;stroke:#000000;stroke-linecap:butt;stroke-width:1px;fill:#f1b517;" d="M745.08,174.08l7.51-0.18,13.75,59.92-2.94,18.88-18.32-78.62z"/>
<path id="path2978" style="stroke-linejoin:miter;fill-rule:evenodd;stroke:#000000;stroke-linecap:butt;stroke-width:1px;fill:#f1b517;" d="M751.49,235.84l-23.09-64.32,8.62-0.55,26.93,78.61-12.46-13.74z"/>
<path id="path2972" style="stroke-linejoin:miter;fill-rule:evenodd;stroke:#000000;stroke-linecap:butt;stroke-width:1px;fill:#fff;" d="M717.59,134.87l9.53,44.71h7.7l-17.23-44.71z"/>
<path id="path2974" style="stroke-linejoin:miter;fill-rule:evenodd;stroke:#000000;stroke-linecap:butt;stroke-width:1px;fill:#fff;" d="M737.2,134.14l5.13,46.17,5.5-0.36-10.63-45.81z"/>
</g>
<g id="Flags" transform="translate(-520,0)">
<path id="path3038" style="stroke-linejoin:miter;fill-rule:evenodd;stroke:#000000;stroke-linecap:butt;stroke-width:1px;fill:#0a328c;" d="M732.81,217.86l-61.5-69.6c-19.21,15.77-15.64,44.72-15.64,44.72l69.68,56.67,7.46-31.79z"/>
<path id="path3019" style="stroke-linejoin:miter;fill-rule:evenodd;stroke:#000000;stroke-linecap:butt;stroke-width:1px;fill:#d20014;" d="M768.37,256.16l-45.62-47.91c-19.29,0.7-3.99,30.55-3.01,34.29l48.63,43.12v-29.5z"/>
<g id="g2996">
<path id="path2990" style="stroke-linejoin:miter;fill-rule:evenodd;stroke:#000000;stroke-linecap:butt;stroke-width:1px;fill:#f1b517;" d="M764.49,247.92l-94.33-104.69-3.68,2.69,99.82,114.96-1.81-12.96z"/>
<path id="path2992" style="stroke-linejoin:miter;fill-rule:evenodd;stroke:#000000;stroke-linecap:butt;stroke-width:1px;fill:#f1b517;" d="M664.71,136.52l-2.07-2.49,0.21-4.97-19.47-12.84,8.7,20.3,6.62,1.24,2.07,2.48,3.94-3.72z"/>
<path id="path2994" style="stroke-linejoin:miter;fill-rule:evenodd;stroke:#000000;stroke-linecap:butt;stroke-width:1px;fill:#f1b517;" d="M654.77,143.97c3.31-4.14,7.25-8.28,14.29-12.22l5.38,8.08-11.59,10.14-8.08-6z"/>
</g>
<path id="path3042" style="stroke-linejoin:miter;fill-rule:evenodd;stroke:#000000;stroke-linecap:butt;stroke-width:1px;fill:#0a328c;" d="M705.94,236.3l-77.27-63.61c-13.23,13.95-2.23,57.03-2.23,57.03l75.52,42.41,3.98-35.83z"/>
<path id="path3034" style="stroke-linejoin:miter;fill-rule:evenodd;stroke:#000000;stroke-linecap:butt;stroke-width:1px;fill:#d20014;" d="M770.01,287.84l-63.56-52.78c-21.7,3.16-4.64,36.27-3.34,39.92l67.12,37.73-0.22-24.87z"/>
<g id="g3003" transform="matrix(0.9848077,-0.1736483,0.1736483,0.9848077,-54.790605,145.56389)">
<path id="path3005" style="stroke-linejoin:miter;fill-rule:evenodd;stroke:#000000;stroke-linecap:butt;stroke-width:1px;fill:#f1b517;" d="M786.94,272.4l-116.78-129.17-3.68,2.69,121.86,140.11-1.4-13.63z"/>
<path id="path3007" style="stroke-linejoin:miter;fill-rule:evenodd;stroke:#000000;stroke-linecap:butt;stroke-width:1px;fill:#f1b517;" d="M664.71,136.52l-2.07-2.49,0.21-4.97-19.47-12.84,8.7,20.3,6.62,1.24,2.07,2.48,3.94-3.72z"/>
<path id="path3009" style="stroke-linejoin:miter;fill-rule:evenodd;stroke:#000000;stroke-linecap:butt;stroke-width:1px;fill:#f1b517;" d="M654.77,143.97c3.31-4.14,7.25-8.28,14.29-12.22l5.38,8.08-11.59,10.14-8.08-6z"/>
</g>
<path id="path3044" style="stroke-linejoin:miter;fill-rule:evenodd;stroke:#000000;stroke-linecap:butt;stroke-width:1px;fill:#0a328c;" d="M700.41,275.2c-1.03-0.25-99.59-58.21-99.59-58.21-7.18,12.56-0.69,30.78,2.46,33.61,0.18,8.36-3.24,12.86,3.8,30.32,2.08,11.35,7.14,21.81,14.52,28.03,8.99,35.77,44.22,38.17,57.79,9.05l21.02-42.8z"/>
<path id="path3036" style="stroke-linejoin:miter;fill-rule:evenodd;stroke:#000000;stroke-linecap:butt;stroke-width:1px;fill:#d20014;" d="M765.64,313.45l-67.49-41c-21.7,3.16,0.46,44.91,1.76,48.55l65.16,24,0.57-31.55z"/>
<g id="g3011" transform="matrix(0.9455187,-0.3255682,0.3255682,0.9455187,-78.456101,297.23336)">
<path id="path3013" style="stroke-linejoin:miter;fill-rule:evenodd;stroke:#000000;stroke-linecap:butt;stroke-width:1px;fill:#f1b517;" d="M786.94,272.4l-116.78-129.17-3.68,2.69,121.86,140.11-1.4-13.63z"/>
<path id="path3015" style="stroke-linejoin:miter;fill-rule:evenodd;stroke:#000000;stroke-linecap:butt;stroke-width:1px;fill:#f1b517;" d="M664.71,136.52l-2.07-2.49,0.21-4.97-19.47-12.84,8.7,20.3,6.62,1.24,2.07,2.48,3.94-3.72z"/>
<path id="path3017" style="stroke-linejoin:miter;fill-rule:evenodd;stroke:#000000;stroke-linecap:butt;stroke-width:1px;fill:#f1b517;" d="M654.77,143.97c3.31-4.14,7.25-8.28,14.29-12.22l5.38,8.08-11.59,10.14-8.08-6z"/>
</g>
<g id="g3050">
<path id="path3048" style="stroke-linejoin:miter;fill-rule:evenodd;stroke:#0a328c;stroke-linecap:butt;stroke-width:1px;fill:#0a328c;" d="M644.41,161.63s3.16,5.73,3.16,5.73c1.96-0.76,21.68-19.28,21.68-19.28l14.15-0.45,4.07-4.66c-10.39-11.6-20.18,1.65-20.18,1.65l-22.88,17.01z"/>
<path id="path3046" style="stroke-linejoin:miter;fill-rule:evenodd;stroke:#d20014;stroke-linecap:butt;stroke-width:1px;fill:#d20014;" d="M655.7,171.27c0.75-5.12,10.09-17.92,11.44-18.37,7.01,2.18,13.53,6.36,20.63-10.24-6.17,8.13-18.67-0.15-18.67-0.15l-5.42,4.67,0.15,2.26-16.41,15.81,8.28,6.02z"/>
</g>
<g id="g3054" transform="matrix(0.9876883,-0.1564346,0.1564346,0.9876883,-56.795568,135.1032)">
<path id="path3056" style="stroke-linejoin:miter;fill-rule:evenodd;stroke:#0a328c;stroke-linecap:butt;stroke-width:1px;fill:#0a328c;" d="M647.16,159.63s-0.08,5.97-0.08,5.97c1.96-0.75,22.17-17.52,22.17-17.52l14.15-0.45,3.53-4.14c-7.71-13.15-20.33,0.72-20.33,0.72l-19.44,15.42z"/>
<path id="path3058" style="stroke-linejoin:miter;fill-rule:evenodd;stroke:#d20014;stroke-linecap:butt;stroke-width:1px;fill:#d20014;" d="M656.37,171.83c0.21-5.51,9.85-20.24,11.2-20.69,7.82,3.83,14.37,8.78,20.2-8.48-6.17,8.13-18.7-0.91-18.7-0.91l-5.42,4.66,0.18,3.03-16.8,16.36,9.34,6.03z"/>
</g>
<g id="g3060" transform="matrix(0.9563048,-0.2923717,0.2923717,0.9563048,-82.536492,274.17758)">
<path id="path3062" style="stroke-linejoin:miter;fill-rule:evenodd;stroke:#0a328c;stroke-linecap:butt;stroke-width:1px;fill:#0a328c;" d="M645.19,160.61s1.15,7.16,1.15,7.16c1.96-0.75,22.91-19.69,22.91-19.69l14.15-0.45,4.07-4.66c-7.28-13.01-20.18,1.65-20.18,1.65l-22.1,15.99z"/>
<path id="path3064" style="stroke-linejoin:miter;fill-rule:evenodd;stroke:#d20014;stroke-linecap:butt;stroke-width:1px;fill:#d20014;" d="M656.24,173.64c0.59-5.64,9.32-21.61,10.68-22.07,7.27,4.94,13.75,7.69,20.85-8.91-7.16,6.73-18.67-0.15-18.67-0.15l-5.42,4.67,0.15,2.26-17.03,17.82,9.44,6.38z"/>
</g>
</g>
<path id="Cannon-base" style="stroke-linejoin:miter;fill-rule:evenodd;stroke:#000000;stroke-linecap:butt;stroke-width:1px;fill:#f1b517;" d="M233.18,337.28l-37.98-12.21-16.54-29.29-58.58-2.98,2.03,21.97,49.91,9.9,4.74,8.81,57.36,16.55-0.94-12.75z"/>
<g id="Cannon-Loader" transform="translate(-520,0)">
<path id="path4136" style="stroke-linejoin:miter;fill-rule:evenodd;stroke:#000000;stroke-linecap:butt;stroke-width:1px;fill:#503200;" d="M713.52,345.46l-59.96-91.41-2.94,2.29,59.48,91.8,3.42-2.68z"/>
<path id="path4138" style="stroke-linejoin:miter;fill-rule:evenodd;stroke:#000000;stroke-linecap:butt;stroke-width:1px;fill:#fff;" d="M659.14,257.64l-6.4-11.1c-1.2-2.06-3.02-2.74-5.69-1.28-2.61,1.42-2.35,4.24-1.29,6.26l5.92,10.33,7.46-4.21z"/>
</g>
<g id="Cannn-main" transform="translate(-520,0)">
<g id="g4037">
<path id="path4012" style="stroke-linejoin:miter;fill-rule:evenodd;stroke:#000000;stroke-linecap:butt;stroke-width:1px;fill:#f1b517;" d="M720.64,289.01l-120.99-12.75-2.94,18.24,120.4,12.55,3.53-18.04z"/>
<path id="path4006" style="stroke-linejoin:miter;fill-rule:evenodd;stroke:#000000;stroke-linecap:butt;stroke-width:1px;fill:#f1b517;" d="M597.5,271.56l-3.14,25.29h5.1l3.53-23.14-5.49-2.15z"/>
<path id="path4008" style="stroke-linejoin:miter;fill-rule:evenodd;stroke:#000000;stroke-linecap:butt;stroke-width:1px;fill:#f1b517;" d="M617.69,275.68l-1.37,22.74,3.14,0.39,2.55-20.19-4.32-2.94z"/>
<path id="path4010" style="stroke-linejoin:miter;fill-rule:evenodd;stroke:#000000;stroke-linecap:butt;stroke-width:1px;fill:#f1b517;" d="M699.66,285.48l-2.94,21.37,5.88-0.19,2.36-21.18h-5.3z"/>
<path id="path4020" style="stroke-linejoin:miter;fill-rule:evenodd;stroke:#000000;stroke-linecap:butt;stroke-width:1px;fill:#f1b517;" d="M717.69,286.06l-4.19,24.72,6.66,1,1.9-13c0.54,2.61,2.86,4.6,5.63,4.6,3.16,0,5.75-2.59,5.75-5.76,0-3.16-2.59-5.71-5.75-5.71-2.2,0-4.2,1.33-5.07,3.83l1.26-9.27-6.19-0.41z"/>
</g>
<g id="g3987">
<g id="g3965">
<g id="g3953">
<g id="g3943">
<path id="path3891" style="stroke-linejoin:miter;fill-rule:evenodd;stroke:#000000;stroke-linecap:butt;stroke-width:1px;fill:#f1b517;" d="M674.02,290.08l-16.64,19.41,1.94,2.36,21.36-15.12-6.66-6.65z"/>
<path id="use3897" style="stroke-linejoin:miter;fill-rule:evenodd;stroke:#000000;stroke-linecap:butt;stroke-width:1px;fill:#f1b517;" d="M635.34,338.47l16.63-19.41-1.94-2.36-21.35,15.11,6.66,6.66z"/>
<path id="path3909" style="stroke-linejoin:miter;fill-rule:evenodd;stroke:#000000;stroke-linecap:butt;stroke-width:1px;fill:#f1b517;" d="M678.87,333.62l-20.24-16.23-2.08,1.53,15.95,20.94,6.37-6.24z"/>
<path id="path3911" style="stroke-linejoin:miter;fill-rule:evenodd;stroke:#000000;stroke-linecap:butt;stroke-width:1px;fill:#f1b517;" d="M628.96,296.18l20.52,15.67,2.49-1.95-16.08-20.93-6.93,7.21z"/>
<path id="path3927" style="stroke-linejoin:miter;fill-rule:evenodd;stroke:#000000;stroke-linecap:butt;stroke-width:1px;fill:#f1b517;" d="M651.29,283.25l1.96,25.49,2.76-0.12,6.49-24.82-11.21-0.55z"/>
<path id="path3929" style="stroke-linejoin:miter;fill-rule:evenodd;stroke:#000000;stroke-linecap:butt;stroke-width:1px;fill:#f1b517;" d="M658.01,345.1l-1.96-25.49-3.04-0.3-3.72,25.79h8.72z"/>
<path id="path3931" style="stroke-linejoin:miter;fill-rule:evenodd;stroke:#000000;stroke-linecap:butt;stroke-width:1px;fill:#f1b517;" d="M685.23,310.74l-25.79,2.85-0.39,2.55,26.08,3.53,0.1-8.93z"/>
<path id="path3933" style="stroke-linejoin:miter;fill-rule:evenodd;stroke:#000000;stroke-linecap:butt;stroke-width:1px;fill:#f1b517;" d="M623.87,319.57l25.18-4.13,0.53-2.03-26.04-3.01,0.33,9.17z"/>
</g>
<path id="use3882" style="stroke-linejoin:miter;stroke-width:0.61722338;marker-end:none;fill-rule:evenodd;marker-start:none;stroke-dashoffset:0;stroke:#000000;stroke-linecap:round;stroke-miterlimit:4;stroke-dasharray:none;enable-background:accumulate;marker-mid:none;fill:#f1b517;" transform="matrix(1.620159,0,0,1.620159,-406.09929,-196.05698)" d="M658.86,314.61c0,2.32-1.89,4.21-4.21,4.21-2.33,0-4.22-1.89-4.22-4.21,0-2.33,1.89-4.22,4.22-4.22,2.32,0,4.21,1.89,4.21,4.22z"/>
</g>
<path id="use3874" style="stroke-linejoin:miter;stroke-width:1;marker-end:none;fill-rule:evenodd;marker-start:none;stroke-dashoffset:0;stroke:#000000;stroke-linecap:round;stroke-miterlimit:4;stroke-dasharray:none;enable-background:accumulate;marker-mid:none;fill:#f1b517;" d="M690.81,313.66c0,20.02-16.26,36.27-36.28,36.27s-36.27-16.25-36.27-36.27c0-20.03,16.25-36.28,36.27-36.28s36.28,16.25,36.28,36.28zm-7.25,0c0,16.02-13.01,29.02-29.03,29.02s-29.03-13-29.03-29.02c0-16.03,13.01-29.03,29.03-29.03s29.03,13,29.03,29.03z"/>
</g>
<path id="path3979" style="stroke-linejoin:miter;stroke:#000000;stroke-linecap:butt;fill:none;stroke-width:1px;" d="M631.87,295.35l-5.69-4.44"/>
<path id="path3981" style="stroke-linejoin:miter;stroke:#000000;stroke-linecap:butt;fill:none;stroke-width:1px;" d="M672.5,291.05l4.85-5.13"/>
<path id="path3983" style="stroke-linejoin:miter;stroke:#000000;stroke-linecap:butt;fill:none;stroke-width:1px;" d="M682.9,336.8l-5.97-4.85"/>
<path id="path3985" style="stroke-linejoin:miter;stroke:#000000;stroke-linecap:butt;fill:none;stroke-width:1px;" d="M631.87,342.35l5.13-5.68"/>
</g>
</g>
<g id="Axe" transform="translate(-520,0)">
<path id="path4368" style="stroke-linejoin:miter;fill-rule:evenodd;stroke:#000000;stroke-linecap:butt;stroke-width:1px;fill:#f1b517;" d="M754.04,277.83l6.21,32.82-5.07,2.76-5.45-35.11,4.31-0.47z"/>
<path id="path4370" style="stroke-linejoin:miter;fill-rule:evenodd;stroke:#000000;stroke-linecap:butt;stroke-width:1px;fill:#fff;" d="M750.79,273.6c-2.88-1.24-6.62,0.87-12.77-7.19-10.1,9.59-0.57,11.03,0.96,20.54,2.86,1.22,4.62-7.38,12.39-8.26,0.96-0.09,12.36-1.13,12.36-1.13s-2.87-4.04-2.87-4.04-7.92,0.21-10.07,0.08z"/>
<path id="path4372" style="stroke-linejoin:miter;fill-rule:evenodd;stroke:#000000;stroke-linecap:butt;stroke-width:1px;fill:#fff;" d="M754.92,280.04l-1.15-9.8c-1.25-3.45-5.38-0.47-5.38,1.54l1.06,9.02,5.47-0.76z"/>
</g>
<g id="Cannon-balls" transform="translate(-520,0)">
<path id="path2448" style="stroke-linejoin:miter;stroke-width:1.09179091;marker-end:none;fill-rule:evenodd;marker-start:none;stroke-dashoffset:0;stroke:#000000;stroke-linecap:round;stroke-miterlimit:4;stroke-dasharray:none;enable-background:accumulate;marker-mid:none;fill:#f1b517;" transform="matrix(0.9159263,0,0,0.9159263,56.844568,30.233008)" d="M685.32,361.22c0,1.55-0.83,2.99-2.17,3.76-1.35,0.78-3.01,0.78-4.35,0-1.35-0.77-2.17-2.21-2.17-3.76,0-1.56,0.82-2.99,2.17-3.77,1.34-0.78,3-0.78,4.35,0,1.34,0.78,2.17,2.21,2.17,3.77z"/>
<path id="path3220" style="stroke-linejoin:miter;stroke-width:1.09179091;marker-end:none;fill-rule:evenodd;marker-start:none;stroke-dashoffset:0;stroke:#000000;stroke-linecap:round;stroke-miterlimit:4;stroke-dasharray:none;enable-background:accumulate;marker-mid:none;fill:#f1b517;" transform="matrix(0.9159263,0,0,0.9159263,46.662582,22.766193)" d="M685.32,361.22c0,1.55-0.83,2.99-2.17,3.76-1.35,0.78-3.01,0.78-4.35,0-1.35-0.77-2.17-2.21-2.17-3.76,0-1.56,0.82-2.99,2.17-3.77,1.34-0.78,3-0.78,4.35,0,1.34,0.78,2.17,2.21,2.17,3.77z"/>
<path id="path3222" style="stroke-linejoin:miter;stroke-width:1.09179091;marker-end:none;fill-rule:evenodd;marker-start:none;stroke-dashoffset:0;stroke:#000000;stroke-linecap:round;stroke-miterlimit:4;stroke-dasharray:none;enable-background:accumulate;marker-mid:none;fill:#f1b517;" transform="matrix(0.9159263,0,0,0.9159263,32.950826,27.653552)" d="M685.32,361.22c0,1.55-0.83,2.99-2.17,3.76-1.35,0.78-3.01,0.78-4.35,0-1.35-0.77-2.17-2.21-2.17-3.76,0-1.56,0.82-2.99,2.17-3.77,1.34-0.78,3-0.78,4.35,0,1.34,0.78,2.17,2.21,2.17,3.77z"/>
<path id="path3224" style="stroke-linejoin:miter;stroke-width:1.09179091;marker-end:none;fill-rule:evenodd;marker-start:none;stroke-dashoffset:0;stroke:#000000;stroke-linecap:round;stroke-miterlimit:4;stroke-dasharray:none;enable-background:accumulate;marker-mid:none;fill:#f1b517;" transform="matrix(0.9159263,0,0,0.9159263,11.77227,32.405151)" d="M685.32,361.22c0,1.55-0.83,2.99-2.17,3.76-1.35,0.78-3.01,0.78-4.35,0-1.35-0.77-2.17-2.21-2.17-3.76,0-1.56,0.82-2.99,2.17-3.77,1.34-0.78,3-0.78,4.35,0,1.34,0.78,2.17,2.21,2.17,3.77z"/>
<path id="path3226" style="stroke-linejoin:miter;stroke-width:1.09179091;marker-end:none;fill-rule:evenodd;marker-start:none;stroke-dashoffset:0;stroke:#000000;stroke-linecap:round;stroke-miterlimit:4;stroke-dasharray:none;enable-background:accumulate;marker-mid:none;fill:#f1b517;" transform="matrix(0.9159263,0,0,0.9159263,2.8121118,33.491231)" d="M685.32,361.22c0,1.55-0.83,2.99-2.17,3.76-1.35,0.78-3.01,0.78-4.35,0-1.35-0.77-2.17-2.21-2.17-3.76,0-1.56,0.82-2.99,2.17-3.77,1.34-0.78,3-0.78,4.35,0,1.34,0.78,2.17,2.21,2.17,3.77z"/>
<path id="path3228" style="stroke-linejoin:miter;stroke-width:1.09179091;marker-end:none;fill-rule:evenodd;marker-start:none;stroke-dashoffset:0;stroke:#000000;stroke-linecap:round;stroke-miterlimit:4;stroke-dasharray:none;enable-background:accumulate;marker-mid:none;fill:#f1b517;" transform="matrix(0.9159263,0,0,0.9159263,-6.0122862,33.49123)" d="M685.32,361.22c0,1.55-0.83,2.99-2.17,3.76-1.35,0.78-3.01,0.78-4.35,0-1.35-0.77-2.17-2.21-2.17-3.76,0-1.56,0.82-2.99,2.17-3.77,1.34-0.78,3-0.78,4.35,0,1.34,0.78,2.17,2.21,2.17,3.77z"/>
<path id="path3230" style="stroke-linejoin:miter;stroke-width:1.09179091;marker-end:none;fill-rule:evenodd;marker-start:none;stroke-dashoffset:0;stroke:#000000;stroke-linecap:round;stroke-miterlimit:4;stroke-dasharray:none;enable-background:accumulate;marker-mid:none;fill:#f1b517;" transform="matrix(0.9159263,0,0,0.9159263,-14.972444,33.219711)" d="M685.32,361.22c0,1.55-0.83,2.99-2.17,3.76-1.35,0.78-3.01,0.78-4.35,0-1.35-0.77-2.17-2.21-2.17-3.76,0-1.56,0.82-2.99,2.17-3.77,1.34-0.78,3-0.78,4.35,0,1.34,0.78,2.17,2.21,2.17,3.77z"/>
<path id="path3232" style="stroke-linejoin:miter;stroke-width:1.09179091;marker-end:none;fill-rule:evenodd;marker-start:none;stroke-dashoffset:0;stroke:#000000;stroke-linecap:round;stroke-miterlimit:4;stroke-dasharray:none;enable-background:accumulate;marker-mid:none;fill:#f1b517;" transform="matrix(0.9159263,0,0,0.9159263,-10.628125,26.160192)" d="M685.32,361.22c0,1.55-0.83,2.99-2.17,3.76-1.35,0.78-3.01,0.78-4.35,0-1.35-0.77-2.17-2.21-2.17-3.76,0-1.56,0.82-2.99,2.17-3.77,1.34-0.78,3-0.78,4.35,0,1.34,0.78,2.17,2.21,2.17,3.77z"/>
<path id="path3234" style="stroke-linejoin:miter;stroke-width:1.09179091;marker-end:none;fill-rule:evenodd;marker-start:none;stroke-dashoffset:0;stroke:#000000;stroke-linecap:round;stroke-miterlimit:4;stroke-dasharray:none;enable-background:accumulate;marker-mid:none;fill:#f1b517;" transform="matrix(0.9159263,0,0,0.9159263,-1.9394871,26.567472)" d="M685.32,361.22c0,1.55-0.83,2.99-2.17,3.76-1.35,0.78-3.01,0.78-4.35,0-1.35-0.77-2.17-2.21-2.17-3.76,0-1.56,0.82-2.99,2.17-3.77,1.34-0.78,3-0.78,4.35,0,1.34,0.78,2.17,2.21,2.17,3.77z"/>
<path id="path3236" style="stroke-linejoin:miter;stroke-width:1.09179091;marker-end:none;fill-rule:evenodd;marker-start:none;stroke-dashoffset:0;stroke:#000000;stroke-linecap:round;stroke-miterlimit:4;stroke-dasharray:none;enable-background:accumulate;marker-mid:none;fill:#f1b517;" transform="matrix(0.9159263,0,0,0.9159263,6.341871,25.481392)" d="M685.32,361.22c0,1.55-0.83,2.99-2.17,3.76-1.35,0.78-3.01,0.78-4.35,0-1.35-0.77-2.17-2.21-2.17-3.76,0-1.56,0.82-2.99,2.17-3.77,1.34-0.78,3-0.78,4.35,0,1.34,0.78,2.17,2.21,2.17,3.77z"/>
<path id="path3238" style="stroke-linejoin:miter;stroke-width:1.09179091;marker-end:none;fill-rule:evenodd;marker-start:none;stroke-dashoffset:0;stroke:#000000;stroke-linecap:round;stroke-miterlimit:4;stroke-dasharray:none;enable-background:accumulate;marker-mid:none;fill:#f1b517;" transform="matrix(0.9159263,0,0,0.9159263,2.133312,18.557634)" d="M685.32,361.22c0,1.55-0.83,2.99-2.17,3.76-1.35,0.78-3.01,0.78-4.35,0-1.35-0.77-2.17-2.21-2.17-3.76,0-1.56,0.82-2.99,2.17-3.77,1.34-0.78,3-0.78,4.35,0,1.34,0.78,2.17,2.21,2.17,3.77z"/>
<path id="path3240" style="stroke-linejoin:miter;stroke-width:1.09179091;marker-end:none;fill-rule:evenodd;marker-start:none;stroke-dashoffset:0;stroke:#000000;stroke-linecap:round;stroke-miterlimit:4;stroke-dasharray:none;enable-background:accumulate;marker-mid:none;fill:#f1b517;" transform="matrix(0.9159263,0,0,0.9159263,-6.0122862,18.421874)" d="M685.32,361.22c0,1.55-0.83,2.99-2.17,3.76-1.35,0.78-3.01,0.78-4.35,0-1.35-0.77-2.17-2.21-2.17-3.76,0-1.56,0.82-2.99,2.17-3.77,1.34-0.78,3-0.78,4.35,0,1.34,0.78,2.17,2.21,2.17,3.77z"/>
</g>
<g id="Gunpowder" transform="translate(-520,0)">
<path id="path3256" style="stroke-linejoin:miter;fill-rule:evenodd;stroke:#000000;stroke-linecap:butt;stroke-width:1px;fill:#fff;" d="M689.93,334.73c-3.42-1.44-3.39,6.53-3.39,6.53l5.39,0.06c2.36,1.11,4.26,4.69,2.75,6.46-1.24,1.45-11.71-2.46-12.41-0.21,1.85,10.82,15.69,14.99,20.7,10.25,4.89-4.63,6.13-16.99-9.78-20.23l-3.26-2.86z"/>
<path id="path3258" style="stroke-linejoin:miter;stroke:#000000;stroke-linecap:butt;fill:none;stroke-width:1px;" d="M693.13,337.67l-1.57,3.56"/>
</g>
<g id="Small-flag" transform="translate(-520,0)">
<path id="path3418" style="stroke-linejoin:miter;stroke:#000000;stroke-linecap:butt;fill:none;stroke-width:1px;" d="M585.96,338.78l-5.18-22.58"/>
<path id="path3420" style="stroke-linejoin:miter;stroke:#000000;stroke-linecap:butt;fill:none;stroke-width:1px;" d="M592.25,337.48l-7.96-17.58"/>
<path id="path3422" style="stroke-linejoin:miter;stroke:#000000;stroke-linecap:butt;fill:none;stroke-width:1px;" d="M605.94,332.86l-17.95-10"/>
<path id="path3424" style="stroke-linejoin:miter;stroke:#000000;stroke-linecap:butt;fill:none;stroke-width:1px;" d="M613.71,330.82l-33.3-14.99"/>
<path id="path3430" style="stroke-linejoin:miter;fill-rule:evenodd;stroke:#d20014;stroke-linecap:butt;stroke-width:1px;fill:#d20014;" d="M560.53,299.52s-12.12-0.2-14.28,0.68c-0.87,0.35,3.05,4.6,2.23,6.22-3.03,6.03-23.63,5.2-25.26,3.88-2.79-2.25,19.19-4.19,19.34-5.73,0.16-1.76-3.25-6.39-2.72-9.23,0.68-3.68,9.61-5.05,9.61-5.05l11.08,9.23z"/>
<path id="path3426" style="stroke-linejoin:miter;fill-rule:evenodd;stroke:#000000;stroke-linecap:butt;stroke-width:1px;fill:#503200;" d="M576.76,310.88l-27.44-23.54s-1.21-1.33-2.22-0.18c-0.99,1.12,0.37,2.4,0.37,2.4l28.31,24.24,0.98-2.92z"/>
<path id="path3428" style="stroke-linejoin:miter;fill-rule:evenodd;stroke:#000000;stroke-linecap:butt;stroke-width:1px;fill:#f1b517;" d="M603.19,334.11c-0.49-0.49-22.35-20.11-22.35-20.11l-1.46-5.74s-3.38,2.37-4.61,3.6c-1.24,1.22-3.16,4.56-3.16,4.56l6.12,0.3,19.33,18.36,6.13-0.97z"/>
</g>
<path id="Trumpet" style="stroke-linejoin:miter;fill-rule:evenodd;stroke:#000000;stroke-linecap:butt;stroke-width:1px;fill:#f1b517;" d="M204.83,307.1l0.1,9.12c-2.88,1.02-2.44,3.26-2.34,6.52l0.1,26.59c-1.03,1.77-4.19,1.85-5.67,3.23-1.49,1.39-1.3,4.07,5.48,5.84l5.25,0.19c7.99-1.81,9.64-4.55,5.63-6.1-2.13-0.82-4.93-1.8-6-3.11l0.17-6.33,5.19,0.19c1.4,0,4.05-3.63,4.14-6.61l0.03-13.77c-0.19-7.8-5.84-8.68-7.42-8.59l0.11-7.19-4.77,0.02zm8.77,15.22c0.1-2.23-2.99-4.22-4.23-4.28-1.24-0.05-3.95,2.6-4.04,4.83v5.58c0.19,2.05,1.76,8.97,4.93,9.48,1.5,0.24,3.44-2.23,3.44-4.27l-0.1-11.34z"/>
<g id="Palm-leaves" transform="translate(-520,0)">
<path id="path3811" style="stroke-linejoin:miter;fill-rule:evenodd;stroke:#000000;stroke-linecap:butt;stroke-width:1px;fill:#016a16;" d="M773.52,53.597c-41.76-43.321-74.64-22.183-82.47-16.18,5.18,1.047,9.82-2.294,12.23-2.679-1.51,1.971-4.66,6.854-4.66,6.854s12.91-6.318,14.35-5.741c-1.86,1.538-3.91,5.219-3.91,5.219,0.96,0.385,8.22-5.893,9.65-6.002-2.21,2.596-2.89,8.516-2.89,8.516l6.29-3.036c1.63,1.202-0.46,3.514,0.96,3.393,10.46-0.89,25.16,9.907,27.18,13.225"/>
<path id="path3813" style="stroke-linejoin:miter;fill-rule:evenodd;stroke:#000000;stroke-linecap:butt;stroke-width:1px;fill:#016a16;" d="M763.18,61.529c-4.35-10.336-83.83-27.902-99.82,1.36,6.26,1.631,12.24-5.44,12.24-5.44l-0.54,6.528,10.6-8.432-3.8,8.704,8.43-7.072-0.27,7.072,10.33-11.696-1.36,6.8,9.25-4.08-1.09,5.712"/>
<path id="path3815" style="stroke-linejoin:miter;fill-rule:evenodd;stroke:#000000;stroke-linecap:butt;stroke-width:1px;fill:#016a16;" d="M759.64,63.161c-20.39-14.143-51.94-4.624-51.94-4.624-20.13,11.695-30.86,9.585-33.46,31.278,1.91-0.816,7.35-7.616,7.35-7.616l4.07,8.432,1.36-11.967,3.27,9.247,4.89-15.231,1.09,10.335,7.62-10.335,3.53,2.992,3.27-7.888,2.99,5.168s5.17-3.264,8.16-1.36l5.71-6.8,1.36,4.896,4.9-5.983,1.9,4.351,4.89-4.623-0.27,3.263,16.87,0.272"/>
<path id="path2477" style="stroke-linejoin:miter;fill-rule:evenodd;stroke:#000000;stroke-linecap:butt;stroke-width:1px;fill:#016a16;" d="M755.03,65.612c-14.22-0.276-55,15.673-65.55,32.365,4.2-2.431,6.79-3.539,6.79-3.539l2.08,6.712,2.55-6.712,0.54,5.168c1.56-4.035,3.32-4.491,6.26-0.272,0,0,1.08-6.255,1.08-6.255l1.64,5.983,2.71-6.527s1.72,7.074,2.72,6.799,4.51-12.233,6.53-12.783l0.55,7.615,2.72-7.615,2.44,5.712,0.55-8.16,2.72,6.256s1.42-6.151,3.53-7.344l4.08,3.808,18.17-13.528"/>
<path id="path2479" style="stroke-linejoin:miter;fill-rule:evenodd;stroke:#000000;stroke-linecap:butt;stroke-width:1px;fill:#016a16;" d="M757.76,69.093c-18.94,7.523-35.87,34.447-34.58,45.857,8.42-10.82,6.61-9.33,10.37,3.12,0,0,1.42-10.9,2.85-12.19l2.47,8.06,0.91-10.55,2.53,0.13-0.65-6.619,3.76,2.983c-0.87-3.782-1.81-5.058,2.08-8.301,0,0-4.93,0.648-1.04-8.561l3.63,3.632s-0.65-4.021,0.65-5.577l13.36-4.799"/>
<g id="g2485">
<path id="path2481" style="stroke-linejoin:miter;fill-rule:evenodd;stroke:#000000;stroke-linecap:butt;stroke-width:1px;fill:#016a16;" d="M759.6,71.111l-7.16,14.124,3.67,1.101-8.25,6.42,6.97-0.734s-10.64,4.036-11.93,14.858l10.83-4.95s-9.18,9.72-10.46,15.59l6.24-5.69s-6.06,6.79-5.14,17.06l4.59-5.32c-1.1,12.48-0.74,13.58,4.77,23.12,0,0-1.47-14.68,0.18-16.51l12.11,13.02-6.79-18.53s7.52,11.74,12.1,10.64l-9.53-15.04,9.35,7.89-10.64-16.51,9.91,3.12s-7.16-9.36-6.61-15.227l6.79,7.707s-2.57-8.808-1.83-11.376l3.48,0.734-6.78-8.071,4.58-0.917-0.55-5.32,3.3-1.1-0.18-5.87"/>
<path id="path2483" style="stroke-linejoin:miter;stroke:#000000;stroke-linecap:butt;fill:none;stroke-width:1px;" d="M766.75,75.33c-11.74,16.509-5.69,42.01-12.66,55.03"/>
</g>
</g>
<g id="Chain">
<path id="path2500" style="stroke-linejoin:miter;fill-rule:evenodd;stroke:#000000;stroke-linecap:butt;stroke-width:1px;fill:#f1b517;" d="M181.73,366.29c0-1.76-4.13-1-4.13-3.07,0-2.29,6.31-0.61,7.18,1.41,3.54-3.32,5.07-0.89,7.25,0.11,3.09-4.77,6.92-4.59,10.65-1.1,2.16-2.46,7.58-1.65,9.45,1.1,3.57-3.67,6.75-2.77,9.23-0.11,1-1.93,2.46-1.51,3.51-0.11,1.91-3.5,6.68-2.45,8.69-0.14,1.79-2.03,3.62-0.44,5.99,1.06,1.61-1.55,4.19-1.26,4.19,0.29,0,1.61-3.38,1.04-3.38,2.64,0,1.42,2.47,0.7,2.47,2.51,0,1.42-3.66,1.95-4.22-0.31-1.24,2.45-5.72,1.51-6.16-0.77-1.48,1.86-4.82,2.42-6.7-0.33-1.54,1.3-3.38,1.48-4.23,0.17-2.78,3.1-7.47,2.46-9.08-0.95,0,0-1.58,0.07-1.58,0.07-2.73,3.84-7,2.06-8.18-0.06-4.58,3.43-7.32,2.35-9.88,0.11-2.95,3.71-7.43,3.45-8.46,0-1.98,1.49-6.11,1.85-6.11,0.1,0-1.68,3.5-1.07,3.5-2.62zm8.9,0.84c0,0.8-1.04,1.44-2.34,1.44-1.29,0-2.34-0.64-2.34-1.44s1.05-1.45,2.34-1.45c1.3,0,2.34,0.65,2.34,1.45zm9.79-1.22c0,0.96-1.26,1.74-2.81,1.74-1.56,0-2.82-0.78-2.82-1.74s1.26-1.74,2.82-1.74c1.55,0,2.81,0.78,2.81,1.74zm19.23,1.1c0,0.97-1.14,1.76-2.55,1.76s-2.55-0.79-2.55-1.76,1.14-1.76,2.55-1.76,2.55,0.79,2.55,1.76zm-10.24-0.46c0,1.23-1.11,2.23-2.49,2.23s-2.49-1-2.49-2.23,1.11-2.23,2.49-2.23,2.49,1,2.49,2.23zm21.84,0.06c0,1.1-1,1.99-2.23,1.99s-2.23-0.89-2.23-1.99,1-1.99,2.23-1.99,2.23,0.89,2.23,1.99zm-6.69,0.46c0,0.71-0.65,1.29-1.44,1.29-0.8,0-1.44-0.58-1.44-1.29s0.64-1.29,1.44-1.29c0.79,0,1.44,0.58,1.44,1.29zm13.02,0.52c0,1.02-0.72,1.85-1.62,1.85s-1.62-0.83-1.62-1.85,0.72-1.85,1.62-1.85,1.62,0.83,1.62,1.85z"/>
</g>
</g>
<use id="use3466" xlink:href="#g3357" transform="matrix(-1,0,0,1,508.23774,0)" height="420" width="509" y="0" x="0"/>
</g>
<g id="Palm-trunk">
<path id="path3304" style="stroke-linejoin:miter;fill-rule:evenodd;stroke:#000000;stroke-linecap:butt;stroke-width:1px;fill:#f1b517;" d="M259.58,302.43s6.4-55.44,6.38-79.3c-0.01-18.78-4.38-60.4-4.38-60.4h-18.37s-2.8,41.41-2.38,60.14c0.53,23.87,6.38,79.56,6.38,79.56h12.37z"/>
<path id="path3306" style="stroke-linejoin:miter;fill-rule:evenodd;stroke:#000000;stroke-linecap:butt;stroke-width:1px;fill:#f1b517;" d="M241.99,165.4h21.29l-2.5-14.86h-15.43l-3.36,14.86z"/>
<path id="path3310" style="stroke-linejoin:miter;fill-rule:evenodd;stroke:#000000;stroke-linecap:butt;stroke-width:1px;fill:#f1b517;" d="M243.35,153.48h19.03l-3.58-14.86h-11.73l-3.72,14.86z"/>
<path id="path3312" style="stroke-linejoin:miter;fill-rule:evenodd;stroke:#000000;stroke-linecap:butt;stroke-width:1px;fill:#f1b517;" d="M244.58,141.43h15.86l-2.69-14.86h-10.09l-3.08,14.86z"/>
<path id="path3314" style="stroke-linejoin:miter;fill-rule:evenodd;stroke:#000000;stroke-linecap:butt;stroke-width:1px;fill:#f1b517;" d="M258.31,124.81h-11.09l-1.13,5.38h13.13l-0.91-5.38z"/>
<path id="path3316" style="stroke-linejoin:miter;stroke:#000000;stroke-linecap:butt;fill:none;stroke-width:1px;" d="M260.59,290.35h-14.1"/>
<path id="path3318" style="stroke-linejoin:miter;stroke:#000000;stroke-linecap:butt;fill:none;stroke-width:1px;" d="M261.36,279.49h-15.82"/>
<path id="path3320" style="stroke-linejoin:miter;stroke:#000000;stroke-linecap:butt;fill:none;stroke-width:1px;" d="M263.45,268.48h-20.04"/>
<path id="path3322" style="stroke-linejoin:miter;stroke:#000000;stroke-linecap:butt;fill:none;stroke-width:1px;" d="M264.48,256.48h-20.98"/>
<path id="path3324" style="stroke-linejoin:miter;stroke:#000000;stroke-linecap:butt;fill:none;stroke-width:1px;" d="M264.63,244.47h-22.06"/>
<path id="path3327" style="stroke-linejoin:miter;stroke:#000000;stroke-linecap:butt;fill:none;stroke-width:1px;" d="M265.49,233.51h-23.93"/>
<path id="path3329" style="stroke-linejoin:miter;stroke:#000000;stroke-linecap:butt;fill:none;stroke-width:1px;" d="M265.54,223.52h-25.01"/>
<path id="path3331" style="stroke-linejoin:miter;stroke:#000000;stroke-linecap:butt;fill:none;stroke-width:1px;" d="M265.39,211.47h-25.01"/>
<path id="path3333" style="stroke-linejoin:miter;stroke:#000000;stroke-linecap:butt;fill:none;stroke-width:1px;" d="M264.56,199.57h-24.18"/>
<path id="path3335" style="stroke-linejoin:miter;stroke:#000000;stroke-linecap:butt;fill:none;stroke-width:1px;" d="M263.45,187.47h-21.86"/>
<path id="path3337" style="stroke-linejoin:miter;stroke:#000000;stroke-linecap:butt;fill:none;stroke-width:1px;" d="M262.39,176.56h-19.75"/>
</g>
<g id="Drum" transform="translate(-520,0)">
<path id="path2539" style="stroke-linejoin:miter;stroke-width:1.26463008;marker-end:none;fill-rule:evenodd;marker-start:none;stroke-dashoffset:0;stroke:#0a328c;stroke-linecap:round;stroke-miterlimit:4;stroke-dasharray:none;enable-background:accumulate;marker-mid:none;fill:#0a328c;" d="M773.62,297.88c-13.5,0-24.46,5.26-24.46,11.71,0,1.11,0.3,2.18,0.9,3.19,2.92,3.51,12.41,6.06,23.66,6.06,10.52,0,19.49-2.24,23-5.4,0.88-1.21,1.37-2.49,1.37-3.85,0-6.45-10.96-11.71-24.47-11.71z"/>
<path id="path2499" style="stroke-linejoin:miter;stroke-width:1.0232923;marker-end:none;fill-rule:evenodd;marker-start:none;stroke-dashoffset:0;stroke:#000000;stroke-linecap:round;stroke-miterlimit:4;enable-background:accumulate;marker-mid:none;fill:#f1b517;" d="M798.31,310.49v39.35c0,4.61-11.02,8.35-24.59,8.35s-24.59-3.74-24.59-8.35v-39.35c0,4.61,11.02,8.36,24.59,8.36s24.59-3.75,24.59-8.36z"/>
<path id="path3288" style="stroke-linejoin:miter;fill-rule:evenodd;stroke:#d20014;stroke-linecap:butt;stroke-width:1px;fill:#d20014;" d="M749.12,310.5v6.03l11.94,38.16,9.53-29.35,10.47,30.47,7.66-28.76,9.59,19.34v-10.7l-8.9-18.75c-1,0.28-2.07,0.52-3.19,0.75l-5.53,21.25-7.78-20.1c-1.31-0.01-2.6-0.04-3.85-0.12l-7.81,20.22-8.94-24.35c-2.02-1.21-3.19-2.6-3.19-4.09z"/>
<g id="g3851">
<path id="use3284" style="stroke-linejoin:miter;stroke-width:1.0232923;marker-end:none;fill-rule:evenodd;marker-start:none;stroke-dashoffset:0;stroke:#0a328c;stroke-linecap:round;stroke-miterlimit:4;enable-background:accumulate;marker-mid:none;fill:#0a328c;" d="M798.31,342.49v7.35c0,4.61-11.02,8.35-24.59,8.35s-24.59-3.74-24.59-8.35v-7.35c0,4.61,11.02,8.36,24.59,8.36s24.59-3.75,24.59-8.36z"/>
<path id="use2504" style="stroke-linejoin:miter;stroke-width:1.0232923;marker-end:none;fill-rule:evenodd;marker-start:none;stroke-dashoffset:0;stroke:#000000;stroke-linecap:round;stroke-miterlimit:4;enable-background:accumulate;marker-mid:none;fill:#f1b517;" transform="translate(520,0)" d="M263.84,350.09c-2,0.31-4.13,0.54-6.37,0.66l0.06,7.34c2.24-0.12,4.38-0.34,6.38-0.65l-0.07-7.35z"/>
<path id="use2509" style="stroke-linejoin:miter;stroke-width:1.0232923;marker-end:none;fill-rule:evenodd;marker-start:none;stroke-dashoffset:0;stroke:#000000;stroke-linecap:round;stroke-miterlimit:4;enable-background:accumulate;marker-mid:none;fill:#f1b517;" transform="translate(520,0)" d="M237.66,348.81l-0.07,7.31c1.9,0.57,4.04,1.04,6.38,1.38v-7.34c-2.32-0.34-4.43-0.79-6.31-1.35z"/>
<path id="use2514" style="stroke-linejoin:miter;stroke-width:1.0232923;marker-end:none;fill-rule:evenodd;marker-start:none;stroke-dashoffset:0;stroke:#000000;stroke-linecap:round;stroke-miterlimit:4;enable-background:accumulate;marker-mid:none;fill:#f1b517;" transform="translate(520,0)" d="M229.12,342.5v7.34c0,1.37,1,2.64,2.72,3.78l0.13-7.24c-1.81-1.17-2.85-2.47-2.85-3.88z"/>
<path id="use2519" style="stroke-linejoin:miter;stroke-width:1.0232923;marker-end:none;fill-rule:evenodd;marker-start:none;stroke-dashoffset:0;stroke:#000000;stroke-linecap:round;stroke-miterlimit:4;enable-background:accumulate;marker-mid:none;fill:#f1b517;" transform="translate(520,0)" d="M278.31,343.28l-0.12,0.03c-0.43,1.49-2.04,2.88-4.47,4.03l0.03,7.32c2.85-1.37,4.56-3.02,4.56-4.82v-6.56z"/>
</g>
<path id="use3847" style="stroke-linejoin:miter;stroke-width:1.0232923;marker-end:none;marker-start:none;stroke-dashoffset:0;stroke:#000000;stroke-linecap:round;stroke-miterlimit:4;enable-background:accumulate;marker-mid:none;fill:none;" d="M798.31,310.75v39.09c0,4.61-11.02,8.35-24.59,8.35s-24.59-3.74-24.59-8.35v-39.09"/>
<path id="use3273" style="stroke-linejoin:miter;stroke-width:1.56924522;marker-end:none;fill-rule:evenodd;marker-start:none;stroke-dashoffset:0;stroke:#fff;stroke-linecap:round;stroke-miterlimit:4;stroke-dasharray:none;enable-background:accumulate;marker-mid:none;fill:#fff;" transform="matrix(0.8432158,0,0,0.530281,124.86448,144.83073)" d="M792.06,307.56c0,5.26-10.1,9.53-22.56,9.53s-22.56-4.27-22.56-9.53c0-5.27,10.1-9.54,22.56-9.54s22.56,4.27,22.56,9.54z"/>
<path id="use2541" style="stroke-linejoin:miter;stroke-width:1.26463008;marker-end:none;fill-rule:evenodd;marker-start:none;stroke-dashoffset:0;stroke:#000000;stroke-linecap:round;stroke-miterlimit:4;stroke-dasharray:none;enable-background:accumulate;marker-mid:none;fill:#f1b517;" transform="translate(520,0)" d="M247.5,311.66l0.84,6.96c1.65,0.13,3.37,0.22,5.13,0.22l1.25-7.18h-7.22z"/>
<path id="use2546" style="stroke-linejoin:miter;stroke-width:1.26463008;marker-end:none;fill-rule:evenodd;marker-start:none;stroke-dashoffset:0;stroke:#000000;stroke-linecap:round;stroke-miterlimit:4;stroke-dasharray:none;enable-background:accumulate;marker-mid:none;fill:#f1b517;" transform="translate(520,0)" d="M269.56,309.97l-4.9,1.37,0.31,6.57c1.67-0.3,3.24-0.66,4.65-1.07l-0.06-6.87z"/>
<path id="use2551" style="stroke-linejoin:miter;stroke-width:1.26463008;marker-end:none;fill-rule:evenodd;marker-start:none;stroke-dashoffset:0;stroke:#000000;stroke-linecap:round;stroke-miterlimit:4;stroke-dasharray:none;enable-background:accumulate;marker-mid:none;fill:#f1b517;" transform="translate(520,0)" d="M240.5,299.33c-1.39,0.43-2.69,0.92-3.88,1.47l0.69,5.26,3.13-1.03,0.06-5.7z"/>
<path id="use2556" style="stroke-linejoin:miter;stroke-width:1.26463008;marker-end:none;fill-rule:evenodd;marker-start:none;stroke-dashoffset:0;stroke:#000000;stroke-linecap:round;stroke-miterlimit:4;stroke-dasharray:none;enable-background:accumulate;marker-mid:none;fill:#f1b517;" transform="translate(520,0)" d="M253.62,297.25c-0.65,0-1.29,0.04-1.93,0.07l1.06,6.59,3.25-0.06,1.28-6.44c-1.19-0.09-2.41-0.16-3.66-0.16z"/>
<path id="use2561" style="stroke-linejoin:miter;stroke-width:1.26463008;marker-end:none;fill-rule:evenodd;marker-start:none;stroke-dashoffset:0;stroke:#000000;stroke-linecap:round;stroke-miterlimit:4;stroke-dasharray:none;enable-background:accumulate;marker-mid:none;fill:#f1b517;" transform="translate(520,0)" d="M268,299.58l-0.66,5.76,3.72,1.37,0.41-5.66c-1.06-0.54-2.22-1.03-3.47-1.47z"/>
<path id="path3858" style="stroke-linejoin:miter;fill-rule:evenodd;stroke:#000000;stroke-linecap:butt;stroke-width:1px;fill:#f1b517;" transform="translate(520,0)" d="M232.95,315.06l0.99-7.18-5.03-2.82,0.15,8.17,3.89,1.83z"/>
<path id="path3866" style="stroke-linejoin:miter;fill-rule:evenodd;stroke:#000000;stroke-linecap:butt;stroke-width:1px;fill:#f1b517;" transform="translate(520,0)" d="M278.14,313.51l0.23-7.18-4.72,1.46,4.49,5.72z"/>
</g>
<g id="Mortar">
<g id="g3619">
<use id="use3617" style="fill:#016a16;" xlink:href="#use3602" transform="matrix(1,0,0,-1,-1.2161782e-2,534.0625)" height="420" width="509" y="0" x="0"/>
<path id="path3595" style="stroke-linejoin:miter;stroke-width:0.5635407;marker-end:none;fill-rule:evenodd;marker-start:none;stroke-dashoffset:0;stroke:#fff;stroke-linecap:round;stroke-miterlimit:4;enable-background:accumulate;marker-mid:none;fill:#016a16;" transform="matrix(1.0745646,0,0,2.8824628,-10.214643,-500.30481)" d="M188.08,269.24c0,2.51-4.08,4.55-9.1,4.55-5.03,0-9.11-2.04-9.11-4.55v-2.47h18.21v2.47z"/>
<path id="path3600" style="marker-end:none;fill-rule:evenodd;marker-start:none;enable-background:accumulate;marker-mid:none;fill:#fff;" transform="matrix(1.5829309,0,0,1.3195467,-105.76137,-86.313448)" d="M187.99,267.26c0.01,2.1-2.74,3.8-6.13,3.8s-6.14-1.7-6.14-3.8c0-2.09,2.75-3.79,6.14-3.79s6.14,1.7,6.13,3.79z"/>
<path id="path3598" style="stroke-linejoin:miter;fill-rule:evenodd;stroke:#f1b517;stroke-linecap:butt;stroke-width:1px;fill:#016a16;" d="M179.89,271.99l-1.67-18.38h7.43l-1.21,18.38h-4.55z"/>
<path id="use3602" style="stroke-linejoin:miter;stroke-width:1.29949546;marker-end:none;fill-rule:evenodd;marker-start:none;stroke-dashoffset:0;stroke:#fff;stroke-linecap:round;stroke-miterlimit:4;enable-background:accumulate;marker-mid:none;fill:#016a16;" d="M192.86,266.66c-1.43,2.75-5.71,4.75-10.75,4.75-5.05,0-9.3-2-10.72-4.75-0.33,0.63-0.53,1.3-0.53,2,0,3.73,5.04,6.75,11.25,6.75s11.25-3.02,11.25-6.75c0-0.7-0.18-1.37-0.5-2z"/>
</g>
<g id="g3626" transform="translate(-520,0)">
<path id="path3628" style="stroke-linejoin:miter;fill-rule:evenodd;stroke:#000000;stroke-linecap:butt;stroke-width:1px;fill:#f1b517;" d="M694.53,304.69l19.66,2.06,3.06-18.09-23.06-2.44"/>
<path id="path3634" style="stroke-linejoin:miter;fill-rule:evenodd;stroke:#000000;stroke-linecap:butt;stroke-width:1px;fill:#f1b517;" d="M699.66,285.48l-2.94,21.37,5.88-0.19,2.36-21.18h-5.3z"/>
</g>
</g>
<g id="Helmet">
<path id="path3655" style="stroke-linejoin:miter;fill-rule:evenodd;stroke:#000000;stroke-linecap:butt;stroke-width:1px;fill:#f1b517;" d="M328.11,266.16c4.47-0.64,11.09,5.71,11.49,13.56,0.31,6.24-9.1,5.91-9.1,5.91-0.48,2.55-5.67,4.92-9.89,5.11-4.1,0.18,1.11-7.98,1.11-7.98-2.55-7.03,0.8-15.32,0.8-15.32l5.59-1.28z"/>
<path id="path3657" style="stroke-linejoin:miter;stroke:#000000;stroke-linecap:butt;fill:none;stroke-width:1px;" d="M321.72,282.44l4.31-0.16s0.33,2.3,1.12,2.39c0.85,0.1,1.76-2.23,1.76-2.23l6.54-0.16"/>
<path id="path3659" style="stroke-linejoin:miter;fill-rule:evenodd;stroke:#f1b517;stroke-linecap:butt;stroke-width:1px;fill:#d20014;" d="M330.5,270.79c3.66-2.74,0.45-8.25-2.07-8.3,0,0-5.91,0.16-5.91,0.16-2.78,0.06-7.49,3.19-6.86,5.9,0.54,2.37,2.08,3.45,4.47,3.04,1.08-0.19,3.37-3.14,4.47-3.2,1.47-0.06,4.72,3.28,5.9,2.4z"/>
</g>
<g id="Hat-on-pole">
<path id="path3710" style="stroke-linejoin:miter;fill-rule:evenodd;stroke:#0a328c;stroke-linecap:butt;stroke-width:1px;fill:#0a328c;" d="M254.01,37.685c-3.7-1.806-12.07-7.317-9.59-10.607,0,0,3.84-6.771,3.84-6.771,5.43-12.691-0.1-7.774-0.68-11.736-0.56-3.8041,20.78-0.8334,21.1,7.7865,0.09,2.374-1.58,0.981-1.35,14.557,0,0-4.07,8.124-4.07,8.124-3.03,0.294-6.63-0.077-9.25-1.354z"/>
<path id="path3708" style="stroke-linejoin:miter;fill-rule:evenodd;stroke:#000000;stroke-linecap:butt;stroke-width:1px;fill:#f1b517;" d="M256.61,70.523l-5.31-4.627,1.47-39.608,5.19,1.58-1.35,42.655z"/>
<path id="path3712" style="stroke-linejoin:miter;fill-rule:evenodd;stroke:#d20014;stroke-linecap:butt;stroke-width:1px;fill:#d20014;" d="M263.49,38.814c3.33-2.02,5.51-8.045,3.5-11.623-5.47-7.177-9-4.216-18.17-7.448-1.83,2.018-5.68,5.902-4.85,8.802,12.06,5.884,7.38,0.872,11.37,1.606,2.15,0.395,3.54,3.038,8.15,8.663z"/>
</g>
<path id="Anchor-left" style="stroke-linejoin:miter;fill-rule:evenodd;stroke:#000000;stroke-linecap:butt;stroke-width:1px;fill:#f1b517;" d="M62.188,348.81c-3.317,0.44-3.932,4.4-2.688,8.03-14.448,4.21-27.355,9.7-40.094,13.41-0.512-2.64,6.313-10.28,6.313-10.28,1.805,0.9,3.156,5.19,3.156,5.19,0.451-8.81,8.812-14.66,8.813-14.66-4.966-0.68-20.07,5.39-21.876,7.88,0,0,5.848-0.68,6.75,0,0,0-11.514,12.88-12.031,16.71,1.791,4.19,21.656,7.32,21.657,7.32-0.314,1.08-5.844,5.18-5.844,5.18,7.901,1.8,19.817-4,23.375-7.53,0,0-9.294-0.79-16.531-6.87,0,0,1.492,3.78,0.593,5.59,0,0-11.291-3.37-12.469-5.31,0.03-0.17,26.709-7.33,39.626-11.16,0.478,2.39,3.043,6.91,6.124,5.85,2.011-0.7,1.374-4.83,0.626-7.75,0.726,0.64,1.669,1.03,2.718,1.03,2.271,0,4.125-1.83,4.125-4.1s-1.854-4.12-4.125-4.12c-1.816,0-3.33,1.18-3.875,2.81-0.514-2.52-1.856-7.54-4.343-7.22zm10.157,8.52c0,1.06-0.862,1.92-1.924,1.92-1.063,0-1.925-0.86-1.925-1.92s0.862-1.93,1.925-1.93c1.062,0,1.924,0.87,1.924,1.93z"/>
<g id="Anchor-right">
<path id="path3723" style="stroke-linejoin:miter;fill-rule:evenodd;stroke:#000000;stroke-linecap:butt;stroke-width:1px;fill:#f1b517;" d="M486.13,365.7c0.98-2.04-0.87-12.33-0.87-12.33-2.01,0.23-4.75,3.8-4.75,3.8,2.59-8.43-4.65-22.51-4.65-22.51,4.9,1.06,21.22,17.44,22.07,20.39,0,0-7.15-2.65-8.23-2.32,1.16,8.4,6.76,12.3,8.87,16.66,0,0-9.28,2.11-8.35,10.16l-6.06,0.11c-2.1-2.68,0.81-7.11,0.81-7.11l-41.62-18.07c-2.68-1.16-8.71-4-7.81-7.34,0.92-3.37,10.85,1.4,13.29,2.21l37.3,16.35z"/>
<path id="path3735" style="stroke-linejoin:miter;fill-rule:evenodd;stroke:#000000;stroke-linecap:butt;stroke-width:1px;fill:#f1b517;" d="M446.15,358.21l4.9-9.32c1.75-2.45-1.87-5.13-4.43-1.99l-5.48,8.51c-2.45,4.67,2.68,5.95,5.01,2.8z"/>
</g>
<g id="Banner">
<g id="g3765">
<g id="g3753">
<path id="path3743" style="stroke-linejoin:miter;fill-rule:evenodd;stroke:#000000;stroke-linecap:butt;stroke-width:1px;fill:#fff;" d="M154.29,379.53l-0.34-10.17-11.87,0.68-0.68,11.08,12.89-1.59z"/>
<path id="path3741" style="stroke-linejoin:miter;fill-rule:evenodd;stroke:#000000;stroke-linecap:butt;stroke-width:1px;fill:#fff;" d="M67.54,393.8l-15.87-9.23c65.44,6.22,78.81-17.44,94.62-18.71,9.73-0.79,11.24,11.16-7.59,5.48l4.87,12.49s-46.462,27.09-92.126,15.9l16.096-5.93z"/>
</g>
<g id="use3757" transform="matrix(-1,0,0,1,508.23184,0)">
<path id="path3761" style="stroke-linejoin:miter;fill-rule:evenodd;stroke:#000000;stroke-linecap:butt;stroke-width:1px;fill:#fff;" d="M155.59,379.53l-0.34-10.17-14.52,0.35-0.68,11.08,15.54-1.26z"/>
<path id="path3763" style="stroke-linejoin:miter;fill-rule:evenodd;stroke:#000000;stroke-linecap:butt;stroke-width:1px;fill:#fff;" d="M65.823,391.3l-14.934-8.45c74.961,2.32,57.901-12.76,95.401-16.99,9.7-1.09,16.98,11.82-7.59,5.48l4.87,12.49s-11.79,0.01-11.79,0.01c-25.54,17.43-60.001,18.99-82.834,13.39l16.877-5.93z"/>
</g>
<path id="path3745" style="stroke-linejoin:miter;fill-rule:evenodd;stroke:#000000;stroke-linecap:butt;stroke-width:1px;fill:#fff;" d="M138.43,371.41v17.58s41.56,15.98,115.73,15.98c74.49,0,115.73-15.98,115.73-15.98v-17.58s-31.45,15.02-115.73,15.02c-83.95,0-115.73-15.02-115.73-15.02z"/>
</g>
<g id="g3806">
<path id="text3774" style="text-align:start;fill:#000000;" d="M144.64,389.09l3.66-12.88,1.71,0.49-3.24,11.35,6.34,1.81-0.43,1.52-8.04-2.29zm12.03-5.66l0.2-2.53,0.55-2.17,1.81,0.46-0.55,2.16-1.03,2.32-0.98-0.24zm17.88-0.87l1.73,0.35-1.54,7.58c-0.27,1.32-0.63,2.33-1.08,3.05-0.46,0.71-1.13,1.23-2.01,1.56-0.87,0.33-1.94,0.36-3.21,0.11-1.23-0.25-2.19-0.67-2.88-1.25-0.7-0.59-1.13-1.31-1.3-2.18s-0.12-2,0.17-3.39l1.54-7.58,1.73,0.35-1.54,7.57c-0.23,1.14-0.29,2-0.19,2.59,0.1,0.58,0.38,1.07,0.84,1.47,0.45,0.39,1.05,0.67,1.8,0.82,1.28,0.26,2.24,0.16,2.9-0.31s1.16-1.53,1.5-3.17l1.54-7.57zm1.95,13.99l2.16-13.21,1.8,0.29,5.24,11.51,1.7-10.37,1.67,0.27-2.16,13.21-1.79-0.29-5.24-11.52-1.7,10.38-1.68-0.27zm13.67,2.14l1.84-13.26,1.75,0.24-1.84,13.26-1.75-0.24zm5.04-5.85c0.25-2.21,1.04-3.87,2.37-4.98,1.33-1.12,2.93-1.56,4.81-1.35,1.22,0.14,2.3,0.56,3.22,1.26,0.91,0.7,1.57,1.6,1.97,2.71s0.52,2.33,0.37,3.66c-0.16,1.35-0.57,2.52-1.23,3.53-0.67,1-1.53,1.72-2.59,2.15s-2.17,0.58-3.33,0.45c-1.25-0.14-2.33-0.57-3.25-1.29s-1.57-1.63-1.96-2.73c-0.39-1.11-0.51-2.24-0.38-3.41zm1.81,0.23c-0.18,1.61,0.11,2.92,0.86,3.94,0.76,1.02,1.79,1.6,3.09,1.75,1.32,0.15,2.46-0.19,3.43-1.02,0.96-0.83,1.54-2.11,1.73-3.82,0.13-1.08,0.05-2.05-0.22-2.9-0.27-0.84-0.74-1.53-1.39-2.06-0.66-0.52-1.42-0.83-2.3-0.93-1.24-0.15-2.37,0.16-3.36,0.91-1,0.75-1.61,2.13-1.84,4.13zm12.42,7.9l1.09-13.34,1.81,0.15,6.15,11.04,0.86-10.47,1.69,0.14-1.09,13.34-1.81-0.15-6.15-11.06-0.86,10.49-1.69-0.14zm18.76,1.35l0.59-13.37,9.02,0.39-0.07,1.58-7.25-0.32-0.18,4.15,6.27,0.27-0.07,1.58-6.27-0.28-0.27,6.08-1.77-0.08zm9.86,0.44l5.4-13.29,1.91,0.04,5.22,13.49-2.02-0.04-1.48-4.08-5.6-0.11-1.55,4.02-1.88-0.03zm3.97-5.42l4.54,0.09-1.33-3.74c-0.4-1.13-0.7-2.06-0.89-2.79-0.19,0.85-0.45,1.7-0.77,2.54l-1.55,3.9zm10.29,5.63l0.03-13.38h1.77l-0.02,13.38h-1.78zm8.3-0.04l-0.17-11.8-4.41,0.06-0.02-1.58,10.61-0.15,0.02,1.58-4.43,0.06,0.17,11.81-1.77,0.02zm13.13-0.32l-0.62-13.37,1.77-0.08,0.55,11.79,6.58-0.31,0.08,1.58-8.36,0.39zm9.01-0.4l4.18-13.72,1.9-0.14,6.42,12.97-2.02,0.14-1.84-3.93-5.59,0.39-1.17,4.15-1.88,0.14zm3.46-5.76l4.53-0.32-1.66-3.6c-0.5-1.1-0.89-2-1.14-2.7-0.11,0.86-0.29,1.73-0.54,2.6l-1.19,4.02zm15.71,4.23l-1.46-13.31,8.97-0.99,0.18,1.57-7.22,0.8,0.46,4.12,6.24-0.69,0.17,1.57-6.24,0.69,0.67,6.04-1.77,0.2zm9.82-7.64c-0.31-2.2,0.03-4.01,1.03-5.42,1.01-1.42,2.44-2.26,4.31-2.52,1.23-0.18,2.37-0.04,3.44,0.4,1.06,0.45,1.93,1.16,2.59,2.13,0.67,0.97,1.09,2.12,1.28,3.44,0.19,1.35,0.09,2.59-0.3,3.73-0.39,1.13-1.04,2.05-1.96,2.73-0.91,0.69-1.95,1.12-3.1,1.28-1.25,0.18-2.4,0.04-3.47-0.42-1.07-0.47-1.93-1.18-2.59-2.15-0.65-0.97-1.06-2.04-1.23-3.2zm1.81-0.23c0.23,1.59,0.84,2.79,1.83,3.59,0.99,0.79,2.13,1.1,3.43,0.91,1.32-0.19,2.34-0.8,3.06-1.85s0.96-2.43,0.71-4.14c-0.15-1.08-0.47-1.99-0.95-2.74-0.48-0.76-1.1-1.3-1.86-1.65-0.77-0.34-1.59-0.45-2.46-0.32-1.24,0.17-2.25,0.75-3.02,1.73-0.78,0.98-1.02,2.47-0.74,4.47zm14.06,4.49l-2.39-13.17,5.84-1.06c1.17-0.21,2.09-0.26,2.74-0.13,0.65,0.12,1.22,0.45,1.69,0.98,0.48,0.54,0.78,1.17,0.91,1.89,0.17,0.93,0.01,1.78-0.48,2.53s-1.35,1.33-2.58,1.73c0.5,0.14,0.89,0.29,1.17,0.46,0.59,0.38,1.18,0.87,1.77,1.49l2.94,3.17-2.2,0.4-2.24-2.42c-0.65-0.7-1.18-1.23-1.58-1.59-0.41-0.36-0.76-0.6-1.05-0.72s-0.57-0.19-0.86-0.21c-0.2,0-0.53,0.04-0.98,0.12l-2.02,0.36,1.06,5.85-1.74,0.32zm0.41-7.68l3.74-0.68c0.8-0.14,1.41-0.34,1.83-0.58,0.42-0.25,0.71-0.57,0.88-0.98,0.17-0.4,0.21-0.82,0.13-1.24-0.11-0.63-0.43-1.1-0.95-1.42-0.53-0.32-1.28-0.39-2.26-0.21l-4.16,0.76,0.79,4.35zm21.14-1.45l1.83,0.04c-0.05,1.5-0.46,2.73-1.23,3.69s-1.84,1.59-3.2,1.9c-1.41,0.31-2.62,0.28-3.63-0.09-1.01-0.38-1.86-1.05-2.57-2.04-0.7-0.98-1.2-2.1-1.48-3.34-0.3-1.36-0.31-2.61-0.02-3.74s0.86-2.06,1.7-2.8c0.84-0.75,1.84-1.25,2.99-1.51,1.3-0.29,2.48-0.2,3.52,0.26,1.04,0.47,1.87,1.26,2.49,2.39l-1.61,0.78c-0.52-0.88-1.11-1.47-1.78-1.78-0.68-0.3-1.45-0.35-2.32-0.16-1.01,0.23-1.79,0.66-2.36,1.29-0.56,0.63-0.89,1.38-0.98,2.26-0.09,0.87-0.04,1.74,0.15,2.6,0.25,1.11,0.63,2.04,1.14,2.8,0.51,0.75,1.15,1.26,1.93,1.51,0.77,0.26,1.56,0.3,2.36,0.12,0.96-0.22,1.72-0.68,2.27-1.39,0.54-0.71,0.81-1.64,0.8-2.79zm4.92,3.64l-3.6-12.9,9.32-2.6,0.43,1.52-7.62,2.13,1.1,3.95,7.14-1.99,0.42,1.51-7.13,1.99,1.22,4.39,7.92-2.21,0.42,1.52-9.62,2.69z"/>
<path id="path3150" style="fill:none;" d="M138.43,386.99s41.56,15.98,115.73,15.98c74.49,0,115.73-15.98,115.73-15.98"/>
</g>
</g>
</g>
</svg>
