<?xml version="1.0" encoding="UTF-8" standalone="no"?>
<svg id="svg2" xmlns:rdf="http://www.w3.org/1999/02/22-rdf-syntax-ns#" xmlns="http://www.w3.org/2000/svg" viewBox="0 0 600 300" version="1.1" xmlns:cc="http://creativecommons.org/ns#" xmlns:xlink="http://www.w3.org/1999/xlink" xmlns:dc="http://purl.org/dc/elements/1.1/">
<metadata id="metadata53">
<rdf:RDF>
<cc:Work rdf:about="">
<dc:format>image/svg+xml</dc:format>
<dc:type rdf:resource="http://purl.org/dc/dcmitype/StillImage"/>
<dc:title/>
</cc:Work>
</rdf:RDF>
</metadata>
<rect id="rect4" width="600" fill="#cf142b" height="300"/>
<g id="g6" stroke="#000" fill="#f9dd16">
<g id="leg">
<path id="path9" d="m225.97,126.35c0.21928,0.22495,2.8572,1.8186,2.903,1.7303,0.0458-0.0882,6.9033-1.6699,6.8574-1.5817-0.0458,0.0882-3.8421,4.6007-3.6656,4.6923,0.17575,0.0912,3.9672,4.6307,4.0555,4.6765,0.0875,0.0454-7.1796-0.5974-7.1796-0.5974l-4.8072,3.8756-1.0766-5.0306s-6.0471-2.1332-6.1354-2.179c-0.0875-0.0454,5.1752-1.7848,5.1752-1.7848l1.5711-4.1031s2.0352,0.38637,2.3022,0.30187z"/>
<path id="path11" stroke-width="1.3" d="m314.47,136.2c0.0143-4.2402-8.3348-23.424-9.7095-26.374-2.5573-3.2009-5.2633-8.2694-6.4264-12.647-0.75315-4.4192-3.1169-7.885-6.4486-9.0602-3.8452-2.0414-7.6003-1.2409-11.215-0.92675-1.772,0.3765-3.2883,1.3339-4.1444,2.7441-1.9517,2.7918-3.0127,2.5788-4.3629,3.7822-11.113,1.7319-21.623,7.4666-29.618,11.375-4.2338,2.9392-7.8277,4.6461-9.4927,5.0056-4.514,0.0162-7.7972-2.1227-9.3654-3.2601-5.1122-4.6485-10.224-9.2977-15.336-13.946-4.4313-3.307-5.5272,1.4671-4.6763,2.1962,1.4795,3.1793-1.7236,5.1148,10.438,16.571,1.5356,3.1543,3.0709,6.3094,4.6066,9.4637,0,0-0.25556,2.588-0.0415,2.6991,2.2204,5.2893,5.7476,3.9711,7.4122,2.4875,1.2042-1.0974,2.4091-2.1943,3.6133-3.2917,0,0,7.1606-2.2663,7.2717-2.4804,7.6787,1.143,27.465-2.6266,30.727-4.1748,2.9402-1.6468,3.1278-0.25197,5.6751-2.3268,2.1293-1.4095,0.95823-0.28756,4.8926-3.8827,1.211-1.0415,2.1691,0.64501,2.3949,1.8246,0.21916,11.169,1.5873,18.306,2.6056,29.442l16.733,8.574z" fill="#fff"/>
<path id="path13" stroke="none" d="m217.84,102.28c0.15285,0.13536-2.7644,9.631-2.7644,9.631s-2.6884-2.6813-2.6655-2.7254l1.8825-9.9768,3.5474,3.0712z"/>
<g id="g15" fill="none">
<path id="path17" stroke-width="1.13" d="m217.92,101.93c-0.13297,0.64166-0.69814,3.5041-0.96119,4.2866-0.22022,0.86631-0.41687,1.7403-0.56311,2.6073-0.26994,0.94793-0.38728,1.5683-0.68751,2.5428-0.0958,0.8354-0.27142,1.6193-0.48426,2.4554m-1.8509-16.246c0.0594,0.12264,0.27477,0.98465,0.30676,1.5402-0.1018,0.58163-0.26368,2.6673-0.48655,3.3725-0.17742,0.78385-0.33126,1.5754-0.4362,2.3629-0.22262,0.8568-0.30992,1.4193-0.56096,2.299-0.0572,0.76091-0.19444,1.471-0.3656,2.2269"/>
<path id="path19" d="m262.23,96.635c3.578,3.9815,4.6877,10.453,4.0395,14.077"/>
<path id="path21" d="m248.38,120.22c0.0218-0.0419,0.0432-0.0832,0.0646-0.1244-0.2024,0.38983-0.0456,0.16733-0.42859-0.69723-0.4065-0.44795-0.6919-2.6254-0.0671-3.8288,0.23933-0.61307,0.6405-1.5378,0.9424-2.1194,0.086-0.16562,0.32905-0.32958,0.41541-0.49593"/>
<path id="path23" d="m222.8,106.78c-0.0214,0.0412-0.0428,0.0825-0.0646,0.1244,0.0864-0.16634-0.17235,0.33198-0.25834,0.4976-0.33532,0.64586-0.78677,1.2342-1.0943,1.8036-0.3233,0.62272-0.82308,1.1538-1.1464,1.7765-0.41527,0.58232-0.77949,1.3546-1.2096,1.9567-0.40309,0.71627-0.8508,1.2266-1.2447,1.9853-0.34082,0.59986-0.61402,0.87672-0.96587,1.5544l0.96587-1.5544c-0.34082,0.59986-0.61402,0.87672-0.96587,1.5544"/>
<path id="path25" d="m209.8,94.658c0.0624,0.11686,0.30369,0.92896,0.35446,1.4484-0.08,0.53968-0.16719,2.4814-0.3619,3.1323-0.147,0.72527-0.2708,1.4589-0.34682,2.1907-0.18921,0.79243-0.25548,1.3144-0.4716,2.1269-0.0301,0.70883-0.14037,1.3669-0.28223,2.0663"/>
<path id="path27" d="m225.39,117.56c-0.83981-0.88318-1.3335-0.56011-1.8727-0.6004-0.59792,0.10643-1.6848,0.60636-2.7875,1.7151-0.40252,0.43927-0.74094,0.76215-1.2741,1.2355-0.2393,0.3725-0.43683,0.51419-0.70127,0.74234"/>
<path id="path29" d="m288.48,87.761c-0.0214,0.04122-0.0432,0.08317-0.0646,0.1244,0.20277-0.39056,0.0558-0.16936,0.2396,0.75704,0.24213,0.63898,0.27145,1.083,0.53867,1.702"/>
<path id="path31" d="m275.42,91.218c-0.0432,0.08317-0.15199,9.1178,0.22209,10.283,0.11147,0.74561,0.31299,1.3709,0.41715,2.2614,0.001,0.53691,0.12676,0.98677,0.1651,1.5089,0.30577,0.57654,0.37057,1.1556,0.68353,1.6192,0.15285,0.63763,0.66383,0.66327,0.93797,1.2583,0.38262,0.41259,1.0109,1.1391,1.3879,1.4652"/>
<path id="path33" d="m269.14,115.95c-0.27775-0.0946-0.99155-0.65988-1.6011-0.96257-0.68734-0.38808-2.3824-2.4113-2.4631-3.8351"/>
<path id="path35" d="m275.9,103.13c-0.0218,0.0419-0.94205,0.94789-2.4485,2.4788-1.9269,1.7836-7.169,4.8522-7.7996,5.0995-0.60374,0.27329-1.3577,0.93136-1.9539,1.024-0.68539,0.27313-1.3679,0.37974-2.0164,0.53424-0.79093,0.16692-1.4616,0.31088-2.0759,0.34453-1.8423,0.80188-11.554,0.48958-12.055,0.38099-0.51932-0.004-1.2258-0.0424-1.6931-0.0885-0.46167,0.11106-1.0088,0.0648-1.6333,0.10051-0.75428-0.0611-1.1877,0.084-1.8227,0.16104-0.50044,0.26355-1.3327,0.53663-1.8961,0.91258-0.77163,0.31191-1.2403,0.73706-1.7724,0.9768-0.55443,0.45773-8.1103,4.8666-8.476,5.0634-0.79297,0.34949-3.6404,1.1951-4.3532-0.80657-0.18337-0.78753-0.54606-1.5993-0.56823-2.2021-0.22885-0.72115-0.0987-1.4919-0.0614-2.1649,0.66136-3.4103,1.7563-4.7535,2.0582-5.335,0.10777-0.20757,0.21554-0.41514,0.32331-0.62272"/>
<path id="path37" d="m297.88,96.438c-0.0214,0.04122-0.0432,0.08317-0.0646,0.1244,0.17461-0.33631,0.0932-0.16005-0.38312,0.43373-0.48673,0.39279-1.0859,1.0146-1.5277,1.4197-0.44521,0.4419-0.87315,1.0663-1.2741,1.2355-0.40166,0.52603-0.90864,0.69253-1.4583,0.98194-0.74267,0.27736-1.2541,0.51779-1.8961,0.91259-0.82016,0.43546-1.331,0.85157-2.091,1.2861-0.46836,0.59791-0.94493,0.96935-1.3427,1.6737-0.39411,0.65299-0.78753,1.2127-1.1589,1.928-0.3019,0.58149-0.60343,1.1623-0.90533,1.7438l0.90533-1.7438c-0.3019,0.58149-0.60343,1.1623-0.90533,1.7438"/>
<path id="path39" d="m291.57,144.22c0.0432-0.0832,0.0864-0.16634,0.12955-0.24952-0.2392,0.46071-0.15535,0.33989,0.0694-0.43778,0.002-0.93269,0.22348-2.061,0.23273-2.8835,0.1401-0.87118,0.28237-1.8119,0.29143-2.6942-0.0528-1.0319-0.0511-1.9566-0.20544-2.9522-0.0119-0.91613-0.11919-1.8662-0.14635-2.7636-0.0167-0.88923-0.0831-1.6509-0.27589-2.514-0.0179-0.6465-0.0579-1.5332-0.21499-2.3254,0.0842-0.62381-0.0933-1.198-0.226-1.6976-0.24158-0.96191-0.3351-1.5228-0.58891-2.5196-0.15261-0.53374-0.30331-1.2162-0.53351-2.0161-0.0832-0.75757-0.48886-1.7413-0.65387-2.3944-0.22522-0.48054-0.45223-1.131-0.53939-1.7023-0.23581-0.52736-0.5719-1.1711-0.66341-1.7676-0.24858-0.45502-0.51299-1.1625-0.78781-1.8322-0.23693-0.54997-0.41103-1.228-0.66307-1.7666-0.25424-0.68108-0.56467-1.2628-0.72322-1.9566-0.24317-0.23552-0.29829-0.49368-0.42897-0.69651"/>
</g>
<path id="path41" d="m289.89,91.736c-0.84514,1.932-3.0218,4.7539-3.0541,4.8161-0.00038,0.000724-2.0714,4.1418-2.0714,4.1418-0.91258,2.267-0.33046,3.1744,0.0678,3.8292,0.82453,1.4556,0.96963,2.2425,1.58,3.35,0.23005,1.3838-2.2246,1.8494-2.2568,1.9116-5.1101,1.7727-7.702-3.1301-7.7295-3.3813-0.69343-2.5729-0.60272-3.0005,0.96353-3.5307,1.7952-0.41223,2.5164-0.43259,3.405-1.0777,1.682-1.2606,2.8696-5.0708,2.9022-5.1337,0.0323-0.0622,0.25233-2.1608,0.25233-2.1608,0.13096-1.0127-0.33675-1.9405,0.18007-3.5426,0.67163-1.5483,1.0757-1.9712,2.6671-2.0934,2.0735-0.18784,3.6833,1.2797,3.0938,2.8715z"/>
</g>
<use id="use43" xlink:href="#leg" transform="rotate(120,300,150)"/>
<use id="use45" xlink:href="#leg" transform="rotate(240,300,150)"/>
<path id="path47" stroke-width="1.3" d="m304.62,169.37c-1.7737-0.90291-3.1273-1.0832-3.7737-0.64598-1.0276-5.7458-1.9318-11.499-3.2518-17.227-10.896-4.5368-13.198-5.5727-16.774-7.127,1.6688-1.0846,2.5017-2.1667,2.4463-2.9451,5.4898,1.983,10.924,4.0765,16.545,5.7975,9.3769-7.1677,11.425-8.6439,14.559-10.963,0.10491,1.9875,0.62557,3.2499,1.3274,3.5911-4.4622,3.7628-8.9925,7.4225-13.293,11.43,1.5189,11.704,1.7731,14.217,2.2146,18.09z"/>
</g>
</svg>
