<?xml version="1.0" encoding="UTF-8" standalone="no"?>
<svg id="svg2" xmlns:rdf="http://www.w3.org/1999/02/22-rdf-syntax-ns#" xmlns="http://www.w3.org/2000/svg" height="900" width="1350" version="1.1" xmlns:cc="http://creativecommons.org/ns#" xmlns:xlink="http://www.w3.org/1999/xlink" viewBox="0 0 225 150" xmlns:dc="http://purl.org/dc/elements/1.1/">
<metadata id="metadata40">
<rdf:RDF>
<cc:Work rdf:about="">
<dc:format>image/svg+xml</dc:format>
<dc:type rdf:resource="http://purl.org/dc/dcmitype/StillImage"/>
<dc:title/>
</cc:Work>
</rdf:RDF>
</metadata>
<rect id="rect4" width="225" fill="#f93" height="150"/>
<rect id="rect6" y="50" width="225" fill="#fff" height="50"/>
<rect id="rect8" y="100" width="225" fill="#128807" height="50"/>
<g id="g10" transform="translate(112.5,75)">
<circle id="circle12" d="m 20,0 c 0,11.045695 -8.954305,20 -20,20 -11.045695,0 -20,-8.954305 -20,-20 0,-11.045695 8.954305,-20 20,-20 11.045695,0 20,8.954305 20,20 z" r="20" fill="#008"/>
<circle id="circle14" d="M 17.5,0 C 17.5,9.6649831 9.6649831,17.5 0,17.5 -9.6649831,17.5 -17.5,9.6649831 -17.5,0 c 0,-9.6649831 7.8350169,-17.5 17.5,-17.5 9.6649831,0 17.5,7.8350169 17.5,17.5 z" r="17.5" fill="#fff"/>
<circle id="circle16" d="M 3.5,0 C 3.5,1.9329966 1.9329966,3.5 0,3.5 -1.9329966,3.5 -3.5,1.9329966 -3.5,0 c 0,-1.9329966 1.5670034,-3.5 3.5,-3.5 1.9329966,0 3.5,1.5670034 3.5,3.5 z" r="3.5" fill="#008"/>
<g id="d">
<g id="c">
<g id="b">
<g id="a" fill="#008">
<circle id="circle22" d="M 0.875,0 C 0.875,0.48324916 0.48324916,0.875 0,0.875 -0.48324916,0.875 -0.875,0.48324916 -0.875,0 c 0,-0.48324916 0.39175084,-0.875 0.875,-0.875 0.48324916,0 0.875,0.39175084 0.875,0.875 z" r="0.875" transform="rotate(7.5) translate(17.5)"/>
<path id="path24" d="M0,17.5,0.6,7s-0.6-5-0.6-5-0.6,5-0.6,5l0.6,10.5z"/>
</g>
<use id="use26" xlink:href="#a" transform="rotate(15)"/>
</g>
<use id="use28" xlink:href="#b" transform="rotate(30)"/>
</g>
<use id="use30" xlink:href="#c" transform="rotate(60)"/>
</g>
<use id="use32" xlink:href="#d" transform="rotate(120)"/>
<use id="use34" xlink:href="#d" transform="rotate(-120)"/>
</g>
</svg>
