<?xml version="1.0" encoding="UTF-8" standalone="no"?>
<svg id="svg2" xmlns:rdf="http://www.w3.org/1999/02/22-rdf-syntax-ns#" xmlns="http://www.w3.org/2000/svg" height="600" width="1000" version="1.0" xmlns:cc="http://creativecommons.org/ns#" xmlns:xlink="http://www.w3.org/1999/xlink" viewBox="0,0 30,18" xmlns:dc="http://purl.org/dc/elements/1.1/">
<metadata id="metadata83">
<rdf:RDF>
<cc:Work rdf:about="">
<dc:format>image/svg+xml</dc:format>
<dc:type rdf:resource="http://purl.org/dc/dcmitype/StillImage"/>
<dc:title/>
</cc:Work>
</rdf:RDF>
</metadata>
<rect id="rect4" width="30" fill="#fff" height="18"/>
<path id="path6" fill-rule="evenodd" d="M0,0v1.1562l13.062,7.8438-13.062,7.844v1.156h1.9688l13.031-7.844,13.031,7.844h1.969v-1.156l-13.062-7.844,13.062-7.8438v-1.1562h-1.969l-13.031,7.8438-13.031-7.8438h-1.9688z" fill="#df112d"/>
<g id="Jersey badge" transform="matrix(4.072196e-2,0,0,4.072196e-2,12.94021,10.55291) matrix(3,0,0,3,-308.8556,-259.7129)">
<path id="shield" stroke-width=".125" stroke="#000" fill="#e8112d" d="M132.66,22.233c3.16,12.778,1.43,28.56-12.83,37.316-14.25-8.756-15.98-24.538-12.83-37.316,3.36-3.055,18.64-4.939,25.66,0z"/>
<path id="crown" stroke-width=".125" stroke="#000" fill="#f9dd16" d="M119.81,19.667c5.23,0,10.09,1.383,12.96,3.177,0.57-4.406,2.57-8.812,4.92-12.142-2.46-0.051-3.56,1.255-3.58,2.613-0.62-1.742-3.03-1.64-3.77-0.692,2.69,1.819,0.62,5.046-1.82,4.38-1.14-0.312-1.74-1.109-1.96-2.267,0.26-0.017,0.52-0.113,0.74-0.292,0.57-0.46,0.66-1.293,0.2-1.86s-1.29-0.654-1.86-0.194-0.66,1.293-0.19,1.86c0.15,0.186,0.34,0.318,0.55,0.399-0.77,1.255-2.15,1.632-3.14,1.355-1.28-0.358-1.82-1.511-1.82-2.536,0-2.664,2.56-3.074,3.33-2.612-0.05-1.7935-2.87-3.228-3.74-1.7423,0.97-1.7418,0.92-4.2009-0.82-5.8403-1.74,1.6394-1.79,4.0985-0.82,5.8403-0.87-1.4857-3.69-0.0512-3.74,1.7423,0.77-0.462,3.33-0.052,3.33,2.612,0,1.025-0.54,2.178-1.82,2.536-0.98,0.277-2.36-0.1-3.13-1.355,0.21-0.081,0.4-0.213,0.55-0.399,0.46-0.567,0.37-1.4-0.2-1.86-0.56-0.46-1.4-0.373-1.86,0.194s-0.37,1.4,0.2,1.86c0.22,0.179,0.48,0.275,0.74,0.292-0.21,1.158-0.82,1.955-1.96,2.267-2.43,0.666-4.5-2.561-1.82-4.38-0.74-0.948-3.15-1.05-3.76,0.692-0.03-1.358-1.13-2.664-3.59-2.613,2.36,3.33,4.36,7.736,4.92,12.142,2.87-1.794,7.74-3.177,12.96-3.177z"/>
<g id="leopard" stroke="#000">
<g id="g12" stroke-width=".125" fill="#f9dd16">
<path id="body" d="M130.65,32.2c-0.31,0.075-0.31,0.481-0.48,0.481,0.82-0.023,1.22-0.248,1.47-0.662-0.18,0.165-0.02,0.481-0.08,0.556,0.6-0.21,0.88-0.721,0.67-1.067,0.14,0.196,0.53,0.301,0.65,0.316-0.42-0.331-0.12-1.082-0.8-1.473,0.23-0.015,0.66,0.24,0.78,0.541-0.1-0.676-0.21-1.112-0.76-1.488,0.06,0.068,0.37,0.128,0.51,0-0.36-0.226-0.47-0.601-0.44-0.842,0.04-0.336-0.18-0.406-0.6-0.3-0.38,0.094-1.25,0.15-1.76,0.15-1.05,0-1.97,0-2.84-0.601,1.31,0.541,2.98-0.601,2.98-1.548,0-1.053-1.3-1.909-3.91-1.338-2.62,0.571-5.8,0.331-5.8-0.541s2.28-0.992,3.46-0.812c1.17,0.181,2.01,0.301,4.2-0.481-0.54,0.211-2.28,0.271-3.66-0.12-1.39-0.391-4.78-0.391-4.81,1.443s3.61,1.667,6.76,1.202c1.83-0.27,2.79-0.09,2.79,0.511,0,0.571-1.68,0.812-2.97,0.662-1.29-0.151-2.62-0.121-4.15,0.33-1.28,0.377-2.16,0-3.58,0.241-0.68,0.116-2.34,0-3.16-1.353-0.5,0.361-2.02,1.116-2.28,1.853-0.36,0.676-0.12,1.349,0.36,2.01,0.61,0.832-0.3,0.706-0.94,0.736-0.89,0.042-2.08-0.094-2.69-0.796-0.55-0.623-1.28-1.122-1.87-0.66-0.3,0.237-0.01,0.55,0.23,0.462,0.23-0.086,0.51,0.088,0.76,0.198-0.4-0.173-0.84-0.039-1.01,0.115-0.24,0.212,0.05,0.618,0.34,0.475,0.22-0.113,0.68-0.188,0.98,0.087-0.32-0.062-0.66-0.049-0.82,0.125-0.16,0.175-0.04,0.428,0.31,0.413,0.57-0.025,0.71,0.369,1.27,0.288-0.34,0.045-0.54,0.225-0.63,0.361,0.53-0.241,1.11,0.407,1.79,0.255-0.27,0.109-0.7,0.371-0.69,0.571,0.4-0.466,3.12,0.361,3.18-0.661,0.08,0.21,0.06,0.526-0.15,0.797,0.35-0.211,1.48-0.286,1.82-1.098,0.03,0.241-0.01,0.556-0.22,0.632,0.36,0.118,0.83-0.151,1.32-0.872,0.19-0.286,0.24-0.476,0.2-0.691,0.49,0.018,0.84-0.103,1.21-0.421,0.39-0.331,0.81,0.27,1.47-0.151,0.67-0.421,1.24-0.06,1.6-0.27,0.36-0.211,0.86,0.075,1.25-0.166,0.39-0.24,0.99,0.118,1.64-0.393,1.02,0.373,2.21,1.064,5.12,0.529,1.67-0.307,2.19,0.255,2.19,1.022,0,0.526-0.3,0.571-0.54,0.586-0.93,0.057-1.32-0.348-1.69-0.218-0.25,0.087-0.4,0.487-0.04,0.625-0.3,0.15-0.26,0.431-0.11,0.534,0.15,0.104,0.54,0.01,0.8-0.112-0.34,0.153-0.69,0.428-0.49,0.716,0.13,0.174,0.43,0.322,0.72-0.05,0.28-0.376,0.81-0.688,1.14-0.638z"/>
<path id="left ear" d="M112.14,24.264c-0.84-0.346-1.12-0.356-0.93,0.33,0.09,0.293,0.29,0.707,0.49,0.895,0.01-0.286,0.11-1.075,0.44-1.225z"/>
<path id="right ear" d="M114.77,24.264c0.85-0.346,1.13-0.356,0.94,0.33-0.09,0.293-0.29,0.707-0.49,0.895-0.01-0.286-0.12-1.075-0.45-1.225z"/>
<path id="head" d="M113.46,23.802c1.6,0,1.8,0.747,1.79,1.679-0.01,1.007-0.55,0.661-0.86,1.954-0.12,0.505-0.52,0.534-0.93,0.534-0.4,0-0.8-0.029-0.93-0.534-0.3-1.293-0.85-0.947-0.85-1.954-0.01-0.932,0.19-1.679,1.78-1.679z"/>
<path id="arm" d="M109.36,27.495c-0.41-0.24-0.67-0.074-0.84-0.029,0.53,0.135,0.55,0.811,1.75,1.126-0.27-0.075-0.42,0.076-0.67-0.06,0.49,0.391,1.05,0.844,2.22,0.857,0.66,0.007,0.2,0.346-0.22,0.15,0.44,0.459,1.32,0.083,1.87,0.917,0.11-0.646-1.03-1.668-0.51-2.405-1.62-0.069-1.75-0.968-2.69-1.683-0.76-0.582-0.83-1.173-1.16-2.28-0.15-0.501-0.74-0.814-1.07-0.695-0.28,0.104-0.38,0.35-0.14,0.535,0.24,0.184,0.56,0.209,0.62,0.676-0.32-0.38-0.79-0.517-1.02-0.28-0.14,0.145-0.08,0.482,0.22,0.513,0.48,0.05,0.14,0.525,0.69,0.99-0.49-0.552-0.92-0.602-1.18-0.302-0.16,0.179,0,0.5,0.34,0.465,0.49-0.05,1.05,1.191,1.79,1.505z"/>
<path id="leg" d="M122.43,32.139c-0.25,0.045-0.18,0.466-0.52,0.497,0.82,0,1.24-0.196,1.63-0.512-0.18,0.106-0.25,0.376-0.27,0.526,0.44-0.375,1.48-0.405,2.02-0.3s0.63-0.15,0.82-0.496c0.2-0.346-0.07-0.541-0.34-0.812-0.27-0.27-0.33-0.646-0.27-1.277-1.44-1.924-4.03-0.992-4.06-0.151,0.93,1.082,1.05,0.962,1.83,1.113,0.79,0.15,1.26,0.149,0.74,0.586-0.18,0.15-0.93,0.079-1.52,0.105-1.31,0.057-1.91-0.906-2.3-0.406-0.31,0.412,0.01,0.593,0.66,0.571-0.45,0.003-1.04-0.021-0.94,0.398,0.17,0.707,0.85-0.131,1.11,0.16-0.23-0.053-0.58,0.084-0.59,0.297-0.01,0.212,0.5,0.487,1.06,0.04,0.31-0.245,0.71-0.337,0.94-0.339z"/>
</g>
<g id="g20" stroke-width=".125" fill="none">
<path id="path22" d="M123.55,29.206c-0.47-0.172-0.9-0.276-1.45-0.163"/>
<path id="path24" d="M116.48,28.983c-0.39,0.829-0.15,1.239-0.1,1.624"/>
<path id="path26" d="M112.37,25.052c0.27,0.132,0.41-0.242,0.8,0.155-0.1-0.116-0.24,0.309-0.53,0.027"/>
<path id="path28" d="M114.53,25.052c-0.26,0.132-0.41-0.242-0.8,0.155,0.11-0.116,0.24,0.309,0.54,0.027"/>
<path id="path30" d="M113.73,25.207c-0.09,0.075-0.1-0.06-0.03,0.295,0.13,0.651,0.28,0.956-0.25,0.956-0.54,0-0.37-0.305-0.25-0.956,0.07-0.355,0.06-0.22-0.03-0.295"/>
</g>
<path id="path32" stroke-width=".0625" d="M113.46,27.706c0.43,0,0.68-0.008,0.61-0.609-0.03-0.241,0.29-0.337,0.18-0.729,0.12,0.481-0.79,0.435-0.79,0.217,0,0.218-0.91,0.264-0.79-0.217-0.11,0.392,0.21,0.488,0.18,0.729-0.07,0.601,0.18,0.609,0.61,0.609z" fill="#ff0016"/>
<g id="g34" stroke-width=".0625">
<path id="path36" d="M113.07,26.489l-1.02-0.286"/>
<path id="path38" d="M113.07,26.543l-1.14-0.01"/>
<path id="path40" d="M113.08,26.602l-0.97,0.262"/>
<path id="path42" d="M113.84,26.489l1.03-0.286"/>
<path id="path44" d="M113.84,26.543l1.15-0.01"/>
<path id="path46" d="M113.83,26.602l0.98,0.262"/>
</g>
<g id="claws and tongue" stroke-width=".013" fill="#0051ba">
<path id="path49" d="M108.13,23.414c-0.29-0.373-1.04-0.058-1.06,0.404,0.25-0.3,0.67,0.132,0.89,0.041,0.16-0.063,0.3-0.294,0.17-0.445z"/>
<path id="path51" d="M107.75,24.295c-0.3-0.372-1.05-0.058-1.07,0.404,0.26-0.299,0.67,0.132,0.9,0.041,0.15-0.063,0.29-0.294,0.17-0.445z"/>
<path id="path53" d="M107.55,25.479c-0.34-0.337-1.05,0.06-1.01,0.521,0.22-0.326,0.68,0.056,0.89-0.06,0.15-0.08,0.26-0.324,0.12-0.461z"/>
<path id="path55" d="M107.91,29.148c-0.38-0.295-1.03,0.18-0.95,0.634,0.18-0.349,0.68-0.022,0.88-0.162,0.14-0.096,0.22-0.352,0.07-0.472z"/>
<path id="path57" d="M107.89,29.951c-0.45-0.165-0.93,0.489-0.7,0.893,0.06-0.387,0.63-0.229,0.78-0.423,0.1-0.134,0.1-0.403-0.08-0.47z"/>
<path id="path59" d="M108.46,30.551c-0.44-0.165-0.92,0.489-0.7,0.893,0.06-0.387,0.64-0.229,0.79-0.423,0.1-0.134,0.1-0.403-0.09-0.47z"/>
<path id="path61" d="M120.2,31.714c-0.45-0.166-0.93,0.489-0.7,0.893,0.06-0.387,0.64-0.23,0.78-0.424,0.11-0.134,0.1-0.402-0.08-0.469z"/>
<path id="path63" d="M120.81,32.258c-0.47-0.113-0.87,0.592-0.6,0.968,0.02-0.392,0.61-0.301,0.73-0.51,0.09-0.145,0.06-0.412-0.13-0.458z"/>
<path id="path65" d="M120.38,30.942c-0.41-0.238-1,0.325-0.84,0.761,0.12-0.37,0.66-0.117,0.84-0.283,0.12-0.115,0.17-0.38,0-0.478z"/>
<path id="path67" d="M128.73,31.883c-0.46-0.113-0.86,0.592-0.59,0.968,0.01-0.392,0.6-0.301,0.73-0.511,0.08-0.144,0.05-0.411-0.14-0.457z"/>
<path id="path69" d="M128.75,31.146c-0.43-0.225-0.99,0.358-0.82,0.789,0.11-0.375,0.66-0.14,0.83-0.312,0.12-0.12,0.16-0.386-0.01-0.477z"/>
<path id="path71" d="M129.07,32.542c-0.47-0.093-0.84,0.629-0.55,0.993,0-0.392,0.59-0.327,0.71-0.542,0.08-0.149,0.03-0.413-0.16-0.451z"/>
<path id="path73" d="M113.49,27.345c0.3,0,0.42,0.086,0.42,0.617,0,1.125-0.02,1.609-0.38,1.609s-0.34-0.46-0.34-1.286c0-0.431,0-0.646-0.08-0.61,0-0.281,0.12-0.33,0.38-0.33z"/>
</g>
</g>
<use id="use75" xlink:href="#leopard" transform="translate(11.6,13.7) scale(.9)"/>
<use id="use77" xlink:href="#leopard" transform="translate(39.2,27.5) scale(.67,.75)"/>
</g>
</svg>
