<?xml version="1.0" encoding="UTF-8" standalone="no"?>
<svg id="svg2" xmlns:rdf="http://www.w3.org/1999/02/22-rdf-syntax-ns#" xmlns="http://www.w3.org/2000/svg" height="600" width="900" version="1.1" xmlns:cc="http://creativecommons.org/ns#" xmlns:xlink="http://www.w3.org/1999/xlink" viewBox="-120 -80 240 160" xmlns:dc="http://purl.org/dc/elements/1.1/">
<metadata id="metadata38">
<rdf:RDF>
<cc:Work rdf:about="">
<dc:format>image/svg+xml</dc:format>
<dc:type rdf:resource="http://purl.org/dc/dcmitype/StillImage"/>
<dc:title/>
</cc:Work>
</rdf:RDF>
</metadata>
<defs id="defs4">
<path id="spearshape" transform="rotate(30)" stroke-miterlimit="10" d="M-1,55.426h2v-93.426c2-2,2-5,2-8,0-2,0-10-3-18.663-3,8.663-3,16.663-3,18.663,0,3,0,6,2,8z"/>
<!-- 32*sqrt(3), -112/sqrt(3)--></defs>
<rect id="rect7" height="160" width="240" y="-80" x="-120" fill="#fff"/>
<rect id="rect9" y="-80" x="-120" height="48" width="240"/>
<rect id="rect11" height="48" width="240" y="32" x="-120" fill="#060"/>
<g id="spear">
<use id="use14" stroke="#000" xlink:href="#spearshape"/>
<use id="use16" xlink:href="#spearshape" fill="#fff"/>
</g>
<use id="use18" xlink:href="#spear" transform="scale(-1,1)"/>
<path id="path20" d="M-120-24v48h101c3,8,13,24,19,24s16-16,19-24h101v-48h-101c-3-8-13-24-19-24s-16,16-19,24z" fill="#b00"/>
<path id="deco_r" d="M19,24c3-8,5-16,5-24s-2-16-5-24c-3,8-5,16-5,24s2,16,5,24"/>
<use id="use23" xlink:href="#deco_r" transform="scale(-1,1)"/>
<g id="g25" fill="#fff">
<ellipse id="ellipse27" rx="4" ry="6"/>
<path id="deco_br" d="M1,5.85s4,8,4,21-4,21-4,21z"/>
<use id="use30" xlink:href="#deco_br" transform="scale(-1)"/>
<use id="use32" xlink:href="#deco_br" transform="scale(-1,1)"/>
<use id="use34" xlink:href="#deco_br" transform="scale(1,-1)"/>
</g>
</svg>
