<?xml version="1.0" encoding="UTF-8" standalone="no"?>
<svg id="svg2" xmlns:rdf="http://www.w3.org/1999/02/22-rdf-syntax-ns#" xmlns="http://www.w3.org/2000/svg" height="450" width="750" version="1.1" xmlns:cc="http://creativecommons.org/ns#" xmlns:xlink="http://www.w3.org/1999/xlink" viewBox="0 0 250 150" xmlns:dc="http://purl.org/dc/elements/1.1/">
<metadata id="metadata47">
<rdf:RDF>
<cc:Work rdf:about="">
<dc:format>image/svg+xml</dc:format>
<dc:type rdf:resource="http://purl.org/dc/dcmitype/StillImage"/>
<dc:title/>
</cc:Work>
</rdf:RDF>
</metadata>
<clipPath id="c">
<circle id="circle5" r="25"/>
</clipPath>
<rect id="rect7" width="250" fill="#e8112d" height="150"/>
<g id="g9" transform="translate(125,75)">
<g id="r20" transform="scale(0.25)">
<g id="r4">
<path id="r1" fill="#ffef00" d="m-8.4,108c8.4,22-9.6,56,8.4,72-6-24,14-50,8.4-72s-25.2-22-16.8,0z"/>
<use id="use14" xlink:href="#r1" transform="rotate(90)"/>
<use id="use16" xlink:href="#r1" transform="rotate(180)"/>
<use id="use18" xlink:href="#r1" transform="rotate(270)"/>
</g>
<use id="use20" xlink:href="#r4" transform="rotate(18)"/>
<use id="use22" xlink:href="#r4" transform="rotate(36)"/>
<use id="use24" xlink:href="#r4" transform="rotate(54)"/>
<use id="use26" xlink:href="#r4" transform="rotate(72)"/>
</g>
<use id="use28" xlink:href="#r20" transform="rotate(9)"/>
<circle id="circle30" d="M 27,0 C 27,14.911688 14.911688,27 0,27 -14.911688,27 -27,14.911688 -27,0 c 0,-14.911688 12.088312,-27 27,-27 14.911688,0 27,12.088312 27,27 z" r="27" fill="#e8112d"/>
<circle id="circle32" d="M 22.5,-1.5 C 22.5,10.926407 12.426407,21 0,21 -12.426407,21 -22.5,10.926407 -22.5,-1.5 -22.5,-13.926407 -12.426407,-24 0,-24 c 12.426407,0 22.5,10.073593 22.5,22.5 z" cy="-1.5" r="22.5" fill="#ffef00"/>
<g id="x" clip-path="url(#c)" fill="#e8112d">
<path id="path35" d="M-20.125,18a34.825,34.825,0,1,1,69.65,0h0.961a33.986,33.986,0,1,0,-67.972,0z"/>
<path id="path37" d="M-15.773,18a33.473,33.473,0,1,1,66.946,0h1.102a32.775,32.775,0,1,0,-65.55,0z"/>
<path id="path39" d="M20.7-14.361a32.361,32.361,0,1,0,0,64.722l1.8-0.541a31.82,31.82,0,1,1,0,-63.64z"/>
</g>
<use id="use41" xlink:href="#x" transform="scale(-1,1)"/>
</g>
</svg>
