<?xml version="1.0" encoding="UTF-8" standalone="no"?>
<svg id="svg2" xmlns:rdf="http://www.w3.org/1999/02/22-rdf-syntax-ns#" xmlns="http://www.w3.org/2000/svg" height="600" width="900" version="1.1" xmlns:cc="http://creativecommons.org/ns#" xmlns:xlink="http://www.w3.org/1999/xlink" viewBox="-36 -24 72 48" xmlns:dc="http://purl.org/dc/elements/1.1/">
<metadata id="metadata30">
<rdf:RDF>
<cc:Work rdf:about="">
<dc:format>image/svg+xml</dc:format>
<dc:type rdf:resource="http://purl.org/dc/dcmitype/StillImage"/>
<dc:title>Flag of South Korea</dc:title>
</cc:Work>
</rdf:RDF>
</metadata>
<title id="title4">Flag of South Korea</title>
<rect id="rect6" height="48" width="72" y="-24" x="-36" fill="#fff"/>
<g id="g8" transform="rotate(-56.3099325)"><!--arctan(-3/2)-->
<g id="b2">
<path id="b" stroke="#000" stroke-width="2" d="M-6-25h12m-12,3h12m-12,3h12"/>
<use id="use12" y="44" xlink:href="#b"/>
</g>
<path id="path14" stroke="#fff" stroke-width="1" d="M0,17v10"/>
<circle id="circle16" d="M 12,0 C 12,6.627417 6.627417,12 0,12 -6.627417,12 -12,6.627417 -12,0 c 0,-6.627417 5.372583,-12 12,-12 6.627417,0 12,5.372583 12,12 z" r="12" fill="#c60c30"/>
<path id="path18" d="M0-12a6,6,0,0,0,0,12,6,6,0,0,1,0,12,12,12,0,0,1,0,-24z" fill="#003478"/>
</g>
<g id="g20" transform="rotate(-123.6900675)">
<use id="use22" xlink:href="#b2"/>
<path id="path24" stroke="#fff" stroke-width="1" d="M0-23.5v3m0,37.5v3.5m0,3v3"/>
</g>
</svg>
