<?xml version="1.0" encoding="UTF-8" standalone="no"?>
<!-- Created with Sodipodi ("http://www.sodipodi.com/") -->
<svg id="svg1" xmlns:rdf="http://www.w3.org/1999/02/22-rdf-syntax-ns#" xmlns="http://www.w3.org/2000/svg" viewBox="0 0 1000 500" version="1" y="0" x="0" xmlns:cc="http://creativecommons.org/ns#" xmlns:xlink="http://www.w3.org/1999/xlink" xmlns:dc="http://purl.org/dc/elements/1.1/">
<metadata id="metadata3868">
<rdf:RDF>
<cc:Work rdf:about="">
<dc:format>image/svg+xml</dc:format>
<dc:type rdf:resource="http://purl.org/dc/dcmitype/StillImage"/>
<dc:title/>
</cc:Work>
</rdf:RDF>
</metadata>
<defs id="defs3">
<style id="style2486" type="text/css">.str0 {stroke:#000000;stroke-width:3}
    .fil5 {fill:none}
    .fil8 {fill:#000000}
    .fil2 {fill:#FFFFFF}
    .fil9 {fill:#00493D}
    .fil7 {fill:#059334}
    .fil4 {fill:#073163}
    .fil3 {fill:#609AD1}
    .fil1 {fill:#D13F3E}
    .fil6 {fill:#F9D050}
    .fil0 {fill:#FCEA83}</style>
</defs>
<rect id="rect124" style="fill:#00247d;" transform="scale(8.333333,8.333333)" height="60" width="120" y="0" x="0"/>
<rect id="rect4050" style="fill-rule:evenodd;fill:#000066;" height="250" width="500" y="-0.0000076294" x="0"/>
<path id="path5371" style="stroke-linejoin:round;stroke:#ffffff;stroke-linecap:square;stroke-miterlimit:4;stroke-dasharray:none;stroke-width:8;fill:#ffffff;" d="M758.27,90.869c-3.13,0.923-6.61,4.789-7.78,6.739,0-1.997-1.19-5.17-1.99-6.368-0.8,3.195-3.61,5.984-1.61,10.38-3.52-1.18-6.65-1.6-9.4,1.38-3.26-4.3-7.02-7.6-11.36-9.368,4,5.872,8.72,13.528,12.6,23.688-7.36-10.53-13.04-13.19-16.61-16.11,1.71,3.24,4.6,9.02,7.72,15-6.25-5.42-13.46-9.72-21.3-10.99,5.36,3.07,13.03,9.86,19.21,17.93-7-4.12-14.39-7.44-21.6-7.95,6.29,3.29,14.83,9.94,21.57,16.61-6.82-4.49-14.22-8.13-21.16-9.03,3.86,2.32,12.21,8.65,18.83,14.01-0.21,0.13-0.4,0.24-0.61,0.37-0.2,0.13-0.43,0.27-0.64,0.41-0.1,0.07-0.17,0.13-0.27,0.2,0,0.01-0.02,0.03-0.03,0.03-0.01,0.01-0.06,0.03-0.07,0.04,0,0-0.03,0.03-0.03,0.03-0.02,0.02-0.06,0.06-0.07,0.07-0.23,0.17-0.48,0.35-0.71,0.54-0.32,0.27-0.65,0.54-0.97,0.84-0.1,0.09-0.18,0.18-0.27,0.27-0.01,0.01-0.03,0.03-0.04,0.03-0.03,0.03-0.1,0.08-0.13,0.1-0.01,0.01-0.03,0.03-0.03,0.04-0.01,0-0.03,0.03-0.04,0.03-0.03,0.04-0.07,0.1-0.1,0.14-0.01,0-0.03,0.02-0.03,0.03l-0.81,0.4c-1.55-0.77-4.59,0.35-5.86,1.15-2.34-0.26-4.34-1.43-5.73-3.17-2.8-3.59-10.39-5.18-13.58-1.99-1.2,0.8-2.78,0.82-3.98,1.22-1.99,0-4.4,1.97-3.6,5.96,1.6-1.2,2,0,3.2,0,0.06-0.03,0.12-0.05,0.17-0.07,0.01,0,0.05-0.02,0.07-0.03h0.03,0.07,0.03l0.03,0.03,0.04,0.04,0.03,0.03v0.03,0.04c0.02,0.16-0.03,0.44-0.07,0.74v0.03,0.37c0,2,4.37,6,8.36,5.6,1.51,0,2.75,0.19,3.74,0.47h0.03c0.08,0.02,0.16,0.04,0.24,0.07h0.03c1.71,0.53,2.67,1.35,3.17,1.85l0.37,0.37,0.03,0.03,0.04,0.04v0.03,0.03c0,0.01,0.03,0.03,0.03,0.04h0.04c0,0.02,0.03,0.06,0.03,0.07,0.01,0.01,0.03,0.05,0.03,0.06v0.04h0.04c0.07,0.18,0.11,0.4,0.17,0.64v0.03,0.03c0,0.01,0.02,0.03,0.03,0.04,0.02,0.15,0.03,0.34,0.1,0.57l0.03,0.03v0.04c0.02,0.05,0.02,0.09,0.04,0.13v0.04l0.03,0.03v0.03c0,0.01,0.03,0.04,0.03,0.04,0,0.01,0.01,0.03,0,0.03,0,0.01,0.01,0.03,0,0.04v0.03c0,0.01,0.01,0.03,0,0.03,0.04,0.1,0.09,0.19,0.14,0.31,0.53,0.53,0.93,0.92,1.01,1.31v0.07,0.03,0.07,0.07,0.03c-0.01,0.01-0.03,0.05-0.03,0.07v0.06c-0.01,0.02-0.03,0.06-0.04,0.07-0.16,0.37-0.56,0.82-1.31,1.42-2.8,2.39-4.79,7.97,0,12.36,1.91,1.47,4.91,3.21,8.66,4.25-0.41,0.15-0.74,0.36-0.98,0.57-0.04,0.04-0.1,0.09-0.13,0.13-0.08,0.09-0.15,0.21-0.21,0.31-0.1,0.21-0.16,0.47-0.16,0.74-3.06-0.04-5.6,1.34-8.39,3.2-3.2,2-4.01,7.59-0.81,10.78,1.87,1.72,3.55,2.71,5.22,3.2h-35.95v51.92,21.16,4.79,0.64,0.16c0,0.47-0.01,0.93,0,1.39v0.16c0,0.26-0.01,0.52,0,0.78,0,0.26,0.03,0.52,0.03,0.77,0.01,0.15,0,0.3,0,0.44,0.01,0.37,0.03,0.75,0.04,1.11v0.07,0.04c0.4,14.71,2.43,27.22,5.83,37.97-0.75-0.67-1.48-1.25-2.13-1.82,0.36,0.39,0.69,0.85,1.05,1.35-0.49-0.54-1.05-1.02-1.65-1.52-1.38-1.25-2.91-1.78-4.52-1.79-3.53-0.02-7.24,2.39-9.43,4.59-0.59,0.58-1.14,1.13-1.62,1.68v0.03c-0.01,0.01-0.03,0.04-0.03,0.04h-0.04v0.03c0,0.01-0.02,0.03-0.03,0.04-3.52,3.56-9.96,8.36-15.06,10.54-5.19,2.8-9.58,7.21-5.19,15.6,2.97,5.68,6.23,10.87,9.74,15.67-4.61,0.55-9.85-0.79-15.74-5.7-0.15-0.13-0.33-0.25-0.5-0.33-0.71-1.66-1.34-3.14-1.89-4.45-2-4.79-5.98-10.39-10.38-8.79-4.39,1.59-3.99,4.79-2.79,8.39,0.79,3.97,3.94,19.43,7.91,25.47,0.01,0,0.03,0.02,0.04,0.03l0.03,0.03c2.4,6.39,19.56,14.8,39.52,4.01,0.16-0.08,0.32-0.18,0.48-0.27,26.06,23.13,58.32,30.63,81.4,30.63,23.12,0,55.23-7.53,81.2-30.76,0.22,0.13,0.44,0.28,0.67,0.4,19.57,10.79,36.73,2.38,39.52-4.01,0.01,0,0.03-0.02,0.04-0.03v-0.03c3.57-6.04,6.75-21.49,7.95-25.47,0.8-3.6,1.59-6.8-2.8-8.39-4.39-1.6-8.38,4-10.38,8.79-0.54,1.31-1.17,2.79-1.88,4.45-0.17,0.08-0.35,0.2-0.51,0.33-6,5-11.37,6.3-16.1,5.66,3.48-4.78,6.73-9.97,9.7-15.63,4.39-8.39,0-12.8-5.19-15.6-5.22-2.24-11.5-7.23-15.23-10.81v-0.04l-0.03-0.03c-0.01,0-0.03-0.03-0.04-0.04h-0.03c-0.01,0-0.03-0.03-0.03-0.03-0.43-0.46-0.88-0.94-1.38-1.41-2.71-3.1-8.85-6.6-13.58-3.17,0.02-0.03,0.01-0.07,0.03-0.1-1.09,0.85-2.06,1.7-3.1,2.73,0.67-2.17,1.3-4.38,1.85-6.67h-0.06c1.4-5.66,2.45-11.76,3.13-18.37h0.14c0.67-5.05,0.75-10.1,0.77-15.63v-0.61-0.17c0.01-0.77,0.03-1.56,0.03-2.35v-4.79-73.08h-107.34c0.6-0.11,1.24-0.25,1.89-0.4,3.4-0.93,6.8-2.84,9.46-3.64h0.07c2.93,0.36,6.1-0.61,12.03-1.95-0.4-0.2-0.74-0.49-1.08-0.78,0.21,0.14,0.44,0.26,0.67,0.37,3.6,2,13.61,0.79,15.6-0.4,3.07,2.3,13.15,2.39,15,0.97,0.05-0.04,0.1-0.09,0.13-0.13,0.36,0.45,0.79,0.85,1.25,1.18,2.79,2.78,10.72,2.78,13.14,1.99,0.27,0.32,0.68,0.75,1.21,1.18,2.8,1.99,9.99,2.4,11.59-1.99,1.15-2.3,1.65-5.28-0.13-7.99,0.85-0.4,1.34-1.4,0.94-3.2-1.51-10.57-7.65-12.57-8.99-17.15,0.19-0.25,0.39-0.51,0.57-0.74,3.58,0.32,6.12,0.21,7.61-1.28,1.2-1.6,2.82-4.39,4.42-5.19,0.45-0.3,0.71-0.6,0.8-0.84,0.01-0.02,0.03-0.07,0.04-0.1v-0.04-0.06l-0.04-0.04v-0.03c0-0.01-0.02-0.03-0.03-0.03v-0.04h-0.03c-0.02-0.01-0.06-0.03-0.07-0.03-0.01-0.01-0.03-0.03-0.03-0.04-0.01,0-0.03,0.01-0.04,0l-0.03-0.03h-0.07-0.13c-0.2,0-0.47,0.02-0.78,0.1-1.54,0.31-2.62,0.83-4.68,0.88,0.03-0.04,0.08-0.11,0.1-0.14s0.08-0.09,0.1-0.13,0.05-0.11,0.07-0.14c0-0.01,0.03-0.05,0.03-0.06v-0.04c0.01-0.01,0.03-0.05,0.04-0.06v-0.04c0-0.01,0.02-0.05,0.03-0.07v-0.03-0.1-0.03c-0.01-0.02-0.03-0.06-0.03-0.07v-0.07c-0.01-0.01-0.03-0.05-0.04-0.07-0.01-0.01-0.03-0.05-0.03-0.06-0.01-0.01-0.03-0.05-0.04-0.07,0-0.01-0.02-0.06-0.03-0.07l-0.07-0.07c-0.01,0-0.02-0.02-0.03-0.03l-0.1-0.1c-0.03-0.03-0.1-0.08-0.14-0.1-0.35-0.23-0.89-0.43-1.58-0.54-2-0.4-3.18-2-3.98-2.8l-0.7-0.7c-0.47-0.47-0.96-0.91-1.42-1.35l-0.17-0.17c-0.4-0.38-0.81-0.75-1.21-1.11-0.01-0.01-0.03-0.03-0.03-0.04-0.03-0.02-0.08-0.07-0.1-0.1-0.01,0-0.03-0.02-0.04-0.03-0.23-0.21-0.48-0.41-0.71-0.61l-0.03-0.03c-0.02-0.02-0.08-0.05-0.1-0.07l-0.03-0.03c-0.23-0.2-0.45-0.38-0.68-0.58l-0.03-0.03-0.1-0.1c-0.01-0.01-0.03-0.03-0.04-0.03-0.17-0.15-0.33-0.27-0.5-0.41-0.12-0.09-0.26-0.18-0.37-0.27-0.17-0.13-0.33-0.27-0.51-0.4-0.06-0.05-0.11-0.09-0.17-0.14-0.17-0.13-0.36-0.27-0.54-0.4-0.11-0.09-0.22-0.15-0.33-0.24-0.12-0.08-0.22-0.15-0.34-0.23-0.06-0.04-0.14-0.1-0.2-0.14-0.18-0.12-0.33-0.22-0.51-0.33-0.06-0.04-0.11-0.1-0.17-0.14-0.29-0.19-0.61-0.36-0.9-0.54-0.12-0.07-0.22-0.13-0.34-0.2-0.06-0.03-0.14-0.07-0.2-0.1-0.06-0.04-0.11-0.07-0.17-0.1-0.12-0.07-0.25-0.14-0.37-0.2-0.12-0.07-0.25-0.14-0.37-0.21-0.06-0.03-0.11-0.07-0.17-0.1-0.49-0.25-0.98-0.46-1.48-0.67-0.26-0.11-0.52-0.21-0.78-0.31-0.06-0.02-0.14-0.07-0.2-0.1-0.07-0.02-0.14-0.04-0.2-0.06-0.13-0.05-0.24-0.09-0.37-0.14-0.13-0.04-0.28-0.09-0.41-0.13h-0.03c-0.03-0.01-0.11-0.03-0.14-0.04h-0.03c-0.2-0.06-0.37-0.14-0.57-0.2h-0.04c-0.02-0.01-0.08-0.03-0.1-0.03h-0.07c-0.24-0.07-0.48-0.14-0.74-0.2,9.26-6.03,21.44-11.53,26.28-13.35-6.53-1.25-14.65,0.81-21.56,3.51,6.97-7.1,15.21-15.36,20.35-20.29-11.33,3.78-22.04,12.3-29.14,19.18,6.06-8.71,16.63-21.43,24.36-29.149-14.41,5.699-23.47,15.589-28.85,22.639,2.99-8.66,9.59-20.94,14.09-25.436-6.71,3.095-11.61,7.336-15.3,12.336,1.79-5.92,3.79-11.939,5.7-15.941-2.77,2.632-5.3,5.178-7.65,7.881h-0.04c-1.83,0.29-3.87,0.68-5.32,1.59,2.5-3.243,2.33-7.847,5.96-8.662-2.34-0.234-5.72,1.216-8.39,3.807,0.99-2.139,1.11-4.886,2.26-5.963,0.08-0.068,0.15-0.15,0.24-0.203h-0.04zm63.75,222.34c0.02-0.03,0.05-0.04,0.07-0.07-0.03,0.02-0.04,0.05-0.07,0.07zm-83.66-210.11c3.16-0.08,5.91,1.14,7.35,3.3-2.4-0.3-3.88,0.51-4.82,1.79-1.04-1.78-2.14-3.47-3.3-5.02,0.1-0.01,0.2-0.03,0.3-0.04,0.16-0.01,0.32-0.03,0.47-0.03zm21.13,2.32h0.03c-0.01,0.02-0.02,0.02-0.03,0.04-0.01,0.01,0,0.02,0,0.03-0.02,0.03-0.05,0.08-0.07,0.1h-0.03-0.04c0.04-0.03,0.07-0.09,0.1-0.13,0.01-0.01,0.03,0,0.04,0,0,0-0.01-0.03,0-0.04zm-13.68,2.87c0.39-0.02,0.74,0.03,1.01,0.1-1.12,1.12-2.88,2.96-3.44,4.48-0.61-1.26-1.22-2.49-1.88-3.67,1.51-0.42,2.95-0.78,4.04-0.88,0.09-0.01,0.18-0.03,0.27-0.03zm-1.42,4.18c-0.23,0.35-0.45,0.73-0.64,1.14-0.09-0.19-0.18-0.38-0.27-0.57,0.3-0.23,0.61-0.41,0.91-0.57zm23.45,24.29l-0.03,1.55h-0.03c-0.17,0.01-0.34,0.02-0.51,0.03l-0.03-0.03c0.24-0.46,0.45-0.98,0.6-1.55zm11.9,32.95c1.55,3.22,2.25,5.35,2.62,7.11-1.29-1.89-3.41-2.21-7.51-2.53-4.66-0.36-6.75-0.39-8.29,0.47-0.49-0.63-1.08-1.15-1.78-1.55,5.68-0.53,10.8-1.82,14.96-3.5zm-40.87,1.28c1.33,0.43,2.74,0.83,4.24,1.15-0.82,0.02-1.71,0.09-2.63,0.16-2.02,0.16-3.56,0.37-4.78,0.64,1.05-0.56,2.1-1.22,3.17-1.95zm9.23,1.95c0.43,0.05,0.87,0.06,1.31,0.11-0.2,0.13-0.38,0.28-0.54,0.43-0.23-0.21-0.49-0.38-0.77-0.54zm-64.99,148.96c0.01,0.05,0.05,0.09,0.06,0.14v0.03c1.52,8.63-5.05,18.71-11.96,25.37-0.86-1.15-1.72-2.34-2.56-3.54,1.64-4.7,6.76-6.22,7.55-2.26,4.4-5.49,8.05-13.07,6.91-19.74zm142.65,17.45c0.04,0,0.07,0.01,0.1,0h0.1,0.14c1.94-0.04,4.41,1.66,5.42,4.55-0.89,1.27-1.81,2.5-2.73,3.71h-0.03c-1.78-1.78-3.57-3.78-5.19-5.97,0.28-1.38,1.13-2.14,2.19-2.29zm-128.77,6.3c3.21,3.89,6.67,7.45,10.44,10.72v0.03c11.6,10.04,25.42,17.51,41.14,24.13h0.03c0.31,0.13,0.6,0.27,0.91,0.4,0.01,0.01,0.03,0.03,0.04,0.03h0.03c0.17,0.07,0.34,0.14,0.51,0.21,0.19-0.09,0.38-0.16,0.57-0.24,0.31-0.13,0.6-0.27,0.91-0.4,0.34-0.15,0.67-0.3,1.01-0.44,0.15-0.07,0.32-0.14,0.47-0.2,0.01-0.01,0.03-0.03,0.04-0.04,0.24-0.1,0.46-0.19,0.7-0.3,0.59-0.26,1.17-0.52,1.76-0.78,0.01,0,0.04-0.02,0.06-0.03h0.04c0.29-0.13,0.58-0.27,0.87-0.4,0.08-0.04,0.16-0.07,0.24-0.11,13.39-6.05,25.69-12.92,35.98-21.83-0.03-0.01-0.07-0.05-0.1-0.07,3.71-3.23,7.12-6.77,10.28-10.61,3.53,7.16,7.15,13.03,11.12,17.96-17.17,15.08-38.18,22.67-63.95,22.67-25.79,0-46.81-7.6-63.99-22.7,3.93-4.94,7.48-10.82,10.89-18z"/>
<rect id="rect1320" style="fill:none;" height="500" width="1000" y="-186.09" x="244.36"/>
<g id="g1690" transform="translate(1.290634e-15,-6.43008e-5)">
<rect id="rect3207" style="fill-rule:evenodd;fill:#00247d;" height="250" width="500" y="-1.1369E-13" x="0"/>
<g id="g878" style="font-size:12px;" transform="matrix(8.333338,0,0,8.333343,0,-2.256992e-4)">
<path id="path879" style="fill:#ffffff;" d="M0,0v3.3541l53.292,26.646h6.708v-3.354l-53.292-26.646h-6.7082zm60,0v3.354l-53.292,26.646h-6.7082v-3.354l53.292-26.646h6.708z"/>
<path id="path880" style="fill:#ffffff;" d="M25,0v30h10v-30h-10zm-25,10v10h60v-10h-60z"/>
<path id="path881" style="fill:#cf142b;" d="M0,12v6h60v-6h-60zm27-12v30h6v-30h-6z"/>
<path id="path882" style="fill:#cf142b;" d="M0,30l20-10h4.472l-20,10h-4.4721zm0-30l20,10h-4.472l-15.528-7.7639v-2.2361zm35.528,10l20-10h4.472l-20,10h-4.472zm24.472,20l-20-10h4.472l15.528,7.764v2.236z"/>
</g>
</g>
<g id="g5176" transform="matrix(1.078167,0,0,1.078167,-530.104,130.7436)">
<path id="21170896" style="stroke:#000000;stroke-width:1.11122704;fill:#fcea83;" d="M1074.8,226.21c2.2,5.93,18.1,13.71,36.6,3.7,12.6-7.03,20.8-17.03,28.6-34.81,2.2-4.45,3.3-10.01-1.9-13.34-4.1-2.96-10.7-6.3-13.7-9.26-1.5-1.48-3-2.59-4.1-3.7,0.8,0.74,1.5,1.48,2.3,2.59,7.4,8.89-0.4,21.85-8.6,29.63-5.9,5.56-16.6,19.26-32.2,6.3-3.3-2.96-11.1,9.26-7,18.89z" class="fil0 str0"/>
<path id="21170720" style="stroke:#000000;stroke-width:1.11122704;fill:#fcea83;" d="M1300,226.21c-2.6,5.93-18.5,13.71-36.7,3.7-12.6-7.03-20.7-17.03-28.9-34.81-1.8-4.45-2.9-10.01,2.2-13.34,4.1-2.96,10.8-6.3,13.7-9.26,1.5-1.48,2.6-2.59,4.1-3.7-0.7,0.74-1.5,1.48-2.2,2.59-7.4,8.89,0.4,21.85,8.1,29.63,6,5.56,17.1,19.26,32.6,6.3,3.4-2.96,10.8,9.26,7.1,18.89z" class="fil0 str0"/>
<path id="21170632" style="stroke:#000000;stroke-width:1.11122704;fill:#fcea83;" d="M1187.4,258.07c29.6,0,75.2-13.34,99.6-60.01,4.1-7.78,0-11.85-4.8-14.45-5.2-2.22-11.5-7.4-14.8-10.74,5.9,5.93,4.8,10,0.7,16.67-18.9,31.48-44.8,47.41-80.7,47.41-36,0-61.9-15.93-80.8-47.41-4-6.67-5.2-10.74,0.4-16.67-3,3.34-9.6,8.52-14.8,10.74-4.8,2.6-8.9,6.67-4.8,14.45,24.4,46.67,70.3,60.01,100,60.01z" class="fil0 str0"/>
<g id="g2494" transform="matrix(0.370409,0,0,0.370409,845.1194,-37.89129)">
<path id="21170456" style="stroke-width:3;stroke:#000000;fill:#db161c;" d="M739,630c-2-10-15-6-19,6-5-7-10-14-14-22-12-18-14-30,3-47,8-8,24-17,35-7,23,19,11,50-5,70z" class="fil1 str0"/>
<path id="21170368" style="stroke-width:3;stroke:#000000;fill:#db161c;" d="M1108,630c2-10,16-6,20,6,5-7,10-14,14-22,12-18,14-30-4-47-7-8-23-17-35-7-22,19-11,50,5,70z" class="fil1 str0"/>
<path id="21170280" style="stroke-width:3;stroke:#000000;fill:#db161c;" d="M620,713c-10-15-18-54-20-64-3-9-4-17,7-21s21,10,26,22,13,30,22,52c-22-13-40-4-35,11z" class="fil1 str0"/>
<path id="21170192" style="stroke-width:3;stroke:#000000;fill:#db161c;" d="M1228,713c9-15,17-54,20-64,2-9,4-17-7-21s-21,10-26,22-13,30-22,52c22-13,39-4,35,11z" class="fil1 str0"/>
</g>
<path id="21170104" style="fill:#ffffff;" d="M1256.6,58.785v72.235c0,62.59-29.6,84.08-69.2,101.12-39.7-17.04-69.7-38.53-69.7-101.12v-72.235h138.9z" class="fil2 str0"/>
<path id="21170016" style="fill:#cf142b;" d="M1187.4,119.9c3.3,0,8.5-2.96,12.9-7.41,4.9-5.18,13-7.03,21.5,0,8.5,7.04,13.7,4.08,18.2,0,4.4-4.07,8.1-5.55,16.6-5.55v-48.155h-138.9v48.155c8.6,0,12.3,1.48,16.7,5.55,4.5,4.08,9.6,7.04,18.2,0,8.8-7.03,16.6-5.18,21.8,0,4.1,4.45,9.3,7.41,13,7.41z" class="fil1 str0"/>
<g id="g2502" transform="matrix(0.370409,0,0,0.370409,845.1194,-37.89129)">
<path id="21169840" style="fill:#0b50a0;" d="M924,526c12,0,36-13,42-16,22-13,38-1,51,5,14,6,40,13,56,0s25-12,36-12c2-15,2-30,2-47v-12c-14-3-21,1-36,14s-32,10-54,2c-21-9-42-25-63,0-6,7-20,17-34,17-15,0-28-10-34-17-22-25-42-9-63,0-22,8-40,11-55-2-14-13-21-17-36-14v12c0,17,1,32,3,47,11,0,19-1,35,12s43,6,56,0c14-6,30-18,52-5,6,3,29,16,42,16z" class="fil3 str0"/>
<path id="21169752" style="fill:#0b50a0;" d="M924,569c15,0,33-6,49-15,20-11,34-6,54,4,21,10,38,7,50,0,6-4,11-12,24-9-6,25-15,47-26,65-20,5-31,5-52-4-21-10-47-16-61-7-13,8-27,12-38,12s-25-4-38-12c-14-9-40-3-61,7-21,9-32,9-52,4-11-18-20-40-26-65,13-3,18,5,24,9,11,7,29,10,49,0,21-10,35-15,55-4,16,9,34,15,49,15z" class="fil3 str0"/>
<path id="21169664" style="fill:#0b50a0;" d="M924,729c40-17,77-36,107-62-8-3-13-1-20-6s-28-7-46,3c-19,9-27,11-41,11s-22-2-41-11c-18-10-39-8-46-3s-12,3-20,6c30,26,66,45,107,62z" class="fil3 str0"/>
</g>
<g id="g2507" transform="matrix(0.370409,0,0,0.370409,845.1194,-37.89129)">
<g id="g2509">
<path id="21169400" style="stroke:#000000;stroke-width:3;fill:#ffffff;" d="M847,260c-13,3-22,4-34-7-8-8-6-22,2-27,9-6,17-10,28-7s40,30,33,31c-7,0-18,7-29,10z" class="fil2 str0"/>
<path id="21169312" style="stroke:#000000;stroke-width:3;fill:#ffffff;" d="M878,212c4-3,9-5,22-6,12-1,21-1,24,8,4,11,7,24,15,30-5,3-30,6-39,1-12-6-15-29-22-33z" class="fil2 str0"/>
<path id="21169224" style="stroke:#000000;stroke-width:3;fill:#ffffff;" d="M964,213c4-3,9-3,22-2s18,2,21,11c3,10,0,23,6,32-6,2-26,2-33-5-11-8-10-31-16-36z" class="fil2 str0"/>
</g>
<g id="g2514">
<path id="21169048" style="stroke:#000000;stroke-width:3;fill:#073163;" d="M1024,219c-9-2-15-3-19,0,5,6,1,30,11,38,7,5,25,6,29-5,5-10,5-25-21-33z" class="fil4 str0"/>
<path id="21168960" style="stroke:#000000;stroke-width:3;fill:#073163;" d="M921,209c3-3,9-4,21-4,13,0,21,2,25,10,4,10,3,23,10,31-3,4-30,4-38-2-11-7-12-30-18-35z" class="fil4 str0"/>
<path id="21168872" style="stroke:#000000;stroke-width:3;fill:#073163;" d="M836,218c0-5,7-6,25-7,18-2,19-1,25,12,3,7,7,19,15,23-22,5-29,8-41,1-9-5-19-17-21-22-1-3-1-6-3-7z" class="fil4 str0"/>
</g>
</g>
<g id="g2519" style="stroke-dasharray:none;stroke:#000000;stroke-width:1.34985924;stroke-miterlimit:4;" transform="matrix(0.370409,0,0,0.370409,845.1194,-37.89129)">
<g id="g2521" style="stroke-dasharray:none;stroke:#000000;stroke-width:1.34985924;stroke-miterlimit:4;">
<path id="21168608" style="stroke:#000000;stroke-dasharray:none;stroke-miterlimit:4;stroke-width:1.34985924;fill:#f9d050;" d="M884,116c-21-16-46-31-69-34,15,9,57,42,68,53" class="fil5 str0"/>
<path id="21168520" style="stroke:#000000;stroke-dasharray:none;stroke-miterlimit:4;stroke-width:1.34985924;fill:#f9d050;" d="M896,101c-25-17-54-36-82-38,21,11,52,37,69,58" class="fil5 str0"/>
<path id="21168432" style="stroke:#000000;stroke-dasharray:none;stroke-miterlimit:4;stroke-width:1.34985924;fill:#f9d050;" d="M928,73c14-31,29-48,49-67-10,21-21,64-26,81" class="fil5 str0"/>
<path id="21168344" style="stroke:#000000;stroke-dasharray:none;stroke-miterlimit:4;stroke-width:1.34985924;fill:#f9d050;" d="M950,68c10-22,25-41,51-53-13,13-33,52-38,73" class="fil5 str0"/>
<path id="21168256" style="stroke:#000000;stroke-dasharray:none;stroke-miterlimit:4;stroke-width:1.34985924;fill:#f9d050;" d="M959,88c12-17,36-49,79-66-25,25-62,71-71,89" class="fil5 str0"/>
<path id="21168168" style="stroke:#000000;stroke-dasharray:none;stroke-miterlimit:4;stroke-width:1.34985924;fill:#f9d050;" d="M973,110c18-10,54-26,80-21-16,6-64,28-85,48" class="fil5 str0"/>
<path id="21168080" style="stroke:#000000;stroke-dasharray:none;stroke-miterlimit:4;stroke-width:1.34985924;fill:#f9d050;" d="M969,103c17-18,48-45,81-56-24,23-75,75-82,83" class="fil5 str0"/>
<path id="21167992" style="stroke:#000000;stroke-dasharray:none;stroke-miterlimit:4;stroke-width:1.34985924;fill:#f9d050;" d="M921,92c-12-37-30-72-57-83,15,22,34,54,44,102" class="fil5 str0"/>
<path id="21167904" style="stroke:#000000;stroke-dasharray:none;stroke-miterlimit:4;stroke-width:1.34985924;fill:#f9d050;" d="M898,91c-20-24-47-48-78-53,21,12,56,47,69,81" class="fil5 str0"/>
<path id="21167816" style="stroke:#000000;stroke-dasharray:none;stroke-miterlimit:4;stroke-width:1.34985924;fill:#f9d050;" d="M909,90c-25-45-44-53-55-62,9,17,31,62,44,81" class="fil5 str0"/>
</g>
<g id="g2533" style="stroke-dasharray:none;stroke:#000000;stroke-width:1.34985924;stroke-miterlimit:4;">
<path id="21167640" style="stroke:#000000;stroke-dasharray:none;stroke-miterlimit:4;stroke-width:1.34985924;fill:none;" d="M859,87c12,7,30,24,36,35" class="fil5 str0"/>
<path id="21167552" style="stroke:#000000;stroke-dasharray:none;stroke-miterlimit:4;stroke-width:1.34985924;fill:none;" d="M859,108c6,5,17,11,27,20" class="fil5 str0"/>
<path id="21167464" style="stroke:#000000;stroke-dasharray:none;stroke-miterlimit:4;stroke-width:1.34985924;fill:none;" d="M978,123c10-8,32-21,43-25" class="fil5 str0"/>
<path id="21167376" style="stroke:#000000;stroke-dasharray:none;stroke-miterlimit:4;stroke-width:1.34985924;fill:none;" d="M971,116c10-13,30-31,37-37" class="fil5 str0"/>
<path id="21167288" style="stroke:#000000;stroke-dasharray:none;stroke-miterlimit:4;stroke-width:1.34985924;fill:none;" d="M999,54c-9,10-30,35-38,47" class="fil5 str0"/>
<path id="21167200" style="stroke:#000000;stroke-dasharray:none;stroke-miterlimit:4;stroke-width:1.34985924;fill:none;" d="M973,45c-7,9-21,35-25,44" class="fil5 str0"/>
<path id="21167112" style="stroke:#000000;stroke-dasharray:none;stroke-miterlimit:4;stroke-width:1.34985924;fill:none;" d="M894,47c6,16,17,43,21,54" class="fil5 str0"/>
<path id="21167024" style="stroke:#000000;stroke-dasharray:none;stroke-miterlimit:4;stroke-width:1.34985924;fill:none;" d="M885,64c4,6,12,20,15,30" class="fil5 str0"/>
</g>
</g>
<g id="g2543" style="stroke-dasharray:none;stroke:#000000;stroke-width:1.34985924;stroke-miterlimit:4;" transform="matrix(0.370409,0,0,0.370409,845.1194,-37.89129)">
<g id="g2545" style="stroke-dasharray:none;stroke:#000000;stroke-width:1.34985924;stroke-miterlimit:4;">
<path id="21166760" style="stroke:#000000;stroke-dasharray:none;stroke-miterlimit:4;stroke-width:1.34985924;fill:#f9d050;" d="M919,59c0-9,6-19,12-19,7,0,12,12,12,19,0,8-6,15-12,15s-12-6-12-15z" class="fil6 str0"/>
<path id="21166672" style="stroke:#000000;stroke-dasharray:none;stroke-miterlimit:4;stroke-width:1.34985924;fill:#f9d050;" d="M906,67c1-10,8-18,14-17s9,13,8,20c-1,8-8,14-13,13-5,0-10-7-9-16z" class="fil6 str0"/>
<path id="21166584" style="stroke:#000000;stroke-dasharray:none;stroke-miterlimit:4;stroke-width:1.34985924;fill:#f9d050;" d="M933,70c-2-9,2-19,8-20s12,9,13,17c2,8-3,16-8,16-5,1-12-4-13-13z" class="fil6 str0"/>
<path id="21166496" style="stroke:#000000;stroke-dasharray:none;stroke-miterlimit:4;stroke-width:1.34985924;fill:#f9d050;" d="M918,78c0-10,6-19,12-19,7,0,12,11,12,19s-6,15-12,15-12-6-12-15z" class="fil6 str0"/>
<path id="21166408" style="stroke:#000000;stroke-dasharray:none;stroke-miterlimit:4;stroke-width:1.34985924;fill:#f9d050;" d="M900,83c0-9,7-19,13-19s12,12,12,19c0,8-7,15-12,15-6,0-13-6-13-15z" class="fil6 str0"/>
<path id="21166320" style="stroke:#000000;stroke-dasharray:none;stroke-miterlimit:4;stroke-width:1.34985924;fill:#f9d050;" d="M937,79c0-9,6-19,12-19,7,0,12,12,12,19,0,8-6,15-12,15s-12-6-12-15z" class="fil6 str0"/>
<path id="21166232" style="stroke:#000000;stroke-dasharray:none;stroke-miterlimit:4;stroke-width:1.34985924;fill:#f9d050;" d="M933,87c0-10,7-19,13-19s12,11,12,19-6,15-12,15-13-6-13-15z" class="fil6 str0"/>
<path id="21166144" style="stroke:#000000;stroke-dasharray:none;stroke-miterlimit:4;stroke-width:1.34985924;fill:#f9d050;" d="M917,96c0-10,6-19,12-19,7,0,12,12,12,19,0,8-6,15-12,15s-12-6-12-15z" class="fil6 str0"/>
<path id="21166056" style="stroke:#000000;stroke-dasharray:none;stroke-miterlimit:4;stroke-width:1.34985924;fill:#f9d050;" d="M892,96c0-10,5-19,10-19s9,12,9,19c0,8-5,15-9,15-5,0-10-6-10-15z" class="fil6 str0"/>
<path id="21165968" style="stroke:#000000;stroke-dasharray:none;stroke-miterlimit:4;stroke-width:1.34985924;fill:#f9d050;" d="M948,94c0-9,5-18,10-18s10,11,10,18c0,9-6,15-10,15-5,0-10-6-10-15z" class="fil6 str0"/>
<path id="21165880" style="stroke:#000000;stroke-dasharray:none;stroke-miterlimit:4;stroke-width:1.34985924;fill:#f9d050;" d="M954,111c2-10,8-18,12-17s5,13,3,20c-1,9-7,14-11,13s-6-8-4-16z" class="fil6 str0"/>
<path id="21165792" style="stroke:#000000;stroke-dasharray:none;stroke-miterlimit:4;stroke-width:1.34985924;fill:#f9d050;" d="M935,108c1-9,7-18,12-17,6,0,9,12,8,19-1,9-6,15-11,14-5,0-10-7-9-16z" class="fil6 str0"/>
<path id="21165704" style="stroke:#000000;stroke-dasharray:none;stroke-miterlimit:4;stroke-width:1.34985924;fill:#f9d050;" d="M907,111c-3-10-9-17-13-16s-5,13-3,20c2,8,8,13,12,12,3-1,6-8,4-16z" class="fil6 str0"/>
<path id="21165616" style="stroke:#000000;stroke-dasharray:none;stroke-miterlimit:4;stroke-width:1.34985924;fill:#f9d050;" d="M900,109c0-9,5-18,10-18,6,0,10,11,10,18,0,9-5,15-10,15-4,0-10-6-10-15z" class="fil6 str0"/>
<path id="21165528" style="stroke:#000000;stroke-dasharray:none;stroke-miterlimit:4;stroke-width:1.34985924;fill:#f9d050;" d="M915,113c0-10,6-19,12-19,7,0,12,11,12,19s-6,15-12,15-12-6-12-15z" class="fil6 str0"/>
</g>
<path id="21165440" style="stroke:#000000;stroke-dasharray:none;stroke-miterlimit:4;stroke-width:1.34985924;fill:#f9d050;" d="M920,3c-2,8-9,15-4,26-9-3-17-4-24,4,9-1,17,2,21,8-8-1-12,3-14,8,7-2,14-4,17-3-3,3-8,8-9,12,6-5,13-4,17-7-3,7,3,14,8,21-1-10,5-17,2-22,9,2,10,10,23,10-5-3-8-13-14-13,3-1,15-2,17,0-2-4-9-8-13-8,4-4,11-12,16-14-7,1-18,2-22,8,10-8,8-23,19-25-6-1-15,3-22,10,3-6,3-14,7-16-8,2-17,12-20,17,0-5-3-13-5-16z" class="fil6 str0"/>
<path id="21165352" style="stroke:#000000;stroke-dasharray:none;stroke-miterlimit:4;stroke-width:1.34985924;fill:none;" d="M925,19c0,3,0,9-1,11" class="fil5 str0"/>
<path id="21165264" style="stroke:#000000;stroke-dasharray:none;stroke-miterlimit:4;stroke-width:1.34985924;fill:none;" d="M938,18c-2,2-6,9-6,15" class="fil5 str0"/>
<path id="21165176" style="stroke:#000000;stroke-dasharray:none;stroke-miterlimit:4;stroke-width:1.34985924;fill:none;" d="M944,30c-3,2-6,5-7,9" class="fil5 str0"/>
</g>
<g id="g2566" transform="matrix(0.370409,0,0,0.370409,845.1194,-37.89129)">
<path id="21165000" style="stroke:#000000;stroke-width:3;fill:#059334;" d="M838,129c-7,0-13-3-17-8-7-9-26-13-34-5-3,2-7,2-10,3-5,0-11,5-9,15,4-3,5,0,8,0,2-1,1,1,1,3,0,5,11,15,21,14,11,0,16,4,18,6,3,3,1,2,3,7,3,3,4,4-1,8-7,6-12,20,0,31,13,10,46,25,83-4,36-28,92-12,96-2,5,10,7,16,8,21,1,4,6,8,13,7,7,0,15,3,19,6,5,3,12,2,10-7-4-28-21-32-23-45,10,1,17,1,21-3,3-4,7-11,11-13,3-2,3-4-1-3-5,1-8,3-17,2-46-5-175-40-200-33z" class="fil7 str0"/>
<path id="21164912" style="stroke:#000000;stroke-width:3;fill:#000000;" d="M1042,163c-5,3-10,8-19,20-10,13-40,26-77,26-36,0-58-6-74-19-9-7-16-11-22-14-11-5-13-16-10-25-3,5-5,10-11,9-4,0-12,0-10,4-1-2-1-5-2-6l-2-2c3,2,10-4,15-4,4,1,9-4,8-10-1-5-2-9-3-13,8-4,113,15,134,17,21,1,81,10,73,17z" class="fil8 str0"/>
<path id="21353288" style="stroke:#000000;stroke-width:3;fill:#059334;" d="M852,125c10-10,22-15,34-12h3c6-5,20-6,28-2h4c12-4,35,0,43,8l3,2c27-2,43,10,62,29,2,2,5,6,10,7,6,1,7,4,2,7-6,3-11,8-21,19-9,12-38,24-74,24-35,0-56-6-72-18-9-7-16-11-21-14-6-2-14-10-11-18,2-8-3-18-7-28,3-2,11-5,15-3l2-1z" class="fil7 str0"/>
<g id="g2571">
<path id="21353112" style="stroke:#000000;stroke-width:3;fill:#00493d;" d="M1029,150c-19-19-35-31-62-29,0,1,0,4-1,6,16,6,39,24,49,37,4-4,11-9,14-14z" class="fil9 str0"/>
<path id="21353024" style="stroke:#000000;stroke-width:3;fill:#00493d;" d="M964,119c-8-8-31-12-43-8,0,4,0,10-2,14,7,3,13,10,19,17,4-1,14-4,19-5,2-4,6-13,7-18z" class="fil9 str0"/>
<path id="21352936" style="stroke:#000000;stroke-width:3;fill:#00493d;" d="M917,111c-8-4-22-3-28,2-2,4-3,12-3,16,4,0,10,3,12,5,6-2,14-6,17-9,1-4,3-10,2-14z" class="fil9 str0"/>
<path id="21352848" style="stroke:#000000;stroke-width:3;fill:#00493d;" d="M852,125c10-10,22-15,34-12-2,3-3,9-3,15-11-1-25,2-31,6v-9z" class="fil9 str0"/>
<path id="21352760" style="stroke:#000000;stroke-width:3;fill:#00493d;" d="M1011,166c-9-13-31-28-46-35,0,1-2,5-3,8,6,9,18,29,23,40,5-2,19-8,26-13z" class="fil9 str0"/>
<path id="21352672" style="stroke:#000000;stroke-width:3;fill:#00493d;" d="M935,188c2-14,3-34,3-41,5-1,15-4,19-5,5,8,17,29,22,39-12,3-32,8-44,7z" class="fil9 str0"/>
<path id="21352584" style="stroke:#000000;stroke-width:3;fill:#00493d;" d="M900,140c5-2,12-6,17-10,4,3,12,10,15,14,0,9-3,35-4,44-8,0-21-2-28-6,1-15,2-32,0-42z" class="fil9 str0"/>
<path id="21352496" style="stroke:#000000;stroke-width:3;fill:#00493d;" d="M850,152c1-2,2-9,2-12,8-5,28-10,43-2,1,10,0,35-1,41-13-10-34-24-44-27z" class="fil9 str0"/>
</g>
<path id="21352408" style="fill:#000000;" d="M800,134c-2,0-3-6-7-6-1,0-4,1-5,0,0,2,1,4,2,5,1,3,6,1,10,1z" class="fil8"/>
<path id="21352320" style="stroke:#000000;stroke-width:3;fill:none;" d="M800,151c12,0,14-15,20-16" class="fil5 str0"/>
<path id="21352232" style="stroke:#000000;stroke-width:3;fill:none;" d="M807,152c9,4,16-17,23-16" class="fil5 str0"/>
<path id="21352144" style="stroke:#000000;stroke-width:3;fill:none;" d="M789,126c3,0,5-4,10,1,2,2,5,3,7,3" class="fil5 str0"/>
<path id="21352056" style="stroke:#000000;stroke-width:3;fill:none;" d="M804,141c-4,6-11,10-15,8" class="fil5 str0"/>
<path id="21351968" style="stroke:#000000;stroke-width:3;fill:none;" d="M787,116c-3,2-5,6-7,9" class="fil5 str0"/>
<path id="21351880" style="stroke:#000000;stroke-width:3;fill:none;" d="M777,131v5" class="fil5 str0"/>
</g>
<g id="g2588" transform="matrix(0.370409,0,0,0.370409,845.1194,-37.89129)">
<path id="21351704" style="stroke:#000000;stroke-width:3;fill:#f9d050;" d="M898,310c1,2-1,7,0,9,2,4,2,6,5,8h7c22,0,48-9,70-9,21,0,34,7,46,7,7,0,13-5,13-10s-8-8-25-8c-24,0-37,6-57,6-30,0-35-11-35-16s5-12,21-12c5,0,9-1,11-3,1-2,4-6,10-9,7-4,21,0,28-5,0,4-6,10-11,12,10-3,21-3,23,5-5-3-13-1-16,0-4,1-6,2-10,3,4-1,6,7,12,7-6,5-16,5-26,1-3-1-11-4-16-4-10,0-16,2-16,6,0,5,6,8,24,8s28-5,55-5c-2-3,1-6-3-9,10,0,21,3,25,10-1-7,5-13,3-19,6,1,11,7,12,12,0-3,4-3,4-6,6,3,9,10,8,16,3-5,6-3,8-9,2,4,1,16-6,20,6-4,15-4,21,3-6-1-9,2-12,3-12,7-32,11-47,10-16-1-18-4-28-4,6,1,18,13,29,13,7,0,12,0,15-1s8,0,12,2c3,3,9,6,13,5-1,4-3,6-6,7,5,3,2,5,7,9-2,0-4,2-7,1,3,3,3,7,6,9-1,0-4,1-6,0,3,4,0,9,3,11,3,4-3,9-8,5,1,3-2,6-5,5s-5-4-4-5c0-1,0-1,1-2-2,3-6,3-8,2-1-1-2-2-2-3-7,2-10-4-9-7s7-4,9-3,4,2,6,0c2-1,3-3,3-5,0-3-3-12-16-11-15,1-39-3-51-7-1-1-2-1-3-2,0,4-4,6-4,10,0,5,2,9,8,11-3,5-8,4-10,1,0,3-4,5-4,9-1-2-2-3-3-5-3,7-11,11-15,9-5,4-11,3-13-1-3,2-7,2-9,0,0,3-2,2-3,6,0,2-4,3-6,2s-3-5-1-7c-3,2-6,2-8,0,0-2,0-5,2-6h2c-2-1-5,0-7-1-2-2-2-4-1-6,1-1,4-3,6-1l1,1c0-2,1-4,2-4,2-1,5-1,8,2,2,3,4,3,10,2,5,0,13-5,19-10-17-3-7-14-2-18-4-1-10-1-14,1-21,11-43,24-57,20,0,2,1,4,2,6-3,0-9,0-11-3-1,2-3,7-1,11-2-2-8-4-11-5,2,2,0,6,1,9-3-3-8-5-10-3s-6,3-9,2c-2,3-5,5-8,6,0-2,0-5-1-6-1,3-4,7-8,9,0-2,0-5-1-7,0,4-8,6-9,9,1-3,1-6,1-8-2,3-5,6-10,7,1-2,2-4,1-6-1,4-7,6-12,5,0,2-4,5-9,2-3-1-5-4-3-6-4,0-8-4-6-7,0-1,1-2,1-3-3-2-4-6-1-9,1-1,4-1,6-1,0-8,7-8,10-2,2,3,8,8,13,7,2,0,3-1,5-1,6-2,18-7,25-13,1-3,1-5,1-7-4,2-8,4-10,7v-3c-3,0-8-1-10-1,1-1,2-6,4-7-5,1-10,0-14-1,2-2,2-5,3-8-2,1-7-1-11,0,1-3,2-7,5-8-4,1-9,0-14-2,4,0,6-5,9-5-8,0-10-4-14-6,3,1,5-2,8-2-3-1-8-6-6-9-1,1-2,3-4,4s-6,0-9-3c-2-4-1-9,3-10-5-1-5-6-3-8,1-2,5-5,7-2,1,1,2,3,3,4-1-2-1-6-1-9,1-3,3-3,6-4,3,0,5,3,5,6s1,5,2,9c0-1,1-3,1-4,0-4,5-3,8-2s4,7,0,10c-2,2-1,5,1,7,7,11,19,20,29,21,0-4,2-8,5-11,0-2,1-5,2-7,1-6,4-9,8-7-1-1-2-2-2-3-3-3-6-8-4-12s8-3,10-1c-1-6,6-11,6-14,1,3,3,7,2,10,1-4,8-9,13-11-2,3,4,8,3,11,2-5,10-8,16-8-2,2-2,6-2,8,3,0,8-1,10-4,0,4-2,8-4,10,1-1,5-1,8-1-3,3-2,6-5,8,4-2,9-2,10,2,2,3-1,8-3,11-2,1-4,3-5,3z" class="fil6 str0"/>
<g id="g2591">
<path id="21351528" style="stroke:#000000;stroke-width:3;fill:none;" d="M836,322c-7,3-9,10-10,14" class="fil5 str0"/>
<path id="21351440" style="stroke:#000000;stroke-width:3;fill:none;" d="M835,329c-10,6-14,11-12,22" class="fil5 str0"/>
<path id="21351352" style="stroke:#000000;stroke-width:3;fill:none;" d="M840,359c6-2,10-4,15-13" class="fil5 str0"/>
<path id="21351264" style="stroke:#000000;stroke-width:3;fill:none;" d="M852,350c-2,4,0,11-3,14,5-3,9-7,10-14" class="fil5 str0"/>
<path id="21351176" style="stroke:#000000;stroke-width:3;fill:none;" d="M854,361c4-2,10-8,13-15-1,3,0,8-2,11,5-5,7-8,8-13,0,1,1,3,1,4,2-2,4-4,4-8" class="fil5 str0"/>
<path id="21351088" style="stroke:#000000;stroke-width:3;fill:none;" d="M878,343v5c4-3,5-7,5-12" class="fil5 str0"/>
<path id="21351000" style="stroke:#000000;stroke-width:3;fill:none;" d="M882,342c6-4,7-10,7-19" class="fil5 str0"/>
<path id="21350912" style="stroke:#000000;stroke-width:3;fill:none;" d="M889,333c4-3,5-5,5-14" class="fil5 str0"/>
<path id="21350824" style="stroke:#000000;stroke-width:3;fill:none;" d="M881,292c-2,0-4,1-4,4,0,2-3,5-3,8-1,4-3,5-6,4-3-2-3-2-3-5,0-4,5-5,5-9,1-2,2-5,3-5-5,3-12,1-13-5" class="fil5 str0"/>
<path id="21350736" style="stroke:#000000;stroke-width:3;fill:none;" d="M890,295c-2,1-4-2-7-1-1,0-4,1-5,0" class="fil5 str0"/>
<path id="21350648" style="stroke:#000000;stroke-width:3;fill:none;" d="M876,300c1,1,6,3,11,1-4,1-7-4-3-7" class="fil5 str0"/>
<path id="21350560" style="stroke:#000000;stroke-width:3;fill:none;" d="M867,290c-4,0-7,3-6,6s5,3,8,1" class="fil5 str0"/>
<path id="21350472" style="stroke:#000000;stroke-width:3;fill:none;" d="M860,340c1-1,2-3,2-4,2,0,4-1,5-2,4,0,7-3,8-6,2,0,3-5,4-7,1,1,3,0,4-4,2,1,5,0,6-3" class="fil5 str0"/>
<path id="21350384" style="stroke:#000000;stroke-width:3;fill:none;" d="M848,307c0,1-2,3-4,4,1,2,0,7-2,8,1,2,0,5-1,7,0,1,1,4,1,5" class="fil5 str0"/>
<path id="21350296" style="stroke:#000000;stroke-width:3;fill:none;" d="M852,287c-2,5-1,11,3,12" class="fil5 str0"/>
<path id="21350208" style="stroke:#000000;stroke-width:3;fill:none;" d="M854,303c-1,5-1,12-2,15-1,2-3,9,5,11,9,2,14,1,19-14" class="fil5 str0"/>
<path id="21350120" style="stroke:#000000;stroke-width:3;fill:none;" d="M891,354c0,1-1,3-3,3" class="fil5 str0"/>
<path id="21350032" style="stroke:#000000;stroke-width:3;fill:none;" d="M898,352c0,2-2,5-3,6" class="fil5 str0"/>
<path id="21349944" style="stroke:#000000;stroke-width:3;fill:none;" d="M905,350c0,2,0,5-2,6" class="fil5 str0"/>
<path id="21349856" style="stroke:#000000;stroke-width:3;fill:none;" d="M844,288c1,0,2,2,3,4-3-2-6,3-4,6" class="fil5 str0"/>
<path id="21349768" style="stroke:#000000;stroke-width:3;fill:none;" d="M841,305c-1,1-3,2-4,3" class="fil5 str0"/>
<path id="21349680" style="stroke:#000000;stroke-width:3;fill:none;" d="M838,314c-1,0-2,1-3,1" class="fil5 str0"/>
<path id="21349592" style="stroke:#000000;stroke-width:3;fill:none;" d="M790,296c0-1,0-1,1-2" class="fil5 str0"/>
<path id="21349504" style="stroke:#000000;stroke-width:3;fill:none;" d="M781,293c-1,0-1,0-2-1" class="fil5 str0"/>
<path id="21349416" style="stroke:#000000;stroke-width:3;fill:none;" d="M782,307h2" class="fil5 str0"/>
<path id="21349328" style="stroke:#000000;stroke-width:3;fill:none;" d="M778,301c-2-2-5-3-6-3" class="fil5 str0"/>
<path id="21349240" style="stroke:#000000;stroke-width:3;fill:none;" d="M833,338c-7,6-10,11-11,18" class="fil5 str0"/>
<path id="21349152" style="stroke:#000000;stroke-width:3;fill:none;" d="M840,343c-2,4-5,7-8,9" class="fil5 str0"/>
<path id="21349064" style="stroke:#000000;stroke-width:3;fill:none;" d="M801,373c-8,2-14,1-20-3-1-1-2-1-3-2" class="fil5 str0"/>
<path id="21348976" style="stroke:#000000;stroke-width:3;fill:none;" d="M831,359c-1,4-2,9-4,10,8-4,15-10,16-19" class="fil5 str0"/>
<path id="21348888" style="stroke:#000000;stroke-width:3;fill:none;" d="M773,378c3-1,6,1,8-1" class="fil5 str0"/>
<path id="21348800" style="stroke:#000000;stroke-width:3;fill:none;" d="M947,345c2,1,5,2,6,3,1-2,5-5,8-6" class="fil5 str0"/>
<path id="21348712" style="stroke:#000000;stroke-width:3;fill:none;" d="M876,366c-1-4,1-9,7-11" class="fil5 str0"/>
<path id="21348624" style="stroke:#000000;stroke-width:3;fill:none;" d="M837,383c1-2,1-5,2-7" class="fil5 str0"/>
<path id="21348536" style="stroke:#000000;stroke-width:3;fill:none;" d="M793,386c-1,2-3,4-3,6" class="fil5 str0"/>
<path id="21348448" style="stroke:#000000;stroke-width:3;fill:none;" d="M778,388s0-1,1-1c2-1,5-3,6-5" class="fil5 str0"/>
<path id="21348360" style="stroke:#000000;stroke-width:3;fill:none;" d="M914,374c-2,1-3,0-4-1" class="fil5 str0"/>
<path id="21348272" style="stroke:#000000;stroke-width:3;fill:none;" d="M913,379s-1,1-2,1" class="fil5 str0"/>
<path id="21348184" style="stroke:#000000;stroke-width:3;fill:none;" d="M918,384c-1,1-2,2-3,2" class="fil5 str0"/>
<path id="21348096" style="stroke:#000000;stroke-width:3;fill:none;" d="M947,386c2-1,3-3,4-7" class="fil5 str0"/>
<path id="21348008" style="stroke:#000000;stroke-width:3;fill:none;" d="M934,385c3-1,5-3,8-6" class="fil5 str0"/>
<path id="21347920" style="stroke:#000000;stroke-width:3;fill:none;" d="M962,377c0-2,0-4,1-6" class="fil5 str0"/>
<path id="21347832" style="stroke:#000000;stroke-width:3;fill:none;" d="M1036,386c-2-2-2-5,1-7,2-1,3-2,5-3" class="fil5 str0"/>
<path id="21347744" style="stroke:#000000;stroke-width:3;fill:none;" d="M975,351c-16-7-15-16-28-15" class="fil5 str0"/>
<path id="21347656" style="stroke:#000000;stroke-width:3;fill:none;" d="M1046,382c1,1,0,4,0,5" class="fil5 str0"/>
<path id="21347568" style="stroke:#000000;stroke-width:3;fill:none;" d="M1055,382c-1,3-1,4-1,7" class="fil5 str0"/>
<path id="21347480" style="stroke:#000000;stroke-width:3;fill:none;" d="M978,288h-8" class="fil5 str0"/>
<path id="21347392" style="stroke:#000000;stroke-width:3;fill:none;" d="M894,322c0,2,3,6,11,6-1,0-2-1-2-1" class="fil5 str0"/>
<path id="21347304" style="stroke:#000000;stroke-width:3;fill:none;" d="M898,310c-1,1-2,0-2,0-2-2,1-6,4-8-3,1-5,1-7,1-2,6-8,9-12,5-1,4-6,9-10,8-4-2-5-5-4-8-5,6-11,2-13,0-1-2,0-7,2-13" class="fil5 str0"/>
</g>
<path id="21347216" style="fill:#000000;" d="M962,348c-3,2-6,0-9,3-2,2,1,3,3,3-1,3-1,4,4,4-2,3,4,4,3,8,3-3,3-7,2-10s-6-5-3-8z" class="fil8"/>
<g id="g2643">
<path id="21347040" style="fill:#073163;" d="M871,316c-4-2-5-5-4-8-1,2-3,3-5,3-4,9-9,17-15,17-7,1-6,8-1,8,11,2,16-2,25-20z" class="fil4"/>
<path id="21346952" style="fill:#073163;" d="M772,292c3-3,1-6-1-7-3-1-9,0-12,5,3-1,6-1,7,1s3,4,6,1z" class="fil4"/>
<path id="21346864" style="fill:#073163;" d="M777,274c7,0,9,1,10,4,1,2-1,5-3,5-3,0-6-2-5-3,1-2,1-5-2-6z" class="fil4"/>
<path id="21346776" style="fill:#073163;" d="M797,290c5,1,7-2,4-6-1-3-4-5-9-4,5,3,0,8,5,10z" class="fil4"/>
<path id="21346688" style="fill:#073163;" d="M760,307c3,5,8,5,10,4,3-1,4-4,3-6-2-3-5-4-6,0-2,4-5,3-7,2z" class="fil4"/>
<path id="21346600" style="fill:#073163;" d="M775,368c-2-4-8-4-13,0,2-1,6,0,7,2s3,2,4,2c1-1,3-2,2-4z" class="fil4"/>
<path id="21346512" style="fill:#073163;" d="M783,362c0-5-7-6-11-4,2,0,5,2,5,4,1,2,3,3,4,3,2-1,3-2,2-3z" class="fil4"/>
<path id="21346424" style="fill:#073163;" d="M773,380c-6-1-9,6-9,11,1-3,4-5,7-4,3,0,4-1,4-3,1-2,0-3-2-4z" class="fil4"/>
<path id="21346336" style="fill:#073163;" d="M774,397c2,1,4-1,5-4,0-2,4-2,5-1,2,1,2,5-1,7-2,1-7,2-9-2z" class="fil4"/>
<path id="21346248" style="fill:#073163;" d="M913,367c-2-1-7-3-11,0,3-1,5,1,6,3,0,2,3,3,4,1,1-1,2-3,1-4z" class="fil4"/>
<path id="21346160" style="fill:#073163;" d="M904,374c-4-2-9,3-10,7,1-1,5-3,7-3,2,1,4,0,4-2,1-1,1-2-1-2z" class="fil4"/>
<path id="21346072" style="fill:#073163;" d="M909,382c-3,0-7,4-7,8,1-2,3-3,5-2,2,0,5-1,5-3s-1-3-3-3z" class="fil4"/>
<path id="21345984" style="fill:#073163;" d="M918,390c-2-1-5,0-5,3s0,6-1,7c2-2,4-3,6-4,1-1,2-4,0-6z" class="fil4"/>
<path id="21345896" style="fill:#073163;" d="M1031,381c-2-2-5-1-6,1s-2,7,0,11c0-2,2-5,4-5,3-1,4-5,2-7z" class="fil4"/>
<path id="21345808" style="fill:#073163;" d="M1037,385c-4,2-4,9-1,13,0-2,1-5,3-6,3,0,4-4,3-6-2-2-4-1-5-1z" class="fil4"/>
<path id="21345720" style="fill:#073163;" d="M1049,389c-2-1-4,1-4,3-1,3,1,7,4,9,0-2,1-4,2-5,3-2,2-6-2-7z" class="fil4"/>
<path id="21345632" style="fill:#073163;" d="M1058,388c-2,0-4,3-2,6,1,2,3,3,7,2-1,0-3-3-2-4,1-2,0-4-3-4z" class="fil4"/>
</g>
</g>
<g id="g2662" transform="matrix(0.370409,0,0,0.370409,845.1194,-37.89129)">
<path id="21345456" style="fill:#f9d050;" d="M830,421l-19,59h-62l50,36-19,59,50-36,50,36-19-59,50-36h-62l-19-59z" class="fil6 str0"/>
<path id="21345368" style="fill:#f9d050;" d="M1019,421l18,59h63l-51,36,19,59-49-36-50,36,19-59-51-36h62l20-59z" class="fil6 str0"/>
<path id="21345280" style="fill:#f9d050;" d="M924,530l-19,59h-62l50,36-19,59,50-36,50,36-19-59,50-36h-62l-19-59z" class="fil6 str0"/>
</g>
<g id="g2667" transform="matrix(0.370409,0,0,0.370409,845.1194,-37.89129)">
<path id="21441472" style="fill:#024919;" d="M830,439l-15,46h-49l40,29-16,47,40-29,39,29-15-47,40-29h-49l-15-46z" class="fil7"/>
<path id="21441384" style="fill:#024919;" d="M1019,439l14,46h50l-40,29,15,47-39-29-40,29,15-47-40-29h49l16-46z" class="fil7"/>
<path id="21441296" style="fill:#024919;" d="M924,548l-15,46h-49l40,29-16,47,40-29,39,29-15-47,40-28h-49l-15-47z" class="fil7"/>
</g>
<g id="g2672" transform="matrix(0.370409,0,0,0.370409,845.1194,-37.89129)">
<path id="21441032" style="fill:#00493d;" d="M678,623l-8,4c-2,1-2,3-2,4h-1l-4-9h1c0,1,1,2,3,1l17-9c2-1,2-2,1-3l1-1,5,10h-1c-1-1-2-2-4-1l-7,4,3,6,8-3c2-1,1-3,1-4h1l4,9c-1-1-2-2-4-1l-17,9c-2,1-2,2-1,3l-1,1-5-9,1-1c1,1,2,2,4,1l8-4-3-7z" class="fil9"/>
<path id="21440944" style="fill:#00493d;" d="M695,636c2-1,2-2,1-4h1l10,15-7,5v-1c4-3,4-7,3-8s-2-2-2-3c-1,0-1-1-3,1-1,1-7,5-7,5,1,1,2,4,7,1h1l-11,8v-1c5-4,3-7,2-8l-7,5c-2,1-2,2-2,3,1,0,1,1,2,2,1,2,4,4,9,2l1,1-8,3-10-16h1c1,1,2,2,4,1l15-11z" class="fil9"/>
<path id="21440856" style="fill:#00493d;" d="M711,674l-7,6c-1,1-1,3,0,4h-1l-7-7,1-1c1,1,2,2,4,0l13-13c2-1,2-2,1-4l7,8c-1-1-3-1-4,0l-6,6,5,5,6-5c2-2,1-3,0-4l1-1,7,8h-1c-1,0-2-1-4,1l-13,12c-2,2-2,3-1,4v1l-7-8c1,0,3,1,4,0l7-7-5-5z" class="fil9"/>
<path id="21440768" style="fill:#00493d;" d="M726,695l3,3c4-9,4-9,4-9s-3,1-8,4l1,2-1,1-2-2c-1,1-2,1-3,2-3,2-2,3-1,4v1l-5-5h1l4-1c20-11,20-11,20-11l1,1s-1,1-10,21c0,2-1,3,0,5l-8-7,1-1c1,2,3,2,4,0,0-1,1-3,1-4l-3-3,1-1z" class="fil9"/>
<path id="21440680" style="fill:#00493d;" d="M734,715l1-1c1,1,2,1,4,0l13-17-1-1c-2-1-5-1-8,2v-1l4-5,15,11-5,6h-1c3-3,2-7,0-8v-1l-13,17c-2,1-1,3,0,4h-1l-8-6z" class="fil9"/>
<path id="21440592" style="fill:#00493d;" d="M760,719l-5,7c-1,2,0,3,1,4l-1,1-8-6v-1c2,1,3,1,4-1l11-15c1-2,0-3-1-4l1-1,8,6v1c-2-1-3-1-4,1l-5,7,6,4,5-7c1-2,0-3-1-4l1-1,8,6v1c-1-1-3-1-4,1l-10,16c-2,1-1,2,0,3v1l-9-6h1c1,0,2,0,3-1l5-8-6-4z" class="fil9"/>
<path id="21440504" style="fill:#00493d;" d="M780,747l1-1c1,1,3,1,4-1l8-17c1-2,0-3-1-4l17,8-4,8-1-1c3-4,0-8-1-9-1,0-2-1-3-1s-1,0-2,2c-1,1-4,7-4,7,1,1,3,3,7-2h1l-6,12-1-1c3-6-1-7-2-7l-4,8c-1,2,0,3,1,3v1l-10-5z" class="fil9"/>
<path id="21440416" style="fill:#00493d;" d="M809,761c-3-2-3-8,0-14,2-6,6-11,10-9,3,1,2,7,0,13-3,7-7,11-10,10h-1c7,3,12-1,15-8,3-6,2-13-4-16s-12,1-15,8-2,14,4,16h1z" class="fil9"/>
<path id="21440328" style="fill:#00493d;" d="M840,763l4-12c1-2,0-3-1-4l5,1v1c-1,0-2,0-3,2l-4,12c-2,5-5,9-11,7-4-1-7-6-5-11l5-13c1-2,0-3-1-4v-1l9,4v1c-1-1-3-1-3,1l-5,13c-1,4-1,8,2,9s6-1,8-6z" class="fil9"/>
<path id="21440240" style="fill:#00493d;" d="M849,750c0-1,0-1-1-1l7,1,6,19,3-12c1-2,0-3-1-4l6,1-1,1c-1,0-2,0-3,2l-5,22h-1l-8-24-5,16c0,3,1,3,2,4v1l-6-2v-1c1,1,3,0,3-2l5-18-1-3z" class="fil9"/>
<path id="21440152" style="fill:#00493d;" d="M883,770c-2,9-6,11-8,11h-2s-1-1,0-2l3-20c1-1,1-2,2-1h2c2,0,4,4,3,12l3,1c2-10-2-14-7-15-4-1-10-2-10-2v1c1,1,3,1,2,4l-3,18c-1,2-2,3-3,3h-1l10,2c5,1,10,0,12-11l-3-1z" class="fil9"/>
<path id="21440064" style="fill:#00493d;" d="M892,762c0-2-2-3-3-3v-1l18,2-1,8c0-5-3-7-5-7-1-1-2-1-3-1s-1,0-1,3c0,1-1,8-1,8,1,0,4,1,6-5l-1,13h-1c0-6-3-6-4-6l-1,9c0,2,0,2,1,2l2,1c3,0,6-1,8-7h1l-2,8-19-2c2,0,3-1,4-3l2-19z" class="fil9"/>
<path id="21439976" style="fill:#00493d;" d="M954,782c0,2,1,2,3,2v1l-11,1c1-1,3-2,3-4l-2-19c-1-2-2-2-4-2v-1l11-1c-1,1-3,2-2,4l2,19z" class="fil9"/>
<path id="21439888" style="fill:#00493d;" d="M964,784v-1c1,0,2-1,2-3l-4-21h-1c-2,1-4,3-3,7h-1l-1-7,18-3,1,7h-1c0-4-3-5-6-5h-1l4,21c0,2,1,3,3,3v1l-10,1z" class="fil9"/>
<path id="21439800" style="fill:#00493d;" d="M1007,764l-4-12c0-2-2-2-3-2v-1l5-2v1c-1,1-1,1-1,3l4,13c1,4,1,10-5,12-4,1-9-1-10-7l-4-13c-1-2-2-2-3-2l-1-1,10-3v1c-1,1-2,2-1,4l3,13c1,4,4,6,7,6,3-1,4-5,3-10z" class="fil9"/>
<path id="21439712" style="fill:#00493d;" d="M1018,757c5-2,4-5,3-8s-3-5-5-4c-1,0-2,1-1,2l3,10,1,1,2,8c1,2,3,2,4,1v1l-9,4-1-1c2-1,2-2,2-4l-7-17c-1-3-2-2-4-2v-1l10-4c4-1,8,0,10,4,1,5-1,8-5,10-1,0-2,1-2,1l-1-1z" class="fil9"/>
<path id="21439624" style="fill:#00493d;" d="M1044,732h-1-1l6-4,18,10-6-11c-1-2-3-2-4-2v-1l5-2c-1,1-2,2,0,4l10,20-1,1-22-12,8,15c1,2,3,2,4,1v1l-5,3v-1c1-1,1-2,0-4l-8-16-3-2z" class="fil9"/>
<path id="21439536" style="fill:#00493d;" d="M1089,735v-1c0-1,1-2,0-4l-12-17h-1c-2,1-3,5,0,8l-1,1-4-7,15-10,4,6c-3-3-6-3-8-2l-1,1,12,17c1,2,3,2,4,1v1l-8,6z" class="fil9"/>
<path id="21439448" style="fill:#00493d;" d="M1100,711l6,7c1,1,3,1,4,0v1l-8,7v-1c1-1,1-2,0-4l-12-15c-1-2-2-1-4-1l8-7v1c0,1-1,2,0,4l5,6,6-4-5-7c-1-2-3-1-4-1l8-7v1c-1,1-1,2,0,4l12,15c1,1,2,1,3,0l1,1-8,7-1-1c1-1,2-2,1-4l-6-7-6,5z" class="fil9"/>
<path id="21439360" style="fill:#00493d;" d="M1109,690c-1-1-3-1-4,0v-1l13-12,6,6h-1c-3-4-7-2-9-1,0,1-1,1-2,2,0,0,0,1,1,3l6,6c1-1,4-3,0-8h1l8,9v1c-5-5-7-2-8-1l6,6c1,2,2,2,2,2,1-1,2-2,3-3s2-4,0-10h1l4,7-13,13-1-1c1-1,2-2,0-4l-13-14z" class="fil9"/>
<path id="21439272" style="fill:#00493d;" d="M1133,662c-1,1-1,3,1,4,2,2,4,2,8,0,2-1,6-2,9,1,5,5,3,9,2,11-1,1-3,2-4,3-1,0-1,0-1,1v1l-7-6h1c4,2,8,3,10,0,2-2,0-4-1-5-2-2-4-2-7,0-3,1-7,1-10-1-4-4-4-7-2-10,1-1,3-2,4-3,1,0,1,0,0-2l7,5h-1c-5-2-8-1-9,1z" class="fil9"/>
<path id="21439184" style="fill:#00493d;" d="M1142,654c-2-1-3,0-4,1h-1l11-16,7,5-1,1c-4-3-8-1-9,0,0,1-1,2-1,3-1,0-1,1,1,2,1,1,7,5,7,5,1-1,3-3-1-7v-1l10,8c-6-3-7,0-8,1l7,5c2,1,3,1,3,1,0-1,1-2,2-3,1-2,2-5-2-9l1-1,5,6-10,15h-1c1-2,1-3-1-5l-15-11z" class="fil9"/>
<path id="21441120" style="fill:#00493d;" d="M1169,636l-3,5c-4-4-6-7-6-7l9,2h2c1,0,3,1,4,1,3,1,2,2,1,4h1l5-9c-2,2-3,1-5,1-21-4-23-5-23-5v1l16,18c1,1,1,3,1,4h1l3-5-1-1c-1,2-2,3-4,0l-2-2,3-7h-2z" class="fil9"/>
<path id="21439008" style="fill:#00493d;" d="M1163,614c-1,1-1,3,2,4s4,0,7-2,6-4,10-2c6,3,5,8,4,10-1,1-2,3-3,4v1,1l-8-4c5,1,9,0,10-3,1-2-1-4-2-5-2-1-4,0-7,2-3,3-6,4-10,2s-6-5-4-8c0-2,2-3,3-4,0-1,0-1-1-2v-1l8,4h-1c-5-1-8,1-8,3z" class="fil9"/>
<path id="21438920" style="fill:#00493d;" d="M925,774c0,9-3,12-6,12-1-1-1-1-2-1l-1-1,1-21c0-1,0-1,1-1h2c2,0,5,3,5,12h4c0-10-5-13-10-13-4-1-10-1-10-1v1c1,0,3,1,3,3l-1,19c0,2-1,3-2,3v1h9c5,0,10-2,11-13h-4z" class="fil9"/>
<path id="21438832" style="fill:#00493d;" d="M1043,760c-3,1-7-3-10-10-3-6-3-12,0-13s7,3,10,9,3,12,0,14c6-2,8-9,5-16-3-6-9-10-15-8-6,3-8,10-5,16,3,7,9,11,15,8z" class="fil9"/>
</g>
<path id="path3959" d="M1256.6,58.785v72.235c0,62.59-29.6,84.08-69.2,101.12-39.7-17.04-69.7-38.53-69.7-101.12v-72.235h138.9z" style="stroke:#000000;stroke-width:1.11122703999999990;fill:none;" class="fil2 str0"/>
</g>
</svg>
