<?xml version="1.0" encoding="UTF-8" standalone="no"?>
<svg id="svg2" xmlns:rdf="http://www.w3.org/1999/02/22-rdf-syntax-ns#" xmlns="http://www.w3.org/2000/svg" viewBox="0 0 750 500" version="1.1" xmlns:cc="http://creativecommons.org/ns#" xmlns:dc="http://purl.org/dc/elements/1.1/">
<metadata id="metadata14">
<rdf:RDF>
<cc:Work rdf:about="">
<dc:format>image/svg+xml</dc:format>
<dc:type rdf:resource="http://purl.org/dc/dcmitype/StillImage"/>
<dc:title/>
</cc:Work>
</rdf:RDF>
</metadata>
<rect id="rect4" width="750" height="500" fill="#ed1c24"/>
<rect id="rect6" y="125" width="750" height="250" fill="#fff"/>
<path id="path8" d="M371.59,125l-4.1,6.83c-2.26,3.76-7.72,9.4-12.12,12.52-4.41,3.13-9.72,7.78-11.83,10.34l-3.87,4.65,4.1-1.07c2.25-0.59,5.18-1.54,6.52-2.11,1.35-0.57,2.45-0.26,2.45,0.71v0.1c0,0.05-0.02,0.14-0.03,0.19-0.59,2.41-7.63,7.93-13.21,10.25-5.35,2.21-13.27,8-14.31,10.31-0.03,0.06-0.04,0.14-0.06,0.19-0.01,0.03-0.02,0.08-0.03,0.1v0.1,0.03,0.03,0.04,0.03c0.01,0.02,0.02,0.07,0.03,0.1,0.01,0.01,0.02,0.05,0.03,0.06,0,0.01,0.03,0.03,0.03,0.03,0.01,0.01,0.02,0.03,0.03,0.04l0.03,0.03c0.02,0.02,0.06,0.05,0.09,0.06,0.62,0.44,2.35,0.51,4.33,0.07,3.49-0.77,4.93-0.29,6.08,2.08,1.76,3.63,0.75,5.27-3.3,5.27-4.91,0-11.89,4.93-12.84,9.07-0.63,2.78-3.3,5.05-9.05,7.68-9.38,4.29-21.49,12.47-22.33,14.99-0.02,0.07-0.03,0.17-0.03,0.23,0,3.57,7.9,3.32,19.35-0.62,2.57-0.88,3.7,0.02,5.63,4.42,2.4,5.46,2.36,5.59-3.21,12.79-3.89,5.02-7.32,7.61-11.03,8.39-7.41,1.55-9.71,3.05-19.32,12.65-4.6,4.59-9.22,8.39-10.27,8.42-0.41,0.01-0.68,0.07-0.83,0.2,0,0-0.02,0.02-0.02,0.03-0.01,0-0.03,0.03-0.03,0.03-0.01,0.01-0.03,0.03-0.03,0.03-0.01,0.01,0,0.03,0,0.04-0.01,0-0.03,0.02-0.03,0.03v0.03,0.03,0.04,0.06,0.03c0,0.03,0.02,0.07,0.03,0.1,0,0.02,0.02,0.05,0.03,0.07,0,0.01,0.02,0.05,0.03,0.06,0.77,1.42,5.84,4.23,8.7,4.23,2.09,0,7.18-2.39,11.29-5.3,7.23-5.11,7.59-5.19,10.51-2.28,1.66,1.66,3.03,4.88,3.03,7.12,0,3.43-1.84,4.99-11.32,9.83-7.02,3.57-15.27,9.72-21.71,16.16-8.67,8.66-11.13,10.25-14.81,9.66-2.33-0.38-3.63-0.53-4.04-0.29-0.02,0-0.05,0.02-0.06,0.03-0.01,0-0.03,0.03-0.03,0.03-0.01,0.01-0.03,0.03-0.03,0.03-0.02,0.03-0.03,0.1-0.03,0.13,0,0.45,0.78,1.35,2.18,2.9,1.33,1.46,4.41,2.66,6.85,2.66,6.63,0,27.6-7.81,34.07-12.68,6-4.52,11.83-5.39,16.66-2.54,7.48,4.42-5.03,13.31-28.58,20.33-8.67,2.59-16.17,5.1-17.14,5.72-0.01,0.01-0.05,0.03-0.06,0.04,0,0-0.02,0.03-0.03,0.03,0,0-0.02,0.03-0.03,0.03,0,0.01,0.01,0.03,0,0.04-0.33,0.55,0.16,2.02,1.18,3.38,2.46,3.26,14.84,3.42,25.4,0.29,4.23-1.25,14.75-5.51,23.39-9.43,15.67-7.11,15.73-7.1,21.21-4.23,12.74,6.67,11.56,18.33-3.75,37.5-6.66,8.35-12.58,12.07-23.33,14.7-3.98,0.97-12.15,8.67-12.15,11.45,0,0.27,0.05,0.49,0.12,0.68h2.74c0.6-0.44,1.22-1.07,1.83-1.89,3.39-4.5,10.22-7.5,17.14-7.54,7.51-0.04,16.71-4.17,23.62-10.6,6.08-5.66,12.18-7.34,16.79-4.62,2.55,1.51,4.88,1.66,7.96,0.49,5.49-2.08,8.2-1.08,8.2,3.02,0,1.84,1.94,4.32,4.58,5.82,2.52,1.44,7.03,4.96,10,7.84,2.26,2.19,3.91,3.19,4.77,3.19h0.12c0.02-0.01,0.07,0,0.09,0,0.01-0.01,0.05-0.03,0.06-0.04,0.01,0,0.05-0.02,0.06-0.03,0.04-0.02,0.09-0.04,0.12-0.06,0-0.01,0.02-0.03,0.03-0.04,0,0,0.02-0.02,0.03-0.03,0,0,0.02-0.03,0.03-0.03,0-0.01,0.02-0.03,0.02-0.03,0.02-0.02,0.02-0.05,0.03-0.07,0.01-0.01,0.03-0.05,0.03-0.06,0.01-0.02,0.03-0.05,0.03-0.07,0.01-0.02,0.03-0.07,0.03-0.1,0.01-0.03,0-0.09,0-0.13,0.09-0.96-0.66-2.9-2.39-5.62-1.01-1.6-1.53-3.2-1.38-4,0-0.04,0.02-0.1,0.03-0.13,0-0.02,0.02-0.05,0.03-0.07,0,0-0.01-0.02,0-0.03,0-0.01,0.02-0.03,0.03-0.03,0.01-0.03,0.03-0.08,0.05-0.1,0.01,0,0.03-0.03,0.03-0.03,0.02-0.02,0.05-0.02,0.06-0.04,0.01,0,0.03-0.02,0.03-0.03,0.01,0,0.05-0.02,0.06-0.03,0.96-0.37,6.04-0.18,11.59,0.45,9.78,1.13,10.96,1.71,16.73,8.4,2.85,3.3,5.18,5.37,7.08,6.24h3.92c0.84-0.38,1.43-0.92,1.57-1.46,0-0.02,0.02-0.05,0.02-0.07,0.01-0.02,0-0.07,0-0.1,0.01-0.01,0-0.05,0-0.06,0-0.02,0.01-0.05,0-0.07,0,0,0.01-0.02,0-0.03,0-0.01,0.01-0.02,0-0.03-0.33-1.12-6.12-6.63-13.06-12.42-15.79-13.18-18.21-17.99-18.26-36.23-0.04-10.92,0.48-13.71,3.04-16.53,3.97-4.38,6.16-4.28,15.93,0.82,7.37,3.84,9.66,4.16,26.43,3.8,18-0.39,18.53-0.27,27.58,5.04,5.07,2.98,11.26,6.98,13.8,8.88,5.6,4.21,11.28,4.51,12.63,0.65,1.58-4.55-9.06-13.38-29.06-24.03-19.88-10.6-21.97-13.56-12.8-18.38,5.21-2.74,5.57-2.69,13.83,1.92,6.62,3.7,9.65,4.49,13.9,3.61l5.42-1.14-11.94-9.79c-6.57-5.38-12.93-11.09-14.13-12.71-3.49-4.7-10.24-7.81-16.88-7.81-3.11,0-6.01-0.59-6.81-1.33-0.02-0.03-0.07-0.07-0.09-0.1l-0.03-0.03c-0.01-0.01-0.02-0.05-0.03-0.07-1.86-3.33,3.76-4.91,19.44-5.53,21.13-0.83,24.04-3.29,9.47-8-5.82-1.87-14.53-4.25-19.38-5.3-5.91-1.27-9.18-2.66-10-4.26-0.09-0.18-0.15-0.39-0.18-0.58-0.01-0.14-0.01-0.31,0-0.46,0.08-0.54,0.4-1.12,0.95-1.72,0.99-1.1,5.73-0.97,13.8,0.39,9.05,1.53,14,1.87,14.9,0.81,0.93-1.21-3.24-4.24-12.45-9.33-8.39-4.64-18.98-12.16-23.8-16.91-4.78-4.72-11.88-10.08-15.75-11.91-5.12-2.41-6.77-4.05-6.11-5.95,1.15-3.31,9.19-3.34,14.39-0.06,2.12,1.33,7.66,2.4,12.3,2.37l8.47-0.06-5.6-2.28c-5.6-2.27-20.83-13.1-22.01-15.55-0.02-0.05-0.05-0.12-0.06-0.16v-0.06-0.04-0.03s0.03-0.03,0.03-0.03c0.01-0.01,0.02-0.03,0.03-0.03,0.01-0.01,0.03-0.03,0.03-0.04,0.62-0.46,4.13-0.65,8.35-0.42l8.46,0.49-12.18-9.4c-8.94-6.89-14.44-9.85-20.74-11.19-4.71-1-10.11-2.19-12-2.63-5.05-1.19-13.54-10.03-16.99-17.73l-3.01-6.73zm-27.76,47.42c0.19-0.01,0.39,0,0.59,0,1.57,0,2.71,0.38,3.19,0.97,0.01,0.02,0.05,0.05,0.06,0.07,0.01,0.01,0.02,0.05,0.03,0.06,0.05,0.09,0.09,0.2,0.11,0.3,0.01,0.02,0.03,0.07,0.03,0.09,0.01,0.04,0,0.1,0,0.13s0.01,0.08,0,0.1c0,0.04-0.02,0.12-0.03,0.16,0,0.03-0.02,0.07-0.03,0.1-0.32,1.09-2.09,3.07-3.95,4.42-1.42,1.04-2.26,1.61-2.74,1.53-0.03,0-0.09-0.02-0.12-0.03-0.01-0.01-0.04-0.02-0.06-0.03-0.02-0.02-0.06-0.07-0.09-0.1-0.32-0.39-0.38-1.45-0.38-3.32,0-3.42,0.63-4.35,3.39-4.45zm41.09,4.23h0.09c2.4,0,4.01,1.12,4.34,2.99,0.4,2.31-0.56,2.96-4.34,2.96-2.12,0-3.36-0.22-3.95-0.82-0.44-0.46-0.53-1.15-0.36-2.14,0.33-1.84,1.89-2.96,4.22-2.99zm-12.03,1c2.08-0.16,2.92,1.07,2.92,3.71,0,3.18-1.22,4.17-6.93,5.63-3.61,0.92-6.92,1.34-7.61,1.01-0.02-0.01-0.05-0.03-0.06-0.04-0.01,0-0.03-0.03-0.03-0.03-1.98-2.18-0.25-4.98,4.69-7.58,3.17-1.67,5.45-2.57,7.02-2.7zm27.7,0.04c3.05-0.1,3.43,1.34,1.94,5.62-0.51,1.48-2.64,2.67-4.72,2.67-3.04,0-3.7-0.74-3.3-3.81,0.35-2.73,1.69-3.97,4.72-4.35,0.5-0.07,0.95-0.12,1.36-0.13zm-46.73,8.29c0.11-0.01,0.23,0,0.33,0,3.7,0,1.39,6.98-3.37,10.18-4.23,2.85-8.73,4.07-10,2.96,0-0.01-0.02-0.03-0.03-0.03-0.08-0.09-0.15-0.19-0.2-0.3-0.01-0.01-0.03-0.05-0.03-0.06-0.01-0.02-0.03-0.08-0.03-0.1-0.01-0.01-0.03-0.05-0.03-0.06-0.01-0.03,0-0.08,0-0.1-0.01-0.04-0.03-0.12-0.03-0.16v-0.04c0.1-3.81,9.02-11.91,13.39-12.29zm34.78,16.16c1.76-0.21,2.88,1.72,2.27,5.27-0.34,1.98-2.1,3.34-4.75,3.68-2.02,0.25-3.27,0.16-3.74-0.39-0.01-0.01-0.03-0.03-0.03-0.04-0.03-0.02-0.05-0.06-0.06-0.09-0.01-0.02-0.03-0.06-0.03-0.07-0.01,0-0.03-0.02-0.03-0.03-0.02-0.03-0.02-0.1-0.03-0.13-0.24-0.95,0.73-2.71,2.89-5.56,1.25-1.65,2.49-2.51,3.51-2.64zm-13.84,0.78h0.24c3.54,0,4.12,3.12,0.92,5.01-1.48,0.87-2.92,1.53-3.4,1.6-0.01,0-0.04,0.03-0.06,0.03-0.01,0-0.05-0.03-0.06-0.03-0.26-0.1-2.22-0.73-4.33-1.44l-3.84-1.3,4.34-1.95c2.23-0.99,4.91-1.82,6.19-1.92zm29.83,3.91c1.67-0.09,3.48,0.23,5.25,0.97,3.2,1.34,3.82,2.51,3.21,6.02-0.82,4.77-3.43,5.3-12.33,2.47-4.37-1.39-4.82-2.06-3.42-4.94,1.34-2.75,4.09-4.35,7.29-4.52zm-66.02,1.17h0.3c6.47,0,7.37,1.12,4.21,5.27-1.05,1.38-3.06,3.5-4.48,4.68-2.17,1.8-2.84,1.61-4.22-1.24-1.64-3.39-2.16-5.61-1.35-6.96,0.74-1.19,2.56-1.72,5.54-1.75zm-17.05,2.86c2.76-0.08,4.47,1.23,6.67,5.01l3.1,5.33-4.64,1.79c-4.22,1.62-4.93,1.32-8.43-3.61-2.21-3.11-3.05-5.17-2.45-6.47,0.05-0.12,0.13-0.26,0.21-0.36,0.02-0.03,0.06-0.07,0.08-0.1,0.03-0.02,0.07-0.07,0.09-0.09,0.79-0.8,2.39-1.23,4.81-1.44,0.2-0.01,0.38-0.06,0.56-0.06zm102,15.97c3.07-0.25,6.21,1.91,5.76,5.4-0.57,4.42-5.41,5.7-9.38,2.5-2.38-1.91-2.46-2.62-0.62-5.4,1.05-1.59,2.64-2.37,4.24-2.5zm-57.9,8.29c0.11-0.01,0.24,0,0.35,0,0.26,0,0.5,0.06,0.71,0.13,0.13,0.05,0.28,0.12,0.39,0.2,0.03,0.02,0.08,0.07,0.11,0.09,0.02,0.02,0.05,0.06,0.06,0.07,0.02,0.01,0.05,0.05,0.06,0.06,0.01,0.02,0.05,0.05,0.06,0.07,0.47,0.6,0.63,1.64,0.44,3.06-0.61,4.56-3.63,5.9-4.92,2.18-1.16-3.33-0.04-5.68,2.74-5.86zm-19.35,3.51c1.3-0.17,3.44,0.69,5.57,2.48,1.46,1.21,2.06,2.38,2.04,3.25,0,0.08-0.02,0.18-0.03,0.26-0.01,0.04-0.02,0.12-0.03,0.16-0.01,0.03-0.04,0.1-0.06,0.13-0.02,0.05-0.06,0.12-0.09,0.16-0.01,0.02-0.02,0.05-0.03,0.07-0.01,0.01-0.04,0.05-0.05,0.06-0.05,0.07-0.12,0.14-0.18,0.2-0.02,0.01-0.05,0.05-0.06,0.06-0.89,0.69-2.77,0.53-4.93-1.14-1.78-1.37-3.25-3.17-3.39-4.09v-0.07-0.06c0-0.88,0.46-1.36,1.24-1.47zm30.77,0.65c0.6-0.05,1.22,0.54,2.27,1.7,1.31,1.44,2.86,4.22,3.42,6.17,1.35,4.7-0.78,6.66-4.96,4.52-4.48-2.28-5.57-5.9-2.98-9.98,0.99-1.56,1.61-2.35,2.25-2.41zm10.73,6.38c1.14-0.16,2.69,1.55,3.07,4.42,0.22,1.68-0.01,3.11-0.53,3.55-0.01,0-0.02,0.02-0.03,0.03s-0.04,0.02-0.06,0.03-0.07,0.03-0.09,0.03c0,0.01-0.02,0.03-0.03,0.04,0,0-0.02-0.01-0.03,0-0.01,0-0.04-0.01-0.06,0h-0.02-0.03c-2.2,0-3.46-1.98-3.46-5.5,0-1.68,0.57-2.51,1.27-2.6zm-67.43,6.76c2.26,0,4.24,0.12,5.55,0.39,2.15,0.45,3.58,1.06,4.27,1.79,0.15,0.16,0.28,0.35,0.36,0.52,0.03,0.09,0.07,0.21,0.09,0.29,0.03,0.18,0.03,0.4,0,0.59-0.26,1.32-2.15,2.93-5.67,4.78-2.91,1.54-7.84,3.31-10.97,3.9-5.2,0.99-5.91,0.63-8.08-4-1.29-2.74-2.33-5.35-2.36-5.85v-0.03c0-0.02-0.01-0.06,0-0.07,0,0,0.02-0.02,0.03-0.03,0-0.01,0.02-0.05,0.03-0.07,0,0,0.02-0.02,0.03-0.03,1.08-1.12,10.09-2.17,16.72-2.18zm104.6,15.22c6.06-0.26,9.32,3.83,2.74,8.91-4.23,3.27-10.45,3.41-14.3,0.3-2.78-2.24-2.64-2.56,2.42-5.95,3.19-2.15,6.44-3.14,9.14-3.26zm22.06,4.78c0.11-0.01,0.23,0,0.33,0,0.89,0,2.96,1.06,4.6,2.38,2.92,2.35,2.91,2.51-0.74,6.8-1.89,2.21-3.81,3.95-4.48,4.09h-0.03-0.03-0.03-0.03c-0.49-0.15-3.15-0.56-5.9-0.94-3.05-0.42-4.98-1.65-4.98-3.15,0-0.07,0.01-0.16,0.03-0.23,0.48-2.54,8.05-8.55,11.26-8.95zm-110.94,6.77c0.28-0.02,0.62,0,0.98,0,4.16,0,6.46,3.43,6.46,9.66,0,8.37-5.11,7.7-7.47-0.98-2.05-7.55-2.25-8.55,0.03-8.68zm31.71,2.37c2.51-0.08,8.59,1.32,9.38,2.28,0.01,0,0.03,0.03,0.03,0.03l0.03,0.03c0.01,0.01,0,0.03,0,0.04l0.03,0.03v0.03,0.03,0.04c-0.08,0.64-1.7,3.28-3.66,5.92l-3.59,4.84-1.89-6.24c-0.93-3.12-1.51-5.92-1.39-6.64v-0.03c0-0.01,0.03-0.02,0.03-0.03v-0.03c0.01-0.01,0.03-0.03,0.03-0.04,0.01,0,0.02-0.02,0.03-0.03,0,0,0.03-0.03,0.03-0.03,0-0.01,0.02,0,0.03,0,0,0,0.02-0.03,0.03-0.03,0.01-0.01,0.04-0.03,0.06-0.04,0.19-0.07,0.47-0.12,0.82-0.13zm-15.42,2.77c0.45-0.05,1.16,0.07,2.15,0.23,1.98,0.31,3.8,1.95,4.1,3.7,0.37,2.13,0.16,3.62-0.35,4.39-0.04,0.06-0.11,0.15-0.15,0.2-0.05,0.05-0.12,0.12-0.18,0.16-0.02,0.02-0.07,0.05-0.09,0.07-0.1,0.06-0.24,0.13-0.35,0.16-0.05,0.01-0.13,0.03-0.18,0.03-0.08,0.01-0.2,0.01-0.29,0-1.03-0.13-2.36-1.4-3.51-3.87-1.34-2.84-1.95-4.19-1.71-4.75,0.02-0.04,0.06-0.1,0.08-0.13,0.11-0.1,0.26-0.17,0.48-0.19z" fill="#00a651"/>
</svg>
