<?xml version="1.0" encoding="UTF-8" standalone="no"?>
<!-- Created with Inkscape (http://www.inkscape.org/) -->
<svg id="svg551" xmlns:rdf="http://www.w3.org/1999/02/22-rdf-syntax-ns#" xmlns="http://www.w3.org/2000/svg" viewBox="0 0 1200 600" version="1.0" xmlns:cc="http://creativecommons.org/ns#" xmlns:xlink="http://www.w3.org/1999/xlink" xmlns:dc="http://purl.org/dc/elements/1.1/">
<rect id="rect628" style="fill:#ffb700;" height="600" width="1200" y="0" x="0"/>
<rect id="rect626" style="fill:#ff5b00;" height="500" width="165" y="50" x="215"/>
<rect id="rect625" style="fill:#005641;" height="500" width="165" y="50" x="50"/>
<rect id="rect627" style="fill:#8d2029;" height="500" width="725" y="50" x="430"/>
<use id="use3712" xlink:href="#path2389" transform="matrix(-1,0,0,1,1585,0)" height="600" width="1200" y="0" x="0"/>
<use id="use3710" xlink:href="#path2389" transform="matrix(1,0,0,-1,0,600)" height="600" width="1200" y="0" x="0"/>
<use id="use3714" xlink:href="#path2389" transform="matrix(-1,0,0,-1,1585,600)" height="600" width="1200" y="0" x="0"/>
<path id="path2389" style="stroke-linejoin:miter;fill-rule:evenodd;stroke:#000000;stroke-linecap:butt;stroke-miterlimit:4;stroke-dasharray:none;stroke-width:2.12575722;fill:#ffb700;" d="M498.94,466.06s-6.8,13.84-14.31,19.48c-11.13,8.36-33.95,7.76-43.63,17.5-11.6,11.5,0.9,26.69,0.8,28l-0.64,8.02s7.82,0.1,11.12,0.61c4.95,0.77,6.88,4.81,16.11,4.21,23.19-1.51,22.25-22.4,23.56-40.25,1.17-6.8,3.86-15.67,5.39-22.46,1.32-5.83,1.6-15.11,1.6-15.11z"/>
<path id="path3768" style="stroke:#000000;stroke-dasharray:none;stroke-miterlimit:4;stroke-width:5.55984545;fill:#000000;" d="M681.54,479.56,685.9,477.04,687.76,479.56c2.49,3.36,9.36,3.32,13.92-0.08l3.49-2.6,2.92,2.6c3.84,3.42,11.01,3.42,15.59,0.02,3.21-2.39,3.66-2.44,5.78-0.62,1.26,1.08,4.97,2.31,8.23,2.74,5.89,0.76,5.97,0.72,9.42-4.45,2.88-4.32,3.33-6.07,2.64-10.26-0.45-2.79-0.95-7.26-1.09-9.95-0.26-4.87-0.23-4.9,6.86-7.37,3.92-1.36,8.45-3.19,10.08-4.07,2.83-1.52,10.64-10.69,10.64-12.5,0-0.48-3.05-1.22-6.78-1.64-14.83-1.66-17.35-9.62-7.7-24.42,15.72-24.13,25.21-47.62,25.27-62.59,0.03-6.69,0.41-8.94,1.27-7.48,3.52,5.94-2.78,30.87-12.31,48.78l-3.84,7.2,3.66-0.84c2.02-0.46,13.86-5.46,26.33-11.11,34.11-15.45,45.83-18.47,67.91-17.54,18.49,0.77,26.37,4.39,39.43,18.09,6.92,7.25,13.58,12.44,25.78,20.08,25.97,16.25,27.05,17.66,28.29,36.78,1.25,19.38,0.63,20.43-14.02,23.67-12.53,2.76-20.38,8.6-22.49,16.71-1.12,4.33,1.25,4.46,7.56,0.4l4.63-2.97,2.06,2.97c2.7,3.91,8.45,3.93,13.22,0.04l3.61-2.94,3.69,2.94c5.73,4.56,13.35,3.45,15.5-2.26,0.41-1.09,1.51-0.74,3.75,1.2,4.18,3.64,14.91,5.2,16.07,2.34,0.44-1.09-0.4-3.79-1.87-5.99-6.24-9.36-8.19-13.83-8.27-18.92-0.12-7.09,2-10.51,10.06-16.27,9.75-7,12.85-16.03,5.35-16.03-4.58,0-9.21-4.06-12.17-10.69-6.01-13.46-4.83-28.55,4.19-53.65,9.18-25.5,10.18-30.21,10.18-47.26,0.1-13.79-0.3-16.17-3.4-23.73-1.94-4.63-5.84-11.51-8.68-15.3l-5.16-6.89,6.63-5.49c20.21-16.76,16.11-44.2-8.26-54.77-7.45-3.23-9.32-3.52-22.38-3.43-7.83,0.05-19.78,1.08-26.54,2.29-6.9,1.23-18.58,2.22-26.59,2.25-12.72,0.06-14.88-0.26-19.79-2.87-5.11-2.72-5.99-4.01-6.99-10.3-0.2-1.3-1.11-2.59-2.01-2.87-1.73-0.55-9.77,6.42-10.95,9.51-0.59,1.52-1.07,1.42-2.78-0.61-1.14-1.35-2.74-4.45-3.54-6.89-2.03-6.14,0.46-10.74,7.67-14.18l5.6-2.68-3.3-2.04c-6.81-4.23-18.39-1.34-22.58,5.63-1.18,1.97-2.47,3.59-2.87,3.59-0.39,0.01-2.64-1.87-5-4.18-8.79-8.59-5.76-21.29,5.99-25.17,6.27-2.07,11.82-0.49,12.98,3.69,1.76,6.38,7.24-2.01,6.25-9.59-0.65-5.03-0.55-5.21,2.93-5.21,4.85,0,15.17,6.36,18.36,11.32,3.71,5.76,3.44,14.82-0.64,21.58l-3.21,5.31,4.19-0.84c6.15-1.23,12.12-5.05,15.14-9.68,3.19-4.89,3.53-14.41,0.7-19.55-2.74-4.98-2.43-5.77,1.63-4.09,6.89,2.86,10.58,6.02,13.35,11.43,2.49,4.87,2.63,6.09,1.28,11.16-0.83,3.13-2.68,7.24-4.12,9.15-2.22,2.96-2.3,3.45-0.52,3.45,3.3,0,10.2-3.12,12.65-5.73,1.24-1.32,3.05-4.57,4.02-7.22l1.76-4.81,2.02,3.67c2.86,5.19,8.42,9.86,15.2,12.77,7.3,3.13,10.33,3.3,6.52,0.38-2.57-1.98-7.31-15.88-5.88-17.24,0.85-0.8,10.75,6.82,22.06,16.97,10.69,9.6,17.41,12.74,27.26,12.74,12.5,0,19.8-10.92,14.2-21.25-3.3-6.02-10.6-6.86-14.9-1.7-2,2.37-2.5,4.26-1.9,6.75,0.7,3.04,0.4,3.45-2.39,3.45-3.64,0-10.83-4.67-23.6-15.32-19.47-16.25-43.13-30.02-60.21-35.05-10.97-3.23-34.39-4.49-45.53-2.45-12.06,2.2-26.33,9.11-34.1,16.5-13.78,13.09-13.99,30.52-0.59,46.38l3.85,4.55-2.6,4.04c-3.79,5.87-3.46,13.78,0.8,19.61,1.88,2.56,3.77,4.66,4.21,4.66,0.43,0,0.91-1.65,1.06-3.67,0.38-5.09,2.57-8.51,6.32-9.86,3.38-1.22,5.57-0.64,21.05,5.54,16.29,6.5,43.08,6.95,71.56,1.19,13.97-2.82,30.43-2.65,37.68,0.38,13.28,5.56,16.35,20.04,6.59,31.02-4.22,4.76-8.3,6.7-21.98,10.45-10.41,2.86-12.88,3.05-36.54,2.81-20.22-0.2-27.49,0.19-35.74,1.91-8.96,1.87-14.47,2.06-40.79,1.4l-30.43-0.77,3.37,2.8c1.86,1.53,4.48,3.42,5.83,4.2,2.3,1.32,2.22,1.49-1.19,2.76-2.01,0.74-6.46,1.35-9.89,1.35h-6.24l-0.84,5.3c-0.47,2.92-0.43,6.33,0.07,7.58,0.75,1.83,0.47,2.1-1.47,1.39-1.31-0.47-4.97-1.41-8.12-2.08-3.16-0.67-7.41-2.04-9.45-3.03-3.42-1.68-3.8-1.64-5.06,0.6-1.13,1.99-11.7,9.86-13.26,9.86-0.25,0-0.57-1.52-0.71-3.37-0.15-1.86-1.67-6.69-3.39-10.73-1.72-4.05-3.52-8.46-4-9.81-0.71-2.04-1.04-2.14-1.9-0.62-0.57,1.01-1.41,3.77-1.86,6.13-0.45,2.37-2.04,6.2-3.54,8.53l-2.73,4.23-1.73-3.62c-1.87-3.88-4.96-7.91-6.09-7.91-0.37,0-1.02,1.24-1.43,2.76-0.85,3.17-8.19,11.96-9.99,11.96-0.66,0-1.2-2.49-1.2-5.52,0-3.04-0.58-5.52-1.29-5.52-0.72,0-1.3,0.79-1.3,1.75,0,2.33-6.27,9.29-8.37,9.29-0.92,0-2.4,0.83-3.28,1.84-2.31,2.64-4.21,2.27-3.23-0.64,0.45-1.35,0.16-4.53-0.66-7.05s-1.69-5.2-1.93-5.95c-0.31-0.96-2.56-0.71-7.32,0.82-7.68,2.46-10.26,2.03-6.31-1.07,1.45-1.13,3.65-5.05,4.89-8.71s3.07-6.9,4.07-7.21c1.39-0.44,1.32,0.1-0.33,2.32-1.17,1.59-2.14,3.74-2.14,4.77s-0.89,3.47-1.97,5.42c-1.07,1.96-1.75,3.75-1.5,3.99,0.25,0.23,3.17-0.88,6.5-2.47l6.04-2.9,0.03,2.59c0.01,1.43,0.74,5.19,1.62,8.36l1.59,5.77,4.11-1.89c4.21-1.93,8.19-8.82,8.19-14.16,0-2.64,1.51-2.24,2.13,0.57,0.18,0.82,1.13,3.91,2.11,6.87l1.78,5.37,2.82-3.39c1.55-1.87,3.49-5.53,4.32-8.13,1.43-4.53,3.67-6.48,3.67-3.19,0,2.37,6.47,10.86,7.71,10.13,0.61-0.35,1.81-3.54,2.67-7.08,1.8-7.37,4.69-12.38,6.54-11.3,0.69,0.4,0.96,1.19,0.6,1.74-0.37,0.56,1.12,5.35,3.3,10.65,2.19,5.3,4.38,10.64,4.87,11.86,0.8,1.96,1.52,1.67,6.2-2.46,2.91-2.57,5.55-5.44,5.87-6.39,0.48-1.43,1.13-1.38,3.85,0.31,3.81,2.36,16.61,6.17,17.59,5.23,0.37-0.35,0.75-3.71,0.85-7.47l0.17-6.83,3.68,0.76c2.02,0.42,6.28,0.4,9.46-0.05l5.78-0.82-5.15-3.54c-2.84-1.94-5.7-4.45-6.37-5.58-0.71-1.21-3.23-2.23-6.08-2.47-7.72-0.66-21.39-8.33-21.39-12,0-0.69,1.89,0.48,4.21,2.6,5.13,4.71,12.26,7.67,18.49,7.67h4.67l-2.89-3.84c-1.65-2.2-3.14-6.38-3.49-9.82-0.55-5.48-1.13-6.35-6.86-10.33-3.43-2.39-7.69-5.98-9.46-7.96l-3.21-3.62-1.64,4.29c-0.9,2.36-2,4.3-2.45,4.3-0.44,0-2.17-1.38-3.85-3.07-1.67-1.69-3.37-3.06-3.78-3.05s-1.9,2.28-3.3,5.05l-2.54,5.03-1.97-2.9c-1.09-1.6-3.64-4.42-5.69-6.28-2.04-1.85-3.11-3.37-2.38-3.37s3.25,1.93,5.6,4.3l4.28,4.29,1.74-3.15c1.03-1.86,1.42-4.73,0.95-7.05-0.68-3.38-0.59-3.58,0.71-1.45,0.82,1.34,3.32,3.93,5.56,5.74l4.06,3.3,2.8-5.14c2.79-5.11,2.81-5.12,4.08-2.07,1.7,4.09,13.98,14.15,24.44,20.04,1.61,0.9,0.93-2.21-2.05-9.38-0.78-1.9-1.43-5.33-1.43-7.61,0-3.39-0.98-4.9-5.31-8.2-6.26-4.76-8.29-8.15-9.47-15.83-0.47-3.12-1.57-6.58-2.43-7.7-1.28-1.66-1.49-0.73-1.15,5.05,0.23,3.89-0.27,8.73-1.12,10.76l-1.55,3.68-1.19-3.07c-0.66-1.69-3.56-4.62-6.45-6.52-2.9-1.89-4.93-3.76-4.52-4.15,0.42-0.39,3.39,1.34,6.62,3.84,4.91,3.81,5.99,4.23,6.68,2.55,0.8-1.98-0.01-10.57-1.55-16.57-0.77-2.99-0.7-2.98,2.99,0.72,2.73,2.72,4.24,5.98,5.4,11.65,1.49,7.21,2.24,8.41,8.9,14.26,4,3.51,7.49,6.19,7.74,5.95s0.76-9.33,1.12-20.2c0.7-20.84-0.09-25.8-5.11-32.24l-2.58-3.31,4.06-4.37c5.29-5.71,7.71-10.28,8.77-16.52l0.85-5.07-4.57,4.33c-3.75,3.55-5.54,4.33-9.87,4.33-4.3,0-5.98-0.72-8.87-3.8-3.48-3.7-9.63-7.27-15.55-9-2.19-0.64-2.92-0.36-2.92,1.12,0,1.08-1.21,4.21-2.68,6.95l-2.69,4.99-5.62-5.56c-3.45-3.41-7.54-6.07-10.59-6.87-7.78-2.04-8.2-1.84-8.2,3.96,0,8.79-3.75,10.43-10.51,4.58-5.15-4.45-9.43-5.42-19.19-4.35l-7.55,0.83,1.36,3.41c1.14,2.84,0.88,4.04-1.55,7.27-3.94,5.24-9.06,7.51-16.95,7.51-3.63,0-8.17,0.75-10.1,1.67-1.92,0.92-6.7,1.98-10.62,2.35-3.91,0.38-8.09,1.05-9.27,1.49-1.86,0.69-2.06,0.12-1.46-4.1,0.91-6.46-3.6-11.22-10.63-11.22-9.12,0-13.33,8.16-9.76,18.92,0.69,2.07,1.59,5.34,2,7.26,0.43,1.99,4.54,7.28,9.57,12.32,4.85,4.85,9.43,9.9,10.19,11.22,0.75,1.32,3.24,3.44,5.53,4.71l4.16,2.3-0.55-4.45c-0.6-4.89,0.46-5.66,3.06-2.21,0.94,1.24,3.3,3.23,5.26,4.44,3.08,1.89,3.56,1.93,3.56,0.28,0-1.04,0.63-3.45,1.4-5.35l1.39-3.45,2.43,4.7c1.33,2.58,5.67,8.45,9.64,13.04,7.7,8.91,12.39,18.87,9.97,21.17-0.99,0.93-3.64,0.85-9.14-0.25-4.27-0.86-9.54-1.31-11.72-1.01-4.46,0.62-4.81,0.05-2.07-3.39,2.89-3.62,2.43-4.22-3.25-4.22-6.58,0-22.9-3.15-29.17-5.63-6.09-2.41-7.5-1.81-9.29,3.97-0.81,2.6-2.29,7.31-3.29,10.47l-1.81,5.75,6.59-0.64c3.63-0.35,8.29-1.14,10.36-1.76,2.08-0.62,3.96-0.95,4.19-0.73,0.23,0.21-0.69,2.46-2.05,4.98l-2.47,4.6,4.11-0.84c2.26-0.46,5.66-1.59,7.56-2.51,3.3-1.59,3.56-1.48,6.16,2.7,3.2,5.14,5.76,4.93,6.33-0.52,0.59-5.63,2.44-4.8,5.93,2.66,3.35,7.18,6.84,9.71,7.51,5.46,0.22-1.41,2.02-3.71,4.01-5.11,4.01-2.83,7.04-1.98,8.77,2.46,1.8,4.59-2.21,9.33-13.85,16.39-23.33,14.14-36.89,33.48-40.76,58.13-3.49,22.23,7.41,45.2,29.29,61.71,10.47,7.89,27.1,16.23,26.04,13.05-4.49-13.51-4.34-39.28,0.25-43.62,0.69-0.66,0.46,2.03-0.52,5.97-3.65,14.67-2.06,26.36,7.28,53.76,8.45,24.79,7.28,35.38-4.68,42.38-3.84,2.25-6.32,2.62-16.64,2.49-11.21-0.14-12.43,0.09-16.03,2.96-3.49,2.78-8.01,11.9-8.01,16.16,0,2.31,2.56,2,7.6-0.9zm84.59-214.93c0-1.8-5.28-6.67-10.63-9.81-4.21-2.47-4.9-2.55-4.91-0.53-0.02,3.05-2.73,10.73-3.8,10.73-0.6,0-1.49-1.5-1.98-3.34-0.48-1.83-2.52-5.44-4.53-8.03l-3.64-4.69-2.84,4.35c-2.65,4.05-7.23,8.03-9.27,8.03-0.48,0-0.58-2.14-0.21-4.75,0.4-2.84,0.09-5.09-0.77-5.59-0.79-0.47-1.44-0.3-1.44,0.36,0,1.53-6.37,8.75-7.72,8.75-0.55,0-1.33-2.07-1.72-4.6-0.4-2.53-1.07-6.53-1.5-8.89-0.42-2.36,0.49-0.76,2.02,3.56l2.79,7.85,3.06-4.79c1.68-2.63,3.06-5.5,3.06-6.39,0-0.88,0.57-1.27,1.26-0.86,0.7,0.4,1.66,3.56,2.14,7.02l0.88,6.3,3.37-3.69c1.85-2.03,4.02-4.75,4.82-6.04,1.42-2.3,1.51-2.3,4.34,0.11,1.59,1.35,4.04,4.57,5.44,7.17,1.4,2.59,2.73,4.52,2.96,4.29s0.74-2.91,1.14-5.94c0.39-3.04,0.75-5.64,0.78-5.77,0.2-0.76,10.14,5.7,13.82,8.97,2.36,2.11,4.6,3.53,4.98,3.17s0.69-3.46,0.69-6.89c0-5.32-0.56-6.74-3.81-9.65-3.74-3.34-3.85-3.36-5.23-0.91-1.79,3.17-3.91,3.21-3.91,0.08,0-2.29-7.06-11.08-8.9-11.08-0.48,0-1.96,1.93-3.31,4.29-1.34,2.36-2.78,4.29-3.2,4.29-1.82-0.01-11.78-11.12-11.77-13.12,0-1.6,0.67-1.19,2.41,1.47,1.33,2.03,3.98,5.05,5.89,6.72,3.88,3.38,5.29,2.55,6.78-3.96,0.43-1.85,1.17-3.37,1.64-3.37,1.66,0,10.33,9.21,11.55,12.26l1.23,3.07,0.92-3.37c1.14-4.13,2.39-4.28,4.2-0.52,0.75,1.58,4.49,4.84,8.3,7.27l6.93,4.4,1.39-4.43c0.76-2.44,1.77-3.84,2.25-3.11,0.7,1.08-1.1,8.42-2.46,10-0.2,0.24-2.44-1.07-4.98-2.9l-4.62-3.34-0.02,5.97c-0.01,3.29-0.37,7.22-0.8,8.73-0.84,2.97-3.07,3.81-3.07,1.15zm-34.53-47.6c-8.23-6.88-9.48-8.45-9.3-11.7l0.19-3.47,0.54,3.35c0.32,1.95,2.51,4.88,5.27,7.04l4.73,3.69,2.91-3.36c1.6-1.85,2.93-4.05,2.95-4.9,0.07-2.2,0.47-2.01,6.04,2.82,4.95,4.3,5.03,4.32,5.76,1.54,0.41-1.55,0.27-4.48-0.32-6.49-1.62-5.55-1.3-6.39,1.15-3.04,1.22,1.66,3.19,4.02,4.37,5.23,2.05,2.12,2.17,2.09,2.94-0.61,0.44-1.55,0.8-4.39,0.81-6.31l0.02-3.49,4.46,5.06c4.17,4.73,4.56,4.91,5.83,2.65,0.75-1.32,1.37-4.51,1.38-7.09,0.02-3.32,0.37-4.16,1.21-2.89,1.42,2.11,0.44,7.87-2.17,12.77l-1.87,3.52-2.46-3.83c-3.14-4.89-4.19-4.81-6.2,0.47-1.91,4.99-3.15,5.37-5,1.53-1.21-2.48-1.43-2.18-2.29,3.04l-0.94,5.8-5.68-4.41-5.68-4.41-2.55,2.91c-1.41,1.59-2.58,3.59-2.6,4.43-0.05,1.83-1.42,1.89-3.5,0.15zm73.22-25.6c-2.99-2.7-5.06-5.27-4.58-5.72,0.47-0.45,1-0.58,1.18-0.29s2.63,2.87,5.44,5.73c6.49,6.57,5.15,6.76-2.04,0.28zm-97.53-10.08c-2.73-3.68-2.54-6.13,0.78-10.12,2.4-2.89,3.49-3.28,7.68-2.75,2.68,0.34,8.46,2.72,12.84,5.28,5.05,2.95,10.28,4.93,14.33,5.42,3.51,0.43,6.38,0.59,6.38,0.36s-1.46-2.6-3.24-5.28c-4.23-6.34-4.08-7.02,0.69-3.22,4.89,3.9,10.75,5.04,23.83,4.65l6.4-0.2-3.71-3.66c-5.19-5.13-3.59-5.59,2.14-0.62,5.37,4.66,5.03,4.99-6.28,6.12-4.8,0.48-9.97,0.13-14.26-0.96-6.43-1.64-6.68-1.61-5.46,0.54,0.7,1.24,1.84,2.26,2.53,2.26,0.68,0,1.24,0.63,1.24,1.4,0,2.36-13.87,0.28-20.51-3.07-15.15-7.68-17.05-8.34-20.66-7.2-2.01,0.63-4.02,2.48-4.71,4.33-2.31,6.19,6.47,11,10.09,5.53,1.05-1.58,0.8-2.67-1.04-4.6-2.53-2.64-2.29-3.02,1.12-1.78,2.42,0.88,2.74,6.69,0.49,8.82-2.57,2.44-8.45,1.75-10.67-1.25zm59.68-15.28c-1.89-1.8-0.41-2.24,8.09-2.4,10.51-0.19,16.89-1.94,24.42-6.7,6.03-3.8,7.67-3.06,1.94,0.89-5.22,3.61-13.37,6.38-21.24,7.22-3.81,0.41-8.15,0.98-9.65,1.27-1.49,0.28-3.09,0.15-3.56-0.28zm90.26,312.99,4.7-3.02,3.19,3.02c4.18,3.96,9.08,3.87,13.1-0.24,1.75-1.79,3.33-3.03,3.5-2.76,0.17,0.28,0.95,1.61,1.74,2.96,0.99,1.7,3.03,2.56,6.72,2.82,4.44,0.32,5.63-0.11,7.4-2.66l2.1-3.05,4.63,2.98c12.67,8.14,19.42-0.4,13.76-17.41-2.88-8.65-1.3-13.52,7.98-24.52,3.91-4.65,7.12-9.6,7.12-11.01,0-2.26-0.72-2.56-5.93-2.46-4.98,0.1-6.44-0.43-9.06-3.32-4.27-4.7-4.02-10.08,0.75-16.04l3.81-4.77-6.76-4.59c-3.72-2.52-10.42-8.49-14.9-13.27-10.05-10.71-19.94-15.8-32.97-16.95l-8.74-0.77,0.01,6.61c0.02,8.52,4.01,16.71,14.93,30.59,12.4,15.78,13.27,18.22,13.77,38.85l0.42,17.44-3.59,3.4c-3.24,3.08-4.7,3.47-15.17,4.08-9.96,0.57-12.06,1.09-14.98,3.68-3.88,3.44-5.04,5.31-6.24,10.06-0.7,2.77-0.42,3.37,1.58,3.37,1.34,0,4.55-1.36,7.13-3.02zm-266.63-45.08c1.11-1.5,2.01-3.92,2.01-5.38,0-2.2,0.99-2.79,5.84-3.48l5.83-0.83-3.89-3.1c-4.62-3.68-5.05-6.56-0.98-6.56,4.06,0,10.93-4.21,11.97-7.33,0.49-1.45,0.18-3.38-0.69-4.38-2.27-2.59-6.55-2.2-7.34,0.67-0.85,3.1-2.28,3.1-5.52,0.04-4.88-4.62-4.99-14.17-0.23-19.74,2.24-2.62,2.22-2.79-0.63-5.5-3.08-2.91-5.27-8.67-3.83-10.04,0.46-0.43,2.89-0.09,5.4,0.77,3.56,1.22,4.97,1.24,6.44,0.09,4.45-3.5-0.37-8-7.51-7.01-2.87,0.4-4.06,0-4.47-1.49-0.31-1.13-2.82-2.6-5.65-3.32-5.06-1.27-5.09-1.26-5.09,2.23,0,3.81-2.18,4.53-6.33,2.08-3.36-1.99-6.62-0.44-6.62,3.14,0,3.35,3.36,4.99,9.38,4.61,4.63-0.3,4.8,3.14,0.41,8.08l-3.16,3.55,2.5,3.59c3.71,5.32,3.39,14.16-0.65,18.55l-3.17,3.44-2.08-2.76c-2.9-3.83-6.85-3.58-7.94,0.52-0.71,2.68-0.12,3.9,3.24,6.74,2.25,1.91,5.54,3.47,7.31,3.47,4.38,0,4.21,3.44-0.34,6.92l-3.56,2.72,5.5,0.86c3.03,0.47,5.51,1.35,5.51,1.96,0,2.34,3.81,9.62,5.04,9.62,0.7,0,2.19-1.23,3.3-2.73zm71.66-31.06c5-1.97,15.82-11.13,15.82-13.39,0-0.72-2.99-4-6.64-7.3-7.68-6.95-16.04-18.66-18.2-25.51-1.13-3.56-6.59-9.67-21.95-24.58l-20.45-19.83-5.89,1.49c-3.25,0.83-7.2,1.52-8.79,1.54-2.75,0.04-2.7,0.2,0.95,3.02l3.85,2.98,5.4-2.99c5.23-2.91,5.41-2.92,6.06-0.59,0.38,1.37-0.44,3.74-1.89,5.48-1.4,1.69-2.2,3.6-1.77,4.26,0.43,0.65-0.92,2.01-2.99,3.03-3.84,1.88-6.51,8.07-3.48,8.07,2.73,0,8.74-7.42,8.05-9.93-0.36-1.28-0.19-2.6,0.38-2.93,2.34-1.37,2.19,4.45-0.19,7.31-1.4,1.69-2.2,3.61-1.77,4.26s-0.92,2.01-2.99,3.03c-3.82,1.87-6.51,8.07-3.51,8.07,2.95,0,8.86-7.09,8.13-9.74-0.38-1.39-0.24-2.79,0.33-3.12,1.57-0.93,2.43,3.67,1.09,5.92-0.71,1.21-0.7,2.86,0.02,4.16,1.31,2.37-0.02,6.91-2.43,8.33-1.03,0.6-0.33,1.79,2.18,3.68,3.63,2.75,3.7,3.04,3.7,15.14,0,10.11,0.4,12.72,2.26,14.48,2.09,1.97,2.27,1.98,2.27,0.09,0-2.07,3.63-4.6,6.6-4.6,0.88,0,6.35,4.64,12.17,10.31,5.85,5.7,11.97,10.56,13.71,10.87,1.72,0.31,3.58,0.63,4.14,0.72,0.56,0.1,3.18-0.68,5.83-1.73zm-62.52-48.92c0-3.26-6.73-6.74-14.77-7.65-6.49-0.72-6.6-0.68-6.6,2.56,0,2.69,1.02,3.74,5.5,5.69,7.21,3.14,15.87,2.81,15.87-0.6zm7.37-0.3c3.28-2.98,4.84-6.52,2.86-6.52-2.27,0-8.29,5.41-8.29,7.44,0,3.18,1.12,2.99,5.43-0.92zm-6.99-9.64c0.27-1.84-0.86-3.06-4.27-4.6-7.36-3.33-16.15-4.87-18.27-3.2-3.9,3.07-1.3,7.18,5,7.92,2.54,0.3,5.98,1.07,7.65,1.72,4.84,1.88,9.45,1.03,9.89-1.84zm0-9.85c0.39-2.62-1.29-3.56-14.98-8.38-10.23-3.6-14.75-1.9-11.49,4.3,1.14,2.17,3.05,3.15,7.34,3.8,3.18,0.47,7.54,1.41,9.68,2.07,5.71,1.77,9,1.15,9.45-1.79zm6.86-9.23c2.07-2.1,3.76-4.57,3.76-5.5,0-3-8.16,2.32-9.2,6-1.25,4.42,0.77,4.23,5.44-0.5zm-6.86-0.62c0.45-2.99-4.52-5.69-14.29-7.76-7.17-1.53-10.34-0.66-9.8,2.67,0.29,1.82,2.68,3.15,9.46,5.26,10.84,3.39,14.1,3.35,14.63-0.17zm9.56-13.91c12.52-5.58,13.61-19.64,1.8-23.33-4.91-1.53-8.04-0.71-9.91,2.61-1.44,2.55-0.48,7.17,1.49,7.17,0.66,0,1.2,0.86,1.2,1.9,0,4.89-19.12,7.1-26.96,3.12-2.76-1.39-3.96-5.02-1.66-5.02,1.71,0,2.9-3.69,2.02-6.3-1.19-3.56-4.78-4.8-9.98-3.44-11.74,3.07-11.41,16.87,0.54,22.72,9.8,4.8,31.29,5.09,41.46,0.57zm-7.79-10.81c0.72-0.68,0.41-1.74-0.81-2.7-2.66-2.09-2.52-5.2,0.4-8.76,2.19-2.68,2.47-6.68,3.22-47.08,1.3-69.61,6.48-121.97,13.3-134.53,2.72-5,2.34-5.02-4.68-0.25-9.04,6.16-15.93,14.17-22.03,25.64-11.51,21.65-15.51,50.77-15.51,112.95,0,35.31,0.24,39.93,2.25,43.24,1.91,3.16,2.01,4.32,0.67,7.69-0.87,2.18-1.27,4.27-0.88,4.63,2.57,2.44,21.3,1.79,24.07-0.83zm105.23-66.38c0.4-0.6-0.47-3.63-1.92-6.74-2.27-4.85-3.18-5.65-6.4-5.65-10.11,0-26.35-4.52-43.09-11.98-9.66-4.31-13-5.3-14.16-4.2-2.96,2.8,1.95,9.45,9.57,12.95,6.75,3.1,25.63,6.91,34.25,6.91,4.99,0,5.11,0.22,2.27,4.33l-2.09,3.02,5.65,0.15c3.11,0.08,7.4,0.57,9.54,1.08,5.54,1.34,5.6,1.34,6.38,0.13z"/>
<path id="path3018" style="fill:#ffb700;" d="M681.54,479.56,685.9,477.04,687.76,479.56c2.49,3.36,9.36,3.32,13.92-0.08l3.49-2.6,2.92,2.6c3.84,3.42,11.01,3.42,15.59,0.02,3.21-2.39,3.66-2.44,5.78-0.62,1.26,1.08,4.97,2.31,8.23,2.74,5.89,0.76,5.97,0.72,9.42-4.45,2.88-4.32,3.33-6.07,2.64-10.26-0.45-2.79-0.95-7.26-1.09-9.95-0.26-4.87-0.23-4.9,6.86-7.37,3.92-1.36,8.45-3.19,10.08-4.07,2.83-1.52,10.64-10.69,10.64-12.5,0-0.48-3.05-1.22-6.78-1.64-14.83-1.66-17.35-9.62-7.7-24.42,15.72-24.13,25.21-47.62,25.27-62.59,0.03-6.69,0.41-8.94,1.27-7.48,3.52,5.94-2.78,30.87-12.31,48.78l-3.84,7.2,3.66-0.84c2.02-0.46,13.86-5.46,26.33-11.11,34.11-15.45,45.83-18.47,67.91-17.54,18.49,0.77,26.37,4.39,39.43,18.09,6.92,7.25,13.58,12.44,25.78,20.08,25.97,16.25,27.05,17.66,28.29,36.78,1.25,19.38,0.63,20.43-14.02,23.67-12.53,2.76-20.38,8.6-22.49,16.71-1.12,4.33,1.25,4.46,7.56,0.4l4.63-2.97,2.06,2.97c2.7,3.91,8.45,3.93,13.22,0.04l3.61-2.94,3.69,2.94c5.73,4.56,13.35,3.45,15.5-2.26,0.41-1.09,1.51-0.74,3.75,1.2,4.18,3.64,14.91,5.2,16.07,2.34,0.44-1.09-0.4-3.79-1.87-5.99-6.24-9.36-8.19-13.83-8.27-18.92-0.12-7.09,2-10.51,10.06-16.27,9.75-7,12.85-16.03,5.35-16.03-4.58,0-9.21-4.06-12.17-10.69-6.01-13.46-4.83-28.55,4.19-53.65,9.18-25.5,10.18-30.21,10.18-47.26,0.1-13.79-0.3-16.17-3.4-23.73-1.94-4.63-5.84-11.51-8.68-15.3l-5.16-6.89,6.63-5.49c20.21-16.76,16.11-44.2-8.26-54.77-7.45-3.23-9.32-3.52-22.38-3.43-7.83,0.05-19.78,1.08-26.54,2.29-6.9,1.23-18.58,2.22-26.59,2.25-12.72,0.06-14.88-0.26-19.79-2.87-5.11-2.72-5.99-4.01-6.99-10.3-0.2-1.3-1.11-2.59-2.01-2.87-1.73-0.55-9.77,6.42-10.95,9.51-0.59,1.52-1.07,1.42-2.78-0.61-1.14-1.35-2.74-4.45-3.54-6.89-2.03-6.14,0.46-10.74,7.67-14.18l5.6-2.68-3.3-2.04c-6.81-4.23-18.39-1.34-22.58,5.63-1.18,1.97-2.47,3.59-2.87,3.59-0.39,0.01-2.64-1.87-5-4.18-8.79-8.59-5.76-21.29,5.99-25.17,6.27-2.07,11.82-0.49,12.98,3.69,1.76,6.38,7.24-2.01,6.25-9.59-0.65-5.03-0.55-5.21,2.93-5.21,4.85,0,15.17,6.36,18.36,11.32,3.71,5.76,3.44,14.82-0.64,21.58l-3.21,5.31,4.19-0.84c6.15-1.23,12.12-5.05,15.14-9.68,3.19-4.89,3.53-14.41,0.7-19.55-2.74-4.98-2.43-5.77,1.63-4.09,6.89,2.86,10.58,6.02,13.35,11.43,2.49,4.87,2.63,6.09,1.28,11.16-0.83,3.13-2.68,7.24-4.12,9.15-2.22,2.96-2.3,3.45-0.52,3.45,3.3,0,10.2-3.12,12.65-5.73,1.24-1.32,3.05-4.57,4.02-7.22l1.76-4.81,2.02,3.67c2.86,5.19,8.42,9.86,15.2,12.77,7.3,3.13,10.33,3.3,6.52,0.38-2.57-1.98-7.31-15.88-5.88-17.24,0.85-0.8,10.75,6.82,22.06,16.97,10.69,9.6,17.41,12.74,27.26,12.74,12.5,0,19.8-10.92,14.2-21.25-3.3-6.02-10.6-6.86-14.9-1.7-2,2.37-2.5,4.26-1.9,6.75,0.7,3.04,0.4,3.45-2.39,3.45-3.64,0-10.83-4.67-23.6-15.32-19.47-16.25-43.13-30.02-60.21-35.05-10.97-3.23-34.39-4.49-45.53-2.45-12.06,2.2-26.33,9.11-34.1,16.5-13.78,13.09-13.99,30.52-0.59,46.38l3.85,4.55-2.6,4.04c-3.79,5.87-3.46,13.78,0.8,19.61,1.88,2.56,3.77,4.66,4.21,4.66,0.43,0,0.91-1.65,1.06-3.67,0.38-5.09,2.57-8.51,6.32-9.86,3.38-1.22,5.57-0.64,21.05,5.54,16.29,6.5,43.08,6.95,71.56,1.19,13.97-2.82,30.43-2.65,37.68,0.38,13.28,5.56,16.35,20.04,6.59,31.02-4.22,4.76-8.3,6.7-21.98,10.45-10.41,2.86-12.88,3.05-36.54,2.81-20.22-0.2-27.49,0.19-35.74,1.91-8.96,1.87-14.47,2.06-40.79,1.4l-30.43-0.77,3.37,2.8c1.86,1.53,4.48,3.42,5.83,4.2,2.3,1.32,2.22,1.49-1.19,2.76-2.01,0.74-6.46,1.35-9.89,1.35h-6.24l-0.84,5.3c-0.47,2.92-0.43,6.33,0.07,7.58,0.75,1.83,0.47,2.1-1.47,1.39-1.31-0.47-4.97-1.41-8.12-2.08-3.16-0.67-7.41-2.04-9.45-3.03-3.42-1.68-3.8-1.64-5.06,0.6-1.13,1.99-11.7,9.86-13.26,9.86-0.25,0-0.57-1.52-0.71-3.37-0.15-1.86-1.67-6.69-3.39-10.73-1.72-4.05-3.52-8.46-4-9.81-0.71-2.04-1.04-2.14-1.9-0.62-0.57,1.01-1.41,3.77-1.86,6.13-0.45,2.37-2.04,6.2-3.54,8.53l-2.73,4.23-1.73-3.62c-1.87-3.88-4.96-7.91-6.09-7.91-0.37,0-1.02,1.24-1.43,2.76-0.85,3.17-8.19,11.96-9.99,11.96-0.66,0-1.2-2.49-1.2-5.52,0-3.04-0.58-5.52-1.29-5.52-0.72,0-1.3,0.79-1.3,1.75,0,2.33-6.27,9.29-8.37,9.29-0.92,0-2.4,0.83-3.28,1.84-2.31,2.64-4.21,2.27-3.23-0.64,0.45-1.35,0.16-4.53-0.66-7.05s-1.69-5.2-1.93-5.95c-0.31-0.96-2.56-0.71-7.32,0.82-7.68,2.46-10.26,2.03-6.31-1.07,1.45-1.13,3.65-5.05,4.89-8.71s3.07-6.9,4.07-7.21c1.39-0.44,1.32,0.1-0.33,2.32-1.17,1.59-2.14,3.74-2.14,4.77s-0.89,3.47-1.97,5.42c-1.07,1.96-1.75,3.75-1.5,3.99,0.25,0.23,3.17-0.88,6.5-2.47l6.04-2.9,0.03,2.59c0.01,1.43,0.74,5.19,1.62,8.36l1.59,5.77,4.11-1.89c4.21-1.93,8.19-8.82,8.19-14.16,0-2.64,1.51-2.24,2.13,0.57,0.18,0.82,1.13,3.91,2.11,6.87l1.78,5.37,2.82-3.39c1.55-1.87,3.49-5.53,4.32-8.13,1.43-4.53,3.67-6.48,3.67-3.19,0,2.37,6.47,10.86,7.71,10.13,0.61-0.35,1.81-3.54,2.67-7.08,1.8-7.37,4.69-12.38,6.54-11.3,0.69,0.4,0.96,1.19,0.6,1.74-0.37,0.56,1.12,5.35,3.3,10.65,2.19,5.3,4.38,10.64,4.87,11.86,0.8,1.96,1.52,1.67,6.2-2.46,2.91-2.57,5.55-5.44,5.87-6.39,0.48-1.43,1.13-1.38,3.85,0.31,3.81,2.36,16.61,6.17,17.59,5.23,0.37-0.35,0.75-3.71,0.85-7.47l0.17-6.83,3.68,0.76c2.02,0.42,6.28,0.4,9.46-0.05l5.78-0.82-5.15-3.54c-2.84-1.94-5.7-4.45-6.37-5.58-0.71-1.21-3.23-2.23-6.08-2.47-7.72-0.66-21.39-8.33-21.39-12,0-0.69,1.89,0.48,4.21,2.6,5.13,4.71,12.26,7.67,18.49,7.67h4.67l-2.89-3.84c-1.65-2.2-3.14-6.38-3.49-9.82-0.55-5.48-1.13-6.35-6.86-10.33-3.43-2.39-7.69-5.98-9.46-7.96l-3.21-3.62-1.64,4.29c-0.9,2.36-2,4.3-2.45,4.3-0.44,0-2.17-1.38-3.85-3.07-1.67-1.69-3.37-3.06-3.78-3.05s-1.9,2.28-3.3,5.05l-2.54,5.03-1.97-2.9c-1.09-1.6-3.64-4.42-5.69-6.28-2.04-1.85-3.11-3.37-2.38-3.37s3.25,1.93,5.6,4.3l4.28,4.29,1.74-3.15c1.03-1.86,1.42-4.73,0.95-7.05-0.68-3.38-0.59-3.58,0.71-1.45,0.82,1.34,3.32,3.93,5.56,5.74l4.06,3.3,2.8-5.14c2.79-5.11,2.81-5.12,4.08-2.07,1.7,4.09,13.98,14.15,24.44,20.04,1.61,0.9,0.93-2.21-2.05-9.38-0.78-1.9-1.43-5.33-1.43-7.61,0-3.39-0.98-4.9-5.31-8.2-6.26-4.76-8.29-8.15-9.47-15.83-0.47-3.12-1.57-6.58-2.43-7.7-1.28-1.66-1.49-0.73-1.15,5.05,0.23,3.89-0.27,8.73-1.12,10.76l-1.55,3.68-1.19-3.07c-0.66-1.69-3.56-4.62-6.45-6.52-2.9-1.89-4.93-3.76-4.52-4.15,0.42-0.39,3.39,1.34,6.62,3.84,4.91,3.81,5.99,4.23,6.68,2.55,0.8-1.98-0.01-10.57-1.55-16.57-0.77-2.99-0.7-2.98,2.99,0.72,2.73,2.72,4.24,5.98,5.4,11.65,1.49,7.21,2.24,8.41,8.9,14.26,4,3.51,7.49,6.19,7.74,5.95s0.76-9.33,1.12-20.2c0.7-20.84-0.09-25.8-5.11-32.24l-2.58-3.31,4.06-4.37c5.29-5.71,7.71-10.28,8.77-16.52l0.85-5.07-4.57,4.33c-3.75,3.55-5.54,4.33-9.87,4.33-4.3,0-5.98-0.72-8.87-3.8-3.48-3.7-9.63-7.27-15.55-9-2.19-0.64-2.92-0.36-2.92,1.12,0,1.08-1.21,4.21-2.68,6.95l-2.69,4.99-5.62-5.56c-3.45-3.41-7.54-6.07-10.59-6.87-7.78-2.04-8.2-1.84-8.2,3.96,0,8.79-3.75,10.43-10.51,4.58-5.15-4.45-9.43-5.42-19.19-4.35l-7.55,0.83,1.36,3.41c1.14,2.84,0.88,4.04-1.55,7.27-3.94,5.24-9.06,7.51-16.95,7.51-3.63,0-8.17,0.75-10.1,1.67-1.92,0.92-6.7,1.98-10.62,2.35-3.91,0.38-8.09,1.05-9.27,1.49-1.86,0.69-2.06,0.12-1.46-4.1,0.91-6.46-3.6-11.22-10.63-11.22-9.12,0-13.33,8.16-9.76,18.92,0.69,2.07,1.59,5.34,2,7.26,0.43,1.99,4.54,7.28,9.57,12.32,4.85,4.85,9.43,9.9,10.19,11.22,0.75,1.32,3.24,3.44,5.53,4.71l4.16,2.3-0.55-4.45c-0.6-4.89,0.46-5.66,3.06-2.21,0.94,1.24,3.3,3.23,5.26,4.44,3.08,1.89,3.56,1.93,3.56,0.28,0-1.04,0.63-3.45,1.4-5.35l1.39-3.45,2.43,4.7c1.33,2.58,5.67,8.45,9.64,13.04,7.7,8.91,12.39,18.87,9.97,21.17-0.99,0.93-3.64,0.85-9.14-0.25-4.27-0.86-9.54-1.31-11.72-1.01-4.46,0.62-4.81,0.05-2.07-3.39,2.89-3.62,2.43-4.22-3.25-4.22-6.58,0-22.9-3.15-29.17-5.63-6.09-2.41-7.5-1.81-9.29,3.97-0.81,2.6-2.29,7.31-3.29,10.47l-1.81,5.75,6.59-0.64c3.63-0.35,8.29-1.14,10.36-1.76,2.08-0.62,3.96-0.95,4.19-0.73,0.23,0.21-0.69,2.46-2.05,4.98l-2.47,4.6,4.11-0.84c2.26-0.46,5.66-1.59,7.56-2.51,3.3-1.59,3.56-1.48,6.16,2.7,3.2,5.14,5.76,4.93,6.33-0.52,0.59-5.63,2.44-4.8,5.93,2.66,3.35,7.18,6.84,9.71,7.51,5.46,0.22-1.41,2.02-3.71,4.01-5.11,4.01-2.83,7.04-1.98,8.77,2.46,1.8,4.59-2.21,9.33-13.85,16.39-23.33,14.14-36.89,33.48-40.76,58.13-3.49,22.23,7.41,45.2,29.29,61.71,10.47,7.89,27.1,16.23,26.04,13.05-4.49-13.51-4.34-39.28,0.25-43.62,0.69-0.66,0.46,2.03-0.52,5.97-3.65,14.67-2.06,26.36,7.28,53.76,8.45,24.79,7.28,35.38-4.68,42.38-3.84,2.25-6.32,2.62-16.64,2.49-11.21-0.14-12.43,0.09-16.03,2.96-3.49,2.78-8.01,11.9-8.01,16.16,0,2.31,2.56,2,7.6-0.9zm84.59-214.93c0-1.8-5.28-6.67-10.63-9.81-4.21-2.47-4.9-2.55-4.91-0.53-0.02,3.05-2.73,10.73-3.8,10.73-0.6,0-1.49-1.5-1.98-3.34-0.48-1.83-2.52-5.44-4.53-8.03l-3.64-4.69-2.84,4.35c-2.65,4.05-7.23,8.03-9.27,8.03-0.48,0-0.58-2.14-0.21-4.75,0.4-2.84,0.09-5.09-0.77-5.59-0.79-0.47-1.44-0.3-1.44,0.36,0,1.53-6.37,8.75-7.72,8.75-0.55,0-1.33-2.07-1.72-4.6-0.4-2.53-1.07-6.53-1.5-8.89-0.42-2.36,0.49-0.76,2.02,3.56l2.79,7.85,3.06-4.79c1.68-2.63,3.06-5.5,3.06-6.39,0-0.88,0.57-1.27,1.26-0.86,0.7,0.4,1.66,3.56,2.14,7.02l0.88,6.3,3.37-3.69c1.85-2.03,4.02-4.75,4.82-6.04,1.42-2.3,1.51-2.3,4.34,0.11,1.59,1.35,4.04,4.57,5.44,7.17,1.4,2.59,2.73,4.52,2.96,4.29s0.74-2.91,1.14-5.94c0.39-3.04,0.75-5.64,0.78-5.77,0.2-0.76,10.14,5.7,13.82,8.97,2.36,2.11,4.6,3.53,4.98,3.17s0.69-3.46,0.69-6.89c0-5.32-0.56-6.74-3.81-9.65-3.74-3.34-3.85-3.36-5.23-0.91-1.79,3.17-3.91,3.21-3.91,0.08,0-2.29-7.06-11.08-8.9-11.08-0.48,0-1.96,1.93-3.31,4.29-1.34,2.36-2.78,4.29-3.2,4.29-1.82-0.01-11.78-11.12-11.77-13.12,0-1.6,0.67-1.19,2.41,1.47,1.33,2.03,3.98,5.05,5.89,6.72,3.88,3.38,5.29,2.55,6.78-3.96,0.43-1.85,1.17-3.37,1.64-3.37,1.66,0,10.33,9.21,11.55,12.26l1.23,3.07,0.92-3.37c1.14-4.13,2.39-4.28,4.2-0.52,0.75,1.58,4.49,4.84,8.3,7.27l6.93,4.4,1.39-4.43c0.76-2.44,1.77-3.84,2.25-3.11,0.7,1.08-1.1,8.42-2.46,10-0.2,0.24-2.44-1.07-4.98-2.9l-4.62-3.34-0.02,5.97c-0.01,3.29-0.37,7.22-0.8,8.73-0.84,2.97-3.07,3.81-3.07,1.15zm-34.53-47.6c-8.23-6.88-9.48-8.45-9.3-11.7l0.19-3.47,0.54,3.35c0.32,1.95,2.51,4.88,5.27,7.04l4.73,3.69,2.91-3.36c1.6-1.85,2.93-4.05,2.95-4.9,0.07-2.2,0.47-2.01,6.04,2.82,4.95,4.3,5.03,4.32,5.76,1.54,0.41-1.55,0.27-4.48-0.32-6.49-1.62-5.55-1.3-6.39,1.15-3.04,1.22,1.66,3.19,4.02,4.37,5.23,2.05,2.12,2.17,2.09,2.94-0.61,0.44-1.55,0.8-4.39,0.81-6.31l0.02-3.49,4.46,5.06c4.17,4.73,4.56,4.91,5.83,2.65,0.75-1.32,1.37-4.51,1.38-7.09,0.02-3.32,0.37-4.16,1.21-2.89,1.42,2.11,0.44,7.87-2.17,12.77l-1.87,3.52-2.46-3.83c-3.14-4.89-4.19-4.81-6.2,0.47-1.91,4.99-3.15,5.37-5,1.53-1.21-2.48-1.43-2.18-2.29,3.04l-0.94,5.8-5.68-4.41-5.68-4.41-2.55,2.91c-1.41,1.59-2.58,3.59-2.6,4.43-0.05,1.83-1.42,1.89-3.5,0.15zm73.22-25.6c-2.99-2.7-5.06-5.27-4.58-5.72,0.47-0.45,1-0.58,1.18-0.29s2.63,2.87,5.44,5.73c6.49,6.57,5.15,6.76-2.04,0.28zm-97.53-10.08c-2.73-3.68-2.54-6.13,0.78-10.12,2.4-2.89,3.49-3.28,7.68-2.75,2.68,0.34,8.46,2.72,12.84,5.28,5.05,2.95,10.28,4.93,14.33,5.42,3.51,0.43,6.38,0.59,6.38,0.36s-1.46-2.6-3.24-5.28c-4.23-6.34-4.08-7.02,0.69-3.22,4.89,3.9,10.75,5.04,23.83,4.65l6.4-0.2-3.71-3.66c-5.19-5.13-3.59-5.59,2.14-0.62,5.37,4.66,5.03,4.99-6.28,6.12-4.8,0.48-9.97,0.13-14.26-0.96-6.43-1.64-6.68-1.61-5.46,0.54,0.7,1.24,1.84,2.26,2.53,2.26,0.68,0,1.24,0.63,1.24,1.4,0,2.36-13.87,0.28-20.51-3.07-15.15-7.68-17.05-8.34-20.66-7.2-2.01,0.63-4.02,2.48-4.71,4.33-2.31,6.19,6.47,11,10.09,5.53,1.05-1.58,0.8-2.67-1.04-4.6-2.53-2.64-2.29-3.02,1.12-1.78,2.42,0.88,2.74,6.69,0.49,8.82-2.57,2.44-8.45,1.75-10.67-1.25zm59.68-15.28c-1.89-1.8-0.41-2.24,8.09-2.4,10.51-0.19,16.89-1.94,24.42-6.7,6.03-3.8,7.67-3.06,1.94,0.89-5.22,3.61-13.37,6.38-21.24,7.22-3.81,0.41-8.15,0.98-9.65,1.27-1.49,0.28-3.09,0.15-3.56-0.28zm90.26,312.99,4.7-3.02,3.19,3.02c4.18,3.96,9.08,3.87,13.1-0.24,1.75-1.79,3.33-3.03,3.5-2.76,0.17,0.28,0.95,1.61,1.74,2.96,0.99,1.7,3.03,2.56,6.72,2.82,4.44,0.32,5.63-0.11,7.4-2.66l2.1-3.05,4.63,2.98c12.67,8.14,19.42-0.4,13.76-17.41-2.88-8.65-1.3-13.52,7.98-24.52,3.91-4.65,7.12-9.6,7.12-11.01,0-2.26-0.72-2.56-5.93-2.46-4.98,0.1-6.44-0.43-9.06-3.32-4.27-4.7-4.02-10.08,0.75-16.04l3.81-4.77-6.76-4.59c-3.72-2.52-10.42-8.49-14.9-13.27-10.05-10.71-19.94-15.8-32.97-16.95l-8.74-0.77,0.01,6.61c0.02,8.52,4.01,16.71,14.93,30.59,12.4,15.78,13.27,18.22,13.77,38.85l0.42,17.44-3.59,3.4c-3.24,3.08-4.7,3.47-15.17,4.08-9.96,0.57-12.06,1.09-14.98,3.68-3.88,3.44-5.04,5.31-6.24,10.06-0.7,2.77-0.42,3.37,1.58,3.37,1.34,0,4.55-1.36,7.13-3.02zm-266.63-45.08c1.11-1.5,2.01-3.92,2.01-5.38,0-2.2,0.99-2.79,5.84-3.48l5.83-0.83-3.89-3.1c-4.62-3.68-5.05-6.56-0.98-6.56,4.06,0,10.93-4.21,11.97-7.33,0.49-1.45,0.18-3.38-0.69-4.38-2.27-2.59-6.55-2.2-7.34,0.67-0.85,3.1-2.28,3.1-5.52,0.04-4.88-4.62-4.99-14.17-0.23-19.74,2.24-2.62,2.22-2.79-0.63-5.5-3.08-2.91-5.27-8.67-3.83-10.04,0.46-0.43,2.89-0.09,5.4,0.77,3.56,1.22,4.97,1.24,6.44,0.09,4.45-3.5-0.37-8-7.51-7.01-2.87,0.4-4.06,0-4.47-1.49-0.31-1.13-2.82-2.6-5.65-3.32-5.06-1.27-5.09-1.26-5.09,2.23,0,3.81-2.18,4.53-6.33,2.08-3.36-1.99-6.62-0.44-6.62,3.14,0,3.35,3.36,4.99,9.38,4.61,4.63-0.3,4.8,3.14,0.41,8.08l-3.16,3.55,2.5,3.59c3.71,5.32,3.39,14.16-0.65,18.55l-3.17,3.44-2.08-2.76c-2.9-3.83-6.85-3.58-7.94,0.52-0.71,2.68-0.12,3.9,3.24,6.74,2.25,1.91,5.54,3.47,7.31,3.47,4.38,0,4.21,3.44-0.34,6.92l-3.56,2.72,5.5,0.86c3.03,0.47,5.51,1.35,5.51,1.96,0,2.34,3.81,9.62,5.04,9.62,0.7,0,2.19-1.23,3.3-2.73zm71.66-31.06c5-1.97,15.82-11.13,15.82-13.39,0-0.72-2.99-4-6.64-7.3-7.68-6.95-16.04-18.66-18.2-25.51-1.13-3.56-6.59-9.67-21.95-24.58l-20.45-19.83-5.89,1.49c-3.25,0.83-7.2,1.52-8.79,1.54-2.75,0.04-2.7,0.2,0.95,3.02l3.85,2.98,5.4-2.99c5.23-2.91,5.41-2.92,6.06-0.59,0.38,1.37-0.44,3.74-1.89,5.48-1.4,1.69-2.2,3.6-1.77,4.26,0.43,0.65-0.92,2.01-2.99,3.03-3.84,1.88-6.51,8.07-3.48,8.07,2.73,0,8.74-7.42,8.05-9.93-0.36-1.28-0.19-2.6,0.38-2.93,2.34-1.37,2.19,4.45-0.19,7.31-1.4,1.69-2.2,3.61-1.77,4.26s-0.92,2.01-2.99,3.03c-3.82,1.87-6.51,8.07-3.51,8.07,2.95,0,8.86-7.09,8.13-9.74-0.38-1.39-0.24-2.79,0.33-3.12,1.57-0.93,2.43,3.67,1.09,5.92-0.71,1.21-0.7,2.86,0.02,4.16,1.31,2.37-0.02,6.91-2.43,8.33-1.03,0.6-0.33,1.79,2.18,3.68,3.63,2.75,3.7,3.04,3.7,15.14,0,10.11,0.4,12.72,2.26,14.48,2.09,1.97,2.27,1.98,2.27,0.09,0-2.07,3.63-4.6,6.6-4.6,0.88,0,6.35,4.64,12.17,10.31,5.85,5.7,11.97,10.56,13.71,10.87,1.72,0.31,3.58,0.63,4.14,0.72,0.56,0.1,3.18-0.68,5.83-1.73zm-62.52-48.92c0-3.26-6.73-6.74-14.77-7.65-6.49-0.72-6.6-0.68-6.6,2.56,0,2.69,1.02,3.74,5.5,5.69,7.21,3.14,15.87,2.81,15.87-0.6zm7.37-0.3c3.28-2.98,4.84-6.52,2.86-6.52-2.27,0-8.29,5.41-8.29,7.44,0,3.18,1.12,2.99,5.43-0.92zm-6.99-9.64c0.27-1.84-0.86-3.06-4.27-4.6-7.36-3.33-16.15-4.87-18.27-3.2-3.9,3.07-1.3,7.18,5,7.92,2.54,0.3,5.98,1.07,7.65,1.72,4.84,1.88,9.45,1.03,9.89-1.84zm0-9.85c0.39-2.62-1.29-3.56-14.98-8.38-10.23-3.6-14.75-1.9-11.49,4.3,1.14,2.17,3.05,3.15,7.34,3.8,3.18,0.47,7.54,1.41,9.68,2.07,5.71,1.77,9,1.15,9.45-1.79zm6.86-9.23c2.07-2.1,3.76-4.57,3.76-5.5,0-3-8.16,2.32-9.2,6-1.25,4.42,0.77,4.23,5.44-0.5zm-6.86-0.62c0.45-2.99-4.52-5.69-14.29-7.76-7.17-1.53-10.34-0.66-9.8,2.67,0.29,1.82,2.68,3.15,9.46,5.26,10.84,3.39,14.1,3.35,14.63-0.17zm9.56-13.91c12.52-5.58,13.61-19.64,1.8-23.33-4.91-1.53-8.04-0.71-9.91,2.61-1.44,2.55-0.48,7.17,1.49,7.17,0.66,0,1.2,0.86,1.2,1.9,0,4.89-19.12,7.1-26.96,3.12-2.76-1.39-3.96-5.02-1.66-5.02,1.71,0,2.9-3.69,2.02-6.3-1.19-3.56-4.78-4.8-9.98-3.44-11.74,3.07-11.41,16.87,0.54,22.72,9.8,4.8,31.29,5.09,41.46,0.57zm-7.79-10.81c0.72-0.68,0.41-1.74-0.81-2.7-2.66-2.09-2.52-5.2,0.4-8.76,2.19-2.68,2.47-6.68,3.22-47.08,1.3-69.61,6.48-121.97,13.3-134.53,2.72-5,2.34-5.02-4.68-0.25-9.04,6.16-15.93,14.17-22.03,25.64-11.51,21.65-15.51,50.77-15.51,112.95,0,35.31,0.24,39.93,2.25,43.24,1.91,3.16,2.01,4.32,0.67,7.69-0.87,2.18-1.27,4.27-0.88,4.63,2.57,2.44,21.3,1.79,24.07-0.83zm105.23-66.38c0.4-0.6-0.47-3.63-1.92-6.74-2.27-4.85-3.18-5.65-6.4-5.65-10.11,0-26.35-4.52-43.09-11.98-9.66-4.31-13-5.3-14.16-4.2-2.96,2.8,1.95,9.45,9.57,12.95,6.75,3.1,25.63,6.91,34.25,6.91,4.99,0,5.11,0.22,2.27,4.33l-2.09,3.02,5.65,0.15c3.11,0.08,7.4,0.57,9.54,1.08,5.54,1.34,5.6,1.34,6.38,0.13z"/>
<metadata id="metadata2992">
<rdf:RDF>
<cc:Work rdf:about="">
<dc:title/>
<dc:format>image/svg+xml</dc:format>
<dc:type rdf:resource="http://purl.org/dc/dcmitype/StillImage"/>
</cc:Work>
</rdf:RDF>
</metadata>
</svg>
