<?xml version="1.0" encoding="UTF-8" standalone="no"?>
<svg id="svg2" xmlns:rdf="http://www.w3.org/1999/02/22-rdf-syntax-ns#" xmlns="http://www.w3.org/2000/svg" height="600" width="900" version="1.0" xmlns:cc="http://creativecommons.org/ns#" xmlns:dc="http://purl.org/dc/elements/1.1/" viewBox="0 0 450 300">
<metadata id="metadata32">
<rdf:RDF>
<cc:Work rdf:about="">
<dc:format>image/svg+xml</dc:format>
<dc:type rdf:resource="http://purl.org/dc/dcmitype/StillImage"/>
<dc:title/>
</cc:Work>
</rdf:RDF>
</metadata>
<rect id="rect4" width="450" fill="white" height="300"/>
<rect id="rect6" y="210" width="450" fill="#009543" height="90"/>
<rect id="rect8" width="450" fill="#00209f" height="90"/>
<g id="g10" transform="matrix(1.136951,0,0,1.136951,-30.56399,-28.2596)">
<path id="path1873" style="stroke-linejoin:miter;stroke:black;stroke-width:0.87954509px;stroke-linecap:butt;fill:black;" d="M224.57,108.91c-1.5,0.04-2.97,1.7-2.97,1.7l0.13,17.8-5.62,5.88h4.55l-0.04,10.21-26.9,36.23-3.98-1.38-6.95,14.83s17.19,10.77,42.15,10.48c27.39-0.33,42.27-10.97,42.27-10.97l-7.18-14.64-3.52,1.53-27.25-36.05-0.04-10.5h4.55l-6.19-5.82,0.04-17.73s-1.54-1.6-3.05-1.57z"/>
<path id="path2760" style="stroke-linejoin:miter;stroke:black;stroke-linecap:butt;stroke-miterlimit:4;stroke-dasharray:none;stroke-width:4.39772797;fill:none;" d="M233.95,151.52h-18.6s-6.75-14.23-5.66-24.18c1.11-10.12,6.9-14.92,14.6-15,9.1-0.1,13.87,4.46,15.31,14.6,1.42,10.05-5.65,24.58-5.65,24.58z"/>
<path id="path3649" style="fill:white;" d="M192.05,185.43c-0.3,0.41-2.53,4.87-2.53,4.87l3.85-0.81-1.32-4.06z"/>
<path id="path3651" style="fill:white;" d="M194.28,191.21l-4.05,1.32,4.86,1.93-0.81-3.25z"/>
<path id="path3653" style="fill:white;" d="M196.11,185.54l2.02,5.98,4.97-1.42-1.32-2.84-5.67-1.72z"/>
<path id="path3655" style="fill:white;" d="M199.25,193.65l0.71,2.43,6.59,1.62-2.64-5.58-4.66,1.53z"/>
<path id="path3657" style="fill:white;" d="M206.55,188.58l2.33,5.57,4.97-1.92-1.63-2.44-5.67-1.21z"/>
<path id="path3659" style="fill:white;" d="M209.79,196.18l0.81,2.13,7.71,1.11-3.25-5.06-5.27,1.82z"/>
<path id="path3661" style="fill:white;" d="M217.19,190.2l2.84,4.97,7.2-2.64-0.81-1.93-9.23-0.4z"/>
<path id="path3663" style="fill:white;" d="M221.35,196.99l1.52,2.64,8.92-0.31-3.34-4.96-7.1,2.63z"/>
<path id="path3665" style="fill:white;" d="M230.78,190.4l2.43,4.16,5.68-2.74-1.52-2.23-6.59,0.81z"/>
<path id="path3667" style="fill:white;" d="M240.1,193.54l-5.67,2.84,1.52,2.44,7.6-1.22-3.45-4.06z"/>
<path id="path3669" style="fill:white;" d="M241.93,189.18l2.94,3.65,4.76-3.75-1.62-1.72-6.08,1.82z"/>
<path id="path3671" style="fill:white;" d="M250.65,191.11l-4.56,3.45,1.21,2.13,6.29-1.63-2.94-3.95z"/>
<path id="path3673" style="fill:white;" d="M256.93,183.91l1.12,1.63-3.14,4.66-3.25-4.16,5.27-2.13z"/>
<path id="path3675" style="fill:white;" d="M259.06,187.97l1.93,3.85-3.85,1.32-0.31-1.83,2.23-3.34z"/>
</g>
</svg>
