<?xml version="1.0" encoding="UTF-8" standalone="no"?>
<svg id="svg2" xmlns:rdf="http://www.w3.org/1999/02/22-rdf-syntax-ns#" xmlns="http://www.w3.org/2000/svg" viewBox="0 0 900 600" version="1.1" xmlns:cc="http://creativecommons.org/ns#" xmlns:dc="http://purl.org/dc/elements/1.1/">
<metadata id="metadata11">
<rdf:RDF>
<cc:Work rdf:about="">
<dc:format>image/svg+xml</dc:format>
<dc:type rdf:resource="http://purl.org/dc/dcmitype/StillImage"/>
<dc:title/>
</cc:Work>
</rdf:RDF>
</metadata>
<rect id="rect4" width="900" style="fill:#c1272d;" height="600"/>
<path id="star" style="fill:#006233;" d="M449.97,200,427.53,269.28,354.75,269.34,413.59,312.16,391.16,381.5c15.16-11.12,42.62-31.05,58.84-42.81l58.91,42.78-22.5-69.28,58.84-42.88h-72.72l-22.56-69.31zm58.81-134.06,7.15,21.84-14.24,0.03,7.09-21.87zm-27.22,36.5-4.37,13.59-18.6-13.53,22.97-0.06zm15.37,0,23.76,0,7.34,22.62-19.22,14-19.22-14,7.34-22.62zm39.13,0,22.94,0-18.53,13.59-4.41-13.59zm-51.22,37.31,11.56,8.34-18.59,13.53,7.03-21.87zm48,0,7.03,21.87-18.56-13.5,0-0.03,11.53-8.34z"/>
</svg>
