<?xml version="1.0" encoding="UTF-8" standalone="no"?>
<svg id="svg2" xmlns:rdf="http://www.w3.org/1999/02/22-rdf-syntax-ns#" xmlns="http://www.w3.org/2000/svg" height="360" width="684" version="1.1" xmlns:cc="http://creativecommons.org/ns#" xmlns:dc="http://purl.org/dc/elements/1.1/" viewBox="0 0 570 300">
<metadata id="metadata18">
<rdf:RDF>
<cc:Work rdf:about="">
<dc:format>image/svg+xml</dc:format>
<dc:type rdf:resource="http://purl.org/dc/dcmitype/StillImage"/>
<dc:title>Flag of the Marshall Islands</dc:title>
</cc:Work>
</rdf:RDF>
</metadata>
<title id="title4">Flag of the Marshall Islands</title>
<rect id="rect6" transform="matrix(2.400000,0.000000,0.000000,2.400000,-300.0000,-1325.669)" height="125" width="237.5" y="552.36" x="125" fill="#003893"/>
<path id="path8" transform="matrix(2.400000,0.000000,0.000000,2.400000,-300.0000,-1325.669)" fill="#FFF" d="M170.64,636.75l-1.6-26.61-5.58,14.66,2.49-15.48-9.19,12.71,6.42-14.31-12.16,9.9,9.9-12.16-14.31,6.41,12.71-9.18-15.49,2.49,14.66-5.58-26.6-1.6,26.6-1.6-14.66-5.58,15.49,2.49-12.71-9.19,14.31,6.42-9.9-12.16,12.16,9.9-6.42-14.31,9.19,12.71-2.49-15.48,5.58,14.65,1.6-26.6,1.6,26.6,5.58-14.65-2.49,15.48,9.18-12.71-6.42,14.31,12.17-9.9-9.9,12.16,14.31-6.42-12.71,9.19,15.48-2.49-14.66,5.58,26.61,1.6-26.61,1.6,14.66,5.58-15.48-2.49,12.71,9.18-14.31-6.41,9.9,12.16-12.17-9.9,6.42,14.31-9.18-12.71,2.49,15.48-5.58-14.66-1.6,26.61z" fill-rule="evenodd"/>
<path id="path10" transform="matrix(2.400000,0.000000,0.000000,2.400000,-300.0000,-1325.669)" fill="#FFF" d="M125,675.36l237.5-72v-49l-237.5,117v4z" fill-rule="evenodd"/>
<path id="path12" transform="matrix(2.400000,0.000000,0.000000,2.400000,-300.0000,-1325.669)" fill="#dd7500" d="M125,673.36l237.5-94.5v-24.5l-237.5,117v2z" fill-rule="evenodd"/>
</svg>
