<?xml version="1.0" encoding="UTF-8" standalone="no"?>
<svg id="svg2" xmlns:rdf="http://www.w3.org/1999/02/22-rdf-syntax-ns#" xmlns="http://www.w3.org/2000/svg" viewBox="0 0 4800 2400" version="1.1" xmlns:cc="http://creativecommons.org/ns#" xmlns:dc="http://purl.org/dc/elements/1.1/">
<metadata id="metadata44">
<rdf:RDF>
<cc:Work rdf:about="">
<dc:format>image/svg+xml</dc:format>
<dc:type rdf:resource="http://purl.org/dc/dcmitype/StillImage"/>
<dc:title/>
</cc:Work>
</rdf:RDF>
</metadata>
<g id="g4" fill="#f9cf02">
<g id="g6" transform="scale(5)">
<rect id="rect8" width="960" fill="#c4272f" height="480"/>
<rect id="rect10" x="320" height="480" fill="#015197" width="320"/>
<circle id="circle12" cy="164" cx="160" r="44" d="m 204,164 c 0,24.30053 -19.69947,44 -44,44 -24.30053,0 -44,-19.69947 -44,-44 0,-24.30053 19.69947,-44 44,-44 24.30053,0 44,19.69947 44,44 z"/>
<circle id="circle14" d="m 208,144 c 0,26.50967 -21.49033,48 -48,48 -26.50967,0 -48,-21.49033 -48,-48 0,-26.50967 21.49033,-48 48,-48 26.50967,0 48,21.49033 48,48 z" cy="144" cx="160" r="48" fill="#c4272f"/>
<circle id="circle16" cy="152" cx="160" r="32" d="m 192,152 c 0,17.67311 -14.32689,32 -32,32 -17.67311,0 -32,-14.32689 -32,-32 0,-17.67311 14.32689,-32 32,-32 17.67311,0 32,14.32689 32,32 z"/>
<path id="path18" d="M140,92a20,20,0,0,0,40,0c0-8-5-9-5-12s3-7-3-12c3,5-2,6-2,11s2,5,2,9a4,4,0,0,1,-8,0c0-4,4-8,4-14s-1-8-4-13-8-9-4-13c-6,2-3,10-3,15s-4,8-4,14,3,7,3,11a4,4,0,0,1,-8,0c0-4,2-4,2-9s-5-6-2-11c-6,5-3,9-3,12s-5,4-5,12z"/>
<rect id="rect20" y="216" x="72" height="192" width="40"/>
<rect id="rect22" y="216" x="208" height="192" width="40"/>
<rect id="rect24" y="248" x="120" height="16" width="80"/>
<rect id="rect26" y="360" x="120" height="16" width="80"/>
<path id="path28" d="M120,216h80l-40,24zm0,168h80l-40,24z"/>
</g>
<g id="g30" stroke="#c4272f" stroke-width="24">
<circle id="circle32" cy="1560" cx="800" r="212"/>
<path id="path34" d="M800,1348a106,106,0,0,1,0,212,106,106,0,0,0,0,212" fill="none"/>
</g>
</g>
<circle id="circle36" cy="1454" cx="800" r="40" fill="#c4272f"/>
<circle id="circle38" cy="1666" cx="800" r="40" fill="#c4272f"/>
</svg>
