<?xml version="1.0" encoding="UTF-8" standalone="no"?>
<svg id="svg2" xmlns:rdf="http://www.w3.org/1999/02/22-rdf-syntax-ns#" xmlns="http://www.w3.org/2000/svg" height="440" width="660" version="1.1" xmlns:cc="http://creativecommons.org/ns#" xmlns:dc="http://purl.org/dc/elements/1.1/" viewBox="0 0 2880 1920">
<metadata id="metadata12">
<rdf:RDF>
<cc:Work rdf:about="">
<dc:format>image/svg+xml</dc:format>
<dc:type rdf:resource="http://purl.org/dc/dcmitype/StillImage"/>
<dc:title>Flag of Macau</dc:title>
</cc:Work>
</rdf:RDF>
</metadata>
<title id="title4">Flag of Macau</title>
<rect id="rect3348" style="fill:#00785e;" height="1920" width="2880" y="0" x="0"/>
<path id="path3370" style="fill-rule:evenodd;fill:#fbd116;" d="M1440,362l-23.7,72.91h-76.6l62,45.06-23.7,72.87,62-45,62,45-23.7-72.87,62-45.06h-76.6l-23.7-72.91zm-302.6,127.91l15.6,50.71-43.5,30.41,53,0.94,15.5,50.72,17.3-50.16,53,0.91-42.3-31.91,17.2-50.15-43.4,30.43-42.4-31.9zm605.2,0l-42.4,31.9-43.4-30.43,17.2,50.15-42.3,31.91,53-0.91,17.3,50.16,15.5-50.72,53-0.94-43.5-30.41,15.6-50.71zm-705.6,167.56l-22.4,48.06-52.66-6.47,38.76,36.16-22.39,48.09,46.39-25.72,38.8,36.16-10.1-52.06,46.3-25.72-52.6-6.44-10.1-52.06zm806,0l-10.1,52.06-52.6,6.44,46.3,25.72-10.1,52.06,38.8-36.16,46.4,25.72-22.4-48.09,38.8-36.16-52.7,6.47-22.4-48.06z"/>
<path id="path3169" style="fill-rule:evenodd;fill:#ffffff;" d="M1440,614.41c-68.9,59.52-112.5,147.49-112.5,245.59,0,66.73,20.2,128.75,54.7,180.3-42.4-54.81-67.7-123.61-67.7-198.3,0-49.61,11.2-96.63,31.1-138.69-13.8-14.54-24.2-32.26-30.1-51.93-26.7,47.14-42,101.6-42,159.62,0,72.17,23.6,138.85,63.5,192.8-69.5-72.89-167.5-118.3-276-118.3-5.8,0-11.6,0.15-17.4,0.41,10.9,10.18,20.1,22.2,27,35.59,108,0.16,205.4,45.28,274.7,117.6-66.2-55.3-151.4-88.6-244.3-88.6-51.9,0-101.45,10.4-146.59,29.22,46.39,122.58,164.89,209.78,303.59,209.78,9,0,17.9-0.4,26.7-1.1-18.7,3.3-38,5.1-57.7,5.1-87.5,0-167-34.7-225.4-91.1-12.13,4.7-25.16,7.6-38.76,8.4,59.46,67.2,146.36,109.7,243.16,109.7,91.9,0,174.9-38.3,234-99.8,59.1,61.5,142.1,99.8,234,99.8,96.8,0,183.7-42.5,243.2-109.7-13.6-0.8-26.7-3.7-38.8-8.4-58.4,56.4-137.9,91.1-225.4,91.1-19.7,0-39-1.8-57.7-5.1,8.8,0.7,17.7,1.1,26.7,1.1,138.7,0,257.2-87.2,303.6-209.78-45.1-18.82-94.7-29.22-146.6-29.22-92.9,0-178.1,33.3-244.3,88.6,69.3-72.32,166.7-117.44,274.7-117.6,6.9-13.39,16.1-25.41,27-35.59-5.8-0.26-11.6-0.41-17.4-0.41-108.5,0-206.5,45.41-276,118.3,39.9-53.95,63.5-120.63,63.5-192.8,0-58.02-15.3-112.48-42-159.62-5.9,19.67-16.3,37.39-30.1,51.93,19.9,42.06,31.1,89.08,31.1,138.69,0,74.69-25.3,143.49-67.7,198.3,34.5-51.55,54.7-113.57,54.7-180.3,0-98.1-43.6-186.07-112.5-245.59zm0,541.29c-58.3,55.6-137.2,89.8-224,89.8h-252.53c7.44,10.9,15.24,21.6,23.41,32h244.12c79.6,0,152.5-28.7,209-76.3,56.5,47.6,129.4,76.3,209,76.3h244.1c8.2-10.4,16-21.1,23.4-32h-252.5c-86.8,0-165.7-34.2-224-89.8zm-425.1,154.8c4.9,5.4,10,10.8,15.2,16h819.8c5.2-5.2,10.3-10.6,15.2-16h-850.2zm50.6,49c10.1,8.7,20.5,17,31.3,25h343.2,343.2c10.8-8,21.2-16.3,31.3-25h-374.5-374.5zm67.7,50c18.6,11.7,37.9,22.4,57.8,32h249,249c19.9-9.6,39.2-20.3,57.8-32h-306.8-306.8zm94.4,48c65.7,26.1,137.4,40.5,212.4,40.5s146.7-14.4,212.4-40.5h-212.4-212.4z"/>
</svg>
