<?xml version="1.0" encoding="UTF-8" standalone="no"?>
<!-- Created with Sodipodi ("http://www.sodipodi.com/") -->
<svg id="svg548" xmlns:rdf="http://www.w3.org/1999/02/22-rdf-syntax-ns#" xmlns="http://www.w3.org/2000/svg" viewBox="0 0 1000 500" version="1.0" xmlns:cc="http://creativecommons.org/ns#" xmlns:dc="http://purl.org/dc/elements/1.1/">
<metadata id="metadata64">
<rdf:RDF>
<cc:Work rdf:about="">
<dc:title/>
<dc:description/>
<dc:subject>
<rdf:Bag>
<rdf:li>united_kingdom</rdf:li>
<rdf:li>flags</rdf:li>
<rdf:li>caribbean</rdf:li>
<rdf:li>sign</rdf:li>
<rdf:li>signs_and_symbols</rdf:li>
<rdf:li/>
<rdf:li>america</rdf:li>
</rdf:Bag>
</dc:subject>
<dc:publisher>
<cc:Agent rdf:about="http://www.openclipart.org">
<dc:title>Tobias Jakobs</dc:title>
</cc:Agent>
</dc:publisher>
<dc:creator>
<cc:Agent rdf:about="">
<dc:title>Tobias Jakobs</dc:title>
</cc:Agent>
</dc:creator>
<dc:rights>
<cc:Agent rdf:about="">
<dc:title>Tobias Jakobs</dc:title>
</cc:Agent>
</dc:rights>
<dc:date/>
<dc:format>image/svg+xml</dc:format>
<dc:type rdf:resource="http://purl.org/dc/dcmitype/StillImage"/>
<cc:license rdf:resource="http://web.resource.org/cc/PublicDomain">
<dc:date/>
</cc:license>
<dc:language>en</dc:language>
</cc:Work>
<cc:License rdf:about="http://web.resource.org/cc/PublicDomain">
<cc:permits rdf:resource="http://web.resource.org/cc/Reproduction"/>
<cc:permits rdf:resource="http://web.resource.org/cc/Distribution"/>
<cc:permits rdf:resource="http://web.resource.org/cc/DerivativeWorks"/>
</cc:License>
</rdf:RDF>
</metadata>
<g id="g3733" transform="matrix(1.007937,0,0,1.007937,0,-8.786071e-6)">
<rect id="rect877" style="stroke-width:1pt;fill:#00247d;" height="496.06" width="992.13" y="0.000039" x="0"/>
<g id="g555" transform="matrix(1.198836,0,0,1.198836,588.0421,99.29652)">
<path id="path552" style="fill-rule:evenodd;fill:#ffffff;" d="M40.148,18.913h177.15l-0.21,126.06c1.48,50.68-30.11,82.12-88.23,96.3-41.265-10.25-88.853-31.45-88.923-94.86l0.211-127.5z"/>
<path id="path553" style="stroke-linejoin:miter;fill-rule:evenodd;stroke:#000000;stroke-linecap:butt;stroke-width:1pt;fill:#00a2bd;" d="M44.069,22.713h169.3l-0.2,120.8c1.41,48.56-28.78,78.69-84.32,92.27-39.437-9.82-84.916-30.13-84.982-90.9l0.201-122.17z"/>
<path id="path554" style="fill-rule:evenodd;fill:#a53d08;" d="M212.06,157.82c-6.16,46.35-41.86,66.6-83.21,77.35-36.602-9.82-75.982-25.5-83.615-77.12l166.82-0.23z"/>
</g>
<path id="path559" style="fill-rule:evenodd;fill:#000000;" d="M694.86,153.36l39.62,0.14-0.29-18.25,14.43,0.14,0.15,18.11h39.47l0.14,14.15-39.61,0.14-0.32,166.86-14.08,0.08-0.18-167.08-39.34,0.14,0.01-14.43z"/>
<path id="path566" style="stroke-linejoin:miter;fill-rule:evenodd;stroke:#000000;stroke-linecap:butt;stroke-miterlimit:4;stroke-dasharray:none;stroke-width:0.80000001;fill:#ff9a08;" d="M702.52,295.38l36.13,37.48c12.5-13.73,3.83-65.06-12.6-74.52-1.97,6.08-5.32,13.37-8.88,15.72-7.84,5.34-27.03,11.58-20.62,15.58,1.47-2.03,5.29-3.94,7.1,0.56,2.13,7.09-8,7.54-8,7.54s-6.41-0.79-7.54-7.32c-1.12-6.52,9.56-12.48,10.47-12.94,0.9-0.34,14.86-4.05,17.22-16.43,2.93-12.16,5.97-10.36,6.53-10.59,18.24,1.81,30.17,34.45,30.84,57.41,0.68,22.96-9.34,38.16-11.14,39.17-1.8,1.02-43.45-49.41-43.45-49.41l3.94-2.25z"/>
<path id="path567" style="stroke-linejoin:miter;stroke:#000000;stroke-linecap:butt;stroke-miterlimit:4;stroke-dasharray:none;stroke-width:0.80000001;fill:none;" d="M728.86,260.48l0.22,67.65"/>
<path id="path568" style="stroke-linejoin:miter;stroke:#000000;stroke-linecap:butt;stroke-miterlimit:4;stroke-dasharray:none;stroke-width:0.80000001;fill:none;" d="M724.81,261.72c0,0.11,0.22,61.46,0.22,61.46"/>
<path id="path569" style="stroke-linejoin:miter;stroke:#000000;stroke-linecap:butt;stroke-miterlimit:4;stroke-dasharray:none;stroke-width:0.80000001;fill:none;" d="M720.42,270.61l0.22,48.86"/>
<path id="path570" style="stroke-linejoin:miter;stroke:#000000;stroke-linecap:butt;stroke-miterlimit:4;stroke-dasharray:none;stroke-width:0.80000001;fill:none;" d="M716.82,274.1l0.22,40.41"/>
<path id="path571" style="stroke-linejoin:miter;stroke:#000000;stroke-linecap:butt;stroke-miterlimit:4;stroke-dasharray:none;stroke-width:0.80000001;fill:none;" d="M712.99,275.9v34.11"/>
<path id="path572" style="stroke-linejoin:miter;stroke:#000000;stroke-linecap:butt;stroke-miterlimit:4;stroke-dasharray:none;stroke-width:0.80000001;fill:none;" d="M708.82,278.61v27.01"/>
<path id="path573" style="stroke-linejoin:miter;stroke:#000000;stroke-linecap:butt;stroke-miterlimit:4;stroke-dasharray:none;stroke-width:0.80000001;fill:none;" d="M705.22,280.75v20.71"/>
<path id="path574" style="stroke-linejoin:miter;stroke:#ffdf00;stroke-linecap:round;stroke-miterlimit:4;stroke-dasharray:none;stroke-width:0.80000001;fill:none;" d="M701.96,299.66l37.26,42.66"/>
<path id="path575" style="stroke-linejoin:miter;stroke:#ffdf00;stroke-linecap:round;stroke-dasharray:none;stroke-width:1.49854505;fill:none;" d="M741.02,272.75s16.88,36.92,1.23,67.32"/>
<path id="path576" style="stroke-linejoin:miter;stroke:#ffdf00;stroke-linecap:round;stroke-dasharray:none;stroke-width:1.49854505;fill:none;" d="M697.57,291.89s1.23-3.27,2.81-1.92"/>
<path id="path577" style="stroke-linejoin:miter;stroke:#ffdf00;stroke-linecap:round;stroke-dasharray:none;stroke-width:1.49854505;fill:none;" d="M694.64,282.43s-6.75,5.97-3.04,9.8"/>
<g id="g878" style="font-size:12px;" transform="matrix(8.267717,0,0,8.267722,0,2.288818e-5)">
<path id="path879" style="fill:#ffffff;" d="M0,0v3.3541l53.292,26.646h6.708v-3.354l-53.292-26.646h-6.7082zm60,0v3.354l-53.292,26.646h-6.7082v-3.354l53.292-26.646h6.708z"/>
<path id="path880" style="fill:#ffffff;" d="M25,0v30h10v-30h-10zm-25,10v10h60v-10h-60z"/>
<path id="path881" style="fill:#cf142b;" d="M0,12v6h60v-6h-60zm27-12v30h6v-30h-6z"/>
<path id="path882" style="fill:#cf142b;" d="M0,30l20-10h4.472l-20,10h-4.4721zm0-30l20,10h-4.472l-15.528-7.7639v-2.2361zm35.528,10l20-10h4.472l-20,10h-4.472zm24.472,20l-20-10h4.472l15.528,7.764v2.236z"/>
</g>
<g id="g1890" transform="matrix(5.232835,0,0,5.232835,-396.0094,-149.7271)">
<path id="path1606" style="stroke-width:0.063;stroke:#000000;fill:#008021;" d="M218.79,64.643c0.48-0.41,0.72-0.66,1.02-0.615,0.3,0.046,0.7,0.023,0.99-0.068,0.3-0.091,1.77-0.274,2.38-0.069,0.2,0.023,0.47,0.137,0.89,0.49,0.43,0.353,1.04,0.969,0.84,2.677-0.21,1.708-0.14,2.439-0.23,3.394-0.16,1.686-0.54,3.074-1.21,2.962,0.91,1.594,1,2.961,1.59,4.055,0.6,1.093,0.96,3.326,0.73,5.741-0.22,2.414-0.86,7.836,1.05,11.481-0.32,0.228-1.09,0-1.78-0.729-0.68-0.729-0.98-0.705-1.54-0.273-1.74,1.321-3.36,2.913-5.74,1.321-0.55-0.364-0.72-0.802-0.32-1.914,1-2.779,1.49-6.592,1.33-8.383v-20.07z"/>
<path id="path1626" style="stroke:#000000;stroke-width:0.063;fill:#ffe1cf;" d="M220.43,62.935c0.13,0.387,0.19,0.888-0.01,1.344-0.21,0.455-0.25,1.002,0.09,1.663,0.55-0.775,1.32-0.615,1.78-1.071,0.45-0.456,0.54-0.888,0.89-0.98-0.35-0.296-0.87-0.615-0.76-1.48,0.12-0.866,1.32-1.572,0.23-2.893-0.71-0.853-1.73-0.616-2.17-0.285-0.21,0.155-0.39,0.376-0.46,0.524s0.02,0.485-0.15,0.683c-0.11,0.137-0.25,0.273-0.41,0.387-0.1,0.075-0.16,0.182-0.06,0.308,0.05,0.05,0.13,0.061,0.22,0.091-0.06,0.103-0.11,0.205-0.17,0.279-0.05,0.07-0.03,0.136,0.03,0.193-0.08,0.273,0.08,0.303-0.03,0.508-0.1,0.177-0.23,0.387,0.14,0.592,0.1,0.057,0.58,0.169,0.84,0.137z"/>
<path id="path1628" style="stroke:#000000;stroke-width:0.063;fill:#ffe1cf;" d="M216,67.468c-0.64,0.16-1.66-0.114-2.44-0.023-0.34,0.041-0.61-0.136-0.57-0.478,0.05-0.342,0.09-0.866,0.02-1.344-0.1-0.746,0.25-1.777,0.76-2.916,0.5-1.139,0.75-1.777,0.75-2.312,0-0.353,0.03-0.752,0.35-0.957,0.24-0.152,0.28-0.299,0.37-0.422,0.19-0.284,0.37-0.353,0.39-0.182,0.02,0.102-0.02,0.194-0.11,0.33,0.2-0.17,0.55-0.37,0.63-0.427s0.49-0.341,0.51-0.074c0.16-0.079,0.27-0.074,0.31,0.012,0.04,0.092,0.01,0.131-0.07,0.199,0.12-0.023,0.25,0.177,0.02,0.353,0.12-0.04,0.24,0.16,0.03,0.342-0.22,0.188-0.47,0.319-0.55,0.467s-0.62,0.564-0.83,0.655c-0.22,0.091-0.23,0.216-0.23,0.535,0,3.508-0.42,3.223-0.42,4.066,0,0.228-0.05,0.433,0.18,0.365s0.56-0.171,0.9-0.171v1.982z"/>
<path id="path1630" style="stroke:#000000;stroke-width:0.063;fill:#ffe1cf;" d="M216.14,75.031c1.02-0.515,2.2-0.706,2.82-0.865,0.62-0.16,1.6-0.638,2.07-0.889,0.48-0.251,0.87-0.592,1.14-0.683,0.28-0.091,0.58-0.28,0.75-0.615,0.89-1.732,1.37-3.121,1.37-4.329,0-0.797-0.2-1.686-0.98-1.048-0.73,0.6-1.52,1.756-1.73,2.597-0.32,1.276-0.59,1.549-0.66,1.8s-0.33,0.25-0.64,0.319c-1.34,0.296-1.66,0.501-2.66,1.253-1.01,0.752-2.1,1.412-2.83,1.822-0.73,0.411-0.86,0.456-1.02,0.786-0.16,0.331-0.31,0.581-0.45,0.729s-0.17,0.322-0.15,0.502c0.03,0.148-0.04,0.831-0.05,1.059-0.02,0.228,0.04,0.285,0.13,0.296s0.22-0.034,0.27-0.308c-0.05,0.274,0.33,0.183,0.35-0.022-0.01,0.296,0.39,0.125,0.41-0.148,0,0.193,0.3,0.059,0.33-0.035,0.07-0.227,0.12-0.478,0.21-0.66,0.14-0.265,0.28-0.607,0.54-0.798,0.3-0.216,0.16-0.455,0.78-0.763z"/>
<path id="path1632" style="stroke:#000000;stroke-width:0.063;fill:#ffe1cf;" d="M223.52,93.689c0.06,0.25,0.19,0.535,0.24,0.706,0.04,0.171-0.04,0.224-0.08,0.319-0.24,0.501-0.5,1.3-0.54,1.731-0.02,0.251-0.19,0.49-0.27,0.638-0.09,0.163-0.06,0.289,0.15,0.444,0.09,0.074,0.4-0.023,0.44-0.182,0.11,0.114,0.32,0.068,0.41-0.103,0.1,0.103,0.27,0.035,0.39-0.136,0.1,0.068,0.25-0.068,0.3-0.16,0.16,0.08,0.34-0.017,0.34-0.33,0-0.063,0.04-0.171,0.09-0.245,0.04-0.074,0.06-0.216,0.05-0.342,0-0.125,0.08-0.375,0.18-0.552,0.11-0.177,0.3-0.49,0.22-0.786-0.07-0.276-0.19-0.251-0.3-0.649-0.24-0.262-0.59-0.627-0.94-0.65-0.35-0.022-0.56,0.217-0.68,0.297z"/>
<path id="path1634" style="stroke:#000000;stroke-width:0.063;fill:#ffe1cf;" d="M217.04,95.648c0.31,0.319,1.03,0.33,1.53-0.205-0.18-0.08-0.58-0.262-0.76-0.41-0.25,0.25-0.54,0.535-0.77,0.615z"/>
<path id="path1636" style="stroke:#000000;stroke-width:0.063;fill:#870f00;" d="M220.26,59.426c0.12-0.808,0.7-0.789,1.06-0.706,0.15,0.034,0.51,0.068,0.85-0.023,0.68-0.18,1.19,0.057,1.12,0.707,0.18,0.136,0.37,0.455,0.34,0.729-0.03,0.273,0.02,0.387,0.27,0.421s0.79,0.342,0.44,0.775c0.34,0.205,0.6,0.729,0.42,1.082s-0.73,0.41-0.96,0.091c-0.25,0.114-0.66,0.136-0.91-0.125-0.17,0.205-0.6,0.182-0.68,0-0.08-0.183-0.22-0.28-0.38-0.331-0.18-0.057-0.19-0.558,0.08-0.615-0.03-0.148-0.02-0.319,0.05-0.399,0.06-0.079,0.01-0.227-0.15-0.353-0.16-0.125-0.3-0.603-0.14-0.865-0.27,0.091-0.88-0.171-1-0.353-0.13-0.183-0.3-0.194-0.41-0.035z"/>
<path id="path1638" style="stroke:#000000;stroke-width:0.063;fill:none;" d="M220.43,62.935c0.44-0.057,0.59-0.331,0.92-0.308"/>
<path id="path1640" style="stroke:#000000;stroke-width:0.063;fill:none;" d="M219.48,61.698c0.03,0.025,0.07,0.046,0.11,0.069,0.09,0.049,0.19,0.054,0.28,0.066"/>
<path id="path1642" style="stroke:#000000;stroke-width:0.063;fill:none;" d="M219.62,61.226c0.06,0.022,0.12,0.053,0.18,0.114"/>
<path id="path1644" style="stroke:#000000;stroke-width:0.063;fill:none;" d="M220.65,59.426c-0.27-0.25,0.44-0.763,1.18-0.034,0.14,0.136,0.49,0.137,0.59,0.103"/>
<path id="path1646" style="stroke:#000000;stroke-width:0.063;fill:none;" d="M221.67,59.814c0.34-0.08,0.85-0.08,1,0.307s0.45,0.137,0.69,0.593c0.24,0.455,0.61,0.968,0.98,0.615"/>
<path id="path1648" style="stroke:#000000;stroke-width:0.063;fill:none;" d="M222.89,62.377c-0.1-0.137-0.15-0.433-0.08-0.638-0.14-0.16-0.08-0.49,0-0.65"/>
<path id="path1650" style="stroke:#000000;stroke-width:0.063;fill:none;" d="M221.91,61.431c0.01,0.137,0.19,0.387,0.48,0.433"/>
<path id="path1652" style="stroke:#000000;stroke-width:0.063;fill:none;" d="M223.8,62.502c-0.16-0.205-0.14-0.387-0.1-0.638"/>
<path id="path1654" style="stroke:#000000;stroke-width:0.063;fill:none;" d="M222.14,60.235c-0.01,0.205,0.11,0.479,0.33,0.57,0.04,0.113,0.27,0.433,0.73,0.387"/>
<path id="path1656" style="stroke:#000000;stroke-width:0.063;fill:none;" d="M223.29,59.404c-0.25-0.194-0.59-0.433-1.04-0.492"/>
<path id="path1658" style="stroke:#000000;stroke-width:0.063;fill:none;" d="M220.51,65.942c-0.39,0.524-0.64,1.253-0.46,2.278,0.19,1.025,0.48,2.528-0.27,3.212"/>
<path id="path1660" style="stroke:#000000;stroke-width:0.063;fill:none;" d="M223.47,73.414c-0.52-0.114-1.27-0.114-1.69,0.182-0.4,0.296-1.09,0.319-1.54,0.091"/>
<path id="path1662" style="stroke:#000000;stroke-width:0.063;fill:none;" d="M222.37,73.38c-0.46,0.079-0.68,0.398-0.68,1.241s-0.18,2.073-0.02,3.281"/>
<path id="path1664" style="stroke:#000000;stroke-width:0.063;fill:none;" d="M221.53,73.733c-0.29,0.079-0.6,0.091-0.54,0.888"/>
<path id="path1666" style="stroke:#000000;stroke-width:0.063;fill:none;" d="M220,74.644c0.01-0.49,0.18-0.945,0.5-0.866"/>
<path id="path1668" style="stroke:#000000;stroke-width:0.063;fill:none;" d="M223.28,74.735c0.02-1.082-0.22-1.389-0.54-1.378,0.44,0.011,0.73,0.064,0.91,1.834,0.14,1.321,0.42,1.789,0.73,2.825,0.82,2.688,0.41,6.834,0.82,8.292"/>
<path id="path1670" style="stroke:#000000;stroke-width:0.063;fill:none;" d="M222.65,75.054c0.87,2.506,1.32,5.285-0.09,9.75,0.96,2.643,1.91,4.556,2.1,5.65"/>
<path id="path1672" style="stroke:#000000;stroke-width:0.063;fill:none;" d="M219.92,80.977c0.16-0.569-0.41-0.638,0.09-2.643,0.21-0.868,0.25-1.389,0.11-1.662"/>
<path id="path1674" style="stroke:#000000;stroke-width:0.063;fill:none;" d="M220.12,77.856c-0.2,0.889,0.66,2.552,0.23,3.759"/>
<path id="path1676" style="stroke:#000000;stroke-width:0.063;fill:none;" d="M219.28,81.843c0,0.774,0.18,1.777,0.14,2.551-0.05,0.775,0.27,1.134,0.63,1.868,1.33,2.643,2.22,4.528,2.1,7.017-0.02,0.455,0.14,1.412-0.34,1.685"/>
<path id="path1678" style="stroke:#000000;stroke-width:0.063;fill:none;" d="M219.31,95.636c0.14,0.012,0.29-0.056,0.46-0.466,0.17-0.411,0.72-2.871,0.49-4.557"/>
<path id="path1680" style="stroke:#000000;stroke-width:0.063;fill:none;" d="M220.53,92.527c0.07,0.524,0.07,1.595-0.27,2.437"/>
<path id="path1682" style="stroke:#000000;stroke-width:0.063;fill:none;" d="M221.4,90.955c0.2,1.116,0.18,2.119,0.02,2.825"/>
<path id="path1684" style="stroke:#000000;stroke-width:0.063;fill:none;" d="M220.94,93.78c0.02,0.455,0.23,1.594-0.11,1.686"/>
<path id="path1686" style="stroke:#000000;stroke-width:0.063;fill:none;" d="M222.65,88.495c0.84,1.321,1.5,4.579,2.21,5.262"/>
<path id="path1688" style="stroke:#000000;stroke-width:0.063;fill:none;" d="M223.38,93.233c-0.02-0.364-0.05-0.865-0.25-1.093"/>
<path id="path1690" style="stroke:#000000;stroke-width:0.063;fill:none;" d="M214.28,77.287c0.01-0.251-0.04-0.49,0.24-0.877"/>
<path id="path1692" style="stroke:#000000;stroke-width:0.063;fill:none;" d="M213.87,77.435c0.03-0.877,0.02-0.957,0.27-1.196"/>
<path id="path1694" style="stroke:#000000;stroke-width:0.063;fill:none;" d="M213.52,77.457c0.01-0.626-0.07-0.843,0.18-1.241"/>
<path id="path1696" style="stroke:#000000;stroke-width:0.063;fill:none;" d="M216.66,58.663c-0.1,0.063-0.67,0.496-0.91,0.678"/>
<path id="path1698" style="stroke:#000000;stroke-width:0.063;fill:none;" d="M216.9,58.874c-0.1,0.017-0.42,0.273-0.98,0.706"/>
<path id="path1700" style="stroke:#000000;stroke-width:0.063;fill:none;" d="M216.92,59.227c-0.18,0.08-0.51,0.405-0.82,0.621"/>
<path id="path1702" style="stroke:#000000;stroke-width:0.063;fill:none;" d="M215.52,59.164c-0.08,0.063-0.25,0.245-0.33,0.308"/>
<path id="path1704" style="stroke:#000000;stroke-width:0.063;fill:none;" d="M223.46,97.345c-0.05-0.057-0.05-0.256,0.04-0.478"/>
<path id="path1706" style="stroke:#000000;stroke-width:0.063;fill:none;" d="M223.87,97.242c-0.06-0.062,0-0.336,0.06-0.512"/>
<path id="path1708" style="stroke:#000000;stroke-width:0.063;fill:none;" d="M224.26,97.106c-0.08-0.034-0.1-0.194,0.01-0.41"/>
<path id="path1710" style="stroke:#000000;stroke-width:0.063;fill:none;" d="M224.56,96.946c-0.05-0.017-0.07-0.102,0.02-0.353"/>
<g id="g1712">
<path id="path1714" style="fill:#000000;" d="M220.08,60.144c0.17,0.216,0.34,0.194,0.37,0.333,0.03,0.14,0.05,0.15,0.08,0.191s-0.08,0.033-0.13,0.011c-0.05-0.023-0.19-0.02-0.27-0.019s-0.18-0.095-0.12-0.106,0.06-0.03,0.05-0.073c-0.01-0.042,0.03-0.109,0.06-0.121,0.02-0.013,0-0.01-0.02-0.067s-0.05-0.196-0.02-0.149z"/>
<path id="path1716" style="fill:#000000;" d="M220.18,59.946c0.19,0.022,0.51,0.121,0.68,0.313,0.14,0.151,0.02,0.111-0.04,0.116-0.07,0.006-0.21-0.043-0.28-0.129-0.06-0.085-0.26-0.193-0.37-0.222-0.07-0.016-0.13-0.095,0.01-0.078z"/>
</g>
</g>
</g>
</svg>
