<?xml version="1.0" encoding="UTF-8" standalone="no"?>
<svg id="svg2" xmlns:rdf="http://www.w3.org/1999/02/22-rdf-syntax-ns#" xmlns="http://www.w3.org/2000/svg" viewBox="0 0 2800 1400" version="1.1" xmlns:cc="http://creativecommons.org/ns#" xmlns:xlink="http://www.w3.org/1999/xlink" xmlns:dc="http://purl.org/dc/elements/1.1/">
<metadata id="metadata19">
<rdf:RDF>
<cc:Work rdf:about="">
<dc:format>image/svg+xml</dc:format>
<dc:type rdf:resource="http://purl.org/dc/dcmitype/StillImage"/>
<dc:title/>
</cc:Work>
</rdf:RDF>
</metadata>
<rect id="red" width="2800" style="fill:#cc0001;" height="1400"/>
<rect id="white" y="1300" width="2800" style="fill:#fff;" height="100"/>
<use id="use3035" xlink:href="#white" transform="translate(0,-200)"/>
<use id="use3038" xlink:href="#white" transform="translate(0,-400)"/>
<use id="use3062" xlink:href="#white" transform="translate(0,-600)"/>
<use id="use3064" xlink:href="#white" transform="translate(0,-800)"/>
<use id="use3066" xlink:href="#white" transform="translate(0,-1000)"/>
<use id="use3068" xlink:href="#white" transform="translate(0,-1200)"/>
<rect id="blue" width="1400" style="fill:#010066;" height="800"/>
<path id="path4945" style="fill:#fc0;" d="M576,100c-166.15,0-301,134.41-301,300s134.85,300,301,300c60.03,0,115.95-17.56,162.93-47.78-27.36,9.44-56.71,14.6-87.27,14.6-147.33,0-266.9-119.17-266.9-266.01s119.57-266.01,266.9-266.01c32.55,0,63.74,5.81,92.6,16.47-48.04-32.36-105.96-51.27-168.26-51.27z"/>
<path id="path4959" style="fill:#fc0;" d="M914.29,471.43l-99.54-53.25,29.43,108.98-66.58-91.16-20.77,110.96-20.43-111.03-66.85,90.96,29.76-108.89-99.7,52.94,74.07-85.19-112.8,4.44,103.69-44.62-103.55-44.94,112.78,4.79-73.8-85.42,99.54,53.25-29.43-108.98,66.57,91.16,20.77-110.96,20.43,111.03,66.86-90.96-29.77,108.89,99.7-52.94-74.06,85.19,112.8-4.44-103.7,44.62,103.56,44.94-112.79-4.79z" transform="matrix(1.2737922,0,0,1.2422928,-89.4427,-29.478379)"/>
</svg>
