<?xml version="1.0" encoding="UTF-8" standalone="no"?>
<svg id="svg2" xmlns:rdf="http://www.w3.org/1999/02/22-rdf-syntax-ns#" xmlns="http://www.w3.org/2000/svg" height="600" width="900" version="1.1" xmlns:cc="http://creativecommons.org/ns#" xmlns:dc="http://purl.org/dc/elements/1.1/" viewBox="0 0 90 60">
<metadata id="metadata20">
<rdf:RDF>
<cc:Work rdf:about="">
<dc:format>image/svg+xml</dc:format>
<dc:type rdf:resource="http://purl.org/dc/dcmitype/StillImage"/>
<dc:title/>
</cc:Work>
</rdf:RDF>
</metadata>
<path id="path4" d="M90,0h-90v60z" fill="#003580"/>
<path id="path6" d="M0,60h90v-60z" fill="#009543"/>
<path id="path8" stroke="#fff" stroke-width="20" d="M0,60,90,0"/>
<path id="path10" stroke="#d21034" stroke-width="15" d="M0,60,90,0"/>
<path id="path12" d="M18,6.5,19.553,10.704,23,7.8397,22.243,12.257,26.66,11.5,23.796,14.947,28,16.5,23.796,18.053,26.66,21.5,22.243,20.743,23,25.16,19.553,22.296,18,26.5,16.447,22.296,13,25.16,13.757,20.743,9.3397,21.5,12.204,18.053,8,16.5,12.204,14.947,9.3397,11.5,13.757,12.257,13,7.8397,16.447,10.704z" fill="#ffce00"/>
<circle id="circle14" stroke="#003580" cy="16.5" cx="18" r="5.5" fill="#ffce00"/>
</svg>
