<?xml version="1.0" encoding="UTF-8" standalone="no"?>
<svg id="svg2" xmlns:rdf="http://www.w3.org/1999/02/22-rdf-syntax-ns#" xmlns="http://www.w3.org/2000/svg" height="885" width="726" version="1.1" xmlns:cc="http://creativecommons.org/ns#" xmlns:xlink="http://www.w3.org/1999/xlink" viewBox="-17.582 -4.664 71.571 87.246" xmlns:dc="http://purl.org/dc/elements/1.1/">
<metadata id="metadata49">
<rdf:RDF>
<cc:Work rdf:about="">
<dc:format>image/svg+xml</dc:format>
<dc:type rdf:resource="http://purl.org/dc/dcmitype/StillImage"/>
<dc:title>Flag of Nepal</dc:title>
</cc:Work>
</rdf:RDF>
</metadata>
<title id="title4">Flag of Nepal</title>
<desc id="desc6">Coding according to the official construction in &quot;Constitution of the Kingdom of Nepal, Article 5, Shedule 1&quot;, adopted in November 1990</desc>
<!-- 2*TN= (17955-7335*Sqrt(2))/1468 -->
<use id="use8" stroke-width="5.1646754223" stroke="#003893" xlink:href="#b"/>
<!-- F,G,C,A,B,D --><!-- Fy=Gy = 80-30*Sqrt(2) -->
<path id="b" fill="#DC143C" d="M-15,37.574h60l-60-37.574v80h60l-60-60z"/>
<g id="g11" fill="#fff"><!-- LN = -Px = Qx = 5/4*Sqrt(609-366*Sqrt(2)), Py = Qy= 50-75/4*Sqrt(2) --><!-- MQ = 5/4*(23-9*Sqrt(2))  -->
<path id="path13" d="M-11.95,23.483a12.84,12.84,0,0,0,23.9,0,11.95,11.95,0,0,1,-23.9,0"/>
<!-- Px, Py, MQ, MQ, Qx, Qy, LN, LN, Px, Py --><!-- Ty = (183895-69735*Sqrt(2))/2936   TM = (37095-14685*Sqrt(2))/2936 -->
<g id="g15" transform="translate(0,29.0445562765) scale(5.5610605710)">
<circle id="circle17" r="1" d="M 1,0 C 1,0.55228475 0.55228475,1 0,1 -0.55228475,1 -1,0.55228475 -1,0 c 0,-0.55228475 0.44771525,-1 1,-1 0.55228475,0 1,0.44771525 1,1 z"/>
<g id="jags6">
<g id="jags3"><!-- sin(Pi/16),-cos(Pi/16), 0, -TS/TM = -Sqrt(884995-8076*Sqrt(2))/673, -sin(Pi/16),-cos(Pi/16) -->
<path id="jag" transform="rotate(11.25)" d="M0.19509-0.98079l-0.19509-0.40801-0.19509,0.40801"/>
<use id="use22" xlink:href="#jag" transform="rotate(22.5)"/>
<use id="use24" xlink:href="#jag" transform="rotate(45)"/>
</g>
<use id="use26" xlink:href="#jags3" transform="rotate(67.5)"/>
</g>
<use id="use28" xlink:href="#jags6" transform="scale(-1, 1)"/>
</g>
<!--  Wy = 80-15*Sqrt(2)   NM= 15/4*(5-2*Sqrt(2)) -->
<g id="g30" transform="translate(0,58.7867965644) scale(8.1433982822)">
<circle id="circle32" r="1" d="M 1,0 C 1,0.55228475 0.55228475,1 0,1 -0.55228475,1 -1,0.55228475 -1,0 c 0,-0.55228475 0.44771525,-1 1,-1 0.55228475,0 1,0.44771525 1,1 z"/>
<g id="rays4">
<g id="rays2"><!-- sin(Pi/12),cos(Pi/12), 0, LN/NM=(79+Sqrt(2))/51, -sin(Pi/12),cos(Pi/12) -->
<path id="ray" d="M0.25882,0.96593l-0.25882,0.61077-0.25882-0.61077"/>
<use id="use37" xlink:href="#ray" transform="rotate(180)"/>
</g>
<use id="use39" xlink:href="#rays2" transform="rotate(90)"/>
</g>
<use id="use41" xlink:href="#rays4" transform="rotate(30)"/>
<use id="use43" xlink:href="#rays4" transform="rotate(60)"/>
</g>
</g>
</svg>
