<?xml version="1.0" encoding="UTF-8" standalone="no"?>
<svg id="svg2" xmlns:rdf="http://www.w3.org/1999/02/22-rdf-syntax-ns#" xmlns="http://www.w3.org/2000/svg" height="300" width="600" version="1.1" xmlns:cc="http://creativecommons.org/ns#" xmlns:xlink="http://www.w3.org/1999/xlink" viewBox="0 0 120 60" xmlns:dc="http://purl.org/dc/elements/1.1/">
<metadata id="metadata42">
<rdf:RDF>
<cc:Work rdf:about="">
<dc:format>image/svg+xml</dc:format>
<dc:type rdf:resource="http://purl.org/dc/dcmitype/StillImage"/>
<dc:title>Flag of Niue</dc:title>
</cc:Work>
</rdf:RDF>
</metadata>
<clipPath id="t">
<path id="path5" d="M0,0v15h70v15h-10zm0,30v10h30v-40h30z"/>
</clipPath>
<title id="title7">Flag of Niue</title>
<rect id="rect9" width="120" fill="#002868" height="60"/>
<g id="g11" stroke="#cf142b" stroke-width="6">
<path id="path13" stroke="#fff" d="M0,0l60,30m0-30l-60,30"/>
<path id="path15" stroke-width="4" d="M0,0l60,30m0-30l-60,30" clip-path="url(#t)"/>
<path id="path17" stroke="#fff" stroke-width="10" d="M30,0v40m-30-25h70"/>
<path id="path19" d="M30,0v40m-30-25h70"/>
</g>
<path id="path21" d="M60,0h60v60h-120v-30h60z" fill="#fcd116"/>
<g id="g23" transform="translate(30,15)">
<g id="g25" transform="scale(5.10390485)">
<circle id="circle27" d="M 1,0 C 1,0.55228475 0.55228475,1 0,1 -0.55228475,1 -1,0.55228475 -1,0 c 0,-0.55228475 0.44771525,-1 1,-1 0.55228475,0 1,0.44771525 1,1 z" r="1" fill="#002868"/>
<path id="s" fill="#fcd116" transform="scale(0.00000194676)" d="M0-513670,301930,415570-488530-158730h977060l-790460,574300"/>
</g>
<use id="use30" xlink:href="#s" transform="translate(-17.5,0.29) scale(3)"/>
<use id="use32" xlink:href="#s" transform="translate(17.5,0.29) scale(3)"/>
<use id="use34" xlink:href="#s" transform="translate(0,10.29) scale(3)"/>
<use id="use36" xlink:href="#s" transform="translate(0,-9.71) scale(3)"/>
</g>
</svg>
