<?xml version="1.0" encoding="UTF-8" standalone="no"?>
<svg id="svg2" xmlns:rdf="http://www.w3.org/1999/02/22-rdf-syntax-ns#" xmlns="http://www.w3.org/2000/svg" viewBox="0 0 1200 600" version="1.1" xmlns:cc="http://creativecommons.org/ns#" xmlns:xlink="http://www.w3.org/1999/xlink" xmlns:dc="http://purl.org/dc/elements/1.1/">
<metadata id="metadata61">
<rdf:RDF>
<cc:Work rdf:about="">
<dc:format>image/svg+xml</dc:format>
<dc:type rdf:resource="http://purl.org/dc/dcmitype/StillImage"/>
<dc:title/>
</cc:Work>
</rdf:RDF>
</metadata>
<defs id="defs4">
<clipPath id="Canton">
<path id="path7" d="M0,0h600v300h-600z"/>
</clipPath>
<clipPath id="Diagonals">
<path id="path10" d="M0,0l300,150h-300zm300,0h300l-300,150zm0,150h300v150zv150h-300z"/>
</clipPath>
<g id="Pentagram">
<g id="Arm" transform="translate(0,-0.324925)">
<path id="path14" d="M0,0v0.5l1-0.5z"/>
<path id="path16" d="M0,0v-0.5l1,0.5z" transform="rotate(-36,1,0)"/>
</g>
<use id="use18" xlink:href="#Arm" transform="scale(-1,1)"/>
<use id="use20" xlink:href="#Arm" transform="rotate(72,0,0)"/>
<use id="use22" xlink:href="#Arm" transform="rotate(-72,0,0)"/>
<use id="use24" xlink:href="#Arm" transform="rotate(-72,0,0) scale(-1,1)"/>
</g>
</defs>
<rect id="rect26" height="600" width="1200" y="0" x="0" fill="#00247d"/>
<g id="Flag_of_the_United_Kingdom">
<path id="Saint_Andrews_Cross" clip-path="url(#Canton)" stroke="#ffffff" stroke-width="60" d="M0,0l600,300m-600,0l600-300"/>
<path id="Saint_Patricks_Cross" clip-path="url(#Diagonals)" stroke="#cc142b" stroke-width="40" d="M0,0l600,300m-600,0l600-300"/>
<g id="Saint_Georges_Cross">
<path id="path32" stroke="#ffffff" stroke-width="100" d="M300,0v300m-300-150h600" clip-path="url(#Canton)"/>
<path id="path34" stroke="#cc142b" stroke-width="60" d="M300,0v300m-300-150h600" clip-path="url(#Canton)"/>
</g>
</g>
<g id="Southern_Cross">
<g id="Gamma_Crucis">
<use id="use38" xlink:href="#Pentagram" transform="translate(900,120) scale(45.4)" fill="#ffffff"/>
<use id="use40" xlink:href="#Pentagram" transform="translate(900,120) scale(30)" fill="#cc142b"/>
</g>
<g id="g42" transform="rotate(82,900,240)">
<g id="Delta_Crucis">
<use id="use45" xlink:href="#Pentagram" transform="translate(900,120) rotate(-82) scale(40.4)" fill="#ffffff"/>
<use id="use47" xlink:href="#Pentagram" transform="translate(900,120) rotate(-82) scale(25)" fill="#cc142b"/>
</g>
<g id="Beta_Crucis">
<use id="use50" xlink:href="#Pentagram" transform="translate(900,380) rotate(-82) scale(45.4)" fill="#ffffff"/>
<use id="use52" xlink:href="#Pentagram" transform="translate(900,380) rotate(-82) scale(30)" fill="#cc142b"/>
</g>
</g>
<g id="Alpha_Crucis">
<use id="use55" xlink:href="#Pentagram" transform="translate(900,480) scale(50.4)" fill="#ffffff"/>
<use id="use57" xlink:href="#Pentagram" transform="translate(900,480) scale(35)" fill="#cc142b"/>
</g>
</g>
</svg>
