<?xml version="1.0" encoding="UTF-8" standalone="no"?>
<svg id="svg2" xmlns:rdf="http://www.w3.org/1999/02/22-rdf-syntax-ns#" xmlns="http://www.w3.org/2000/svg" viewBox="0 0 600 400" version="1.0" xmlns:cc="http://creativecommons.org/ns#" xmlns:dc="http://purl.org/dc/elements/1.1/">
<metadata id="metadata63">
<rdf:RDF>
<cc:Work rdf:about="">
<dc:format>image/svg+xml</dc:format>
<dc:type rdf:resource="http://purl.org/dc/dcmitype/StillImage"/>
<dc:title/>
</cc:Work>
</rdf:RDF>
</metadata>
<rect id="rect4" width="600" fill="#ce1126" height="400"/>
<rect id="rect6" y="100" width="600" fill="white" height="200"/>
<g id="g5003">
<path id="path560" style="stroke-width:1.64525833pt;fill-rule:evenodd;stroke:#083d9c;fill:#083d9c;" d="M279.88,275.41c-6.18,0.35-12.34,4.51-15.22,6.75,5.18,2.26,10.71,4.03,16.59,5.25,9.37,1.57,18.75,1.56,28.13,1.56,1.53-0.19,3.04-0.41,4.53-0.66l19.75-6.65s-9.5-6.28-17.04-6c-7.53,0.27-12.61,7.63-18.68,7.09-6.08-0.54-8.51-7.34-17.25-7.34-0.28,0-0.54-0.02-0.81,0z"/>
<path id="path561" style="stroke-width:1.54552746pt;fill-rule:evenodd;stroke:#083d9c;fill:#083d9c;" d="M244.01,270.31l112.22,0.48s-9.71-10.32-21.13-10.56c-11.42-0.25-8.26,4.8-17,5.52-8.75,0.72-10.94-5.28-18.95-5.05-8.02,0.24-12.63,5.05-18.7,5.29-6.08,0.24-13.85-6.01-18.47-5.76-4.61,0.24-21.13,7.2-21.13,7.2l3.16,2.88z"/>
<path id="path562" style="stroke-width:1.54552746pt;fill-rule:evenodd;stroke:#083d9c;fill:#083d9c;" d="M229.68,257.1l138.46,0.48c2.18-3.12-6.8-10.56-15.06-11.28-6.81,0.24-11.66,6.96-17.25,7.2s-11.9-6.96-18.22-6.72c-6.31,0.24-12.87,6.72-19.19,6.72-6.31,0-10.93-6.96-18.95-6.96-8.01,0-11.66,7.68-17.73,7.2s-11.42-7.68-17.25-7.68-15.54,8.64-17.49,8.16c-1.94-0.48,2.43,3.6,2.68,2.88z"/>
<path id="path563" style="stroke-linejoin:round;fill-rule:evenodd;stroke:#630810;stroke-width:1.93190932;fill:#ce1126;" d="M282.87,181l31.83,8.4v-44.89c-14.58,0.72-26.72-27.37-0.98-29.29-25.26-3.6-28.17,2.88-31.09,9.84l0.24,55.94z"/>
<path id="path564" style="stroke-linejoin:miter;fill-rule:evenodd;stroke:#630810;stroke-linecap:round;stroke-miterlimit:4;stroke-dasharray:none;stroke-width:2.7916038;fill:#630810;" d="M262.71,213.65l71.91,0.24"/>
<g id="g570" style="stroke-linejoin:miter;stroke:#630810;stroke-linecap:round;stroke-miterlimit:4;stroke-dasharray:none;stroke-width:1.80625021;fill:#630810;" transform="matrix(1.554643,0,0,1.53646,-0.119343,1.63912)">
<path id="path565" style="stroke-linejoin:miter;fill-rule:evenodd;stroke:#630810;stroke-linecap:round;stroke-miterlimit:4;stroke-dasharray:none;stroke-width:1.80625021;fill:#630810;" d="M171.25,126.89l5.47,7.35"/>
<path id="path566" style="stroke-linejoin:miter;fill-rule:evenodd;stroke:#630810;stroke-linecap:round;stroke-miterlimit:4;stroke-dasharray:none;stroke-width:1.80625021;fill:#630810;" d="M171.25,134.24l5.94-7.19"/>
<path id="path567" style="stroke-linejoin:miter;fill-rule:evenodd;stroke:#630810;stroke-linecap:round;stroke-miterlimit:4;stroke-dasharray:none;stroke-width:1.80625021;fill:#630810;" d="M174.38,126.42l-0.16,4.54"/>
</g>
<g id="g574" style="stroke-linejoin:miter;stroke:#630810;stroke-linecap:round;stroke-miterlimit:4;stroke-dasharray:none;stroke-width:1.80625021;fill:#630810;" transform="matrix(1.554643,0,0,1.53646,13.48379,1.63912)">
<path id="path575" style="stroke-linejoin:miter;fill-rule:evenodd;stroke:#630810;stroke-linecap:round;stroke-miterlimit:4;stroke-dasharray:none;stroke-width:1.80625021;fill:#630810;" d="M171.25,126.89l5.47,7.35"/>
<path id="path576" style="stroke-linejoin:miter;fill-rule:evenodd;stroke:#630810;stroke-linecap:round;stroke-miterlimit:4;stroke-dasharray:none;stroke-width:1.80625021;fill:#630810;" d="M171.25,134.24l5.94-7.19"/>
<path id="path577" style="stroke-linejoin:miter;fill-rule:evenodd;stroke:#630810;stroke-linecap:round;stroke-miterlimit:4;stroke-dasharray:none;stroke-width:1.80625021;fill:#630810;" d="M174.38,126.42l-0.16,4.54"/>
</g>
<g id="g578" style="stroke-linejoin:miter;stroke:#630810;stroke-linecap:round;stroke-miterlimit:4;stroke-dasharray:none;stroke-width:1.80625021;fill:#630810;" transform="matrix(1.554643,0,0,1.53646,27.32982,1.63912)">
<path id="path579" style="stroke-linejoin:miter;fill-rule:evenodd;stroke:#630810;stroke-linecap:round;stroke-miterlimit:4;stroke-dasharray:none;stroke-width:1.80625021;fill:#630810;" d="M171.25,126.89l5.47,7.35"/>
<path id="path580" style="stroke-linejoin:miter;fill-rule:evenodd;stroke:#630810;stroke-linecap:round;stroke-miterlimit:4;stroke-dasharray:none;stroke-width:1.80625021;fill:#630810;" d="M171.25,134.24l5.94-7.19"/>
<path id="path581" style="stroke-linejoin:miter;fill-rule:evenodd;stroke:#630810;stroke-linecap:round;stroke-miterlimit:4;stroke-dasharray:none;stroke-width:1.80625021;fill:#630810;" d="M174.38,126.42l-0.16,4.54"/>
</g>
<g id="g582" style="stroke-linejoin:miter;stroke:#630810;stroke-linecap:round;stroke-miterlimit:4;stroke-dasharray:none;stroke-width:1.80625021;fill:#630810;" transform="matrix(1.554643,0,0,1.53646,41.66169,1.63912)">
<path id="path583" style="stroke-linejoin:miter;fill-rule:evenodd;stroke:#630810;stroke-linecap:round;stroke-miterlimit:4;stroke-dasharray:none;stroke-width:1.80625021;fill:#630810;" d="M171.25,126.89l5.47,7.35"/>
<path id="path584" style="stroke-linejoin:miter;fill-rule:evenodd;stroke:#630810;stroke-linecap:round;stroke-miterlimit:4;stroke-dasharray:none;stroke-width:1.80625021;fill:#630810;" d="M171.25,134.24l5.94-7.19"/>
<path id="path585" style="stroke-linejoin:miter;fill-rule:evenodd;stroke:#630810;stroke-linecap:round;stroke-miterlimit:4;stroke-dasharray:none;stroke-width:1.80625021;fill:#630810;" d="M174.38,126.42l-0.16,4.54"/>
</g>
<g id="g586" style="stroke-linejoin:miter;stroke:#630810;stroke-linecap:round;stroke-miterlimit:4;stroke-dasharray:none;stroke-width:1.80625021;fill:#630810;" transform="matrix(1.554643,0,0,1.53646,55.50773,1.63912)">
<path id="path587" style="stroke-linejoin:miter;fill-rule:evenodd;stroke:#630810;stroke-linecap:round;stroke-miterlimit:4;stroke-dasharray:none;stroke-width:1.80625021;fill:#630810;" d="M171.25,126.89l5.47,7.35"/>
<path id="path588" style="stroke-linejoin:miter;fill-rule:evenodd;stroke:#630810;stroke-linecap:round;stroke-miterlimit:4;stroke-dasharray:none;stroke-width:1.80625021;fill:#630810;" d="M171.25,134.24l5.94-7.19"/>
<path id="path589" style="stroke-linejoin:miter;fill-rule:evenodd;stroke:#630810;stroke-linecap:round;stroke-miterlimit:4;stroke-dasharray:none;stroke-width:1.80625021;fill:#630810;" d="M174.38,126.42l-0.16,4.54"/>
</g>
<path id="path590" style="fill-rule:evenodd;fill:#ff9c10;" d="M214.37,214.37l30.61,0.24v-18.96l-34.98-1.68,4.37,20.4z"/>
<path id="path591" style="fill-rule:evenodd;fill:#ff9c10;" d="M212.91,188.2l32.56,3.12-0.25-13.44-31.82-12.48-0.49,22.8z"/>
<path id="path592" style="fill-rule:evenodd;fill:#ff9c10;" d="M219.47,161.32l25.02,12,3.58-3.69s-2.3-1.56-2.19-3.01c0.04-1.45,2.31-1.68,2.36-3.26,0.04-1.46-2.58-1.63-2.6-3.09-0.17-1.58,2.01-3.28,2.01-3.28l-22.59-19.44-5.59,23.77z"/>
<path id="path593" style="fill-rule:evenodd;fill:#ff9c10;" d="M383.68,214.61h-32.3l-0.25-18.48,35.47-2.65-2.92,21.13z"/>
<path id="path594" style="fill-rule:evenodd;fill:#ff9c10;" d="M384.47,187.91c-0.41-3-0.84-6-1.53-8.94-0.93-3.94-2.12-7.82-3.56-11.59-0.11-0.28-0.27-0.54-0.38-0.82l-27.62,11.56,0.24,13.69,32.85-3.9z"/>
<path id="path595" style="fill-rule:evenodd;fill:#ff9c10;" d="M365.59,143.47l-16.53,12.5c-0.01,0.01-0.02,0.05-0.03,0.06v0.03,0.03,0.03,0.04,0.06c0.14,0.72,1.6,2.48,1.81,3.78-0.11,1.98-1.8,2.85-2.09,3.72-0.01,0.02-0.03,0.07-0.03,0.09v0.07,0.09,0.06,0.06c0,0.02,0.03,0.05,0.03,0.07,0.02,0.04,0.03,0.11,0.06,0.15,0.46,0.69,2.07,1.09,2.07,2.53,0,1.58-1.47,2.52-1.66,2.63,1.9,1.26,2.25,2.79,2.66,4.34l24.74-12.87c-2.95-6.22-6.62-12.11-11.03-17.47z"/>
<path id="path596" style="fill-rule:evenodd;fill:#ff9c10;" d="M319.56,191.44l13.84-0.6,0.24-5.52-14.08,6.12z"/>
<path id="path597" style="fill-rule:evenodd;fill:#ff9c10;" d="M277.29,191.02l-14.58-0.42v-5.76l14.58,6.18z"/>
<path id="path598" style="fill-rule:evenodd;fill:#ff9c10;" d="M277.23,189.34l-14.52-7.38v-9.6s-1.7,0.24-1.45-1.68c0.08-4,10.66,7.3,16.09,10.98l-0.12,7.68z"/>
<path id="path599" style="fill-rule:evenodd;fill:#ff9c10;" d="M319.55,188.44l-0.06-6.24s13.12-11.7,15.91-13.86c0,2.4-1.51,4.26-1.51,4.26v9.12l-14.34,6.72z"/>
<path id="path600" style="fill-rule:evenodd;fill:#ff9c10;" d="M234.54,135.87c0.24,0.24,14.71,16.14,14.71,16.14,0.41-1.51,3.75-1.74,7.15-1.5s6.11-0.22,6.11,2.18-1.73,2.06-1.73,3.74,2.59,1.54,2.59,3.7-1.88,1.72-1.89,3.39c0,1.38,1.96,1.46,1.96,1.46l13.79,13.2,0.06-14.11-28.42-44.05-14.33,15.85z"/>
<path id="path601" style="fill-rule:evenodd;fill:#ff9c10;" d="M257.28,119.19c0.21,0.64,19.24,38.9,19.24,38.9s0.22-35.91,3.47-37.83l-5.41-9.84-17.3,8.77z"/>
<path id="path602" style="fill-rule:evenodd;fill:#ff9c10;" d="M319.41,115.06l-7.19,24.85s3.47,0.43,6.28,0.21c0.7-0.05,1.12,0.1,1.34,0.32,0.05,0.05,0.1,0.13,0.13,0.18,0.02,0.05,0.05,0.12,0.06,0.16,0.03,0.11,0.04,0.26,0.03,0.38-0.05,0.67-0.53,1.43-0.53,1.43l-0.03,16,20.31-35.87c-4.14-2.12-8.56-3.94-13.25-5.41-2.44-0.92-4.81-1.65-7.15-2.25z"/>
<path id="path603" style="fill-rule:evenodd;fill:#ff9c10;" d="M344.69,125.44l-25.13,38.62-0.03,14.88,16.53-15.69c0.2-0.19,0.35-0.36,0.44-0.5,0.03-0.05,0.05-0.12,0.06-0.16,0.01-0.02,0.03-0.07,0.03-0.09,0.01-0.01,0-0.05,0-0.06,0-0.02,0.01-0.05,0-0.06,0-0.02,0.01-0.05,0-0.07,0-0.01-0.02-0.05-0.03-0.06-0.01-0.03-0.04-0.07-0.06-0.09-0.4-0.48-1.71-0.74-1.84-2.16,0.02-0.28,0.09-0.51,0.18-0.69,0.36-0.63,1.1-0.74,1.57-1.31,0.24-0.31,0.4-0.76,0.4-1.5,0-0.52-0.06-0.87-0.15-1.09-0.02-0.03-0.02-0.08-0.04-0.1-0.02-0.04-0.06-0.09-0.09-0.12,0-0.01-0.03-0.03-0.03-0.03,0-0.01-0.03-0.03-0.03-0.04-0.22-0.18-0.52-0.21-0.78-0.4-0.02-0.01-0.05-0.02-0.07-0.03-0.02-0.02-0.06-0.07-0.09-0.1-0.04-0.04-0.09-0.1-0.12-0.15-0.17-0.25-0.32-0.64-0.41-1.25-0.05-0.24-0.06-0.5,0-0.75,0.01-0.05,0.05-0.12,0.06-0.16,0.02-0.03,0.05-0.09,0.06-0.12,0.06-0.1,0.14-0.22,0.22-0.32,0.03-0.02,0.07-0.07,0.1-0.09,0.58-0.53,1.78-0.94,4.03-0.94,4.08,0,8.36-0.78,9.06,0.88,0.07-0.07,9.04-9.05,12.85-12.97-4.85-5.05-10.43-9.53-16.69-13.28z"/>
<path id="path604" style="stroke-linejoin:round;fill-rule:evenodd;stroke:#630810;stroke-width:1.93190932;fill:#ce1126;" d="M289.94,221.58c-6.93,11.33-25.43,7.97-29.76,0.06-1.29-0.36-0.53-48.8-0.53-48.8s-2.06-0.93-2.16-2.42c-0.09-1.5,2.81-1.64,2.81-3.56,0-1.93-2.97-1.17-3.02-3.11,0.01-1.85,3.16-1.6,3.02-3.31-0.16-1.93-3.53-1.64-3.67-3.42-0.11-1.41,2.4-2.64,3.1-3.28-0.45,0.03-2.34-0.02-2.35-0.03-1.76,0.04-3.53,0.07-5.3,0.11-3.76,0,0.07,0.81,0.01,2.96-0.03,1.4-1.91,2.33-2.07,3.55-0.06,1.25,2.68,2.13,2.71,3.63,0.03,1.35-2.69,1.44-2.59,2.68,0.17,2.11,2.41,2.57,2.38,3.85-0.04,1.28-3.02,1.76-3.03,2.78,0.1,1.97,0.43,49.81,0.43,49.81,4.76,24.37,32.23,30.57,40.02-1.5z"/>
<path id="path606" style="stroke-linejoin:round;fill-rule:evenodd;stroke:#630810;stroke-width:1.93190932;fill:#ce1126;" d="M308.05,221.58c6.92,11.33,25.42,7.97,29.75,0.06,1.3-0.36,0.53-48.8,0.53-48.8s2.07-0.93,2.16-2.42c0.1-1.5-2.63-1.64-2.63-3.56,0-1.93,2.79-1.17,2.85-3.11-0.01-1.85-2.93-1.72-2.79-3.43,0.17-1.92,2.46-1.7,2.59-3.48,0.11-1.53-1.44-2.46-2.14-3.1,0.45,0.03,2.22-0.02,2.23-0.03,1.77,0.04,3.53,0.07,5.3,0.11,3.77,0-0.06,0.81-0.01,2.96,0.04,1.4,1.91,2.33,2.08,3.55,0.06,1.25-2.69,2.13-2.72,3.63-0.03,1.35,2.7,1.44,2.6,2.68-0.17,2.11-2.42,2.57-2.38,3.85,0.03,1.28,3.02,1.76,3.03,2.78-0.11,1.97-0.44,49.81-0.44,49.81-4.76,24.37-32.22,30.57-40.01-1.5z"/>
<path id="path610" style="stroke-width:1.54552746pt;fill-rule:evenodd;stroke:#083d9c;fill:#083d9c;" d="M283.21,243.86l30.91-0.02c0.24-0.24-6.92-10.55-15.45-9.82-9.5,0.25-15.95,9.84-15.46,9.84z"/>
<path id="path611" style="stroke-width:1.54552746pt;fill-rule:evenodd;stroke:#083d9c;fill:#083d9c;" d="M381.77,243.12h-42.3s5.48-3.2,6.97-6.15c2.74,1.48,1.99,2.95,7.46,3.2,5.48,0.24,10.7-6.15,15.93-5.9,5.22,0.24,11.94,9.09,11.94,8.85z"/>
<path id="path612" style="stroke-width:1.54552746pt;fill-rule:evenodd;stroke:#083d9c;fill:#083d9c;" d="M215.1,243.12h42.3s-5.48-3.2-6.97-6.15c-2.74,1.48-1.99,2.95-7.46,3.2-5.48,0.24-10.7-6.15-15.93-5.9-5.22,0.24-11.94,9.09-11.94,8.85z"/>
<path id="path613" style="stroke-width:1.54552746pt;fill-rule:evenodd;stroke:#083d9c;fill:#083d9c;" d="M218.26,229.98l30.12,0.24s-1.94-4.09-2.18-9.13c-7.78-2.64-14.09,5.76-19.68,6s-11.42-6-11.42-6l3.16,8.89z"/>
<path id="path614" style="stroke-width:1.54552746pt;fill-rule:evenodd;stroke:#083d9c;fill:#083d9c;" d="M379.07,229.98l-30.12,0.24s1.94-4.09,2.18-9.13c7.78-2.64,14.09,5.76,19.68,6s11.42-6,11.42-6l-3.16,8.89z"/>
<path id="path615" style="stroke-width:1.54552746pt;fill-rule:evenodd;stroke:#083d9c;fill:#083d9c;" d="M290.89,230.22l15.3-0.48s0.25-4.57-7.77-4.57-7.29,5.29-7.53,5.05z"/>
<path id="path616" style="stroke-linejoin:miter;fill-rule:evenodd;stroke:#630810;stroke-linecap:round;stroke-miterlimit:4;stroke-dasharray:none;stroke-width:2.7916038;fill:#630810;" d="M281.66,223.73c2.67-1.44,5.1-2.88,6.8-6.24l-10.44,0.24s-4.86,2.88-7.29,6h10.93z"/>
<path id="path617" style="stroke-linejoin:miter;fill-rule:evenodd;stroke:#630810;stroke-linecap:round;stroke-miterlimit:4;stroke-dasharray:none;stroke-width:2.7916038;fill:#630810;" d="M315.42,223.73c-2.67-1.44-5.1-2.88-6.8-6.24l10.45,0.24s4.86,2.88,7.29,6h-10.94z"/>
<path id="selection_to_path" style="fill:white;" d="M0,100v200h600v-200h-600zm290.62,12.6c12.51,0,23.44,0,35.94,4.72,70.32,22.05,79.69,121.26,17.19,159.06-10.94,7.87-21.87,11.02-34.37,12.6-9.38,0-18.76,0-28.13-1.58-68.75-14.17-90.63-105.51-39.06-152.75,14.06-12.6,29.69-18.9,48.43-22.05z"/>
</g>
</svg>
