<?xml version="1.0" encoding="UTF-8" standalone="no"?>
<svg id="svg2" xmlns:rdf="http://www.w3.org/1999/02/22-rdf-syntax-ns#" xmlns="http://www.w3.org/2000/svg" height="450" width="600" version="1.1" xmlns:cc="http://creativecommons.org/ns#" xmlns:xlink="http://www.w3.org/1999/xlink" viewBox="0 0 768 576" xmlns:dc="http://purl.org/dc/elements/1.1/">
<metadata id="metadata20">
<rdf:RDF>
<cc:Work rdf:about="">
<dc:format>image/svg+xml</dc:format>
<dc:type rdf:resource="http://purl.org/dc/dcmitype/StillImage"/>
<dc:title>Flag of Papua New Guinea</dc:title>
</cc:Work>
</rdf:RDF>
</metadata>
<title id="title4">Flag of Papua New Guinea</title>
<g id="g6">
<rect id="rect3372" style="fill:#000;" height="576" width="768" y="0" x="0"/>
<path id="path4249" style="fill-rule:evenodd;fill:#ce1126;" d="M0,0h768v576l-768-576z"/>
<path id="path3348" style="fill:#fcd116;" d="M475.48,167.35c-5.67,7.33-19.09-7.37-35.17-7.7-16.08-0.34-27.47,15.41-32.16,20.77s-19.76,33.5-19.43,36.51c0.33,3.02,9.38-8.37,12.73-10.38,0.33,4.02-3.69,8.71-2.68,10.05s11.72-8.04,15.41-8.38c1,2.68-2.01,5.36-1.01,9.38,1.35,1.34,7.38-6.7,11.4-8.37,0.66,3.01-3.69,8.71-1.35,12.39,1.68,0.34,11.73-11.39,15.08-12.73s-1.68,11.06,0,12.06c3.01-2.01,12.4-12.73,15.41-14.07,3.02-1.34-0.33,13.74,1.01,13.74,3.68-2.68,13.06-15.41,14.07-17.42,1-2.01-1.01,19.43,9.37,30.82,10.39,11.39,26.14,24.45,27.81,24.45,2.01-3.68-0.67-11.39,1.01-11.05,4.68,5.02,13.4,12.39,15.4,12.39,2.02,0-1.34-8.04,1.34-8.04,5.37,5.03,20.78,24.79,50.92,33.84-2-5.7-6.36-10.72-6.7-13.4,2.01,0.33,9.05,3.68,10.39,3.35,1.34-0.34-14.74-20.1-13.73-22.78,3.68-0.34,5.36,2.01,6.7,0.33-1.68-2.68-15.75-18.42-15.75-22.11,0-3.68,4.36,0.67,5.7,0,1.33-0.67-5.36-14.74-4.02-16.41,1.33-1.68,16.07,9.04,19.76,9.04s1-13.06,2.68-13.73,14.07,7.03,16.75,7.03,2.34-5.69,3.35-5.02,30.15,29.81,20.1,63.98c-10.05,24.46-30.15,37.52-59.63,26.8,1.67,2.68,17.42,15.75,34.5,11.06,17.09-4.69,37.86-18.09,35.51-51.59-2.34-33.5-13.4-38.19-15.07-43.22-1.67-5.02,2.68,1.34,6.37,2.68,3.68,1.35-0.67-7.03-1.68-10.72-1.01-3.68,11.05,7.71,14.07,8.71,3.02,1.01-7.04-27.47-10.05-29.48s3.01,0.67,5.03,1.34c2,0.67-18.43-31.15-22.79-31.15-4.35,0,3.69-1.68,6.03-1.68,2.35,0-23.44-20.77-27.8-20.77s9.38-5.36,10.72-5.69c2.35,0.33-29.81-17.09-58.62,0.33-1.68-1.34,13.56-11.89,14.06-16.41,0.17-1.17-5.02-3.69-5.35-5.03-0.34-1.34,8.04-5.36,8.37-8.37-2.01-2.68-5.7-1.68-7.71-2.35-0.5-2.508,7.04-8.706,6.37-11.385-0.5-1.508-6.03-2.01-7.37-1.005s3.52-7.035,2.68-9.38c-0.67-1.005-3.35-0.335-6.03,0.335-1.68-0.335,8.71-14.741,6.7-16.751s-30.15,14.74-40.54,33.5c-10.38,18.756-2.34,33.836-3.68,40.196-1.34,6.37-3.02,12.73-7.37,12.73s-14.4-6.7-17.75-10.05c-3.36-3.35-4.02-5.69-8.72-7.03-4.69-1.34-15.4,2.68-19.42,3.01-4.02,0.34-19.77-3.01-20.78-2.01-1,1.01,15.41,7.04,19.1,9.05s4.02,4.69,6.7,6.36c2.68,1.68,27.8,9.05,19.76,19.43zm98.16,47.24c8.04,8.04,62.31,44.22,62.31,88.44s-39.53,42.88-50.92,41.54c12.73,10.72,60.97,8.71,60.97-41.54,0-44.22-62.31-88.44-70.35-92.46s-10.05-4.02-2.01,4.02z"/>
<use id="use2390" xlink:href="#polygon5131" transform="translate(87.582,-160)" height="576" width="768" y="0" x="0"/>
<polygon id="polygon5131" style="fill:#fff;" points="192.54,176.39,200.94,205.23,229.96,205.23,207.05,222.86,215.45,250.9,192.54,233.27,169.63,250.1,178.03,222.86,155.12,205.23,183.38,205.23,192.54,176.39" transform="translate(-0.122,266.606)"/>
<polygon id="polygon5133" style="fill:#fff;" points="192.54,176.39,200.94,205.23,229.96,205.23,207.05,222.86,215.45,250.9,192.54,233.27,169.63,250.1,178.03,222.86,155.12,205.23,183.38,205.23,192.54,176.39" transform="matrix(0.5,0,0,0.5,135.439,293.551)"/>
<use id="use2392" xlink:href="#use2390" transform="translate(-87.582,-104.504)" height="576" width="768" y="0" x="0"/>
<use id="use2394" xlink:href="#use2392" transform="translate(-88,112.504)" height="576" width="768" y="0" x="0"/>
</g>
</svg>
