<?xml version="1.0" encoding="UTF-8" standalone="no"?>
<svg id="svg2" xmlns:rdf="http://www.w3.org/1999/02/22-rdf-syntax-ns#" xmlns="http://www.w3.org/2000/svg" height="450" width="900" version="1.1" xmlns:cc="http://creativecommons.org/ns#" xmlns:xlink="http://www.w3.org/1999/xlink" viewBox="0 0 180 90" xmlns:dc="http://purl.org/dc/elements/1.1/">
<metadata id="metadata46">
<rdf:RDF>
<cc:Work rdf:about="">
<dc:format>image/svg+xml</dc:format>
<dc:type rdf:resource="http://purl.org/dc/dcmitype/StillImage"/>
<dc:title>Flag of the Philippines</dc:title>
</cc:Work>
</rdf:RDF>
</metadata>
<title id="title4">Flag of the Philippines</title>
<desc id="desc6">Coding according to the official &quot;description and specification of the FILIPINO flag&quot; in Executive Order No. 23 from 1936</desc>
<rect id="rect8" width="180" fill="#0038a8" height="90"/>
<rect id="rect10" y="45" width="180" fill="#ce1126" height="45"/>
<path id="path12" d="M77.942,45,0,90,0,0" fill="#fff"/>
<!-- 45*Sqrt(3) -->
<g id="g14" transform="translate(28,45)" fill="#fcd116">
<circle id="circle16" r="9" d="M 9,0 C 9,4.9705627 4.9705627,9 0,9 -4.9705627,9 -9,4.9705627 -9,0 c 0,-4.9705627 4.0294373,-9 9,-9 4.9705627,0 9,4.0294373 9,9 z"/>
<g id="j">
<g id="i">
<g id="h"><!-- these coordinates are  -1/(1+tan(k*Pi/48)),1-1/(1+tan(k*Pi/48)) --><!-- k in {1,2,3}.  2nd scaling factor is 85/0.88366349...  -->
<path id="path21" d="M-1,0l0.06151,0.061512,0.93849-0.061512-0.93849-0.061512z" transform="scale(19)"/>
<path id="g" transform="scale(19.238092)" d="M-0.88366,0.11634l0.04957,0.04957,0.83409-0.16591z"/>
<use id="use24" xlink:href="#g" transform="scale(1,-1)"/>
</g>
<use id="use26" xlink:href="#h" transform="rotate(45)"/>
</g>
<use id="use28" xlink:href="#i" transform="rotate(90)"/>
</g>
<use id="use30" xlink:href="#j" transform="rotate(180)"/>
<g id="g32" transform="translate(-2.019238)"><!-- 15*Sqrt(3)-28  -->
<g id="s" transform="translate(37.961524,0)"><!-- 30*Sqrt(3)-14  --><!-- 5-pointed star with ri=2 and rc=5, not(!) r2/r1 = 0.381966...  -->
<path id="t" d="M5,0l-3.382,1.1756-0.0729,3.5797-2.1631-2.8532-3.4271,1.0368,2.0451-2.9389z"/>
<use id="use36" xlink:href="#t" transform="scale(1,-1)"/>
</g>
<use id="use38" xlink:href="#s" transform="rotate(120)"/>
<use id="use40" xlink:href="#s" transform="rotate(-120)"/>
</g>
</g>
</svg>
