<?xml version="1.0" encoding="UTF-8" standalone="no"?>
<!-- Created with Inkscape (http://www.inkscape.org/) -->
<svg id="Flag_of_the_Pitcairn_Islands" xmlns:rdf="http://www.w3.org/1999/02/22-rdf-syntax-ns#" xmlns="http://www.w3.org/2000/svg" height="600" width="1200" version="1.0" xmlns:cc="http://creativecommons.org/ns#" xmlns:dc="http://purl.org/dc/elements/1.1/" viewBox="-15 -7.5 30 15">
<metadata id="metadata125">
<rdf:RDF>
<cc:Work rdf:about="">
<dc:format>image/svg+xml</dc:format>
<dc:type rdf:resource="http://purl.org/dc/dcmitype/StillImage"/>
<dc:title/>
</cc:Work>
</rdf:RDF>
</metadata>
<defs id="defs3">
<clipPath id="border">
<rect id="rect6" y="-7.5" x="-15" height="15" width="30"/>
</clipPath>
</defs>
<rect id="rect8" height="15" width="30" y="-7.5" x="-15" fill="#00247D"/>
<comment id="comment10">The above line is the ensign field color: #CF142B red and #00247D blue</comment>
<g id="canton" transform="matrix(0.5,0,0,0.5,-7.5,-3.75)">
<g id="g13" clip-path="url(#border)">
<circle id="circle15" d="m 20,0 c 0,11.045695 -8.954305,20 -20,20 -11.045695,0 -20,-8.954305 -20,-20 0,-11.045695 8.954305,-20 20,-20 11.045695,0 20,8.954305 20,20 z" r="20" fill="#00247D"/>
<path id="diags_white" stroke="white" stroke-width="3" d="M-20-10l40,20m-40,0l40-20"/>
<path id="diags_red" stroke="#CF142B" stroke-width="2" d="M-20-10l40,20m-40,0l40-20"/>
<path id="eraser_white" stroke="none" d="M0,0l20,10h-3l-20-10m3,0l20-10h3l-20,10m-3,0l-20,10h-3l20-10m3,0l-20-10h3l20,10" fill="white"/>
<comment id="comment20">I think the above two lines give the simplest way to make the diagonals</comment>
<path id="cross_white" stroke="white" stroke-width="5" d="M-20,0h40m-20-10v20"/>
<path id="cross_red" stroke="#CF142B" stroke-width="3" d="M-20,0h40m-20-10v20"/>
</g>
</g>
<g id="g2791" transform="matrix(0.118269,0,0,0.118269,-18.38135,-8.683977)">
<path id="path2793" style="stroke-width:0.125;stroke:#000000;fill:#f7e017;" d="M197.84,77.265c-2.7,2.295-5.28,5.64-5.91,8.663-1.78,8.513-4.15,10.407-7.81,8.579,0,4.57,4.01,4.921,5.77,2.25,0,4.293,1.55,8.003,5.06,11.183,1.48,1.33,1.76,0.42,1.06-1.06-0.71-1.48-0.71-6.26-2.11-8.998,2.25,1.617,5.55,0.703,5.27-3.727-2.88,1.687-5.75,1.621-6.05-2.391-0.35-4.711,1.49-11.546,4.72-14.499z"/>
<path id="path2795" style="stroke-width:0.125;stroke:#000000;fill:#f7e017;" d="M194.42,43.401c0.19-1.689-0.17-3.424-1.4-4.512-2.39-2.099-4.72-1.404-6.46,0.287-2.6-1.406-3.98,3.581-6.94,2.737,0.5,1.617,1.27,2.32,2.74,1.758-1.54,1.406,0,3.093-1.82,4.781,3.3,1.055,5.06-0.774,4.92-3.938,1.26,1.125,3.23,1.055,4.29-0.211-1.76-0.562-1.77-2.092-1.06-3.515,1.06-2.11,6.01-2.028,5.73,2.613z"/>
<path id="path2797" style="stroke-width:0.125;stroke:#000000;fill:#337321;" d="M202.05,67.858c-3.72,1.969-10.54,1.125-11.18-3.726-0.63-4.852,4.08-7.032,5.35-7.664,1.97-0.987,3.51,0.773,2.88,2.812,2.18-0.773,2.67-3.305,1.62-4.781,2.88,0.211,5.55-1.969,6.68-5.063-1.01,0.963-3.77,0.312-6.04,0.166,0.7-0.774,0.69-2.275,0.48-3.049-2.39,2.461-5.83,1.336-10.4,8.438,0.7-2.461,2.04-7.383,2.81-10.617,0.07-0.324,0.13-0.642,0.17-0.973,0.28-4.641-4.67-4.724-5.72-2.615,1.16,1.305,0.55,2.827,0.13,5.135-0.49,2.742-1.54,9.07-2.46,11.179-0.28-3.304-2.46-3.515-2.88-5.132-0.63,0.421-0.98,1.546-0.84,2.32-0.78-0.844-3.45,0.211-4.43-1.055-1.06,2.109,0.63,4.219,2.39,5.133-1.02,0.07-1.27,1.301-2.39,1.301,1.51,1.757,3.06,2.461,4.85,2.601,1.79,0.141,3.13,0.808,4.22,2.989,1.75,3.515,8.45,5.8,14.76,2.601z"/>
<path id="path2799" style="stroke-width:0.125;stroke:#000000;fill:#f7e017;" d="M211.33,63.569c-2.11,5.836-7.87,9.984-10.47,10.617-4.43,1.077-13.46,5.46-15.88,7.717-0.39-0.085-0.74-0.224-1-0.404-1.19-0.844-2.18-3.586-0.07-5.907,6.61-6.187,13.71-3.515,18.14-7.734-3.72,1.969-10.54,1.125-11.18-3.726,4.01,1.054,11.25,1.125,17.02-5.063,0.77,0.844,3.02,3.516,3.44,4.5z"/>
<path id="path2801" style="stroke-width:0.125;stroke:#000000;fill:#337321;" d="M197.84,77.265c-3.34,2.834-5.07,9.788-4.72,14.499,0.1,1.311,0.47,2.199,1.03,2.744,0.24-2.672,2.1-9.576,6.85-12.658,4.01-2.601,10.26-8.437,12.58-15.117-0.42-1.195-1.12-2.039-2.46-2.883-2.29,6.304-8.46,9.328-13.28,13.415z"/>
<path id="path2803" style="stroke-width:0.125;stroke:#000000;fill:#316d3a;" d="M209.19,60.862c-1.2,1.793-3.9,4.254-6.5,5.238,0.56-0.632,0.73-1.441,0.77-2.109-3.31,1.266-9.92,1.125-12.59,0.141,4.01,1.054,11.25,1.125,17.02-5.063,0.56,0.633,1.05,1.195,1.3,1.793z"/>
<path id="path2805" style="stroke-width:0.125;stroke:#000000;fill:#337321;" d="M183.91,75.592c-5.37,5.031-1.83,9.422,0.28,10.407-0.56,3.515,2.75,3.093,2.67,6.047,1.34-0.774,1.69-2.813,1.48-4.43,1.69,1.828,5.98-0.211,6.89,3.164,0.57-3.727-2.32-7.453-5.9-7.102,1.47-1.336,0.63-3.515-0.78-4.078-0.28,2.742-3.37,2.742-4.57,1.899-1.19-0.844-2.18-3.586-0.07-5.907z"/>
<path id="path2807" style="stroke-width:0.125;stroke:#000000;fill:#f7e017;" d="M195.55,107.58c-0.59,0.34-0.55,1.1-0.18,1.59,0.74,0.98-0.52,3.21,1.87,3.69,0.7,0.14,1.24-0.29,1.51-1.09,0.74-2.22-1.62-2.46-1.83-3.52-0.21-1.05-0.88-0.95-1.37-0.67z"/>
<path id="path2809" style="stroke-width:0.125;stroke:#000000;fill:#f7e017;" d="M197.55,111.73c-0.79,0.37-1.47,0.88-1.16,3.41,0.13,1.05,0.07,3.59-0.84,3.62,0.56,0.29,1.76,0.58,2.25-0.07,0.47,0.79,1.55,0.57,1.97-0.42,0.56,0.46,1.33-0.31,1.33-0.98,0.5,0.31,1.48-0.14,1.23-1.65,0.6,0.21,1.37-0.22,1.66-0.6-0.88-0.18-3.1-1.37-3.63-2.32-0.52-0.95-1.89-1.41-2.81-0.99z"/>
<g id="g2811">
<path id="path2813" style="stroke:#000000;stroke-width:0.125;fill:none;" d="M185.37,40.621c0.35-0.525,0.75-1.018,1.19-1.445"/>
<path id="path2815" style="stroke:#000000;stroke-width:0.125;fill:none;" d="M198.75,49.928c0.62-0.354,1.56-0.394,2.61-0.326"/>
<path id="path2817" style="stroke:#000000;stroke-width:0.125;fill:none;" d="M197.8,118.69c-0.25-0.35-0.34-1.82-0.16-2.72"/>
<path id="path2819" style="stroke:#000000;stroke-width:0.125;fill:none;" d="M199.77,118.27c-0.39-0.3-1.13-1.32-1.25-2.21"/>
<path id="path2821" style="stroke:#000000;stroke-width:0.125;fill:none;" d="M201.1,117.29c-0.49-0.23-1.68-1.78-1.95-2.78"/>
<path id="path2823" style="stroke:#000000;stroke-width:0.125;fill:none;" d="M202.33,115.64c-0.58-0.13-2.35-1.29-3.09-2.52"/>
</g>
<path id="path2825" style="stroke-width:0.125;stroke:#000000;fill:#f7e017;" d="M234.75,75.663c8.65,7.242,9.21,13.008,7.87,16.383-0.7-3.164-4.29-8.086-8.01-9.352l0.14-7.031z"/>
<g id="g2006">
<g id="g2828">
<path id="path2830" style="stroke-width:0.125;stroke:#000000;fill:#337321;" d="M219.28,71.585h16.03v18.984c0,16.171-9,25.731-18.14,30.801-9.14-5.07-18.14-14.63-18.14-30.801v-18.984h11.25c0.02,0.984,0.1,2.461,1.26,3.937,2.66-0.264,5.66-2.25,7.74-3.937z"/>
<path id="path2832" style="stroke:#000000;stroke-width:0.125;fill:#006ec7;" d="M235.31,71.585v18.984c0,4.882-0.82,9.162-2.22,12.901l-15.92-29.213-15.92,29.213c-1.4-3.739-2.22-8.019-2.22-12.901v-18.984h36.28z"/>
<path id="path2711" style="fill:#f7e017;" d="M233.58,102.06c-0.28,0.87-0.79,2.26-1.19,3.12l-15.22-28.285-15.22,28.285c-0.4-0.86-0.91-2.25-1.19-3.12l16.41-30.421,16.41,30.421z"/>
</g>
<g id="g2835" style="fill:#f7e017;">
<path id="path2837" style="stroke-width:0.125;stroke:#000000;fill:#f7e017;" d="M224.41,112.47c0.42,0.21,1.2,0.6,1.55,0.74,0.84-1.69,0.98-4.08,0.7-6.19-0.91,2.32-4.01,2.25-4.85,3.66,0.52,0.26,1,0.6,1.42,0.9-1.06,1.05-3.53,2.82-4.93,3.25v-15.085c0-1.055-0.36-1.934-0.36-2.813v-3.118c0-0.703-0.14-1.722-0.77-1.722s-0.77,1.019-0.77,1.722v3.118c0,0.879-0.36,1.899-0.36,2.813v15.085c-0.77-2.25-3.8-1.48-5.2-3.73,0.55-0.14,1.13-0.18,1.69-0.07-1.05-3.59-3.94-3.87-4.5-4.92,0,1.47-0.63,4.92,0.35,6.4,0.22-0.27,0.55-0.54,0.95-0.78,1.2,2.6,6.57,2.61,7.84,6.89,1.02-1.57,4.68-3.4,7.24-6.15z"/>
<path id="path2839" style="stroke-width:0.125;stroke:#000000;fill:#f7e017;" d="M217.17,99.921c1.19,0,4.99-0.389,6.36-0.389,0.36,0,0.65-0.534,0.65-1.193s-0.29-1.194-0.65-1.194c-1.37,0-5.17-0.388-6.36-0.388s-4.99,0.388-6.36,0.388c-0.36,0-0.65,0.535-0.65,1.194s0.29,1.193,0.65,1.193c1.37,0,5.17,0.389,6.36,0.389z"/>
<path id="path2841" style="stroke:#000000;stroke-width:0.125;fill:#f7e017;" d="M216.4,93.74c-0.25-0.204-0.59-0.328-0.95-0.328-0.8,0-1.44,0.59-1.44,1.317s0.64,1.316,1.44,1.316c0.79,0,1.44-0.589,1.44-1.316,0-0.563,0.82-0.563,0.82,0,0,1.139-1.01,2.063-2.26,2.063s-2.26-0.924-2.26-2.063c0-1.14,1.01-2.063,2.26-2.063,0.37,0,0.73,0.083,1.04,0.23-0.03,0.189-0.09,0.541-0.09,0.844z"/>
<path id="path2843" style="stroke:#000000;stroke-width:0.125;fill:#f7e017;" d="M210.81,99.532c0.35,0,0.64-0.534,0.64-1.193s-0.29-1.194-0.64-1.194"/>
<path id="path2845" style="stroke:#000000;stroke-width:0.125;fill:#f7e017;" d="M211.34,99.532c0.36,0,0.64-0.534,0.64-1.193s-0.28-1.194-0.64-1.194"/>
<path id="path2847" style="stroke:#000000;stroke-width:0.125;fill:#f7e017;" d="M214.81,99.777c0.43,0,0.78-0.644,0.78-1.438,0-0.795-0.35-1.439-0.78-1.439"/>
<path id="path2849" style="stroke:#000000;stroke-width:0.125;fill:#f7e017;" d="M215.62,99.842c0.45,0,0.81-0.673,0.81-1.503,0-0.831-0.36-1.504-0.81-1.504"/>
<path id="path2851" style="stroke:#000000;stroke-width:0.125;fill:#f7e017;" d="M218.32,99.859c0.45,0,0.82-0.681,0.82-1.52,0-0.84-0.37-1.521-0.82-1.521"/>
<path id="path2853" style="stroke:#000000;stroke-width:0.125;fill:#f7e017;" d="M219.17,99.811c0.45,0,0.81-0.659,0.81-1.472,0-0.814-0.36-1.473-0.81-1.473"/>
<path id="path2855" style="stroke:#000000;stroke-width:0.125;fill:#f7e017;" d="M222.94,99.555c0.37,0,0.66-0.544,0.66-1.216s-0.29-1.217-0.66-1.217"/>
<path id="path2857" style="stroke:#000000;stroke-width:0.125;fill:#f7e017;" d="M209.33,111.73c0.44-0.27,0.96-0.5,1.51-0.63"/>
<path id="path2859" style="stroke:#000000;stroke-width:0.125;fill:#f7e017;" d="M223.64,111.87c-0.13-0.09-0.27-0.19-0.41-0.29"/>
<path id="path2861" style="stroke:#000000;stroke-width:0.125;fill:#f7e017;" d="M224.41,112.47c0.98-1.06,1.8-2.25,2.25-3.62"/>
</g>
<g id="g2863">
<path id="path2865" style="stroke:#000000;stroke-width:0.125;fill:#ffffff;" d="M213.95,85.006c0-0.343,0.28-0.49,0.61-0.739,0.4-0.299,0.55-0.439,0.91-0.439h4.62c0.34,0,0.42,0.088,0.42,0.404v6.276c0,0.316-0.08,0.404-0.42,0.404h-6.14v-5.968"/>
<path id="path2867" style="stroke:#000000;stroke-width:0.125;fill:#e5e5e5;" d="M218.95,91.457c0.6,0,0.49-0.013,0.92-0.439,0.44-0.444,0.4-0.405,0.4-0.813v-5.738c0-0.296-0.07-0.378-0.39-0.378h-4.27c-0.33,0-0.48,0.131-0.85,0.411-0.3,0.232-0.56,0.37-0.56,0.69v6.267h4.75z"/>
<path id="path2869" style="stroke:#000000;stroke-width:0.125;fill:#ffffff;" d="M219.4,91.325c0,0.316-0.08,0.404-0.42,0.404h-4.61c-0.35,0-0.42-0.088-0.42-0.404v-6.275c0-0.317,0.07-0.405,0.42-0.405h4.61c0.34,0,0.42,0.088,0.42,0.405v6.275z"/>
</g>
</g>
<g id="g2871">
<path id="path2875" style="stroke-width:0.125;stroke:#000000;fill:#96877d;" d="M228.35,67.908c0.9,1.002,1.19,2.352,0.7,3.67h-1.33c0.56-1.687,0.21-3.298-2.18-3.509-3.58-0.315-7.74,6.609-14,7.453-1.82-2.18-1.72-6.332,0.6-8.3-1.2-3.458-3.74-7.262-5.49-8.908-1.15-0.186-2.47-0.28-3.33-0.229,0.91-1.969,3.52-4.041,5.63-4.885,0.34-0.499,0.71-0.979,1.05-1.408,0.21-2.707,13.08-1.442,15.82,0.246,0,3.023,1.19,13.127,2.53,15.87z"/>
<g id="g2877" style="fill:#000000;">
<path id="path2879" style="fill:#000000;" d="M212.75,69.753c-0.3-4.687-2.2-8.546-4.86-11.176,1.26,0.351,3.87,0.351,5.62-0.914,2.32-1.547,8.37-4.254,10.59-3.094,0.17,0.387,0.28,1.266,0.14,1.828-0.53-1.406-6.37,0.774-8.02,1.442-1.58,0.738-2.28,1.722-1.72,3.937-0.92-0.773-0.6-1.512-1.55-2.074,0.39,0.914,0.7,2.566,0.81,3.902-0.35-0.949-0.98-2.988-2.36-4.183,1.2,2.32,2.24,7.892,1.74,10.845,0.95,0,3.05-0.931,3.89-1.599-0.74,1.054-2.87,1.793-4.24,2.074-0.61,0.738-1.03,2.637-1,3.691-0.1-1.3,0.31-4.471,0.96-4.679z"/>
<path id="path2881" style="fill:#000000;" d="M228.35,67.908c-1.17-1.296-3.34-1.998-6.12-1.245,0.42-0.211,1.34-0.563,2.15-0.703-0.11-0.739-0.78-3.903-0.88-4.676l0.77-0.316c0.39,1.898,0.88,4.078,1.2,4.956,0.24,0.071,0.81,0.176,1.3,0.422-0.21-0.738-1.41-6.046-1.37-6.609l1.05-0.563c0.42,2.883,1.09,7.067,1.9,8.734z"/>
</g>
<g id="g2985">
<path id="path2873" style="stroke-width:0.125;stroke:#000000;fill:#96877d;" d="M227.72,71.578c0.56-1.687,0.21-3.298-2.18-3.509-1.86-0.163-3.87,1.637-6.24,3.509h8.42z"/>
<path id="path2883" style="stroke-width:0.125;stroke:#000000;fill:#96877d;" d="M212.18,56.432c-1.06,0.141-3.41-0.07-4.61-0.457,0.07-0.317,0.19-0.646,0.35-0.994-0.74,0.492-2.14,1.451-2.67,2.119,1.69,0.352,5.17,0.527,6.93-0.668z"/>
</g>
<path id="path2885" style="stroke:#000000;stroke-width:0.125;fill:none;" d="M212.14,67.222c0.38,1.121,0.64,2.204,0.67,3.167"/>
<path id="path2887" style="stroke:#000000;stroke-width:0.125;fill:none;" d="M208.95,53.2c-0.64,0.932-1.19,1.928-1.38,2.775,1.2,0.387,3.55,0.598,4.61,0.457"/>
<path id="path2889" style="stroke:#000000;stroke-width:0.125;fill:none;" d="M206.65,58.314c0.45,0.074,0.88,0.163,1.24,0.263,1.26,0.351,3.87,0.351,5.62-0.914,1.76-1.266,6.54-5.203,11.96-5.625"/>
<path id="path2891" style="stroke:#000000;stroke-width:0.125;fill:none;" d="M205.25,57.1c1.69,0.352,5.17,0.527,6.93-0.668,4.08-2.777,8.01-4.394,11.95-4.605"/>
</g>
<path id="path2893" style="stroke-width:0.125;stroke:#000000;fill:#337321;" d="M234.75,75.663c5.9,4.078,10.26,8.015,11.53,14.344,1.26,6.328,3.66,8.015,6.61,6.328-0.7,3.656-4.36,4.075-7.45,1.265,0.28,4.22-1.41,9.28-5.77,11.11-0.28-2.53,1.39-4.54,0.91-6.61-0.21-0.91-0.28-3.023,0.92-4.008-2.32,0.774-5.98-0.703-6.33-4.148,2.67,1.266,6.12,1.477,7.45-1.898,1.34-3.375,0.78-9.141-7.87-16.383z"/>
<path id="path2895" style="stroke-width:0.125;stroke:#000000;fill:#337321;" d="M242.2,42.757c1.83-4.782,6.61-4.289,8.23-2.25,4.71-2.672,5.34,3.375,9.35,2.179-0.07,1.125-1.41,2.18-2.88,2.11,1.54,1.406-0.64,3.515,2.67,4.781-2.81,1.406-6.75-0.07-7.81-3.938-0.91,1.829-4.22,1.829-5.55,0.352,2.88-0.773,2.67-3.445,1.05-4.5-1.62-1.062-4.5-0.633-5.06,1.266z"/>
<path id="path2897" style="stroke-width:0.125;stroke:#000000;fill:#337321;" d="M227.94,53.286c1.31,4.232,4.02,8.164,6.95,10.846,3.37,3.093,8.47,2.32,11.32-0.633,0.07,5.888-6.03,6.345-9.42,4.5-1.5-0.814-2.71-0.386-1.27,0.914,2.18,1.969,6.95,3.432,12.59,4.64,9.84,2.11,6.33,9.915,3.44,9.844,0.83-0.017,1.51-0.883,0.32-1.951-8.54-7.682-25.91-4.658-25.63-21.814-1.83,4.5-9.35,2.742-5.84-2.602,1.13,0.914,3.1,0.984,3.66-0.422,0.44-1.094,0.15-2.997-1.82-4.632,0.33-0.026,1.02,0,0.95-0.808,0.09,0.474,0.52,1.177,1.63,0.94,0.31,0.501,0.64,0.83,1.1,0.65,0.08-0.035,0.35-0.166,0.24-0.668,0.09,0.932,1.2,1.266,1.78,1.196z"/>
<path id="path2899" style="stroke-width:0.125;stroke:#000000;fill:#f7e017;" d="M236.79,67.999c4.07,2.672,8.69,2.67,12.93-2.25,1.34-1.547,3.45-2.883,4.93-3.024,1.47-0.14,1.4-1.547,2.53-1.828-0.7-0.211-0.99-1.055-2.04-0.949,2.64-0.914,1.86-3.024,3.16-4.043-1.05,0.387-2.7-1.195-4.22,0.809,0.39-0.914-0.14-2.004-0.52-2.426,0.14,1.054-2.08,1.265-2.5,3.937-0.24,1.499-1.05,1.407-1.2-0.914-0.1-1.697-0.91-6.398-1.89-8.789-0.99-2.39-1.21-5.672,0.12-6.165-0.2-0.34-0.48-0.64-0.83-0.866-1.62-1.062-4.5-0.633-5.06,1.266-1.83,4.781,3.31,7.523,2.88,12.726-0.77-3.867-7.03-4.851-6.96-8.648-2.04,0.914-1.76,2.601-0.98,3.937-1.27-1.969-4.15,1.266-6.61-1.406-0.28,3.516,2.81,4.852,5.34,4.992-1.26,2.25,0.43,4.149,2.11,4.781,0.07-3.937,8.15-2.321,8.23,4.43,0.07,5.766-6.12,6.258-9.42,4.43z"/>
<path id="path2901" style="stroke-width:0.125;stroke:#000000;fill:#f7e017;" d="M248.11,73.553c9.84,2.11,6.33,9.915,3.44,9.844-1.83-0.045-3.58-1.582-3.69-2.918-2.11,1.125-1.54,3.34,0.07,4.219-4.43-0.527-6.29,2.391-6.4,5.59,0.81-1.477,3.27-1.582,4.19-1.266,0.91,0.317,3.27,0.492,4.22-0.562-0.78,0.668,0.49,2.214-0.6,3.41,3.69-0.141,5.31-3.586,4.67-5.098,4.79-4.359,3.87-11.461-5.9-13.219z"/>
<path id="path2903" style="stroke-width:0.125;stroke:#000000;fill:#f7e017;" d="M240.61,106.96c0.64,0.4,0.56,1.24,0.13,1.77-0.87,1.07,0.44,3.62-2.24,4.04-0.79,0.13-1.38-0.37-1.64-1.28-0.73-2.5,1.91-2.67,2.19-3.84,0.29-1.17,1.03-1.03,1.56-0.69z"/>
<path id="path2905" style="stroke-width:0.125;stroke:#000000;fill:#f7e017;" d="M238.2,111.5c0.86,0.44,1.6,1.05,1.14,3.86-0.19,1.16-0.23,4,0.79,4.08-0.65,0.29-1.99,0.57-2.51-0.18-0.57,0.86-1.75,0.56-2.18-0.55-0.65,0.48-1.48-0.41-1.45-1.16-0.56,0.33-1.64-0.22-1.3-1.9-0.68,0.21-1.52-0.29-1.82-0.74,0.99-0.16,3.51-1.39,4.14-2.43s2.18-1.49,3.19-0.98z"/>
<g id="g2907">
<path id="path2909" style="stroke:#000000;stroke-width:0.125;fill:none;" d="M237.62,119.26c0.29-0.38,0.45-2.02,0.29-3.03"/>
<path id="path2911" style="stroke:#000000;stroke-width:0.125;fill:none;" d="M235.44,118.71c0.44-0.32,1.31-1.43,1.49-2.42"/>
<path id="path2913" style="stroke:#000000;stroke-width:0.125;fill:none;" d="M233.99,117.55c0.56-0.23,1.96-1.91,2.3-3.02"/>
<path id="path2915" style="stroke:#000000;stroke-width:0.125;fill:none;" d="M232.69,115.65c0.65-0.11,2.68-1.33,3.56-2.67"/>
</g>
<path id="path2917" style="stroke-width:0.125;stroke:#000000;fill:#f7e017;" d="M226.24,59.632c-0.12,7.207,2.88,10.852,7.03,13.227-1.55-0.923-0.88-4.087-2.95-5.106,0.49-0.035,1.26,0.668,2.5,0.386-0.6-1.336-1.59-3.375-3.87-3.656,0.59-0.07,1.9,0.141,2.74-0.176-1.2-1.828-4.36-0.949-5.45-4.675z"/>
<path id="path2919" style="stroke-width:0.125;stroke:#000000;fill:#f7e017;" d="M225.49,52.778c-0.25-0.083-0.46-0.338-0.67-0.67-1.11,0.237-1.54-0.466-1.63-0.94,0.07,0.808-0.63,0.778-0.95,0.804,1.98,1.637,2.26,3.54,1.82,4.636-0.56,1.406-2.53,1.336-3.66,0.422-0.14,2.988,3.73,3.973,5.14,0.211,0,0.633,0.81,0.562,1.02,1.406,1-1.616,0.24-3.937-1.07-5.869z"/>
<g id="g2921">
<path id="path2923" style="stroke-width:0.125;stroke:#000000;fill:#337321;" d="M219.32,38.503c-1.76-1.617-2.57-4.325-2.5-5.871,0.07-1.547,0.7-3.235,2.95-2.532-0.7,0-0.21,1.407-0.95,1.547,0.6,0.211,1.41-0.281,1.51-0.597,0.15,0.492,1.06,0.351,1.13,0.914,0.35-0.282-0.04-1.653-0.56-1.934,0.38-0.211,0.59-1.301,0.42-1.828-0.35,0.07-0.88,0.562-0.99,1.266,0.18-0.563-0.03-1.969-1.01-2.18-0.29,0.386-0.36,1.336,0.03,1.863-0.91-0.211-2.25,0.387-2.57,1.16,0.07-0.931,0.2-2.258,0.78-3.093,0.19-0.282-0.28-0.774-0.65-0.106-0.69-1.336-2.52-2.039-3.33-1.371-0.8,0.668-1.89-0.317-2.56,0.738s-2.93,1.166-2.82,2.285c0.08,0.668-0.09,1.7-0.42,2.075-0.8,0.914,0.39,1.582,0.6,2.39-0.14-2.672,4.11-7.875,8.37-5.836-0.39,0.668-0.73,2.002-0.85,3.621-0.17,2.391,0.18,5.766,2.5,7.735l0.92-0.246z"/>
<path id="path2925" style="stroke-width:0.125;stroke:#000000;fill:#cf142b;" d="M220.58,30.136c-0.02-0.634,1.07-1.457,2.55-1.442,1.77,0.018,3.15,1.635,4.57,1.477,1.42-0.159,0.72,0.632,0.42,0.843s-0.47,0.528-0.37,0.914c0.11,0.387-0.07,0.64-0.65,0.282-1.26-0.791-2.53,0.316-4.2-0.299-1.45-0.534-2.28-0.826-2.32-1.775z"/>
<path id="path2927" style="stroke-width:0.125;stroke:#000000;fill:#96877d;" d="M213.34,46.729c-0.7-2.215-3.38-4.64-4.68-5.203l-0.07-1.195c0.71-0.281,2.39-1.617,3.17-2.356,5.27,2.532,12.44-1.054,15.75-4.781l1.26,0.774-0.63,0.843-0.67-0.351c-0.81,0.984-3.83,3.825-4.74,4.422,1.23,0.311,2.91,0.525,3.37,0.5,2.95-2.11,5.27-4.008,6.4-4.149l0.95,1.266-0.85,0.597-0.66-0.386c-3.17,2.601-6.75,8.297-8.16,12.093-1.97-0.421-9-0.14-10.44-2.074z"/>
<path id="path2929" style="stroke:#000000;stroke-width:0.125;fill:none;" d="M222.73,38.882c-0.46-0.115-0.85-0.246-1.09-0.379-0.57,0.527-1.97,0.984-3.77,1.054"/>
<path id="path2931" style="stroke:#000000;stroke-width:0.125;fill:none;" d="M213.62,45.956c-0.48-2.619,0.28-5.52,1.62-6.399,2.91,1.934,7.91,1.934,10.86-0.175"/>
<path id="path2933" style="stroke:#000000;stroke-width:0.125;fill:none;" d="M213.62,44.585c2.25-0.071,7.14,0.316,8.33,0.492,1.2,0.176,3.2,0.668,2.92,1.265"/>
<path id="path2935" style="stroke:#000000;stroke-width:0.125;fill:none;" d="M214.66,44.212l0.65-0.647-0.65-0.646-0.65,0.646,0.65,0.647z"/>
<path id="path2937" style="stroke-width:0.125;stroke:#000000;fill:#337321;" d="M216.19,31.12c-0.81-1.125-3.04-1.481-3.52,0.035-0.21,0.668-0.53,1.371-1.05,1.687-0.53,0.317-0.41,1.275-0.18,1.688,0.56,1.02,0.07,2.004,1.16,2.672,0-0.809,1.2-1.652,2.22-1.863,1.01-0.211,2.56-1.125,2.77-2.145s0.56-1.863-1.4-2.074z"/>
<path id="path2939" style="stroke:#000000;stroke-width:0.125;fill:#96877d;" d="M211.12,41.245h0.28l0.01,1.923c0.06,0.02,0.12,0.047,0.17,0.088l1.65-0.955,0.14,0.243-1.66,0.966c0.01,0.06,0.02,0.128,0.01,0.189l1.65,0.957-0.14,0.244-1.66-0.958c-0.05,0.04-0.11,0.082-0.17,0.101v1.913h-0.28v-1.923c-0.06-0.02-0.12-0.047-0.17-0.089l-1.66,0.956-0.14-0.244,1.67-0.965c-0.02-0.06-0.02-0.128-0.01-0.189l-1.66-0.958,0.14-0.243,1.67,0.957c0.05-0.04,0.1-0.081,0.16-0.1v-1.913z"/>
<path id="path2941" style="stroke-width:0.125;stroke:#000000;fill:#96877d;" d="M213.63,45.947c-0.61,0.608-1.44,0.985-2.37,0.985-1.84,0-3.33-1.492-3.33-3.332,0-1.839,1.49-3.331,3.33-3.331,1.08,0,2.04,0.515,2.65,1.313-0.17,0.419-0.37,1.36-0.38,1.786-0.12-1.148-1.09-2.044-2.27-2.044-1.25,0-2.27,1.019-2.27,2.276,0,1.258,1.02,2.277,2.27,2.277,1.06,0,1.97-0.736,2.23-1.705,0,0.417,0.01,1.423,0.14,1.775z"/>
<path id="path2943" style="stroke-width:0.125;stroke:#000000;fill:#337321;" d="M209.86,49.12c-0.21-0.246-0.6-0.914-0.56-1.406,0.31-0.036,0.91,0.175,1.19,0.457-0.03-0.352-0.17-1.125-0.11-1.477,0.39,0.141,1.2,0.598,1.48,1.125-0.07-0.351-0.21-1.266-0.07-1.828,0.42,0.246,1.13,0.914,1.27,1.371,0.03-0.703,0.28-1.863,0.49-2.144,0.31,0.316,0.81,0.597,1.12,1.019,0.07-0.563,0.35-1.23,0.78-1.406,0.31,0.351,0.81,1.16,0.91,2.074,0.32-0.105,0.74-0.633,0.92-0.914,0.17,0.281,0.35,0.773,0.24,1.371,0.39-0.352,0.84-0.844,0.95-1.266,0.28,0.211,0.81,0.739,0.95,1.301-0.07-0.457-0.04-1.265-0.18-1.723,0.53,0.282,0.95,0.774,1.06,1.301,0.14-0.492,0.46-1.371,0.74-1.582,0.28,0.563,0.56,1.231,0.52,1.793,0.18-0.351,0.46-0.984,0.74-1.125,0.25,0.387,0.21,1.231,0.14,1.688,0.25-0.352,0.71-0.774,0.99-0.914,0.03,0.211,0.07,0.633,0,0.949,0.31-0.176,0.84-1.125,1.02-1.617,0.49,0.246,0.98,1.09,1.02,1.511,0.35-0.14,1.05-0.773,1.26-1.125,0,0.247,0.11,0.915-0.03,1.442,0.21-0.211,0.42-0.633,0.52-0.809,0.14,0.352,0.04,1.196-0.1,1.653,0.32-0.282,0.77-0.457,1.05-0.457,0.04,0.597-0.38,1.652-0.77,2.425-3.38-0.949-10.44-1.3-17.54-1.687z"/>
<path id="path2945" style="fill:#f7e017;" d="M221.63,30.495c-0.02-0.259,0.56-0.845,1.59-0.839,1.25,0.007,2.39,0.918,3.39,0.854,1-0.065,0.51,0.258,0.3,0.345-0.21,0.086-0.34,0.215-0.26,0.374,0.07,0.158-0.06,0.261-0.46,0.115-0.88-0.324-1.77,0.129-2.94-0.122-1.01-0.219-1.6-0.338-1.62-0.727z"/>
</g>
<g id="g2947">
<g id="g2949" style="fill:#f7e017;">
<path id="path2951" style="stroke:#000000;stroke-width:0.125;fill:#f7e017;" d="M210.95,51.229c-1.06,1.266-2.11,1.055-2.32,0.246-0.21-0.808,0.56-1.195,0.28-1.898s0.45-1.02,0.81-0.703c0.35,0.316,1.47-0.703,1.97,0.351,0.49,1.055,0.87,1.793,0.59,2.215s-1.12,0.211-1.33-0.211z"/>
<path id="path2953" style="stroke:#000000;stroke-width:0.125;fill:#f7e017;" d="M215.48,49.331c-0.2-0.463,0.9-1.354,1.46-0.721s1.44-0.686,1.94,0.316c0.49,1.002,0.64,1.53,0.89,2.092,0.25,0.563-1.33,0.862-1.83,0.369,0.07,0.334-1.36,0.596-1.75-0.351-0.21-0.51-0.44-1.09-0.71-1.705z"/>
<path id="path2955" style="stroke:#000000;stroke-width:0.125;fill:#f7e017;" d="M222.8,49.911c-0.27-0.492,1.02-1.195,1.68-0.299,0.18-0.369,1.44-0.44,1.53,0.633,0.09,1.072,0.13,1.705,0.16,2.127s-0.77,0.808-1.35-0.264c-1.04,0.211-1.52-0.369-1.64-0.984-0.12-0.616-0.24-0.914-0.38-1.213z"/>
</g>
<g id="g2957" style="fill:#337321;">
<path id="path2959" style="stroke-width:0.125;stroke:#000000;fill:#337321;" d="M211.63,49.208c-0.15-0.352,0.9-1.055,1.62-0.528,0.72,0.528,1.72-0.455,2.15,0.492,0.86,1.917,0.91,2.057,0.64,2.426-0.26,0.37-1.38,0.229-1.66-0.281-0.06,0.352-1.03,0.294-1.53,0.018-0.58-0.317-0.99-1.495-1.22-2.127z"/>
<path id="path2961" style="stroke-width:0.125;stroke:#000000;fill:#337321;" d="M219.03,49.296c-0.24-0.545,1.41-1.02,2.13-0.071,0.37-0.334,1.18-0.351,1.64,0.686,0.45,1.037,0.52,1.617,0.19,1.881-0.24,0.185-1.09,0.334-1.37-0.141-0.39,0.246-1.58,0.035-1.85-0.633-0.26-0.668-0.49-1.248-0.74-1.722z"/>
<path id="path2963" style="stroke-width:0.125;stroke:#000000;fill:#337321;" d="M226.03,50.333c-0.04-0.493,0.86-0.721,1.19,0,0.34,0.72,1.41,0.071,1.5,1.265,0.02,0.229-0.12,1.108-0.46,1.53-0.33,0.422-1.97,0-2.07-0.897-0.11-0.896-0.14-1.406-0.16-1.898z"/>
</g>
<g id="g2965">
<path id="path2967" style="stroke:#000000;stroke-width:0.125;fill:none;" d="M210.95,51.229c-0.39-0.527-0.92-1.371-1.59-0.457"/>
<path id="path2969" style="stroke:#000000;stroke-width:0.125;fill:none;" d="M214.38,51.317c-0.23-0.299-0.53-0.791-0.64-1.178"/>
<path id="path2971" style="stroke:#000000;stroke-width:0.125;fill:none;" d="M217.94,51.387c-0.24-0.175-0.61-0.527-0.8-0.896"/>
<path id="path2973" style="stroke:#000000;stroke-width:0.125;fill:none;" d="M217.63,49.542c0.61,0.07,1.03,0.65,1.23,0.914,0.19,0.263,0.6,0.738,0.91,0.791"/>
<path id="path2975" style="stroke:#000000;stroke-width:0.125;fill:none;" d="M221.62,51.651c-0.21-0.334-0.42-0.633-0.48-0.879"/>
<path id="path2977" style="stroke:#000000;stroke-width:0.125;fill:none;" d="M221.16,49.225c0.21,0.299,0.37,0.545,0.49,0.826"/>
<path id="path2979" style="stroke:#000000;stroke-width:0.125;fill:none;" d="M224.82,52.108c-0.28-0.527-0.72-1.037-1.09-1.213"/>
<path id="path2981" style="stroke:#000000;stroke-width:0.125;fill:none;" d="M224.68,50.174c0.03,1.038,1.42,1.108,1.47,1.846"/>
<path id="path2983" style="stroke:#000000;stroke-width:0.125;fill:none;" d="M227.22,50.333c0.14,0.263,0.2,0.527,0.22,0.967"/>
</g>
</g>
</g>
</svg>
