<?xml version="1.0" encoding="UTF-8" standalone="no"?>
<!-- Created with Inkscape (http://www.inkscape.org/) -->
<svg id="svg548" xmlns:rdf="http://www.w3.org/1999/02/22-rdf-syntax-ns#" xmlns="http://www.w3.org/2000/svg" viewBox="0 0 1000 600" version="1.0" xmlns:cc="http://creativecommons.org/ns#" xmlns:xlink="http://www.w3.org/1999/xlink" xmlns:dc="http://purl.org/dc/elements/1.1/">
<metadata id="metadata5348">
<rdf:RDF>
<cc:Work rdf:about="">
<dc:title/>
<dc:description/>
<dc:subject>
<rdf:Bag>
<rdf:li/>
<rdf:li>united_nations_member</rdf:li>
<rdf:li>latin_america</rdf:li>
<rdf:li>america</rdf:li>
<rdf:li>south_america</rdf:li>
<rdf:li>flag</rdf:li>
<rdf:li>sign</rdf:li>
</rdf:Bag>
</dc:subject>
<dc:publisher>
<cc:Agent rdf:about="http://www.openclipart.org">
<dc:title>Caleb Moore</dc:title>
</cc:Agent>
</dc:publisher>
<dc:creator>
<cc:Agent>
<dc:title>Caleb Moore</dc:title>
</cc:Agent>
</dc:creator>
<dc:rights>
<cc:Agent>
<dc:title>Caleb Moore</dc:title>
</cc:Agent>
</dc:rights>
<dc:date/>
<dc:format>image/svg+xml</dc:format>
<dc:type rdf:resource="http://purl.org/dc/dcmitype/StillImage"/>
<cc:license rdf:resource="http://web.resource.org/cc/PublicDomain"/>
<dc:language>en</dc:language>
</cc:Work>
<cc:License rdf:about="http://web.resource.org/cc/PublicDomain">
<cc:permits rdf:resource="http://web.resource.org/cc/Reproduction"/>
<cc:permits rdf:resource="http://web.resource.org/cc/Distribution"/>
<cc:permits rdf:resource="http://web.resource.org/cc/DerivativeWorks"/>
</cc:License>
</rdf:RDF>
</metadata>
<defs id="defs550"></defs>
<rect id="rect2259" style="stroke-width:1pt;fill-rule:evenodd;fill:#ffffff;" height="600" width="1000" y="0" x="0"/>
<rect id="rect2260" style="stroke-width:1pt;fill-rule:evenodd;fill:#0038a8;" height="200" width="1000" y="400" x="0"/>
<rect id="rect2261" style="stroke-width:1pt;fill-rule:evenodd;fill:#d52b1e;" height="200" width="1000" y="0" x="0"/>
<path id="path5487" style="stroke-dashoffset:0;stroke:#000000;stroke-linecap:round;stroke-miterlimit:4;stroke-dasharray:none;stroke-width:3.10112953;fill:none;" d="M-236.12-33.236a120.45,122.83,0,1,1,-240.89,0,120.45,122.83,0,1,1,240.89,0z" transform="matrix(0.63698198,0,0,0.6246134,727.12736,320.75971)"/>
<g id="g5320" style="fill:#009b3a;" transform="matrix(0.23503416,0,0,0.23503416,441.07107,308.14948)">
<path id="path774-1" style="stroke-linejoin:miter;fill-rule:evenodd;stroke:#000000;stroke-linecap:butt;stroke-dasharray:none;stroke-width:0.86705196;fill:#009b3a;" d="M293.86-187.1s124.18,53.5,102.5,164.05c-21.69,110.55-90.82,109.81-117.93,122.03-27.11,12.212-45.81,29.702-56.51,27.252-10.69-2.44-24.83-10.7-24.83-10.7s-1.13,18.16,20.64,21.47c21.77,3.3,50.39-28.66,64.14-32.21,13.75-3.56,98.15-12.718,118.69-125.21,23.97-120.07-105.93-163.16-106.7-166.68z"/>
<path id="path780-7" style="stroke-linejoin:miter;fill-rule:evenodd;stroke:#000000;stroke-linecap:butt;stroke-dasharray:none;stroke-width:0.39981514;fill:#009b3a;" d="M356.59-163.57a17.047,4.0363,75.104,0,1,-8.18,0.63,17.047,4.0363,75.104,1,1,8.18,-0.63z"/>
<path id="path778-4" style="stroke-linejoin:miter;fill-rule:evenodd;stroke:#000000;stroke-linecap:butt;stroke-dasharray:none;stroke-width:0.39981523;fill:#009b3a;" d="M352.27-162.42a17.566,3.9171,63.335,1,1,-7.41,2.71,17.566,3.9171,63.335,1,1,7.41,-2.71z"/>
<path id="path779-0" style="stroke-linejoin:miter;fill-rule:evenodd;stroke:#000000;stroke-linecap:butt;stroke-dasharray:none;stroke-width:0.39981523;fill:#009b3a;" d="M339.87-154.21a16.633,4.1368,17.053,0,1,-0.77,8.4,16.633,4.1368,17.053,1,1,0.77,-8.4z"/>
<path id="path777-9" style="stroke-linejoin:miter;fill-rule:evenodd;stroke:#000000;stroke-linecap:butt;stroke-dasharray:none;stroke-width:0.39981523;fill:#009b3a;" d="M341.69-158.73a17.49,3.9342,34.225,1,1,-3.57,7.08,17.49,3.9342,34.225,1,1,3.57,-7.08z"/>
<path id="path776-4" style="stroke-linejoin:miter;fill-rule:evenodd;stroke:#000000;stroke-linecap:butt;stroke-dasharray:none;stroke-width:0.39981517;fill:#009b3a;" d="M346.94-160.9a17.785,3.8689,46.194,0,1,-5.41,5.54,17.785,3.8689,46.194,0,1,5.41,-5.54z"/>
<path id="path781-8" style="stroke-linejoin:miter;fill-rule:evenodd;stroke:#000000;stroke-linecap:butt;stroke-dasharray:none;stroke-width:0.22699988;fill:#009b3a;" d="M355.61-145.32c0.07,0.08-4.8,2.7-5.9,3.1-1.1,0.39-2.59-1.47-5.75,0.16-3.17,1.62-5.34,4.58-6.03,6.32-0.7,1.74,0.89,2.47,4.72,0.61,3.82-1.86,4.83-4.81,6.68-5.96,1.84-1.15,4.94-2.85,6.7-3.48,0.76-1.67,3.24-5.24,4.52-7.28,1.28-2.05,6.3-5.43,8.13-9.37,1.6-3.26,1-6.03-1.14-4.87s-4.9,4.43-6.19,6.78c-1.28,2.35-0.18,5.34-1.61,7.54-1.12,1.6-3.84,6.45-4.13,6.45z"/>
<path id="path790-8" style="stroke-linejoin:miter;fill-rule:evenodd;stroke:#000000;stroke-linecap:butt;stroke-dasharray:none;stroke-width:0.58372754;fill:#009b3a;" d="M394.04-132.57a25.566,5.7369,88.415,1,1,-11.53,-2.76,25.566,5.7369,88.415,1,1,11.53,2.76z"/>
<path id="path791-2" style="stroke-linejoin:miter;fill-rule:evenodd;stroke:#000000;stroke-linecap:butt;stroke-dasharray:none;stroke-width:0.58372772;fill:#009b3a;" d="M387.68-132.86a26.632,5.5073,77.49,1,1,-11.15,0.56,26.632,5.5073,77.49,1,1,11.15,-0.56z"/>
<path id="path792-4" style="stroke-linejoin:miter;fill-rule:evenodd;stroke:#000000;stroke-linecap:butt;stroke-dasharray:none;stroke-width:0.58372766;fill:#009b3a;" d="M367.8-126.65a24.81,5.9117,34.91,1,1,-3.86,11.69,24.81,5.9117,34.91,1,1,3.86,-11.69z"/>
<path id="path793-5" style="stroke-linejoin:miter;fill-rule:evenodd;stroke:#000000;stroke-linecap:butt;stroke-dasharray:none;stroke-width:0.58372766;fill:#009b3a;" d="M371.81-132.31a26.532,5.5279,50.904,1,1,-7.29,8.55,26.532,5.5279,50.904,0,1,7.29,-8.55z"/>
<path id="path794-5" style="stroke-linejoin:miter;fill-rule:evenodd;stroke:#000000;stroke-linecap:butt;stroke-dasharray:none;stroke-width:0.58372766;fill:#009b3a;" d="M379.8-133.07a27.103,5.4115,61.837,1,1,-9.32,5.52,27.103,5.4115,61.837,1,1,9.32,-5.52z"/>
<path id="path795-1" style="stroke-linejoin:miter;fill-rule:evenodd;stroke:#000000;stroke-linecap:butt;stroke-dasharray:none;stroke-width:0.33141834;fill:#009b3a;" d="M386.64-106.87c0.08,0.13-7.53,1.72-9.18,1.79-1.66,0.07-3.11-3.26-8.03-2.35s-8.91,4.18-10.45,6.36c-1.53,2.184,0.43,3.939,6.34,2.988,5.92-0.952,8.29-4.718,11.23-5.548,2.93-0.83,7.78-1.88,10.43-1.99,1.61-2.04,6.22-6.04,8.67-8.4,2.45-2.37,10.53-4.96,14.36-9.78,3.29-3.95,3.38-8.19,0.04-7.48-3.34,0.7-8.25,4.15-10.81,6.94s-2.02,7.57-4.73,10.08c-2.09,1.78-7.46,7.51-7.87,7.39z"/>
<path id="path797-7" style="stroke-linejoin:miter;fill-rule:evenodd;stroke:#000000;stroke-linecap:butt;stroke-dasharray:none;stroke-width:0.58372784;fill:#009b3a;" d="M414.28-81.117a5.712,25.677,8.7402,1,1,-10.77,-4.943,5.712,25.677,8.7402,1,1,10.77,4.943z"/>
<path id="path798-1" style="stroke-linejoin:miter;fill-rule:evenodd;stroke:#000000;stroke-linecap:butt;stroke-dasharray:none;stroke-width:0.58372796;fill:#009b3a;" d="M408.12-82.626a26.803,5.472,87.95,1,1,-11,-1.589,26.803,5.472,87.95,1,1,11,1.589z"/>
<path id="path799-1" style="stroke-linejoin:miter;fill-rule:evenodd;stroke:#000000;stroke-linecap:butt;stroke-dasharray:none;stroke-width:0.58372796;fill:#009b3a;" d="M387.57-80.31a24.933,5.8824,46.026,1,1,-5.88,10.803,24.933,5.8824,46.026,1,1,5.88,-10.803z"/>
<path id="path800-5" style="stroke-linejoin:miter;fill-rule:evenodd;stroke:#000000;stroke-linecap:butt;stroke-dasharray:none;stroke-width:0.5837279;fill:#009b3a;" d="M392.51-85.127a26.728,5.4873,61.791,1,1,-8.67,7.039,26.728,5.4873,61.791,1,1,8.67,-7.039z"/>
<path id="path801-2" style="stroke-linejoin:miter;fill-rule:evenodd;stroke:#000000;stroke-linecap:butt;stroke-dasharray:none;stroke-width:0.58372784;fill:#009b3a;" d="M400.45-84.343a27.314,5.3697,72.543,1,1,-10.11,3.658,27.314,5.3697,72.543,1,1,10.11,-3.658z"/>
<path id="path802-7" style="stroke-linejoin:miter;fill-rule:evenodd;stroke:#000000;stroke-linecap:butt;stroke-dasharray:none;stroke-width:0.33141845;fill:#009b3a;" d="M402.41-57.159c0.05,0.151-7.67,0.257-9.29,0.005-1.63-0.25-2.45-3.816-7.43-3.863-4.97-0.045-9.46,2.419-11.36,4.279-1.89,1.86-0.29,3.969,5.66,4.166,5.96,0.196,8.95-3.071,11.97-3.325,3.02-0.253,7.95-0.357,10.56,0.041,1.94-1.71,7.17-4.778,9.99-6.639s11.18-2.872,15.8-6.894c3.93-3.268,4.78-7.439,1.39-7.386-3.4,0.053-8.82,2.518-11.82,4.781-3.01,2.263-3.34,7.086-6.44,9.048-2.36,1.358-8.65,5.984-9.03,5.784z"/>
<path id="path804-6" style="stroke-linejoin:miter;fill-rule:evenodd;stroke:#000000;stroke-linecap:butt;stroke-dasharray:none;stroke-width:0.58372736;fill:#009b3a;" d="M415.78-23.656a5.7101,25.686,31.311,1,1,-7.83,-9.038,5.7101,25.686,31.311,1,1,7.83,9.038z"/>
<path id="path805-1" style="stroke-linejoin:miter;fill-rule:evenodd;stroke:#000000;stroke-linecap:butt;stroke-dasharray:none;stroke-width:0.5837276;fill:#009b3a;" d="M410.79-27.604a5.437,26.976,20.618,1,1,-9.34,-6.021,5.437,26.976,20.618,0,1,9.34,6.021z"/>
<path id="path806-4" style="stroke-linejoin:miter;fill-rule:evenodd;stroke:#000000;stroke-linecap:butt;stroke-dasharray:none;stroke-width:0.5837276;fill:#009b3a;" d="M391.28-33.954a25.339,5.7883,69.934,1,1,-9.51,7.587,25.339,5.7883,69.934,1,1,9.51,-7.587z"/>
<path id="path807-2" style="stroke-linejoin:miter;fill-rule:evenodd;stroke:#000000;stroke-linecap:butt;stroke-dasharray:none;stroke-width:0.58372754;fill:#009b3a;" d="M397.63-36.377a27.162,5.3998,85.137,1,1,-10.58,2.944,27.162,5.3998,85.137,1,1,10.58,-2.944z"/>
<path id="path808-3" style="stroke-linejoin:miter;fill-rule:evenodd;stroke:#000000;stroke-linecap:butt;stroke-dasharray:none;stroke-width:0.58372754;fill:#009b3a;" d="M404.51-32.367a5.2984,27.682,5.5508,1,1,-10.57,-0.787,5.2984,27.682,5.5508,1,1,10.57,0.787z"/>
<path id="path809-2" style="stroke-linejoin:miter;fill-rule:evenodd;stroke:#000000;stroke-linecap:butt;stroke-dasharray:none;stroke-width:0.33141816;fill:#009b3a;" d="M395.74-6.3466c-0.02,0.1592-7.05-2.9331-8.43-3.8384-1.37-0.906-0.73-4.551-5.22-6.651-4.48-2.1-9.5-1.671-11.94-0.729-2.43,0.943-1.81,3.559,3.51,6.203,5.31,2.6431,9.29,0.852,12.12,1.8658,2.84,1.0138,7.34,2.9545,9.54,4.4033,2.42-0.7833,8.35-1.4662,11.62-2.0251,3.28-0.5589,11.24,1.9607,16.99,0.14,4.82-1.4073,7.21-4.923,4.12-6.277-3.1-1.354-8.96-1.309-12.56-0.453s-5.77,5.1903-9.34,5.7276c-2.67,0.2831-10.15,1.974-10.41,1.6335z"/>
<path id="path811-2" style="stroke-linejoin:miter;fill-rule:evenodd;stroke:#000000;stroke-linecap:butt;stroke-dasharray:none;stroke-width:0.67417449;fill:#009b3a;" d="M400.3,34.597a6.687,29.257,48.457,1,1,-5.65,-12.812,6.687,29.257,48.457,1,1,5.65,12.812z"/>
<path id="path812-1" style="stroke-linejoin:miter;fill-rule:evenodd;stroke:#000000;stroke-linecap:butt;stroke-dasharray:none;stroke-width:0.67417461;fill:#009b3a;" d="M396.1,28.432a6.3518,30.801,37.466,1,1,-8.3,-10.025,6.3518,30.801,37.466,1,1,8.3,10.025z"/>
<path id="path813-6" style="stroke-linejoin:miter;fill-rule:evenodd;stroke:#000000;stroke-linecap:butt;stroke-dasharray:none;stroke-width:0.67417461;fill:#009b3a;" d="M376.72,14.366a29.468,6.639,86.522,1,1,-12.97,4.932,29.468,6.639,86.522,1,1,12.97,-4.932z"/>
<path id="path814-8" style="stroke-linejoin:miter;fill-rule:evenodd;stroke:#000000;stroke-linecap:butt;stroke-dasharray:none;stroke-width:0.67417449;fill:#009b3a;" d="M384.5,13.988a6.2388,31.359,11.633,0,1,-12.62,-0.579,6.2388,31.359,11.633,1,1,12.62,0.579z"/>
<path id="path815-5" style="stroke-linejoin:miter;fill-rule:evenodd;stroke:#000000;stroke-linecap:butt;stroke-dasharray:none;stroke-width:0.67417437;fill:#009b3a;" d="M390.76,20.905a6.153,31.796,22.119,1,1,-11.38,-4.692,6.153,31.796,22.119,1,1,11.38,4.692z"/>
<path id="path816-7" style="stroke-linejoin:miter;fill-rule:evenodd;stroke:#000000;stroke-linecap:butt;stroke-dasharray:none;stroke-width:0.3827706;fill:#009b3a;" d="M372.54,46.45c-0.07,0.171-6.79-5.785-8-7.283-1.22-1.498,0.68-5.289-3.56-9.23-4.25-3.941-9.92-5.284-12.91-5.125-2.99,0.16-3.16,3.275,1.82,8.114,4.98,4.84,9.95,4.304,12.73,6.447,2.79,2.144,7.11,5.915,9.06,8.311,2.92,0.01,9.66,1.401,13.46,1.97,3.79,0.568,11.72,6.23,18.64,6.298,5.78,0.191,9.56-2.824,6.6-5.438s-9.43-4.685-13.67-5.042-8.06,3.64-12.17,2.942c-3.02-0.651-11.82-1.494-12-1.964z"/>
<path id="path818-6" style="stroke-linejoin:miter;fill-rule:evenodd;stroke:#000000;stroke-linecap:butt;stroke-dasharray:none;stroke-width:0.74885654;fill:#009b3a;" d="M360.37,85.567a7.4832,32.257,79.752,1,1,1.54,-15.454,7.4832,32.257,79.752,1,1,-1.54,15.454z"/>
<path id="path819-1" style="stroke-linejoin:miter;fill-rule:evenodd;stroke:#000000;stroke-linecap:butt;stroke-dasharray:none;stroke-width:0.74885678;fill:#009b3a;" d="M359.69,77.276a7.1418,33.799,68.504,1,1,-2.54,-14.337,7.1418,33.799,68.504,1,1,2.54,14.337z"/>
<path id="path820-8" style="stroke-linejoin:miter;fill-rule:evenodd;stroke:#000000;stroke-linecap:butt;stroke-dasharray:none;stroke-width:0.74885666;fill:#009b3a;" d="M348.66,52.687a7.4595,32.36,26.238,0,1,-15.21,-2.81,7.4595,32.36,26.238,1,1,15.21,2.81z"/>
<path id="path821-9" style="stroke-linejoin:miter;fill-rule:evenodd;stroke:#000000;stroke-linecap:butt;stroke-dasharray:none;stroke-width:0.74885666;fill:#009b3a;" d="M356.38,56.827a7.0376,34.3,41.823,0,1,-11.86,-7.845,7.0376,34.3,41.823,1,1,11.86,7.845z"/>
<path id="path822-2" style="stroke-linejoin:miter;fill-rule:evenodd;stroke:#000000;stroke-linecap:butt;stroke-dasharray:none;stroke-width:0.7488566;fill:#009b3a;" d="M358.64,67.027a6.9423,34.771,52.671,1,1,-8.42,-11.043,6.9423,34.771,52.671,0,1,8.42,11.043z"/>
<path id="path823-7" style="stroke-linejoin:miter;fill-rule:evenodd;stroke:#000000;stroke-linecap:butt;stroke-dasharray:none;stroke-width:0.4251723;fill:#009b3a;" d="M327.11,80.787c-0.16,0.122-3.39-9.428-3.75-11.558-0.36-2.129,3.55-4.631,1.6-10.836s-6.68-10.762-9.66-12.34c-2.97-1.577-4.83,1.287-2.67,8.769,2.16,7.483,7.25,9.848,8.77,13.498,1.52,3.649,3.62,9.732,4.2,13.139,2.81,1.7,8.56,6.925,11.91,9.658s7.92,12.703,14.56,16.773c5.47,3.52,10.77,2.84,9.34-1.35-1.43-4.2-6.54-9.913-10.44-12.707-3.9-2.793-9.77-1.2-13.35-4.238-2.57-2.369-10.6-8.26-10.51-8.808z"/>
<path id="path832-9" style="stroke-linejoin:miter;fill-rule:evenodd;stroke:#000000;stroke-linecap:butt;stroke-dasharray:none;stroke-width:1.04294193;fill:#009b3a;" d="M307.95,114.14a9.3762,32.64,89.068,0,1,0.05,-18.759,9.3762,32.64,89.068,0,1,-0.05,18.759z"/>
<path id="path833-5" style="stroke-linejoin:miter;fill-rule:evenodd;stroke:#000000;stroke-linecap:butt;stroke-dasharray:none;stroke-width:1.04294193;fill:#009b3a;" d="M303.63,84.814a9.0618,33.773,37.587,0,1,-13.91,-11.635,9.0618,33.773,37.587,1,1,13.91,11.635z"/>
<path id="path831-4" style="stroke-linejoin:miter;fill-rule:evenodd;stroke:#000000;stroke-linecap:butt;stroke-dasharray:none;stroke-width:1.04294205;fill:#009b3a;" d="M308.24,99.789a9.2622,33.042,66.472,0,1,-6.63,-17.317,9.2622,33.042,66.472,0,1,6.63,17.317z"/>
<path id="path839-3" style="stroke-linejoin:miter;fill-rule:evenodd;stroke:#000000;stroke-linecap:butt;stroke-dasharray:none;stroke-width:0.54498285;fill:#009b3a;" d="M317.12-184.28a20.274,4.1218,41.126,0,1,-7.69,4.19,20.274,4.1218,41.126,1,1,7.69,-4.19z"/>
<path id="path840-1" style="stroke-linejoin:miter;fill-rule:evenodd;stroke:#000000;stroke-linecap:butt;stroke-dasharray:none;stroke-width:0.54498297;fill:#009b3a;" d="M307.09-175.89a20.533,4.0699,8.1634,1,1,1.56,8.43,20.533,4.0699,8.1634,0,1,-1.56,-8.43z"/>
<path id="path841-2" style="stroke-linejoin:miter;fill-rule:evenodd;stroke:#000000;stroke-linecap:butt;stroke-dasharray:none;stroke-width:0.54498291;fill:#009b3a;" d="M311.12-181.18a21.475,3.8914,26.817,1,1,-4.07,6.66,21.475,3.8914,26.817,0,1,4.07,-6.66z"/>
<path id="path673-3" style="fill-rule:evenodd;stroke:#000000;stroke-dasharray:none;stroke-width:0.44940525;fill:#009b3a;" d="M164.01,82.351s27.36,5.866,51.14,14.509c23.78,8.64,59.9,38.3,69.62,39.99,10.89,0.49,25.99-3.23,31.73-18.95-16.78,4.47-26.84,11.27-42.85,2.47-5.66-2.14-24.19-19.01-44.5-28.044-20.31-9.029-61.27-19.322-61.27-19.322l-3.87,9.347z"/>
<path id="path655-3" style="fill-rule:evenodd;stroke:#000000;stroke-dasharray:none;stroke-width:0.55000275;fill:#009b3a;" d="M193.18-164.92c-0.1-0.23,31.48-16.61,31.48-16.61l-34.72,8.88-4.03,6.11,7.27,1.62z"/>
<path id="path656-4" style="fill-rule:evenodd;stroke:#000000;stroke-dasharray:none;stroke-width:0.55000108;fill:#009b3a;" d="M223.05-157.26c-12.19-2.22-30.94-6.32-42.88-7.27,8.25-9.14,19.62-24.59,26.63-34.08-4.63,9.05-11.89,20.98-14.76,29.64,8.4,4.54,21.61,8.09,31.01,11.71z"/>
<path id="path657-1" style="fill-rule:evenodd;stroke:#000000;stroke-dasharray:none;stroke-width:0.55000085;fill:#009b3a;" d="M187.49-163c-0.14-0.21,27.98-21.66,27.98-21.66l-32.5,14.54-2.89,6.72,7.41,0.4z"/>
<path id="path658-1" style="fill-rule:evenodd;stroke:#000000;stroke-dasharray:none;stroke-width:0.56004202;fill:#009b3a;" d="M217.39-157.58c-12.27-2.34-31.16-6.64-43.16-7.67,8.11-9.41,19.22-25.34,26.07-35.12-4.47,9.33-11.53,21.64-14.24,30.57,8.52,4.72,21.84,8.44,31.33,12.22z"/>
<path id="path659-3" style="fill-rule:evenodd;stroke:#000000;stroke-dasharray:none;stroke-width:0.55000263;fill:#009b3a;" d="M182.85-161.25c-0.07-0.24,32.95-13.8,32.95-13.8l-35.48,5.84-4.58,5.72,7.11,2.24z"/>
<path id="path660-8" style="fill-rule:evenodd;stroke:#000000;stroke-dasharray:none;stroke-width:0.56512541;fill:#009b3a;" d="M213.71-157.32c-12.42-1.03-31.61-3.35-43.6-3.09,6.91-10.45,16.03-27.85,21.66-38.54-3.33,9.98-8.86,23.25-10.49,32.63,8.98,3.87,22.59,6.2,32.43,9z"/>
<path id="path661-7" style="fill-rule:evenodd;stroke:#000000;stroke-dasharray:none;stroke-width:0.54999769;fill:#009b3a;" d="M179.51-161.11c-0.18-0.18,22.32-27.2,22.32-27.2l-28.28,21.15-1.31,7.21,7.27-1.16z"/>
<path id="path662-4" style="fill-rule:evenodd;stroke:#000000;stroke-dasharray:none;stroke-width:0.61059219;fill:#009b3a;" d="M213.49-155.52c-13.3-0.25-33.94-1.43-46.65-0.3,6.29-11.89,14.24-31.53,19.14-43.58-2.53,11.12-7.08,25.99-7.87,36.35,9.94,3.58,24.64,5.16,35.38,7.53z"/>
<path id="path663-2" style="fill-rule:evenodd;stroke:#000000;stroke-dasharray:none;stroke-width:0.60624748;fill:#009b3a;" d="M174.99-154.65c-0.18-0.24,27.1-26.01,27.1-26.01l-32.8,18.15-2.24,7.77,7.94,0.09z"/>
<path id="path638-7" style="fill-rule:evenodd;stroke:#000000;stroke-dasharray:none;stroke-width:0.66411251;fill:#009b3a;" d="M207.57-154.64c-14.3,0.05-36.31-0.72-50.26,0.84,9.25-13.26,21.89-35.09,29.68-48.5-5.04,12.31-13.03,28.82-16.02,40.24,9.97,3.71,25.5,5.08,36.6,7.42z"/>
<path id="path639-7" style="fill-rule:evenodd;stroke:#000000;stroke-dasharray:none;stroke-width:0.65938574;fill:#009b3a;" d="M165.86-152.72c-0.14-0.26,34.62-29.33,34.62-29.33l-39.14,20.81-4.03,8.62,8.55-0.11z"/>
<path id="path640-9" style="fill-rule:evenodd;stroke:#000000;stroke-dasharray:none;stroke-width:0.65938359;fill:#009b3a;" d="M202.39-153.77c-14.16,2.04-36.08,4.35-49.68,7.81,7.27-14.21,16.66-37.25,22.46-51.4-3.22,12.7-8.78,29.9-10.11,41.45,10.41,2.23,26,1.4,37.33,2.14z"/>
<path id="path641-3" style="fill-rule:evenodd;stroke:#000000;stroke-dasharray:none;stroke-width:0.65938461;fill:#009b3a;" d="M161.25-146.94c-0.2-0.21,26.68-36.95,26.68-36.95l-33.3,30.1-1.78,9.23,8.4-2.38z"/>
<path id="path642-1" style="fill-rule:evenodd;stroke:#000000;stroke-dasharray:none;stroke-width:0.65938419;fill:#009b3a;" d="M194.57-149.4c-14.25,1.33-36.28,2.53-50.06,5.31,8.06-13.83,18.74-36.36,25.33-50.2-3.94,12.52-10.45,29.42-12.43,40.89,10.27,2.74,25.89,2.7,37.16,4z"/>
<path id="path643-9" style="fill-rule:evenodd;stroke:#000000;stroke-dasharray:none;stroke-width:0.65938383;fill:#009b3a;" d="M156.43-143.04c-0.14-0.26,33.96-29.39,33.96-29.39l-38.53,20.77-3.9,8.67,8.47-0.05z"/>
<path id="path644-8" style="fill-rule:evenodd;stroke:#000000;stroke-dasharray:none;stroke-width:0.65938193;fill:#009b3a;" d="M190.39-147.89c-14.21,3-36.26,6.8-49.83,11.16,6.64-14.52,14.98-37.88,20.14-52.23-2.63,12.74-7.38,30.08-8.15,41.56,10.63,1.47,26.35-0.43,37.84-0.49z"/>
<path id="path645-6" style="fill-rule:evenodd;stroke:#000000;stroke-dasharray:none;stroke-width:0.65938234;fill:#009b3a;" d="M150.76-141.52c-0.24-0.17,21.69-40.29,21.69-40.29l-29.36,34.84-0.49,9.2,8.16-3.75z"/>
<path id="path622-5" style="fill-rule:evenodd;stroke:#000000;stroke-dasharray:none;stroke-width:0.73202741;fill:#009b3a;" d="M190.4-145.63c-15.25,3.96-39.01,9.17-53.39,14.63,5.52-16.51,11.84-42.96,15.75-59.22-1.33,14.35-4.43,33.93-3.88,46.79,11.87,1.17,28.91-1.63,41.52-2.2z"/>
<path id="path623-0" style="fill-rule:evenodd;stroke:#000000;stroke-dasharray:none;stroke-width:0.72681797;fill:#009b3a;" d="M146.49-132.21c-0.23-0.23,27.33-40.36,27.33-40.36l-34.95,32.62-1.47,10.19,9.09-2.45z"/>
<path id="path624-2" style="fill-rule:evenodd;stroke:#000000;stroke-dasharray:none;stroke-width:0.72681695;fill:#009b3a;" d="M184.35-141.01c-14.99,4.74-38.39,11.15-52.45,17.32,4.73-16.6,9.78-43.08,12.91-59.36-0.65,14.26-2.83,33.77-1.67,46.44,11.86,0.52,28.68-3.16,41.21-4.4z"/>
<path id="path625-8" style="fill-rule:evenodd;stroke:#000000;stroke-dasharray:none;stroke-width:0.72681695;fill:#009b3a;" d="M141-126.27c-0.26-0.19,20.78-44.57,20.78-44.57l-29.54,38.38,0.13,10.25,8.63-4.06z"/>
<path id="path626-6" style="fill-rule:evenodd;stroke:#000000;stroke-dasharray:none;stroke-width:0.72681671;fill:#009b3a;" d="M178.64-134.96c-15.35,3.5-39.24,7.99-53.79,12.99,6.21-16.17,13.64-42.15,18.24-58.12-1.94,14.15-5.88,33.42-5.89,46.15,11.77,1.49,28.86-0.81,41.44-1.02z"/>
<path id="path627-0" style="fill-rule:evenodd;stroke:#000000;stroke-dasharray:none;stroke-width:0.7268185;fill:#009b3a;" d="M136.09-121.98c-0.18-0.28,33.95-34.88,33.95-34.88l-40.02,25.83-3.26,9.79,9.33-0.74z"/>
<path id="path628-2" style="fill-rule:evenodd;stroke:#000000;stroke-dasharray:none;stroke-width:0.72681725;fill:#009b3a;" d="M171.79-128.9c-15.21,2.04-38.81,4.24-53.33,7.89,7.06-15.84,15.92-41.55,21.39-57.34-2.77,14.21-7.8,33.43-8.59,46.39,11.4,2.68,28.23,2.03,40.53,3.06z"/>
<path id="path629-4" style="fill-rule:evenodd;stroke:#000000;stroke-dasharray:none;stroke-width:0.72681475;fill:#009b3a;" d="M129.37-125.47c-0.25-0.21,23.09-43.64,23.09-43.64l-31.32,36.72-0.49,10.4,8.72-3.48z"/>
<path id="path551-8" style="fill-rule:evenodd;stroke:#000000;stroke-dasharray:none;stroke-width:0.82303023;fill:#009b3a;" d="M173.7-134.08c-16.54,6.77-42.38,16.21-57.87,24.56,5.08-19.63,10.44-50.74,13.76-69.86-0.6,16.56-2.84,39.35-1.45,53.93,13.13-0.41,31.71-6.12,45.56-8.63z"/>
<path id="path553-6" style="fill-rule:evenodd;stroke:#000000;stroke-dasharray:none;stroke-width:0.81717253;fill:#009b3a;" d="M126.19-112.29c-0.27-0.23,27.64-50.07,27.64-50.07l-36.49,42.37-1.01,11.83,9.86-4.13z"/>
<path id="path560-5" style="fill-rule:evenodd;stroke:#000000;stroke-dasharray:none;stroke-width:0.81717098;fill:#009b3a;" d="M167.32-127.92c-16.21,7.62-41.57,18.39-56.67,27.5,4.2-19.63,8.16-50.58,10.63-69.6,0.14,16.35-1.08,38.92,0.95,53.21,13.09-1.16,31.38-7.85,45.09-11.11z"/>
<path id="path561-0" style="fill-rule:evenodd;stroke:#000000;stroke-dasharray:none;stroke-width:0.81717092;fill:#009b3a;" d="M120.51-104.71c-0.31-0.18,20.17-53.89,20.17-53.89l-30.19,48.13,0.76,11.667,9.26-5.907z"/>
<path id="path562-9" style="fill-rule:evenodd;stroke:#000000;stroke-dasharray:none;stroke-width:0.81717199;fill:#009b3a;" d="M160.25-123.43c-16.17,7.74-41.48,18.72-56.53,27.95,4.07-19.66,7.84-50.62,10.19-69.65,0.25,16.34-0.83,38.91,1.29,53.17,13.09-1.26,31.36-8.1,45.05-11.47z"/>
<path id="path563-0" style="fill-rule:evenodd;stroke:#000000;stroke-dasharray:none;stroke-width:0.81717205;fill:#009b3a;" d="M115.99-98.294c-0.25-0.261,31.21-47.526,31.21-47.526l-39.35,38.9-1.92,11.784,10.06-3.158z"/>
<path id="path564-0" style="fill-rule:evenodd;stroke:#000000;stroke-dasharray:none;stroke-width:0.81717062;fill:#009b3a;" d="M158.73-125.88c-14.42,11.51-37.23,28.423-50.23,41.067-0.02-19.837-2.68-50.417-4.28-69.217,3.62,15.56,7.21,37.43,12.26,50.54,12.7-4.53,29.38-15.7,42.25-22.39z"/>
<path id="path565-6" style="fill-rule:evenodd;stroke:#000000;stroke-dasharray:none;stroke-width:0.81716967;fill:#009b3a;" d="M117.49-95.983c-0.34-0.045,3.62-56.947,3.62-56.947l-15.04,55.365,4.2,10.429,7.22-8.847z"/>
<path id="path566-1" style="fill-rule:evenodd;stroke:#000000;stroke-dasharray:none;stroke-width:0.81717324;fill:#009b3a;" d="M154.64-120.63c-14.46,11.43-37.33,28.233-50.38,40.812,0.07-19.848-2.46-50.452-3.99-69.272,3.55,15.6,7.05,37.49,12.04,50.629,12.72-4.459,29.44-15.539,42.33-22.169z"/>
<path id="path567-3" style="fill-rule:evenodd;stroke:#000000;stroke-dasharray:none;stroke-width:0.81717169;fill:#009b3a;" d="M113.88-86.348c-0.32-0.135,14.54-55.642,14.54-55.642l-25.17,51.17,1.99,11.424,8.64-6.952z"/>
<path id="path568-8" style="fill-rule:evenodd;stroke:#000000;stroke-dasharray:none;stroke-width:0.84623098;fill:#009b3a;" d="M153.03-119.28c-13.66,13.46-35.41,33.431-47.49,47.895-2.14-20.358-8.16-51.435-11.827-70.545,5.402,15.56,11.447,37.59,18.067,50.463,12.64-6.098,28.67-19.463,41.25-27.813z"/>
<path id="path569-9" style="fill-rule:evenodd;stroke:#000000;stroke-dasharray:none;stroke-width:0.84622955;fill:#009b3a;" d="M113.96-79.245c-0.36-0.051,2.72-59.175,2.72-59.175l-14.54,57.495,4.52,10.853,7.3-9.173z"/>
<path id="path570-3" style="fill-rule:evenodd;stroke:#000000;stroke-dasharray:none;stroke-width:0.84622997;fill:#009b3a;" d="M148.7-109.47c-14.62,12.091-37.78,29.877-50.92,43.133-0.457-20.616-3.873-52.363-5.941-71.893,4.075,16.15,8.261,38.837,13.761,52.411,13-4.818,29.97-16.571,43.1-23.651z"/>
<path id="path571-4" style="fill-rule:evenodd;stroke:#000000;stroke-dasharray:none;stroke-width:0.84622973;fill:#009b3a;" d="M109.59-72.469c-0.31-0.192,20.61-55.661,20.61-55.661l-30.898,49.317,0.808,12.217,9.48-5.873z"/>
<path id="path572-4" style="fill-rule:evenodd;stroke:#000000;stroke-dasharray:none;stroke-width:0.82962447;fill:#009b3a;" d="M148.45-109.24c-12.94,13.688-33.55,34.003-44.98,48.705-2.05-20.637-7.771-52.135-11.259-71.495,5.13,15.76,10.879,38.08,17.159,51.113,11.97-6.221,27.16-19.823,39.08-28.323z"/>
<path id="path573-6" style="fill-rule:evenodd;stroke:#000000;stroke-dasharray:none;stroke-width:0.84622806;fill:#009b3a;" d="M110.4-69.637c-0.36-0.005-2.43-58.843-2.43-58.843l-9.533,58.606,5.463,10.188,6.5-9.951z"/>
<path id="path574-0" style="fill-rule:evenodd;stroke:#000000;stroke-dasharray:none;stroke-width:0.82962334;fill:#009b3a;" d="M142.11-104.86c-12.52,13.808-32.5,34.316-43.495,49.129-2.648-20.641-9.29-52.119-13.344-71.479,5.588,15.74,11.983,38.032,18.639,51.027,11.78-6.328,26.55-20.072,38.2-28.677z"/>
<path id="path575-6" style="fill-rule:evenodd;stroke:#000000;stroke-dasharray:none;stroke-width:0.82962388;fill:#009b3a;" d="M107.09-63.797c-0.33-0.098,6.57-59.783,6.57-59.783l-17.53,56.547,3.494,11.612,7.466-8.376z"/>
<path id="path576-6" style="fill-rule:evenodd;stroke:#000000;stroke-dasharray:none;stroke-width:0.82962549;fill:#009b3a;" d="M139.42-102.53c-11.45,14.959-29.83,37.303-39.678,53.107-4.209-20.272-13.228-50.937-18.743-69.797,6.771,15.11,14.846,36.662,22.471,48.939,11.28-7.441,24.97-22.55,35.95-32.249z"/>
<path id="path577-1" style="fill-rule:evenodd;stroke:#000000;stroke-dasharray:none;stroke-width:0.82962435;fill:#009b3a;" d="M106.84-58.203c-0.34-0.015-3.79-59.857-3.79-59.857l-7.536,59.383,5.426,10.46,5.9-9.986z"/>
<path id="path578-8" style="fill-rule:evenodd;stroke:#000000;stroke-dasharray:none;stroke-width:0.83557272;fill:#009b3a;" d="M138.23-99.084c-10.74,15.661-28.08,39.125-37.18,55.556-5.25-20.193-15.862-50.597-22.357-69.302,7.567,14.862,16.77,36.141,25.057,48.103,10.95-8.084,23.95-24.016,34.48-34.357z"/>
<path id="path579-4" style="fill-rule:evenodd;stroke:#000000;stroke-dasharray:none;stroke-width:0.83557224;fill:#009b3a;" d="M110.59-52.601c-0.34-0.11,6.09-60.119,6.09-60.119l-17.136,56.509,3.616,11.829,7.43-8.219z"/>
<path id="path580-9" style="fill-rule:evenodd;stroke:#000000;stroke-dasharray:none;stroke-width:0.83557451;fill:#009b3a;" d="M136.05-93.521c-9.26,17.066-24.37,42.805-31.92,60.405-7.039-19.345-20.317-48.099-28.452-65.791,8.854,13.723,19.91,33.599,29.222,44.34,10.14-9.559,21.62-27.207,31.15-38.954z"/>
<path id="path581-6" style="fill-rule:evenodd;stroke:#000000;stroke-dasharray:none;stroke-width:0.83557075;fill:#009b3a;" d="M108.49-47.653c-0.33,0.093-16.798-57.017-16.798-57.017l5.678,60.099,7.57,8.474,3.55-11.556z"/>
<path id="path582-3" style="fill-rule:evenodd;stroke:#000000;stroke-dasharray:none;stroke-width:0.84571302;fill:#009b3a;" d="M135.72-86.861c-9.65,17.014-25.37,42.676-33.27,60.222-7.081-19.287-20.499-47.953-28.72-65.592,8.99,13.681,20.196,33.497,29.67,44.206,10.51-9.531,22.44-27.125,32.32-38.836z"/>
<path id="path583-7" style="fill-rule:evenodd;stroke:#000000;stroke-dasharray:none;stroke-width:0.84571296;fill:#009b3a;" d="M109.25-36.91c-0.35,0-6.17-59.95-6.17-59.95l-5.549,59.956,5.999,10.275,5.72-10.281z"/>
<path id="path584-8" style="fill-rule:evenodd;stroke:#000000;stroke-dasharray:none;stroke-width:0.84571415;fill:#009b3a;" d="M136.69-81.625c-9.92,16.786-26.06,42.075-34.24,59.433-6.765-19.451-19.715-48.431-27.648-66.261,8.766,13.891,19.647,33.969,28.948,44.9,10.66-9.283,22.87-26.594,32.94-38.072z"/>
<path id="path585-8" style="fill-rule:evenodd;stroke:#000000;stroke-dasharray:none;stroke-width:0.84571338;fill:#009b3a;" d="M108.67-32.108c-0.36,0.04-11.129-58.873-11.129-58.873l-0.543,60.295,6.822,9.493,4.85-10.915z"/>
<path id="path586-2" style="fill-rule:evenodd;stroke:#000000;stroke-dasharray:none;stroke-width:0.84571296;fill:#009b3a;" d="M132.43-73.14c-10.71,16.075-28.02,40.212-37.008,56.981-5.826-19.894-17.37-49.731-24.438-68.086,8.087,14.479,17.991,35.283,26.755,46.843,11.071-8.532,24.091-24.974,34.691-35.738z"/>
<path id="path587-9" style="fill-rule:evenodd;stroke:#000000;stroke-dasharray:none;stroke-width:0.84571266;fill:#009b3a;" d="M103.51-25.57c-0.34-0.094,4.98-60.177,4.98-60.177l-16.395,57.061,3.961,11.63,7.454-8.514z"/>
<path id="path588-1" style="fill-rule:evenodd;stroke:#000000;stroke-dasharray:none;stroke-width:0.84571415;fill:#009b3a;" d="M133.08-71.618c-9.15,17.409-24.12,43.717-31.51,61.584-7.635-18.972-21.883-47.047-30.614-64.324,9.385,13.29,21.163,32.616,30.954,42.914,10.21-9.968,21.63-28.053,31.17-40.174z"/>
<path id="path589-3" style="fill-rule:evenodd;stroke:#000000;stroke-dasharray:none;stroke-width:0.84571177;fill:#009b3a;" d="M101.47-20.548c-0.35,0.108-18.47-56.085-18.47-56.085l7.109,59.64,7.955,8.1158,3.406-11.671z"/>
<path id="path590-5" style="fill-rule:evenodd;stroke:#000000;stroke-dasharray:none;stroke-width:0.8457135;fill:#009b3a;" d="M130.56-67.142c-6.39,19.105-17.17,48.225-21.75,67.393-10.369-16.971-28.615-41.442-39.807-56.508,11.236,11.006,25.736,27.42,36.917,35.4,8.56-12.027,17.07-32.291,24.64-46.285z"/>
<path id="path591-9" style="fill-rule:evenodd;stroke:#000000;stroke-dasharray:none;stroke-width:0.8457135;fill:#009b3a;" d="M117.92-15.963c-0.34,0.122-19.991-55.31-19.991-55.31l8.741,59.315,8.17,7.7933,3.08-11.798z"/>
<path id="path592-8" style="fill-rule:evenodd;stroke:#000000;stroke-dasharray:none;stroke-width:0.84571517;fill:#009b3a;" d="M130.42-61.322c-6.25,19.17-16.82,48.401-21.27,67.616-10.49-16.861-28.913-41.138-40.214-56.086,11.316,10.887,25.934,27.148,37.174,35.01,8.47-12.116,16.84-32.468,24.31-46.54z"/>
<path id="path593-4" style="fill-rule:evenodd;stroke:#000000;stroke-dasharray:none;stroke-width:0.84571457;fill:#009b3a;" d="M118.08-6.5293c-0.32,0.173-25.723-51.727-25.723-51.727l14.983,57.437,8.94,6.4597,1.8-12.17z"/>
<path id="path594-0" style="fill-rule:evenodd;stroke:#000000;stroke-dasharray:none;stroke-width:0.84571457;fill:#009b3a;" d="M128.47-56.472c-4,19.901-11.12,50.396-13.32,70.081-12.35-15.21-33.416-36.638-46.347-49.837,12.478,9.172,28.85,23.197,40.907,29.379,7.01-13.226,12.97-34.601,18.76-49.623z"/>
<path id="path595-7" style="fill-rule:evenodd;stroke:#000000;stroke-dasharray:none;stroke-width:0.84571415;fill:#009b3a;" d="M119.76,1.5801c-0.35,0.067-13.87-58.002-13.87-58.002l2.29,60.218,7.26,9.0087,4.32-11.225z"/>
<path id="path596-6" style="fill-rule:evenodd;stroke:#000000;stroke-dasharray:none;stroke-width:0.84571373;fill:#009b3a;" d="M128.55-50.297c-2.11,20.347-6.35,51.66-6.69,71.55-13.67-13.477-36.566-31.968-50.622-43.365,13.232,7.449,30.782,19.204,43.312,23.735,5.73-14.109,9.65-36.188,14-51.92z"/>
<path id="path597-3" style="fill-rule:evenodd;stroke:#000000;stroke-dasharray:none;stroke-width:0.84571403;fill:#009b3a;" d="M120.43,5.8482c-0.28,0.2678-36.675-41.874-36.675-41.874l27.635,50.716,10.1,3.45-1.06-12.292z"/>
<path id="path598-6" style="fill-rule:evenodd;stroke:#000000;stroke-dasharray:none;stroke-width:0.84571308;fill:#009b3a;" d="M129.32-43.175c-2.2,20.334-6.55,51.62-6.98,71.506-13.61-13.554-36.436-32.174-50.448-43.649,13.204,7.5232,30.708,19.378,43.218,23.979,5.79-14.075,9.8-36.13,14.21-51.836z"/>
<path id="path599-1" style="fill-rule:evenodd;stroke:#000000;stroke-dasharray:none;stroke-width:0.84571409;fill:#009b3a;" d="M124.54,15.543c-0.32,0.187-28.167-50.477-28.167-50.477l17.697,56.66,9.24,6.046,1.23-12.229z"/>
<path id="path600-5" style="fill-rule:evenodd;stroke:#000000;stroke-dasharray:none;stroke-width:0.84571344;fill:#009b3a;" d="M130.97-34.817c-1.33,20.457-4.37,51.99-3.96,71.892-14.16-12.721-37.717-29.946-52.181-40.566,13.492,6.7186,31.451,17.505,44.141,21.345,5.18-14.419,8.26-36.705,12-52.671z"/>
<path id="path601-4" style="fill-rule:evenodd;stroke:#000000;stroke-dasharray:none;stroke-width:0.84571189;fill:#009b3a;" d="M128.1,24.777c-0.29,0.25-34.802-44.125-34.802-44.125l25.382,52.37,9.94,4.088-0.52-12.333z"/>
<path id="path602-2" style="fill-rule:evenodd;stroke:#000000;stroke-dasharray:none;stroke-width:0.84571332;fill:#009b3a;" d="M131.35-25.405c-1.22,20.47-4.06,52.033-3.54,71.932-14.23-12.599-37.883-29.62-52.409-40.115,13.531,6.6021,31.559,17.233,44.259,20.963,5.1-14.465,8.04-36.78,11.69-52.78z"/>
<path id="path603-0" style="fill-rule:evenodd;stroke:#000000;stroke-dasharray:none;stroke-width:0.84571373;fill:#009b3a;" d="M131.25,32.281c-0.33,0.153-24.4-53.199-24.4-53.199l13.51,58.241,8.77,6.994,2.12-12.036z"/>
<path id="path604-9" style="fill-rule:evenodd;stroke:#000000;stroke-dasharray:none;stroke-width:0.84571326;fill:#009b3a;" d="M132.27-19.314c0.7,20.538,0.81,52.338,3.18,72.074-15.29-10.624-40.339-24.381-55.726-32.871,14.037,4.749,32.906,12.903,45.856,14.905,3.71-15.084,4.56-37.692,6.69-54.108z"/>
<path id="path605-7" style="fill-rule:evenodd;stroke:#000000;stroke-dasharray:none;stroke-width:0.8457126;fill:#009b3a;" d="M135.52,30.233c-0.21,0.336-44.574-30.517-44.574-30.517l37.784,41.638,10.5,0.542-3.71-11.663z"/>
<path id="path606-3" style="fill-rule:evenodd;stroke:#000000;stroke-dasharray:none;stroke-width:0.84571272;fill:#009b3a;" d="M133.68-17.081c1.77,20.444,3.55,52.135,6.96,71.716-15.87-10.011-41.674-22.777-57.526-30.657,14.305,4.203,33.626,11.617,46.706,13.123,2.92-15.174,2.58-37.74,3.86-54.182z"/>
<path id="path607-7" style="fill-rule:evenodd;stroke:#000000;stroke-dasharray:none;stroke-width:0.84571111;fill:#009b3a;" d="M140.32,41.58c-0.27,0.26-37.14-42.689-37.14-42.689l28.13,51.256,10.16,3.706-1.15-12.273z"/>
<path id="path608-2" style="fill-rule:evenodd;stroke:#000000;stroke-dasharray:none;stroke-width:0.8457135;fill:#009b3a;" d="M136.9-9.2909c2.63,20.359,5.74,51.975,9.96,71.372-16.23-9.066-42.48-20.289-58.612-27.223,14.432,3.346,34.002,9.603,47.092,10.323,2.27-15.367,0.98-37.935,1.56-54.472z"/>
<path id="path609-6" style="fill-rule:evenodd;stroke:#000000;stroke-dasharray:none;stroke-width:0.84571379;fill:#009b3a;" d="M147.75,48.768c-0.21,0.333-44.23-31.255-44.23-31.255l37.31,42.252,10.5,0.721-3.58-11.718z"/>
<path id="path610-0" style="fill-rule:evenodd;stroke:#000000;stroke-dasharray:none;stroke-width:0.84571481;fill:#009b3a;" d="M138.29-0.64468c3.96,20.12,9.15,51.458,14.63,70.465-16.72-7.534-43.54-16.277-60.021-21.687,14.551,1.98,34.401,6.389,47.451,5.869,1.24-15.589-1.54-38.047-2.06-54.647z"/>
<path id="path611-1" style="fill-rule:evenodd;stroke:#000000;stroke-dasharray:none;stroke-width:0.84571368;fill:#009b3a;" d="M152.64,54.977c-0.28,0.254-36.59-43.367-36.59-43.367l27.46,51.754,10.12,3.897-0.99-12.284z"/>
<path id="path612-6" style="fill-rule:evenodd;stroke:#000000;stroke-dasharray:none;stroke-width:0.84571403;fill:#009b3a;" d="M140.69,4.9264c5.81,19.567,13.87,50.176,21.08,68.427-17.24-5.288-44.58-10.433-61.37-13.633,14.57,0.031,34.61,1.779,47.46-0.486-0.24-15.737-5.09-37.798-7.17-54.308z"/>
<path id="path613-5" style="fill-rule:evenodd;stroke:#000000;stroke-dasharray:none;stroke-width:0.84571296;fill:#009b3a;" d="M154.59,55.081c-0.08,0.401-51.11-10.947-51.11-10.947l48.6,24.161,9.82-3.694-7.31-9.52z"/>
<path id="path614-7" style="fill-rule:evenodd;stroke:#000000;stroke-dasharray:none;stroke-width:0.84571409;fill:#009b3a;" d="M144.06,11.007c5.73,19.595,13.68,50.243,20.81,68.53-17.22-5.384-44.54-10.683-61.33-13.976,14.58,0.113,34.61,1.974,47.48-0.217-0.18-15.735-4.94-37.819-6.96-54.337z"/>
<path id="path615-5" style="fill-rule:evenodd;stroke:#000000;stroke-dasharray:none;stroke-width:0.84571111;fill:#009b3a;" d="M162.95,60.459c-0.15,0.362-48.9-23.616-48.9-23.616l43.86,35.553,10.51-0.984-5.47-10.953z"/>
<path id="path616-4" style="fill-rule:evenodd;stroke:#000000;stroke-dasharray:none;stroke-width:0.84571409;fill:#009b3a;" d="M141.53,14.465c9.71,17.855,23.91,46.013,34.71,62.274-17.91-1.368-45.65-0.367-62.7,0.211,14.23-3.187,34.14-5.899,46.21-10.951-3.48-15.339-12.78-35.845-18.22-51.534z"/>
<path id="path617-1" style="fill-rule:evenodd;stroke:#000000;stroke-dasharray:none;stroke-width:0.84571391;fill:#009b3a;" d="M170.63,65.817c-0.09,0.392-50.81-14.033-50.81-14.033l47.69,27.001,10.03-3.062-6.91-9.906z"/>
<path id="path618-2" style="fill-rule:evenodd;stroke:#000000;stroke-dasharray:none;stroke-width:0.84571415;fill:#009b3a;" d="M146.78,22.036c9.82,17.787,24.18,45.845,35.08,62.026-17.91-1.217-45.62,0.016-62.65,0.74,14.2-3.309,34.08-6.191,46.11-11.348-3.58-15.321-13-35.763-18.54-51.418z"/>
<path id="path619-0" style="fill-rule:evenodd;stroke:#000000;stroke-dasharray:none;stroke-width:0.84571302;fill:#009b3a;" d="M177.08,69.998c-0.18,0.341-47.34-28.324-47.34-28.324l41.37,39.589,10.63,0.106-4.66-11.371z"/>
<path id="path620-0" style="fill-rule:evenodd;stroke:#000000;stroke-dasharray:none;stroke-width:0.84571373;fill:#009b3a;" d="M150.72,26.495c11.37,16.6,28.2,42.934,40.48,57.78-17.71,1.11-44.81,5.962-61.47,8.908,13.62-5.175,32.87-10.664,44.19-17.416-5.01-14.934-16.24-34.257-23.2-49.272z"/>
<path id="path621-1" style="fill-rule:evenodd;stroke:#000000;stroke-dasharray:none;stroke-width:0.8457129;fill:#009b3a;" d="M180.54,74.14c-0.01,0.416-51.1-1.204-51.1-1.204l50.56,14.941,8.99-5.585-8.45-8.152z"/>
<path id="path664-4" style="fill-rule:evenodd;stroke:#000000;stroke-dasharray:none;stroke-width:0.44325471;fill:#009b3a;" d="M210.17-173.47c0.01-0.16,36.77-6.13,36.77-6.13l-36.58,0.85-6.38,3.28,6.19,2z"/>
<path id="path665-6" style="fill-rule:evenodd;stroke:#000000;stroke-dasharray:none;stroke-width:0.45015135;fill:#009b3a;" d="M230.38-165.61c-10.67-3.22-26.79-8.62-37.74-11,11.63-4.63,28.86-12.83,39.45-17.86-8.15,5.1-20.01,11.66-26.33,16.78,6.11,4.14,17.19,8.37,24.62,12.08z"/>
<path id="path666-0" style="fill-rule:evenodd;stroke:#000000;stroke-dasharray:none;stroke-width:0.44325516;fill:#009b3a;" d="M208.59-172.2c-0.04-0.16,35.57-9.78,35.57-9.78l-36.85,4.7-5.56,3.82,6.84,1.26z"/>
<path id="path667-7" style="fill-rule:evenodd;stroke:#000000;stroke-dasharray:none;stroke-width:0.51383781;fill:#009b3a;" d="M232.07-163.04c-12.47-1.18-31.58-3.57-43.89-3.69,9.27-8.21,22.26-21.94,30.27-30.36-5.5,7.92-13.97,18.43-17.61,25.92,8.36,3.36,21.77,5.6,31.23,8.13z"/>
<path id="path668-1" style="fill-rule:evenodd;stroke:#000000;stroke-dasharray:none;stroke-width:0.44325677;fill:#009b3a;" d="M195.37-169.7c0.03-0.16,36.97-4.17,36.97-4.17l-36.02-1.16-6.74,2.96,5.79,2.37z"/>
<path id="path669-7" style="fill-rule:evenodd;stroke:#000000;stroke-dasharray:none;stroke-width:0.44325396;fill:#009b3a;" d="M222.75-161.63c-11.34-2.17-28.56-5.95-40.03-7.29,10.89-5.35,26.77-14.55,36.54-20.2-7.29,5.51-18.06,12.71-23.5,18.08,6.9,3.42,18.83,6.51,26.99,9.41z"/>
<path id="path670-7" style="fill-rule:evenodd;stroke:#000000;stroke-dasharray:none;stroke-width:0.44325429;fill:#009b3a;" d="M192.15-170.06c-0.1-0.14,32.54-14.01,32.54-14.01l-35.64,9.41-4.27,4.34,7.37,0.26z"/>
<path id="path671-7" style="fill-rule:evenodd;stroke:#000000;stroke-dasharray:none;stroke-width:0.46217573;fill:#009b3a;" d="M221.67-157.49c-9.43-3.89-23.88-10.49-33.22-13.24,7.23-6.72,17.41-18.5,23.69-25.73-4.37,7.22-11.03,16.56-13.98,23.72,6.27,5.33,16.39,10.57,23.51,15.25z"/>
<path id="path672-7" style="fill-rule:evenodd;stroke:#000000;stroke-dasharray:none;stroke-width:0.4588863;fill:#009b3a;" d="M194-167.62c-0.07-0.22,25.32-10.97,25.32-10.97l-27.57,3.77-3.39,4.92,5.64,2.28z"/>
<path id="path1609-3" style="fill-rule:evenodd;stroke:#000000;stroke-dasharray:none;stroke-width:0.84571266;fill:#009b3a;" d="M172.8,69.454c0.03,0.406-52.47,0.396-52.47,0.396l53.13,12.991,8.72-5.712-9.38-7.675z"/>
<path id="path1610-3" style="fill-rule:evenodd;stroke:#000000;stroke-dasharray:none;stroke-width:0.84571153;fill:#009b3a;" d="M182.24,72.876c-0.07,0.384-53.3-12.396-53.3-12.396l51.18,25.089,10.03-3.227-7.91-9.466z"/>
<path id="path1611-5" style="fill-rule:evenodd;stroke:#000000;stroke-dasharray:none;stroke-width:0.8457135;fill:#009b3a;" d="M191,76.424c0,0.402-52.91-2.667-52.91-2.667l52.9,15.948,9.08-5.142-9.07-8.139z"/>
<path id="path1612-9" style="fill-rule:evenodd;stroke:#000000;stroke-dasharray:none;stroke-width:0.84571445;fill:#009b3a;" d="M157.42,39.016c13.76,15.17,34.38,39.344,48.83,52.72-17.78,2.685-44.54,9.874-61.01,14.254,13.09-6.285,31.82-13.381,42.36-20.993-7.1-14.12-21.1-31.959-30.18-45.981z"/>
<path id="path1613-9" style="fill-rule:evenodd;stroke:#000000;stroke-dasharray:none;stroke-width:0.84571272;fill:#009b3a;" d="M198.28,79.095c-0.1,0.371-52.89-17.307-52.89-17.307l49.7,29.55,10.41-2.195-7.22-10.048z"/>
<path id="path1614-8" style="fill-rule:evenodd;stroke:#000000;stroke-dasharray:none;stroke-width:0.84571403;fill:#009b3a;" d="M162.31,42.5c15,13.682,37.63,35.646,53.1,47.427-17.03,4.904-42.34,15.473-57.92,21.933,12.09-7.97,29.59-17.463,39.05-26.471-8.4-13.437-23.91-29.795-34.23-42.889z"/>
<path id="path1615-1" style="fill-rule:evenodd;stroke:#000000;stroke-dasharray:none;stroke-width:0.8457129;fill:#009b3a;" d="M202.63,82.375c0.08,0.408-50.19,9.868-50.19,9.868l52.89,3.604,7.46-7.372-10.16-6.1z"/>
<path id="path1616-8" style="fill-rule:evenodd;stroke:#000000;stroke-dasharray:none;stroke-width:0.84571302;fill:#009b3a;" d="M192.13,79.222c0.05,0.403-52.34,4.016-52.34,4.016l54.01,9.281,8.27-6.295-9.94-7.002z"/>
<path id="path1617-2" style="fill-rule:evenodd;stroke:#000000;stroke-dasharray:none;stroke-width:0.84571165;fill:#009b3a;" d="M201.8,81.981c-0.03,0.388-54.12-8.677-54.12-8.677l52.96,21.475,9.77-3.909-8.61-8.889z"/>
<path id="path1618-6" style="fill-rule:evenodd;stroke:#000000;stroke-dasharray:none;stroke-width:0.84571379;fill:#009b3a;" d="M210.81,84.913c0.03,0.401-53.01,0.993-53.01,0.993l54.01,12.245,8.67-5.752-9.67-7.486z"/>
<path id="path1619-6" style="fill-rule:evenodd;stroke:#000000;stroke-dasharray:none;stroke-width:0.84571481;fill:#009b3a;" d="M174.49,49.945c14.88,14.171,37.27,36.842,52.7,49.178-17.54,3.907-43.72,12.907-59.82,18.417,12.59-7.17,30.75-15.53,40.7-23.847-8.15-13.584-23.46-30.398-33.58-43.748z"/>
<path id="path1620-0" style="fill-rule:evenodd;stroke:#000000;stroke-dasharray:none;stroke-width:0.84571266;fill:#009b3a;" d="M218.28,87.073c-0.07,0.376-54.09-13.601-54.09-13.601l51.83,26.024,10.22-2.907-7.96-9.516z"/>
<path id="path1621-3" style="fill-rule:evenodd;stroke:#000000;stroke-dasharray:none;stroke-width:0.84571409;fill:#009b3a;" d="M179.63,53.08c16,12.602,40.24,32.932,56.57,43.607-16.63,6.063-41.11,18.343-56.17,25.863,11.46-8.78,28.22-19.45,36.99-29.084-9.39-12.814-26.1-28.047-37.39-40.386z"/>
<path id="path1622-8" style="fill-rule:evenodd;stroke:#000000;stroke-dasharray:none;stroke-width:0.84571278;fill:#009b3a;" d="M222.87,90.042c0.11,0.401-49.35,13.298-49.35,13.298l53.05-0.06,6.9-7.859-10.6-5.379z"/>
</g>
<path id="path4809" style="fill-rule:evenodd;stroke:#000000;stroke-miterlimit:4;stroke-dasharray:none;stroke-width:0.54335666;fill:#fedf00;" d="M509.47,311.86l-9.47-6.55-9.48,6.55,3.56-10.48-8.29-6.55h10.66l3.55-10.47,3.55,10.47h10.66l-8.29,6.55,3.55,10.48z"/>
<g id="text5478" style="font-size:40px;font-family:Arial;letter-spacing:0px;font-style:normal;word-spacing:0px;font-stretch:normal;font-variant:normal;font-weight:bold;line-height:125%;fill:#000000;" transform="matrix(0.2125932,-0.04518808,0.04518808,0.2125932,448.55296,317.41373)">
<path id="path5506" style="text-align:start;" d="M35.997,64.981l-45.088,15.264-7.8607-23.221c-1.458-4.306-2.203-7.722-2.235-10.248-0.033-2.526,0.715-4.824,2.242-6.895s3.726-3.593,6.596-4.564c2.502-0.847,4.8405-1.045,7.016-0.593,2.1756,0.452,4.1431,1.42,5.9024,2.904,1.1203,0.946,2.2668,2.375,3.4394,4.287-0.0086-1.849,0.1355-3.246,0.4322-4.192,0.1956-0.637,0.7334-1.648,1.6134-3.031,0.88-1.384,1.5926-2.351,2.1376-2.901l10.791-11.161,5.331,15.747-11.259,12.108c-1.465,1.547-2.338,2.78-2.622,3.699-0.357,1.24-0.32,2.496,0.11,3.767l0.417,1.231,18.3-6.195zm-31.557-4.915l-1.9887-5.875c-0.2151-0.635-0.8366-1.796-1.8645-3.482-0.49685-0.86-1.2235-1.454-2.1801-1.782-0.9564-0.327-1.9268-0.324-2.911,0.009-1.4557,0.493-2.417,1.332-2.8839,2.519-0.4667,1.186-0.2698,3.051,0.5909,5.593l2.072,6.121z"/>
<path id="path5508" style="text-align:start;" d="M-26.665,21.084l-4.391-39.174,10.1-1.132,2.749,24.524,7.518-0.8428-2.55-22.749,9.6486-1.082,2.5501,22.75,9.3257-1.0454-2.8287-25.234,10.713-1.201,4.471,39.884z"/>
<path id="path5510" style="text-align:start;" d="M-31.094-36.663l2.332-24.339c0.508-5.301,2.149-9.15,4.922-11.549,2.775-2.398,6.489-3.374,11.143-2.928,4.784,0.458,8.3849,2.255,10.803,5.389,2.418,3.135,3.3442,7.655,2.7786,13.559l-0.76786,8.016,17.583,1.684-1.409,14.707zm21.611-12.772l0.3437-3.587c0.2704-2.823-0.0299-4.853-0.9005-6.089-0.872-1.236-2.072-1.927-3.602-2.073-1.487-0.143-2.795,0.232-3.924,1.124s-1.825,2.707-2.087,5.443l-0.4,4.17z"/>
<path id="path5512" style="text-align:start;" d="M-13.995-124.36l4.5734-13.95,26.967,8.85c2.674,0.87,5.062,2.12,7.165,3.73,2.102,1.61,3.752,3.6,4.947,5.96,1.196,2.36,1.834,4.64,1.913,6.83,0.117,3.05-0.448,6.47-1.695,10.28-0.722,2.2-1.664,4.548-2.826,7.049s-2.487,4.476-3.975,5.924c-1.489,1.448-3.315,2.621-5.477,3.518s-4.226,1.319-6.19,1.267c-3.1635-0.08-5.8557-0.484-8.0773-1.213l-26.967-8.843,4.573-13.942,27.615,9.052c2.4682,0.809,4.6212,0.757,6.4582-0.152,1.837-0.92,3.153-2.59,3.949-5.01,0.789-2.41,0.724-4.52-0.195-6.34-0.919-1.81-2.634-3.13-5.143-3.96z"/>
<path id="path5514" style="text-align:start;" d="M-0.50771-157.19l14.292-23.53c2.382-3.93,5.182-6.35,8.4-7.27s6.261-0.51,9.129,1.23c2.405,1.46,4.013,3.47,4.824,6.01,0.54,1.7,0.559,3.71,0.057,6.04,2.478-2.5,4.992-3.92,7.54-4.26,2.549-0.34,5.118,0.28,7.709,1.85,2.109,1.28,3.708,2.93,4.796,4.93,1.089,2,1.606,4.15,1.553,6.45-0.03,1.43-0.552,3.29-1.566,5.58-1.349,3.06-2.305,5.05-2.866,5.97l-13.179,21.71zm23.661-2.99l3.32-5.47c1.191-1.96,1.682-3.53,1.473-4.71s-0.952-2.15-2.229-2.93c-1.184-0.72-2.342-0.89-3.475-0.53-1.132,0.36-2.277,1.5-3.434,3.4l-3.371,5.55zm15.987,9.71l3.893-6.42c1.314-2.16,1.857-3.92,1.629-5.27-0.229-1.36-0.991-2.43-2.286-3.22-1.203-0.73-2.436-0.87-3.701-0.44-1.264,0.44-2.565,1.76-3.902,3.96l-3.876,6.38z"/>
<path id="path5516" style="text-align:start;" d="M33.437-208.48l10.052-10.74,26.194,24.52,15.689-16.76,8.557,8.02-25.741,27.49z"/>
<path id="path5518" style="text-align:start;" d="M70.597-245.13l11.586-9.12,29.437,37.42-11.59,9.11z"/>
<path id="path5520" style="text-align:start;" d="M138.29-255.87l13.18-2.76c0.98,3.58,1.23,6.89,0.76,9.91s-1.62,5.73-3.45,8.14-4.61,4.63-8.36,6.68c-4.53,2.48-8.6,3.85-12.2,4.1-3.6,0.26-7.36-0.71-11.26-2.89-3.91-2.18-7.28-5.86-10.12-11.05-3.78-6.91-4.84-13.23-3.2-18.95,1.65-5.73,5.83-10.43,12.55-14.1,5.26-2.88,9.98-4.08,14.15-3.6,4.18,0.48,8.2,2.53,12.07,6.14l-10.01,8.76c-1.09-1.05-2.02-1.75-2.78-2.1-1.26-0.6-2.56-0.87-3.89-0.83-1.34,0.04-2.65,0.41-3.94,1.11-2.93,1.6-4.52,4.01-4.79,7.21-0.23,2.39,0.69,5.46,2.73,9.2,2.54,4.64,4.98,7.43,7.32,8.38,2.35,0.95,4.79,0.73,7.34-0.66,2.47-1.35,3.95-3.07,4.46-5.14,0.5-2.08,0.32-4.6-0.56-7.55z"/>
<path id="path5522" style="text-align:start;" d="M191.74-263.16l-16.1,4.64-0.04,8.19-14.45,4.16,4.02-50.7,15.42-4.44,30.36,40.8-14.79,4.26zm-5.81-9.04l-9.79-14.99-0.29,17.9z"/>
<path id="path5524" style="text-align:start;" d="M240.04-310.56l21.84,0.84c4.3,0.17,7.76,0.89,10.36,2.16,2.61,1.27,4.73,3.03,6.38,5.28s2.8,4.84,3.47,7.77,0.94,6.01,0.81,9.26c-0.19,5.08-0.92,9-2.19,11.76-1.26,2.75-2.96,5.04-5.09,6.85-2.12,1.82-4.38,2.99-6.76,3.53-3.26,0.74-6.19,1.06-8.81,0.96l-21.84-0.84zm14.29,11.34l-1,25.99,3.6,0.14c3.07,0.12,5.27-0.14,6.59-0.77,1.33-0.63,2.39-1.78,3.19-3.45s1.27-4.41,1.42-8.22c0.19-5.04-0.5-8.52-2.07-10.44-1.57-1.93-4.26-2.96-8.07-3.11z"/>
<path id="path5526" style="text-align:start;" d="M301.53-305.86l38.17,9.84-2.54,9.84-23.89-6.16-1.89,7.33,22.17,5.71-2.43,9.4-22.16-5.71-2.34,9.09,24.58,6.33-2.69,10.44-38.86-10.01z"/>
<path id="path5528" style="text-align:start;" d="M356.65-289.52l13.25,6.39-15.59,32.32,20.68,9.98-5.1,10.55-33.92-16.36z"/>
<path id="path5530" style="text-align:start;" d="M426.09-248.88l18,16.55c3.92,3.6,6,7.24,6.24,10.9,0.24,3.65-1.23,7.21-4.39,10.65-3.25,3.54-6.86,5.32-10.82,5.36s-8.12-1.95-12.49-5.97l-5.93-5.45-11.95,13.01-10.88-10zm-2.86,24.94l2.65,2.44c2.09,1.92,3.89,2.91,5.4,2.96s2.79-0.49,3.83-1.62c1.01-1.1,1.5-2.37,1.47-3.81s-1.06-3.09-3.08-4.95l-3.08-2.83z"/>
<path id="path5532" style="text-align:start;" d="M452.05-161.1l-9.63-13.71-7.76,2.63-8.64-12.31,49.24-12.71,9.22,13.13-28.68,41.99-8.84-12.59zm6.65-8.44l10.98-14.14-17.01,5.56z"/>
<path id="path5534" style="text-align:start;" d="M457.71-137.36l43.99-18.18,9.37,22.65c1.73,4.2,2.7,7.56,2.9,10.08s-0.4,4.86-1.79,7.03-3.48,3.83-6.28,4.99c-2.44,1-4.76,1.36-6.96,1.05s-4.23-1.15-6.08-2.51c-1.18-0.88-2.42-2.23-3.72-4.06,0.13,1.85,0.08,3.25-0.15,4.21-0.16,0.65-0.63,1.7-1.41,3.13-0.79,1.44-1.44,2.45-1.95,3.04l-10.04,11.842-6.35-15.362,10.45-12.82c1.36-1.64,2.15-2.93,2.37-3.86,0.28-1.26,0.16-2.52-0.36-3.76l-0.49-1.2-17.86,7.38zm31.81,2.84l2.37,5.73c0.26,0.62,0.95,1.74,2.09,3.35,0.55,0.83,1.31,1.37,2.29,1.64,0.98,0.26,1.94,0.2,2.9-0.2,1.42-0.59,2.33-1.49,2.72-2.7,0.39-1.22,0.07-3.07-0.96-5.55l-2.47-5.97z"/>
<path id="path5536" style="text-align:start;" d="M489.14-61.739l-2.84-16.512-8.14-0.941-2.54-14.817,49.94,9.568,2.72,15.809-43.88,25.697-2.61-15.168zm9.62-4.784l15.97-8.083-17.75-2.253z"/>
<path id="path5538" style="text-align:start;" d="M500.04-13.103l9.89,0.603-1.39,22.687-20.25-1.2351c-2.7-4.5236-4.48-8.4871-5.35-11.891-0.86-3.4035-1.16-7.3953-0.88-11.976,0.35-5.639,1.59-10.178,3.73-13.615s5.17-6.017,9.09-7.741c3.92-1.723,8.35-2.435,13.28-2.134,5.18,0.316,9.63,1.661,13.33,4.034,3.71,2.373,6.43,5.683,8.16,9.931,1.34,3.313,1.84,7.692,1.51,13.137-0.32,5.2508-1.03,9.1489-2.14,11.695-1.11,2.5456-2.72,4.6164-4.82,6.2123-2.11,1.5958-4.72,2.7323-7.84,3.4091l-1.66-14.317c1.83-0.4741,3.26-1.3789,4.29-2.7146,1.04-1.3357,1.62-3.0843,1.75-5.2443,0.2-3.22-0.76-5.854-2.88-7.902-2.12-2.049-5.6-3.221-10.44-3.516-5.14-0.314-8.87,0.429-11.2,2.229-2.32,1.799-3.58,4.427-3.8,7.885-0.1,1.642,0.05,3.223,0.43,4.7426,0.39,1.5198,1.09,3.2762,2.12,5.2691l4.47,0.2727z"/>
<path id="path5540" style="text-align:start;" d="M516.11,60.966l-4.31,14.029-27.13-8.342c-2.69-0.827-5.1-2.027-7.23-3.6s-3.82-3.529-5.06-5.87c-1.24-2.34-1.92-4.604-2.04-6.792-0.17-3.043,0.33-6.479,1.51-10.306,0.68-2.214,1.58-4.582,2.69-7.104,1.12-2.522,2.41-4.521,3.87-5.997,1.46-1.475,3.26-2.681,5.41-3.618,2.14-0.937,4.2-1.398,6.16-1.382,3.17,0.021,5.87,0.376,8.1,1.063l27.13,8.342-4.32,14.028-27.77-8.542c-2.49-0.764-4.64-0.672-6.46,0.274-1.82,0.947-3.1,2.641-3.85,5.082-0.75,2.421-0.64,4.531,0.31,6.33s2.69,3.087,5.21,3.863z"/>
<path id="path5542" style="text-align:start;" d="M454.17,99.325l8.43-14.48-5.63-5.945,7.56-12.994,32.14,39.404-8.07,13.87-50.14-8.48,7.74-13.307zm10.45,2.515l17.43,4.06-12.16-13.127z"/>
<path id="path5544" style="text-align:start;" d="M473.25,143.18l-11.13,11.96-18.31-3.92,5.22,17.99-11.06,11.88-7.65-32.39-14.59-13.58,10.04-10.79,14.59,13.58z"/>
</g>
<path id="path5494" style="stroke-dashoffset:0;stroke:#000000;stroke-linecap:round;stroke-miterlimit:4;stroke-dasharray:none;stroke-width:1.67751336;fill:none;" d="M-236.12-33.236a120.45,122.83,0,1,1,-240.89,0,120.45,122.83,0,1,1,240.89,0z" transform="matrix(0.52335563,0,0,0.5131934,686.61184,317.05654)"/>
<path id="path5496" style="stroke-dashoffset:0;stroke:#000000;stroke-linecap:round;stroke-miterlimit:4;stroke-dasharray:none;stroke-width:2.0067749;fill:none;" d="M-236.12-33.236a120.45,122.83,0,1,1,-240.89,0,120.45,122.83,0,1,1,240.89,0z" transform="matrix(0.40089675,0,0,0.39311234,642.94693,313.06552)"/>
</svg>
