<?xml version="1.0" encoding="UTF-8" standalone="no"?>
<svg id="svg2" xmlns:rdf="http://www.w3.org/1999/02/22-rdf-syntax-ns#" xmlns="http://www.w3.org/2000/svg" viewBox="0 0 4320 2880" version="1.1" xmlns:cc="http://creativecommons.org/ns#" xmlns:xlink="http://www.w3.org/1999/xlink" xmlns:dc="http://purl.org/dc/elements/1.1/">
<metadata id="metadata25">
<rdf:RDF>
<cc:Work rdf:about="">
<dc:format>image/svg+xml</dc:format>
<dc:type rdf:resource="http://purl.org/dc/dcmitype/StillImage"/>
<dc:title/>
</cc:Work>
</rdf:RDF>
</metadata>
<rect id="rect4" width="4320" height="1440" fill="#ed2939"/>
<rect id="rect6" y="1440" width="4320" height="1440" fill="#fff"/>
<path id="path8" d="M1481.7,720a541.5,541.5,0,1,1,-1083,0,541.5,541.5,0,1,1,1083,0z" fill="#fff"/>
<path id="path10" d="M1651.8,720a511.73,511.73,0,1,1,-1023.4,0,511.73,511.73,0,1,1,1023.4,0z" fill="#ed2939"/>
<path id="star" d="M1007.2,733.06l-73.57-56.43-73.54,56.46,28.32-90.99-73.8-56.09,91.06,0.19,27.93-91.13,27.97,91.12,91.03-0.23-73.75,56.12,28.35,90.98z" fill="#fff"/>
<use id="use13" xlink:href="#star" transform="translate(577.18853,0)"/>
<use id="use15" xlink:href="#star" transform="translate(288.88853,-214.21117)"/>
<use id="use17" xlink:href="#star" transform="translate(107.99953,342.74883)"/>
<use id="use19" xlink:href="#star" transform="translate(469.18853,342.74883)"/>
</svg>
