<?xml version="1.0" encoding="UTF-8" standalone="no"?>
<svg id="svg2" xmlns:rdf="http://www.w3.org/1999/02/22-rdf-syntax-ns#" xmlns="http://www.w3.org/2000/svg" viewBox="0 0 1200 600" version="1.0" xmlns:cc="http://creativecommons.org/ns#" xmlns:dc="http://purl.org/dc/elements/1.1/">
<metadata id="metadata183">
<rdf:RDF>
<cc:Work rdf:about="">
<dc:format>image/svg+xml</dc:format>
<dc:type rdf:resource="http://purl.org/dc/dcmitype/StillImage"/>
<dc:title/>
</cc:Work>
</rdf:RDF>
</metadata>
<defs id="defs4"></defs>
<path id="path14" style="fill:#00247d;" d="M1200,600v-600h-1200v600h1200z"/>
<g id="g2827" transform="translate(0,-0.259665)">
<path id="path1392" style="fill-opacity:0.99608099999999999;fill:#ffffff;" d="M1008.9,171.25v85.17c0,69.93-27.43,133.94-108.92,172.85-81.48-38.91-108.95-102.92-108.95-172.85v-85.17h217.87z"/>
<path id="path18" style="fill-opacity:0.99608099999999999;fill:#fdc300;" d="M1001.6,179.93v79.44c0,65.23-25.61,124.93-101.62,161.22-76-36.29-101.62-95.99-101.62-161.22v-79.44h203.24z"/>
<g id="g20" transform="matrix(4.166408,0,0,4.166876,-5.45887,-5.459652)">
<path id="path22" style="stroke:#000000;stroke-width:0.0625;fill:#ff9e3d;" d="M205.96,52.847c-0.35-0.265-0.73-0.427-1.26-0.441,0.12-1.295-0.83-1.854-1.5-2.09-0.68-0.235-0.92-0.5-1.03-1.029-0.12-0.53-0.47-0.853-1.09-1.03s-1.15-0.794-1.38-1.089c-0.24-0.294-0.33-0.235-0.5,0.265-0.18,0.5-0.89,1.442-0.24,1.471-0.47,0.383-0.74,0.824-0.44,1.412-0.32,0.265-0.56,0.648-0.12,0.795s0.56,0.265,0.59,0.382c-0.4,0-0.5,0.795,0.44,0.971-0.21,0.03-0.29,0.677,0.09,0.677-0.53,0-0.97,0.795-1.65,0.795-0.67,0-1.03,0.146-1.06,0.441-0.03,0.294-0.38,0.647-0.56,0.794,0.5,0.059,0.83,0,1.09-0.206,0.27-0.206,0.71-0.265,1-0.029,0.3,0.235,0.92,0.353,1.21,0.294-0.65,0.441-1.12,1.03-1.18,1.589s-0.44,1.206-0.88,1.383c-0.44,0.176-1.03,0.647-1.24,1.206,0.56,1.383,1.36,1.724,2.15,2.089,1.41,0.647,2.3,1.118,2.88,1.765,0.59,0.648,0.83,0.177,1.71,1.295s1.71,3.236,2.59,3.589,2,0.118,2.65-1,1.06-12.416-2.27-14.299z"/>
<path id="path24" style="stroke-width:0.0625;stroke:#000000;fill:#ff927f;" d="M207.46,48.139c-0.82,0.883-1.88,1.766-1.7,3.354,0.17,1.589,0.35,4.178-1.12,5.061s-2.18,3.119-0.41,4.413c1.76,1.295,1.82,2.884,2.11,4.355,0.3,1.471,1.06,2.648,2.24,1.648,1.18,0.176,1.83-0.295,1.83-1.236,0-0.942,0.05-1.471,0.94-1.766,0.88-0.294,1.11-0.588,1.53-1.382,0.41-0.795,0.64-1.148,0.41-1.619-0.24-0.47-0.33-1.441-0.15-2.147,0.18-0.707-0.23-1.089-0.47-1.53-0.23-0.442-0.32-0.824-0.21-1.413,0.12-0.588-0.17-0.971-0.58-1.265-0.42-0.294-0.59-0.588-0.5-1.059,0.08-0.471-0.3-0.765-0.74-1.118s-0.76-0.824-0.76-1.53-1.36-2.354-2.42-2.766z"/>
<path id="path26" style="stroke:#000000;stroke-width:0.0625;fill:#ff9ee1;" d="M207.79,67.352c1.97-0.5,1.79-3.737,1.5-5.09-0.3-1.354-1.05-3.292-0.47-4.825,0.82-2.177-1-4.237-0.53-5.061s0.41-1.265,0.35-1.53-0.5-0.471-0.53,0.088-0.18,0.765-0.53,1.118c-0.35,0.354-0.26,1.118,0,1.972,0.27,0.853,0.82,2.148-0.06,3.854s-0.52,2.467-0.17,3.266c0.53,1.236,1.79,5.531,0.44,6.208z"/>
<path id="path28" style="stroke:#000000;stroke-width:0.0625;fill:none;" d="M198.96,48.904c0.22,0,0.65-0.088,0.65,0.206"/>
<path id="path30" style="stroke:#000000;stroke-width:0.0625;fill:none;" d="M198.52,50.316c0.26-0.191,0.74,0.03,1.2-0.25"/>
<path id="path32" style="stroke:#000000;stroke-width:0.0625;fill:none;" d="M198.99,51.493c0.35,0,0.82-0.014,1.27-0.367"/>
<path id="path34" style="stroke:#000000;stroke-width:0.0625;fill:none;" d="M199.43,52.464c0.33,0,0.93-0.206,1.07-0.632"/>
<path id="path36" style="stroke:#000000;stroke-width:0.0625;fill:none;" d="M199.52,53.141c0.63-0.029,1.47,0.206,1.59-0.015"/>
<path id="path38" style="stroke:#000000;stroke-width:0.0625;fill:none;" d="M199.55,55.23c0.44-0.412,1.49-0.691,1.72-1.118"/>
<path id="path40" style="stroke:#000000;stroke-width:0.0625;fill:none;" d="M200.67,48.669c0.73,0.235,0.43,0.69,0.79,0.971,0.65,0.5,0.06,1.059,0.59,1.206s0.52,0.237,0.38,0.824c-0.16,0.691,0.5,0.721,0.27,1.177"/>
<path id="path42" style="stroke:#000000;stroke-width:0.0625;fill:none;" d="M204.7,52.406c-0.3,0-1.16,0.029-1.53,0.809"/>
<path id="path44" style="stroke:#000000;stroke-width:0.0625;fill:none;" d="M198.42,60.894c0.34,0.059,0.5-0.134,0.6-0.324,0.1-0.206,0.15-0.353,0.46-0.368,0.3-0.014,0.78-0.103,0.88-0.338s0.47-0.015,0.78-0.633c0.31-0.617,0.51-1.353,1.34-1.618"/>
</g>
<g id="g136" transform="matrix(4.166408,0,0,4.166876,-5.45887,-5.459652)">
<path id="path138" style="stroke-width:0.0625;stroke:#000000;fill:#00a728;" d="M221.76,73.75c0.33,0.484-0.01,1.007,0.55,1.216,0.66,0.245,0.09,1.116,0.87,1.423,0.69,0.272,0,1.104,0.75,1.478,0.67,0.335-0.11,1.116,0.78,1.562s-0.17,1.45,0.5,1.841c0.67,0.39-0.22,1.394,0.56,1.785,0.78,0.39-0.33,1.171,0.39,1.729s-0.17,1.395,0.56,1.897c0.72,0.502-0.45,1.172,0.28,1.896,0.56,0.558-0.2,1.105,0.22,1.953,0.28,0.558-0.28,2.789-1.84,2.566-0.56,0.948-2.73,1.785-3.52,1.506-0.78,0.558-3.29,1.339-4.57,0.112-1.28,1.227-3.79,0.446-4.57-0.112-0.78,0.279-2.96-0.558-3.52-1.506-1.56,0.223-2.12-2.008-1.84-2.566,0.42-0.848-0.33-1.395,0.22-1.953,0.73-0.724-0.44-1.394,0.28-1.896,0.73-0.502-0.16-1.339,0.56-1.897,0.73-0.558-0.39-1.339,0.39-1.729,0.78-0.391-0.11-1.395,0.56-1.785,0.67-0.391-0.39-1.395,0.5-1.841s0.11-1.227,0.78-1.562c0.75-0.374,0.06-1.206,0.75-1.478,0.79-0.307,0.21-1.178,0.87-1.423,0.57-0.212,0.21-0.749,0.57-1.239,1.66,0.653,6.8,1.122,8.92,0.023z"/>
<g id="g140">
<path id="path142" style="stroke-width:0.0625;stroke:#000000;fill-opacity:0.996081;fill:#fdc300;" d="M213.51,76.668c0,0.25,0,0.5-0.24,0.808-0.5,0.67,0.23,1.005-0.33,1.73s0.11,1.171-0.5,1.785c-0.62,0.613,0.11,1.171-0.5,1.841-0.62,0.669,0.11,1.115-0.51,1.729-0.61,0.614,0.11,1.283-0.5,1.897-0.61,0.613,0.11,1.394-0.56,2.119s0.11,1.283-0.44,1.841c-0.56,0.558-0.06,1.116-0.45,1.506,0.67-0.502,0.67-1.283,1.17-1.673,0.5-0.391-0.17-0.949,0.11-1.227,0.28-0.279,0.06-1.451,0.56-2.009,0.5-0.557,0.06-1.673,0.5-2.064,0.45-0.39,0.12-1.561,0.67-1.952,0.56-0.391,0-1.339,0.45-1.841s0-1.283,0.45-1.896c0.44-0.614,0.02-1.171,0.33-1.674,0.14-0.223,0.14-1.841-0.21-0.92z"/>
<path id="path144" style="stroke-width:0.0625;stroke:#000000;fill-opacity:0.996081;fill:#fdc300;" d="M215.12,77.365c-0.4,0.725,0.27,0.892-0.23,1.618-0.5,0.725,0.28,1.283-0.28,2.008-0.55,0.725,0.28,1.115-0.22,1.841-0.5,0.725,0.22,1.115-0.22,1.673-0.45,0.558,0.33,1.116-0.23,1.785-0.55,0.67,0.23,1.172-0.22,1.785-0.45,0.614,0.17,1.283-0.22,1.785s0.28,1.228-0.28,1.897,0.11,1.116-0.22,1.562c0.66-0.223,0.41-1.144,0.66-1.339,0.26-0.195-0.08-1.478,0.31-1.813s-0.25-1.367,0.11-1.813c0.62-0.753,0.09-1.255,0.45-1.841,0.36-0.585-0.14-1.337,0.14-1.729,0.47-0.669-0.21-1.273,0.14-1.757,0.5-0.697-0.1-1.272,0.25-1.729,0.53-0.698-0.06-1.395,0.17-1.758,0.22-0.362,0.58-1.924-0.11-2.175z"/>
<path id="path146" style="stroke-width:0.0625;stroke:#000000;fill-opacity:0.996081;fill:#fdc300;" d="M217.29,77.974c-0.39,0.972,0.28,1.361,0.06,2.138-0.23,0.778,0.27,1.361-0.06,2.203-0.33,0.843,0.45,1.491,0,2.592-0.45,1.102,0.29,1.376,0,2.462-0.33,1.264,0.56,1.933,0,2.826s0.64,1.188,0.06,2.12c-0.28,0.446,0.02,1.59,0.47,0.223s-0.33-1.534,0.06-2.092-0.14-2.036,0.02-2.817c0.17-0.781-0.39-1.841-0.02-2.678,0.36-0.836-0.56-1.729-0.2-2.454s-0.17-1.618,0.17-2.203c0.33-0.586-0.25-1.367-0.11-1.702s-0.14-1.571-0.45-0.618z"/>
</g>
<path id="path148" style="stroke:#000000;stroke-width:0.0625;fill:#ef072d;" d="M221.47,74.408c0-6.303-0.89-8.479-4.18-8.479s-4.18,2.176-4.18,8.479h8.36z"/>
<g id="g150">
<path id="path152" style="stroke:#000000;stroke-width:0.0625;fill:none;" d="M214.33,73.906c-0.61,0.614,0.12,1.06-0.5,1.785-0.61,0.726-0.05,1.116-0.56,1.785-0.5,0.67,0.23,1.005-0.33,1.73s0.11,1.171-0.5,1.785c-0.62,0.613,0.11,1.171-0.5,1.841-0.62,0.669,0.11,1.115-0.51,1.729-0.61,0.614,0.11,1.283-0.5,1.897-0.61,0.613,0.11,1.394-0.56,2.119s0.11,1.283-0.44,1.841c-0.56,0.558-0.06,1.116-0.45,1.506-0.39,0.391-0.44,0.935-0.28,1.172"/>
<path id="path154" style="stroke:#000000;stroke-width:0.0625;fill:none;" d="M215.5,74.129c-0.55,0.726,0.28,1.06-0.22,1.674s0.22,0.837-0.16,1.562c-0.4,0.725,0.27,0.892-0.23,1.618-0.5,0.725,0.28,1.283-0.28,2.008-0.55,0.725,0.28,1.115-0.22,1.841-0.5,0.725,0.22,1.115-0.22,1.673-0.45,0.558,0.33,1.116-0.23,1.785-0.55,0.67,0.23,1.172-0.22,1.785-0.45,0.614,0.17,1.283-0.22,1.785s0.28,1.228-0.28,1.897,0.11,1.116-0.22,1.562c-0.34,0.446-0.6,1.102-0.28,1.283"/>
<path id="path156" style="stroke:#000000;stroke-width:0.0625;fill:none;" d="M217.29,74.799c-0.28,1.166,0.39,2.203,0,3.175s0.28,1.361,0.06,2.138c-0.23,0.778,0.27,1.361-0.06,2.203-0.33,0.843,0.45,1.491,0,2.592-0.45,1.102,0.29,1.376,0,2.462-0.33,1.264,0.56,1.933,0,2.826s0.5,1.116,0.06,2.12c-0.45,1.004,0.27,1.394-0.06,2.399"/>
<path id="path158" style="stroke:#000000;stroke-width:0.0625;fill:none;" d="M220.25,73.906c0.61,0.614-0.11,1.06,0.5,1.785,0.61,0.726,0.05,1.116,0.56,1.785,0.5,0.67-0.23,1.005,0.33,1.73s-0.11,1.171,0.5,1.785c0.62,0.613-0.11,1.171,0.51,1.841,0.61,0.669-0.12,1.115,0.5,1.729,0.61,0.614-0.11,1.283,0.5,1.897,0.61,0.613-0.11,1.394,0.56,2.119s-0.11,1.283,0.44,1.841c0.56,0.558,0.06,1.116,0.45,1.506,0.39,0.391,0.45,0.935,0.28,1.172"/>
<path id="path160" style="stroke:#000000;stroke-width:0.0625;fill:none;" d="M219.08,74.129c0.55,0.726-0.28,1.06,0.22,1.674s-0.22,0.837,0.17,1.562-0.28,0.892,0.22,1.618c0.5,0.725-0.28,1.283,0.28,2.008s-0.28,1.115,0.22,1.841c0.5,0.725-0.22,1.115,0.22,1.673,0.45,0.558-0.33,1.116,0.23,1.785,0.56,0.67-0.23,1.172,0.22,1.785,0.45,0.614-0.17,1.283,0.22,1.785s-0.28,1.228,0.28,1.897-0.11,1.116,0.23,1.562c0.33,0.446,0.6,1.102,0.27,1.283"/>
</g>
<path id="path162" style="stroke:#000000;stroke-width:0.0625;fill:#000000;" d="M213.11,74.408c0-6.303,0.89-8.479,4.18-8.479-1.51,0-2.43,1.172-2.68,1.953s-0.11,0.725,0.23,0.418c0.33-0.307,0.16,0.363-0.12,0.725-0.27,0.363-0.55,1.395-0.16,1.06s0.69,0.056,0.28,0.642c-0.42,0.585-0.78,1.952-0.37,1.478,0.42-0.474,0.51,0.307,0.25,0.697-0.25,0.391-0.22,0.725,0,0.558,0.23-0.167,0.2,0.642-0.02,0.948h-1.59z"/>
<path id="path164" style="stroke:#000000;stroke-width:0.0625;fill:#000000;" d="M220.83,74.046c0-4.937-0.61-6.415-1.84-6.917-0.69-0.285-0.71-0.223-0.38,0.223s0.28,1.088-0.03,0.641c-0.3-0.446-0.4-0.53-0.53-0.334-0.13,0.195,0.35,1.115,0.71,1.952,0.29,0.673,0.1,1.004-0.33,0.335-0.43-0.67-0.43-0.063-0.05,0.502,0.49,0.725,0.47,2.928,0.47,3.849l1.98-0.251z"/>
<path id="path166" style="stroke:#000000;stroke-width:0.0625;fill:#ef072d;" d="M217.29,75.329c1.31,0,2.75-0.234,3.71-0.608,1.14-0.444,1.2-0.834,0.81-1.333-0.28-0.35-0.89-0.14-1.48,0.117s-2.2,0.421-3.04,0.421-2.45-0.164-3.04-0.421-1.2-0.467-1.48-0.117c-0.39,0.499-0.33,0.889,0.81,1.333,0.96,0.374,2.4,0.608,3.71,0.608z"/>
</g>
<g id="g1070" style="font-size:12px;" transform="matrix(0.895602,0,0,0.895702,239.4897,59.73914)">
<path id="path577" style="stroke-width:4.375;fill-rule:evenodd;stroke:#000000;fill:#b95a1e;" d="M779.41,912.6s-0.12,103.6,0,179.2c0.12,75.7,19.82,104.9,54.26,103.6s41.11-58.8,34.53-92.1c-6.58-33.2-53.24-198.93-53.24-198.93l-35.55,8.23z" transform="matrix(6.308398e-2,-4.073591e-2,3.863361e-2,6.651678e-2,712.0953,209.8693)"/>
<path id="path576" style="stroke-width:4.375;fill-rule:evenodd;stroke:#000000;fill:#b95a1e;" d="M779.41,912.6s-0.12,103.6,0,179.2c0.12,75.7,19.82,104.9,54.26,103.6s41.11-58.8,34.53-92.1c-6.58-33.2-53.24-198.93-53.24-198.93l-35.55,8.23z" transform="matrix(7.236112e-2,-1.619858e-2,1.53626e-2,7.629874e-2,725.1523,182.3482)"/>
<path id="path575" style="stroke-width:4.375;fill-rule:evenodd;stroke:#000000;fill:#b95a1e;" d="M779.41,912.6s-0.12,103.6,0,179.2c0.12,75.7,19.82,104.9,54.26,103.6s41.11-58.8,34.53-92.1c-6.58-33.2-53.24-198.93-53.24-198.93l-35.55,8.23z" transform="matrix(7.39739e-2,0,0,7.799929e-2,736.2345,168.4202)"/>
<path id="path574" style="stroke-width:5.55368996;fill-rule:evenodd;stroke:#000000;fill:#b95a1e;" d="M779.53,255.12c159.57-1.4,177.16-35.43,177.16-35.43s35.43-70.87,17.72-88.59c-17.72-17.71-194.88-17.71-194.88-17.71v141.73z" transform="matrix(4.59062e-2,0,0,7.799929e-2,758.114,219.5496)"/>
<path id="path570" style="stroke-width:4.375;fill-rule:evenodd;stroke:#000000;fill:#b95a1e;" d="M779.53,255.12c106.3,0,124.01-35.43,124.01-35.43s35.43-70.87,17.72-88.59c-17.72-17.71-141.73-17.71-141.73-17.71v141.73z" transform="matrix(7.39739e-2,0,0,7.799929e-2,736.2344,214.0221)"/>
<path id="path569" style="stroke-width:4.375;fill-rule:evenodd;stroke:#000000;fill:#b95a1e;" d="M779.53,255.12c88.58,0,141.73-35.44,141.73-35.44s35.43-70.86,17.72-88.58c-17.72-17.72-159.45-17.71-159.45-17.71v141.73z" transform="matrix(7.39739e-2,0,0,7.799929e-2,736.2344,208.4946)"/>
<path id="path554" style="stroke-width:3.92723989;fill-rule:evenodd;stroke:#000000;fill:#b95a1e;" d="M832.68,113.39s70.86-88.587,194.92-177.17c124-88.58,213.7-156.72,230.3-141.73,0,17.71-106.3,106.3-194.9,177.16-88.59,70.866-194.89,177.17-194.89,177.17l-35.43-35.43z" transform="matrix(9.180368e-2,0,0,7.799929e-2,721.8746,168.5821)"/>
<path id="path557" style="stroke-width:3.92723989;fill-rule:evenodd;stroke:#000000;fill:#b95a1e;" d="M832.68,113.39s70.05-52.029,204.42-124.02c132.2-63.918,318.9-53.15,318.9-35.433-17.8,17.717-177.2,17.717-283.5,70.866-101.48,50.732-204.39,124.02-204.39,124.02l-35.43-35.43z" transform="matrix(9.180368e-2,0,0,7.799929e-2,722.6294,174.1096)"/>
<path id="path558" style="stroke-width:3.92723989;fill-rule:evenodd;stroke:#000000;fill:#b95a1e;" d="M832.68,113.39s61.67-35.072,204.42-88.587c141.7-53.149,329.8-17.716,329.8,0-17.7,17.717-170.4,6.948-276.7,35.433-109.99,27.758-222.09,88.584-222.09,88.584l-35.43-35.43z" transform="matrix(9.180368e-2,0,0,7.799929e-2,722.6986,183.628)"/>
<path id="path559" style="stroke-width:3.92723989;fill-rule:evenodd;stroke:#000000;fill:#b95a1e;" d="M832.68,113.39s71.08-70.98,222.52-88.587c152.3-17.716,276.3,88.587,276.3,106.3-17.7,17.72-159.5-77.972-265.7-64.286-112.67,13.654-197.69,82.006-197.69,82.006l-35.43-35.43z" transform="matrix(9.180368e-2,0,0,7.799929e-2,723.317,193.294)"/>
<path id="path568" style="stroke-width:4.375;fill-rule:evenodd;stroke:#000000;fill:#b95a1e;" d="M779.53,255.12c159.57-1.4,159.45-45.51,159.45-45.51s35.43-70.87,17.71-88.58c-17.71-17.72-177.16-7.64-177.16-7.64v141.73z" transform="matrix(7.39739e-2,0,0,7.799929e-2,736.2344,201.5853)"/>
<path id="path567" style="stroke-width:4.375;fill-rule:evenodd;stroke:#000000;fill:#b95a1e;" d="M779.53,255.12c159.57-1.4,177.16-35.43,177.16-35.43s35.43-70.87,17.72-88.59c-17.72-17.71-194.88-17.71-194.88-17.71v141.73z" transform="matrix(7.39739e-2,0,0,7.799929e-2,736.2344,196.0577)"/>
<path id="path565" style="stroke-width:4.375;fill-rule:evenodd;stroke:#000000;fill:#b95a1e;" d="M779.53,255.12c159.57-1.4,194.88-35.44,194.88-35.44s35.39-70.86,17.72-88.58c-17.72-17.71-212.6-17.71-212.6-17.71v141.73z" transform="matrix(7.39739e-2,0,0,7.799929e-2,736.2344,189.1483)"/>
<path id="path566" style="stroke-width:4.375;fill-rule:evenodd;stroke:#000000;fill:#b95a1e;" d="M779.53,255.12c159.57-1.4,212.6-35.44,212.6-35.44s17.67-70.86,0-88.58c-17.72-17.71-212.6-17.71-212.6-17.71v141.73z" transform="matrix(7.39739e-2,0,0,7.799929e-2,736.2345,182.239)"/>
<path id="path560" style="stroke-width:3.92723989;fill-rule:evenodd;stroke:#000000;fill:#b95a1e;" d="M832.68,113.39s114.2-88.587,114.2-159.45c0-70.867-50.35-141.74-64.62-177.17,28.55,0,93.17,106.3,93.17,177.17,0,77.444-107.32,194.88-107.32,194.88l-35.43-35.43z" transform="matrix(9.180368e-2,0,0,7.799929e-2,720.0775,162.8927)"/>
<path id="path561" style="stroke-width:3.92723989;fill-rule:evenodd;stroke:#000000;fill:#b95a1e;" d="M832.68,113.39s-14.28-53.154-14.28-159.45c0-124.02,63-202.9,85.66-230.32,5.89,27.42-57.11,124.02-57.11,230.32,0,77.444,21.16,194.88,21.16,194.88l-35.43-35.43z" transform="matrix(9.180368e-2,0,0,7.799929e-2,720.0775,162.8927)"/>
<path id="path564" style="stroke-width:4.375;fill-rule:evenodd;stroke:#000000;fill:#b95a1e;" d="M779.53,255.12c159.57-1.4,212.6-35.44,212.6-35.44s0-70.86-17.72-88.58c-17.72-17.71-194.88-17.71-194.88-17.71v141.73z" transform="matrix(7.39739e-2,0,0,7.799929e-2,736.2344,175.3296)"/>
<path id="path563" style="stroke-width:4.375;fill-rule:evenodd;stroke:#000000;fill:#b95a1e;" d="M779.53,255.12c159.57-1.4,194.88-35.44,194.88-35.44s0-70.86-17.72-88.58c-17.71-17.71-177.16-17.71-177.16-17.71v141.73z" transform="matrix(7.39739e-2,0,0,7.799929e-2,736.2345,168.4202)"/>
<path id="path553" style="fill-rule:evenodd;stroke:#fdc301;stroke-dasharray:none;stroke-width:11.0255003;fill:#b95a1e;" d="M318.9,1318.1c55.06-122.3,70.86-336.6,70.86-372.04,0-99.78-32.94-585.1-35.43-779.52-2.48-194.43,124.02-301.19,248.03-301.19,106.3,0,177.17,70.87,177.17,177.17h-53.15c0-70.866-53.15-124.02-124.02-124.02-106.3,0-187.99,83.739-194.88,248.04-7.6,189.88,21.32,682.94,17.72,814.96-3.6,132-51.24,249.7-106.3,336.6z" transform="matrix(-7.39739e-2,0,0,7.799929e-2,851.564,168.4202)"/>
<path id="path578" style="stroke-width:4.375;fill-rule:evenodd;stroke:#000000;fill:#b95a1e;" d="M779.41,912.6s-0.12,103.6,0,179.2c0.12,75.7,19.82,104.9,54.26,103.6s41.11-58.8,34.53-92.1c-6.58-33.2-53.24-198.93-53.24-198.93l-35.55,8.23z" transform="matrix(-6.308398e-2,-4.073591e-2,-3.863361e-2,6.651678e-2,875.6903,209.8693)"/>
<path id="path562" style="stroke-width:4.375;fill-rule:evenodd;stroke:#000000;fill:#b95a1e;" d="M779.53,32.884c124.13,0.141,177.77,102.39,177.46,100.31l-35.73,33.35c-18.98,17.71-141.73,17.71-140.21,17.62l-1.52-151.28z" transform="matrix(7.39739e-2,0,0,7.799929e-2,736.2345,168.4202)"/>
<path id="path579" style="stroke-width:4.375;fill-rule:evenodd;stroke:#000000;fill:#b95a1e;" d="M779.41,912.6s-0.12,103.6,0,179.2c0.12,75.7,19.82,104.9,54.26,103.6s41.11-58.8,34.53-92.1c-6.58-33.2-53.24-198.93-53.24-198.93l-35.55,8.23z" transform="matrix(-7.236112e-2,-1.619858e-2,-1.53626e-2,7.629874e-2,862.6333,182.3482)"/>
<path id="path580" style="stroke-width:4.375;fill-rule:evenodd;stroke:#000000;fill:#b95a1e;" d="M779.41,912.6s-0.12,103.6,0,179.2c0.12,75.7,19.82,104.9,54.26,103.6s41.11-58.8,34.53-92.1c-6.58-33.2-53.24-198.93-53.24-198.93l-35.55,8.23z" transform="matrix(-7.39739e-2,0,0,7.799929e-2,851.5511,168.4202)"/>
<path id="path581" style="stroke-width:5.55368996;fill-rule:evenodd;stroke:#000000;fill:#b95a1e;" d="M779.53,255.12c159.57-1.4,177.16-35.43,177.16-35.43s35.43-70.87,17.72-88.59c-17.72-17.71-194.88-17.71-194.88-17.71v141.73z" transform="matrix(-4.59062e-2,0,0,7.799929e-2,829.6716,219.5496)"/>
<path id="path582" style="stroke-width:4.375;fill-rule:evenodd;stroke:#000000;fill:#b95a1e;" d="M779.53,255.12c106.3,0,124.01-35.43,124.01-35.43s35.43-70.87,17.72-88.59c-17.72-17.71-141.73-17.71-141.73-17.71v141.73z" transform="matrix(-7.39739e-2,0,0,7.799929e-2,851.5511,214.0221)"/>
<path id="path583" style="stroke-width:4.375;fill-rule:evenodd;stroke:#000000;fill:#b95a1e;" d="M779.53,255.12c88.58,0,141.73-35.44,141.73-35.44s35.43-70.86,17.72-88.58c-17.72-17.72-159.45-17.71-159.45-17.71v141.73z" transform="matrix(-7.39739e-2,0,0,7.799929e-2,851.5511,208.4946)"/>
<path id="path584" style="stroke-width:3.92723989;fill-rule:evenodd;stroke:#000000;fill:#b95a1e;" d="M832.68,113.39s70.86-88.587,194.92-177.17c124-88.58,213.7-156.72,230.3-141.73,0,17.71-106.3,106.3-194.9,177.16-88.59,70.866-194.89,177.17-194.89,177.17l-35.43-35.43z" transform="matrix(-9.180368e-2,0,0,7.799929e-2,865.9109,168.5821)"/>
<path id="path585" style="stroke-width:3.92723989;fill-rule:evenodd;stroke:#000000;fill:#b95a1e;" d="M832.68,113.39s70.05-52.029,204.42-124.02c132.2-63.918,318.9-53.15,318.9-35.433-17.8,17.717-177.2,17.717-283.5,70.866-101.48,50.732-204.39,124.02-204.39,124.02l-35.43-35.43z" transform="matrix(-9.180368e-2,0,0,7.799929e-2,865.1562,174.1096)"/>
<path id="path586" style="stroke-width:3.92723989;fill-rule:evenodd;stroke:#000000;fill:#b95a1e;" d="M832.68,113.39s61.67-35.072,204.42-88.587c141.7-53.149,329.8-17.716,329.8,0-17.7,17.717-170.4,6.948-276.7,35.433-109.99,27.758-222.09,88.584-222.09,88.584l-35.43-35.43z" transform="matrix(-9.180368e-2,0,0,7.799929e-2,865.087,183.628)"/>
<path id="path587" style="stroke-width:3.92723989;fill-rule:evenodd;stroke:#000000;fill:#b95a1e;" d="M832.68,113.39s71.08-70.98,222.52-88.587c152.3-17.716,276.3,88.587,276.3,106.3-17.7,17.72-159.5-77.972-265.7-64.286-112.67,13.654-197.69,82.006-197.69,82.006l-35.43-35.43z" transform="matrix(-9.180368e-2,0,0,7.799929e-2,864.4686,193.294)"/>
<path id="path588" style="stroke-width:4.375;fill-rule:evenodd;stroke:#000000;fill:#b95a1e;" d="M779.53,255.12c159.57-1.4,159.45-45.51,159.45-45.51s35.43-70.87,17.71-88.58c-17.71-17.72-177.16-7.64-177.16-7.64v141.73z" transform="matrix(-7.39739e-2,0,0,7.799929e-2,851.5511,201.5853)"/>
<path id="path589" style="stroke-width:4.375;fill-rule:evenodd;stroke:#000000;fill:#b95a1e;" d="M779.53,255.12c159.57-1.4,177.16-35.43,177.16-35.43s35.43-70.87,17.72-88.59c-17.72-17.71-194.88-17.71-194.88-17.71v141.73z" transform="matrix(-7.39739e-2,0,0,7.799929e-2,851.5511,196.0577)"/>
<path id="path590" style="stroke-width:4.375;fill-rule:evenodd;stroke:#000000;fill:#b95a1e;" d="M779.53,255.12c159.57-1.4,194.88-35.44,194.88-35.44s35.39-70.86,17.72-88.58c-17.72-17.71-212.6-17.71-212.6-17.71v141.73z" transform="matrix(-7.39739e-2,0,0,7.799929e-2,851.5511,189.1483)"/>
<path id="path591" style="stroke-width:4.375;fill-rule:evenodd;stroke:#000000;fill:#b95a1e;" d="M779.53,255.12c159.57-1.4,212.6-35.44,212.6-35.44s17.67-70.86,0-88.58c-17.72-17.71-212.6-17.71-212.6-17.71v141.73z" transform="matrix(-7.39739e-2,0,0,7.799929e-2,851.5511,182.239)"/>
<path id="path592" style="stroke-width:3.92723989;fill-rule:evenodd;stroke:#000000;fill:#b95a1e;" d="M832.68,113.39s114.2-88.587,114.2-159.45c0-70.867-50.35-141.74-64.62-177.17,28.55,0,93.17,106.3,93.17,177.17,0,77.444-107.32,194.88-107.32,194.88l-35.43-35.43z" transform="matrix(-9.180368e-2,0,0,7.799929e-2,867.7081,162.8927)"/>
<path id="path593" style="stroke-width:3.92723989;fill-rule:evenodd;stroke:#000000;fill:#b95a1e;" d="M832.68,113.39s-14.28-53.154-14.28-159.45c0-124.02,63-202.9,85.66-230.32,5.89,27.42-57.11,124.02-57.11,230.32,0,77.444,21.16,194.88,21.16,194.88l-35.43-35.43z" transform="matrix(-9.180368e-2,0,0,7.799929e-2,867.7081,162.8927)"/>
<path id="path594" style="stroke-width:4.375;fill-rule:evenodd;stroke:#000000;fill:#b95a1e;" d="M779.53,255.12c159.57-1.4,212.6-35.44,212.6-35.44s0-70.86-17.72-88.58c-17.72-17.71-194.88-17.71-194.88-17.71v141.73z" transform="matrix(-7.39739e-2,0,0,7.799929e-2,851.5511,175.3296)"/>
<path id="path595" style="stroke-width:4.375;fill-rule:evenodd;stroke:#000000;fill:#b95a1e;" d="M779.53,255.12c159.57-1.4,194.88-35.44,194.88-35.44s0-70.86-17.72-88.58c-17.71-17.71-177.16-17.71-177.16-17.71v141.73z" transform="matrix(-7.39739e-2,0,0,7.799929e-2,851.5511,168.4202)"/>
<path id="path597" style="fill-rule:evenodd;stroke:#fdc301;stroke-dasharray:none;stroke-width:11.0255003;fill:#b95a1e;" d="M318.9,1318.1c55.06-122.3,70.86-336.6,70.86-372.04,0-99.78-32.94-585.1-35.43-779.52-2.48-194.43,124.02-301.19,248.03-301.19,106.3,0,177.17,70.87,177.17,177.17h-53.15c0-70.866-53.15-124.02-124.02-124.02-106.3,0-187.99,83.739-194.88,248.04-7.6,189.88,21.32,682.94,17.72,814.96-3.6,132-51.24,249.7-106.3,336.6z" transform="matrix(7.39739e-2,0,0,7.799929e-2,736.2217,168.4202)"/>
<path id="path596" style="stroke-width:4.375;fill-rule:evenodd;stroke:#000000;fill:#b95a1e;" d="M779.53,32.884c124.13,0.141,177.77,102.39,177.46,100.31l-35.73,33.35c-18.98,17.71-141.73,17.71-140.21,17.62l-1.52-151.28z" transform="matrix(-7.39739e-2,0,0,7.799929e-2,851.5511,168.4202)"/>
</g>
</g>
<g id="g1690" transform="matrix(1.199999,0,0,1.199999,0,9.513979e-5)">
<rect id="rect3207" style="fill-rule:evenodd;fill:#00247d;" height="250" width="500" y="-1.1369E-13" x="0"/>
<g id="g878" style="font-size:12px;" transform="matrix(8.333338,0,0,8.333343,0,-2.256992e-4)">
<path id="path879" style="fill:#ffffff;" d="M0,0v3.3541l53.292,26.646h6.708v-3.354l-53.292-26.646h-6.7082zm60,0v3.354l-53.292,26.646h-6.7082v-3.354l53.292-26.646h6.708z"/>
<path id="path880" style="fill:#ffffff;" d="M25,0v30h10v-30h-10zm-25,10v10h60v-10h-60z"/>
<path id="path881" style="fill:#cf142b;" d="M0,12v6h60v-6h-60zm27-12v30h6v-30h-6z"/>
<path id="path882" style="fill:#cf142b;" d="M0,30l20-10h4.472l-20,10h-4.4721zm0-30l20,10h-4.472l-15.528-7.7639v-2.2361zm35.528,10l20-10h4.472l-20,10h-4.472zm24.472,20l-20-10h4.472l15.528,7.764v2.236z"/>
</g>
</g>
</svg>
