<?xml version="1.0" encoding="UTF-8" standalone="no"?>
<svg id="svg2" xmlns:rdf="http://www.w3.org/1999/02/22-rdf-syntax-ns#" xmlns="http://www.w3.org/2000/svg" height="600" width="1200" version="1.1" xmlns:cc="http://creativecommons.org/ns#" xmlns:xlink="http://www.w3.org/1999/xlink" viewBox="0 0 1400 700" xmlns:dc="http://purl.org/dc/elements/1.1/">
<metadata id="metadata46">
<rdf:RDF>
<cc:Work rdf:about="">
<dc:format>image/svg+xml</dc:format>
<dc:type rdf:resource="http://purl.org/dc/dcmitype/StillImage"/>
<dc:title>Flag of Tajikistan</dc:title>
</cc:Work>
</rdf:RDF>
</metadata>
<title id="title4">Flag of Tajikistan</title>
<rect id="rect6" width="1400" height="700" fill="#060"/>
<rect id="rect8" width="1400" height="500" fill="#fff"/>
<rect id="rect10" width="1400" height="200" fill="#c00"/>
<g id="g12" fill="#f8c300">
<path id="path14" d="M672,340.7a12.5,12.5,0,0,1,23.3,5.9v50h9.4v-50a12.5,12.5,0,0,1,23.3,-5.9,29.5,29.5,0,1,0,-56,0"/>
<path id="path16" d="M678.7,327.65a20,20,0,0,1,21.3,9.55,20,20,0,0,1,21.3,-9.55,21.5,21.5,0,0,0,-42.6,0" fill="#fff"/>
<path id="w" d="M695.3,376.63a38,38,0,0,1,-63.845,24.316,39.5,39.5,0,0,1,-59.734,17.467c3.6496,36.426,58.252,28.989,62.32-6.4288,17.154,30.115,54.873,21.49,65.91-15.4z"/>
<use id="use19" xlink:href="#w" transform="translate(700,0) scale(-1,1) translate(-700,0)"/>
<path id="r" d="M658.84,441.31c-7.6181,16.446-22.845,19.271-36.164,5.9953,0,0,5.3539-3.7831,11.086-4.826-1.0748-4.5744,1.1291-10.902,4.2354-14.324,3.2575,2.2264,7.8036,6.6886,8.9598,11.874,8.0291-1.0394,11.883,1.2815,11.883,1.2815z"/>
<use id="use22" xlink:href="#r" transform="rotate(9.37, 700,804)"/>
<use id="use24" xlink:href="#r" transform="rotate(18.74, 700,804)"/>
<path id="path26" stroke="#f8c300" stroke-width="16" d="M603,478a340,340,0,0,1,194,0" fill="none"/>
<g id="g28" transform="translate(700,380)">
<g id="g30" transform="translate(0,-140)">
<polygon id="s" points="0,-513670,301930,415570,-488530,-158730,488530,-158730,-301930,415570" transform="scale(0.000048669)"/>
</g>
<g id="h">
<use id="use34" xlink:href="#s" transform="rotate(-30) translate(0,-140) rotate(30)"/>
<use id="use36" xlink:href="#s" transform="rotate(-60) translate(0,-140) rotate(60)"/>
<use id="use38" xlink:href="#s" transform="rotate(-90) translate(0,-140) rotate(90)"/>
</g>
<use id="use40" xlink:href="#h" transform="scale(-1,1)"/>
</g>
</g>
</svg>
