<?xml version="1.0" encoding="UTF-8" standalone="no"?>
<!-- Created with Inkscape (http://www.inkscape.org/) -->
<svg id="svg2" xmlns:rdf="http://www.w3.org/1999/02/22-rdf-syntax-ns#" xmlns="http://www.w3.org/2000/svg" viewBox="0 0 1800 900" version="1.1" xmlns:cc="http://creativecommons.org/ns#" xmlns:xlink="http://www.w3.org/1999/xlink" xmlns:dc="http://purl.org/dc/elements/1.1/">
<metadata id="metadata25">
<rdf:RDF>
<cc:Work rdf:about="">
<dc:format>image/svg+xml</dc:format>
<dc:type rdf:resource="http://purl.org/dc/dcmitype/StillImage"/>
<dc:title/>
</cc:Work>
</rdf:RDF>
</metadata>
<defs id="defs4">
<g id="Pentagram">
<g id="Arm" transform="translate(0,-0.324925)">
<path id="path14" d="M0,0,0,0.5,1,0z"/>
<path id="path16" d="M0,0,0-0.5,1,0z" transform="matrix(0.80901699,-0.58778525,0.58778525,0.80901699,0.19098301,0.58778525)"/>
</g>
<use id="use18" xlink:href="#Arm" transform="scale(-1,1)" height="600" width="1200" y="0" x="0"/>
<use id="use20" xlink:href="#Arm" transform="matrix(0.30901699,0.95105652,-0.95105652,0.30901699,0,0)" height="600" width="1200" y="0" x="0"/>
<use id="use22" xlink:href="#Arm" transform="matrix(0.30901699,-0.95105652,0.95105652,0.30901699,0,0)" height="600" width="1200" y="0" x="0"/>
<use id="use24" xlink:href="#Arm" transform="matrix(-0.30901699,0.95105652,0.95105652,0.30901699,0,0)" height="600" width="1200" y="0" x="0"/>
</g>
</defs>
<rect id="rect26" style="fill:#00247d;" height="900" width="1800" y="0" x="0"/>
<path id="path3067" style="fill:#fed100;" d="M329.38,777.27c-17.94-0.15,168.62-99.44,324.77-226.6,204.64-166.67,645.35-433.51,774.95-476.88,13.543-4.5322-27.776,23.073-33.14,32.015-138.34,163.74-27.925,472.72,144.97,628.05,51.99,39.763,49.327,41.851,145.71,45.746v9l-1357.3-11.34z"/>
<path id="path4108" style="fill:#fed100;" d="m318.13,795.32s-13.163,9.4029-13.125,16.406c0.043,7.7725,14.766,18.047,14.766,18.047l1338.7,14.766,24.609-16.406-34.453-21.328-1330.5-11.484z"/>
<use id="use4022" style="fill:#ffffff;" xlink:href="#Pentagram" transform="matrix(45,0,0,45,342.9565,112.5812)" height="600" width="1200" y="0" x="0"/>
<use id="use4029" style="fill:#ffffff;" xlink:href="#Pentagram" transform="matrix(37.5,1.1682486e-6,-1.1682486e-6,37.5,521.20459,267.53)" height="600" width="1200" y="0" x="0"/>
<use id="use4034" style="fill:#ffffff;" xlink:href="#Pentagram" transform="matrix(45,1.4854021e-6,-1.4854021e-6,45,135.00004,321.8075)" height="600" width="1200" y="0" x="0"/>
<use id="use4039" style="fill:#ffffff;" xlink:href="#Pentagram" transform="matrix(52.5,0,0,52.5,342.9565,652.5812)" height="600" width="1200" y="0" x="0"/>
</svg>
