<?xml version="1.0" encoding="UTF-8" standalone="no"?>
<svg id="svg2" xmlns:rdf="http://www.w3.org/1999/02/22-rdf-syntax-ns#" xmlns="http://www.w3.org/2000/svg" viewBox="0 0 1000 500" version="1.0" xmlns:cc="http://creativecommons.org/ns#" xmlns:xlink="http://www.w3.org/1999/xlink" xmlns:dc="http://purl.org/dc/elements/1.1/">
<metadata id="metadata4">
<rdf:RDF>
<cc:Work rdf:about="">
<dc:format>image/svg+xml</dc:format>
<dc:type rdf:resource="http://purl.org/dc/dcmitype/StillImage"/>
<dc:title/>
</cc:Work>
</rdf:RDF>
</metadata>
<defs id="defs6">
<clipPath id="p">
<path id="path9" d="M300,150h300v150zv150h-300zh-300v-150zv-150h300z"/>
</clipPath>
<clipPath id="q">
<rect id="rect12" width="600" height="300"/>
</clipPath>
<g id="s" transform="scale(1.0079285,1.0079285)">
<polygon id="polygon15" style="fill:#ffce00;" points="511.95,324.28,533.78,256.9,555.61,324.28,626.44,324.23,569.1,365.81,591.04,433.16,533.77,391.48,476.5,433.15,498.45,365.81,441.12,324.21" transform="matrix(0.42409132,0,0,0.42496543,32.937915,19.240824)"/>
</g>
</defs>
<rect id="rect17" width="1000" style="fill:#5b97b1;" height="500"/>
<g id="g19" transform="scale(0.8333333333,0.8333333333)">
<rect id="rect21" width="600" style="fill:#00247d;" height="300"/>
<g id="g23" style="stroke:#ffffff;stroke-width:60;fill:none;">
<path id="path25" d="M0,0l600,300m0-300l-600,300" clip-path="url(#q)"/>
<path id="path27" style="stroke:#cf142b;stroke-width:40;" d="M0,0l600,300m0-300l-600,300" clip-path="url(#p)"/>
<path id="path29" style="stroke-width:100;" d="M300,0v300m-300-150h600"/>
<path id="path31" style="stroke:#cf142b;" d="M300,0v300m-300-150h600"/>
</g>
</g>
<use id="use33" y="-98.259903" x="657.66272" xlink:href="#s"/>
<use id="use35" y="153.87309" x="569.00061" xlink:href="#s"/>
<use id="use37" y="96.796822" x="657.66278" xlink:href="#s"/>
<use id="use39" y="279.6626" x="276.41541" xlink:href="#s"/>
<use id="use41" xlink:href="#s" transform="matrix(-1,0,0,-1,918.05558,489.94217)"/>
<use id="use43" xlink:href="#s" transform="matrix(-1,0,0,-1,1023.0596,344.72386)"/>
<use id="use45" xlink:href="#s" transform="matrix(-1,0,0,-1,1111.3077,314.56311)"/>
<use id="use47" xlink:href="#s" transform="matrix(-1,0,0,-1,1023.0596,565.90248)"/>
<use id="use49" xlink:href="#s" transform="matrix(-1,0,0,-1,918.05558,591.59488)"/>
</svg>
