<?xml version="1.0" encoding="UTF-8" standalone="no"?>
<svg id="svg2" xmlns:rdf="http://www.w3.org/1999/02/22-rdf-syntax-ns#" xmlns="http://www.w3.org/2000/svg" height="600" width="900" version="1.1" xmlns:cc="http://creativecommons.org/ns#" xmlns:xlink="http://www.w3.org/1999/xlink" viewBox="-5 -5 27 18" xmlns:dc="http://purl.org/dc/elements/1.1/">
<metadata id="metadata56">
<rdf:RDF>
<cc:Work rdf:about="">
<dc:format>image/svg+xml</dc:format>
<dc:type rdf:resource="http://purl.org/dc/dcmitype/StillImage"/>
<dc:title>Flag of Uruguay</dc:title>
</cc:Work>
</rdf:RDF>
</metadata>
<title id="title4">Flag of Uruguay</title>
<rect id="rect6" height="18" width="27" y="-5" x="-5" fill="#fff"/>
<g id="g8" fill="#0038a8">
<rect id="rect10" y="-3" x="5" height="2" width="17"/>
<rect id="rect12" y="1" x="5" height="2" width="17"/>
<rect id="rect14" y="5" x="-5" height="2" width="27"/>
<rect id="rect16" y="9" x="-5" height="2" width="27"/>
</g>
<g id="g18" transform="scale(0.11)" stroke="#000" stroke-miterlimit="20" stroke-width="0.6" fill="#fcd116">
<g id="u">
<g id="t">
<g id="s">
<g id="g23" transform="rotate(22.5)">
<path id="path25" stroke-linecap="square" d="M1.5,9,6,12c-8,13,1,15-6,21,3-7-3-5-3-17"/>
<path id="path27" d="M0,11c-2,13,4.5,17,0,22" fill="none"/>
</g>
<path id="path29" d="M0,0h6l-6,33-6-33h6v33"/>
</g>
<use id="use31" xlink:href="#s" transform="rotate(45)"/>
</g>
<use id="use33" xlink:href="#t" transform="rotate(90)"/>
</g>
<use id="use35" xlink:href="#u" transform="rotate(180)"/>
<circle id="circle37" r="11" d="M 11,0 C 11,6.0751322 6.0751322,11 0,11 -6.0751322,11 -11,6.0751322 -11,0 c 0,-6.0751322 4.9248678,-11 11,-11 6.0751322,0 11,4.9248678 11,11 z"/>
</g>
<g id="g39" transform="scale(0.011)">
<g id="right">
<path id="path42" d="M81-44c-7,8-11-6-36-6s-29,15-33,12,21-21,29-22,31,7,40,16m-29,9c7,6,1,19-6,19s-20-12-14-20"/>
<path id="path44" d="M19-26c1-12,11-14,27-14s23,12,29,15c-7,0-13-10-29-10s-16,0-27,10m3,2c4-6,9,6,20,6s17-3,24-8-10,12-21,12-26-6-23-10"/>
<path id="path46" d="M56-17c13-7,5-17,0-19,2,2,10,12,0,19m-56,60c6,0,8-2,16-2s27,11,38,7c-23,9-14,3-54,3h-5m63,6c-4-7-3-5-11-16,8,6,10,9,11,16m-58,10c25,0,21-5,54-19-24,3-29,11-54,11h-5m5-29c7,0,9-5,17-5s19,3,24,7c1,1-3-8-11-9s-5-14-14-16c0,4,3,3,4,9,0,5-9,5-11,0,2,8-4,8-9,8"/>
</g>
<use id="use48" xlink:href="#right" transform="scale(-1,1)"/>
<path id="path50" d="M0,76c-5,0-18,3,0,3s5-3,0-3"/>
</g>
</svg>
