<?xml version="1.0" encoding="UTF-8" standalone="no"?>
<!-- Created with Inkscape (http://www.inkscape.org/) -->
<svg id="svg559" xmlns:rdf="http://www.w3.org/1999/02/22-rdf-syntax-ns#" xmlns="http://www.w3.org/2000/svg" viewBox="0 0 1000 500" version="1.0" y="0" x="0" xmlns:cc="http://creativecommons.org/ns#" xmlns:xlink="http://www.w3.org/1999/xlink" xmlns:dc="http://purl.org/dc/elements/1.1/">
<metadata id="metadata1572">
<rdf:RDF>
<cc:Work rdf:about="">
<dc:title/>
<dc:description/>
<dc:subject>
<rdf:Bag>
<rdf:li/>
<rdf:li>united_kingdom</rdf:li>
<rdf:li>flags</rdf:li>
<rdf:li>caribbean</rdf:li>
<rdf:li>america</rdf:li>
<rdf:li>signs_and_symbols</rdf:li>
<rdf:li>sign</rdf:li>
</rdf:Bag>
</dc:subject>
<dc:publisher>
<cc:Agent rdf:about="http://www.openclipart.org">
<dc:title>Tobias Jakobs</dc:title>
</cc:Agent>
</dc:publisher>
<dc:creator>
<cc:Agent>
<dc:title>Tobias Jakobs</dc:title>
</cc:Agent>
</dc:creator>
<dc:rights>
<cc:Agent>
<dc:title>Tobias Jakobs</dc:title>
</cc:Agent>
</dc:rights>
<dc:date/>
<dc:format>image/svg+xml</dc:format>
<dc:type rdf:resource="http://purl.org/dc/dcmitype/StillImage"/>
<cc:license rdf:resource="http://web.resource.org/cc/PublicDomain"/>
<dc:language>en</dc:language>
</cc:Work>
<cc:License rdf:about="http://web.resource.org/cc/PublicDomain">
<cc:permits rdf:resource="http://web.resource.org/cc/Reproduction"/>
<cc:permits rdf:resource="http://web.resource.org/cc/Distribution"/>
<cc:permits rdf:resource="http://web.resource.org/cc/DerivativeWorks"/>
</cc:License>
</rdf:RDF>
</metadata>
<defs id="defs1574">
<linearGradient id="linearGradient570">
<stop id="stop571" style="stop-color:#ff0000;" offset="0"/>
<stop id="stop572" style="stop-color:#ffff00;" offset="1"/>
</linearGradient>
<linearGradient id="linearGradient2125" y2="107.76" xlink:href="#linearGradient570" gradientUnits="userSpaceOnUse" x2="92.551" gradientTransform="matrix(0.659766,0,0,1.491914,-3.680038,-0.673233)" y1="111.28" x1="103.08"/>
<linearGradient id="linearGradient2127" y2="107.76" xlink:href="#linearGradient570" gradientUnits="userSpaceOnUse" x2="92.551" gradientTransform="matrix(0.659766,0,0,1.491914,-3.675908,-0.451017)" y1="111.28" x1="103.08"/>
<linearGradient id="linearGradient2129" y2="107.76" xlink:href="#linearGradient570" gradientUnits="userSpaceOnUse" x2="92.551" gradientTransform="matrix(0.659766,0,0,1.491914,-4.456792,-0.24902)" y1="111.28" x1="103.08"/>
<linearGradient id="linearGradient2131" y2="107.76" xlink:href="#linearGradient570" gradientUnits="userSpaceOnUse" x2="92.551" gradientTransform="matrix(0.659766,0,0,1.491914,-3.694081,-3.301848e-2)" y1="111.28" x1="103.08"/>
<linearGradient id="linearGradient2133" y2="107.76" xlink:href="#linearGradient570" gradientUnits="userSpaceOnUse" x2="92.551" gradientTransform="matrix(0.659766,0,0,1.491914,-3.695734,0.179285)" y1="111.28" x1="103.08"/>
<linearGradient id="linearGradient2135" y2="107.76" xlink:href="#linearGradient570" gradientUnits="userSpaceOnUse" x2="92.551" gradientTransform="matrix(0.659766,0,0,1.491914,-3.699763,0.39469)" y1="111.28" x1="103.08"/>
<linearGradient id="linearGradient2137" y2="107.76" xlink:href="#linearGradient570" gradientUnits="userSpaceOnUse" x2="92.551" gradientTransform="matrix(0.659766,0,0,1.491914,-4.462633,0.391186)" y1="111.28" x1="103.08"/>
<linearGradient id="linearGradient2139" y2="107.76" xlink:href="#linearGradient570" gradientUnits="userSpaceOnUse" x2="92.551" gradientTransform="matrix(0.659766,0,0,1.491914,-4.455623,0.17973)" y1="111.28" x1="103.08"/>
<linearGradient id="linearGradient2141" y2="107.76" xlink:href="#linearGradient570" gradientUnits="userSpaceOnUse" x2="92.551" gradientTransform="matrix(0.659766,0,0,1.491914,-4.446278,-3.639848e-2)" y1="111.28" x1="103.08"/>
<linearGradient id="linearGradient2145" y2="107.76" xlink:href="#linearGradient570" gradientUnits="userSpaceOnUse" x2="92.551" gradientTransform="matrix(0.659766,0,0,1.491914,-4.454455,-0.461643)" y1="111.28" x1="103.08"/>
<linearGradient id="linearGradient2147" y2="107.76" xlink:href="#linearGradient570" gradientUnits="userSpaceOnUse" x2="92.551" gradientTransform="matrix(0.659766,0,0,1.491914,-3.833409,-0.262936)" y1="111.28" x1="103.08"/>
<linearGradient id="linearGradient2243" y2="107.76" xlink:href="#linearGradient570" gradientUnits="userSpaceOnUse" x2="92.551" gradientTransform="matrix(0.830118,0,0,1.877127,706.364,107.11)" y1="111.28" x1="103.08"/>
</defs>
<rect id="rect877" style="stroke-width:1pt;fill:#00247d;" height="500" width="1000" y="-0.00020946" x="0"/>
<path id="path824" style="fill-rule:evenodd;fill:#ffffff;" d="M646.88,120.06l208.67-0.78-0.39,185.83s7.36,28.26-87.49,71.23c34.07-3.48,71.23-39.87,71.23-39.87s15.1-19.36,22.46-8.52c7.35,10.84,14.32,16.26,19.74,20.52s9.68,15.87,1.55,24.39c-8.13,8.51-20.9,9.68-24.39-0.78-5.42,2.71-38.71,42.98-106.85,44.91-69.3-1.16-107.24-45.29-107.24-45.29s-9.29,14.71-22.45,3.09c-12.78-15.09-3.1-24.77-3.1-24.77s10.84-6.2,13.94-10.46c5.03-5.8,6.58-13.55,15.1-13.55,10.06,0.78,13.93,8.91,13.93,8.91s34.85,36.78,72.4,41.42c-84.78-40.65-87.88-65.81-87.49-72.01l0.38-184.27z"/>
<path id="path779" style="stroke-linejoin:miter;fill-rule:evenodd;stroke:#000000;stroke-linecap:butt;stroke-width:1.25820074pt;fill:#006129;" d="M651.92,125.09l198.99-1.16v178.86c0.38,23.22-38.72,46.84-99.89,77.04-63.1-32.52-99.49-52.27-99.88-77.43l0.78-177.31z"/>
<g id="g584" transform="matrix(1.258201,0,0,1.258201,588.0382,107.6081)">
<path id="path585" style="stroke-linejoin:miter;stroke:#f7c600;stroke-linecap:butt;stroke-width:1pt;fill:none;" d="M69.786,170.53l9.336-13.71,9.381,13.74"/>
<path id="path586" d="M80.922,156.72c0,0.95-0.763,1.71-1.706,1.71-0.942,0-1.706-0.76-1.705-1.71-0.001-0.94,0.763-1.7,1.705-1.7,0.943,0,1.706,0.76,1.706,1.7z" style="stroke-linejoin:miter;fill-rule:evenodd;stroke:#000000;stroke-linecap:butt;stroke-dasharray:none;stroke-width:0.57499999;fill:#f7c600;" transform="matrix(1.086991,0,0,1.087005,-6.965268,-4.956314)"/>
<path id="path587" style="stroke-linejoin:miter;fill-rule:evenodd;stroke:#000000;stroke-linecap:butt;stroke-dasharray:none;stroke-width:0.625;fill:#f7c600;" d="M71.541,180.66l14.473,0.04s0.227-1.88-1.512-3.02c7.581-1.04,5.611-7.73,11.96-8.11,1.232,0.19-3.316,2.84-3.316,2.84s-3.828,2.7-2.085,4.08c1.384,1.09,1.99-0.67,2.179-1.99,0.19-1.33,6.16-2.18,5.307-5.97-1.422-3.13-9.76,2.08-9.76,2.08l-5.949-0.03c-0.371-0.67-2.011-3.35-3.704-3.36-2.009,0.07-3.424,3.39-3.424,3.39h-8.622-4.833s-0.461,3.45,6.361,4.12c1.536,2,2.727,2.56,4.062,3.08-0.89,0.75-1.141,1.64-1.137,2.85z"/>
<path id="path588" style="stroke-linejoin:miter;stroke:#000000;stroke-linecap:butt;stroke-dasharray:none;stroke-width:0.625;fill:none;" d="M72.583,177.72l12.055-0.04"/>
<path id="path589" style="stroke-linejoin:miter;stroke:#000000;stroke-linecap:butt;stroke-dasharray:none;stroke-width:0.625;fill:none;" d="M67.062,170.61s0.965,5.64,5.416,6.97"/>
<path id="path590" style="stroke-linejoin:miter;fill-rule:evenodd;stroke:#000000;stroke-linecap:butt;stroke-dasharray:none;stroke-width:0.625;fill:url(#linearGradient2125);" d="M66.32,170.54c0.446-2.15,1.262-2.52,2.152-5.27,0.148-2.67-2.152-2.37-1.484-4.08,1.187-1.85,0.594-3.63-1.632-5.04,0.445,2.44-2.893,4.74-2.893,6.75,0,2,1.706,1.55,1.484,4.6,0.148,1.78-0.446,1.33-0.594,3.04h2.967z"/>
<path id="path591" d="M80.922,156.72c0,0.95-0.763,1.71-1.706,1.71-0.942,0-1.706-0.76-1.705-1.71-0.001-0.94,0.763-1.7,1.705-1.7,0.943,0,1.706,0.76,1.706,1.7z" style="stroke-linejoin:miter;fill-rule:evenodd;stroke:#000000;stroke-linecap:butt;stroke-dasharray:none;stroke-width:0.625;fill:#f7c600;" transform="translate(-7.418633e-2,0.445068)"/>
</g>
<g id="g592" transform="matrix(1.258201,0,0,1.258201,587.3782,72.09999)">
<path id="path593" style="stroke-linejoin:miter;stroke:#f7c600;stroke-linecap:butt;stroke-width:1pt;fill:none;" d="M69.786,170.53l9.336-13.71,9.381,13.74"/>
<path id="path594" d="M80.922,156.72c0,0.95-0.763,1.71-1.706,1.71-0.942,0-1.706-0.76-1.705-1.71-0.001-0.94,0.763-1.7,1.705-1.7,0.943,0,1.706,0.76,1.706,1.7z" style="stroke-linejoin:miter;fill-rule:evenodd;stroke:#000000;stroke-linecap:butt;stroke-dasharray:none;stroke-width:0.57499999;fill:#f7c600;" transform="matrix(1.086991,0,0,1.087005,-6.965268,-4.956314)"/>
<path id="path595" style="stroke-linejoin:miter;fill-rule:evenodd;stroke:#000000;stroke-linecap:butt;stroke-dasharray:none;stroke-width:0.625;fill:#f7c600;" d="M71.541,180.66l14.473,0.04s0.227-1.88-1.512-3.02c7.581-1.04,5.611-7.73,11.96-8.11,1.232,0.19-3.316,2.84-3.316,2.84s-3.828,2.7-2.085,4.08c1.384,1.09,1.99-0.67,2.179-1.99,0.19-1.33,6.16-2.18,5.307-5.97-1.422-3.13-9.76,2.08-9.76,2.08l-5.949-0.03c-0.371-0.67-2.011-3.35-3.704-3.36-2.009,0.07-3.424,3.39-3.424,3.39h-8.622-4.833s-0.461,3.45,6.361,4.12c1.536,2,2.727,2.56,4.062,3.08-0.89,0.75-1.141,1.64-1.137,2.85z"/>
<path id="path596" style="stroke-linejoin:miter;stroke:#000000;stroke-linecap:butt;stroke-dasharray:none;stroke-width:0.625;fill:none;" d="M72.583,177.72l12.055-0.04"/>
<path id="path597" style="stroke-linejoin:miter;stroke:#000000;stroke-linecap:butt;stroke-dasharray:none;stroke-width:0.625;fill:none;" d="M67.062,170.61s0.965,5.64,5.416,6.97"/>
<path id="path598" style="stroke-linejoin:miter;fill-rule:evenodd;stroke:#000000;stroke-linecap:butt;stroke-dasharray:none;stroke-width:0.625;fill:url(#linearGradient2127);" d="M66.32,170.54c0.446-2.15,1.262-2.52,2.152-5.27,0.148-2.67-2.152-2.37-1.484-4.08,1.187-1.85,0.594-3.63-1.632-5.04,0.445,2.44-2.893,4.74-2.893,6.75,0,2,1.706,1.55,1.484,4.6,0.148,1.78-0.446,1.33-0.594,3.04h2.967z"/>
<path id="path599" d="M80.922,156.72c0,0.95-0.763,1.71-1.706,1.71-0.942,0-1.706-0.76-1.705-1.71-0.001-0.94,0.763-1.7,1.705-1.7,0.943,0,1.706,0.76,1.706,1.7z" style="stroke-linejoin:miter;fill-rule:evenodd;stroke:#000000;stroke-linecap:butt;stroke-dasharray:none;stroke-width:0.625;fill:#f7c600;" transform="translate(-7.418633e-2,0.445068)"/>
</g>
<g id="g600" transform="matrix(1.258201,0,0,1.258201,712.1567,39.82279)">
<path id="path601" style="stroke-linejoin:miter;stroke:#f7c600;stroke-linecap:butt;stroke-width:1pt;fill:none;" d="M69.786,170.53l9.336-13.71,9.381,13.74"/>
<path id="path602" d="M80.922,156.72c0,0.95-0.763,1.71-1.706,1.71-0.942,0-1.706-0.76-1.705-1.71-0.001-0.94,0.763-1.7,1.705-1.7,0.943,0,1.706,0.76,1.706,1.7z" style="stroke-linejoin:miter;fill-rule:evenodd;stroke:#000000;stroke-linecap:butt;stroke-dasharray:none;stroke-width:0.57499999;fill:#f7c600;" transform="matrix(1.086991,0,0,1.087005,-6.965268,-4.956314)"/>
<path id="path603" style="stroke-linejoin:miter;fill-rule:evenodd;stroke:#000000;stroke-linecap:butt;stroke-dasharray:none;stroke-width:0.625;fill:#f7c600;" d="M71.541,180.66l14.473,0.04s0.227-1.88-1.512-3.02c7.581-1.04,5.611-7.73,11.96-8.11,1.232,0.19-3.316,2.84-3.316,2.84s-3.828,2.7-2.085,4.08c1.384,1.09,1.99-0.67,2.179-1.99,0.19-1.33,6.16-2.18,5.307-5.97-1.422-3.13-9.76,2.08-9.76,2.08l-5.949-0.03c-0.371-0.67-2.011-3.35-3.704-3.36-2.009,0.07-3.424,3.39-3.424,3.39h-8.622-4.833s-0.461,3.45,6.361,4.12c1.536,2,2.727,2.56,4.062,3.08-0.89,0.75-1.141,1.64-1.137,2.85z"/>
<path id="path604" style="stroke-linejoin:miter;stroke:#000000;stroke-linecap:butt;stroke-dasharray:none;stroke-width:0.625;fill:none;" d="M72.583,177.72l12.055-0.04"/>
<path id="path605" style="stroke-linejoin:miter;stroke:#000000;stroke-linecap:butt;stroke-dasharray:none;stroke-width:0.625;fill:none;" d="M67.062,170.61s0.965,5.64,5.416,6.97"/>
<path id="path606" style="stroke-linejoin:miter;fill-rule:evenodd;stroke:#000000;stroke-linecap:butt;stroke-dasharray:none;stroke-width:0.625;fill:url(#linearGradient2129);" d="M66.32,170.54c0.446-2.15,1.262-2.52,2.152-5.27,0.148-2.67-2.152-2.37-1.484-4.08,1.187-1.85,0.594-3.63-1.632-5.04,0.445,2.44-2.893,4.74-2.893,6.75,0,2,1.706,1.55,1.484,4.6,0.148,1.78-0.446,1.33-0.594,3.04h2.967z"/>
<path id="path607" d="M80.922,156.72c0,0.95-0.763,1.71-1.706,1.71-0.942,0-1.706-0.76-1.705-1.71-0.001-0.94,0.763-1.7,1.705-1.7,0.943,0,1.706,0.76,1.706,1.7z" style="stroke-linejoin:miter;fill-rule:evenodd;stroke:#000000;stroke-linecap:butt;stroke-dasharray:none;stroke-width:0.625;fill:#f7c600;" transform="translate(-7.418633e-2,0.445068)"/>
</g>
<g id="g608" transform="matrix(1.258201,0,0,1.258201,590.2822,5.307703)">
<path id="path609" style="stroke-linejoin:miter;stroke:#f7c600;stroke-linecap:butt;stroke-width:1pt;fill:none;" d="M69.786,170.53l9.336-13.71,9.381,13.74"/>
<path id="path610" d="M80.922,156.72c0,0.95-0.763,1.71-1.706,1.71-0.942,0-1.706-0.76-1.705-1.71-0.001-0.94,0.763-1.7,1.705-1.7,0.943,0,1.706,0.76,1.706,1.7z" style="stroke-linejoin:miter;fill-rule:evenodd;stroke:#000000;stroke-linecap:butt;stroke-dasharray:none;stroke-width:0.57499999;fill:#f7c600;" transform="matrix(1.086991,0,0,1.087005,-6.965268,-4.956314)"/>
<path id="path611" style="stroke-linejoin:miter;fill-rule:evenodd;stroke:#000000;stroke-linecap:butt;stroke-dasharray:none;stroke-width:0.625;fill:#f7c600;" d="M71.541,180.66l14.473,0.04s0.227-1.88-1.512-3.02c7.581-1.04,5.611-7.73,11.96-8.11,1.232,0.19-3.316,2.84-3.316,2.84s-3.828,2.7-2.085,4.08c1.384,1.09,1.99-0.67,2.179-1.99,0.19-1.33,6.16-2.18,5.307-5.97-1.422-3.13-9.76,2.08-9.76,2.08l-5.949-0.03c-0.371-0.67-2.011-3.35-3.704-3.36-2.009,0.07-3.424,3.39-3.424,3.39h-8.622-4.833s-0.461,3.45,6.361,4.12c1.536,2,2.727,2.56,4.062,3.08-0.89,0.75-1.141,1.64-1.137,2.85z"/>
<path id="path612" style="stroke-linejoin:miter;stroke:#000000;stroke-linecap:butt;stroke-dasharray:none;stroke-width:0.625;fill:none;" d="M72.583,177.72l12.055-0.04"/>
<path id="path613" style="stroke-linejoin:miter;stroke:#000000;stroke-linecap:butt;stroke-dasharray:none;stroke-width:0.625;fill:none;" d="M67.062,170.61s0.965,5.64,5.416,6.97"/>
<path id="path614" style="stroke-linejoin:miter;fill-rule:evenodd;stroke:#000000;stroke-linecap:butt;stroke-dasharray:none;stroke-width:0.625;fill:url(#linearGradient2131);" d="M66.32,170.54c0.446-2.15,1.262-2.52,2.152-5.27,0.148-2.67-2.152-2.37-1.484-4.08,1.187-1.85,0.594-3.63-1.632-5.04,0.445,2.44-2.893,4.74-2.893,6.75,0,2,1.706,1.55,1.484,4.6,0.148,1.78-0.446,1.33-0.594,3.04h2.967z"/>
<path id="path615" d="M80.922,156.72c0,0.95-0.763,1.71-1.706,1.71-0.942,0-1.706-0.76-1.705-1.71-0.001-0.94,0.763-1.7,1.705-1.7,0.943,0,1.706,0.76,1.706,1.7z" style="stroke-linejoin:miter;fill-rule:evenodd;stroke:#000000;stroke-linecap:butt;stroke-dasharray:none;stroke-width:0.625;fill:#f7c600;" transform="translate(-7.418633e-2,0.445068)"/>
</g>
<g id="g616" transform="matrix(1.258201,0,0,1.258201,590.5463,-28.61646)">
<path id="path617" style="stroke-linejoin:miter;stroke:#f7c600;stroke-linecap:butt;stroke-width:1pt;fill:none;" d="M69.786,170.53l9.336-13.71,9.381,13.74"/>
<path id="path618" d="M80.922,156.72c0,0.95-0.763,1.71-1.706,1.71-0.942,0-1.706-0.76-1.705-1.71-0.001-0.94,0.763-1.7,1.705-1.7,0.943,0,1.706,0.76,1.706,1.7z" style="stroke-linejoin:miter;fill-rule:evenodd;stroke:#000000;stroke-linecap:butt;stroke-dasharray:none;stroke-width:0.57499999;fill:#f7c600;" transform="matrix(1.086991,0,0,1.087005,-6.965268,-4.956314)"/>
<path id="path619" style="stroke-linejoin:miter;fill-rule:evenodd;stroke:#000000;stroke-linecap:butt;stroke-dasharray:none;stroke-width:0.625;fill:#f7c600;" d="M71.541,180.66l14.473,0.04s0.227-1.88-1.512-3.02c7.581-1.04,5.611-7.73,11.96-8.11,1.232,0.19-3.316,2.84-3.316,2.84s-3.828,2.7-2.085,4.08c1.384,1.09,1.99-0.67,2.179-1.99,0.19-1.33,6.16-2.18,5.307-5.97-1.422-3.13-9.76,2.08-9.76,2.08l-5.949-0.03c-0.371-0.67-2.011-3.35-3.704-3.36-2.009,0.07-3.424,3.39-3.424,3.39h-8.622-4.833s-0.461,3.45,6.361,4.12c1.536,2,2.727,2.56,4.062,3.08-0.89,0.75-1.141,1.64-1.137,2.85z"/>
<path id="path620" style="stroke-linejoin:miter;stroke:#000000;stroke-linecap:butt;stroke-dasharray:none;stroke-width:0.625;fill:none;" d="M72.583,177.72l12.055-0.04"/>
<path id="path621" style="stroke-linejoin:miter;stroke:#000000;stroke-linecap:butt;stroke-dasharray:none;stroke-width:0.625;fill:none;" d="M67.062,170.61s0.965,5.64,5.416,6.97"/>
<path id="path622" style="stroke-linejoin:miter;fill-rule:evenodd;stroke:#000000;stroke-linecap:butt;stroke-dasharray:none;stroke-width:0.625;fill:url(#linearGradient2133);" d="M66.32,170.54c0.446-2.15,1.262-2.52,2.152-5.27,0.148-2.67-2.152-2.37-1.484-4.08,1.187-1.85,0.594-3.63-1.632-5.04,0.445,2.44-2.893,4.74-2.893,6.75,0,2,1.706,1.55,1.484,4.6,0.148,1.78-0.446,1.33-0.594,3.04h2.967z"/>
<path id="path623" d="M80.922,156.72c0,0.95-0.763,1.71-1.706,1.71-0.942,0-1.706-0.76-1.705-1.71-0.001-0.94,0.763-1.7,1.705-1.7,0.943,0,1.706,0.76,1.706,1.7z" style="stroke-linejoin:miter;fill-rule:evenodd;stroke:#000000;stroke-linecap:butt;stroke-dasharray:none;stroke-width:0.625;fill:#f7c600;" transform="translate(-7.418633e-2,0.445068)"/>
</g>
<g id="g624" transform="matrix(1.258201,0,0,1.258201,591.1901,-63.03618)">
<path id="path625" style="stroke-linejoin:miter;stroke:#f7c600;stroke-linecap:butt;stroke-width:1pt;fill:none;" d="M69.786,170.53l9.336-13.71,9.381,13.74"/>
<path id="path626" d="M80.922,156.72c0,0.95-0.763,1.71-1.706,1.71-0.942,0-1.706-0.76-1.705-1.71-0.001-0.94,0.763-1.7,1.705-1.7,0.943,0,1.706,0.76,1.706,1.7z" style="stroke-linejoin:miter;fill-rule:evenodd;stroke:#000000;stroke-linecap:butt;stroke-dasharray:none;stroke-width:0.57499999;fill:#f7c600;" transform="matrix(1.086991,0,0,1.087005,-6.965268,-4.956314)"/>
<path id="path627" style="stroke-linejoin:miter;fill-rule:evenodd;stroke:#000000;stroke-linecap:butt;stroke-dasharray:none;stroke-width:0.625;fill:#f7c600;" d="M71.541,180.66l14.473,0.04s0.227-1.88-1.512-3.02c7.581-1.04,5.611-7.73,11.96-8.11,1.232,0.19-3.316,2.84-3.316,2.84s-3.828,2.7-2.085,4.08c1.384,1.09,1.99-0.67,2.179-1.99,0.19-1.33,6.16-2.18,5.307-5.97-1.422-3.13-9.76,2.08-9.76,2.08l-5.949-0.03c-0.371-0.67-2.011-3.35-3.704-3.36-2.009,0.07-3.424,3.39-3.424,3.39h-8.622-4.833s-0.461,3.45,6.361,4.12c1.536,2,2.727,2.56,4.062,3.08-0.89,0.75-1.141,1.64-1.137,2.85z"/>
<path id="path628" style="stroke-linejoin:miter;stroke:#000000;stroke-linecap:butt;stroke-dasharray:none;stroke-width:0.625;fill:none;" d="M72.583,177.72l12.055-0.04"/>
<path id="path629" style="stroke-linejoin:miter;stroke:#000000;stroke-linecap:butt;stroke-dasharray:none;stroke-width:0.625;fill:none;" d="M67.062,170.61s0.965,5.64,5.416,6.97"/>
<path id="path630" style="stroke-linejoin:miter;fill-rule:evenodd;stroke:#000000;stroke-linecap:butt;stroke-dasharray:none;stroke-width:0.625;fill:url(#linearGradient2135);" d="M66.32,170.54c0.446-2.15,1.262-2.52,2.152-5.27,0.148-2.67-2.152-2.37-1.484-4.08,1.187-1.85,0.594-3.63-1.632-5.04,0.445,2.44-2.893,4.74-2.893,6.75,0,2,1.706,1.55,1.484,4.6,0.148,1.78-0.446,1.33-0.594,3.04h2.967z"/>
<path id="path631" d="M80.922,156.72c0,0.95-0.763,1.71-1.706,1.71-0.942,0-1.706-0.76-1.705-1.71-0.001-0.94,0.763-1.7,1.705-1.7,0.943,0,1.706,0.76,1.706,1.7z" style="stroke-linejoin:miter;fill-rule:evenodd;stroke:#000000;stroke-linecap:butt;stroke-dasharray:none;stroke-width:0.625;fill:#f7c600;" transform="translate(-7.418633e-2,0.445068)"/>
</g>
<g id="g632" transform="matrix(1.258201,0,0,1.258201,713.0901,-62.47615)">
<path id="path633" style="stroke-linejoin:miter;stroke:#f7c600;stroke-linecap:butt;stroke-width:1pt;fill:none;" d="M69.786,170.53l9.336-13.71,9.381,13.74"/>
<path id="path634" d="M80.922,156.72c0,0.95-0.763,1.71-1.706,1.71-0.942,0-1.706-0.76-1.705-1.71-0.001-0.94,0.763-1.7,1.705-1.7,0.943,0,1.706,0.76,1.706,1.7z" style="stroke-linejoin:miter;fill-rule:evenodd;stroke:#000000;stroke-linecap:butt;stroke-dasharray:none;stroke-width:0.57499999;fill:#f7c600;" transform="matrix(1.086991,0,0,1.087005,-6.965268,-4.956314)"/>
<path id="path635" style="stroke-linejoin:miter;fill-rule:evenodd;stroke:#000000;stroke-linecap:butt;stroke-dasharray:none;stroke-width:0.625;fill:#f7c600;" d="M71.541,180.66l14.473,0.04s0.227-1.88-1.512-3.02c7.581-1.04,5.611-7.73,11.96-8.11,1.232,0.19-3.316,2.84-3.316,2.84s-3.828,2.7-2.085,4.08c1.384,1.09,1.99-0.67,2.179-1.99,0.19-1.33,6.16-2.18,5.307-5.97-1.422-3.13-9.76,2.08-9.76,2.08l-5.949-0.03c-0.371-0.67-2.011-3.35-3.704-3.36-2.009,0.07-3.424,3.39-3.424,3.39h-8.622-4.833s-0.461,3.45,6.361,4.12c1.536,2,2.727,2.56,4.062,3.08-0.89,0.75-1.141,1.64-1.137,2.85z"/>
<path id="path636" style="stroke-linejoin:miter;stroke:#000000;stroke-linecap:butt;stroke-dasharray:none;stroke-width:0.625;fill:none;" d="M72.583,177.72l12.055-0.04"/>
<path id="path637" style="stroke-linejoin:miter;stroke:#000000;stroke-linecap:butt;stroke-dasharray:none;stroke-width:0.625;fill:none;" d="M67.062,170.61s0.965,5.64,5.416,6.97"/>
<path id="path638" style="stroke-linejoin:miter;fill-rule:evenodd;stroke:#000000;stroke-linecap:butt;stroke-dasharray:none;stroke-width:0.625;fill:url(#linearGradient2137);" d="M66.32,170.54c0.446-2.15,1.262-2.52,2.152-5.27,0.148-2.67-2.152-2.37-1.484-4.08,1.187-1.85,0.594-3.63-1.632-5.04,0.445,2.44-2.893,4.74-2.893,6.75,0,2,1.706,1.55,1.484,4.6,0.148,1.78-0.446,1.33-0.594,3.04h2.967z"/>
<path id="path639" d="M80.922,156.72c0,0.95-0.763,1.71-1.706,1.71-0.942,0-1.706-0.76-1.705-1.71-0.001-0.94,0.763-1.7,1.705-1.7,0.943,0,1.706,0.76,1.706,1.7z" style="stroke-linejoin:miter;fill-rule:evenodd;stroke:#000000;stroke-linecap:butt;stroke-dasharray:none;stroke-width:0.625;fill:#f7c600;" transform="translate(-7.418633e-2,0.445068)"/>
</g>
<g id="g640" transform="matrix(1.258201,0,0,1.258201,711.97,-28.68755)">
<path id="path641" style="stroke-linejoin:miter;stroke:#f7c600;stroke-linecap:butt;stroke-width:1pt;fill:none;" d="M69.786,170.53l9.336-13.71,9.381,13.74"/>
<path id="path642" d="M80.922,156.72c0,0.95-0.763,1.71-1.706,1.71-0.942,0-1.706-0.76-1.705-1.71-0.001-0.94,0.763-1.7,1.705-1.7,0.943,0,1.706,0.76,1.706,1.7z" style="stroke-linejoin:miter;fill-rule:evenodd;stroke:#000000;stroke-linecap:butt;stroke-dasharray:none;stroke-width:0.57499999;fill:#f7c600;" transform="matrix(1.086991,0,0,1.087005,-6.965268,-4.956314)"/>
<path id="path643" style="stroke-linejoin:miter;fill-rule:evenodd;stroke:#000000;stroke-linecap:butt;stroke-dasharray:none;stroke-width:0.625;fill:#f7c600;" d="M71.541,180.66l14.473,0.04s0.227-1.88-1.512-3.02c7.581-1.04,5.611-7.73,11.96-8.11,1.232,0.19-3.316,2.84-3.316,2.84s-3.828,2.7-2.085,4.08c1.384,1.09,1.99-0.67,2.179-1.99,0.19-1.33,6.16-2.18,5.307-5.97-1.422-3.13-9.76,2.08-9.76,2.08l-5.949-0.03c-0.371-0.67-2.011-3.35-3.704-3.36-2.009,0.07-3.424,3.39-3.424,3.39h-8.622-4.833s-0.461,3.45,6.361,4.12c1.536,2,2.727,2.56,4.062,3.08-0.89,0.75-1.141,1.64-1.137,2.85z"/>
<path id="path644" style="stroke-linejoin:miter;stroke:#000000;stroke-linecap:butt;stroke-dasharray:none;stroke-width:0.625;fill:none;" d="M72.583,177.72l12.055-0.04"/>
<path id="path645" style="stroke-linejoin:miter;stroke:#000000;stroke-linecap:butt;stroke-dasharray:none;stroke-width:0.625;fill:none;" d="M67.062,170.61s0.965,5.64,5.416,6.97"/>
<path id="path646" style="stroke-linejoin:miter;fill-rule:evenodd;stroke:#000000;stroke-linecap:butt;stroke-dasharray:none;stroke-width:0.625;fill:url(#linearGradient2139);" d="M66.32,170.54c0.446-2.15,1.262-2.52,2.152-5.27,0.148-2.67-2.152-2.37-1.484-4.08,1.187-1.85,0.594-3.63-1.632-5.04,0.445,2.44-2.893,4.74-2.893,6.75,0,2,1.706,1.55,1.484,4.6,0.148,1.78-0.446,1.33-0.594,3.04h2.967z"/>
<path id="path647" d="M80.922,156.72c0,0.95-0.763,1.71-1.706,1.71-0.942,0-1.706-0.76-1.705-1.71-0.001-0.94,0.763-1.7,1.705-1.7,0.943,0,1.706,0.76,1.706,1.7z" style="stroke-linejoin:miter;fill-rule:evenodd;stroke:#000000;stroke-linecap:butt;stroke-dasharray:none;stroke-width:0.625;fill:#f7c600;" transform="translate(-7.418633e-2,0.445068)"/>
</g>
<g id="g648" transform="matrix(1.258201,0,0,1.258201,710.4766,5.847672)">
<path id="path649" style="stroke-linejoin:miter;stroke:#f7c600;stroke-linecap:butt;stroke-width:1pt;fill:none;" d="M69.786,170.53l9.336-13.71,9.381,13.74"/>
<path id="path650" d="M80.922,156.72c0,0.95-0.763,1.71-1.706,1.71-0.942,0-1.706-0.76-1.705-1.71-0.001-0.94,0.763-1.7,1.705-1.7,0.943,0,1.706,0.76,1.706,1.7z" style="stroke-linejoin:miter;fill-rule:evenodd;stroke:#000000;stroke-linecap:butt;stroke-dasharray:none;stroke-width:0.57499999;fill:#f7c600;" transform="matrix(1.086991,0,0,1.087005,-6.965268,-4.956314)"/>
<path id="path651" style="stroke-linejoin:miter;fill-rule:evenodd;stroke:#000000;stroke-linecap:butt;stroke-dasharray:none;stroke-width:0.625;fill:#f7c600;" d="M71.541,180.66l14.473,0.04s0.227-1.88-1.512-3.02c7.581-1.04,5.611-7.73,11.96-8.11,1.232,0.19-3.316,2.84-3.316,2.84s-3.828,2.7-2.085,4.08c1.384,1.09,1.99-0.67,2.179-1.99,0.19-1.33,6.16-2.18,5.307-5.97-1.422-3.13-9.76,2.08-9.76,2.08l-5.949-0.03c-0.371-0.67-2.011-3.35-3.704-3.36-2.009,0.07-3.424,3.39-3.424,3.39h-8.622-4.833s-0.461,3.45,6.361,4.12c1.536,2,2.727,2.56,4.062,3.08-0.89,0.75-1.141,1.64-1.137,2.85z"/>
<path id="path652" style="stroke-linejoin:miter;stroke:#000000;stroke-linecap:butt;stroke-dasharray:none;stroke-width:0.625;fill:none;" d="M72.583,177.72l12.055-0.04"/>
<path id="path653" style="stroke-linejoin:miter;stroke:#000000;stroke-linecap:butt;stroke-dasharray:none;stroke-width:0.625;fill:none;" d="M67.062,170.61s0.965,5.64,5.416,6.97"/>
<path id="path654" style="stroke-linejoin:miter;fill-rule:evenodd;stroke:#000000;stroke-linecap:butt;stroke-dasharray:none;stroke-width:0.625;fill:url(#linearGradient2141);" d="M66.32,170.54c0.446-2.15,1.262-2.52,2.152-5.27,0.148-2.67-2.152-2.37-1.484-4.08,1.187-1.85,0.594-3.63-1.632-5.04,0.445,2.44-2.893,4.74-2.893,6.75,0,2,1.706,1.55,1.484,4.6,0.148,1.78-0.446,1.33-0.594,3.04h2.967z"/>
<path id="path655" d="M80.922,156.72c0,0.95-0.763,1.71-1.706,1.71-0.942,0-1.706-0.76-1.705-1.71-0.001-0.94,0.763-1.7,1.705-1.7,0.943,0,1.706,0.76,1.706,1.7z" style="stroke-linejoin:miter;fill-rule:evenodd;stroke:#000000;stroke-linecap:butt;stroke-dasharray:none;stroke-width:0.625;fill:#f7c600;" transform="translate(-7.418633e-2,0.445068)"/>
</g>
<path id="path657" style="stroke-width:1.25820076;stroke:#f7c600;fill:none;" d="M799.78,322.52l11.74-17.25,11.8,17.29"/>
<path id="path658" style="stroke-width:0.78640544;fill-rule:evenodd;stroke:#000000;fill:#f7c600;" d="M813.88,316.07c0,1.29-1.04,2.33-2.33,2.33s-2.34-1.04-2.34-2.33,1.05-2.33,2.34-2.33,2.33,1.04,2.33,2.33z"/>
<path id="path659" style="stroke-width:0.78637546;fill-rule:evenodd;stroke:#000000;fill:#f7c600;" d="M801.98,335.26l18.21,0.05s0.29-2.36-1.9-3.8c9.54-1.31,7.06-9.72,15.05-10.2,1.55,0.24-4.17,3.58-4.17,3.58s-4.82,3.4-2.63,5.13c1.74,1.37,2.51-0.84,2.75-2.51,0.23-1.67,7.74-2.74,6.67-7.51-1.79-3.93-12.28,2.62-12.28,2.62l-7.48-0.04c-0.47-0.84-2.53-4.21-4.66-4.22-2.53,0.09-4.31,4.26-4.31,4.26h-10.85-6.08s-0.58,4.35,8,5.18c1.94,2.53,3.43,3.23,5.11,3.88-1.12,0.94-1.43,2.07-1.43,3.58z"/>
<path id="path660" style="stroke-width:0.78637546;stroke:#000000;fill:none;" d="M803.29,331.57l15.17-0.06"/>
<path id="path661" style="stroke-width:0.78637546;stroke:#000000;fill:none;" d="M796.35,322.62s1.21,7.1,6.81,8.78"/>
<path id="path662" style="fill-rule:evenodd;stroke:#000000;stroke-dasharray:none;stroke-width:0.78637546;fill:url(#linearGradient2243);" d="M795.41,322.53c0.56-2.71,1.59-3.17,2.71-6.63,0.19-3.36-2.71-2.98-1.87-5.13,1.5-2.33,0.75-4.57-2.05-6.35,0.56,3.08-3.64,5.98-3.64,8.5s2.15,1.96,1.87,5.78c0.18,2.24-0.56,1.68-0.75,3.83h3.73z"/>
<path id="path663" style="stroke-width:0.78637546;fill-rule:evenodd;stroke:#000000;fill:#f7c600;" d="M813.69,305.71c0,1.19-0.96,2.15-2.14,2.15-1.19,0-2.15-0.96-2.15-2.15s0.96-2.15,2.15-2.15c1.18,0,2.14,0.96,2.14,2.15z"/>
<g id="g664" transform="matrix(1.258201,0,0,1.258201,711.7833,73.79801)">
<path id="path665" style="stroke-linejoin:miter;stroke:#f7c600;stroke-linecap:butt;stroke-width:1pt;fill:none;" d="M69.786,170.53l9.336-13.71,9.381,13.74"/>
<path id="path666" d="M80.922,156.72c0,0.95-0.763,1.71-1.706,1.71-0.942,0-1.706-0.76-1.705-1.71-0.001-0.94,0.763-1.7,1.705-1.7,0.943,0,1.706,0.76,1.706,1.7z" style="stroke-linejoin:miter;fill-rule:evenodd;stroke:#000000;stroke-linecap:butt;stroke-dasharray:none;stroke-width:0.57499999;fill:#f7c600;" transform="matrix(1.086991,0,0,1.087005,-6.965268,-4.956314)"/>
<path id="path667" style="stroke-linejoin:miter;fill-rule:evenodd;stroke:#000000;stroke-linecap:butt;stroke-dasharray:none;stroke-width:0.625;fill:#f7c600;" d="M71.541,180.66l14.473,0.04s0.227-1.88-1.512-3.02c7.581-1.04,5.611-7.73,11.96-8.11,1.232,0.19-3.316,2.84-3.316,2.84s-3.828,2.7-2.085,4.08c1.384,1.09,1.99-0.67,2.179-1.99,0.19-1.33,6.16-2.18,5.307-5.97-1.422-3.13-9.76,2.08-9.76,2.08l-5.949-0.03c-0.371-0.67-2.011-3.35-3.704-3.36-2.009,0.07-3.424,3.39-3.424,3.39h-8.622-4.833s-0.461,3.45,6.361,4.12c1.536,2,2.727,2.56,4.062,3.08-0.89,0.75-1.141,1.64-1.137,2.85z"/>
<path id="path668" style="stroke-linejoin:miter;stroke:#000000;stroke-linecap:butt;stroke-dasharray:none;stroke-width:0.625;fill:none;" d="M72.583,177.72l12.055-0.04"/>
<path id="path669" style="stroke-linejoin:miter;stroke:#000000;stroke-linecap:butt;stroke-dasharray:none;stroke-width:0.625;fill:none;" d="M67.062,170.61s0.965,5.64,5.416,6.97"/>
<path id="path670" style="stroke-linejoin:miter;fill-rule:evenodd;stroke:#000000;stroke-linecap:butt;stroke-dasharray:none;stroke-width:0.625;fill:url(#linearGradient2145);" d="M66.32,170.54c0.446-2.15,1.262-2.52,2.152-5.27,0.148-2.67-2.152-2.37-1.484-4.08,1.187-1.85,0.594-3.63-1.632-5.04,0.445,2.44-2.893,4.74-2.893,6.75,0,2,1.706,1.55,1.484,4.6,0.148,1.78-0.446,1.33-0.594,3.04h2.967z"/>
<path id="path671" d="M80.922,156.72c0,0.95-0.763,1.71-1.706,1.71-0.942,0-1.706-0.76-1.705-1.71-0.001-0.94,0.763-1.7,1.705-1.7,0.943,0,1.706,0.76,1.706,1.7z" style="stroke-linejoin:miter;fill-rule:evenodd;stroke:#000000;stroke-linecap:butt;stroke-dasharray:none;stroke-width:0.625;fill:#f7c600;" transform="translate(-7.418633e-2,0.445068)"/>
</g>
<g id="g576" transform="matrix(1.258201,0,0,1.258201,612.5456,42.04647)">
<path id="path563" style="stroke-linejoin:miter;stroke:#f7c600;stroke-linecap:butt;stroke-width:1pt;fill:none;" d="M69.786,170.53l9.336-13.71,9.381,13.74"/>
<path id="path564" d="M80.922,156.72c0,0.95-0.763,1.71-1.706,1.71-0.942,0-1.706-0.76-1.705-1.71-0.001-0.94,0.763-1.7,1.705-1.7,0.943,0,1.706,0.76,1.706,1.7z" style="stroke-linejoin:miter;fill-rule:evenodd;stroke:#000000;stroke-linecap:butt;stroke-dasharray:none;stroke-width:0.57499999;fill:#f7c600;" transform="matrix(1.086991,0,0,1.087005,-6.965268,-4.956314)"/>
<path id="path565" style="stroke-linejoin:miter;fill-rule:evenodd;stroke:#000000;stroke-linecap:butt;stroke-dasharray:none;stroke-width:0.625;fill:#f7c600;" d="M71.541,180.66l14.473,0.04s0.227-1.88-1.512-3.02c7.581-1.04,5.611-7.73,11.96-8.11,1.232,0.19-3.316,2.84-3.316,2.84s-3.828,2.7-2.085,4.08c1.384,1.09,1.99-0.67,2.179-1.99,0.19-1.33,6.16-2.18,5.307-5.97-1.422-3.13-9.76,2.08-9.76,2.08l-5.949-0.03c-0.371-0.67-2.011-3.35-3.704-3.36-2.009,0.07-3.424,3.39-3.424,3.39h-8.622-4.833s-0.461,3.45,6.361,4.12c1.536,2,2.727,2.56,4.062,3.08-0.89,0.75-1.141,1.64-1.137,2.85z"/>
<path id="path566" style="stroke-linejoin:miter;stroke:#000000;stroke-linecap:butt;stroke-dasharray:none;stroke-width:0.625;fill:none;" d="M72.583,177.72l12.055-0.04"/>
<path id="path568" style="stroke-linejoin:miter;stroke:#000000;stroke-linecap:butt;stroke-dasharray:none;stroke-width:0.625;fill:none;" d="M67.062,170.61s0.965,5.64,5.416,6.97"/>
<path id="path569" style="stroke-linejoin:miter;fill-rule:evenodd;stroke:#000000;stroke-linecap:butt;stroke-dasharray:none;stroke-width:0.625;fill:url(#linearGradient2147);" d="M66.32,170.54c0.446-2.15,1.262-2.52,2.152-5.27,0.148-2.67-2.152-2.37-1.484-4.08,1.187-1.85,0.594-3.63-1.632-5.04,0.445,2.44-2.893,4.74-2.893,6.75,0,2,1.706,1.55,1.484,4.6,0.148,1.78-0.446,1.33-0.594,3.04h2.967z"/>
<path id="path575" d="M80.922,156.72c0,0.95-0.763,1.71-1.706,1.71-0.942,0-1.706-0.76-1.705-1.71-0.001-0.94,0.763-1.7,1.705-1.7,0.943,0,1.706,0.76,1.706,1.7z" style="stroke-linejoin:miter;fill-rule:evenodd;stroke:#000000;stroke-linecap:butt;stroke-dasharray:none;stroke-width:0.625;fill:#f7c600;" transform="translate(-7.418633e-2,0.445068)"/>
</g>
<g id="g729" transform="matrix(1.258201,0,0,1.258201,588.0382,107.2121)">
<path id="path718" style="stroke-linejoin:miter;fill-rule:evenodd;stroke:#000000;stroke-linecap:butt;stroke-dasharray:none;stroke-width:0.625;fill:#f7c600;" d="M139.22,183.9s3.78,8.71,8.08,3.36,2.72-7.66,2.72-7.66l-9.65-5.25-2.83,5.98,1.68,3.57z"/>
<path id="path678" style="stroke-linejoin:miter;fill-rule:evenodd;stroke:#000000;stroke-linecap:butt;stroke-dasharray:none;stroke-width:0.625;fill:#ffc6b5;" d="M147.51,182.75s0.63,0.1,1.15-0.84c0.52-0.95-1.15-1.37-1.89-2.42l-0.84,1.68,1.58,1.58z"/>
<path id="path675" style="stroke-linejoin:miter;fill-rule:evenodd;stroke:#000000;stroke-linecap:butt;stroke-dasharray:none;stroke-width:0.625;fill:#ffc6b5;" d="M125.68,180.44l-8.49,4.61s-4.2,0.84-4.51,0c-0.32-0.84,0.1-1.57,2.3-1.67,2.21-0.11,8.19-5.56,8.19-5.56l2.51,2.62z"/>
<path id="path674" style="stroke-linejoin:miter;fill-rule:evenodd;stroke:#000000;stroke-linecap:butt;stroke-dasharray:none;stroke-width:0.625;fill:#ffc6b5;" d="M125.79,29.47s0.21,1.993,0.31,3.042c0.11,1.049-1.67,3.252-1.78,3.147-0.1-0.105-0.94,0.105-0.84,0.735,0.11,0.629,1.37,0.839,1.37,0.839s-0.53,2.203,0,2.308c0.52,0.105-1.37,2.833,0,3.567,1.36,0.734,3.67,1.679,4.72,1.469s0,4.091,0,4.091l-2.94,6.295,16.16-1.678-3.36-5.351s-1.58-1.049-1.16-4.092c0.42-3.042-0.21-16.785-0.21-16.785l-11.54-1.574-0.73,3.987z"/>
<path id="path672" style="stroke-linejoin:miter;fill-rule:evenodd;stroke:#000000;stroke-linecap:butt;stroke-dasharray:none;stroke-width:0.625;fill:#ffc6b5;" d="M122.85,53.39s-5.24,2.413-5.03,8.917c-1.37,6.295-2.1,12.589-2.1,12.589s-6.19,7.03-8.08,9.547c-1.89,2.518-4.72,7.659-5.77,9.023s-5.141,5.875-5.036,7.554c0.105,1.68-0.944,9.13,3.147,9.97,1.049,0.42,4.409-8.61,4.409-8.61s0.21-3.878-0.95-4.613c-1.15-0.734,2.52-3.252,2.52-3.252s7.03-5.141,8.6-6.4c1.58-1.259,5.88-6.085,5.88-6.085l2.41-28.64z"/>
<path id="path679" style="stroke-linejoin:miter;fill-rule:evenodd;stroke:#000000;stroke-linecap:butt;stroke-dasharray:none;stroke-width:0.625;fill:#ffffff;" d="M128.83,48.459s1.37,3.672,4.41,3.042c3.04-0.629,6.61-3.462,6.61-3.462s2.83-0.105,3.25,0.315c0.42,0.419,7.66,7.448,7.45,9.652-0.21,2.203-3.36,1.573-4.51,3.042-1.16,1.469-3.04,5.141-2.52,7.868,0.52,2.728,2.1,6.295,1.89,7.659s-1.37,1.784-1.37,2.518,0.95,1.993,0.95,3.357-1.26,3.357-1.05,4.721,0.31,5.351,0.31,5.351l-0.31,18.468s1.05,0.63,1.15,1.67c0.11,1.05,7.14,31.58,7.14,31.58s-0.32,0.95-1.05,0.84c-0.74-0.1,2.83,4.72,2.94,6.09,0.1,1.36,3.67,12.06,3.56,13.53-0.1,1.47-0.63,4.72-0.94,4.83-0.32,0.1,2.31,6.71,1.89,7.76s-4.72,0.94-4.72,0.94l-1.16-0.21s0.11,1.37-0.73,1.47c-0.84,0.11-7.03-0.31-7.03-0.31s-1.79,2.73-2.83,2.62c-1.05-0.1-2.42-1.99-2.73-1.68-0.32,0.32,0.94,2.1,0.63,2.63-0.32,0.52-5.67,1.67-6.72-0.84-1.05-2.52,0.63-1.89,0.32-2.42-0.32-0.52-2.73-1.88-3.46-1.47-0.74,0.42,1.88,1.05,1.78,2.1-0.11,1.05-2.31,2.63-3.15,2.63s-2.83-3.89-5.77-3.47-4.82,1.16-4.82,1.16-3.47,1.47-4.94,1.15c-1.46-0.31-2.09-1.47-2.09-2.1s1.05-3.35,0.94-4.19c-0.1-0.84-0.94-1.68-0.94-2.94s2.41-5.56,2.41-5.56l-0.11-19.3-2.3-1.37c-0.11-1.36,3.35-30.53,3.88-32.42,0.52-1.88,1.89-8.6,1.89-8.6s-1.58,0.74-1.68,0c-0.11-0.73,4.72-17.414,4.72-17.414s0.84-8.288,0.84-10.491c0-2.204-0.42-5.246-0.42-5.246s-4.31-1.823-4.41-4.616c-0.39-4.444,4.09-6.924,4.62-8.393,0.52-1.469,2.1-5.875,2.1-5.875s2.31-3.987,6.08-4.616z"/>
<path id="path717" style="stroke-linejoin:miter;fill-rule:evenodd;stroke:#000000;stroke-linecap:butt;stroke-dasharray:none;stroke-width:0.625;fill:#f7c600;" d="M127.26,181.7s-10.18,5.35-11.65,5.77-2.41-1.79-0.94-2.21,3.78-0.63,3.78-0.63-3.47-2.72-3.36-2.83c0.1-0.1,4.72-1.78,4.82-1.78,0.11,0,1.47,2.73,2.42,2.52,0.94-0.21,3.67-2.31,3.67-2.31s1.47,1.68,1.26,1.47z"/>
<path id="path676" style="stroke-linejoin:miter;fill-rule:evenodd;stroke:#000000;stroke-linecap:butt;stroke-dasharray:none;stroke-width:0.625;fill:#ffc6b5;" d="M141.6,184.63c0.96,1.25,1.33,3.4,3.54,2.14,2.2-1.26-1.13-3.6-1.13-3.6l-2.41,1.46z"/>
<path id="path677" style="stroke-linejoin:miter;fill-rule:evenodd;stroke:#000000;stroke-linecap:butt;stroke-dasharray:none;stroke-width:0.625;fill:#ffc6b5;" d="M145.62,184.42s1.05,0.84,1.99-0.1c0.95-0.94-1.89-2.94-1.89-2.94l-1.36,1.58,1.26,1.46z"/>
<path id="path680" style="stroke-linejoin:miter;stroke:#000000;stroke-linecap:butt;stroke-dasharray:none;stroke-width:0.625;fill:none;" d="M142.47,52.55s-9.34,5.98-9.13,8.078"/>
<path id="path681" style="stroke-linejoin:miter;stroke:#000000;stroke-linecap:butt;stroke-dasharray:none;stroke-width:0.625;fill:none;" d="M144.57,53.599s-2.1,2.308-2.2,2.308"/>
<path id="path682" style="stroke-linejoin:miter;stroke:#000000;stroke-linecap:butt;stroke-dasharray:none;stroke-width:0.625;fill:none;" d="M147.4,56.117s-4.61,3.777-3.88,6.19"/>
<path id="path683" style="stroke-linejoin:miter;stroke:#000000;stroke-linecap:butt;stroke-dasharray:none;stroke-width:0.625;fill:none;" d="M125.58,52.026s-1.36,2.832-1.05,3.776c0.32,0.945,2.62,4.512,2.94,6.715,0.31,2.203,0,3.777,0,3.777"/>
<path id="path684" style="stroke-linejoin:miter;stroke:#000000;stroke-linecap:butt;stroke-dasharray:none;stroke-width:0.625;fill:none;" d="M123.17,57.271s0.42,3.357,1.05,3.987c0.63,0.629,2.3,3.462,2.51,4.616"/>
<path id="path685" style="stroke-linejoin:miter;stroke:#000000;stroke-linecap:butt;stroke-dasharray:none;stroke-width:0.625;fill:none;" d="M122.33,71.224s2.73,1.364,5.24-3.881"/>
<path id="path686" style="stroke-linejoin:miter;stroke:#000000;stroke-linecap:butt;stroke-dasharray:none;stroke-width:0.625;fill:none;" d="M131.66,63.671c-0.1,0-1.99,5.141,1.37,7.029s5.87,1.679,7.34,1.154,3.04-1.469,3.04-1.469"/>
<path id="path687" style="stroke-linejoin:miter;stroke:#000000;stroke-linecap:butt;stroke-dasharray:none;stroke-width:0.625;fill:none;" d="M130.2,69.966s0.21,6.924,10.38,13.743"/>
<path id="path688" style="stroke-linejoin:miter;stroke:#000000;stroke-linecap:butt;stroke-dasharray:none;stroke-width:0.625;fill:none;" d="M130.62,76.47s-0.11,6.085,3.88,8.813"/>
<path id="path689" style="stroke-linejoin:miter;stroke:#000000;stroke-linecap:butt;stroke-dasharray:none;stroke-width:0.625;fill:none;" d="M128.52,69.336s-3.05,9.023-5.46,9.967"/>
<path id="path690" style="stroke-linejoin:miter;stroke:#000000;stroke-linecap:butt;stroke-dasharray:none;stroke-width:0.625;fill:none;" d="M127.57,75.946s-0.1,6.504-0.94,8.812"/>
<path id="path691" style="stroke-linejoin:miter;stroke:#000000;stroke-linecap:butt;stroke-dasharray:none;stroke-width:0.625;fill:none;" d="M125.79,86.332s2.1,2.623,4.41,2.413c2.3-0.21,3.25-2.938,4.82-2.518,1.58,0.42,3.04,1.679,6.72,1.364"/>
<path id="path692" style="stroke-linejoin:miter;stroke:#000000;stroke-linecap:butt;stroke-dasharray:none;stroke-width:0.625;fill:none;" d="M136.49,90.318s0,5.351,0.94,5.876c0.95,0.524,0.53,5.456,0.53,5.456"/>
<path id="path693" style="stroke-linejoin:miter;stroke:#000000;stroke-linecap:butt;stroke-dasharray:none;stroke-width:0.625;fill:none;" d="M123.69,87.801s-0.1,5.035-0.73,6.819c-0.63,1.783-1.89,4.826-1.68,7.45"/>
<path id="path694" style="stroke-linejoin:miter;stroke:#000000;stroke-linecap:butt;stroke-dasharray:none;stroke-width:0.625;fill:none;" d="M117.29,105.01c0.53-0.21,2.31-1.79,2.31-1.79"/>
<path id="path695" style="stroke-linejoin:miter;stroke:#000000;stroke-linecap:butt;stroke-dasharray:none;stroke-width:0.625;fill:none;" d="M120.54,104.38s-4.51,19.3-3.25,30.84"/>
<path id="path696" style="stroke-linejoin:miter;stroke:#000000;stroke-linecap:butt;stroke-dasharray:none;stroke-width:0.625;fill:none;" d="M121.59,105.32s-2.31,14.48-1.26,17.21"/>
<path id="path697" style="stroke-linejoin:miter;stroke:#000000;stroke-linecap:butt;stroke-dasharray:none;stroke-width:0.625;fill:none;" d="M120.44,104.9c0.1,0,8.81,0.63,8.81,0.63"/>
<path id="path698" style="stroke-linejoin:miter;stroke:#000000;stroke-linecap:butt;stroke-dasharray:none;stroke-width:0.625;fill:none;" d="M130.51,104.38s2.41,1.26,5.77,1.05"/>
<path id="path699" style="stroke-linejoin:miter;stroke:#000000;stroke-linecap:butt;stroke-dasharray:none;stroke-width:0.625;fill:none;" d="M129.46,111.41s-0.42,24.76-1.05,30.21"/>
<path id="path700" style="stroke-linejoin:miter;stroke:#000000;stroke-linecap:butt;stroke-dasharray:none;stroke-width:0.625;fill:none;" d="M142.37,117.07s2.72,21.72,4.3,23.71"/>
<path id="path701" style="stroke-linejoin:miter;stroke:#000000;stroke-linecap:butt;stroke-dasharray:none;stroke-width:0.625;fill:none;" d="M137.12,119.8s1.68,19.2,2.62,20.88"/>
<path id="path702" style="stroke-linejoin:miter;stroke:#000000;stroke-linecap:butt;stroke-dasharray:none;stroke-width:0.625;fill:none;" d="M113.31,147.39s3.25-1.05,6.18-4.2c3.36,4.52,8.5,0.21,8.5,0.21s7.98,5.46,11.54-0.63c5.46,3.57,8.19-0.52,8.19-0.52s1.99,3.04,3.46,2.73"/>
<path id="path703" style="stroke-linejoin:miter;stroke:#000000;stroke-linecap:butt;stroke-dasharray:none;stroke-width:0.625;fill:none;" d="M142.47,147.08s4.09,19.19,10.18,24.65"/>
<path id="path704" style="stroke-linejoin:miter;stroke:#000000;stroke-linecap:butt;stroke-dasharray:none;stroke-width:0.625;fill:none;" d="M121.38,145.08s0.53,16.05,1.47,27.38"/>
<path id="path705" style="stroke-linejoin:miter;stroke:#000000;stroke-linecap:butt;stroke-dasharray:none;stroke-width:0.625;fill:none;" d="M120.65,163.23s-0.53,10.49-1.16,11.23"/>
<path id="path707" style="stroke-linejoin:miter;stroke:#000000;stroke-linecap:butt;stroke-dasharray:none;stroke-width:0.625;fill:none;" d="M114.46,175.51s1.15,4.51,6.92,0.31c5.77-4.19,5.88,1.58,6.09,2.2,0.21,0.63,1.15,5.15,3.36,1.37"/>
<path id="path708" style="stroke-linejoin:miter;stroke:#000000;stroke-linecap:butt;stroke-dasharray:none;stroke-width:0.625;fill:none;" d="M135.44,173.2s-0.94,9.34,7.35,2.52c8.28-6.82,9.65-0.11,9.86,1.99"/>
<path id="path709" style="stroke-linejoin:miter;fill-rule:evenodd;stroke:#000000;stroke-linecap:butt;stroke-dasharray:none;stroke-width:0.625;fill:#9c5100;" d="M125.47,28.84s2.31,0.315,3.57-0.42c1.26-0.734,2.73-1.049,3.78,0.42s1.78,1.364,1.78,1.364-1.57,3.882,0,4.301c1.58,0.42,2.31,0.42,2.42,0.945,0.1,0.524-1.37,1.678-0.95,2.203,0.42,0.524,1.15,1.154,1.26,1.573,0.1,0.42-0.94,2.203-0.63,2.623,0.32,0.42,1.26,2.098,1.89,2.098s0.21,2.623,2.1,1.994c1.89-0.63,1.78-2.308,1.78-2.308s1.99-0.315,2.52-2.099c0.52-1.783,1.78-2.203,1.78-2.203s2.52-1.364-0.84-3.462c0-14.688-9.65-13.114-9.65-13.114s-1.15-2.623-3.04-2.308-2,2.518-3.36,2.308-1.68-1.154-1.78-1.049c-0.11,0.105-1.26,2.203-1.26,2.728,0,0.524-3.67-0.735-3.36,1.993,0.32,2.728,2.1,2.623,1.99,2.413z"/>
<path id="path710" style="stroke-linejoin:miter;stroke:#000000;stroke-linecap:butt;stroke-dasharray:none;stroke-width:0.625;fill:none;" d="M135.55,25.273s-0.74,4.616,4.19,4.197c-0.63,2.517,1.26,3.357,1.26,3.357"/>
<path id="path711" style="stroke-linejoin:miter;stroke:#000000;stroke-linecap:butt;stroke-dasharray:none;stroke-width:0.625;fill:none;" d="M144.67,35.659c0.11,0,2.21,1.364-0.1,3.043"/>
<path id="path712" style="stroke-linejoin:miter;stroke:#000000;stroke-linecap:butt;stroke-dasharray:none;stroke-width:0.625;fill:none;" d="M137.54,39.331s1.05,1.259,2.2,0.945c1.16-0.315,3.05,1.154,3.05,1.154s1.57,0.524,1.78,0.209"/>
<path id="path713" style="stroke-linejoin:miter;stroke:#000000;stroke-linecap:butt;stroke-dasharray:none;stroke-width:0.625;fill:none;" d="M131.14,43.318s3.57,1.364,5.88-4.301"/>
<path id="path714" style="stroke-linejoin:miter;stroke:#000000;stroke-linecap:butt;stroke-dasharray:none;stroke-width:0.625;fill:none;" d="M124.53,37.338l2.1,0.105"/>
<path id="path715" style="stroke-linejoin:round;stroke:#000000;stroke-linecap:butt;stroke-dasharray:none;stroke-width:0.625;fill:none;" d="M124.85,39.436h1.88l-1.67,0.735"/>
<path id="path716" style="stroke-linejoin:round;stroke:#000000;stroke-linecap:butt;stroke-dasharray:none;stroke-width:1.125;fill:none;" d="M127.47,33.561c0.31,0,1.47-0.42,1.68-0.105s-1.26,0.525-1.68,0.105z"/>
<path id="path673" style="stroke-linejoin:miter;fill-rule:evenodd;stroke:#000000;stroke-linecap:butt;stroke-dasharray:none;stroke-width:0.625;fill:#ffc6b5;" d="M150.13,58.487c0.1,0,3.46,10.386,3.88,13.009s1.78,13.114,1.26,14.583c-0.52,1.468-5.88,8.497-6.5,10.281-0.63,1.783-4.41,8.6-4.41,8.6s-0.95,6.72-1.36,7.03c-0.42,0.32,1.08,1.96,0.94,2.52-0.21,0.62-3.04,3.57-4.3,3.25-1.26-0.31-3.25-1.78-3.36-3.15-0.1-1.36,0.11-5.87,1.05-7.02,0.94-1.16,5.87-12.804,6.19-13.538,0.31-0.735,4.51-9.862,4.62-11.436,0.1-1.573-1.31-5.212-2.79-6.548-3.31-9.718-2.01-15.578,4.78-17.581z"/>
<path id="path726" style="stroke-linejoin:miter;stroke:#000000;stroke-linecap:butt;stroke-dasharray:none;stroke-width:0.625;fill:none;" d="M101.25,103.5l0.17,4.6"/>
<path id="path727" style="stroke-linejoin:miter;stroke:#000000;stroke-linecap:butt;stroke-dasharray:none;stroke-width:0.625;fill:none;" d="M96.942,103.16s2.948,4.93,2.702,7.56"/>
<path id="path728" style="stroke-linejoin:round;stroke:#000000;stroke-linecap:butt;stroke-dasharray:none;stroke-width:0.625;fill:none;" d="M136.45,113.46s2.21-0.23,2.14,3.45c1.4-4.57,4.26-4.68,4.26-4.68"/>
</g>
<path id="path780" style="stroke-linejoin:miter;fill-rule:evenodd;stroke:#000000;stroke-linecap:butt;stroke-width:1.25820074pt;fill:#f7c600;" d="M750.25,382.15c55.75-1.55,91.75-41.81,91.36-42.2-0.38-0.39,7.36-11.23,13.55-9.68,6.2,1.55,15.1,19.75,25.94,23.62,5.42,8.52-1.55,16.26-3.87,17.81s-12.77,5.8-14.32-0.39-4.65-5.03-4.65-5.03-49.55,48.39-106.85,46.45c-59.23,0.39-108.01-46.45-108.01-46.45l-4.26,4.64s-4.65,5.03-6.97,4.65c-2.32-0.39-12.39-6.97-13.16-13.55s6.19-10.84,6.19-10.84,17.04-13.16,18.97-20.13c3.87-3.87,11.23,2.71,11.23,2.71s44.91,51.49,94.85,48.39z"/>
<path id="path782" style="stroke-linejoin:miter;stroke:#000000;stroke-linecap:butt;stroke-width:1.25820074pt;fill:none;" d="M624.05,352.2s4.6-1.22,6.29,0.7,13.28,13.28,13.28,13.28"/>
<path id="path783" style="stroke-linejoin:miter;stroke:#000000;stroke-linecap:butt;stroke-width:1.25820074pt;fill:none;" d="M634.56,357.58l-4.6,3.45s11.59,2.31,8.98,9.91"/>
<path id="path784" style="stroke-linejoin:miter;stroke:#000000;stroke-linecap:butt;stroke-width:1.25820074pt;fill:none;" d="M876.95,351.82s-2.31-1.23-5.91,1.46c-3.61,2.69-12.75,12.9-12.75,12.9"/>
<path id="path785" style="stroke-linejoin:miter;stroke:#000000;stroke-linecap:butt;stroke-width:1.25820074pt;fill:none;" d="M866.58,357.27l4.99,3.84s-10.44,0.69-8.14,10.6"/>
<g id="g878" style="font-size:12px;" transform="matrix(8.333338,0,0,8.333343,0,-2.256992e-4)">
<path id="path879" style="stroke-width:1pt;fill:#ffffff;" d="M0,0v3.3541l53.292,26.646h6.708v-3.354l-53.292-26.646h-6.7082zm60,0v3.354l-53.292,26.646h-6.7082v-3.354l53.292-26.646h6.708z"/>
<path id="path880" style="stroke-width:1pt;fill:#ffffff;" d="M25,0v30h10v-30h-10zm-25,10v10h60v-10h-60z"/>
<path id="path881" style="stroke-width:1pt;fill:#cf142b;" d="M0,12v6h60v-6h-60zm27-12v30h6v-30h-6z"/>
<path id="path882" style="stroke-width:1pt;fill:#cf142b;" d="M0,30l20-10h4.472l-20,10h-4.4721zm0-30l20,10h-4.472l-15.528-7.7639v-2.2361zm35.528,10l20-10h4.472l-20,10h-4.472zm24.472,20l-20-10h4.472l15.528,7.764v2.236z"/>
</g>
<path id="text2325" style="fill:#000000;text-align:center;" transform="translate(0,-0.599699)" d="M683.05,365.1l-0.33,0.47c-0.7-0.35-1.5-0.41-2.4-0.2-0.66,0.17-1.9,0.79-3.72,1.86l-15.34,8.94-0.42-0.3,3.87-17.93c0.46-2.16,0.68-3.47,0.64-3.94-0.04-0.46-0.36-0.96-0.98-1.52l0.34-0.47,8.27,5.9-0.34,0.47-0.28-0.2c-0.74-0.53-1.32-0.8-1.72-0.81-0.29-0.01-0.52,0.11-0.69,0.35-0.11,0.16-0.21,0.36-0.29,0.62s-0.25,0.97-0.5,2.16l-2.45,11.21,8.86-5.22c1.07-0.63,1.76-1.07,2.07-1.32,0.32-0.24,0.56-0.48,0.72-0.7,0.18-0.25,0.27-0.53,0.27-0.82,0.01-0.29-0.09-0.58-0.28-0.87-0.26-0.4-0.69-0.82-1.29-1.25l0.33-0.47,5.66,4.04m5.51,26.65l-0.27,0.51-9.72-5.32,0.27-0.5,0.62,0.33c0.54,0.3,1.03,0.44,1.46,0.43,0.31,0,0.61-0.12,0.91-0.36,0.22-0.17,0.58-0.71,1.09-1.65l6.69-12.22c0.52-0.95,0.8-1.58,0.82-1.87,0.03-0.29-0.06-0.61-0.27-0.95-0.21-0.35-0.57-0.67-1.09-0.95l-0.62-0.34,0.28-0.51,9.72,5.32-0.28,0.51-0.61-0.34c-0.54-0.3-1.03-0.44-1.46-0.43-0.31,0-0.62,0.12-0.92,0.36-0.23,0.16-0.59,0.71-1.1,1.64l-6.69,12.23c-0.52,0.95-0.79,1.57-0.82,1.86-0.02,0.3,0.07,0.62,0.27,0.97,0.22,0.34,0.58,0.66,1.11,0.94l0.61,0.34m35.51-8.33l-2.51,7.04-0.54-0.2c0.03-2.15-0.44-3.97-1.4-5.44-0.95-1.46-2.21-2.48-3.77-3.03-1.5-0.53-2.89-0.55-4.18-0.06-1.29,0.48-2.4,1.4-3.35,2.75s-1.7,2.82-2.27,4.4c-0.68,1.92-1.05,3.67-1.11,5.28-0.06,1.6,0.28,2.92,1.04,3.95,0.77,1.04,1.85,1.8,3.23,2.3,0.48,0.17,0.99,0.29,1.53,0.37,0.55,0.08,1.12,0.11,1.72,0.1l1.48-4.15c0.28-0.78,0.4-1.31,0.38-1.57-0.03-0.28-0.18-0.57-0.45-0.88-0.27-0.3-0.65-0.54-1.13-0.71l-0.51-0.18,0.19-0.55,9.7,3.46-0.19,0.54c-0.76-0.21-1.31-0.29-1.66-0.24-0.33,0.05-0.64,0.22-0.93,0.51-0.15,0.16-0.36,0.6-0.62,1.33l-1.48,4.15c-1.47,0.11-2.96,0.07-4.44-0.14-1.48-0.2-2.96-0.56-4.44-1.09-1.89-0.67-3.38-1.49-4.45-2.45-1.06-0.96-1.93-2.03-2.59-3.21-0.65-1.18-1.06-2.39-1.23-3.63-0.2-1.6-0.01-3.24,0.59-4.92,1.07-3,3.03-5.16,5.88-6.48,2.84-1.32,5.87-1.41,9.07-0.27,0.99,0.35,1.85,0.75,2.59,1.19,0.41,0.23,1.02,0.7,1.85,1.42,0.84,0.71,1.35,1.1,1.53,1.16,0.27,0.1,0.56,0.09,0.87-0.02,0.31-0.13,0.66-0.43,1.06-0.92l0.54,0.19m14.96,24.01l-0.09,0.58-10.95-1.66,0.09-0.58,0.69,0.11c0.61,0.09,1.12,0.06,1.52-0.1,0.29-0.11,0.53-0.32,0.73-0.65,0.15-0.23,0.3-0.87,0.46-1.92l2.09-13.78c0.16-1.07,0.21-1.75,0.14-2.04-0.08-0.28-0.27-0.55-0.59-0.8-0.31-0.25-0.76-0.43-1.35-0.52l-0.69-0.1,0.08-0.57,10.96,1.66-0.09,0.57-0.7-0.11c-0.6-0.09-1.11-0.05-1.51,0.11-0.29,0.1-0.54,0.31-0.75,0.64-0.15,0.23-0.3,0.87-0.46,1.92l-2.09,13.78c-0.16,1.07-0.21,1.75-0.13,2.04,0.08,0.28,0.27,0.55,0.58,0.81,0.32,0.25,0.78,0.42,1.36,0.51l0.7,0.1m28.43-6.9l-0.42,7.47-18.78,0.95-0.03-0.57,0.7-0.04c0.61-0.03,1.1-0.16,1.47-0.4,0.26-0.16,0.45-0.42,0.58-0.78,0.1-0.26,0.13-0.92,0.07-1.98l-0.71-13.92c-0.05-1.08-0.14-1.75-0.27-2.02-0.13-0.26-0.38-0.48-0.74-0.66-0.35-0.19-0.83-0.27-1.42-0.24l-0.7,0.03-0.03-0.58,11.28-0.57,0.03,0.58-0.92,0.04c-0.62,0.03-1.1,0.17-1.47,0.41-0.26,0.16-0.46,0.42-0.6,0.78-0.1,0.25-0.12,0.91-0.07,1.97l0.69,13.49c0.05,1.08,0.15,1.77,0.29,2.06s0.4,0.49,0.77,0.62c0.26,0.08,0.89,0.09,1.89,0.04l1.77-0.09c1.12-0.05,2.05-0.3,2.77-0.73,0.73-0.44,1.35-1.09,1.84-1.97,0.51-0.88,0.97-2.17,1.37-3.86l0.64-0.03m20.55-3.57l-7.17,2.14-0.26,2.24c-0.08,0.74-0.06,1.32,0.07,1.75,0.17,0.57,0.52,0.92,1.06,1.05,0.32,0.08,1.02,0.01,2.1-0.23l0.17,0.55-6.76,2.02-0.16-0.55c0.69-0.33,1.2-0.81,1.53-1.44,0.32-0.64,0.59-1.83,0.82-3.59l2.42-18.36,0.28-0.09,12.3,14.46c1.17,1.37,2.04,2.19,2.61,2.47,0.43,0.2,0.96,0.24,1.6,0.11l0.16,0.55-9.82,2.93-0.16-0.55,0.4-0.12c0.79-0.24,1.31-0.51,1.56-0.83,0.18-0.22,0.22-0.48,0.13-0.78-0.06-0.18-0.14-0.36-0.26-0.53-0.04-0.09-0.31-0.41-0.78-0.99l-1.84-2.21m-0.84-0.95l-5.11-6.09-1.02,7.92,6.13-1.83m27.08-27.59l2.72,5.05-0.5,0.26c-0.92-1-1.69-1.66-2.32-1.98-0.64-0.32-1.35-0.46-2.13-0.43-0.44,0.02-1.1,0.27-1.97,0.74l-1.39,0.74,7.74,14.4c0.51,0.95,0.89,1.52,1.11,1.71,0.24,0.18,0.56,0.28,0.96,0.3,0.41,0,0.88-0.14,1.41-0.42l0.62-0.34,0.27,0.51-9.77,5.26-0.27-0.51,0.62-0.33c0.54-0.3,0.92-0.63,1.15-1,0.17-0.25,0.24-0.57,0.21-0.96-0.02-0.28-0.28-0.88-0.78-1.82l-7.74-14.39-1.35,0.72c-1.26,0.68-2.03,1.44-2.31,2.27-0.4,1.18-0.33,2.51,0.2,4l-0.53,0.28-2.71-5.05,16.76-9.01m12.71-7.54l5.19,6.89,0.34-0.26c1.07-0.81,1.6-1.73,1.57-2.77s-0.47-2.26-1.33-3.68l0.48-0.35,6.68,8.85-0.47,0.36c-0.83-0.89-1.64-1.52-2.43-1.89-0.78-0.38-1.46-0.51-2.04-0.4-0.59,0.11-1.28,0.46-2.09,1.07l3.59,4.77c0.71,0.93,1.17,1.47,1.4,1.62,0.24,0.15,0.52,0.2,0.84,0.17s0.72-0.22,1.2-0.59l1.01-0.76c1.58-1.19,2.57-2.51,2.96-3.96,0.41-1.45,0.25-3.08-0.46-4.89l0.46-0.35,3.3,5.95-14.62,11.03-0.35-0.46,0.56-0.43c0.49-0.37,0.82-0.75,0.99-1.15,0.12-0.28,0.14-0.61,0.04-0.98-0.06-0.27-0.41-0.83-1.04-1.67l-8.4-11.13c-0.58-0.77-0.95-1.22-1.12-1.36-0.31-0.23-0.63-0.34-0.97-0.33-0.5,0.01-1.02,0.22-1.56,0.63l-0.57,0.42-0.34-0.46,14.15-10.68,3.78,5-0.48,0.36c-1.16-1.04-2.16-1.66-3-1.86s-1.75-0.13-2.74,0.22c-0.57,0.2-1.5,0.79-2.78,1.75l-1.75,1.32"/>
<path id="path2329" style="fill:none;" d="M648.84,366.09c69.25,56.16,137.12,57.19,203.53,0"/>
</svg>
