<?xml version="1.0" encoding="UTF-8" standalone="no"?>
<svg id="svg2" xmlns:rdf="http://www.w3.org/1999/02/22-rdf-syntax-ns#" xmlns="http://www.w3.org/2000/svg" viewBox="0 0 2880 1440" version="1.0" xmlns:cc="http://creativecommons.org/ns#" xmlns:xlink="http://www.w3.org/1999/xlink" xmlns:dc="http://purl.org/dc/elements/1.1/">
<metadata id="metadata21">
<rdf:RDF>
<cc:Work rdf:about="">
<dc:format>image/svg+xml</dc:format>
<dc:type rdf:resource="http://purl.org/dc/dcmitype/StillImage"/>
<dc:title/>
</cc:Work>
</rdf:RDF>
</metadata>
<rect id="rect4" width="2880" fill="#ce1126" height="1440"/>
<rect id="rect6" width="1440" fill="#002b7f" height="720"/>
<polygon id="polygon8" points="0,-1,0.58778,0.80902,-0.95106,-0.30902,0.95106,-0.30902,-0.58778,0.80902" transform="translate(720,604.93494) scale(105.14622)" fill="#fff"/>
<polygon id="p" points="0,-1,0.58778,0.80902,-0.95106,-0.30902,0.95106,-0.30902,-0.58778,0.80902" fill="#fff" transform="translate(500,292.918) scale(84.116958,82.917961)"/>
<polygon id="polygon11" points="0,-1,0.58778,0.80902,-0.95106,-0.30902,0.95106,-0.30902,-0.58778,0.80902" transform="translate(945,257.3901) scale(78.859659,77.390097)" fill="#fff"/>
<use id="use13" y="-180" x="220" xlink:href="#p"/>
<polygon id="polygon15" points="0,-1,0.58778,0.80902,-0.95106,-0.30902,0.95106,-0.30902,-0.58778,0.80902" transform="translate(830,417.46729) scale(52.573095)" fill="#fff"/>
</svg>
