<?xml version="1.0" encoding="utf-8"?>
<!-- Generator: Adobe Illustrator 19.1.0, SVG Export Plug-In . SVG Version: 6.00 Build 0)  -->
<svg version="1.1" id="Layer_1_copy" xmlns="http://www.w3.org/2000/svg" xmlns:xlink="http://www.w3.org/1999/xlink" x="0px"
	 y="0px" viewBox="0 0 400 350" style="enable-background:new 0 0 400 350;" xml:space="preserve">
<style type="text/css">
	.st0{fill:#FFFFFF;}
</style>
<g>
	<path class="st0" d="M4.4,69.3l16.3,7.4v72h0.5c4.4-5.5,9.6-9.8,15.6-12.9c5.9-3,12.4-4.6,19.4-4.6c7.6,0,14.6,1.4,21,4.1
		c6.3,2.7,11.7,6.4,16.2,11.2c4.4,4.8,8,10.5,10.4,17.1c2.5,6.6,3.7,13.7,3.7,21.4c0,7.7-1.3,14.9-3.7,21.4
		c-2.5,6.6-6,12.3-10.3,17.1c-4.3,4.8-9.6,8.5-15.6,11.2c-6,2.7-12.4,4.1-19.2,4.1c-8.8,0-16.4-2-23.1-6C29,229,24.1,224,21,218.2
		h-0.5v18.1H4.4V69.3z M20.7,185c0,5.4,0.8,10.4,2.3,15c1.6,4.6,4,8.7,7,12.1c3,3.4,6.7,6.1,10.9,8.1s9,2.9,14.3,2.9
		s10.1-0.9,14.3-2.9c4.2-2,7.8-4.7,10.9-8.1c3-3.4,5.4-7.5,7-12.1c1.6-4.6,2.3-9.6,2.3-15s-0.8-10.4-2.3-15c-1.6-4.6-4-8.7-7-12.1
		c-3-3.4-6.7-6.1-10.9-8.1c-4.2-2-9-2.9-14.3-2.9s-10.1,0.9-14.3,2.9c-4.2,2-7.8,4.7-10.9,8.1s-5.4,7.5-7,12.1
		C21.5,174.5,20.7,179.6,20.7,185z"/>
	<path class="st0" d="M130.2,100.8c0-3.4,1.2-6.3,3.4-8.8c2.3-2.5,5.2-3.7,8.4-3.7c3.3,0,6.1,1.3,8.4,3.7c2.3,2.5,3.4,5.4,3.4,8.8
		c0,3.6-1.2,6.7-3.3,9c-2.2,2.3-5,3.5-8.5,3.5c-3.5,0-6.3-1.2-8.5-3.5C131.3,107.3,130.2,104.4,130.2,100.8z M134,133.8h16.3v102.4
		H134V133.8z"/>
	<path class="st0" d="M182.4,158c0-4.7,0-21,0-24.3h15c0,2.8,0,13.9,0,16.9h0.5c1.1-2.5,2.7-4.9,4.7-7.3c2-2.3,4.4-4.4,7.1-6.2
		c2.8-1.9,5.9-3.3,9.4-4.3c3.5-1.1,7.3-1.6,11.2-1.6c6.4,0,11.9,1.1,16.5,3c4.7,2,8.5,4.9,11.6,8.5c3,3.6,5.3,8.1,6.8,13.2
		c1.4,5.2,2.2,10.9,2.2,17v63.2h-16.3v-61.5c0-8.7-1.8-15.3-5.4-20.4c-3.6-4.9-9.2-7.5-16.9-7.5c-5.3,0-9.8,0.9-13.7,2.8
		c-3.9,1.9-6.9,4.6-9.4,8.1c-2.5,3.5-4.2,7.6-5.4,12.5c-1.2,4.8-1.8,10.2-1.8,15.9V236h-16.3V158z"/>
	<path class="st0" d="M395.6,231.5c0,18.7-4.6,32.9-13.7,42.6c-9.1,9.7-22.2,14.5-39.4,14.5c-9.6,0-18.3-1.4-26-4.3s-15-8-22-15.1
		l11.7-14c5.2,5.9,10.5,10.3,16.4,13.2c5.7,3,12.4,4.4,19.9,4.4c7.3,0,13.2-1.2,18-3.4c4.8-2.2,8.5-5.4,11.4-9.2
		c2.8-3.9,4.7-8.3,5.9-13.2c1.1-4.9,1.6-10.2,1.6-15.6v-13.1h-0.5c-3.9,6.6-9,11.4-15.2,14.4c-6.2,3-12.6,4.6-19.2,4.6
		c-7.6,0-14.6-1.3-21.1-4c-6.4-2.6-11.8-6.3-16.5-10.9c-4.6-4.7-8.1-10.2-10.7-16.6c-2.5-6.4-3.7-13.5-3.7-21
		c0-8.3,1.3-15.8,3.7-22.6c2.5-6.7,6-12.4,10.5-17c4.6-4.6,9.9-8.1,16.4-10.7c6.4-2.5,13.5-3.7,21.3-3.7c3.3,0,6.7,0.4,9.9,1.2
		c3.3,0.8,6.6,2,9.7,3.7c3.2,1.6,6,3.7,8.4,6.3c2.5,2.6,4.6,5.5,6.2,8.9h0.5v-17.6h16.3v98.1H395.6z M310.1,185
		c0,5.3,0.9,10.1,2.7,14.5c1.8,4.4,4.2,8.3,7.4,11.6c3.2,3.3,6.8,5.9,10.9,7.7c4.2,1.9,8.7,2.8,13.3,2.8c5.5,0,10.5-1.1,14.7-3
		c4.3-2,8-4.8,10.9-8.2s5.3-7.4,6.8-11.8c1.5-4.4,2.3-9.1,2.3-14.2c0-5.5-0.8-10.7-2.5-15.2c-1.6-4.6-4-8.5-7.1-11.9
		c-3-3.4-6.8-6-11-7.7c-4.3-1.9-9-2.7-14.2-2.7s-9.8,0.9-14,2.9c-4.2,2-7.8,4.7-10.9,8.1c-3,3.4-5.3,7.5-7,12.1
		C311,174.5,310.1,179.6,310.1,185z"/>
</g>
</svg>
