<?xml version="1.0" encoding="UTF-8" standalone="no"?>
<!-- Generator: Adobe Illustrator 15.0.2, SVG Export Plug-In . SVG Version: 6.00 Build 0)  -->

<svg
   xmlns:dc="http://purl.org/dc/elements/1.1/"
   xmlns:cc="http://creativecommons.org/ns#"
   xmlns:rdf="http://www.w3.org/1999/02/22-rdf-syntax-ns#"
   xmlns:svg="http://www.w3.org/2000/svg"
   xmlns="http://www.w3.org/2000/svg"
   xmlns:sodipodi="http://sodipodi.sourceforge.net/DTD/sodipodi-0.dtd"
   xmlns:inkscape="http://www.inkscape.org/namespaces/inkscape"
   id="Layer_1"
   enable-background="new 0 0 600 356.982"
   xml:space="preserve"
   viewBox="0 0 105 64"
   version="1.1"
   y="0px"
   x="0px"
   inkscape:version="0.91 r13725"
   sodipodi:docname="cost_guard.off.svg"><defs
   id="defs73" /><sodipodi:namedview
   pagecolor="#ffffff"
   bordercolor="#666666"
   borderopacity="1"
   objecttolerance="10"
   gridtolerance="10"
   guidetolerance="10"
   inkscape:pageopacity="0"
   inkscape:pageshadow="2"
   inkscape:window-width="1920"
   inkscape:window-height="1018"
   id="namedview71"
   showgrid="false"
   inkscape:zoom="2.8190476"
   inkscape:cx="-57.466216"
   inkscape:cy="31.29054"
   inkscape:window-x="1672"
   inkscape:window-y="-8"
   inkscape:window-maximized="1"
   inkscape:current-layer="Layer_1"
   units="in" /><metadata
   id="metadata141"><rdf:RDF><cc:Work
       rdf:about=""><dc:format>image/svg+xml</dc:format><dc:type
         rdf:resource="http://purl.org/dc/dcmitype/StillImage" /><dc:title></dc:title></cc:Work></rdf:RDF></metadata>
<g
   id="g3"
   transform="matrix(0.22909049,0,0,0.22894552,-16.889314,-8.4604912)">
	<g
   id="g5">
		<polygon
   id="polygon7"
   style="fill:#dc3932"
   points="279.07,9 115.46,344.45 414.29,344.45 577.89,9 " />
		<g
   id="g9">
			<path
   id="path11"
   style="fill:#ffffff"
   d="m 320.08,77.612 0.662,0.643 10.951,10.619 0.676,0.649 -0.648,0.689 -14.678,15.712 c -0.594,0.643 -0.656,1.61 -0.148,2.327 0.352,0.501 0.92,0.764 1.502,0.764 0.242,0 0.5,-0.054 0.736,-0.155 8.875,-3.95 18.377,-5.952 28.227,-5.952 9.861,0 19.357,2.009 28.246,5.966 0.242,0.108 0.5,0.155 0.75,0.155 0.574,0 1.15,-0.271 1.502,-0.771 0.508,-0.704 0.445,-1.684 -0.156,-2.327 l -14.684,-15.719 -0.643,-0.689 0.668,-0.649 10.945,-10.619 0.67,-0.643 0.662,0.643 23.35,22.659 c 0.352,0.331 0.816,0.521 1.277,0.521 0.223,0 0.439,-0.041 0.648,-0.108 0.664,-0.257 1.123,-0.866 1.191,-1.569 0.352,-3.998 2.096,-7.751 4.924,-10.585 3.227,-3.219 7.508,-4.992 12.08,-4.992 4.566,0 8.854,1.772 12.088,4.992 6.648,6.663 6.648,17.491 0,24.161 -2.748,2.732 -6.236,4.417 -10.086,4.876 -0.703,0.082 -1.305,0.555 -1.535,1.224 -0.217,0.67 -0.047,1.42 0.467,1.915 l 22.869,22.199 0.682,0.683 -0.676,0.676 -10.375,10.376 -0.615,0.622 -0.67,-0.582 -18.297,-15.618 c -0.33,-0.291 -0.77,-0.447 -1.189,-0.447 -0.393,0 -0.791,0.129 -1.129,0.393 -0.684,0.534 -0.908,1.475 -0.529,2.266 4.633,9.49 6.988,19.724 6.988,30.41 0,14.062 -4.154,27.577 -12.033,39.075 -0.494,0.724 -0.406,1.711 0.223,2.34 l 10.16,10.214 c 0.297,0.298 0.975,0.792 2.178,0.792 1.129,0 2.469,-0.427 4.111,-1.293 0.041,-0.027 0.096,-0.047 0.143,-0.088 1.049,-0.676 2.016,-1.467 2.881,-2.326 3.471,-3.471 4.432,-7.379 4.674,-8.895 0.115,-0.689 -0.168,-1.38 -0.73,-1.793 -0.318,-0.236 -0.697,-0.352 -1.082,-0.352 -0.283,0 -0.574,0.061 -0.832,0.196 l -7.094,3.612 c 0.885,-2.401 1.926,-5.614 2.82,-9.375 1.643,-7.075 2.969,-17.396 0.404,-27.65 7.672,0.684 15.016,4.309 21.861,10.802 3.855,3.659 6.561,7.339 7.947,9.401 l -8.354,4.254 c -0.852,0.434 -1.23,1.448 -0.873,2.334 1.016,2.49 3.633,11.601 -5.289,24.363 -8.516,12.162 -8.664,22.463 -8.102,27.211 -0.934,-0.107 -2.084,-0.176 -3.438,-0.176 -5.105,0 -13.297,1.082 -23.369,6.311 0,0 -0.012,0.014 -0.025,0.014 -7.758,4.18 -15.523,5.06 -20.678,5.06 -3.971,0 -6.709,-0.521 -7.217,-0.616 -0.129,-0.026 -0.244,-0.033 -0.373,-0.033 -0.621,0 -1.225,0.311 -1.555,0.859 l -5.635,9.09 c -1.807,-1.379 -4.951,-4.023 -8.117,-7.73 -4.037,-4.729 -8.873,-12.135 -9.982,-21.441 3.322,0.636 7.17,0.961 11.471,0.961 10.031,0 20.277,-1.712 25.865,-2.814 l -3.348,5.391 c -0.393,0.629 -0.365,1.447 0.074,2.057 0.346,0.473 0.906,0.758 1.488,0.758 0.143,0 0.291,-0.021 0.432,-0.055 2.348,-0.574 8.104,-2.178 10.803,-4.883 0.291,-0.291 0.549,-0.582 0.752,-0.887 1.074,-1.521 1.473,-3.043 1.209,-4.518 -0.297,-1.671 -1.379,-2.68 -1.826,-3.037 l -8.725,-8.732 c -0.359,-0.352 -0.832,-0.527 -1.305,-0.527 -0.352,0 -0.705,0.088 -1.002,0.297 -11.248,7.366 -24.363,11.256 -37.938,11.256 -13.582,0 -26.691,-3.89 -37.932,-11.256 -0.311,-0.209 -0.664,-0.311 -1.016,-0.311 -0.467,0 -0.939,0.189 -1.291,0.541 l -8.74,8.732 c -0.445,0.357 -1.521,1.366 -1.825,3.037 -0.258,1.475 0.142,2.996 1.196,4.518 0.224,0.305 0.474,0.602 0.765,0.887 2.7,2.705 8.456,4.309 10.801,4.883 0.15,0.034 0.291,0.055 0.434,0.055 0.582,0 1.137,-0.285 1.488,-0.758 0.445,-0.609 0.467,-1.428 0.074,-2.057 l -3.342,-5.391 c 5.588,1.103 15.82,2.814 25.865,2.814 4.295,0 8.15,-0.325 11.479,-0.961 -1.123,9.307 -5.959,16.713 -9.998,21.441 -3.158,3.707 -6.311,6.352 -8.109,7.73 l -5.641,-9.09 c -0.332,-0.549 -0.928,-0.859 -1.549,-0.859 -0.135,0 -0.25,0.007 -0.371,0.033 -0.516,0.096 -3.254,0.616 -7.219,0.616 -5.154,0 -12.925,-0.88 -20.69,-5.06 -0.007,0 -0.014,-0.014 -0.027,-0.014 -10.058,-5.229 -18.262,-6.311 -23.369,-6.311 -1.346,0 -2.488,0.068 -3.422,0.176 0.555,-4.748 0.405,-15.049 -8.11,-27.211 -8.921,-12.763 -6.304,-21.873 -5.29,-24.363 0.366,-0.886 -0.02,-1.9 -0.859,-2.334 l -8.367,-4.254 c 1.373,-2.063 4.092,-5.742 7.947,-9.401 6.852,-6.493 14.184,-10.118 21.867,-10.802 -2.576,10.254 -1.258,20.575 0.413,27.65 0.872,3.761 1.921,6.974 2.813,9.375 l -7.095,-3.612 c -0.264,-0.136 -0.555,-0.196 -0.846,-0.196 -0.379,0 -0.758,0.115 -1.075,0.352 -0.575,0.413 -0.846,1.104 -0.73,1.779 0.25,1.529 1.21,5.424 4.681,8.908 0.858,0.859 1.839,1.65 2.874,2.326 0.048,0.041 0.102,0.061 0.149,0.088 1.637,0.866 2.976,1.293 4.105,1.293 1.21,0 1.88,-0.494 2.178,-0.792 l 10.173,-10.214 c 0.622,-0.629 0.71,-1.609 0.216,-2.34 -7.865,-11.498 -12.025,-25.013 -12.025,-39.075 0,-10.68 2.34,-20.9 6.973,-30.39 0.38,-0.785 0.163,-1.725 -0.54,-2.259 -0.325,-0.264 -0.718,-0.393 -1.116,-0.393 -0.426,0 -0.859,0.143 -1.197,0.447 l -18.263,15.591 -0.669,0.582 -0.615,-0.622 -10.376,-10.376 -0.683,-0.676 0.697,-0.683 22.869,-22.199 c 0.5,-0.494 0.683,-1.245 0.46,-1.915 -0.237,-0.669 -0.832,-1.143 -1.536,-1.224 -3.854,-0.46 -7.338,-2.144 -10.078,-4.876 -3.212,-3.22 -4.984,-7.515 -4.984,-12.087 0,-4.565 1.772,-8.854 4.984,-12.073 3.227,-3.219 7.521,-4.992 12.081,-4.992 4.565,0 8.86,1.772 12.079,4.992 2.828,2.834 4.58,6.588 4.925,10.585 0.061,0.704 0.527,1.312 1.19,1.569 0.21,0.067 0.426,0.108 0.643,0.108 0.467,0 0.934,-0.189 1.285,-0.521 l 23.341,-22.659 0.673,-0.643 m -46.217,30.856 c 0.312,0 0.616,-0.067 0.894,-0.23 0.466,-0.25 0.791,-0.704 0.926,-1.231 0.257,-1.251 0.88,-2.408 1.8,-3.321 1.129,-1.123 2.624,-1.813 4.214,-1.934 0.541,-0.047 1.021,-0.318 1.339,-0.751 0.318,-0.44 0.433,-0.988 0.312,-1.515 -0.325,-1.373 -1.021,-2.625 -2.022,-3.619 -1.434,-1.441 -3.349,-2.225 -5.377,-2.225 -2.029,0 -3.944,0.784 -5.385,2.225 -2.962,2.969 -2.962,7.785 0,10.761 0.771,0.757 1.65,1.333 2.651,1.711 0.208,0.089 0.438,0.129 0.648,0.129 m 147,0 c 0.225,0 0.439,-0.034 0.656,-0.129 1.002,-0.378 1.887,-0.954 2.652,-1.711 2.963,-2.976 2.963,-7.792 0,-10.761 -1.441,-1.441 -3.355,-2.225 -5.385,-2.225 -2.035,0 -3.943,0.784 -5.377,2.225 -1.002,0.994 -1.697,2.246 -2.023,3.619 -0.121,0.527 -0.014,1.075 0.299,1.515 0.318,0.433 0.818,0.704 1.352,0.751 1.598,0.122 3.086,0.812 4.215,1.934 0.914,0.914 1.535,2.07 1.813,3.328 0.115,0.521 0.447,0.974 0.914,1.224 0.277,0.163 0.58,0.23 0.884,0.23"
   inkscape:connector-curvature="0" />
			<g
   id="g13">
				<path
   id="path15"
   style="fill:#0072af"
   d="m 347.36,216.51 c -24.336,0 -44.135,-19.792 -44.135,-44.128 0,-24.336 19.799,-44.134 44.135,-44.134 24.336,0 44.127,19.798 44.127,44.134 0,24.336 -19.791,44.128 -44.127,44.128 z m 0,-85.238 c -22.666,0 -41.111,18.452 -41.111,41.11 0,22.665 18.445,41.104 41.111,41.104 22.664,0 41.104,-18.439 41.104,-41.104 0,-22.658 -18.44,-41.11 -41.104,-41.11 z"
   inkscape:connector-curvature="0" />
			</g>
			<g
   id="g17">
				<path
   id="path19"
   style="fill:none"
   d="m 271.87,97.227 c -2.245,2.246 -2.245,5.898 0,8.158 0.582,0.581 1.271,1.014 1.995,1.298 0.339,-1.556 1.103,-3.037 2.313,-4.248 1.488,-1.495 3.409,-2.32 5.377,-2.469 -0.243,-1.001 -0.75,-1.955 -1.542,-2.739 -2.238,-2.252 -5.891,-2.252 -8.143,0 z"
   inkscape:connector-curvature="0" />
				<path
   id="path21"
   style="fill:none"
   d="m 407.48,134.1 24.078,20.548 10.363,-10.362 -24.871,-24.16 -3.281,-3.172 -0.514,-0.515 c 0.393,0.149 0.777,0.278 1.176,0.379 1.252,0.365 2.537,0.554 3.83,0.595 4.301,0.149 8.65,-1.434 11.932,-4.714 6.297,-6.29 6.297,-16.51 0,-22.801 -6.299,-6.304 -16.512,-6.304 -22.809,0 -3.402,3.409 -4.965,7.948 -4.693,12.412 0.115,1.691 0.486,3.369 1.129,4.978 l -3.801,-3.686 -25.366,-24.613 -10.949,10.619 20.074,21.481 c 5.031,3.003 9.719,6.649 13.973,10.897 3.721,3.727 6.969,7.779 9.729,12.114 z m 2.82,-33.88 c 0.242,-1.82 1.041,-3.571 2.434,-4.965 3.334,-3.341 8.773,-3.341 12.113,0 3.336,3.335 3.336,8.766 0,12.094 -1.102,1.109 -2.447,1.84 -3.861,2.219 -0.926,0.25 -1.908,0.338 -2.867,0.257 0.217,-0.927 0.203,-1.887 -0.033,-2.813 -0.258,-0.94 -0.752,-1.854 -1.51,-2.591 -0.939,-0.954 -2.131,-1.501 -3.361,-1.65 -0.926,-0.108 -1.887,0 -2.787,0.345 -0.196,-0.955 -0.251,-1.935 -0.128,-2.896 z"
   inkscape:connector-curvature="0" />
				<path
   id="path23"
   style="fill:none"
   d="m 310.98,111.07 20.047,-21.461 -10.944,-10.619 -25.365,24.613 -3.794,3.686 c 0.643,-1.609 1.008,-3.287 1.109,-4.978 0.284,-4.464 -1.278,-9.002 -4.681,-12.412 -6.304,-6.304 -16.511,-6.304 -22.808,0 -6.297,6.291 -6.297,16.511 0,22.801 3.28,3.281 7.616,4.863 11.932,4.714 1.285,-0.041 2.584,-0.23 3.828,-0.595 0.399,-0.102 0.791,-0.23 1.184,-0.379 l -0.521,0.515 -3.273,3.172 -24.884,24.16 10.375,10.362 24.024,-20.528 c 2.767,-4.336 6.034,-8.401 9.761,-12.134 4.256,-4.255 8.965,-7.907 14.01,-10.917 z m -26.678,-7.954 c -0.893,-0.345 -1.847,-0.453 -2.779,-0.345 -1.238,0.149 -2.415,0.697 -3.369,1.65 -0.75,0.737 -1.244,1.65 -1.501,2.591 -0.237,0.926 -0.25,1.887 -0.034,2.813 -0.953,0.082 -1.935,-0.007 -2.874,-0.257 -1.414,-0.379 -2.739,-1.109 -3.855,-2.219 -3.328,-3.328 -3.328,-8.759 0,-12.094 3.341,-3.341 8.766,-3.341 12.107,0 1.393,1.387 2.204,3.145 2.428,4.965 0.128,0.962 0.087,1.942 -0.123,2.896 z"
   inkscape:connector-curvature="0" />
				<path
   id="path25"
   style="fill:none"
   d="m 420.86,106.68 c 0.736,-0.277 1.412,-0.717 2,-1.298 2.26,-2.259 2.26,-5.912 0,-8.158 -2.244,-2.252 -5.891,-2.252 -8.148,0 -0.771,0.785 -1.285,1.738 -1.529,2.739 1.961,0.149 3.889,0.974 5.377,2.469 1.211,1.211 1.968,2.692 2.3,4.248 z"
   inkscape:connector-curvature="0" />
				<path
   id="path27"
   style="fill:none"
   d="m 415.82,172.38 c 0,-13.426 -3.883,-25.959 -10.586,-36.531 -5.811,-9.172 -13.75,-16.882 -23.119,-22.429 -10.193,-6.033 -22.084,-9.509 -34.758,-9.509 -12.676,0 -24.547,3.456 -34.732,9.482 -9.395,5.553 -17.343,13.284 -23.167,22.49 -6.689,10.565 -10.572,23.085 -10.572,36.498 0,37.749 30.715,68.464 68.471,68.464 37.748,-0.001 68.463,-30.716 68.463,-68.465 z"
   inkscape:connector-curvature="0" />
				<path
   id="path29"
   style="fill:none"
   d="m 441.4,201.51 9.631,-4.836 c -1.467,-2.09 -3.922,-5.256 -7.23,-8.388 -3.273,-3.084 -6.723,-5.553 -10.268,-7.317 -3.158,-1.563 -6.391,-2.584 -9.664,-3.045 2.178,10.012 0.891,19.899 -0.725,26.771 -0.635,2.727 -1.359,5.174 -2.049,7.238 l 8.799,-4.479 0.264,4.479 c -0.176,1.264 -1.035,5.843 -5.012,9.827 -0.92,0.92 -1.928,1.738 -3.037,2.455 l -0.109,0.067 -0.113,0.068 c -4.432,2.347 -6.541,1.244 -7.447,0.277 l -9.828,-9.801 c -2.068,2.786 -4.363,5.444 -6.859,7.94 -2.785,2.78 -5.748,5.296 -8.887,7.548 l 8.285,8.32 c 0.588,0.473 1.949,1.813 2.293,3.733 0.217,1.196 0.684,4.004 -2.549,6.257 -3.221,2.252 -8.172,6.27 -18.201,6.871 1.832,-3.023 5.627,-8.982 5.627,-8.982 -2.584,0.48 -21.84,3.714 -32.953,1.678 1.535,10.734 11.49,21.922 16.076,25.615 l 5.92,-9.666 c 0,0 12.275,3.984 29.18,-3.639 l 0.02,-0.014 0.02,-0.007 c 11.83,-6.135 21.15,-6.689 26.184,-6.338 -0.393,-5.31 -0.975,-12.134 8.379,-26.704 5.141,-8.008 5.676,-13.811 5.594,-17.693 -0.049,-2.696 -1.341,-8.235 -1.341,-8.235 z"
   inkscape:connector-curvature="0" />
				<path
   id="path31"
   style="fill:none"
   d="m 290.13,214.86 -9.713,9.774 c -0.906,0.967 -3.017,2.069 -7.447,-0.277 l -0.122,-0.068 -0.108,-0.067 c -1.088,-0.717 -2.116,-1.535 -3.023,-2.455 -3.983,-3.984 -4.842,-8.563 -5.005,-9.827 l 0.244,-4.479 8.8,4.479 c -0.684,-2.064 -1.407,-4.512 -2.043,-7.238 -1.616,-6.872 -2.908,-16.76 -0.724,-26.771 -3.28,0.461 -6.521,1.482 -9.666,3.045 -3.538,1.765 -7,4.233 -10.26,7.317 -3.314,3.132 -5.77,6.298 -7.251,8.388 l 9.652,4.836 c 0,0 -1.285,5.539 -1.353,8.238 -0.068,3.883 0.453,9.686 5.593,17.693 9.369,14.57 8.766,21.395 8.38,26.704 5.039,-0.352 14.366,0.203 26.196,6.338 l 0.014,0.007 0.021,0.014 c 16.896,7.623 29.185,3.639 29.185,3.639 l 5.92,9.666 c 4.564,-3.693 14.541,-14.881 16.057,-25.615 -11.1,2.036 -30.363,-1.197 -32.934,-1.678 0,0 3.795,5.959 5.621,8.982 -10.018,-0.602 -14.975,-4.619 -18.195,-6.871 -3.227,-2.253 -2.78,-5.061 -2.557,-6.257 0.352,-1.921 1.712,-3.261 2.293,-3.733 l 8.265,-8.232 c -3.172,-2.266 -6.189,-4.822 -9.002,-7.636 -2.489,-2.498 -4.775,-5.136 -6.838,-7.916 z"
   inkscape:connector-curvature="0" />
				<path
   id="path33"
   style="fill:#0072af"
   d="m 455.05,197.76 c 0,0 -13.014,-22.727 -34.908,-22.889 6.5,20.664 -4.369,42.896 -4.369,42.896 l 11.531,-5.871 c -0.217,1.271 -1.055,4.781 -4.174,7.9 -0.723,0.723 -1.582,1.434 -2.584,2.082 -3.313,1.76 -4.111,0.826 -4.111,0.826 l -10.16,-10.221 c 8.023,-11.722 12.338,-25.574 12.338,-40.103 0,-11.004 -2.475,-21.617 -7.17,-31.229 l 18.283,15.631 1.969,1.677 1.832,-1.833 10.363,-10.362 2.016,-2.016 -2.043,-1.975 -22.869,-22.199 c 4.092,-0.467 8.035,-2.272 11.174,-5.397 7.365,-7.373 7.365,-19.378 0,-26.758 -7.379,-7.372 -19.393,-7.372 -26.764,0 -3.268,3.274 -5.08,7.447 -5.459,11.729 l -23.35,-22.659 -1.947,-1.894 -1.941,1.894 -10.957,10.612 -1.961,1.915 1.865,2.002 14.699,15.726 c -9.01,-4.011 -18.838,-6.121 -28.996,-6.121 -10.146,0 -19.967,2.104 -28.971,6.115 l 14.678,-15.719 1.875,-2.002 -1.971,-1.915 -10.949,-10.619 -1.947,-1.887 -1.941,1.894 -23.349,22.659 c -0.379,-4.281 -2.185,-8.455 -5.459,-11.729 -7.379,-7.372 -19.378,-7.372 -26.757,0 -7.38,7.379 -7.38,19.385 0,26.758 3.118,3.125 7.081,4.931 11.16,5.397 l -22.869,22.199 -2.036,1.975 2.002,2.016 10.382,10.362 1.826,1.833 1.955,-1.677 18.27,-15.604 c -4.688,9.604 -7.163,20.204 -7.163,31.201 0,14.528 4.322,28.381 12.337,40.116 l -10.16,10.19 c 0,0 -0.798,0.934 -4.112,-0.826 -0.994,-0.648 -1.853,-1.359 -2.59,-2.082 -3.118,-3.119 -3.944,-6.629 -4.167,-7.9 l 11.532,5.871 c 0,0 -10.869,-22.232 -4.369,-42.896 -21.901,0.162 -34.909,22.889 -34.909,22.889 l 10.16,5.174 c -1.048,2.604 -4.011,12.527 5.485,26.109 11.113,15.895 7.332,28.407 7.332,28.407 0,0 11.315,-3.246 28.239,5.52 13.777,7.427 27.535,4.951 29.138,4.626 l 6.668,10.769 c 0,0 19.689,-12.872 20.678,-34.171 -16.361,4.288 -43.227,-2.226 -43.227,-2.226 l 5.619,9.07 c -1.744,-0.412 -7.5,-1.948 -9.935,-4.376 -0.21,-0.217 -0.386,-0.434 -0.541,-0.649 -2.307,-3.301 0.324,-5.106 0.324,-5.106 l 8.82,-8.82 c 11.486,7.521 24.898,11.56 38.947,11.56 14.033,0 27.453,-4.038 38.932,-11.56 l 8.82,8.82 c 0,0 2.637,1.806 0.324,5.106 -0.154,0.216 -0.33,0.433 -0.549,0.649 -2.428,2.428 -8.17,3.964 -9.928,4.376 l 5.621,-9.07 c 0,0 -26.867,6.514 -43.221,2.226 0.986,21.299 20.662,34.171 20.662,34.171 l 6.676,-10.769 c 1.604,0.325 15.361,2.801 29.139,-4.626 16.924,-8.766 28.24,-5.52 28.24,-5.52 0,0 -3.781,-12.513 7.332,-28.407 9.496,-13.582 6.539,-23.505 5.471,-26.109 l 10.175,-5.173 z M 363.7,89.61 l 10.95,-10.619 25.365,24.613 3.801,3.686 c -0.643,-1.609 -1.014,-3.287 -1.129,-4.978 -0.271,-4.464 1.291,-9.002 4.693,-12.412 6.297,-6.304 16.51,-6.304 22.809,0 6.297,6.291 6.297,16.511 0,22.801 -3.281,3.281 -7.631,4.863 -11.932,4.714 -1.293,-0.041 -2.578,-0.23 -3.83,-0.595 -0.398,-0.102 -0.783,-0.23 -1.176,-0.379 l 0.514,0.515 3.281,3.172 24.871,24.16 -10.363,10.362 -24.078,-20.548 c -2.76,-4.335 -6.008,-8.387 -9.729,-12.114 -4.254,-4.248 -8.941,-7.894 -13.973,-10.897 l -20.07,-21.479 z m -100.52,65.04 -10.375,-10.362 24.884,-24.16 3.273,-3.172 0.521,-0.515 c -0.393,0.149 -0.784,0.278 -1.184,0.379 -1.244,0.365 -2.543,0.554 -3.828,0.595 -4.315,0.149 -8.651,-1.434 -11.932,-4.714 -6.297,-6.29 -6.297,-16.51 0,-22.801 6.297,-6.304 16.504,-6.304 22.808,0 3.402,3.409 4.965,7.948 4.681,12.412 -0.102,1.691 -0.467,3.369 -1.109,4.978 l 3.794,-3.686 25.365,-24.613 10.943,10.619 -20.047,21.461 c -5.045,3.01 -9.754,6.662 -14.008,10.917 -3.727,3.733 -6.994,7.798 -9.761,12.134 L 263.18,154.65 Z m 34.523,83.987 c -0.581,0.473 -1.941,1.813 -2.293,3.733 -0.224,1.196 -0.67,4.004 2.557,6.257 3.22,2.252 8.177,6.27 18.195,6.871 -1.826,-3.023 -5.621,-8.982 -5.621,-8.982 2.57,0.48 21.834,3.714 32.934,1.678 -1.516,10.734 -11.492,21.922 -16.057,25.615 l -5.92,-9.666 c 0,0 -12.289,3.984 -29.185,-3.639 l -0.021,-0.014 -0.014,-0.007 c -11.83,-6.135 -21.157,-6.689 -26.196,-6.338 0.386,-5.31 0.988,-12.134 -8.38,-26.704 -5.14,-8.008 -5.661,-13.811 -5.593,-17.693 0.067,-2.699 1.353,-8.238 1.353,-8.238 l -9.652,-4.836 c 1.481,-2.09 3.937,-5.256 7.251,-8.388 3.26,-3.084 6.723,-5.553 10.26,-7.317 3.146,-1.563 6.386,-2.584 9.666,-3.045 -2.185,10.012 -0.893,19.899 0.724,26.771 0.636,2.727 1.359,5.174 2.043,7.238 l -8.8,-4.479 -0.244,4.479 c 0.163,1.264 1.021,5.843 5.005,9.827 0.907,0.92 1.936,1.738 3.023,2.455 l 0.108,0.067 0.122,0.068 c 4.431,2.347 6.541,1.244 7.447,0.277 l 9.713,-9.774 c 2.063,2.78 4.349,5.418 6.838,7.914 2.813,2.813 5.831,5.37 9.002,7.636 l -8.265,8.234 z m -18.818,-66.259 c 0,-13.413 3.883,-25.933 10.572,-36.498 5.823,-9.206 13.772,-16.937 23.167,-22.49 10.186,-6.026 22.057,-9.482 34.732,-9.482 12.674,0 24.564,3.476 34.758,9.509 9.369,5.547 17.309,13.257 23.119,22.429 6.703,10.572 10.586,23.105 10.586,36.531 0,37.749 -30.715,68.464 -68.463,68.464 -37.755,0.001 -68.471,-30.714 -68.471,-68.463 z m 158.25,55.064 c -9.354,14.57 -8.771,21.395 -8.379,26.704 -5.033,-0.352 -14.354,0.203 -26.184,6.338 l -0.02,0.007 -0.02,0.014 c -16.904,7.623 -29.18,3.639 -29.18,3.639 l -5.92,9.666 c -4.586,-3.693 -14.541,-14.881 -16.076,-25.615 11.113,2.036 30.369,-1.197 32.953,-1.678 0,0 -3.795,5.959 -5.627,8.982 10.029,-0.602 14.98,-4.619 18.201,-6.871 3.232,-2.253 2.766,-5.061 2.549,-6.257 -0.344,-1.921 -1.705,-3.261 -2.293,-3.733 l -8.285,-8.32 c 3.139,-2.252 6.102,-4.768 8.887,-7.548 2.496,-2.496 4.791,-5.154 6.859,-7.94 l 9.828,9.801 c 0.906,0.967 3.016,2.069 7.447,-0.277 l 0.113,-0.068 0.109,-0.067 c 1.109,-0.717 2.117,-1.535 3.037,-2.455 3.977,-3.984 4.836,-8.563 5.012,-9.827 l -0.264,-4.479 -8.799,4.479 c 0.689,-2.064 1.414,-4.512 2.049,-7.238 1.615,-6.872 2.902,-16.76 0.725,-26.771 3.273,0.461 6.506,1.482 9.664,3.045 3.545,1.765 6.994,4.233 10.268,7.317 3.309,3.132 5.764,6.298 7.23,8.388 l -9.631,4.836 c 0,0 1.291,5.539 1.338,8.238 0.084,3.879 -0.451,9.682 -5.591,17.69 z"
   inkscape:connector-curvature="0" />
				<path
   id="path35"
   style="fill:#0072af"
   d="m 281.99,95.258 c -3.342,-3.341 -8.767,-3.341 -12.107,0 -3.328,3.335 -3.328,8.766 0,12.094 1.116,1.109 2.441,1.84 3.855,2.219 0.939,0.25 1.921,0.338 2.874,0.257 -0.216,-0.927 -0.203,-1.887 0.034,-2.813 0.257,-0.94 0.751,-1.854 1.501,-2.591 0.954,-0.954 2.131,-1.501 3.369,-1.65 0.933,-0.108 1.887,0 2.779,0.345 0.21,-0.954 0.251,-1.935 0.122,-2.895 -0.223,-1.821 -1.035,-3.579 -2.427,-4.966 z m -5.818,7.177 c -1.211,1.21 -1.975,2.692 -2.313,4.248 -0.724,-0.284 -1.413,-0.717 -1.995,-1.298 -2.245,-2.259 -2.245,-5.912 0,-8.158 2.252,-2.252 5.905,-2.252 8.144,0 0.792,0.785 1.299,1.738 1.542,2.739 -1.969,0.149 -3.889,0.974 -5.378,2.469 z"
   inkscape:connector-curvature="0" />
				<path
   id="path37"
   style="fill:#0072af"
   d="m 413.21,102.77 c 1.23,0.149 2.422,0.697 3.361,1.65 0.758,0.737 1.252,1.65 1.51,2.591 0.236,0.926 0.25,1.887 0.033,2.813 0.959,0.082 1.941,-0.007 2.867,-0.257 1.414,-0.379 2.76,-1.109 3.861,-2.219 3.336,-3.328 3.336,-8.759 0,-12.094 -3.34,-3.341 -8.779,-3.341 -12.113,0 -1.393,1.394 -2.191,3.145 -2.434,4.965 -0.123,0.96 -0.068,1.941 0.127,2.895 0.901,-0.344 1.862,-0.452 2.788,-0.344 z m 1.496,-5.546 c 2.258,-2.252 5.904,-2.252 8.148,0 2.26,2.246 2.26,5.898 0,8.158 -0.588,0.581 -1.264,1.021 -2,1.298 -0.332,-1.556 -1.09,-3.037 -2.301,-4.248 -1.488,-1.495 -3.416,-2.32 -5.377,-2.469 0.245,-1.001 0.759,-1.955 1.53,-2.739 z"
   inkscape:connector-curvature="0" />
			</g>
			<g
   id="g39">
				<path
   id="path41"
   style="fill:none"
   d="m 362.06,167.5 0,31.627 c 1.475,-0.48 2.889,-1.021 4.186,-1.719 l 0,-29.909 -4.186,0 z"
   inkscape:connector-curvature="0" />
				<path
   id="path43"
   style="fill:none"
   d="m 370.45,193.97 c 2.092,-2.646 3.275,-6.312 3.682,-11.35 0.264,-3.39 -0.225,-5.885 -0.738,-8.53 -0.385,-1.996 -0.791,-4.052 -0.906,-6.588 l -2.037,0 0,26.468 z"
   inkscape:connector-curvature="0" />
				<path
   id="path45"
   style="fill:none"
   d="m 353.66,167.5 0,34.38 c 1.379,-0.575 2.779,-1.042 4.199,-1.468 l 0,-32.913 -4.199,0 z"
   inkscape:connector-curvature="0" />
				<path
   id="path47"
   style="fill:none"
   d="m 320.58,182.62 c 0.406,5.038 1.59,8.704 3.68,11.35 l 0,-26.467 -2.035,0 c -0.115,2.536 -0.514,4.592 -0.9,6.588 -0.522,2.644 -1.009,5.139 -0.745,8.529 z"
   inkscape:connector-curvature="0" />
				<path
   id="path49"
   style="fill:none"
   d="m 328.47,167.5 0,29.909 c 1.305,0.697 2.719,1.238 4.188,1.719 l 0,-31.627 -4.188,0 z"
   inkscape:connector-curvature="0" />
				<path
   id="path51"
   style="fill:none"
   d="m 336.86,167.5 0,32.913 c 1.414,0.426 2.828,0.893 4.193,1.475 l 0,-34.387 -4.193,0 z"
   inkscape:connector-curvature="0" />
				<path
   id="path53"
   style="fill:none"
   d="m 345.26,167.5 0,36.727 c 0.736,0.541 1.439,1.156 2.104,1.867 0.668,-0.711 1.365,-1.326 2.109,-1.867 l 0,-36.727 -4.213,0 z"
   inkscape:connector-curvature="0" />
				<path
   id="path55"
   style="fill:#dc3932"
   d="m 332.65,167.5 0,31.627 c 0.9,0.297 1.826,0.574 2.752,0.846 0.488,0.148 0.961,0.283 1.455,0.439 l 0,-32.913 -4.207,0 z"
   inkscape:connector-curvature="0" />
				<path
   id="path57"
   style="fill:#dc3932"
   d="m 324.26,167.5 0,26.467 c 0.439,0.541 0.92,1.061 1.428,1.521 0.859,0.758 1.785,1.38 2.779,1.92 l 0,-29.909 -4.207,0 z"
   inkscape:connector-curvature="0" />
				<path
   id="path59"
   style="fill:#dc3932"
   d="m 341.06,167.5 0,34.387 c 1.461,0.615 2.881,1.359 4.201,2.34 l 0,-36.727 -4.201,0 z"
   inkscape:connector-curvature="0" />
				<path
   id="path61"
   style="fill:#dc3932"
   d="m 366.24,167.5 0,29.909 c 1.002,-0.54 1.936,-1.162 2.781,-1.92 0.508,-0.461 0.994,-0.98 1.426,-1.521 l 0,-26.467 -4.207,0 z"
   inkscape:connector-curvature="0" />
				<path
   id="path63"
   style="fill:#dc3932"
   d="m 357.86,167.5 0,32.913 c 0.488,-0.156 0.969,-0.291 1.447,-0.439 0.936,-0.271 1.854,-0.549 2.754,-0.846 l 0,-31.627 -4.201,0 z"
   inkscape:connector-curvature="0" />
				<path
   id="path65"
   style="fill:#dc3932"
   d="m 349.47,167.5 0,36.727 c 1.313,-0.98 2.727,-1.725 4.188,-2.347 l 0,-34.38 -4.188,0 z"
   inkscape:connector-curvature="0" />
				<g
   id="g67">
					<path
   id="path69"
   style="fill:none"
   d="m 372.49,167.5 -50.262,0 c -0.115,2.536 -0.514,4.592 -0.9,6.588 -0.521,2.645 -1.008,5.14 -0.744,8.53 0.406,5.038 1.59,8.704 3.68,11.35 0.439,0.541 0.92,1.061 1.428,1.521 0.859,0.758 1.785,1.38 2.779,1.92 1.305,0.697 2.719,1.238 4.188,1.719 0.9,0.297 1.826,0.574 2.752,0.846 0.488,0.148 0.961,0.283 1.455,0.439 1.414,0.426 2.828,0.893 4.193,1.475 1.461,0.615 2.881,1.359 4.201,2.34 0.736,0.541 1.439,1.156 2.104,1.867 0.668,-0.711 1.365,-1.326 2.109,-1.867 1.313,-0.98 2.727,-1.725 4.188,-2.347 1.379,-0.575 2.779,-1.042 4.199,-1.468 0.488,-0.156 0.969,-0.291 1.447,-0.439 0.936,-0.271 1.854,-0.549 2.754,-0.846 1.475,-0.48 2.889,-1.021 4.186,-1.719 1.002,-0.54 1.936,-1.162 2.781,-1.92 0.508,-0.461 0.994,-0.98 1.426,-1.521 2.092,-2.646 3.275,-6.312 3.682,-11.35 0.264,-3.39 -0.225,-5.885 -0.738,-8.53 -0.386,-1.996 -0.792,-4.052 -0.908,-6.588 z"
   inkscape:connector-curvature="0" />
					<path
   id="path71"
   style="fill:#0072af"
   d="m 373.91,165.96 c 0,-10.579 3.734,-18.445 3.734,-18.445 l -60.57,0 c 0,0 3.732,7.866 3.732,18.445 0,0.534 -0.006,1.048 -0.033,1.542 -0.291,5.81 -2.117,9.111 -1.637,15.232 0.541,6.751 2.463,10.788 5.127,13.405 1.266,1.245 2.686,2.152 4.207,2.902 1.34,0.648 2.754,1.156 4.188,1.617 1.387,0.445 2.801,0.845 4.207,1.277 1.434,0.447 2.84,0.934 4.193,1.543 1.488,0.676 2.916,1.508 4.201,2.617 0.744,0.636 1.453,1.387 2.096,2.238 l 0.008,0.021 0.006,-0.021 c 0.648,-0.852 1.354,-1.603 2.104,-2.238 1.279,-1.109 2.699,-1.941 4.188,-2.617 1.352,-0.609 2.766,-1.096 4.199,-1.543 1.395,-0.433 2.814,-0.832 4.201,-1.277 1.434,-0.461 2.854,-0.969 4.186,-1.617 1.529,-0.75 2.949,-1.657 4.207,-2.902 2.666,-2.617 4.586,-6.654 5.129,-13.405 0.492,-6.121 -1.34,-9.422 -1.631,-15.232 -0.028,-0.493 -0.042,-1.007 -0.042,-1.542 z m 0.225,16.661 c -0.406,5.038 -1.59,8.704 -3.682,11.35 -0.432,0.541 -0.918,1.061 -1.426,1.521 -0.846,0.758 -1.779,1.38 -2.781,1.92 -1.297,0.697 -2.711,1.238 -4.186,1.719 -0.9,0.297 -1.818,0.574 -2.754,0.846 -0.479,0.148 -0.959,0.283 -1.447,0.439 -1.42,0.426 -2.82,0.893 -4.199,1.468 -1.461,0.622 -2.875,1.366 -4.188,2.347 -0.744,0.541 -1.441,1.156 -2.109,1.867 -0.664,-0.711 -1.367,-1.326 -2.104,-1.867 -1.32,-0.98 -2.74,-1.725 -4.201,-2.34 -1.365,-0.582 -2.779,-1.049 -4.193,-1.475 -0.494,-0.156 -0.967,-0.291 -1.455,-0.439 -0.926,-0.271 -1.852,-0.549 -2.752,-0.846 -1.469,-0.48 -2.883,-1.021 -4.188,-1.719 -0.994,-0.54 -1.92,-1.162 -2.779,-1.92 -0.508,-0.461 -0.988,-0.98 -1.428,-1.521 -2.09,-2.646 -3.273,-6.312 -3.68,-11.35 -0.264,-3.39 0.223,-5.885 0.744,-8.53 0.387,-1.996 0.785,-4.052 0.9,-6.588 l 50.262,0 c 0.115,2.536 0.521,4.592 0.906,6.588 0.515,2.645 1.004,5.14 0.74,8.53 z"
   inkscape:connector-curvature="0" />
				</g>
			</g>
			<g
   id="g73">
				<g
   id="g75">
					<path
   id="path77"
   style="fill:#0072af"
   d="m 313.26,223.94 3.732,-5.201 c 0.346,-0.467 0.65,-0.987 0.623,-1.563 -0.041,-0.765 -0.555,-1.481 -1.266,-1.995 -1.84,-1.313 -2.975,-0.236 -3.604,0.636 l -3.688,5.12 -2.807,-2.016 3.646,-5.08 c 0.697,-0.967 1.609,-1.914 2.725,-2.09 1.752,-0.318 3.775,0.818 5.086,1.759 4.926,3.544 3.098,6.128 2.064,7.556 l -3.6,4.984 -2.911,-2.11 z"
   inkscape:connector-curvature="0" />
					<path
   id="path79"
   style="fill:#0072af"
   d="m 303.52,216.39 -3.117,-3.789 3.449,-8.461 -6.189,5.141 -1.975,-2.408 8.32,-6.852 3.051,3.7 -3.639,8.745 6.445,-5.35 1.994,2.421 -8.339,6.853 z"
   inkscape:connector-curvature="0" />
					<path
   id="path81"
   style="fill:#0072af"
   d="m 294.18,203.98 -1.779,-3.199 9.436,-5.248 1.777,3.212 -9.434,5.235 z"
   inkscape:connector-curvature="0" />
					<path
   id="path83"
   style="fill:#0072af"
   d="m 291.96,194.74 1.366,3.673 -2.009,0.744 -4.005,-10.795 2.009,-0.744 1.387,3.754 8.11,-3.01 1.251,3.368 -8.109,3.01 z"
   inkscape:connector-curvature="0" />
					<path
   id="path85"
   style="fill:#0072af"
   d="m 287.12,187.16 -1.609,-9.502 2.043,-0.352 1.021,6.039 2.205,-0.379 -0.961,-5.682 2.029,-0.345 0.967,5.683 2.267,-0.387 -1.049,-6.168 2.063,-0.352 1.644,9.638 -10.62,1.807 z"
   inkscape:connector-curvature="0" />
					<path
   id="path87"
   style="fill:#0072af"
   d="m 285.17,174.25 0.352,-5.411 c 0.095,-1.522 0.358,-3.538 1.211,-4.823 1.21,-1.826 3.017,-2.232 4.619,-2.124 2.381,0.156 4.086,1.17 4.769,3.814 0.332,1.339 0.23,2.909 0.176,3.794 l -0.358,5.452 -10.769,-0.702 z m 8.922,-3.07 0.101,-1.529 c 0.149,-2.361 -0.602,-3.923 -3.117,-4.085 -3.268,-0.216 -3.457,2.699 -3.518,3.788 l -0.115,1.394 6.649,0.432 z"
   inkscape:connector-curvature="0" />
					<path
   id="path89"
   style="fill:#0072af"
   d="m 295.74,154.39 c 0.412,0.136 1.589,0.548 2.354,-1.42 0.108,-0.284 0.689,-1.772 -0.453,-2.218 -0.474,-0.19 -0.887,-0.075 -1.38,0.649 l -1.779,2.679 c -0.507,0.764 -1.813,2.719 -3.909,1.894 -1.637,-0.636 -2.584,-2.692 -1.184,-6.264 1.819,-4.674 4.031,-4.045 5.106,-3.646 l -1.313,3.369 c -0.311,-0.122 -1.394,-0.562 -2.009,1.035 -0.372,0.961 -0.155,1.746 0.446,1.982 0.737,0.291 1.197,-0.372 1.502,-0.805 l 1.359,-2.05 c 0.967,-1.454 2.124,-3.186 4.255,-2.354 2.232,0.879 2.354,3.558 1.184,6.561 -0.487,1.244 -1.441,3.172 -2.896,3.869 -1.149,0.568 -2.15,0.196 -2.583,0.041 l 1.3,-3.322 z"
   inkscape:connector-curvature="0" />
					<path
   id="path91"
   style="fill:#0072af"
   d="m 295.79,141.92 -2.076,3.308 -1.807,-1.136 6.115,-9.747 1.806,1.143 -2.117,3.389 7.319,4.599 -1.914,3.044 -7.326,-4.6 z"
   inkscape:connector-curvature="0" />
					<path
   id="path93"
   style="fill:#0072af"
   d="m 302.07,129.9 3.084,-3.064 11.209,4.058 -2.84,2.841 -2.172,-0.906 -3.639,3.639 0.912,2.144 -2.51,2.516 -4.044,-11.228 z m 7.299,2.097 -4.377,-2.036 -0.033,0.034 1.941,4.471 2.469,-2.469 z"
   inkscape:connector-curvature="0" />
					<path
   id="path95"
   style="fill:#0072af"
   d="m 314.11,122.48 -3.314,2.063 -1.129,-1.806 9.76,-6.088 1.129,1.806 -3.395,2.131 4.586,7.338 -3.051,1.901 -4.586,-7.345 z"
   inkscape:connector-curvature="0" />
					<path
   id="path97"
   style="fill:#0072af"
   d="m 321.54,115.77 9.043,-3.334 0.709,1.928 -5.742,2.117 0.777,2.11 5.412,-1.996 0.717,1.941 -5.404,1.989 0.791,2.164 5.871,-2.178 0.725,1.968 -9.186,3.389 -3.713,-10.098 z"
   inkscape:connector-curvature="0" />
					<path
   id="path99"
   style="fill:#0072af"
   d="m 337.64,118.46 c 0.082,0.439 0.291,1.65 2.381,1.359 0.305,-0.047 1.887,-0.271 1.711,-1.488 -0.061,-0.508 -0.357,-0.798 -1.23,-0.879 l -3.213,-0.23 c -0.92,-0.074 -3.254,-0.243 -3.578,-2.482 -0.242,-1.738 1.076,-3.565 4.883,-4.113 4.959,-0.71 5.494,1.536 5.682,2.665 l -3.584,0.514 c -0.041,-0.325 -0.189,-1.488 -1.887,-1.238 -1.014,0.142 -1.598,0.724 -1.51,1.353 0.115,0.791 0.922,0.866 1.449,0.919 l 2.447,0.169 c 1.752,0.142 3.814,0.291 4.141,2.557 0.338,2.381 -1.941,3.794 -5.135,4.241 -1.313,0.196 -3.469,0.318 -4.795,-0.616 -1.049,-0.723 -1.219,-1.765 -1.307,-2.225 l 3.545,-0.506 z"
   inkscape:connector-curvature="0" />
					<path
   id="path101"
   style="fill:#0072af"
   d="m 359.59,114.9 c 0.027,-1.102 -0.805,-1.65 -1.805,-1.826 -2.117,-0.358 -3.045,1.17 -3.383,3.111 -0.102,0.656 -0.547,3.328 2.178,3.794 1.854,0.318 2.24,-0.784 2.381,-1.184 l 3.652,0.623 c -0.588,3.321 -4.666,2.922 -6.324,2.645 -1.223,-0.224 -3.367,-0.757 -4.551,-2.239 -1.178,-1.475 -1.137,-3.207 -0.955,-4.315 0.258,-1.454 0.908,-2.848 2.293,-3.781 1.502,-1.015 3.221,-1.062 5.074,-0.744 2.049,0.345 3.537,1.021 4.396,2.083 0.852,1.088 0.711,2.042 0.648,2.448 L 359.59,114.9 Z"
   inkscape:connector-curvature="0" />
					<path
   id="path103"
   style="fill:#0072af"
   d="m 367.72,114.76 c 2.037,-0.588 4.33,0.311 5.189,0.704 4.674,2.097 4.66,5.492 3.584,7.886 -1.766,3.923 -5.613,3.639 -8.4,2.381 -3.117,-1.399 -5.377,-4.146 -3.727,-7.812 0.303,-0.663 1.305,-2.564 3.354,-3.159 z m 1.306,8.983 c 2.32,1.042 3.518,-0.582 4.125,-1.941 0.631,-1.373 0.549,-2.232 0.379,-2.833 -0.23,-0.758 -0.912,-1.258 -1.629,-1.583 -2.139,-0.96 -3.424,0.325 -4.182,2.016 -0.708,1.567 -0.857,3.367 1.307,4.341 z"
   inkscape:connector-curvature="0" />
					<path
   id="path105"
   style="fill:#0072af"
   d="m 385.02,122.99 3.355,2.746 -2.93,11.56 -3.111,-2.55 0.697,-2.239 -3.977,-3.267 -2.051,1.13 -2.752,-2.259 10.769,-5.121 z m -1.368,7.468 1.598,-4.559 -0.035,-0.034 -4.26,2.374 2.697,2.219 z"
   inkscape:connector-curvature="0" />
					<path
   id="path107"
   style="fill:#0072af"
   d="m 390.36,138.52 c -0.338,0.264 -1.326,1.021 -0.088,2.733 0.184,0.243 1.115,1.549 2.109,0.825 0.414,-0.291 0.541,-0.697 0.203,-1.502 l -1.277,-2.956 c -0.373,-0.839 -1.307,-2.997 0.52,-4.315 1.42,-1.028 3.66,-0.71 5.918,2.401 2.93,4.065 1.197,5.58 0.271,6.27 l -2.104,-2.929 c 0.264,-0.183 1.225,-0.852 0.217,-2.239 -0.596,-0.839 -1.387,-1.082 -1.914,-0.704 -0.643,0.467 -0.338,1.204 -0.129,1.691 l 0.988,2.259 c 0.695,1.603 1.508,3.51 -0.34,4.85 -1.953,1.414 -4.268,0.041 -6.148,-2.563 -0.783,-1.082 -1.893,-2.929 -1.684,-4.525 0.148,-1.271 1.002,-1.914 1.367,-2.198 l 2.091,2.902 z"
   inkscape:connector-curvature="0" />
					<path
   id="path109"
   style="fill:#0072af"
   d="m 401.4,146.53 -1.57,-3.578 1.955,-0.866 4.605,10.551 -1.961,0.852 -1.596,-3.659 -7.936,3.457 -1.439,-3.28 7.942,-3.477 z"
   inkscape:connector-curvature="0" />
					<path
   id="path111"
   style="fill:#0072af"
   d="m 405.88,166.84 c 1.09,-0.345 1.252,-1.427 1.123,-2.394 -0.338,-2.415 -2.232,-3.058 -4.023,-2.807 -2.496,0.345 -3.336,2.124 -3.045,4.254 0.088,0.656 0.258,1.292 0.453,1.934 l 2.07,-0.284 -0.359,-2.686 2.029,-0.284 0.818,6 -5.715,0.791 c -0.637,-1.806 -1.102,-3.659 -1.367,-5.546 -0.195,-1.373 -0.27,-3.301 0.461,-4.904 0.797,-1.765 2.381,-2.732 4.092,-2.976 1.285,-0.169 3.146,0.041 4.504,1.326 1.414,1.346 1.941,3.544 2.145,5.073 0.271,2.002 0.148,3.686 -0.609,4.822 -0.689,1.035 -1.568,1.17 -2.09,1.265 l -0.487,-3.584 z"
   inkscape:connector-curvature="0" />
					<path
   id="path113"
   style="fill:#0072af"
   d="m 408.96,177.22 -6.379,-0.73 c -0.568,-0.061 -1.176,-0.074 -1.664,0.23 -0.643,0.406 -1.021,1.197 -1.121,2.069 -0.252,2.232 1.236,2.719 2.313,2.841 l 6.262,0.717 -0.391,3.436 -6.209,-0.703 c -1.191,-0.135 -2.457,-0.48 -3.152,-1.366 -1.131,-1.387 -1.123,-3.687 -0.947,-5.296 0.689,-6.02 3.85,-5.681 5.594,-5.485 l 6.102,0.724 -0.408,3.563 z"
   inkscape:connector-curvature="0" />
					<path
   id="path115"
   style="fill:#0072af"
   d="m 405.53,193.57 -1.637,4.012 -11.91,0.608 1.521,-3.728 2.348,0 1.947,-4.754 -1.678,-1.631 1.34,-3.287 8.069,8.78 z m -7.533,0.887 4.822,0.196 0.027,-0.054 -3.531,-3.362 -1.318,3.22 z"
   inkscape:connector-curvature="0" />
					<path
   id="path117"
   style="fill:#0072af"
   d="m 399.32,206.3 -3.658,4.688 c -1.428,1.813 -2.063,2.421 -3.043,2.624 -0.508,0.108 -1.279,0.128 -2.207,-0.589 -0.926,-0.724 -0.973,-1.494 -0.852,-2.15 0.17,-0.92 0.588,-1.583 0.771,-1.887 l -0.041,-0.041 c -1.59,1.928 -2.4,1.461 -3.889,0.662 -0.65,-0.352 -1.678,-0.934 -2.463,-1.17 l 2.381,-3.029 c 0.643,0.229 1.354,0.683 2.172,1.17 1.137,0.669 1.543,0.92 2.529,-0.338 l 0.928,-1.185 -3.328,-2.591 2.211,-2.807 8.489,6.643 z m -5.855,-0.034 -0.813,1.048 c -0.486,0.615 -0.73,0.928 -0.846,1.219 -0.318,0.743 0.109,1.285 0.379,1.494 1.055,0.825 1.908,-0.277 2.549,-1.082 l 0.826,-1.049 -2.095,-1.63 z"
   inkscape:connector-curvature="0" />
					<path
   id="path119"
   style="fill:#0072af"
   d="m 388.61,218.82 -4.404,3.18 c -1.244,0.893 -2.963,1.968 -4.498,2.137 -2.178,0.23 -3.631,-0.92 -4.564,-2.212 -1.408,-1.935 -1.697,-3.896 -0.088,-6.114 0.818,-1.104 2.09,-2.022 2.813,-2.543 l 4.424,-3.199 6.317,8.751 z m -8.062,-4.924 -1.244,0.893 c -1.895,1.393 -2.639,2.969 -1.164,5.006 1.914,2.658 4.281,0.946 5.162,0.311 l 1.148,-0.805 -3.902,-5.405 z"
   inkscape:connector-curvature="0" />
				</g>
				<g
   id="g121">
					<g
   id="g123">
						<path
   id="path125"
   style="fill:#0072af"
   d="m 329.2,220.15 c -1.014,0.291 -1.764,0.412 -2.557,0.426 l -0.818,2.266 c 0.615,-0.014 1.285,-0.081 1.84,-0.236 l -2.801,7.656 3.43,1.258 3.795,-10.301 -2.889,-1.069 z"
   inkscape:connector-curvature="0" />
					</g>
					<path
   id="path127"
   style="fill:#0072af"
   d="m 333.58,221.93 10.316,1.705 -0.367,2.184 -6.297,7.799 -4.18,-0.689 6.791,-7.697 -6.621,-1.096 0.358,-2.206 z"
   inkscape:connector-curvature="0" />
					<path
   id="path129"
   style="fill:#0072af"
   d="m 348.13,231.67 c 0.041,0.615 0.73,1.048 1.787,1 2.016,-0.094 2.197,-1.501 2.143,-3.456 -0.615,0.644 -1.434,1.185 -3.016,1.272 -1.771,0.074 -2.68,-0.285 -3.402,-0.84 -0.791,-0.615 -1.271,-1.474 -1.313,-2.468 -0.115,-2.232 1.975,-3.917 5.283,-4.065 3.496,-0.176 4.627,1.353 5.154,2.266 0.574,1.021 0.824,2.145 0.879,3.281 0.061,1.271 -0.129,2.936 -1.238,4.213 -1.162,1.354 -2.854,1.705 -4.49,1.773 -1.684,0.08 -3.227,-0.123 -4.369,-1.022 -0.752,-0.602 -0.854,-1.339 -0.908,-1.792 l 3.49,-0.162 z m 3.693,-4.918 c -0.027,-0.724 -0.52,-1.711 -2.123,-1.637 -1.414,0.061 -2.016,0.853 -1.969,1.799 0.033,0.826 0.59,1.719 2.09,1.645 1.422,-0.068 2.051,-0.826 2.002,-1.807 z"
   inkscape:connector-curvature="0" />
					<path
   id="path131"
   style="fill:#0072af"
   d="m 357.34,223.8 c 0.813,-1.435 2.367,-2.117 3.531,-2.436 2.408,-0.67 3.699,-0.182 4.416,0.244 1.076,0.608 2.063,1.63 2.658,3.727 0.84,3.037 0.115,5.965 -3.957,7.082 -1.453,0.426 -3.023,0.459 -4.227,-0.189 -1.758,-0.947 -2.482,-2.773 -2.781,-3.822 -0.275,-1.008 -0.587,-2.928 0.36,-4.606 z m 6.082,6.621 c 0.561,-0.155 1.066,-0.541 1.23,-1.008 0.318,-0.98 -0.164,-2.732 -0.23,-2.969 -0.148,-0.535 -0.555,-1.746 -1.021,-2.449 -0.23,-0.357 -0.711,-0.974 -1.895,-0.643 -1.02,0.271 -1.805,0.894 -0.918,4.1 0.627,2.253 1.332,3.389 2.834,2.969 z"
   inkscape:connector-curvature="0" />
				</g>
			</g>
		</g>
		<polygon
   id="polygon133"
   style="fill:#0072af"
   points="240.35,9 191.5,9 27.89,344.45 76.739,344.45 " />
		<polygon
   id="polygon135"
   style="fill:#ffffff"
   points="76.739,344.45 115.46,344.45 279.07,9 240.35,9 " />
	</g>
</g>
<rect
   id="rect3279-0-8"
   style="fill:#808080;fill-opacity:0.50196078;fill-rule:evenodd"
   height="88.864998"
   width="122.08857"
   y="-14.131824"
   x="-10.317933"
   ry="3.1925676"
   rx="0.35472974" /></svg>