<?xml version="1.0" encoding="utf-8"?>
<!-- Generator: Adobe Illustrator 19.1.0, SVG Export Plug-In . SVG Version: 6.00 Build 0)  -->
<svg version="1.1" id="Layer_1" xmlns="http://www.w3.org/2000/svg" xmlns:xlink="http://www.w3.org/1999/xlink" x="0px" y="0px"
	 viewBox="0 0 400 350" style="enable-background:new 0 0 400 350;" xml:space="preserve">
<style type="text/css">
	.st0{fill:#FFFFFF;}
</style>
<g>
	<polygon class="st0" points="94.1,230 98.8,203.7 43.5,203.7 46.8,186.4 91.7,186.4 96.3,161.2 50.3,161.2 53.8,146.3 106.9,146.3 
		111.5,120 22.7,120 3.2,230 	"/>
	<path class="st0" d="M217.3,152c0-19.5-10.3-34.4-41.4-34.4c-27.6,0-49.5,11.4-53,34.4c-8.1,42.5,57.6,30.9,54.1,47.1
		c-1.1,5.7-7,8.1-16.2,8.1c-3.5,0-7-1.1-10.3-2.2c-2.4-2.2-3.5-4.6-3.5-9.2h-34.6c-3.5,19.5,12.7,36.6,41.4,36.6
		c31.1,0,54.1-12.7,58.7-37.9c7-39-58.7-28.7-55.2-45.8c1.1-3.5,4.6-5.7,12.7-5.7c3.5,0,7,0,9.2,2.2c2.4,1.1,3.5,3.5,3.5,6.8
		L217.3,152L217.3,152z"/>
	<path class="st0" d="M271.4,146.3h16.2c9.2,0,13.8,3.5,12.7,11.4c-1.1,6.8-8.1,10.3-18.4,10.3h-14L271.4,146.3L271.4,146.3z
		 M273.6,191c17.3,0,18.4,5.7,16.2,19.5c-1.1,9.2-2.4,17.1-1.1,19.5h35.7l1.1-3.5c-4.6,0-3.5-4.6,0-19.5
		c3.5-21.7-3.5-24.1-13.8-28.7c12.7-3.5,20.8-14.9,23-26.3c3.5-21.7-7-32.2-42.5-32.2h-51.7l-19.5,110h35.7l7-39h9.9V191z"/>
	<polygon class="st0" points="377.3,230 396.8,120 360,120 341.6,230 	"/>
</g>
</svg>
