<?xml version="1.0" encoding="UTF-8" standalone="no"?>
<!-- Created with Inkscape (http://www.inkscape.org/) -->
<svg id="svg2985" xmlns:rdf="http://www.w3.org/1999/02/22-rdf-syntax-ns#" xmlns="http://www.w3.org/2000/svg" viewBox="0 0 32 32" version="1.1" xmlns:cc="http://creativecommons.org/ns#" xmlns:dc="http://purl.org/dc/elements/1.1/">
<metadata id="metadata2990">
<rdf:RDF>
<cc:Work rdf:about="">
<dc:format>image/svg+xml</dc:format>
<dc:type rdf:resource="http://purl.org/dc/dcmitype/StillImage"/>
<dc:title/>
</cc:Work>
</rdf:RDF>
</metadata>
<g id="layer1">
<path id="path3779-1" style="opacity:0.98999999;stroke-linejoin:round;stroke:#ffffff;stroke-linecap:butt;stroke-miterlimit:4;stroke-dasharray:none;stroke-width:3.12178755;fill:#ffffff;" transform="matrix(0.76668798,0.59633823,-0.65404541,0.69580508,31.95832,26.939718)" d="m-11.654,12.772c-12.539,4.0988-10.448,9.1075-19.765-3.4445-9.3173-12.552-10.893-7.3963,0.30514-18.753s9.5957-7.4712,21.06,1.1545c11.463,8.6257,10.939,16.944-1.6,21.043z"/>
<path id="path3779" style="opacity:0.98999999;stroke-linejoin:round;stroke:#4d4d4d;stroke-linecap:butt;stroke-miterlimit:4;stroke-dasharray:none;stroke-width:3.62127376;fill:#ffffff;" transform="matrix(0.66093791,0.51408467,-0.56383225,0.59983196,29.757173,25.430791)" d="m-11.654,12.772c-12.539,4.0988-10.448,9.1075-19.765-3.4445-9.3173-12.552-10.893-7.3963,0.30514-18.753s9.5957-7.4712,21.06,1.1545c11.463,8.6257,10.939,16.944-1.6,21.043z"/>
<text id="text3775" style="font-size:22px;font-family:Arial;writing-mode:lr-tb;fill:#000000;letter-spacing:0px;text-anchor:start;line-height:125%;word-spacing:0px;font-stretch:normal;font-variant:normal;font-weight:bold;font-style:normal;text-align:start;" xml:space="preserve" y="22.714844" x="6.671875"><tspan id="tspan3777" x="6.671875" y="22.714844">M</tspan></text>
</g>
</svg>
