<?xml version="1.0" encoding="UTF-8" standalone="no"?>
<!-- Created with Inkscape (http://www.inkscape.org/) -->

<svg
   xmlns:dc="http://purl.org/dc/elements/1.1/"
   xmlns:cc="http://creativecommons.org/ns#"
   xmlns:rdf="http://www.w3.org/1999/02/22-rdf-syntax-ns#"
   xmlns:svg="http://www.w3.org/2000/svg"
   xmlns="http://www.w3.org/2000/svg"
   xmlns:xlink="http://www.w3.org/1999/xlink"
   xmlns:sodipodi="http://sodipodi.sourceforge.net/DTD/sodipodi-0.dtd"
   xmlns:inkscape="http://www.inkscape.org/namespaces/inkscape"
   id="svg3153"
   height="100%"
   viewBox="0 0 50 25.99995"
   width="100%"
   version="1.1"
   inkscape:version="0.91 r13725"
   sodipodi:docname="north_korea.off.svg">
  <sodipodi:namedview
     pagecolor="#ffffff"
     bordercolor="#666666"
     borderopacity="1"
     objecttolerance="10"
     gridtolerance="10"
     guidetolerance="10"
     inkscape:pageopacity="0"
     inkscape:pageshadow="2"
     inkscape:window-width="1920"
     inkscape:window-height="1018"
     id="namedview45"
     showgrid="false"
     inkscape:zoom="16"
     inkscape:cx="15.317121"
     inkscape:cy="12.843319"
     inkscape:window-x="1672"
     inkscape:window-y="-8"
     inkscape:window-maximized="1"
     inkscape:current-layer="svg3153" />
  <metadata
     id="metadata3224">
    <rdf:RDF>
      <cc:Work
         rdf:about="">
        <dc:format>image/svg+xml</dc:format>
        <dc:type
           rdf:resource="http://purl.org/dc/dcmitype/StillImage" />
        <dc:title></dc:title>
      </cc:Work>
    </rdf:RDF>
  </metadata>
  <defs
     id="defs3155">
    <polygon
       id="pt"
       style="fill:#ffffff;"
       points="0,-0.5,0.16246,0,-0.16246,0"
       transform="scale(0.0616,0.0616)" />
    <g
       id="star">
      <use
         id="use3159"
         xlink:href="#pt"
         transform="matrix(-0.80901699,-0.58778525,0.58778525,-0.80901699,0,0)"
         height="650"
         width="1235"
         y="0"
         x="0" />
      <use
         id="use3161"
         xlink:href="#pt"
         transform="matrix(0.30901699,-0.95105652,0.95105652,0.30901699,0,0)"
         height="650"
         width="1235"
         y="0"
         x="0" />
      <use
         id="use3163"
         xlink:href="#pt"
         height="650"
         width="1235"
         y="0"
         x="0" />
      <use
         id="use3165"
         xlink:href="#pt"
         transform="matrix(0.30901699,0.95105652,-0.95105652,0.30901699,0,0)"
         height="650"
         width="1235"
         y="0"
         x="0" />
      <use
         id="use3167"
         xlink:href="#pt"
         transform="matrix(-0.80901699,0.58778525,-0.58778525,-0.80901699,0,0)"
         height="650"
         width="1235"
         y="0"
         x="0" />
    </g>
    <g
       id="s5">
      <use
         id="use3170"
         xlink:href="#star"
         height="650"
         width="1235"
         y="0"
         x="-0.252" />
      <use
         id="use3172"
         xlink:href="#star"
         height="650"
         width="1235"
         y="0"
         x="-0.126" />
      <use
         id="use3174"
         xlink:href="#star"
         height="650"
         width="1235"
         y="0"
         x="0" />
      <use
         id="use3176"
         xlink:href="#star"
         height="650"
         width="1235"
         y="0"
         x="0.126" />
      <use
         id="use3178"
         xlink:href="#star"
         height="650"
         width="1235"
         y="0"
         x="0.252" />
    </g>
    <g
       id="s6">
      <use
         id="use3181"
         xlink:href="#s5"
         height="650"
         width="1235"
         y="0"
         x="-0.063000001" />
      <use
         id="use3183"
         xlink:href="#star"
         height="650"
         width="1235"
         y="0"
         x="0.315" />
    </g>
    <g
       id="x4">
      <use
         id="use3186"
         xlink:href="#s6"
         height="650"
         width="1235"
         y="0"
         x="0" />
      <use
         id="use3188"
         xlink:href="#s5"
         height="650"
         width="1235"
         y="0.054000001"
         x="0" />
      <use
         id="use3190"
         xlink:href="#s6"
         height="650"
         width="1235"
         y="0.108"
         x="0" />
      <use
         id="use3192"
         xlink:href="#s5"
         height="650"
         width="1235"
         y="0.162"
         x="0" />
    </g>
    <g
       id="u">
      <use
         id="use3195"
         xlink:href="#x4"
         height="650"
         width="1235"
         y="-0.21600001"
         x="0" />
      <use
         id="use3197"
         xlink:href="#x4"
         height="650"
         width="1235"
         y="0"
         x="0" />
      <use
         id="use3199"
         xlink:href="#s6"
         height="650"
         width="1235"
         y="0.21600001"
         x="0" />
    </g>
  </defs>
  <rect
     id="rect4"
     width="50.399994"
     height="25.199997"
     x="0.089069016"
     y="0.49817157"
     style="fill:#024fa2" />
  <rect
     id="rect6"
     y="4.6981354"
     width="50.399994"
     height="16.799999"
     x="0.089069016"
     style="fill:#ffffff" />
  <rect
     id="rect8"
     y="5.3981528"
     width="50.399994"
     height="15.4"
     x="0.089069016"
     style="fill:#ed1c27" />
  <circle
     id="circle10"
     cy="13.098194"
     cx="16.888922"
     r="5.5999994"
     style="fill:#ffffff" />
  <g
     id="star-3"
     transform="matrix(5.425,0,0,5.425,16.889064,13.098208)"
     style="fill:#ed1c27">
    <g
       id="cone">
      <polygon
         id="triangle"
         points="0.5,1 0,0 0,1 "
         transform="matrix(0.95105652,0.30901699,-0.30901699,0.95105652,0,-1)" />
      <use
         id="use12"
         xlink:href="#triangle"
         transform="scale(-1,1)"
         x="0"
         y="0"
         width="100%"
         height="100%" />
    </g>
    <use
       id="use14"
       xlink:href="#cone"
       transform="matrix(0.30901699,0.95105652,-0.95105652,0.30901699,0,0)"
       x="0"
       y="0"
       width="100%"
       height="100%" />
    <use
       id="use16"
       xlink:href="#cone"
       transform="matrix(0.30901699,-0.95105652,0.95105652,0.30901699,0,0)"
       x="0"
       y="0"
       width="100%"
       height="100%" />
    <use
       id="use18"
       xlink:href="#cone"
       transform="matrix(-0.80901699,0.58778525,-0.58778525,-0.80901699,0,0)"
       x="0"
       y="0"
       width="100%"
       height="100%" />
    <use
       id="use20"
       xlink:href="#cone"
       transform="matrix(-0.80901699,-0.58778525,0.58778525,-0.80901699,0,0)"
       x="0"
       y="0"
       width="100%"
       height="100%" />
  </g>
  <rect
     id="rect3279"
     style="fill:#808080;fill-opacity:0.50196078;fill-rule:evenodd"
     height="26.25"
     width="50.5"
     y="-0.18754995"
     x="0.24999997" />
  <rect
     style="fill:#ffffff;fill-opacity:0"
     id="rect4331"
     width="0.625"
     height="0.125"
     x="-0.4375"
     y="25.99995" />
  <rect
     style="fill:#ffffff;fill-opacity:0"
     id="rect4333"
     width="0.25"
     height="0.0625"
     x="-0.0625"
     y="0.18745005" />
</svg>
