<?xml version="1.0" encoding="utf-8"?>
<!-- Generator: Adobe Illustrator 19.1.0, SVG Export Plug-In . SVG Version: 6.00 Build 0)  -->
<svg version="1.1" id="Layer_1" xmlns="http://www.w3.org/2000/svg" xmlns:xlink="http://www.w3.org/1999/xlink" x="0px" y="0px"
	 viewBox="0 0 400 350" style="enable-background:new 0 0 400 350;" xml:space="preserve">
<style type="text/css">
	.st0{fill:#FFFFFF;}
</style>
<g>
	<path class="st0" d="M214.3,140.9l-0.1,0.1c0.5,3.1,1.3,6.9,1.7,9.9l1.5,11.1l10.3-4.4l-7.1-8.7
		C218.5,146.5,216.2,143.4,214.3,140.9z"/>
	<path class="st0" d="M267.7,39.8L25.4,142.3l71.5,167.9l238.5-101.6l39.1-97.2L360,76.9L267.7,39.8z M158.1,186.5
		c6.2,14.4,1.8,24.4-10.4,29.6c-11.8,5-21.5,1.5-27.9-13.4l-11.1-26.1l10.6-4.5l11.5,26.9c3.4,8,8.2,10.8,13.6,8.5
		c5.5-2.4,6.9-7.5,3.4-15.8l-11.5-26.9l10.5-4.5L158.1,186.5z M187.7,198.9c-5.3,2.3-11.2,3.1-14.5,2.8l-1.6-9.7
		c3.5,0.2,8.5-0.2,13-2.1c4.9-2.1,6.6-5.2,5.3-8.2c-1.2-2.9-4.2-3.6-10.6-3.2c-8.9,0.6-15.8-1.5-18.7-8.3c-3.4-8,0.7-16.9,11.7-21.6
		c5.3-2.2,9.6-2.8,12.9-2.7l1.3,9.5c-2.3-0.1-6.1,0-10.7,2c-4.6,2-5.9,5-4.9,7.4c1.3,3,4.5,3.2,11.5,2.9c9.6-0.5,15.3,2.2,18.1,8.8
		C203.7,184.2,200.5,193.5,187.7,198.9z M241.2,175.3l-8.7-10.5l-13.4,5.7l1.8,13.4l-11,4.7l-5.7-52.8l13.9-5.9l34.4,40.5
		L241.2,175.3z M326.6,140.4c-13.5,5.8-29.2-0.5-34.9-14.1c-5.8-13.5,0.5-29.2,14.1-34.9c13.5-5.8,29.2,0.5,34.9,14.1
		C346.4,119,340.2,134.6,326.6,140.4z"/>
</g>
</svg>
