<?xml version="1.0" encoding="UTF-8" standalone="no"?>
<!-- Generator: Adobe Illustrator 19.1.0, SVG Export Plug-In . SVG Version: 6.00 Build 0)  -->

<svg
   xmlns:dc="http://purl.org/dc/elements/1.1/"
   xmlns:cc="http://creativecommons.org/ns#"
   xmlns:rdf="http://www.w3.org/1999/02/22-rdf-syntax-ns#"
   xmlns:svg="http://www.w3.org/2000/svg"
   xmlns="http://www.w3.org/2000/svg"
   xmlns:sodipodi="http://sodipodi.sourceforge.net/DTD/sodipodi-0.dtd"
   xmlns:inkscape="http://www.inkscape.org/namespaces/inkscape"
   version="1.1"
   id="Layer_1"
   x="0px"
   y="0px"
   viewBox="0 0 400 350"
   style="enable-background:new 0 0 400 350;"
   xml:space="preserve"
   inkscape:version="0.91 r13725"
   sodipodi:docname="places_labels.off.svg"><metadata
   id="metadata15"><rdf:RDF><cc:Work
       rdf:about=""><dc:format>image/svg+xml</dc:format><dc:type
         rdf:resource="http://purl.org/dc/dcmitype/StillImage" /><dc:title></dc:title></cc:Work></rdf:RDF></metadata><defs
   id="defs13" /><sodipodi:namedview
   pagecolor="#ffffff"
   bordercolor="#666666"
   borderopacity="1"
   objecttolerance="10"
   gridtolerance="10"
   guidetolerance="10"
   inkscape:pageopacity="0"
   inkscape:pageshadow="2"
   inkscape:window-width="1680"
   inkscape:window-height="1028"
   id="namedview11"
   showgrid="false"
   inkscape:zoom="0.67428571"
   inkscape:cx="-140.03693"
   inkscape:cy="255.48042"
   inkscape:window-x="-8"
   inkscape:window-y="22"
   inkscape:window-maximized="1"
   inkscape:current-layer="Layer_1" />
<style
   type="text/css"
   id="style3">
	.st0{fill:#FFFFFF;}
</style>
<g
   id="g5">
	<path
   class="st0"
   d="M214.3,140.9l-0.1,0.1c0.5,3.1,1.3,6.9,1.7,9.9l1.5,11.1l10.3-4.4l-7.1-8.7   C218.5,146.5,216.2,143.4,214.3,140.9z"
   id="path7" />
	<path
   class="st0"
   d="M267.7,39.8L25.4,142.3l71.5,167.9l238.5-101.6l39.1-97.2L360,76.9L267.7,39.8z M158.1,186.5   c6.2,14.4,1.8,24.4-10.4,29.6c-11.8,5-21.5,1.5-27.9-13.4l-11.1-26.1l10.6-4.5l11.5,26.9c3.4,8,8.2,10.8,13.6,8.5   c5.5-2.4,6.9-7.5,3.4-15.8l-11.5-26.9l10.5-4.5L158.1,186.5z M187.7,198.9c-5.3,2.3-11.2,3.1-14.5,2.8l-1.6-9.7   c3.5,0.2,8.5-0.2,13-2.1c4.9-2.1,6.6-5.2,5.3-8.2c-1.2-2.9-4.2-3.6-10.6-3.2c-8.9,0.6-15.8-1.5-18.7-8.3c-3.4-8,0.7-16.9,11.7-21.6   c5.3-2.2,9.6-2.8,12.9-2.7l1.3,9.5c-2.3-0.1-6.1,0-10.7,2c-4.6,2-5.9,5-4.9,7.4c1.3,3,4.5,3.2,11.5,2.9c9.6-0.5,15.3,2.2,18.1,8.8   C203.7,184.2,200.5,193.5,187.7,198.9z M241.2,175.3l-8.7-10.5l-13.4,5.7l1.8,13.4l-11,4.7l-5.7-52.8l13.9-5.9l34.4,40.5   L241.2,175.3z M326.6,140.4c-13.5,5.8-29.2-0.5-34.9-14.1c-5.8-13.5,0.5-29.2,14.1-34.9c13.5-5.8,29.2,0.5,34.9,14.1   C346.4,119,340.2,134.6,326.6,140.4z"
   id="path9" />
</g>
<rect
   id="rect3279-0"
   style="fill:#808080;fill-opacity:0.50196078;fill-rule:evenodd"
   height="355.59747"
   width="422.68643"
   y="-5.7648296"
   x="-11.87289" /></svg>