<?xml version="1.0" encoding="UTF-8" standalone="no"?>
<!-- Created with Inkscape (http://www.inkscape.org/) -->
<svg id="svg2985" xmlns:rdf="http://www.w3.org/1999/02/22-rdf-syntax-ns#" xmlns="http://www.w3.org/2000/svg" viewBox="0 0 32 32" height="100%" width="100%" version="1.1" xmlns:cc="http://creativecommons.org/ns#" xmlns:dc="http://purl.org/dc/elements/1.1/">
<metadata id="metadata2990">
<rdf:RDF>
<cc:Work rdf:about="">
<dc:format>image/svg+xml</dc:format>
<dc:type rdf:resource="http://purl.org/dc/dcmitype/StillImage"/>
<dc:title/>
</cc:Work>
</rdf:RDF>
</metadata>
<g id="layer1">
<path id="path3779-1" d="m-11.654,12.772c-12.539,4.0988-10.448,9.1075-19.765-3.4445-9.3173-12.552-10.893-7.3963,0.30514-18.753s9.5957-7.4712,21.06,1.1545c11.463,8.6257,10.939,16.944-1.6,21.043z" style="opacity:0.98999999000000005;stroke-linejoin:round;stroke:#999999;stroke-linecap:butt;stroke-miterlimit:4;stroke-dasharray:none;stroke-width:3.12178755000000010;fill:#ffffff;" transform="matrix(0.76668798,0.59633823,-0.65404541,0.69580508,31.95832,26.939718)"/>
<path id="path3779" d="m-11.654,12.772c-12.539,4.0988-10.448,9.1075-19.765-3.4445-9.3173-12.552-10.893-7.3963,0.30514-18.753s9.5957-7.4712,21.06,1.1545c11.463,8.6257,10.939,16.944-1.6,21.043z" style="opacity:0.98999999000000005;stroke-linejoin:round;stroke:#4d4d4d;stroke-linecap:butt;stroke-miterlimit:4;stroke-dasharray:none;stroke-width:3.62127375999999980;fill:#999999;" transform="matrix(0.66093791,0.51408467,-0.56383225,0.59983196,29.757173,25.430791)"/>
<text id="text3775" y="23.465265" x="8.6118259" style="font-size:22px;font-weight:bold;writing-mode:lr;letter-spacing:0px;text-anchor:start;font-style:normal;word-spacing:0px;font-stretch:normal;font-variant:normal;text-align:start;font-family:Arial;line-height:125%;fill:#000000;" xml:space="preserve"><tspan id="tspan3777" y="23.465265" x="8.6118259">S</tspan></text>
</g>
</svg>
