<?xml version="1.0" encoding="UTF-8" standalone="no"?>
<!-- Created with Inkscape (http://www.inkscape.org/) -->
<svg id="svg4065" xmlns:rdf="http://www.w3.org/1999/02/22-rdf-syntax-ns#" xmlns="http://www.w3.org/2000/svg" viewBox="0 0 32 32" version="1.1" xmlns:cc="http://creativecommons.org/ns#" xmlns:xlink="http://www.w3.org/1999/xlink" xmlns:dc="http://purl.org/dc/elements/1.1/">
<defs id="defs4067">
<linearGradient id="linearGradient5329" y2="26.861" gradientUnits="userSpaceOnUse" x2="25.94" y1="6.0228" x1="4.2917">
<stop id="stop5325" style="stop-color:#ffff80;" offset="0"/>
<stop id="stop5337" style="stop-color:#ffff00;" offset="0.052905"/>
<stop id="stop5335" style="stop-color:#fff000;stop-opacity:0.87450981;" offset="0.12535"/>
<stop id="stop5333" style="stop-color:#ffe100;" offset="0.21188"/>
<stop id="stop5331" style="stop-color:#ffc800;" offset="0.53052"/>
<stop id="stop5339" style="stop-color:#ffc300;" offset="0.73211"/>
<stop id="stop5327" style="stop-color:#ffb400;" offset="1"/>
</linearGradient>
</defs>
<metadata id="metadata4070">
<rdf:RDF>
<cc:Work rdf:about="">
<dc:format>image/svg+xml</dc:format>
<dc:type rdf:resource="http://purl.org/dc/dcmitype/StillImage"/>
<dc:title/>
</cc:Work>
</rdf:RDF>
</metadata>
<g id="layer1">
<path id="path5270" style="fill:url(#linearGradient5329);" d="M13.906,1.25l-1,0.1875-0.375,1.625,0.031,0.8125,0.188,0.6562-1.625,0.5938-0.281-0.625-0.5-0.6562-1.344-1-0.875,0.5312,0.1875,1.6562,0.3125,0.75,0.4062,0.5626-1.3437,1.0937-0.4687-0.4687-0.6876-0.4376-1.5937-0.5-0.6563,0.7813,0.75,1.5,0.5313,0.625,0.5625,0.375-0.8438,1.4995-0.625-0.312-0.8124-0.156-1.6563,0.094-0.3437,0.937,1.2187,1.156,0.7187,0.407,0.6563,0.156-0.2813,1.687-0.6874-0.062-0.8126,0.125-1.5312,0.656v1l1.5312,0.656,0.8126,0.125,0.6874-0.062,0.2813,1.687-0.6563,0.156-0.7187,0.407-1.2187,1.156,0.3437,0.937,1.6563,0.094,0.8124-0.156,0.625-0.312,0.8438,1.5-0.5625,0.374-0.5313,0.626-0.75,1.5,0.6563,0.781,1.5937-0.5,0.6876-0.438,0.4687-0.469,1.3437,1.094-0.4062,0.563-0.3125,0.75-0.1875,1.656,0.875,0.531,1.344-1,0.5-0.656,0.281-0.625,1.625,0.594-0.188,0.656-0.031,0.813,0.375,1.624,1,0.188,0.938-1.406,0.25-0.782,0.031-0.687h1.75l0.031,0.687,0.25,0.782,0.938,1.406,1-0.188,0.375-1.624-0.031-0.813-0.188-0.656,1.625-0.594,0.281,0.625,0.5,0.656,1.344,1,0.875-0.531-0.187-1.656-0.313-0.75-0.406-0.563,1.343-1.094,0.469,0.469,0.688,0.438,1.593,0.5,0.657-0.781-0.75-1.5-0.531-0.626-0.563-0.374,0.844-1.5,0.625,0.312,0.812,0.156,1.656-0.094,0.344-0.937-1.218-1.156-0.719-0.407-0.657-0.156,0.282-1.687,0.687,0.062,0.813-0.125,1.531-0.656v-1l-1.531-0.656-0.813-0.125-0.687,0.062-0.282-1.687,0.657-0.156,0.719-0.407,1.218-1.156-0.344-0.937-1.656-0.094-0.812,0.156-0.625,0.312-0.844-1.4995,0.563-0.375,0.531-0.625,0.75-1.5-0.657-0.7813-1.593,0.5-0.688,0.4376-0.469,0.4687-1.343-1.0937,0.406-0.5626,0.313-0.75,0.187-1.6562-0.875-0.5312-1.344,1-0.5,0.6562-0.281,0.625-1.625-0.5938,0.188-0.6562,0.031-0.8125-0.375-1.625-1-0.1875-0.938,1.4062-0.25,0.7813-0.031,0.6875h-1.75l-0.031-0.6875-0.25-0.7813-0.938-1.4062zm2.094,5c2.764,0,5.249,1.0899,7.062,2.8438l-5.5,3.8752c-0.469-0.241-0.998-0.407-1.562-0.407-0.162,0-0.313,0.01-0.469,0.032l-3.812-5.4065c1.3-0.5973,2.746-0.9375,4.281-0.9375zm-6.9062,2.6875l3.8752,5.5005c-0.241,0.469-0.407,0.998-0.407,1.562,0,0.162,0.01,0.313,0.032,0.469l-5.5628,3.906c-0.6768-1.313-1.0624-2.804-1.0624-4.375,0-2.782,1.2068-5.288,3.125-7.0625zm15.875,2.6875c0.677,1.313,1.062,2.804,1.062,4.375,0,2.782-1.207,5.288-3.125,7.062l-3.875-5.5c0.241-0.469,0.407-0.998,0.407-1.562,0-0.162-0.01-0.313-0.032-0.469l5.563-3.906zm-8.969,2.656c0.942,0,1.719,0.777,1.719,1.719s-0.777,1.719-1.719,1.719-1.719-0.777-1.719-1.719,0.777-1.719,1.719-1.719zm-1.562,4.75c0.469,0.241,0.998,0.407,1.562,0.407,0.162,0,0.313-0.01,0.469-0.032l3.812,5.406c-1.3,0.598-2.746,0.938-4.281,0.938-2.764,0-5.249-1.09-7.0625-2.844l5.5005-3.875z"/>
</g>
</svg>
