<?xml version="1.0" encoding="UTF-8" standalone="no"?>
<!-- Created with Inkscape (http://www.inkscape.org/) -->
<svg id="svg3759" xmlns:rdf="http://www.w3.org/1999/02/22-rdf-syntax-ns#" xmlns="http://www.w3.org/2000/svg" viewBox="0 0 32 32" version="1.1" xmlns:cc="http://creativecommons.org/ns#" xmlns:xlink="http://www.w3.org/1999/xlink" xmlns:dc="http://purl.org/dc/elements/1.1/">
<defs id="defs3761"></defs>
<metadata id="metadata3764">
<rdf:RDF>
<cc:Work rdf:about="">
<dc:format>image/svg+xml</dc:format>
<dc:type rdf:resource="http://purl.org/dc/dcmitype/StillImage"/>
<dc:title/>
</cc:Work>
</rdf:RDF>
</metadata>
<g id="layer1">
<g id="g4432" transform="matrix(0.9418423,0,0,0.94050786,0.88690458,0.99649318)">
<path id="path4382-3" style="stroke-linejoin:miter;fill-rule:evenodd;stroke:#ffffff;stroke-linecap:butt;stroke-miterlimit:4;stroke-dasharray:none;stroke-width:6.39399672;fill:#ffffff;" d="m-27.047,27.36c0,3.6856-2.9877,6.6733-6.6733,6.6733s-6.6733-2.9877-6.6733-6.6733,2.9877-6.6733,6.6733-6.6733,6.6733,2.9877,6.6733,6.6733z" transform="matrix(1.1473052,0,0,1.1793199,60.212785,-21.213171)"/>
<rect id="rect4375-1" ry="3.024" style="stroke:#ffffff;stroke-dasharray:none;stroke-miterlimit:4;stroke-width:4.25552893;fill:#000000;" transform="matrix(0.73210963,0.68118682,-0.73210963,0.68118682,0,0)" height="17.303" width="6.9856" y="2.3251" x="19.661"/>
<path id="path4382" style="stroke-linejoin:miter;fill-rule:evenodd;stroke:#000000;stroke-linecap:butt;stroke-miterlimit:4;stroke-dasharray:none;stroke-width:2.74028444;fill:#ffffff;" d="m-27.047,27.36c0,3.6856-2.9877,6.6733-6.6733,6.6733s-6.6733-2.9877-6.6733-6.6733,2.9877-6.6733,6.6733-6.6733,6.6733,2.9877,6.6733,6.6733z" transform="matrix(1.1473052,0,0,1.1793199,60.212785,-21.213171)"/>
<rect id="rect4375" ry="3.024" style="fill:#000000;" transform="matrix(0.73210963,0.68118682,-0.73210963,0.68118682,0,0)" height="17.303" width="6.9856" y="2.3251" x="19.661"/>
</g>
</g>
</svg>
